<svg width="186" height="149" viewBox="0 0 186 149" fill="none" xmlns="http://www.w3.org/2000/svg">
<g filter="url(#filter0_dd_5712_19320)">
<rect x="24" y="12.1522" width="138.859" height="102.034" rx="6.1374" fill="white"/>
</g>
<path d="M46.2479 32.1254L44.1953 24.8527H45.6122L46.9226 30.1972H46.9901L48.3892 24.8527H49.6783L51.081 30.2007H51.1449L52.4553 24.8527H53.8722L51.8196 32.1254H50.5199L49.0639 27.0224H49.0071L47.5476 32.1254H46.2479ZM56.587 32.232C56.0401 32.232 55.5678 32.1183 55.1701 31.8911C54.7747 31.6614 54.4705 31.3371 54.2575 30.918C54.0444 30.4966 53.9379 30.0007 53.9379 29.4301C53.9379 28.869 54.0444 28.3766 54.2575 27.9528C54.4729 27.5267 54.7736 27.1953 55.1594 26.9585C55.5453 26.7194 55.9987 26.5999 56.5195 26.5999C56.8557 26.5999 57.1729 26.6543 57.4712 26.7632C57.7719 26.8697 58.0371 27.0355 58.2667 27.2604C58.4987 27.4853 58.681 27.7717 58.8136 28.1197C58.9461 28.4654 59.0124 28.8773 59.0124 29.3555V29.7497H54.5415V28.8832H57.7802C57.7778 28.637 57.7246 28.418 57.6204 28.2263C57.5162 28.0322 57.3706 27.8795 57.1836 27.7682C56.9989 27.6569 56.7835 27.6013 56.5373 27.6013C56.2745 27.6013 56.0437 27.6652 55.8448 27.793C55.646 27.9185 55.4909 28.0842 55.3796 28.2902C55.2707 28.4938 55.2151 28.7175 55.2127 28.9614V29.7178C55.2127 30.035 55.2707 30.3072 55.3867 30.5345C55.5027 30.7594 55.6649 30.9322 55.8732 31.053C56.0816 31.1714 56.3254 31.2305 56.6048 31.2305C56.7918 31.2305 56.9611 31.2045 57.1126 31.1524C57.2641 31.098 57.3955 31.0187 57.5067 30.9145C57.618 30.8103 57.7021 30.6813 57.7589 30.5274L58.9592 30.6624C58.8834 30.9796 58.739 31.2566 58.5259 31.4933C58.3152 31.7277 58.0453 31.91 57.7163 32.0402C57.3872 32.168 57.0108 32.232 56.587 32.232ZM62.5147 32.232C61.9679 32.232 61.4956 32.1183 61.0978 31.8911C60.7025 31.6614 60.3983 31.3371 60.1852 30.918C59.9721 30.4966 59.8656 30.0007 59.8656 29.4301C59.8656 28.869 59.9721 28.3766 60.1852 27.9528C60.4006 27.5267 60.7013 27.1953 61.0872 26.9585C61.4731 26.7194 61.9264 26.5999 62.4473 26.5999C62.7834 26.5999 63.1007 26.6543 63.399 26.7632C63.6996 26.8697 63.9648 27.0355 64.1944 27.2604C64.4264 27.4853 64.6087 27.7717 64.7413 28.1197C64.8739 28.4654 64.9402 28.8773 64.9402 29.3555V29.7497H60.4693V28.8832H63.7079C63.7056 28.637 63.6523 28.418 63.5481 28.2263C63.444 28.0322 63.2984 27.8795 63.1113 27.7682C62.9267 27.6569 62.7112 27.6013 62.465 27.6013C62.2022 27.6013 61.9714 27.6652 61.7725 27.793C61.5737 27.9185 61.4186 28.0842 61.3074 28.2902C61.1984 28.4938 61.1428 28.7175 61.1404 28.9614V29.7178C61.1404 30.035 61.1984 30.3072 61.3145 30.5345C61.4305 30.7594 61.5926 30.9322 61.801 31.053C62.0093 31.1714 62.2531 31.2305 62.5325 31.2305C62.7195 31.2305 62.8888 31.2045 63.0403 31.1524C63.1918 31.098 63.3232 31.0187 63.4345 30.9145C63.5458 30.8103 63.6298 30.6813 63.6866 30.5274L64.8869 30.6624C64.8111 30.9796 64.6667 31.2566 64.4537 31.4933C64.243 31.7277 63.9731 31.91 63.644 32.0402C63.3149 32.168 62.9385 32.232 62.5147 32.232ZM67.1996 30.4138L67.196 28.8619H67.402L69.3622 26.6709H70.8643L68.4531 29.3555H68.1868L67.1996 30.4138ZM66.0277 32.1254V24.8527H67.3132V32.1254H66.0277ZM69.451 32.1254L67.6754 29.6432L68.5419 28.7376L70.9886 32.1254H69.451ZM73.0066 24.8527V32.1254H71.7211V24.8527H73.0066ZM75.1275 34.1709C74.9523 34.1709 74.7901 34.1567 74.641 34.1283C74.4942 34.1022 74.377 34.0715 74.2894 34.0359L74.5877 33.0345C74.7747 33.089 74.9416 33.115 75.0884 33.1126C75.2352 33.1103 75.3642 33.0641 75.4755 32.9741C75.5891 32.8866 75.685 32.7398 75.7631 32.5338L75.8732 32.2391L73.8952 26.6709H75.2589L76.516 30.7902H76.5728L77.8335 26.6709H79.2006L77.0167 32.7859C76.9149 33.0748 76.7799 33.3222 76.6119 33.5281C76.4438 33.7365 76.2378 33.8951 75.994 34.004C75.7525 34.1152 75.4637 34.1709 75.1275 34.1709ZM86.5799 26.852C86.5468 26.5419 86.4071 26.3004 86.1609 26.1276C85.917 25.9547 85.5998 25.8683 85.2092 25.8683C84.9345 25.8683 84.699 25.9098 84.5025 25.9926C84.306 26.0755 84.1557 26.1879 84.0515 26.33C83.9473 26.472 83.8941 26.6342 83.8917 26.8165C83.8917 26.968 83.926 27.0994 83.9947 27.2107C84.0657 27.3219 84.1616 27.4166 84.2823 27.4947C84.4031 27.5705 84.5368 27.6344 84.6836 27.6865C84.8304 27.7386 84.9783 27.7824 85.1275 27.8179L85.8093 27.9884C86.0839 28.0523 86.3479 28.1387 86.6012 28.2476C86.8569 28.3565 87.0853 28.4938 87.2866 28.6595C87.4902 28.8252 87.6512 29.0253 87.7695 29.2597C87.8879 29.494 87.9471 29.7687 87.9471 30.0835C87.9471 30.5097 87.8382 30.8849 87.6204 31.2092C87.4026 31.5312 87.0877 31.7833 86.6758 31.9656C86.2662 32.1456 85.7702 32.2355 85.1879 32.2355C84.622 32.2355 84.1308 32.1479 83.7141 31.9727C83.2998 31.7975 82.9755 31.5419 82.7411 31.2057C82.5091 30.8695 82.3836 30.4599 82.3647 29.977H83.6609C83.6798 30.2303 83.7579 30.441 83.8952 30.6091C84.0326 30.7772 84.2113 30.9027 84.4315 30.9855C84.654 31.0684 84.9026 31.1098 85.1772 31.1098C85.4637 31.1098 85.7146 31.0672 85.93 30.982C86.1478 30.8944 86.3183 30.7736 86.4414 30.6197C86.5645 30.4635 86.6272 30.2812 86.6296 30.0729C86.6272 29.8835 86.5716 29.7272 86.4627 29.6041C86.3538 29.4786 86.2011 29.3745 86.0046 29.2916C85.8105 29.2064 85.5832 29.1306 85.3228 29.0643L84.4954 28.8513C83.8964 28.6974 83.4229 28.4642 83.0749 28.1517C82.7293 27.8368 82.5565 27.419 82.5565 26.8982C82.5565 26.4697 82.6725 26.0944 82.9045 25.7724C83.1388 25.4505 83.4573 25.2007 83.8597 25.0232C84.2622 24.8432 84.7179 24.7533 85.2269 24.7533C85.743 24.7533 86.1952 24.8432 86.5835 25.0232C86.9741 25.2007 87.2807 25.4481 87.5032 25.7653C87.7257 26.0802 87.8406 26.4424 87.8477 26.852H86.5799ZM89.0648 34.1709V26.6709H90.329V27.5729H90.4036C90.4699 27.4403 90.5634 27.2994 90.6841 27.1503C90.8049 26.9988 90.9682 26.8697 91.1742 26.7632C91.3801 26.6543 91.6429 26.5999 91.9625 26.5999C92.3839 26.5999 92.7639 26.7076 93.1025 26.923C93.4434 27.1361 93.7132 27.4521 93.9121 27.8712C94.1133 28.2878 94.214 28.7992 94.214 29.4053C94.214 30.0042 94.1157 30.5132 93.9192 30.9322C93.7227 31.3513 93.4552 31.6709 93.1167 31.8911C92.7781 32.1112 92.3946 32.2213 91.9661 32.2213C91.6536 32.2213 91.3944 32.1692 91.1884 32.0651C90.9824 31.9609 90.8167 31.8354 90.6912 31.6886C90.5681 31.5395 90.4722 31.3986 90.4036 31.2661H90.3503V34.1709H89.0648ZM90.3255 29.3982C90.3255 29.7509 90.3752 30.0598 90.4746 30.325C90.5764 30.5902 90.722 30.7973 90.9114 30.9464C91.1032 31.0932 91.3352 31.1666 91.6074 31.1666C91.8915 31.1666 92.1294 31.0909 92.3212 30.9393C92.513 30.7855 92.6574 30.5759 92.7544 30.3108C92.8539 30.0433 92.9036 29.7391 92.9036 29.3982C92.9036 29.0596 92.8551 28.7589 92.758 28.4962C92.6609 28.2334 92.5165 28.0274 92.3248 27.8783C92.133 27.7291 91.8939 27.6545 91.6074 27.6545C91.3328 27.6545 91.0996 27.7268 90.9078 27.8712C90.7161 28.0156 90.5705 28.218 90.4711 28.4784C90.374 28.7388 90.3255 29.0454 90.3255 29.3982ZM97.7296 32.232C97.1827 32.232 96.7104 32.1183 96.3127 31.8911C95.9173 31.6614 95.6131 31.3371 95.4 30.918C95.187 30.4966 95.0804 30.0007 95.0804 29.4301C95.0804 28.869 95.187 28.3766 95.4 27.9528C95.6155 27.5267 95.9161 27.1953 96.302 26.9585C96.6879 26.7194 97.1413 26.5999 97.6621 26.5999C97.9983 26.5999 98.3155 26.6543 98.6138 26.7632C98.9145 26.8697 99.1796 27.0355 99.4093 27.2604C99.6413 27.4853 99.8236 27.7717 99.9561 28.1197C100.089 28.4654 100.155 28.8773 100.155 29.3555V29.7497H95.6841V28.8832H98.9228C98.9204 28.637 98.8671 28.418 98.763 28.2263C98.6588 28.0322 98.5132 27.8795 98.3262 27.7682C98.1415 27.6569 97.9261 27.6013 97.6799 27.6013C97.4171 27.6013 97.1863 27.6652 96.9874 27.793C96.7885 27.9185 96.6335 28.0842 96.5222 28.2902C96.4133 28.4938 96.3577 28.7175 96.3553 28.9614V29.7178C96.3553 30.035 96.4133 30.3072 96.5293 30.5345C96.6453 30.7594 96.8075 30.9322 97.0158 31.053C97.2241 31.1714 97.468 31.2305 97.7473 31.2305C97.9344 31.2305 98.1036 31.2045 98.2551 31.1524C98.4067 31.098 98.5381 31.0187 98.6493 30.9145C98.7606 30.8103 98.8446 30.6813 98.9015 30.5274L100.102 30.6624C100.026 30.9796 99.8816 31.2566 99.6685 31.4933C99.4578 31.7277 99.1879 31.91 98.8588 32.0402C98.5298 32.168 98.1533 32.232 97.7296 32.232ZM102.528 28.9294V32.1254H101.243V26.6709H102.471V27.5977H102.535C102.661 27.2923 102.861 27.0497 103.135 26.8697C103.412 26.6898 103.754 26.5999 104.162 26.5999C104.538 26.5999 104.866 26.6804 105.145 26.8413C105.427 27.0023 105.645 27.2355 105.799 27.5409C105.955 27.8463 106.032 28.2168 106.029 28.6524V32.1254H104.744V28.8513C104.744 28.4867 104.649 28.2014 104.46 27.9955C104.273 27.7895 104.014 27.6865 103.682 27.6865C103.457 27.6865 103.257 27.7362 103.082 27.8357C102.909 27.9327 102.773 28.0736 102.674 28.2582C102.577 28.4429 102.528 28.6666 102.528 28.9294ZM110.06 26.6709V27.6652H106.924V26.6709H110.06ZM107.699 25.3641H108.984V30.4848C108.984 30.6576 109.01 30.7902 109.062 30.8825C109.117 30.9725 109.188 31.034 109.275 31.0672C109.363 31.1003 109.46 31.1169 109.566 31.1169C109.647 31.1169 109.72 31.111 109.787 31.0991C109.855 31.0873 109.907 31.0767 109.943 31.0672L110.159 32.0722C110.091 32.0958 109.993 32.1219 109.865 32.1503C109.739 32.1787 109.585 32.1953 109.403 32.2C109.081 32.2095 108.791 32.1609 108.533 32.0544C108.275 31.9455 108.07 31.7774 107.919 31.5501C107.77 31.3229 107.696 31.0388 107.699 30.6979V25.3641ZM113.672 32.1254V24.8527H114.99V27.9315H118.36V24.8527H119.681V32.1254H118.36V29.0359H114.99V32.1254H113.672ZM123.436 32.232C122.904 32.232 122.442 32.1148 122.051 31.8804C121.661 31.646 121.358 31.3181 121.142 30.8967C120.929 30.4753 120.823 29.9829 120.823 29.4195C120.823 28.856 120.929 28.3624 121.142 27.9386C121.358 27.5149 121.661 27.1858 122.051 26.9514C122.442 26.717 122.904 26.5999 123.436 26.5999C123.969 26.5999 124.431 26.717 124.821 26.9514C125.212 27.1858 125.514 27.5149 125.727 27.9386C125.942 28.3624 126.05 28.856 126.05 29.4195C126.05 29.9829 125.942 30.4753 125.727 30.8967C125.514 31.3181 125.212 31.646 124.821 31.8804C124.431 32.1148 123.969 32.232 123.436 32.232ZM123.443 31.2021C123.732 31.2021 123.974 31.1228 124.168 30.9642C124.362 30.8032 124.506 30.5878 124.601 30.3179C124.698 30.048 124.747 29.7473 124.747 29.4159C124.747 29.0821 124.698 28.7803 124.601 28.5104C124.506 28.2381 124.362 28.0215 124.168 27.8605C123.974 27.6995 123.732 27.619 123.443 27.619C123.147 27.619 122.901 27.6995 122.705 27.8605C122.511 28.0215 122.365 28.2381 122.268 28.5104C122.173 28.7803 122.126 29.0821 122.126 29.4159C122.126 29.7473 122.173 30.048 122.268 30.3179C122.365 30.5878 122.511 30.8032 122.705 30.9642C122.901 31.1228 123.147 31.2021 123.443 31.2021ZM130.618 29.8314V26.6709H131.903V32.1254H130.657V31.156H130.6C130.477 31.4614 130.274 31.7111 129.993 31.9053C129.713 32.0994 129.369 32.1964 128.959 32.1964C128.602 32.1964 128.286 32.1171 128.011 31.9585C127.739 31.7975 127.526 31.5643 127.372 31.2589C127.218 30.9512 127.141 30.5795 127.141 30.1439V26.6709H128.426V29.945C128.426 30.2907 128.521 30.5653 128.711 30.7689C128.9 30.9725 129.149 31.0743 129.456 31.0743C129.646 31.0743 129.829 31.0281 130.007 30.9358C130.184 30.8435 130.33 30.7062 130.444 30.5239C130.56 30.3392 130.618 30.1084 130.618 29.8314ZM133.225 32.1254V26.6709H134.471V27.58H134.528C134.628 27.2651 134.798 27.0224 135.04 26.852C135.283 26.6792 135.562 26.5928 135.874 26.5928C135.945 26.5928 136.024 26.5963 136.112 26.6034C136.202 26.6081 136.277 26.6164 136.336 26.6283V27.8108C136.281 27.7919 136.195 27.7753 136.077 27.7611C135.961 27.7445 135.848 27.7362 135.739 27.7362C135.505 27.7362 135.294 27.7871 135.107 27.8889C134.922 27.9884 134.777 28.1268 134.67 28.3044C134.564 28.482 134.51 28.6867 134.51 28.9188V32.1254H133.225ZM141.501 28.1126L140.329 28.2405C140.296 28.1221 140.238 28.0108 140.155 27.9067C140.075 27.8025 139.966 27.7185 139.828 27.6545C139.691 27.5906 139.523 27.5587 139.324 27.5587C139.057 27.5587 138.832 27.6167 138.649 27.7327C138.469 27.8487 138.381 27.999 138.383 28.1837C138.381 28.3423 138.439 28.4713 138.557 28.5707C138.678 28.6702 138.877 28.7518 139.154 28.8158L140.084 29.0146C140.6 29.1259 140.984 29.3023 141.235 29.5438C141.488 29.7852 141.616 30.1013 141.618 30.4919C141.616 30.8352 141.515 31.1382 141.316 31.401C141.12 31.6614 140.846 31.865 140.496 32.0118C140.146 32.1586 139.743 32.232 139.289 32.232C138.621 32.232 138.084 32.0923 137.676 31.8129C137.269 31.5312 137.026 31.1394 136.948 30.6375L138.202 30.5168C138.259 30.763 138.379 30.9488 138.564 31.0743C138.749 31.1998 138.989 31.2625 139.285 31.2625C139.59 31.2625 139.835 31.1998 140.02 31.0743C140.207 30.9488 140.301 30.7938 140.301 30.6091C140.301 30.4528 140.24 30.3238 140.119 30.222C140.001 30.1202 139.816 30.0421 139.566 29.9876L138.635 29.7923C138.112 29.6834 137.725 29.5 137.474 29.2419C137.223 28.9815 137.099 28.6524 137.101 28.2547C137.099 27.9185 137.19 27.6273 137.374 27.3811C137.561 27.1325 137.821 26.9408 138.152 26.8058C138.486 26.6685 138.871 26.5999 139.306 26.5999C139.945 26.5999 140.449 26.736 140.816 27.0082C141.185 27.2805 141.413 27.6486 141.501 28.1126Z" fill="#5C5776"/>
<path d="M63.3812 45.7933C62.9104 45.7933 62.4919 45.7127 62.1258 45.5514C61.7618 45.3901 61.4741 45.1656 61.2627 44.8779C61.0513 44.5903 60.9391 44.2579 60.926 43.8808H62.1552C62.1661 44.0617 62.226 44.2197 62.335 44.3549C62.444 44.4878 62.5889 44.5913 62.7698 44.6654C62.9507 44.7395 63.1534 44.7766 63.3779 44.7766C63.6176 44.7766 63.8301 44.7352 64.0154 44.6524C64.2007 44.5674 64.3456 44.4497 64.4502 44.2993C64.5548 44.1489 64.606 43.9756 64.6039 43.7795C64.606 43.5768 64.5537 43.3981 64.4469 43.2433C64.3401 43.0886 64.1854 42.9676 63.9827 42.8805C63.7822 42.7933 63.5403 42.7497 63.2569 42.7497H62.6652V41.8147H63.2569C63.4901 41.8147 63.6939 41.7744 63.8683 41.6937C64.0448 41.6131 64.1832 41.4998 64.2835 41.3537C64.3837 41.2055 64.4328 41.0344 64.4306 40.8405C64.4328 40.6508 64.3903 40.4863 64.3031 40.3468C64.2181 40.2051 64.0971 40.0951 63.9402 40.0166C63.7855 39.9382 63.6035 39.8989 63.3942 39.8989C63.1894 39.8989 62.9998 39.936 62.8254 40.0101C62.651 40.0842 62.5105 40.1899 62.4037 40.3272C62.2969 40.4623 62.2402 40.6236 62.2337 40.811H61.0666C61.0753 40.4362 61.1832 40.1071 61.3902 39.8237C61.5994 39.5382 61.8784 39.3159 62.2271 39.1568C62.5759 38.9955 62.9671 38.9149 63.4008 38.9149C63.8476 38.9149 64.2355 38.9988 64.5646 39.1666C64.8959 39.3323 65.152 39.5557 65.3329 39.8368C65.5138 40.118 65.6042 40.4285 65.6042 40.7685C65.6064 41.1456 65.4953 41.4616 65.2708 41.7166C65.0485 41.9716 64.7564 42.1383 64.3946 42.2168V42.2691C64.8654 42.3345 65.2261 42.5089 65.4767 42.7922C65.7296 43.0733 65.8549 43.4231 65.8527 43.8416C65.8527 44.2165 65.7459 44.5521 65.5323 44.8485C65.3209 45.1427 65.0289 45.3738 64.6562 45.5416C64.2857 45.7094 63.8607 45.7933 63.3812 45.7933ZM69.3025 45.7933C68.8666 45.7933 68.4765 45.7116 68.1322 45.5481C67.7878 45.3825 67.5143 45.1558 67.3116 44.8681C67.1111 44.5804 67.0043 44.2513 66.9912 43.8808H68.1681C68.1899 44.1554 68.3087 44.3799 68.5245 44.5543C68.7402 44.7265 68.9996 44.8126 69.3025 44.8126C69.5401 44.8126 69.7515 44.7581 69.9368 44.6491C70.122 44.5401 70.268 44.3886 70.3748 44.1947C70.4816 44.0007 70.5339 43.7795 70.5318 43.531C70.5339 43.2782 70.4805 43.0537 70.3716 42.8576C70.2626 42.6614 70.1133 42.5078 69.9237 42.3966C69.7341 42.2833 69.5161 42.2266 69.2698 42.2266C69.0693 42.2244 68.8721 42.2615 68.6781 42.3378C68.4841 42.414 68.3305 42.5143 68.2172 42.6385L67.122 42.4587L67.4718 39.0064H71.3556V40.0199H68.4754L68.2825 41.7951H68.3218C68.446 41.649 68.6214 41.5281 68.8481 41.4322C69.0748 41.3341 69.3232 41.2851 69.5935 41.2851C69.9989 41.2851 70.3607 41.381 70.6789 41.5728C70.9971 41.7624 71.2477 42.0239 71.4308 42.3574C71.6139 42.6908 71.7054 43.0722 71.7054 43.5016C71.7054 43.944 71.603 44.3385 71.3981 44.6851C71.1954 45.0294 70.9132 45.3008 70.5514 45.4991C70.1918 45.6952 69.7755 45.7933 69.3025 45.7933ZM76.2807 42.7595V45.7018H75.0972V39.0064H76.2545V41.5335H76.3134C76.431 41.2502 76.613 41.0268 76.8593 40.8633C77.1078 40.6977 77.4238 40.6149 77.8074 40.6149C78.1561 40.6149 78.4601 40.6879 78.7195 40.8339C78.9789 40.9799 79.1794 41.1935 79.321 41.4747C79.4649 41.7558 79.5368 42.0991 79.5368 42.5045V45.7018H78.3533V42.6876C78.3533 42.3497 78.2662 42.0871 78.0918 41.8997C77.9196 41.7101 77.6777 41.6153 77.366 41.6153C77.1568 41.6153 76.9694 41.661 76.8037 41.7526C76.6403 41.8419 76.5117 41.9716 76.418 42.1416C76.3264 42.3116 76.2807 42.5176 76.2807 42.7595ZM80.7431 45.7018V40.6803H81.8906V41.5172H81.9429C82.0345 41.2273 82.1914 41.0039 82.4137 40.847C82.6382 40.6879 82.8943 40.6083 83.182 40.6083C83.2474 40.6083 83.3204 40.6116 83.401 40.6182C83.4838 40.6225 83.5525 40.6301 83.607 40.641V41.7297C83.5568 41.7123 83.4773 41.697 83.3683 41.6839C83.2615 41.6687 83.158 41.661 83.0577 41.661C82.842 41.661 82.648 41.7079 82.4758 41.8016C82.3058 41.8931 82.1718 42.0206 82.0737 42.1841C81.9756 42.3476 81.9266 42.5361 81.9266 42.7497V45.7018H80.7431ZM88.362 42.0076L87.2832 42.1253C87.2527 42.0163 87.1993 41.9139 87.123 41.818C87.0489 41.7221 86.9486 41.6447 86.8222 41.5858C86.6958 41.527 86.5411 41.4976 86.358 41.4976C86.1117 41.4976 85.9047 41.551 85.7369 41.6578C85.5712 41.7646 85.4895 41.903 85.4917 42.073C85.4895 42.219 85.5429 42.3378 85.6519 42.4293C85.763 42.5208 85.9461 42.596 86.2011 42.6549L87.0576 42.838C87.5327 42.9404 87.8858 43.1028 88.1168 43.3251C88.35 43.5474 88.4677 43.8383 88.4699 44.1979C88.4677 44.514 88.3751 44.7929 88.192 45.0349C88.0111 45.2746 87.7594 45.462 87.4368 45.5972C87.1143 45.7323 86.7438 45.7999 86.3253 45.7999C85.7107 45.7999 85.216 45.6713 84.8411 45.4141C84.4662 45.1547 84.2428 44.794 84.1709 44.332L85.3249 44.2208C85.3772 44.4475 85.4884 44.6186 85.6584 44.7341C85.8284 44.8496 86.0496 44.9074 86.322 44.9074C86.6032 44.9074 86.8288 44.8496 86.9988 44.7341C87.171 44.6186 87.257 44.4758 87.257 44.3058C87.257 44.162 87.2015 44.0432 87.0903 43.9495C86.9813 43.8558 86.8113 43.7838 86.5803 43.7337L85.7238 43.5539C85.2421 43.4537 84.8858 43.2847 84.6547 43.0472C84.4237 42.8074 84.3093 42.5045 84.3115 42.1383C84.3093 41.8289 84.3932 41.5608 84.5632 41.3341C84.7354 41.1053 84.974 40.9287 85.2792 40.8045C85.5865 40.6781 85.9406 40.6149 86.3417 40.6149C86.9301 40.6149 87.3933 40.7402 87.7311 40.9908C88.0711 41.2415 88.2814 41.5804 88.362 42.0076ZM91.5953 44.4595V43.4951L94.4362 39.0064H95.2405V40.3795H94.7501L92.8376 43.4101V43.4624H96.8031V44.4595H91.5953ZM94.7893 45.7018V44.1653L94.8024 43.7337V39.0064H95.9466V45.7018H94.7893ZM100.322 45.8293C99.7841 45.8293 99.3221 45.6931 98.9363 45.4206C98.5527 45.146 98.2574 44.7504 98.0503 44.2339C97.8455 43.7152 97.743 43.0908 97.743 42.3606C97.7452 41.6305 97.8487 41.0094 98.0536 40.4972C98.2607 39.9828 98.556 39.5905 98.9396 39.3203C99.3253 39.05 99.7863 38.9149 100.322 38.9149C100.859 38.9149 101.32 39.05 101.705 39.3203C102.091 39.5905 102.386 39.9828 102.591 40.4972C102.798 41.0116 102.902 41.6327 102.902 42.3606C102.902 43.093 102.798 43.7185 102.591 44.2372C102.386 44.7537 102.091 45.1482 101.705 45.4206C101.322 45.6931 100.861 45.8293 100.322 45.8293ZM100.322 44.806C100.741 44.806 101.071 44.6001 101.313 44.1881C101.557 43.774 101.679 43.1649 101.679 42.3606C101.679 41.8289 101.624 41.3821 101.512 41.0203C101.401 40.6585 101.244 40.386 101.042 40.203C100.839 40.0177 100.599 39.9251 100.322 39.9251C99.9062 39.9251 99.5771 40.1321 99.3351 40.5462C99.0932 40.9582 98.9712 41.563 98.969 42.3606C98.9668 42.8946 99.0202 43.3436 99.1292 43.7076C99.2403 44.0715 99.3973 44.3461 99.6 44.5314C99.8026 44.7145 100.043 44.806 100.322 44.806ZM106.285 45.7018V40.6803H107.416V41.5335H107.475C107.579 41.2458 107.753 41.0214 107.994 40.8601C108.236 40.6966 108.525 40.6149 108.861 40.6149C109.201 40.6149 109.487 40.6977 109.721 40.8633C109.956 41.0268 110.122 41.2502 110.218 41.5335H110.27C110.381 41.2546 110.568 41.0323 110.832 40.8666C111.098 40.6988 111.413 40.6149 111.777 40.6149C112.239 40.6149 112.616 40.7609 112.908 41.053C113.2 41.345 113.346 41.7711 113.346 42.3312V45.7018H112.159V42.5143C112.159 42.2026 112.077 41.9749 111.911 41.831C111.745 41.685 111.543 41.612 111.303 41.612C111.017 41.612 110.794 41.7014 110.633 41.8801C110.474 42.0566 110.394 42.2865 110.394 42.5699V45.7018H109.234V42.4653C109.234 42.2059 109.155 41.9989 108.998 41.8441C108.843 41.6894 108.641 41.612 108.39 41.612C108.22 41.612 108.065 41.6556 107.926 41.7428C107.786 41.8278 107.675 41.9487 107.592 42.1056C107.51 42.2604 107.468 42.4413 107.468 42.6483V45.7018H106.285ZM114.547 45.7018V40.6803H115.73V45.7018H114.547ZM115.142 39.9676C114.954 39.9676 114.793 39.9055 114.658 39.7812C114.523 39.6548 114.455 39.5034 114.455 39.3268C114.455 39.1481 114.523 38.9966 114.658 38.8724C114.793 38.746 114.954 38.6828 115.142 38.6828C115.331 38.6828 115.493 38.746 115.626 38.8724C115.761 38.9966 115.828 39.1481 115.828 39.3268C115.828 39.5034 115.761 39.6548 115.626 39.7812C115.493 39.9055 115.331 39.9676 115.142 39.9676ZM118.131 42.7595V45.7018H116.947V40.6803H118.078V41.5335H118.137C118.253 41.2524 118.437 41.029 118.69 40.8633C118.945 40.6977 119.26 40.6149 119.635 40.6149C119.981 40.6149 120.283 40.689 120.54 40.8372C120.799 40.9854 121 41.2001 121.142 41.4812C121.285 41.7624 121.356 42.1035 121.354 42.5045V45.7018H120.171V42.6876C120.171 42.3519 120.083 42.0893 119.909 41.8997C119.737 41.7101 119.498 41.6153 119.193 41.6153C118.986 41.6153 118.802 41.661 118.641 41.7526C118.482 41.8419 118.356 41.9716 118.265 42.1416C118.175 42.3116 118.131 42.5176 118.131 42.7595ZM126.526 42.0076L125.447 42.1253C125.417 42.0163 125.363 41.9139 125.287 41.818C125.213 41.7221 125.113 41.6447 124.986 41.5858C124.86 41.527 124.705 41.4976 124.522 41.4976C124.276 41.4976 124.069 41.551 123.901 41.6578C123.735 41.7646 123.653 41.903 123.656 42.073C123.653 42.219 123.707 42.3378 123.816 42.4293C123.927 42.5208 124.11 42.596 124.365 42.6549L125.222 42.838C125.697 42.9404 126.05 43.1028 126.281 43.3251C126.514 43.5474 126.632 43.8383 126.634 44.1979C126.632 44.514 126.539 44.7929 126.356 45.0349C126.175 45.2746 125.923 45.462 125.601 45.5972C125.278 45.7323 124.908 45.7999 124.489 45.7999C123.875 45.7999 123.38 45.6713 123.005 45.4141C122.63 45.1547 122.407 44.794 122.335 44.332L123.489 44.2208C123.541 44.4475 123.652 44.6186 123.822 44.7341C123.992 44.8496 124.214 44.9074 124.486 44.9074C124.767 44.9074 124.993 44.8496 125.163 44.7341C125.335 44.6186 125.421 44.4758 125.421 44.3058C125.421 44.162 125.365 44.0432 125.254 43.9495C125.145 43.8558 124.975 43.7838 124.744 43.7337L123.888 43.5539C123.406 43.4537 123.05 43.2847 122.819 43.0472C122.588 42.8074 122.473 42.5045 122.475 42.1383C122.473 41.8289 122.557 41.5608 122.727 41.3341C122.899 41.1053 123.138 40.9287 123.443 40.8045C123.75 40.6781 124.105 40.6149 124.506 40.6149C125.094 40.6149 125.557 40.7402 125.895 40.9908C126.235 41.2415 126.445 41.5804 126.526 42.0076Z" fill="#754FFE"/>
<line x1="38.9023" y1="99.2266" x2="148.608" y2="99.2266" stroke="#E8E7ED" stroke-width="0.767175" stroke-dasharray="1.53 1.53"/>
<line x1="38.9023" y1="89.2533" x2="148.608" y2="89.2533" stroke="#E8E7ED" stroke-width="0.767175" stroke-dasharray="1.53 1.53"/>
<line x1="38.9023" y1="79.28" x2="148.608" y2="79.28" stroke="#E8E7ED" stroke-width="0.767175" stroke-dasharray="1.53 1.53"/>
<line x1="38.9023" y1="69.3067" x2="148.608" y2="69.3067" stroke="#E8E7ED" stroke-width="0.767175" stroke-dasharray="1.53 1.53"/>
<line x1="38.9023" y1="59.3335" x2="148.608" y2="59.3335" stroke="#E8E7ED" stroke-width="0.767175" stroke-dasharray="1.53 1.53"/>
<rect x="50.4102" y="100.377" width="41.4275" height="4.60305" rx="2.30153" transform="rotate(-90 50.4102 100.377)" fill="#FFAA46"/>
<rect x="74.1924" y="100.377" width="31.4542" height="4.60305" rx="2.30153" transform="rotate(-90 74.1924 100.377)" fill="#FFAA46"/>
<rect x="122.524" y="100.377" width="31.4542" height="4.60305" rx="2.30153" transform="rotate(-90 122.524 100.377)" fill="#FFAA46"/>
<rect x="98.7422" y="100.377" width="41.4275" height="4.60305" rx="2.30153" transform="rotate(-90 98.7422 100.377)" fill="#FFAA46"/>
<rect x="38.1353" y="100.377" width="21.4809" height="4.60305" rx="2.30153" transform="rotate(-90 38.1353 100.377)" fill="#FFEEDA"/>
<rect x="62.6851" y="100.377" width="28.3855" height="4.60305" rx="2.30153" transform="rotate(-90 62.6851 100.377)" fill="#FFEEDA"/>
<rect x="87.2344" y="100.377" width="21.4809" height="4.60305" rx="2.30153" transform="rotate(-90 87.2344 100.377)" fill="#FFAA46"/>
<rect x="135.566" y="100.377" width="21.4809" height="4.60305" rx="2.30153" transform="rotate(-90 135.566 100.377)" fill="#FFAA46"/>
<rect x="111.017" y="100.377" width="21.4809" height="4.60305" rx="2.30153" transform="rotate(-90 111.017 100.377)" fill="#FFEEDA"/>
<defs>
<filter id="filter0_dd_5712_19320" x="0.984747" y="0.644534" width="184.889" height="148.065" filterUnits="userSpaceOnUse" color-interpolation-filters="sRGB">
<feFlood flood-opacity="0" result="BackgroundImageFix"/>
<feColorMatrix in="SourceAlpha" type="matrix" values="0 0 0 0 0 0 0 0 0 0 0 0 0 0 0 0 0 0 127 0" result="hardAlpha"/>
<feOffset dy="11.5076"/>
<feGaussianBlur stdDeviation="11.5076"/>
<feColorMatrix type="matrix" values="0 0 0 0 0.0117647 0 0 0 0 0 0 0 0 0 0.278431 0 0 0 0.12 0"/>
<feBlend mode="normal" in2="BackgroundImageFix" result="effect1_dropShadow_5712_19320"/>
<feColorMatrix in="SourceAlpha" type="matrix" values="0 0 0 0 0 0 0 0 0 0 0 0 0 0 0 0 0 0 127 0" result="hardAlpha"/>
<feOffset dy="1.53435"/>
<feGaussianBlur stdDeviation="1.91794"/>
<feColorMatrix type="matrix" values="0 0 0 0 0.0823529 0 0 0 0 0.0823529 0 0 0 0 0.0823529 0 0 0 0.08 0"/>
<feBlend mode="normal" in2="effect1_dropShadow_5712_19320" result="effect2_dropShadow_5712_19320"/>
<feBlend mode="normal" in="SourceGraphic" in2="effect2_dropShadow_5712_19320" result="shape"/>
</filter>
</defs>
</svg>
