<svg width="169" height="50" viewBox="0 0 169 50" fill="none" xmlns="http://www.w3.org/2000/svg">
<g clip-path="url(#clip0_5160_16674)">
<path d="M167.564 44.1037C167.564 46.747 165.429 48.9023 162.765 48.9023H5.89245C3.24909 48.9023 1.09375 46.7673 1.09375 44.1037V5.91738C1.09375 3.27403 3.24909 1.11868 5.89245 1.11868H162.765C165.409 1.11868 167.564 3.27403 167.564 5.91738V44.1037Z" fill="white"/>
<path d="M162.79 50H5.91705C2.66369 50 0 47.3566 0 44.1033V5.91704C0 2.66369 2.64336 0 5.91705 0H162.79C166.043 0 168.707 2.64335 168.707 5.91704V44.1033C168.687 47.3566 166.043 50 162.79 50Z" fill="black"/>
<path d="M167.564 44.1037C167.564 46.747 165.429 48.9023 162.765 48.9023H5.89245C3.24909 48.9023 1.09375 46.7673 1.09375 44.1037V5.91738C1.09375 3.27403 3.24909 1.11868 5.89245 1.11868H162.765C165.409 1.11868 167.564 3.27403 167.564 5.91738V44.1037Z" fill="black"/>
<path d="M37.6603 24.7461C37.6197 20.7201 40.9544 18.7478 41.117 18.6664C39.2261 15.9214 36.298 15.5351 35.261 15.5147C32.8007 15.2503 30.4217 16.9787 29.161 16.9787C27.88 16.9787 25.9483 15.5351 23.8743 15.5757C21.1903 15.6164 18.6893 17.1618 17.3269 19.5814C14.5005 24.4818 16.6153 31.7002 19.3195 35.6652C20.682 37.6172 22.2679 39.7726 24.342 39.6912C26.3753 39.6099 27.1276 38.3899 29.5879 38.3899C32.0077 38.3899 32.7396 39.6912 34.8544 39.6303C37.03 39.5895 38.4127 37.6782 39.714 35.7262C41.2797 33.5098 41.9101 31.3138 41.9303 31.1919C41.8897 31.1715 37.7011 29.5652 37.6603 24.7461Z" fill="white"/>
<path d="M33.6553 12.8913C34.7532 11.529 35.5055 9.65831 35.2819 7.78766C33.6959 7.84866 31.7236 8.88567 30.5849 10.2277C29.5682 11.407 28.6736 13.3387 28.9175 15.1484C30.7069 15.2704 32.5165 14.2334 33.6553 12.8913Z" fill="white"/>
<path d="M67.0982 39.3863H64.2515L62.7061 34.5063H57.2771L55.7927 39.3863H53.0273L58.375 22.7535H61.6894L67.0982 39.3863ZM62.2181 32.4525L60.8151 28.1012C60.6728 27.6538 60.3881 26.6168 59.9815 24.9698H59.9407C59.7781 25.6815 59.5138 26.7185 59.1477 28.1012L57.765 32.4525H62.2181Z" fill="white"/>
<path d="M80.8462 33.2452C80.8462 35.2785 80.2972 36.9052 79.1789 38.0845C78.1826 39.1419 76.9422 39.6705 75.4782 39.6705C73.8922 39.6705 72.7536 39.1012 72.0622 37.9625V44.2659H69.3986V31.3541C69.3986 30.0731 69.3579 28.7514 69.2969 27.4095H71.6352L71.7775 29.3208H71.8182C72.7129 27.8974 74.0549 27.1654 75.8646 27.1654C77.2879 27.1654 78.4672 27.7145 79.4026 28.8531C80.3583 29.9511 80.8462 31.4151 80.8462 33.2452ZM78.1216 33.3468C78.1216 32.1878 77.8572 31.2118 77.3286 30.4595C76.7593 29.6664 75.9866 29.2801 75.0105 29.2801C74.3599 29.2801 73.7499 29.5037 73.2212 29.9308C72.6926 30.3781 72.3265 30.9475 72.1638 31.6388C72.0826 31.9641 72.0419 32.2285 72.0419 32.4521V34.4448C72.0419 35.3192 72.3062 36.0512 72.8349 36.6612C73.3636 37.2712 74.0752 37.5558 74.9292 37.5558C75.9255 37.5558 76.7186 37.1695 77.2676 36.3969C77.8369 35.6242 78.1216 34.6075 78.1216 33.3468Z" fill="white"/>
<path d="M94.635 33.2452C94.635 35.2785 94.0859 36.9052 92.9681 38.0845C91.9717 39.1419 90.7315 39.6705 89.2674 39.6705C87.6813 39.6705 86.5426 39.1012 85.8513 37.9625V44.2659H83.1876V31.3541C83.1876 30.0731 83.147 28.7514 83.0859 27.4095H85.4243L85.5666 29.3208H85.6073C86.502 27.8974 87.844 27.1654 89.6538 27.1654C91.077 27.1654 92.2565 27.7145 93.1913 28.8531C94.1681 29.9511 94.635 31.4151 94.635 33.2452ZM91.9306 33.3468C91.9306 32.1878 91.6663 31.2118 91.1377 30.4595C90.569 29.6664 89.7958 29.2801 88.82 29.2801C88.1693 29.2801 87.5593 29.5037 87.0307 29.9308C86.502 30.3781 86.1563 30.9475 85.9733 31.6388C85.892 31.9641 85.8513 32.2285 85.8513 32.4521V34.4448C85.8513 35.3192 86.1157 36.0512 86.6443 36.6612C87.173 37.2508 87.8847 37.5558 88.7387 37.5558C89.735 37.5558 90.5279 37.1695 91.077 36.3969C91.6466 35.6242 91.9306 34.6075 91.9306 33.3468Z" fill="white"/>
<path d="M110.065 34.7297C110.065 36.153 109.577 37.2916 108.581 38.1864C107.503 39.1623 105.978 39.6504 104.046 39.6504C102.257 39.6504 100.813 39.3047 99.7354 38.6133L100.346 36.397C101.505 37.0883 102.806 37.4339 104.189 37.4339C105.185 37.4339 105.978 37.2103 106.527 36.763C107.076 36.3156 107.361 35.7056 107.361 34.9533C107.361 34.2823 107.137 33.713 106.669 33.2453C106.201 32.7776 105.45 32.3506 104.372 31.9643C101.464 30.8866 100.001 29.2803 100.001 27.2063C100.001 25.8439 100.509 24.7256 101.545 23.8513C102.583 22.9769 103.945 22.5499 105.633 22.5499C107.137 22.5499 108.418 22.8142 109.415 23.3429L108.743 25.5186C107.809 25.0102 106.731 24.7459 105.551 24.7459C104.616 24.7459 103.863 24.9696 103.355 25.4372C102.908 25.8439 102.684 26.3522 102.684 26.9419C102.684 27.5926 102.949 28.1416 103.457 28.5686C103.904 28.9549 104.697 29.3819 105.876 29.8496C107.3 30.4189 108.357 31.0899 109.028 31.8626C109.74 32.6149 110.065 33.5706 110.065 34.7297Z" fill="white"/>
<path d="M118.902 29.4023H115.953V35.2177C115.953 36.7021 116.461 37.434 117.499 37.434C117.966 37.434 118.373 37.3934 118.678 37.3121L118.76 39.3454C118.23 39.5487 117.539 39.6504 116.686 39.6504C115.628 39.6504 114.815 39.325 114.225 38.6947C113.636 38.044 113.33 36.9663 113.33 35.4617V29.4023H111.582V27.4096H113.33V25.2136L115.953 24.4206V27.4096H118.902C118.902 27.3893 118.902 29.4023 118.902 29.4023Z" fill="white"/>
<path d="M132.143 33.3061C132.143 35.1565 131.615 36.6611 130.558 37.8405C129.459 39.0605 127.996 39.6705 126.166 39.6705C124.397 39.6705 122.993 39.0809 121.957 37.9219C120.919 36.7628 120.391 35.2785 120.391 33.5095C120.391 31.6591 120.94 30.1341 122.017 28.9345C123.095 27.7551 124.559 27.1654 126.369 27.1654C128.138 27.1654 129.541 27.7551 130.618 28.9141C131.615 30.0325 132.143 31.4964 132.143 33.3061ZM129.378 33.3671C129.378 32.2691 129.134 31.3338 128.667 30.5408C128.117 29.5851 127.304 29.1174 126.267 29.1174C125.19 29.1174 124.376 29.5851 123.827 30.5408C123.359 31.3338 123.116 32.2895 123.116 33.4281C123.116 34.5261 123.359 35.4818 123.827 36.2545C124.397 37.2102 125.21 37.6778 126.247 37.6778C127.264 37.6778 128.057 37.1898 128.646 36.2342C129.114 35.4005 129.378 34.4652 129.378 33.3671Z" fill="white"/>
<path d="M140.81 29.748C140.545 29.7074 140.261 29.6667 139.976 29.6667C139.041 29.6667 138.309 30.0124 137.801 30.7241C137.354 31.3544 137.129 32.1474 137.129 33.1031V39.4065H134.466V31.1918C134.466 29.8091 134.445 28.5484 134.385 27.4097H136.703L136.804 29.7074H136.886C137.17 28.9144 137.618 28.2841 138.228 27.7961C138.817 27.369 139.468 27.1454 140.159 27.1454C140.404 27.1454 140.627 27.1657 140.83 27.1861L140.81 29.748Z" fill="white"/>
<path d="M152.725 32.8184C152.725 33.2861 152.684 33.6928 152.623 34.018H144.632C144.652 35.1974 145.059 36.1124 145.791 36.7428C146.462 37.2918 147.336 37.5764 148.414 37.5764C149.594 37.5764 150.671 37.3934 151.647 37.0071L152.074 38.8574C150.935 39.3455 149.594 39.5895 148.048 39.5895C146.198 39.5895 144.734 39.0404 143.656 37.9424C142.599 36.8444 142.07 35.3805 142.07 33.5301C142.07 31.7204 142.558 30.2157 143.554 29.0161C144.591 27.735 145.994 27.0844 147.743 27.0844C149.471 27.0844 150.773 27.735 151.668 29.0161C152.379 30.0734 152.725 31.334 152.725 32.8184ZM150.183 32.1271C150.203 31.334 150.02 30.663 149.675 30.0734C149.207 29.3211 148.495 28.955 147.56 28.955C146.685 28.955 145.974 29.3211 145.445 30.0327C144.998 30.6021 144.734 31.2934 144.652 32.1067L150.183 32.1271Z" fill="white"/>
<path d="M60.9376 16.7957H59.5346L58.7619 14.3963H56.0982L55.3662 16.7957H54.0039L56.6269 8.62164H58.2535L60.9376 16.7957ZM58.5585 13.4L57.8672 11.265C57.7859 11.0413 57.6639 10.533 57.4606 9.71963H57.4402C57.3589 10.0653 57.2369 10.5737 57.0539 11.265L56.3829 13.4H58.5585Z" fill="white"/>
<path d="M67.5285 10.8987L65.2919 16.7954H64.0108L61.8555 10.8987H63.2585L64.2752 14.0097C64.4379 14.5384 64.5802 15.0264 64.7022 15.4941H64.7429C64.8445 15.067 64.9869 14.579 65.1698 14.0097L66.1662 10.8987C66.1459 10.8987 67.5285 10.8987 67.5285 10.8987Z" fill="white"/>
<path d="M72.2839 16.7952L72.1823 16.1242H72.1415C71.7349 16.6732 71.1656 16.9376 70.4132 16.9376C69.3559 16.9376 68.6035 16.2055 68.6035 15.2092C68.6035 13.7452 69.8642 12.9929 72.0399 12.9929V12.8912C72.0399 12.1185 71.6332 11.7321 70.8199 11.7321C70.2302 11.7321 69.7219 11.8745 69.2746 12.1795L69.0102 11.3255C69.5592 10.9798 70.2302 10.8171 71.0436 10.8171C72.5889 10.8171 73.3615 11.6305 73.3615 13.2572V15.4329C73.3615 16.0225 73.3819 16.4902 73.4429 16.8359L72.2839 16.7952ZM72.1009 13.8672C70.6369 13.8672 69.9252 14.2129 69.9252 15.0465C69.9252 15.6565 70.3115 15.9615 70.8199 15.9615C71.4909 15.9615 72.1009 15.4532 72.1009 14.7619C72.1009 14.7822 72.1009 13.8672 72.1009 13.8672Z" fill="white"/>
<path d="M76.2903 9.92269C75.8632 9.92269 75.5176 9.57706 75.5176 9.12974C75.5176 8.68236 75.8632 8.35703 76.3105 8.35703C76.7578 8.35703 77.1239 8.68236 77.1036 9.12974C77.1239 9.61769 76.7782 9.92269 76.2903 9.92269ZM76.9612 16.7955H75.6599V10.8987H76.9612V16.7955Z" fill="white"/>
<path d="M80.5982 16.7954H79.2969V8.1944H80.5982V16.7954Z" fill="white"/>
<path d="M86.1706 16.7952L86.0689 16.1242H86.0283C85.6216 16.6732 85.0522 16.9376 84.2999 16.9376C83.2426 16.9376 82.4902 16.2055 82.4902 15.2092C82.4902 13.7452 83.7509 12.9929 85.9266 12.9929V12.8912C85.9266 12.1185 85.5199 11.7321 84.7066 11.7321C84.1169 11.7321 83.6085 11.8745 83.1612 12.1795L82.8969 11.3255C83.4459 10.9798 84.1169 10.8171 84.9302 10.8171C86.4756 10.8171 87.2483 11.6305 87.2483 13.2572V15.4329C87.2483 16.0225 87.2686 16.4902 87.3296 16.8359H86.1706V16.7952ZM85.9875 13.8672C84.5235 13.8672 83.8119 14.2129 83.8119 15.0465C83.8119 15.6565 84.1983 15.9615 84.7066 15.9615C85.3776 15.9615 85.9875 15.4532 85.9875 14.7619V13.8672Z" fill="white"/>
<path d="M92.5725 16.938C91.7386 16.938 91.1082 16.5923 90.7225 15.901H90.702L90.6207 16.816H89.502C89.543 16.3483 89.543 15.7993 89.543 15.2299V8.2149H90.8645V11.7732H90.885C91.2707 11.1226 91.9011 10.7972 92.7555 10.7972C94.1787 10.7972 95.1752 12.0172 95.1752 13.7863C95.1752 15.596 94.077 16.938 92.5725 16.938ZM92.3082 11.8139C91.5555 11.8139 90.8645 12.4646 90.8645 13.3796V14.4166C90.8645 15.2299 91.4743 15.901 92.2877 15.901C93.2636 15.901 93.8537 15.108 93.8537 13.827C93.8537 12.6272 93.2439 11.8139 92.3082 11.8139Z" fill="white"/>
<path d="M98.4307 16.7954H97.1289V8.1944H98.4307V16.7954Z" fill="white"/>
<path d="M105.575 14.1723H101.65C101.671 15.2906 102.424 15.921 103.501 15.921C104.091 15.921 104.619 15.8193 105.087 15.6363L105.291 16.5513C104.742 16.7954 104.071 16.9173 103.318 16.9173C101.467 16.9173 100.391 15.7583 100.391 13.9487C100.391 12.1389 101.508 10.7766 103.175 10.7766C104.681 10.7766 105.636 11.895 105.636 13.5827C105.616 13.8063 105.616 14.0096 105.575 14.1723ZM104.375 13.237C104.375 12.322 103.908 11.6916 103.075 11.6916C102.322 11.6916 101.733 12.3423 101.65 13.237H104.375Z" fill="white"/>
<path d="M113.52 16.9379C111.792 16.9379 110.673 15.6568 110.673 13.9081C110.673 12.0781 111.812 10.7971 113.622 10.7971C115.309 10.7971 116.468 12.0171 116.468 13.8268C116.448 15.6568 115.268 16.9379 113.52 16.9379ZM113.56 11.7325C112.605 11.7325 112.016 12.6271 112.016 13.8471C112.016 15.0671 112.626 15.9415 113.56 15.9415C114.496 15.9415 115.106 14.9858 115.106 13.8268C115.085 12.6475 114.476 11.7325 113.56 11.7325Z" fill="white"/>
<path d="M123.484 16.7954H122.183V13.3996C122.183 12.3627 121.775 11.8339 121.003 11.8339C120.23 11.8339 119.681 12.505 119.681 13.2777V16.7954H118.38V12.5863C118.38 12.0577 118.359 11.5087 118.339 10.8987H119.498L119.559 11.8137H119.6C119.946 11.1833 120.677 10.7766 121.471 10.7766C122.711 10.7766 123.525 11.7323 123.525 13.2573L123.484 16.7954Z" fill="white"/>
<path d="M132.064 11.8951H130.62V14.762C130.62 15.4941 130.865 15.8601 131.393 15.8601C131.617 15.8601 131.82 15.8397 131.983 15.7991L132.024 16.7954C131.759 16.8971 131.434 16.9378 131.007 16.9378C129.97 16.9378 129.359 16.3685 129.359 14.8841V11.9154H128.506V10.8987H129.359V9.82106L130.641 9.43472V10.8987H132.084V11.8951H132.064Z" fill="white"/>
<path d="M139.001 16.7954H137.68V13.4404C137.68 12.3831 137.273 11.8545 136.5 11.8545C135.83 11.8545 135.199 12.3221 135.199 13.2574V16.7954H133.878V8.1944H135.199V11.7324H135.22C135.626 11.0818 136.236 10.7768 136.989 10.7768C138.229 10.7768 139.001 11.7528 139.001 13.2981V16.7954Z" fill="white"/>
<path d="M145.713 14.1723H141.768C141.788 15.2906 142.541 15.921 143.619 15.921C144.208 15.921 144.736 15.8193 145.204 15.6363L145.408 16.5513C144.859 16.7954 144.188 16.9173 143.435 16.9173C141.585 16.9173 140.508 15.7583 140.508 13.9487C140.508 12.1389 141.626 10.7766 143.293 10.7766C144.798 10.7766 145.753 11.895 145.753 13.5827C145.753 13.8063 145.733 14.0096 145.713 14.1723ZM144.513 13.237C144.513 12.322 144.045 11.6916 143.211 11.6916C142.46 11.6916 141.869 12.3423 141.788 13.237H144.513Z" fill="white"/>
</g>
<defs>
<clipPath id="clip0_5160_16674">
<rect width="168.75" height="50" fill="white"/>
</clipPath>
</defs>
</svg>
