<svg width="168" height="164" viewBox="0 0 168 164" fill="none" xmlns="http://www.w3.org/2000/svg">
<path d="M117.717 35.0915C121.8 30.577 116.563 26.4241 112.481 30.9386C109.858 33.9122 106.736 36.2598 105.318 39.9396C104.31 42.5278 106.577 43.9242 108.913 42.8386C112.159 41.2875 115.173 38.0029 117.717 35.0915Z" fill="#F59E0B"/>
<path d="M126.186 42.1689C128.101 40.3952 129.156 38.0256 128.142 36.2741C127.316 34.7574 124.701 34.5308 122.724 36.2263C120.103 38.5598 117.341 40.8773 115.846 43.9793C114.555 46.5354 116.099 49.2721 119.063 47.6889C121.65 46.2762 123.801 44.3159 126.186 42.1689Z" fill="#F59E0B"/>
<path d="M101.334 59.1913C103.673 56.8256 100.797 54.5064 98.458 56.8721C97.2492 58.086 95.9939 59.0813 94.7851 60.2952C93.4354 61.4931 91.9448 62.675 91.4711 64.3283C91.1238 65.4981 91.6379 66.6236 92.7812 66.6115C96.1487 66.497 98.8381 61.6814 101.334 59.1913Z" fill="#F59E0B"/>
<path d="M126.554 56.4356C128.406 54.5836 128.366 51.8047 127.053 50.8016C125.474 49.6259 123.154 50.571 121.317 52.2826C118.335 55.2864 113.598 58.0194 112.164 61.8397C111.533 63.6174 112.501 65.1502 114.067 65.1863C118.201 65.2302 123.414 59.5638 126.554 56.4356Z" fill="#F59E0B"/>
<path d="M103.109 80.5167C104.961 78.6648 104.921 75.886 103.608 74.8829C102.107 73.645 99.6463 74.5741 97.8724 76.3639C95.6117 78.6673 92.5041 81.5145 91.6671 84.4779C91.2094 85.9907 91.8005 87.6941 93.3984 87.4492C97.2205 87.1019 100.205 83.4582 103.109 80.5167Z" fill="#F59E0B"/>
<path d="M87.5302 56.9845C89.0063 55.303 90.5448 53.6999 92.0834 52.0967C93.7948 50.2287 93.8954 47.4659 92.5822 46.4628C91.0817 45.2249 88.6207 46.154 86.8468 47.9438C85.2298 49.6092 83.5343 51.3367 82.1047 53.2369C80.5966 55.1992 78.6962 57.4725 78.6597 59.6735C78.6232 61.8745 80.1877 62.5505 82.3509 61.7298C84.3731 60.893 86.0541 58.6659 87.5302 56.9845Z" fill="#F59E0B"/>
<path d="M70.3397 84.4072C71.3915 83.3177 71.9407 82.8822 73.071 81.7305C75.0802 79.7542 76.2296 77.182 74.777 75.5228C73.3245 73.8636 70.8011 74.7145 68.7134 76.753C67.5831 77.9047 66.3903 78.9782 65.26 80.1299C64.6164 80.768 64.0513 81.3438 63.611 82.0762C62.841 83.1978 62.6506 84.2431 62.3817 85.3506C62.1114 87.0982 63.6744 88.4142 65.3828 87.8262C66.3387 87.5794 67.2321 87.2543 68.1735 86.5079C69.0205 85.9642 69.6961 85.0452 70.3397 84.4072Z" fill="#F59E0B"/>
<path d="M82.2826 94.3506C83.8691 92.3261 84.2195 89.8763 82.7814 88.7167C81.4683 87.7136 78.6325 88.1732 77.046 90.1977C74.3596 93.733 70.1537 97.451 68.9069 101.506C68.1179 104.048 70.0252 105.474 72.4396 104.327C76.3592 102.497 79.6747 97.8237 82.2826 94.3506Z" fill="#F59E0B"/>
<path d="M54.388 82.2421C56.2403 80.3901 56.1999 77.6113 54.8868 76.6082C53.3078 75.4325 50.9877 76.3777 49.1514 78.0892C47.9426 79.3031 46.7339 80.517 45.5876 81.8092C44.3468 83.304 43.0436 84.7205 42.4914 86.436C41.9553 88.011 42.6873 89.7305 44.3477 89.5638C48.3107 89.2326 51.4053 85.2458 54.388 82.2421Z" fill="#F59E0B"/>
<path d="M50.1051 108.497C51.5027 106.878 52.822 105.321 54.0787 103.686C55.6652 101.662 56.0155 99.2118 54.5774 98.0522C53.2643 97.0491 50.3502 97.5709 48.8421 99.5331C46.1398 103.209 41.4952 107.019 41.736 111.172C41.7954 112.531 43.235 113.05 44.6296 112.711C46.8232 112.249 48.5346 110.381 50.1051 108.497Z" fill="#F59E0B"/>
<path d="M70.7832 122.367C75.2709 118.681 72.0421 113.191 67.5703 116.737C63.9616 119.598 59.5028 124.283 59.023 128.497C58.7207 130.525 60.6294 131.312 62.5108 130.459C65.9916 128.721 67.8645 124.809 70.7832 122.367Z" fill="#F59E0B"/>
<path d="M105.531 105.542C107.227 103.814 109.001 102.024 110.759 100.375C112.611 98.5229 112.508 95.6658 111.258 94.7409C109.679 93.5652 107.358 94.5104 105.522 96.2219C102.382 99.3501 96.7338 103.829 96.4109 107.918C96.2814 109.681 97.5626 110.965 99.412 110.393C101.998 109.621 103.584 107.596 105.531 105.542Z" fill="#F59E0B"/>
<path d="M135.199 73.2058C139.281 68.6913 134.045 64.5384 129.962 69.0529C128.486 70.7343 127.213 72.51 125.8 74.2696C124.292 76.2319 122.58 78.0999 122.262 80.2688C122.024 81.7355 123.071 82.566 124.339 82.7104C128.645 83.1295 132.341 76.3659 135.199 73.2058Z" fill="#F59E0B"/>
<path d="M87.5881 133.306C88.483 132.341 89.3939 131.235 90.2889 130.27C92.0627 128.48 92.1792 125.577 90.7876 124.636C89.1302 123.523 86.9047 124.265 85.0524 126.117C82.9487 128.296 80.7971 130.897 80.133 133.595C79.5168 135.872 81.0783 137.828 83.6656 136.416C85.2491 135.671 86.3634 134.66 87.5881 133.306Z" fill="#F59E0B"/>
<path d="M120.948 119.241C122.801 117.389 122.76 114.61 121.447 113.607C119.946 112.369 117.485 113.298 115.712 115.088C113.781 117.002 112.053 119.011 110.326 121.019C108.441 123.152 106.448 124.988 106.223 127.594C106.063 128.999 107.016 130.032 108.3 130.036C112.794 130.05 117.557 122.696 120.948 119.241Z" fill="#F59E0B"/>
<path d="M70.1782 57.0785C73.7901 52.9371 69.1316 49.3479 65.4573 53.4111C62.5995 56.5713 58.7698 60.1188 57.6799 64.0493C57.1117 65.9053 58.6108 67.7832 60.681 66.5251C64.3043 64.1634 67.3045 60.3792 70.1782 57.0785Z" fill="#F59E0B"/>
<path d="M89.1256 34.9037C91.0565 32.9895 92.8929 31.278 95.0736 29.6768C99.8432 26.0228 96.4429 20.1583 91.6733 23.8122C88.1589 26.4709 79.9838 33.0804 82.3862 37.053C82.9948 37.9759 84.1061 38.2447 85.3599 37.8895C86.849 37.3477 87.9169 36.1177 89.1256 34.9037Z" fill="#F59E0B"/>
<path d="M69.6387 31.1993C73.185 28.2597 70.6897 23.8498 67.0808 26.7111C64.0996 29.0748 61.1954 32.0163 59.8716 35.4935C59.0361 37.817 61.3211 38.4328 63.0936 37.2831C65.5721 35.5735 67.426 33.0814 69.6387 31.1993Z" fill="#F59E0B"/>
<path d="M37.2096 59.5949C38.9676 57.9455 40.5382 56.0614 42.2961 54.412C43.8972 52.887 43.8248 50.389 42.699 49.6206C41.3233 48.5392 39.3635 49.4543 37.7624 50.9793C34.4819 54.0914 29.5858 58.2289 29.1685 62.5207C28.9925 64.0656 30.4161 64.7257 31.9212 64.0434C33.8186 63.0501 35.6086 61.1199 37.2096 59.5949Z" fill="#F59E0B"/>
<path d="M39.6829 76.6612C42.3678 73.7658 39.3537 70.1504 36.403 72.8733C33.2169 75.7828 30.2182 78.927 28.0169 82.5888C26.4289 85.2534 28.9318 86.4631 31.0965 85.0023C34.406 82.8894 36.8571 79.5406 39.6829 76.6612Z" fill="#F59E0B"/>
<path d="M30.2629 102.903C31.3772 101.892 31.9759 100.395 31.4458 99.4096C30.8532 98.3463 29.4745 98.545 28.2353 99.3997C26.996 100.255 25.8817 101.266 24.7514 102.418C24.1862 102.993 23.6996 103.507 23.3378 104.177C22.7407 105.034 22.6607 105.736 22.4863 106.641C22.043 108.653 24.392 108.708 25.7881 107.728C27.4356 106.422 28.4585 104.333 30.2629 102.903Z" fill="#F59E0B"/>
<path d="M141.236 93.449C142.618 91.9702 144 90.4914 145.522 89.0287C147.375 87.1767 147.334 84.3979 146.021 83.3948C144.442 82.2191 142.122 83.1643 140.286 84.8758C137.711 87.428 133.678 90.8813 132.872 94.2039C132.366 96.138 133.332 98.3109 135.636 97.5062C137.924 96.8419 139.446 95.3792 141.236 93.449Z" fill="#F59E0B"/>
</svg>
