<svg width="79" height="114" viewBox="0 0 79 114" fill="none" xmlns="http://www.w3.org/2000/svg">
<g clip-path="url(#clip0_6050_30066)">
<path fill-rule="evenodd" clip-rule="evenodd" d="M5.00282 64.5411C3.95968 65.1324 2.95379 65.101 2.58124 65.0114C1.53759 65.0114 2.14276 69.4522 2.52484 72.2559C2.5443 72.3987 2.56318 72.5373 2.58124 72.6708C2.87928 74.8746 3.57471 75.5599 3.88517 75.6271H5.43747C5.63616 75.6271 5.64444 75.8062 5.62374 75.8958C5.62374 83.3671 7.92114 85.7724 10.7153 87.7208C12.578 88.3479 16.614 89.5349 24.7481 88.7286C31.7644 87.7208 34.053 81.6068 34.4344 78.7177C34.6828 76.5005 35.1795 74.4849 36.9802 74.2833C38.7808 74.4849 39.3172 76.5005 39.5656 78.7177C39.947 81.6068 42.2356 87.7208 49.2519 88.7286C57.386 89.5349 61.422 88.3479 63.2847 87.7208C66.0789 85.7724 68.3763 83.3671 68.3763 75.8958C68.3556 75.8062 68.3638 75.6271 68.5625 75.6271H70.1148C70.4253 75.5599 71.1207 74.8746 71.4188 72.6708C71.4366 72.539 71.4552 72.4023 71.4744 72.2614L71.4752 72.2559C71.8572 69.4522 72.4624 65.0114 71.4188 65.0114C71.0462 65.101 70.0403 65.1324 68.9972 64.5411C67.6932 63.8021 56.3304 61.5152 45.5885 64.474C44.4502 64.7875 42.2976 65.7908 41.5525 67.0271C40.8074 68.2633 38.1806 68.7068 36.9802 68.774C35.7797 68.7068 33.1926 68.2633 32.4475 67.0271C31.7024 65.7908 29.5498 64.7875 28.4115 64.474C17.6696 61.5152 6.30676 63.8021 5.00282 64.5411ZM8.91461 72.738C8.91461 70.0663 10.9162 67.9005 13.3852 67.9005H25.0362C28.6593 67.9005 31.5734 71.1253 31.4921 75.0447L31.4525 76.9553C31.3508 81.8647 27.6567 85.7949 23.1185 85.822L16.5316 85.8613C12.3317 85.8864 8.91461 82.2092 8.91461 77.6646V72.738ZM65.0854 72.738C65.0854 70.0663 63.0838 67.9005 60.6148 67.9005H48.9638C45.3407 67.9005 42.4266 71.1253 42.5079 75.0447L42.5475 76.9553C42.6492 81.8647 46.3433 85.7949 50.8815 85.822L57.4684 85.8613C61.6683 85.8864 65.0854 82.2092 65.0854 77.6646V72.738Z" fill="#754FFE"/>
<path d="M2.3313 45.8792C-0.0781527 54.9258 4.42648 59.7292 6.97997 61C7.9228 55.9339 12.0215 51.6949 13.7893 50.0795C24.8544 51.6949 35.1339 50.4672 50.3239 46.6547C61.7819 44.393 64.51 54.172 64.0735 60.2246C84.6979 54.4089 80.4421 19.6441 72.1268 13.5699C73.9077 25.0979 71.7776 30.1338 70.49 31.2108C71.734 27.2475 71.9959 18.1578 69.9007 11.9544C66.5615 4.07097 68.0238 1.61547 69.246 0C65.9068 0.172316 56.4654 2.92076 45.4133 13.5699C34.3613 24.2191 26.7095 27.6137 24.2652 27.9799C28.5603 26.3773 36.8362 19.5579 40.4373 16.3485C33.2351 20.4841 21.6462 21.3242 10.5811 28.303C-3.14235 36.4191 -0.636866 43.4022 2.3313 45.8792Z" fill="#754FFE"/>
<path d="M26.9642 73.8875C26.9642 74.9299 26.4264 75.775 25.763 75.775C25.0996 75.775 24.5618 74.9299 24.5618 73.8875C24.5618 72.8451 25.0996 72 25.763 72C26.4264 72 26.9642 72.8451 26.9642 73.8875Z" fill="#754FFE"/>
<path d="M49.1865 73.8875C49.1865 74.9299 49.7243 75.775 50.3877 75.775C51.0511 75.775 51.5889 74.9299 51.5889 73.8875C51.5889 72.8451 51.0511 72 50.3877 72C49.7243 72 49.1865 72.8451 49.1865 73.8875Z" fill="#754FFE"/>
<path d="M40.678 86.1562C38.676 87.8339 35.9732 86.995 35.2725 86.1562C35.4727 87.2048 36.2335 88.6728 38.0753 88.6728C39.9172 88.6728 40.5779 86.995 40.678 86.1562Z" fill="#754FFE"/>
<path fill-rule="evenodd" clip-rule="evenodd" d="M33.9052 93.7984C33.9884 93.4025 34.3623 93.1522 34.7402 93.2394L41.813 94.8706C42.1909 94.9578 42.4298 95.3494 42.3466 95.7453C42.2634 96.1412 41.8896 96.3915 41.5116 96.3043L34.4389 94.6731C34.061 94.5859 33.822 94.1943 33.9052 93.7984Z" fill="#754FFE"/>
<path d="M37.9752 111.218C24.0413 111.386 13.8176 97.9355 10.4476 91.1894C9.9471 90.1876 9.54674 90.036 9.24642 90.2457C8.76594 90.5813 9.11291 91.2594 9.24638 91.6089C10.9281 95.7194 13.217 99.1938 14.1513 100.417C10.868 106.122 9.78024 111.812 9.64678 113.944C15.0922 108.324 20.5911 108.596 22.6598 109.435C38.876 118.243 47.8852 112.057 52.9903 109.435C57.0744 107.338 63.4341 111.428 66.1034 113.734C65.7831 108.533 63.1004 102.829 61.7991 100.627C63.9012 97.6908 65.6029 94.1255 66.5038 92.3429C67.2246 90.9168 67.0043 90.3506 66.8041 90.2457C66.3237 89.994 65.7364 90.77 65.5028 91.1894C64.0013 93.811 55.3927 111.008 37.9752 111.218Z" fill="#754FFE"/>
</g>
<defs>
<clipPath id="clip0_6050_30066">
<rect width="79" height="114" fill="white"/>
</clipPath>
</defs>
</svg>
