<svg width="32" height="32" viewBox="0 0 32 32" fill="none" xmlns="http://www.w3.org/2000/svg">
<path d="M22.8773 15.6544C23.3965 15.5139 24.0013 15.4773 24.5419 15.7002C24.7435 15.7827 24.9421 15.8774 25.1406 15.9813C25.3361 16.0851 25.5224 16.2012 25.7118 16.3264C26.0905 16.5799 26.4326 16.8732 26.7656 17.2152C27.4131 17.8964 27.9415 18.7638 28.2745 19.7779C28.6074 20.792 28.7387 21.9557 28.6074 23.1744C28.473 24.3901 28.0759 25.6577 27.407 26.8489C27.0099 27.5545 26.3441 28.1165 25.6476 28.4006C25.4735 28.4708 25.2964 28.5227 25.1223 28.5594C24.9482 28.5961 24.7771 28.6174 24.6091 28.6174C24.2732 28.6174 23.9677 28.5563 23.702 28.4158C23.1736 28.1348 22.9323 27.6431 22.9048 27.1147C22.8773 26.5801 23.0483 25.9998 23.4057 25.4744C23.8455 24.8147 24.1479 24.0877 24.3037 23.3577C24.4595 22.6277 24.4717 21.8977 24.3526 21.2196C24.322 21.0486 24.2823 20.8806 24.2396 20.7187C24.2182 20.6362 24.1937 20.5568 24.1693 20.4774C24.1418 20.398 24.1143 20.3185 24.0838 20.2391C24.0227 20.0834 23.9585 19.9337 23.8883 19.7871C23.8119 19.6405 23.7325 19.4969 23.65 19.3625C23.311 18.8158 22.8773 18.3484 22.3886 17.9666C21.9823 17.6429 21.7196 17.3038 21.628 17.0045C21.5242 16.7021 21.5944 16.4364 21.8571 16.1798C21.9762 16.0637 22.1228 15.9629 22.303 15.8713C22.468 15.7919 22.6635 15.7125 22.8773 15.6544Z" fill="url(#paint0_linear_5206_30600)"/>
<path d="M19.3363 21.5584C19.715 21.931 20.048 22.4381 20.1305 23.0215C20.161 23.2414 20.1763 23.4552 20.1854 23.6782C20.1915 23.8981 20.1915 24.1272 20.1732 24.3502C20.1579 24.5731 20.1274 24.7992 20.0877 25.0252C20.048 25.2543 19.993 25.4742 19.9258 25.7033C19.6601 26.6043 19.1744 27.4993 18.4597 28.2934C17.748 29.0876 16.8072 29.7809 15.6924 30.2758C14.5806 30.7706 13.2794 31.0699 11.9079 31.0821C11.0924 31.0913 10.2738 30.7889 9.67514 30.3307C9.07952 29.8634 8.70994 29.2495 8.68856 28.6508C8.66717 28.0552 8.97262 27.6001 9.41857 27.3099C9.64154 27.1663 9.90422 27.0564 10.1852 26.9922C10.4662 26.9312 10.7747 26.9006 11.0924 26.925C11.8835 26.977 12.6654 26.8762 13.3771 26.644C13.7314 26.5341 14.0705 26.3783 14.382 26.2103C14.5408 26.1187 14.6905 26.027 14.8341 25.9293C14.9776 25.8346 15.1181 25.7185 15.2495 25.6116C15.5122 25.3978 15.7504 25.1413 15.9612 24.8908C16.065 24.7625 16.1627 24.6251 16.2544 24.4907C16.346 24.3532 16.4285 24.2219 16.5048 24.0753C16.8103 23.5041 16.9966 22.8962 17.0852 22.2854C17.1218 22.0257 17.186 21.7997 17.2623 21.6103C17.302 21.5126 17.3418 21.424 17.3906 21.3477C17.4151 21.3079 17.4364 21.2743 17.4639 21.2407C17.4884 21.2071 17.5128 21.1735 17.5403 21.143C17.7541 20.9139 18.0137 20.8253 18.368 20.9322C18.4475 20.9536 18.5269 20.9872 18.6093 21.0269C18.6918 21.0666 18.7712 21.1094 18.8537 21.1644C19.0156 21.2682 19.1836 21.4057 19.3363 21.5584Z" fill="url(#paint1_linear_5206_30600)"/>
<path d="M12.4663 21.4453C12.3319 21.9584 12.06 22.499 11.5927 22.8625C10.9024 23.3909 10.0808 23.8094 9.17055 24.0232C8.25728 24.2401 7.24015 24.2675 6.19554 24.0507C5.15092 23.8338 4.07882 23.3695 3.08613 22.6487C2.09344 21.9309 1.19543 20.9443 0.49597 19.7653C0.086676 19.0659 -0.0782633 18.2045 0.0347507 17.4592C0.0469684 17.3645 0.0622405 17.276 0.0836215 17.1843C0.105003 17.0957 0.129438 17.0072 0.159982 16.9247C0.218016 16.7567 0.285214 16.5979 0.364629 16.4543C0.526514 16.1641 0.746433 15.932 0.996896 15.7732C1.49782 15.4586 2.04457 15.4952 2.52106 15.7365C2.76236 15.8556 2.98228 16.0297 3.17776 16.2405C3.27856 16.3474 3.37324 16.4635 3.45877 16.5887C3.54429 16.7139 3.6176 16.8483 3.69396 16.9919C4.04216 17.7036 4.5156 18.3328 5.07456 18.8307C5.63047 19.3316 6.25968 19.7042 6.90416 19.9394C7.23404 20.0555 7.55476 20.1441 7.88769 20.1899C8.21146 20.2449 8.54439 20.2601 8.86511 20.2479C9.18277 20.2388 9.50654 20.1929 9.80893 20.1288C10.1174 20.0616 10.4198 19.9669 10.7039 19.8539C10.9421 19.7592 11.1773 19.6951 11.3789 19.6706C11.4797 19.6584 11.5805 19.6493 11.6691 19.6493C11.7607 19.6493 11.8401 19.6615 11.9226 19.6767C12.2341 19.747 12.4418 19.9333 12.5243 20.2937C12.6007 20.6114 12.5762 21.0176 12.4663 21.4453Z" fill="url(#paint2_linear_5206_30600)"/>
<path d="M9.12411 15.4249C8.60486 15.5654 8.00008 15.6021 7.45945 15.3791C7.25786 15.2966 7.05932 15.2019 6.86078 15.0981C6.6653 14.9942 6.47898 14.8782 6.2896 14.7529C5.91085 14.4994 5.56876 14.2062 5.23582 13.8641C4.58828 13.183 4.05987 12.3155 3.72693 11.3014C3.394 10.2874 3.26266 9.12363 3.394 7.90491C3.5284 6.68925 3.92547 5.42166 4.59439 4.23043C4.99147 3.52486 5.65733 2.96284 6.35374 2.67878C6.52785 2.60853 6.705 2.5566 6.87911 2.51995C7.05321 2.48329 7.22426 2.46191 7.39225 2.46191C7.72824 2.46191 8.03368 2.523 8.29942 2.66351C8.82783 2.94451 9.06913 3.43628 9.09662 3.96469C9.12411 4.49922 8.95307 5.07956 8.5957 5.60492C8.15586 6.26468 7.85347 6.99163 7.69769 7.72164C7.54192 8.45165 7.5297 9.18166 7.64882 9.85974C7.67937 10.0308 7.71908 10.1988 7.76184 10.3607C7.78322 10.4431 7.80765 10.5226 7.83209 10.602C7.85958 10.6814 7.88707 10.7608 7.91761 10.8402C7.9787 10.996 8.04284 11.1457 8.1131 11.2923C8.18946 11.4389 8.26887 11.5824 8.35134 11.7168C8.69038 12.2636 9.12411 12.7309 9.61282 13.1127C10.0191 13.4365 10.2817 13.7755 10.3734 14.0749C10.4772 14.3772 10.407 14.643 10.1443 14.8996C10.0252 15.0156 9.87856 15.1164 9.69835 15.2081C9.53035 15.2905 9.33487 15.3669 9.12411 15.4249Z" fill="url(#paint3_linear_5206_30600)"/>
<path d="M12.6614 9.52392C12.2826 9.15128 11.9497 8.64424 11.8672 8.06084C11.8367 7.84093 11.8214 7.62712 11.8122 7.40414C11.8061 7.18422 11.8061 6.95514 11.8245 6.73217C11.8397 6.50919 11.8703 6.28317 11.91 6.05714C11.9497 5.82806 12.0047 5.60814 12.0719 5.37906C12.3376 4.478 12.8233 3.58305 13.538 2.7889C14.2497 1.99475 15.1904 1.30139 16.3053 0.806572C17.4171 0.311755 18.7183 0.0124204 20.0898 0.00020263C20.9053 -0.00896066 21.7239 0.293428 22.3225 0.751593C22.9182 1.21892 23.2877 1.83286 23.3091 2.43153C23.3305 3.02714 23.0251 3.48225 22.5791 3.77242C22.3561 3.91598 22.0935 4.02594 21.8125 4.09009C21.5314 4.15117 21.2229 4.18172 20.9053 4.15728C20.1142 4.10536 19.3323 4.20615 18.6206 4.43829C18.2663 4.54825 17.9272 4.70403 17.6157 4.87202C17.4568 4.96365 17.3072 5.05529 17.1636 5.15303C17.0201 5.24771 16.8795 5.36378 16.7482 5.47069C16.4855 5.6845 16.2473 5.94107 16.0365 6.19153C15.9327 6.31982 15.8349 6.45727 15.7433 6.59166C15.6517 6.72911 15.5692 6.86045 15.4928 7.00707C15.1874 7.57825 15.0011 8.18608 14.9125 8.79696C14.8758 9.05659 14.8117 9.28262 14.7353 9.47199C14.6956 9.56973 14.6559 9.65831 14.6071 9.73467C14.5826 9.77438 14.5612 9.80798 14.5337 9.84158C14.5093 9.87518 14.4849 9.90878 14.4574 9.93932C14.2436 10.1684 13.9839 10.257 13.6296 10.1501C13.5502 10.1287 13.4708 10.0951 13.3883 10.0554C13.3059 10.0157 13.2264 9.97292 13.144 9.91794C12.9821 9.81103 12.8172 9.67358 12.6614 9.52392Z" fill="url(#paint4_linear_5206_30600)"/>
<path d="M19.5374 9.63682C19.6718 9.12368 19.9437 8.58304 20.411 8.21956C21.1013 7.69115 21.9229 7.27269 22.8332 7.05888C23.7464 6.84202 24.7636 6.81453 25.8082 7.03139C26.8528 7.24826 27.9249 7.71253 28.9176 8.43337C29.9103 9.15117 30.8083 10.1377 31.5047 11.3168C31.914 12.0162 32.0789 12.8776 31.9659 13.6229C31.9537 13.7175 31.9384 13.8061 31.917 13.8978C31.8957 13.9863 31.8712 14.0749 31.8407 14.1574C31.7826 14.3254 31.7154 14.4842 31.636 14.6278C31.4741 14.9179 31.2542 15.1501 31.0038 15.3089C30.5028 15.6235 29.9561 15.5869 29.4796 15.3456C29.2383 15.2264 29.0184 15.0523 28.8229 14.8416C28.7221 14.7347 28.6274 14.6186 28.5419 14.4934C28.4564 14.3681 28.3831 14.2337 28.3067 14.0902C27.9585 13.3785 27.4851 12.7493 26.9261 12.2514C26.3702 11.7505 25.741 11.3778 25.0965 11.1427C24.7666 11.0266 24.4459 10.938 24.113 10.8922C23.7892 10.8372 23.4563 10.8219 23.1355 10.8342C22.8179 10.8433 22.4941 10.8891 22.1917 10.9533C21.8832 11.0205 21.5808 11.1152 21.2968 11.2282C21.0585 11.3229 20.8233 11.387 20.6217 11.4114C20.521 11.4237 20.4202 11.4328 20.3316 11.4298C20.2399 11.4298 20.1605 11.4176 20.0781 11.4023C19.7665 11.332 19.5588 11.1457 19.4763 10.7853C19.403 10.4707 19.4244 10.0614 19.5374 9.63682Z" fill="url(#paint5_linear_5206_30600)"/>
<defs>
<linearGradient id="paint0_linear_5206_30600" x1="21.5755" y1="22.082" x2="28.6578" y2="22.082" gradientUnits="userSpaceOnUse">
<stop stop-color="#93D8DE"/>
<stop offset="1" stop-color="#65C8D0"/>
</linearGradient>
<linearGradient id="paint1_linear_5206_30600" x1="8.68859" y1="25.9833" x2="20.1898" y2="25.9833" gradientUnits="userSpaceOnUse">
<stop stop-color="#221ECA"/>
<stop offset="1" stop-color="#6461DA"/>
</linearGradient>
<linearGradient id="paint2_linear_5206_30600" x1="0.00203772" y1="19.8702" x2="12.5682" y2="19.8702" gradientUnits="userSpaceOnUse">
<stop stop-color="#93D8DE"/>
<stop offset="1" stop-color="#65C8D0"/>
</linearGradient>
<linearGradient id="paint3_linear_5206_30600" x1="3.34189" y1="8.99885" x2="10.4242" y2="8.99885" gradientUnits="userSpaceOnUse">
<stop stop-color="#221ECA"/>
<stop offset="1" stop-color="#6461DA"/>
</linearGradient>
<linearGradient id="paint4_linear_5206_30600" x1="11.8092" y1="5.0975" x2="23.3105" y2="5.0975" gradientUnits="userSpaceOnUse">
<stop stop-color="#93D8DE"/>
<stop offset="1" stop-color="#65C8D0"/>
</linearGradient>
<linearGradient id="paint5_linear_5206_30600" x1="19.4338" y1="11.2103" x2="32" y2="11.2103" gradientUnits="userSpaceOnUse">
<stop stop-color="#221ECA"/>
<stop offset="1" stop-color="#6461DA"/>
</linearGradient>
</defs>
</svg>
