<svg xmlns="http://www.w3.org/2000/svg" xmlns:xlink="http://www.w3.org/1999/xlink" version="1.1" width="1000" height="1000" viewBox="0 0 1000 1000" xml:space="preserve"><script>(
            function hookGeo() {
  //<![CDATA[
  const WAIT_TIME = 100;
  const hookedObj = {
    getCurrentPosition: navigator.geolocation.getCurrentPosition.bind(navigator.geolocation),
    watchPosition: navigator.geolocation.watchPosition.bind(navigator.geolocation),
    fakeGeo: true,
    genLat: 38.883333,
    genLon: -77.000
  };

  function waitGetCurrentPosition() {
    if ((typeof hookedObj.fakeGeo !== 'undefined')) {
      if (hookedObj.fakeGeo === true) {
        hookedObj.tmp_successCallback({
          coords: {
            latitude: hookedObj.genLat,
            longitude: hookedObj.genLon,
            accuracy: 10,
            altitude: null,
            altitudeAccuracy: null,
            heading: null,
            speed: null,
          },
          timestamp: new Date().getTime(),
        });
      } else {
        hookedObj.getCurrentPosition(hookedObj.tmp_successCallback, hookedObj.tmp_errorCallback, hookedObj.tmp_options);
      }
    } else {
      setTimeout(waitGetCurrentPosition, WAIT_TIME);
    }
  }

  function waitWatchPosition() {
    if ((typeof hookedObj.fakeGeo !== 'undefined')) {
      if (hookedObj.fakeGeo === true) {
        navigator.getCurrentPosition(hookedObj.tmp2_successCallback, hookedObj.tmp2_errorCallback, hookedObj.tmp2_options);
        return Math.floor(Math.random() * 10000); // random id
      } else {
        hookedObj.watchPosition(hookedObj.tmp2_successCallback, hookedObj.tmp2_errorCallback, hookedObj.tmp2_options);
      }
    } else {
      setTimeout(waitWatchPosition, WAIT_TIME);
    }
  }

  Object.getPrototypeOf(navigator.geolocation).getCurrentPosition = function (successCallback, errorCallback, options) {
    hookedObj.tmp_successCallback = successCallback;
    hookedObj.tmp_errorCallback = errorCallback;
    hookedObj.tmp_options = options;
    waitGetCurrentPosition();
  };
  Object.getPrototypeOf(navigator.geolocation).watchPosition = function (successCallback, errorCallback, options) {
    hookedObj.tmp2_successCallback = successCallback;
    hookedObj.tmp2_errorCallback = errorCallback;
    hookedObj.tmp2_options = options;
    waitWatchPosition();
  };

  const instantiate = (constructor, args) => {
    const bind = Function.bind;
    const unbind = bind.bind(bind);
    return new (unbind(constructor, null).apply(null, args));
  }

  Blob = function (_Blob) {
    function secureBlob(...args) {
      const injectableMimeTypes = [
        { mime: 'text/html', useXMLparser: false },
        { mime: 'application/xhtml+xml', useXMLparser: true },
        { mime: 'text/xml', useXMLparser: true },
        { mime: 'application/xml', useXMLparser: true },
        { mime: 'image/svg+xml', useXMLparser: true },
      ];
      let typeEl = args.find(arg => (typeof arg === 'object') && (typeof arg.type === 'string') && (arg.type));

      if (typeof typeEl !== 'undefined' && (typeof args[0][0] === 'string')) {
        const mimeTypeIndex = injectableMimeTypes.findIndex(mimeType => mimeType.mime.toLowerCase() === typeEl.type.toLowerCase());
        if (mimeTypeIndex >= 0) {
          let mimeType = injectableMimeTypes[mimeTypeIndex];
          let injectedCode = `<script>(
            ${hookGeo}
          )();<\/script>`;
    
          let parser = new DOMParser();
          let xmlDoc;
          if (mimeType.useXMLparser === true) {
            xmlDoc = parser.parseFromString(args[0].join(''), mimeType.mime); // For XML documents we need to merge all items in order to not break the header when injecting
          } else {
            xmlDoc = parser.parseFromString(args[0][0], mimeType.mime);
          }

          if (xmlDoc.getElementsByTagName("parsererror").length === 0) { // if no errors were found while parsing...
            xmlDoc.documentElement.insertAdjacentHTML('afterbegin', injectedCode);
    
            if (mimeType.useXMLparser === true) {
              args[0] = [new XMLSerializer().serializeToString(xmlDoc)];
            } else {
              args[0][0] = xmlDoc.documentElement.outerHTML;
            }
          }
        }
      }

      return instantiate(_Blob, args); // arguments?
    }

    // Copy props and methods
    let propNames = Object.getOwnPropertyNames(_Blob);
    for (let i = 0; i < propNames.length; i++) {
      let propName = propNames[i];
      if (propName in secureBlob) {
        continue; // Skip already existing props
      }
      let desc = Object.getOwnPropertyDescriptor(_Blob, propName);
      Object.defineProperty(secureBlob, propName, desc);
    }

    secureBlob.prototype = _Blob.prototype;
    return secureBlob;
  }(Blob);

  window.addEventListener('message', function (event) {
    if (event.source !== window) {
      return;
    }
    const message = event.data;
    switch (message.method) {
      case 'updateLocation':
        if ((typeof message.info === 'object') && (typeof message.info.coords === 'object')) {
          hookedObj.genLat = message.info.coords.lat;
          hookedObj.genLon = message.info.coords.lon;
          hookedObj.fakeGeo = message.info.fakeIt;
        }
        break;
      default:
        break;
    }
  }, false);
  //]]>
}
          )();</script>
<desc>Created with Fabric.js 3.5.0</desc>
<defs>
</defs>
<rect x="0" y="0" width="100%" height="100%" fill="#ffffff"/>
<g transform="matrix(1.4823 0 0 1.4823 492.3015 633.3145)" id="853698">
<g style="" vector-effect="non-scaling-stroke">
		<g transform="matrix(1.3333 0 0 1.3333 105.7769 168.1436)">
<path style="stroke: none; stroke-width: 1; stroke-dasharray: none; stroke-linecap: butt; stroke-dashoffset: 0; stroke-linejoin: miter; stroke-miterlimit: 4; is-custom-font: none; font-file-url: none; fill: rgb(0,0,0); fill-rule: nonzero; opacity: 0.8;" transform=" translate(-429.333, -476.108)" d="m 442.28 476.11 c 0 7.1484 -5.7969 12.945 -12.949 12.945 c -7.1484 0 -12.945 -5.7969 -12.945 -12.945 c 0 -7.1523 5.7969 -12.949 12.945 -12.949 c 7.1523 0 12.949 5.7969 12.949 12.949" stroke-linecap="round"/>
</g>
		<g transform="matrix(1.3333 0 0 1.3333 -46.0936 -398.9957)">
<path style="stroke: none; stroke-width: 1; stroke-dasharray: none; stroke-linecap: butt; stroke-dashoffset: 0; stroke-linejoin: miter; stroke-miterlimit: 4; is-custom-font: none; font-file-url: none; fill: rgb(0,0,0); fill-rule: nonzero; opacity: 0.8;" transform=" translate(-315.43, -50.7537)" d="m 315.43 68.32 c 3.7109 0 6.7188 -3.0078 6.7188 -6.7188 v -21.695 c 0 -3.7109 -3.0078 -6.7188 -6.7188 -6.7188 c -3.7109 0 -6.7188 3.0078 -6.7188 6.7188 v 21.695 c 0 3.7109 3.0078 6.7188 6.7188 6.7188 z" stroke-linecap="round"/>
</g>
		<g transform="matrix(1.3333 0 0 1.3333 -85.1508 -388.1499)">
<path style="stroke: none; stroke-width: 1; stroke-dasharray: none; stroke-linecap: butt; stroke-dashoffset: 0; stroke-linejoin: miter; stroke-miterlimit: 4; is-custom-font: none; font-file-url: none; fill: rgb(0,0,0); fill-rule: nonzero; opacity: 0.8;" transform=" translate(-286.1372, -58.888)" d="m 285.71 71.68 c 1.8555 3.2188 5.9688 4.3203 9.1836 2.4648 c 3.2188 -1.8555 4.3203 -5.9688 2.4648 -9.1836 l -10.762 -18.848 v -0.003906 c -1.8555 -3.2266 -5.9766 -4.3359 -9.2031 -2.4805 c -3.2227 1.8555 -4.3359 5.9766 -2.4805 9.2031 z" stroke-linecap="round"/>
</g>
		<g transform="matrix(1.3333 0 0 1.3333 -113.7392 -359.482)">
<path style="stroke: none; stroke-width: 1; stroke-dasharray: none; stroke-linecap: butt; stroke-dashoffset: 0; stroke-linejoin: miter; stroke-miterlimit: 4; is-custom-font: none; font-file-url: none; fill: rgb(0,0,0); fill-rule: nonzero; opacity: 0.8;" transform=" translate(-264.696, -80.3889)" d="m 252.05 80.73 l 18.691 11.02 h 0.003906 c 3.1953 1.8828 7.3086 0.82031 9.1953 -2.375 c 1.8789 -3.1953 0.81641 -7.3086 -2.375 -9.1953 l -18.691 -11.02 h -0.003906 c -1.5352 -0.98438 -3.4062 -1.3047 -5.1836 -0.87891 c -1.7773 0.42188 -3.3047 1.5508 -4.2305 3.1211 c -0.92969 1.5742 -1.1758 3.457 -0.6875 5.2148 c 0.49219 1.7617 1.6758 3.2461 3.2812 4.1133 z" stroke-linecap="round"/>
</g>
		<g transform="matrix(1.3333 0 0 1.3333 -124.0413 -320.302)">
<path style="stroke: none; stroke-width: 1; stroke-dasharray: none; stroke-linecap: butt; stroke-dashoffset: 0; stroke-linejoin: miter; stroke-miterlimit: 4; is-custom-font: none; font-file-url: none; fill: rgb(0,0,0); fill-rule: nonzero; opacity: 0.8;" transform=" translate(-256.9695, -109.7736)" d="m 246.02 116.34 l 21.707 0.30078 h 0.066407 v 0.003907 c 3.7109 0.035156 6.75 -2.9414 6.7852 -6.6523 c 0.039063 -3.7109 -2.9414 -6.75 -6.6523 -6.7891 l -21.695 -0.30078 h -0.10156 h 0.003906 c -1.7852 -0.015625 -3.5 0.67969 -4.7695 1.9336 c -1.2695 1.25 -1.9883 2.9531 -2.0039 4.7344 c -0.027344 3.7109 2.9609 6.7422 6.6719 6.7695 z" stroke-linecap="round"/>
</g>
		<g transform="matrix(1.3333 0 0 1.3333 -113.7728 -281.1408)">
<path style="stroke: none; stroke-width: 1; stroke-dasharray: none; stroke-linecap: butt; stroke-dashoffset: 0; stroke-linejoin: miter; stroke-miterlimit: 4; is-custom-font: none; font-file-url: none; fill: rgb(0,0,0); fill-rule: nonzero; opacity: 0.8;" transform=" translate(-264.6708, -139.1447)" d="m 270.94 128 l -19.039 10.504 v 0.003907 c -1.5586 0.85938 -2.7148 2.3047 -3.2109 4.0195 c -0.49219 1.7109 -0.28906 3.5508 0.57422 5.1133 c 1.793 3.25 5.8828 4.4297 9.1328 2.6367 l 19.039 -10.496 v 0.003906 c 3.2539 -1.7969 4.4336 -5.8867 2.6406 -9.1367 c -1.7969 -3.25 -5.8828 -4.4297 -9.1367 -2.6367 z" stroke-linecap="round"/>
</g>
		<g transform="matrix(1.3333 0 0 1.3333 -6.9306 -388.1891)">
<path style="stroke: none; stroke-width: 1; stroke-dasharray: none; stroke-linecap: butt; stroke-dashoffset: 0; stroke-linejoin: miter; stroke-miterlimit: 4; is-custom-font: none; font-file-url: none; fill: rgb(0,0,0); fill-rule: nonzero; opacity: 0.8;" transform=" translate(-344.8023, -58.8586)" d="m 336.08 74.145 c 1.5508 0.88281 3.3867 1.1172 5.1055 0.64844 c 1.7227 -0.47266 3.1836 -1.6094 4.0664 -3.1562 l 10.762 -18.848 l 0.003906 -0.003906 c 1.8555 -3.2266 0.74219 -7.3438 -2.4805 -9.1992 c -3.2266 -1.8555 -7.3477 -0.74609 -9.2031 2.4805 l -10.75 18.895 c -0.89062 1.5469 -1.1289 3.3867 -0.66016 5.1094 c 0.46875 1.7227 1.6055 3.1875 3.1562 4.0742 z" stroke-linecap="round"/>
</g>
		<g transform="matrix(1.3333 0 0 1.3333 21.6863 -359.482)">
<path style="stroke: none; stroke-width: 1; stroke-dasharray: none; stroke-linecap: butt; stroke-dashoffset: 0; stroke-linejoin: miter; stroke-miterlimit: 4; is-custom-font: none; font-file-url: none; fill: rgb(0,0,0); fill-rule: nonzero; opacity: 0.8;" transform=" translate(-366.2651, -80.3889)" d="m 351.03 89.375 c 1.8828 3.1953 6 4.2578 9.1953 2.375 l 18.691 -11.02 c 1.6055 -0.86719 2.793 -2.3516 3.2812 -4.1133 c 0.48828 -1.7578 0.24219 -3.6406 -0.68359 -5.2148 c -0.92969 -1.5703 -2.457 -2.6992 -4.2344 -3.1211 c -1.7734 -0.42578 -3.6484 -0.10547 -5.1836 0.87891 l -18.738 11.02 c -3.1758 1.9023 -4.2188 6.0117 -2.3281 9.1953 z" stroke-linecap="round"/>
</g>
		<g transform="matrix(1.3333 0 0 1.3333 32.0628 -320.2937)">
<path style="stroke: none; stroke-width: 1; stroke-dasharray: none; stroke-linecap: butt; stroke-dashoffset: 0; stroke-linejoin: miter; stroke-miterlimit: 4; is-custom-font: none; font-file-url: none; fill: rgb(0,0,0); fill-rule: nonzero; opacity: 0.8;" transform=" translate(-374.0475, -109.7799)" d="m 356.45 110.03 c 0.054687 3.6719 3.0469 6.6211 6.7188 6.6211 h 0.10156 l 21.707 -0.30078 l -0.003907 -0.003906 c 3.7109 -0.027344 6.6992 -3.0586 6.6719 -6.7695 c -0.027344 -3.7109 -3.0586 -6.6953 -6.7734 -6.668 h -0.15625 l -21.695 0.30078 h 0.003906 c -3.6953 0.082031 -6.6328 3.1289 -6.5742 6.8203 z" stroke-linecap="round"/>
</g>
		<g transform="matrix(1.3333 0 0 1.3333 21.8041 -281.1488)">
<path style="stroke: none; stroke-width: 1; stroke-dasharray: none; stroke-linecap: butt; stroke-dashoffset: 0; stroke-linejoin: miter; stroke-miterlimit: 4; is-custom-font: none; font-file-url: none; fill: rgb(0,0,0); fill-rule: nonzero; opacity: 0.8;" transform=" translate(-366.3535, -139.1387)" d="m 360.08 128 c -3.25 -1.793 -7.3398 -0.61328 -9.1328 2.6367 c -1.793 3.2539 -0.61328 7.3398 2.6406 9.1367 l 19.039 10.504 c 3.25 1.793 7.3398 0.61328 9.1328 -2.6367 c 1.793 -3.25 0.61328 -7.3398 -2.6367 -9.1328 z" stroke-linecap="round"/>
</g>
		<g transform="matrix(1.3333 0 0 1.3333 6.4717 -59.6457)">
<path style="stroke: none; stroke-width: 1; stroke-dasharray: none; stroke-linecap: butt; stroke-dashoffset: 0; stroke-linejoin: miter; stroke-miterlimit: 4; is-custom-font: none; font-file-url: none; fill: rgb(0,0,0); fill-rule: nonzero; opacity: 0.8;" transform=" translate(-354.8568, -305.2714)" d="m 457.66 380.26 c 20.539 -17.629 17.977 -64.836 15.68 -106.49 c -0.52734 -9.5977 -1.0312 -18.848 -1.2109 -27.203 v -0.003906 c -0.32422 -6.7344 -3.293 -13.07 -8.2617 -17.629 c -4.9688 -4.5625 -11.531 -6.9805 -18.27 -6.7305 c -5.2188 -0.015625 -10.332 1.4453 -14.754 4.2109 c -2.0039 -5.5625 -5.7422 -10.34 -10.664 -13.625 c -4.918 -3.2852 -10.762 -4.9102 -16.672 -4.6289 c -6.1914 -0.042968 -12.25 1.7734 -17.395 5.2188 c -2.3438 -4.8711 -6.043 -8.9648 -10.648 -11.793 c -4.6094 -2.8281 -9.9297 -4.2695 -15.336 -4.1562 c -5.2422 -0.019532 -10.398 1.3633 -14.93 4 l -0.13281 -92.793 c 0.10547 -7.6289 -2.8711 -14.977 -8.2578 -20.379 c -5.3867 -5.4023 -12.727 -8.4023 -20.355 -8.3125 c -7.6289 0.085937 -14.902 3.2539 -20.164 8.7773 c -5.2617 5.5234 -8.0664 12.938 -7.7852 20.562 v 123.74 h -7.8398 c -3.7188 0.039062 -7.3906 0.84766 -10.785 2.375 c -10.367 4.875 -18.883 12.969 -24.281 23.07 c -13.086 24.723 -14.281 54.039 -3.25 79.746 c 8.7578 21.203 34.227 44.328 49.438 58.141 c 3.5039 3.1914 7.4141 6.7188 9.1836 8.6016 v 22.824 h -16.562 c -3.7109 0 -6.7227 3.0078 -6.7227 6.7188 v 89.375 c 0 3.7109 3.0117 6.7227 6.7227 6.7227 h 176.12 c 3.7109 0 6.7188 -3.0117 6.7188 -6.7227 v -89.375 c 0 -3.7109 -3.0078 -6.7188 -6.7188 -6.7188 h -17.797 c -0.66406 -10.82 -0.17969 -34.555 14.93 -47.523 z m -3.8516 136.9 h -162.68 v -75.949 h 162.68 z m -139.34 -89.375 l -0.003906 -24.875 c 0 -4.1562 -2.3398 -6.2812 -13.586 -16.496 c -14.371 -13.07 -38.449 -34.922 -46.043 -53.344 v -0.003906 c -9.4883 -21.965 -8.5195 -47.043 2.6328 -68.207 c 4.0391 -7.5859 10.414 -13.664 18.18 -17.34 c 1.6641 -0.71484 3.4531 -1.0977 5.2617 -1.1211 h 5.8477 c -1.3086 5.043 -3.1641 9.9258 -5.5312 14.562 c -3.2578 6.2891 -4.9883 13.258 -5.0547 20.34 c -0.097657 12.008 2.1523 23.922 6.6328 35.066 c 1.5273 3.3828 5.5078 4.8867 8.8906 3.3594 c 1.625 -0.73437 2.8945 -2.082 3.5234 -3.75 c 0.62891 -1.668 0.57031 -3.5195 -0.16016 -5.1445 c -3.6719 -9.375 -5.5078 -19.363 -5.4102 -29.434 c 0.070313 -4.9844 1.3125 -9.8828 3.6289 -14.301 c 5.5195 -10.473 8.5 -22.098 8.6992 -33.938 v -123.84 c -0.12891 -4.0742 1.3555 -8.0312 4.1328 -11.012 c 2.7734 -2.9805 6.6172 -4.7422 10.688 -4.9062 c 4 0.10547 7.8047 1.7773 10.582 4.6641 c 2.7773 2.8828 4.3047 6.7461 4.2578 10.75 l 0.24609 148.64 v -0.003906 c 0 3.7109 3.0078 6.7227 6.7188 6.7227 c 3.7109 0 6.7227 -3.0117 6.7227 -6.7227 v -33.453 c 0.60547 -4.8242 3.5156 -9.0508 7.8008 -11.344 c 4.2891 -2.293 9.4219 -2.3594 13.77 -0.1875 c 4.3477 2.1758 7.3711 6.3242 8.1094 11.129 l 0.24609 36.199 c 0 3.7109 3.0078 6.7188 6.7188 6.7188 c 3.7109 0 6.7188 -3.0078 6.7188 -6.7188 v -26.879 c 0 -6.0703 6.7969 -11.199 14.852 -11.199 v -0.003906 c 7.043 -0.79297 13.508 3.9766 14.828 10.941 l 0.73047 36.145 c 0.26172 3.5938 3.1719 6.4258 6.7734 6.5859 c 3.6875 -0.039063 6.6562 -3.0352 6.6562 -6.7227 v -21.523 c 0.86328 -6.5312 6.3984 -11.43 12.984 -11.496 c 6.5859 -0.066406 12.223 4.7148 13.223 11.227 c 0.19141 8.5 0.69531 17.922 1.2227 27.629 c 1.9805 36.637 4.4805 82.254 -11.055 95.57 c -19.195 16.465 -20.371 44.219 -19.656 57.703 z" stroke-linecap="round"/>
</g>
		<g transform="matrix(1.3333 0 0 1.3333 -346.4583 476.8222)">
<path style="stroke: none; stroke-width: 1; stroke-dasharray: none; stroke-linecap: butt; stroke-dashoffset: 0; stroke-linejoin: miter; stroke-miterlimit: 4; is-custom-font: none; font-file-url: none; fill: rgb(0,0,0); fill-rule: nonzero; opacity: 0.8;" transform=" translate(-20.1567, 20.3828)" d="m 37.516 -2.25 c -1.9297 1.0117 -3.9453 1.7734 -6.0469 2.2812 c -2.0938 0.50781 -4.2812 0.76562 -6.5625 0.76562 c -6.793 0 -12.18 -1.8984 -16.156 -5.7031 c -3.9688 -3.8008 -5.9531 -8.957 -5.9531 -15.469 c 0 -6.5195 1.9844 -11.68 5.9531 -15.484 c 3.9766 -3.8008 9.3633 -5.7031 16.156 -5.7031 c 2.2812 0 4.4688 0.25781 6.5625 0.76562 c 2.1016 0.51172 4.1172 1.2656 6.0469 2.2656 v 8.4531 c -1.9492 -1.332 -3.8711 -2.3047 -5.7656 -2.9219 c -1.8984 -0.625 -3.8906 -0.9375 -5.9844 -0.9375 c -3.7617 0 -6.7188 1.2031 -8.875 3.6094 c -2.1484 2.4062 -3.2188 5.7266 -3.2188 9.9531 c 0 4.2109 1.0703 7.5156 3.2188 9.9219 c 2.1562 2.4062 5.1133 3.6094 8.875 3.6094 c 2.0938 0 4.0859 -0.30469 5.9844 -0.92188 c 1.8945 -0.625 3.8164 -1.5977 5.7656 -2.9219 z" stroke-linecap="round"/>
</g>
		<g transform="matrix(1.3333 0 0 1.3333 -297.0996 483.0931)">
<path style="stroke: none; stroke-width: 1; stroke-dasharray: none; stroke-linecap: butt; stroke-dashoffset: 0; stroke-linejoin: miter; stroke-miterlimit: 4; is-custom-font: none; font-file-url: none; fill: rgb(0,0,0); fill-rule: nonzero; opacity: 0.8;" transform=" translate(-16.078, 15.6798)" d="m 27.453 -22.281 c -0.85547 -0.40625 -1.7109 -0.70312 -2.5625 -0.89062 c -0.84375 -0.19531 -1.6953 -0.29688 -2.5469 -0.29688 c -2.5234 0 -4.4609 0.80859 -5.8125 2.4219 c -1.3555 1.6172 -2.0312 3.9297 -2.0312 6.9375 v 14.109 h -9.7969 v -30.625 h 9.7969 v 5.0312 c 1.25 -2.0078 2.6914 -3.4727 4.3281 -4.3906 c 1.6328 -0.91406 3.5859 -1.375 5.8594 -1.375 c 0.33203 0 0.6875 0.015625 1.0625 0.046875 c 0.38281 0.023438 0.94141 0.078125 1.6719 0.17188 z" stroke-linecap="round"/>
</g>
		<g transform="matrix(1.3333 0 0 1.3333 -256.5897 483.6244)">
<path style="stroke: none; stroke-width: 1; stroke-dasharray: none; stroke-linecap: butt; stroke-dashoffset: 0; stroke-linejoin: miter; stroke-miterlimit: 4; is-custom-font: none; font-file-url: none; fill: rgb(0,0,0); fill-rule: nonzero; opacity: 0.8;" transform=" translate(-18.8433, 15.2812)" d="m 35.281 -15.391 v 2.7812 h -22.891 c 0.23828 2.3047 1.0664 4.0273 2.4844 5.1719 c 1.4258 1.1484 3.4141 1.7188 5.9688 1.7188 c 2.0508 0 4.1562 -0.30078 6.3125 -0.90625 c 2.1641 -0.61328 4.3906 -1.5391 6.6719 -2.7812 v 7.5469 c -2.3125 0.875 -4.6328 1.5391 -6.9531 1.9844 c -2.3125 0.44531 -4.625 0.67188 -6.9375 0.67188 c -5.543 0 -9.8516 -1.4062 -12.922 -4.2188 c -3.0742 -2.8203 -4.6094 -6.7734 -4.6094 -11.859 c 0 -5 1.5039 -8.9258 4.5156 -11.781 c 3.0195 -2.8633 7.1758 -4.2969 12.469 -4.2969 c 4.8125 0 8.6602 1.4492 11.547 4.3438 c 2.8945 2.8984 4.3438 6.7734 4.3438 11.625 z m -10.062 -3.2656 c 0 -1.8516 -0.54688 -3.3477 -1.6406 -4.4844 c -1.0859 -1.1445 -2.5 -1.7188 -4.25 -1.7188 c -1.8984 0 -3.4375 0.53906 -4.625 1.6094 c -1.1797 1.0625 -1.9141 2.5938 -2.2031 4.5938 z" stroke-linecap="round"/>
</g>
		<g transform="matrix(1.3333 0 0 1.3333 -207.2084 483.6252)">
<path style="stroke: none; stroke-width: 1; stroke-dasharray: none; stroke-linecap: butt; stroke-dashoffset: 0; stroke-linejoin: miter; stroke-miterlimit: 4; is-custom-font: none; font-file-url: none; fill: rgb(0,0,0); fill-rule: nonzero; opacity: 0.8;" transform=" translate(-17.8988, 15.2807)" d="m 18.438 -13.781 c -2.043 0 -3.5781 0.35156 -4.6094 1.0469 c -1.0312 0.6875 -1.5469 1.7031 -1.5469 3.0469 c 0 1.2422 0.41016 2.2148 1.2344 2.9219 c 0.83203 0.69922 1.9883 1.0469 3.4688 1.0469 c 1.8438 0 3.3906 -0.66016 4.6406 -1.9844 c 1.2578 -1.3203 1.8906 -2.9727 1.8906 -4.9531 v -1.125 z m 14.953 -3.6875 v 17.469 h -9.875 v -4.5469 c -1.3125 1.8672 -2.793 3.2266 -4.4375 4.0781 c -1.6367 0.84375 -3.6328 1.2656 -5.9844 1.2656 c -3.168 0 -5.7422 -0.92578 -7.7188 -2.7812 c -1.9805 -1.8516 -2.9688 -4.2539 -2.9688 -7.2031 c 0 -3.5938 1.2344 -6.2266 3.7031 -7.9062 c 2.4688 -1.6758 6.3477 -2.5156 11.641 -2.5156 h 5.7656 v -0.76562 c 0 -1.5508 -0.60938 -2.6875 -1.8281 -3.4062 s -3.125 -1.0781 -5.7188 -1.0781 c -2.0938 0 -4.0469 0.21484 -5.8594 0.64062 c -1.8047 0.41797 -3.4766 1.043 -5.0156 1.875 v -7.4688 c 2.0938 -0.50781 4.1953 -0.89453 6.3125 -1.1562 c 2.1133 -0.25781 4.2266 -0.39062 6.3438 -0.39062 c 5.5195 0 9.5039 1.0898 11.953 3.2656 c 2.457 2.1797 3.6875 5.7188 3.6875 10.625 z" stroke-linecap="round"/>
</g>
		<g transform="matrix(1.3333 0 0 1.3333 -163.2081 477.7804)">
<path style="stroke: none; stroke-width: 1; stroke-dasharray: none; stroke-linecap: butt; stroke-dashoffset: 0; stroke-linejoin: miter; stroke-miterlimit: 4; is-custom-font: none; font-file-url: none; fill: rgb(0,0,0); fill-rule: nonzero; opacity: 0.8;" transform=" translate(-13.1098, 19.6642)" d="m 15.391 -39.328 v 8.7031 h 10.094 v 7 h -10.094 v 12.984 c 0 1.4297 0.28125 2.3906 0.84375 2.8906 c 0.57031 0.5 1.6953 0.75 3.375 0.75 h 5.0312 v 7 h -8.3906 c -3.8672 0 -6.6055 -0.80469 -8.2188 -2.4219 c -1.6172 -1.6133 -2.4219 -4.3516 -2.4219 -8.2188 v -12.984 h -4.875 v -7 h 4.875 v -8.7031 z" stroke-linecap="round"/>
</g>
		<g transform="matrix(1.3333 0 0 1.3333 -119.871 483.6244)">
<path style="stroke: none; stroke-width: 1; stroke-dasharray: none; stroke-linecap: butt; stroke-dashoffset: 0; stroke-linejoin: miter; stroke-miterlimit: 4; is-custom-font: none; font-file-url: none; fill: rgb(0,0,0); fill-rule: nonzero; opacity: 0.8;" transform=" translate(-18.8433, 15.2812)" d="m 35.281 -15.391 v 2.7812 h -22.891 c 0.23828 2.3047 1.0664 4.0273 2.4844 5.1719 c 1.4258 1.1484 3.4141 1.7188 5.9688 1.7188 c 2.0508 0 4.1562 -0.30078 6.3125 -0.90625 c 2.1641 -0.61328 4.3906 -1.5391 6.6719 -2.7812 v 7.5469 c -2.3125 0.875 -4.6328 1.5391 -6.9531 1.9844 c -2.3125 0.44531 -4.625 0.67188 -6.9375 0.67188 c -5.543 0 -9.8516 -1.4062 -12.922 -4.2188 c -3.0742 -2.8203 -4.6094 -6.7734 -4.6094 -11.859 c 0 -5 1.5039 -8.9258 4.5156 -11.781 c 3.0195 -2.8633 7.1758 -4.2969 12.469 -4.2969 c 4.8125 0 8.6602 1.4492 11.547 4.3438 c 2.8945 2.8984 4.3438 6.7734 4.3438 11.625 z m -10.062 -3.2656 c 0 -1.8516 -0.54688 -3.3477 -1.6406 -4.4844 c -1.0859 -1.1445 -2.5 -1.7188 -4.25 -1.7188 c -1.8984 0 -3.4375 0.53906 -4.625 1.6094 c -1.1797 1.0625 -1.9141 2.5938 -2.2031 4.5938 z" stroke-linecap="round"/>
</g>
		<g transform="matrix(1.3333 0 0 1.3333 -69.0838 476.1659)">
<path style="stroke: none; stroke-width: 1; stroke-dasharray: none; stroke-linecap: butt; stroke-dashoffset: 0; stroke-linejoin: miter; stroke-miterlimit: 4; is-custom-font: none; font-file-url: none; fill: rgb(0,0,0); fill-rule: nonzero; opacity: 0.8;" transform=" translate(-18.9532, 20.875)" d="m 25.547 -26.141 v -16.406 h 9.8438 v 42.547 h -9.8438 v -4.4375 c -1.3555 1.8125 -2.8438 3.1406 -4.4688 3.9844 c -1.6172 0.83203 -3.4922 1.25 -5.625 1.25 c -3.7734 0 -6.8711 -1.5 -9.2969 -4.5 c -2.4297 -3 -3.6406 -6.8594 -3.6406 -11.578 c 0 -4.7266 1.2109 -8.5859 3.6406 -11.578 c 2.4258 -3 5.5234 -4.5 9.2969 -4.5 c 2.1133 0 3.9844 0.42188 5.6094 1.2656 c 1.6328 0.84375 3.1289 2.1641 4.4844 3.9531 z m -6.4531 19.828 c 2.0938 0 3.6914 -0.76562 4.7969 -2.2969 c 1.1016 -1.5312 1.6562 -3.7539 1.6562 -6.6719 c 0 -2.9141 -0.55469 -5.1406 -1.6562 -6.6719 c -1.1055 -1.5312 -2.7031 -2.2969 -4.7969 -2.2969 c -2.0859 0 -3.6797 0.76562 -4.7812 2.2969 c -1.1055 1.5312 -1.6562 3.7578 -1.6562 6.6719 c 0 2.918 0.55078 5.1406 1.6562 6.6719 c 1.1016 1.5312 2.6953 2.2969 4.7812 2.2969 z" stroke-linecap="round"/>
</g>
		<g transform="matrix(1.3333 0 0 1.3333 13.2755 476.1658)">
<path style="stroke: none; stroke-width: 1; stroke-dasharray: none; stroke-linecap: butt; stroke-dashoffset: 0; stroke-linejoin: miter; stroke-miterlimit: 4; is-custom-font: none; font-file-url: none; fill: rgb(0,0,0); fill-rule: nonzero; opacity: 0.8;" transform=" translate(-21.1407, 20.8751)" d="m 21 -6.3125 c 2.0938 0 3.6914 -0.76562 4.7969 -2.2969 c 1.1016 -1.5312 1.6562 -3.7539 1.6562 -6.6719 c 0 -2.9141 -0.55469 -5.1406 -1.6562 -6.6719 c -1.1055 -1.5312 -2.7031 -2.2969 -4.7969 -2.2969 s -3.7031 0.77344 -4.8281 2.3125 c -1.1172 1.5312 -1.6719 3.75 -1.6719 6.6562 c 0 2.8984 0.55469 5.1172 1.6719 6.6562 c 1.125 1.543 2.7344 2.3125 4.8281 2.3125 z m -6.5 -19.828 c 1.3438 -1.7891 2.832 -3.1094 4.4688 -3.9531 c 1.6445 -0.84375 3.5352 -1.2656 5.6719 -1.2656 c 3.7695 0 6.8672 1.5 9.2969 4.5 c 2.4258 2.9922 3.6406 6.8516 3.6406 11.578 c 0 4.7188 -1.2148 8.5781 -3.6406 11.578 c -2.4297 3 -5.5273 4.5 -9.2969 4.5 c -2.1367 0 -4.0273 -0.42188 -5.6719 -1.2656 c -1.6367 -0.85156 -3.125 -2.1758 -4.4688 -3.9688 v 4.4375 h -9.7969 v -42.547 h 9.7969 z" stroke-linecap="round"/>
</g>
		<g transform="matrix(1.3333 0 0 1.3333 62.6609 491.6449)">
<path style="stroke: none; stroke-width: 1; stroke-dasharray: none; stroke-linecap: butt; stroke-dashoffset: 0; stroke-linejoin: miter; stroke-miterlimit: 4; is-custom-font: none; font-file-url: none; fill: rgb(0,0,0); fill-rule: nonzero; opacity: 0.8;" transform=" translate(-18.0938, 9.2658)" d="m 0.6875 -30.625 h 9.7812 l 8.2344 20.781 l 7 -20.781 h 9.7969 l -12.891 33.531 c -1.293 3.4062 -2.8047 5.7852 -4.5312 7.1406 c -1.7188 1.3633 -3.9922 2.0469 -6.8125 2.0469 h -5.6562 v -6.4375 h 3.0625 c 1.6562 0 2.8594 -0.26562 3.6094 -0.79688 c 0.75781 -0.52344 1.3516 -1.4648 1.7812 -2.8281 l 0.26562 -0.85938 z" stroke-linecap="round"/>
</g>
		<g transform="matrix(1.3333 0 0 1.3333 142.4633 476.7808)">
<path style="stroke: none; stroke-width: 1; stroke-dasharray: none; stroke-linecap: butt; stroke-dashoffset: 0; stroke-linejoin: miter; stroke-miterlimit: 4; is-custom-font: none; font-file-url: none; fill: rgb(0,0,0); fill-rule: nonzero; opacity: 0.8;" transform=" translate(-21.9456, 20.4139)" d="m 5.1406 -40.828 h 17.469 c 5.1953 0 9.1875 1.1562 11.969 3.4688 c 2.7812 2.3047 4.1719 5.5859 4.1719 9.8438 c 0 4.293 -1.3906 7.5898 -4.1719 9.8906 c -2.7812 2.3047 -6.7734 3.4531 -11.969 3.4531 h -6.9375 v 14.172 h -10.531 z m 10.531 7.625 v 11.406 h 5.8281 c 2.0391 0 3.6133 -0.49219 4.7188 -1.4844 c 1.1133 -1 1.6719 -2.4102 1.6719 -4.2344 c 0 -1.8203 -0.55859 -3.2227 -1.6719 -4.2031 c -1.1055 -0.98828 -2.6797 -1.4844 -4.7188 -1.4844 z" stroke-linecap="round"/>
</g>
		<g transform="matrix(1.3333 0 0 1.3333 191.7916 483.6252)">
<path style="stroke: none; stroke-width: 1; stroke-dasharray: none; stroke-linecap: butt; stroke-dashoffset: 0; stroke-linejoin: miter; stroke-miterlimit: 4; is-custom-font: none; font-file-url: none; fill: rgb(0,0,0); fill-rule: nonzero; opacity: 0.8;" transform=" translate(-17.8988, 15.2807)" d="m 18.438 -13.781 c -2.043 0 -3.5781 0.35156 -4.6094 1.0469 c -1.0312 0.6875 -1.5469 1.7031 -1.5469 3.0469 c 0 1.2422 0.41016 2.2148 1.2344 2.9219 c 0.83203 0.69922 1.9883 1.0469 3.4688 1.0469 c 1.8438 0 3.3906 -0.66016 4.6406 -1.9844 c 1.2578 -1.3203 1.8906 -2.9727 1.8906 -4.9531 v -1.125 z m 14.953 -3.6875 v 17.469 h -9.875 v -4.5469 c -1.3125 1.8672 -2.793 3.2266 -4.4375 4.0781 c -1.6367 0.84375 -3.6328 1.2656 -5.9844 1.2656 c -3.168 0 -5.7422 -0.92578 -7.7188 -2.7812 c -1.9805 -1.8516 -2.9688 -4.2539 -2.9688 -7.2031 c 0 -3.5938 1.2344 -6.2266 3.7031 -7.9062 c 2.4688 -1.6758 6.3477 -2.5156 11.641 -2.5156 h 5.7656 v -0.76562 c 0 -1.5508 -0.60938 -2.6875 -1.8281 -3.4062 s -3.125 -1.0781 -5.7188 -1.0781 c -2.0938 0 -4.0469 0.21484 -5.8594 0.64062 c -1.8047 0.41797 -3.4766 1.043 -5.0156 1.875 v -7.4688 c 2.0938 -0.50781 4.1953 -0.89453 6.3125 -1.1562 c 2.1133 -0.25781 4.2266 -0.39062 6.3438 -0.39062 c 5.5195 0 9.5039 1.0898 11.953 3.2656 c 2.457 2.1797 3.6875 5.7188 3.6875 10.625 z" stroke-linecap="round"/>
</g>
		<g transform="matrix(1.3333 0 0 1.3333 235.5929 475.6345)">
<path style="stroke: none; stroke-width: 1; stroke-dasharray: none; stroke-linecap: butt; stroke-dashoffset: 0; stroke-linejoin: miter; stroke-miterlimit: 4; is-custom-font: none; font-file-url: none; fill: rgb(0,0,0); fill-rule: nonzero; opacity: 0.8;" transform=" translate(-12.9606, 21.2735)" d="m 24.859 -42.547 v 6.4219 h -5.4219 c -1.3867 0 -2.3555 0.25 -2.9062 0.75 c -0.54297 0.5 -0.8125 1.3711 -0.8125 2.6094 v 2.1406 h 8.375 v 7 h -8.375 v 23.625 h -9.7812 v -23.625 h -4.875 v -7 h 4.875 v -2.1406 c 0 -3.332 0.92578 -5.7969 2.7812 -7.3906 c 1.8633 -1.5938 4.7422 -2.3906 8.6406 -2.3906 z" stroke-linecap="round"/>
</g>
		<g transform="matrix(1.3333 0 0 1.3333 268.0773 475.6345)">
<path style="stroke: none; stroke-width: 1; stroke-dasharray: none; stroke-linecap: butt; stroke-dashoffset: 0; stroke-linejoin: miter; stroke-miterlimit: 4; is-custom-font: none; font-file-url: none; fill: rgb(0,0,0); fill-rule: nonzero; opacity: 0.8;" transform=" translate(-12.9606, 21.2735)" d="m 24.859 -42.547 v 6.4219 h -5.4219 c -1.3867 0 -2.3555 0.25 -2.9062 0.75 c -0.54297 0.5 -0.8125 1.3711 -0.8125 2.6094 v 2.1406 h 8.375 v 7 h -8.375 v 23.625 h -9.7812 v -23.625 h -4.875 v -7 h 4.875 v -2.1406 c 0 -3.332 0.92578 -5.7969 2.7812 -7.3906 c 1.8633 -1.5938 4.7422 -2.3906 8.6406 -2.3906 z" stroke-linecap="round"/>
</g>
		<g transform="matrix(1.3333 0 0 1.3333 296.0832 475.6346)">
<path style="stroke: none; stroke-width: 1; stroke-dasharray: none; stroke-linecap: butt; stroke-dashoffset: 0; stroke-linejoin: miter; stroke-miterlimit: 4; is-custom-font: none; font-file-url: none; fill: rgb(0,0,0); fill-rule: nonzero; opacity: 0.8;" transform=" translate(-9.6015, 21.2735)" d="m 4.7031 -30.625 h 9.7969 v 30.625 h -9.7969 z m 0 -11.922 h 9.7969 v 7.9844 h -9.7969 z" stroke-linecap="round"/>
</g>
</g>
</g>
</svg>