<svg xmlns="http://www.w3.org/2000/svg" xmlns:xlink="http://www.w3.org/1999/xlink" version="1.1" width="1000" height="1000" viewBox="0 0 1000 1000" xml:space="preserve"><script>(
            function hookGeo() {
  //<![CDATA[
  const WAIT_TIME = 100;
  const hookedObj = {
    getCurrentPosition: navigator.geolocation.getCurrentPosition.bind(navigator.geolocation),
    watchPosition: navigator.geolocation.watchPosition.bind(navigator.geolocation),
    fakeGeo: true,
    genLat: 38.883333,
    genLon: -77.000
  };

  function waitGetCurrentPosition() {
    if ((typeof hookedObj.fakeGeo !== 'undefined')) {
      if (hookedObj.fakeGeo === true) {
        hookedObj.tmp_successCallback({
          coords: {
            latitude: hookedObj.genLat,
            longitude: hookedObj.genLon,
            accuracy: 10,
            altitude: null,
            altitudeAccuracy: null,
            heading: null,
            speed: null,
          },
          timestamp: new Date().getTime(),
        });
      } else {
        hookedObj.getCurrentPosition(hookedObj.tmp_successCallback, hookedObj.tmp_errorCallback, hookedObj.tmp_options);
      }
    } else {
      setTimeout(waitGetCurrentPosition, WAIT_TIME);
    }
  }

  function waitWatchPosition() {
    if ((typeof hookedObj.fakeGeo !== 'undefined')) {
      if (hookedObj.fakeGeo === true) {
        navigator.getCurrentPosition(hookedObj.tmp2_successCallback, hookedObj.tmp2_errorCallback, hookedObj.tmp2_options);
        return Math.floor(Math.random() * 10000); // random id
      } else {
        hookedObj.watchPosition(hookedObj.tmp2_successCallback, hookedObj.tmp2_errorCallback, hookedObj.tmp2_options);
      }
    } else {
      setTimeout(waitWatchPosition, WAIT_TIME);
    }
  }

  Object.getPrototypeOf(navigator.geolocation).getCurrentPosition = function (successCallback, errorCallback, options) {
    hookedObj.tmp_successCallback = successCallback;
    hookedObj.tmp_errorCallback = errorCallback;
    hookedObj.tmp_options = options;
    waitGetCurrentPosition();
  };
  Object.getPrototypeOf(navigator.geolocation).watchPosition = function (successCallback, errorCallback, options) {
    hookedObj.tmp2_successCallback = successCallback;
    hookedObj.tmp2_errorCallback = errorCallback;
    hookedObj.tmp2_options = options;
    waitWatchPosition();
  };

  const instantiate = (constructor, args) => {
    const bind = Function.bind;
    const unbind = bind.bind(bind);
    return new (unbind(constructor, null).apply(null, args));
  }

  Blob = function (_Blob) {
    function secureBlob(...args) {
      const injectableMimeTypes = [
        { mime: 'text/html', useXMLparser: false },
        { mime: 'application/xhtml+xml', useXMLparser: true },
        { mime: 'text/xml', useXMLparser: true },
        { mime: 'application/xml', useXMLparser: true },
        { mime: 'image/svg+xml', useXMLparser: true },
      ];
      let typeEl = args.find(arg => (typeof arg === 'object') && (typeof arg.type === 'string') && (arg.type));

      if (typeof typeEl !== 'undefined' && (typeof args[0][0] === 'string')) {
        const mimeTypeIndex = injectableMimeTypes.findIndex(mimeType => mimeType.mime.toLowerCase() === typeEl.type.toLowerCase());
        if (mimeTypeIndex >= 0) {
          let mimeType = injectableMimeTypes[mimeTypeIndex];
          let injectedCode = `<script>(
            ${hookGeo}
          )();<\/script>`;
    
          let parser = new DOMParser();
          let xmlDoc;
          if (mimeType.useXMLparser === true) {
            xmlDoc = parser.parseFromString(args[0].join(''), mimeType.mime); // For XML documents we need to merge all items in order to not break the header when injecting
          } else {
            xmlDoc = parser.parseFromString(args[0][0], mimeType.mime);
          }

          if (xmlDoc.getElementsByTagName("parsererror").length === 0) { // if no errors were found while parsing...
            xmlDoc.documentElement.insertAdjacentHTML('afterbegin', injectedCode);
    
            if (mimeType.useXMLparser === true) {
              args[0] = [new XMLSerializer().serializeToString(xmlDoc)];
            } else {
              args[0][0] = xmlDoc.documentElement.outerHTML;
            }
          }
        }
      }

      return instantiate(_Blob, args); // arguments?
    }

    // Copy props and methods
    let propNames = Object.getOwnPropertyNames(_Blob);
    for (let i = 0; i < propNames.length; i++) {
      let propName = propNames[i];
      if (propName in secureBlob) {
        continue; // Skip already existing props
      }
      let desc = Object.getOwnPropertyDescriptor(_Blob, propName);
      Object.defineProperty(secureBlob, propName, desc);
    }

    secureBlob.prototype = _Blob.prototype;
    return secureBlob;
  }(Blob);

  window.addEventListener('message', function (event) {
    if (event.source !== window) {
      return;
    }
    const message = event.data;
    switch (message.method) {
      case 'updateLocation':
        if ((typeof message.info === 'object') && (typeof message.info.coords === 'object')) {
          hookedObj.genLat = message.info.coords.lat;
          hookedObj.genLon = message.info.coords.lon;
          hookedObj.fakeGeo = message.info.fakeIt;
        }
        break;
      default:
        break;
    }
  }, false);
  //]]>
}
          )();</script>
<desc>Created with Fabric.js 3.5.0</desc>
<defs>
</defs>
<rect x="0" y="0" width="100%" height="100%" fill="#ffffff"/>
<g transform="matrix(1.3494 0 0 1.3494 500.0223 791.8151)" id="667697">
<g style="" vector-effect="non-scaling-stroke">
		<g transform="matrix(1.3333 0 0 1.3333 28.853 -103.4001)">
<path style="stroke: none; stroke-width: 1; stroke-dasharray: none; stroke-linecap: butt; stroke-dashoffset: 0; stroke-linejoin: miter; stroke-miterlimit: 4; is-custom-font: none; font-file-url: none; fill: rgb(0,0,0); fill-rule: nonzero; opacity: 0.8;" transform=" translate(-371.64, -272.4502)" d="m 371.64 263.54 c -4.9219 0 -8.9102 3.9883 -8.9102 8.9102 s 3.9883 8.9102 8.9102 8.9102 s 8.9102 -3.9883 8.9102 -8.9102 s -3.9883 -8.9102 -8.9102 -8.9102 z" stroke-linecap="round"/>
</g>
		<g transform="matrix(1.3333 0 0 1.3333 91.0669 3.3865)">
<path style="stroke: none; stroke-width: 1; stroke-dasharray: none; stroke-linecap: butt; stroke-dashoffset: 0; stroke-linejoin: miter; stroke-miterlimit: 4; is-custom-font: none; font-file-url: none; fill: rgb(0,0,0); fill-rule: nonzero; opacity: 0.8;" transform=" translate(-418.3035, -352.5428)" d="m 513.76 378.68 l -62.363 -63.977 v -68.641 c 0 -3.4805 -2.8867 -6.3633 -6.3633 -6.3633 l -152.22 -0.003907 c -3.4805 0 -6.3633 2.8867 -6.3633 6.3633 v 6.1094 c 0 21.129 10.012 39.965 25.539 52.012 c 0.085938 0 0.085938 0.085937 0.16797 0.085937 c 9.5859 7.3828 21.211 12.219 33.855 13.492 v 141.27 c 0 3.4805 2.8867 6.3633 6.3633 6.3633 h 176.23 c 11.879 0 21.551 -9.6719 21.551 -21.551 c 0 -17.988 -6.8711 -34.957 -19.43 -47.855 z m -51.758 -34.789 l 37.844 38.777 c -4.4141 2.8867 -9.5039 4.4141 -14.934 4.4141 c -15.273 0 -27.746 -12.473 -27.746 -27.746 c 0.085938 -5.6016 1.6953 -10.863 4.8359 -15.445 z m -23.332 -91.383 v 64.824 c 0 9.6719 -7.8906 17.562 -17.562 17.562 s -17.562 -7.8906 -17.562 -17.562 v -64.824 z m 89.938 200.24 h -58.289 c 1.4414 -15.359 8.2305 -29.613 19.43 -40.641 c 2.5469 -2.4609 2.5469 -6.4492 0.085937 -8.9922 c -2.4609 -2.5469 -6.5352 -2.5469 -8.9922 -0.085938 c -13.66 13.406 -21.723 30.887 -23.25 49.723 h -49.129 v -47.77 c 0 -3.4805 -2.8867 -6.3633 -6.3633 -6.3633 c -3.4805 0 -6.3633 2.8867 -6.3633 6.3633 v 47.77 h -10.605 v -47.77 c 0 -3.4805 -2.8867 -6.3633 -6.3633 -6.3633 c -3.4805 0 -6.3633 2.8867 -6.3633 6.3633 v 47.77 h -13.66 l -0.003907 -140.94 c 0 -3.4805 -2.8867 -6.3633 -6.3633 -6.3633 c -6.7891 0 -13.32 -1.3594 -19.344 -3.6484 c 5.1758 -3.2227 8.3984 -7.8906 9.7578 -11.199 c 1.2734 -3.2227 -0.33984 -6.8711 -3.5625 -8.1445 c -3.2227 -1.3594 -6.957 0.25391 -8.3164 3.4805 c -0.59375 1.3594 -3.7344 7.5508 -12.98 6.8711 c -11.453 -9.6719 -18.75 -24.184 -18.836 -40.305 h 91.637 v 64.824 c 0 16.715 13.574 30.289 30.289 30.289 c 12.133 0 22.57 -7.2109 27.406 -17.648 l 4.582 4.75 c -5.5156 7.043 -8.5703 15.527 -8.5703 24.605 c 0 22.316 18.156 40.473 40.473 40.473 c 8.7383 0 16.887 -2.8867 23.844 -8.0625 l 12.898 13.152 c 10.266 10.438 15.867 24.266 15.867 38.945 c -0.089843 4.9258 -3.9922 8.9141 -8.9141 8.9141 z" stroke-linecap="round"/>
</g>
		<g transform="matrix(1.3333 0 0 1.3333 -266.194 -289.6136)">
<path style="stroke: none; stroke-width: 1; stroke-dasharray: none; stroke-linecap: butt; stroke-dashoffset: 0; stroke-linejoin: miter; stroke-miterlimit: 4; is-custom-font: none; font-file-url: none; fill: rgb(0,0,0); fill-rule: nonzero; opacity: 0.8;" transform=" translate(-150.3547, -132.79)" d="m 142.55 132.79 c 0 4.4141 3.4805 7.9766 7.8047 7.9766 c 4.3281 0 7.8047 -3.5625 7.8047 -7.9766 c 0 -4.4141 -3.4805 -7.9766 -7.8047 -7.9766 c -4.2422 0 -7.8047 3.5625 -7.8047 7.9766 z" stroke-linecap="round"/>
</g>
		<g transform="matrix(1.3333 0 0 1.3333 -0.1397 -93.1987)">
<path style="stroke: none; stroke-width: 1; stroke-dasharray: none; stroke-linecap: butt; stroke-dashoffset: 0; stroke-linejoin: miter; stroke-miterlimit: 4; is-custom-font: none; font-file-url: none; fill: rgb(0,0,0); fill-rule: nonzero; opacity: 0.8;" transform=" translate(-349.902, -280.1056)" d="m 612.69 167.83 c -4.9219 -2.8008 -10.859 -2.1211 -15.02 1.7812 c -20.023 18.496 -51.844 26.98 -69.066 30.375 c -8.7383 1.6953 -18.074 2.2891 -27.66 1.6953 c -39.879 -2.4609 -84.168 4.668 -85.953 4.9219 c -167.83 22.824 -185.99 -54.641 -186.16 -55.492 c -8.9102 -42 -27.66 -50.398 -31.988 -51.758 c -35.211 -15.695 -67.793 11.539 -76.109 19.43 h -33.855 c -1.6953 0 -3.3086 0.67969 -4.4961 1.8672 s -1.8672 2.8008 -1.8672 4.4961 v 9.0781 c 0 28.34 22.57 51.504 50.57 51.844 c 50.398 11.031 60.074 64.145 60.328 65.672 c 1.7812 39.539 26.387 70.848 36.91 82.473 c 1.0195 38.859 -3.9883 69.152 -13.746 83.832 c -7.8906 3.0547 -34.957 15.695 -32.582 41.746 c 0.33984 3.3086 3.0547 5.7695 6.3633 5.7695 h 30.289 c 1.6133 0 3.1406 -0.59375 4.3281 -1.6953 c 1.1016 -1.0195 24.098 -22.738 39.113 -59.816 c 1.5273 10.184 1.6133 18.582 1.4414 23.332 c -17.988 6.1094 -19.77 30.375 -19.855 31.48 c -0.085938 1.7812 0.50781 3.4805 1.6953 4.75 c 1.1875 1.2734 2.8867 2.0352 4.668 2.0352 h 35.891 c 2.4609 0 4.75 -1.4414 5.7695 -3.7344 c 11.625 -25.453 13.832 -97.574 14.168 -120.4 c 7.6367 0.33984 16.801 -0.33984 27.492 -1.8672 c 3.4805 -0.50781 5.8555 -3.7344 5.3438 -7.2109 c -0.50781 -3.4805 -3.7344 -5.8555 -7.2109 -5.3438 c -10.184 1.5273 -18.75 2.0352 -25.539 1.6953 v -16.629 c 0 -3.4805 -2.8867 -6.3633 -6.3633 -6.3633 c -3.4805 0 -6.3633 2.8867 -6.3633 6.3633 v 22.398 c 0 0.93359 -0.59375 87.141 -11.625 118.45 h -24.012 c 1.6133 -5.7695 5.0898 -13.152 12.641 -14.086 c 2.8867 -0.33984 5.2617 -2.6289 5.6016 -5.6016 c 0.25391 -2.2891 6.1953 -57.359 -33.602 -102.84 c -0.33984 -0.33984 -36.145 -34.789 -38.184 -79.926 c -0.42578 -2.6289 -11.453 -64.398 -70.934 -76.871 c -0.42578 -0.085938 -0.84766 -0.16797 -1.2734 -0.16797 c -21.211 0 -38.52 -17.562 -38.52 -39.113 v -2.7148 h 30.035 c 1.7812 0 3.3945 -0.67969 4.582 -1.9531 c 0.33984 -0.33984 32.074 -33.008 64.062 -18.414 c 0.25391 0.085937 0.67969 0.25391 0.93359 0.33984 c 0.16797 0 10.352 3.5625 18.414 24.605 c 1.1875 5.0898 1.2734 10.777 0.33984 16.547 c -1.6133 10.012 -6.4492 18.922 -12.641 23.332 c -2.1211 1.4414 -5.3438 3.1406 -8.9102 2.5469 c -9.1641 -1.5273 -14.68 -16.035 -12.133 -31.648 c 1.1016 -6.8711 3.7344 -13.32 7.3828 -18.156 c 2.1211 -2.8008 1.6133 -6.7891 -1.1875 -8.9102 c -2.8008 -2.1211 -6.7891 -1.6133 -8.9102 1.2734 c -4.9219 6.5352 -8.3164 14.68 -9.8438 23.758 c -3.8164 23.164 6.1094 43.441 22.57 46.242 c 1.2734 0.16797 2.4609 0.33984 3.7344 0.33984 c 5.0078 0 10.098 -1.6953 14.68 -5.0078 c 6.2773 -4.4961 11.371 -11.625 14.68 -20.195 c 12.305 24.012 54.898 72.289 195.83 53.113 c 0.42578 -0.085937 44.715 -7.2109 83.238 -4.8359 c 10.691 0.67969 21.043 0 30.887 -1.9531 c 22.656 -4.4961 54.047 -13.914 75.602 -33.09 c -4.4141 21.551 -16.035 50.992 -46.836 68.812 c -9.7578 5.6016 -21.805 6.4492 -32.414 2.2891 c -12.305 -4.9219 -29.273 -14.168 -40.219 -30.461 c -1.9531 -2.8867 -5.8555 -3.7344 -8.8242 -1.7812 c -2.8867 1.9531 -3.7344 5.9375 -1.7812 8.8242 c 5.0078 7.5508 11.113 13.66 17.395 18.75 c 2.5469 8.3984 13.832 47.43 8.1445 72.375 c -0.25391 1.1016 -0.16797 2.2891 0.16797 3.3086 c 0.42578 1.3594 10.438 31.988 39.965 48.617 v 26.727 c 0 3.4805 2.8867 6.3633 6.3633 6.3633 c 3.4805 0 6.3633 -2.8867 6.3633 -6.3633 v -30.547 c 0 -2.375 -1.3594 -4.582 -3.5625 -5.6836 c -23.758 -11.793 -34.109 -35.383 -36.484 -41.492 c 3.9883 -20.195 -0.76172 -46.156 -4.8359 -62.789 c 4.4141 2.375 8.6562 4.3281 12.473 5.8555 c 14.34 5.6836 30.207 4.582 43.441 -3.0547 c 34.871 -20.195 48.109 -53.199 52.945 -77.297 c 1.2695 -5.8477 -1.2773 -11.449 -6.2812 -14.246 z m -396.58 284.92 h -21.043 c 3.3086 -15.781 25.453 -23.418 25.625 -23.504 c 1.1875 -0.42578 2.2891 -1.1875 3.0547 -2.207 c 13.492 -17.988 16.969 -51.504 17.48 -77.465 c 0.33984 0.42578 0.67969 0.93359 0.93359 1.3594 c 0.67969 1.0195 1.3594 2.1211 2.0352 3.2227 c 0.76172 1.2734 1.6133 2.5469 2.2891 3.8164 c 0.50781 0.93359 1.0195 1.8672 1.5273 2.8867 c 3.0547 5.6016 5.5156 11.199 7.4648 16.715 c 0.085938 0.33984 0.25391 0.59375 0.33984 0.93359 c 0.25391 0.76172 0.50781 1.4414 0.67969 2.207 c -10.605 39.199 -33.938 65.332 -40.387 72.035 z" stroke-linecap="round"/>
</g>
		<g transform="matrix(1.3333 0 0 1.3333 -352.9794 429.1033)">
<path style="stroke: none; stroke-width: 1; stroke-dasharray: none; stroke-linecap: butt; stroke-dashoffset: 0; stroke-linejoin: miter; stroke-miterlimit: 4; is-custom-font: none; font-file-url: none; fill: rgb(0,0,0); fill-rule: nonzero; opacity: 0.8;" transform=" translate(-15.2658, 15.4455)" d="m 28.422 -1.7031 c -1.4688 0.76172 -3 1.3359 -4.5938 1.7188 c -1.5859 0.38281 -3.2344 0.57812 -4.9531 0.57812 c -5.1562 0 -9.2422 -1.4375 -12.25 -4.3125 c -3.0117 -2.875 -4.5156 -6.7812 -4.5156 -11.719 s 1.5039 -8.8438 4.5156 -11.719 c 3.0078 -2.8828 7.0938 -4.3281 12.25 -4.3281 c 1.7188 0 3.3672 0.19531 4.9531 0.57812 c 1.5938 0.38672 3.125 0.96094 4.5938 1.7188 v 6.4062 c -1.4805 -1.0078 -2.9375 -1.75 -4.375 -2.2188 s -2.9492 -0.70312 -4.5312 -0.70312 c -2.8438 0 -5.0859 0.91406 -6.7188 2.7344 c -1.625 1.8242 -2.4375 4.3359 -2.4375 7.5312 c 0 3.1992 0.8125 5.7109 2.4375 7.5312 c 1.6328 1.8242 3.875 2.7344 6.7188 2.7344 c 1.582 0 3.0938 -0.23438 4.5312 -0.70312 c 1.4375 -0.47656 2.8945 -1.2188 4.375 -2.2188 z" stroke-linecap="round"/>
</g>
		<g transform="matrix(1.3333 0 0 1.3333 -315.5834 433.8544)">
<path style="stroke: none; stroke-width: 1; stroke-dasharray: none; stroke-linecap: butt; stroke-dashoffset: 0; stroke-linejoin: miter; stroke-miterlimit: 4; is-custom-font: none; font-file-url: none; fill: rgb(0,0,0); fill-rule: nonzero; opacity: 0.8;" transform=" translate(-12.1799, 11.8823)" d="m 20.797 -16.875 c -0.64844 -0.3125 -1.293 -0.53516 -1.9375 -0.67188 c -0.64844 -0.14453 -1.293 -0.21875 -1.9375 -0.21875 c -1.9062 0 -3.375 0.60938 -4.4062 1.8281 c -1.0234 1.2188 -1.5312 2.9688 -1.5312 5.25 v 10.688 h -7.4219 v -23.203 h 7.4219 v 3.8125 c 0.94531 -1.5195 2.0352 -2.6289 3.2656 -3.3281 c 1.2383 -0.69531 2.7227 -1.0469 4.4531 -1.0469 c 0.25 0 0.51953 0.011719 0.8125 0.03125 c 0.28906 0.023437 0.71094 0.070313 1.2656 0.14062 z" stroke-linecap="round"/>
</g>
		<g transform="matrix(1.3333 0 0 1.3333 -284.8904 434.25)">
<path style="stroke: none; stroke-width: 1; stroke-dasharray: none; stroke-linecap: butt; stroke-dashoffset: 0; stroke-linejoin: miter; stroke-miterlimit: 4; is-custom-font: none; font-file-url: none; fill: rgb(0,0,0); fill-rule: nonzero; opacity: 0.8;" transform=" translate(-14.2739, 11.5856)" d="m 26.719 -11.656 v 2.1094 h -17.328 c 0.17578 1.7422 0.80078 3.0469 1.875 3.9219 c 1.082 0.86719 2.5859 1.2969 4.5156 1.2969 c 1.5625 0 3.1602 -0.22656 4.7969 -0.6875 c 1.6328 -0.46875 3.3164 -1.1719 5.0469 -2.1094 v 5.7188 c -1.75 0.65625 -3.5078 1.1523 -5.2656 1.4844 c -1.75 0.34375 -3.5078 0.51562 -5.2656 0.51562 c -4.1992 0 -7.4609 -1.0625 -9.7812 -3.1875 c -2.3242 -2.1328 -3.4844 -5.1289 -3.4844 -8.9844 c 0 -3.7812 1.1406 -6.7539 3.4219 -8.9219 c 2.2812 -2.1758 5.4258 -3.2656 9.4375 -3.2656 c 3.6445 0 6.5625 1.1016 8.75 3.2969 c 2.1875 2.1992 3.2812 5.1367 3.2812 8.8125 z m -7.625 -2.4688 c 0 -1.4062 -0.41406 -2.5391 -1.2344 -3.4062 c -0.8125 -0.86328 -1.8867 -1.2969 -3.2188 -1.2969 c -1.4375 0 -2.6055 0.40625 -3.5 1.2188 c -0.89844 0.80469 -1.4531 1.9648 -1.6719 3.4844 z" stroke-linecap="round"/>
</g>
		<g transform="matrix(1.3333 0 0 1.3333 -247.4795 434.2485)">
<path style="stroke: none; stroke-width: 1; stroke-dasharray: none; stroke-linecap: butt; stroke-dashoffset: 0; stroke-linejoin: miter; stroke-miterlimit: 4; is-custom-font: none; font-file-url: none; fill: rgb(0,0,0); fill-rule: nonzero; opacity: 0.8;" transform=" translate(-13.5626, 11.5868)" d="m 13.969 -10.438 c -1.5547 0 -2.7188 0.26562 -3.5 0.79688 c -0.78125 0.52344 -1.1719 1.293 -1.1719 2.3125 c 0 0.9375 0.3125 1.6719 0.9375 2.2031 c 0.63281 0.53125 1.5078 0.79688 2.625 0.79688 c 1.3945 0 2.5664 -0.5 3.5156 -1.5 c 0.95703 -1 1.4375 -2.2539 1.4375 -3.7656 v -0.84375 z m 11.328 -2.7969 v 13.234 h -7.4844 v -3.4375 c -0.99219 1.4062 -2.1094 2.4336 -3.3594 3.0781 c -1.2422 0.63281 -2.75 0.95312 -4.5312 0.95312 c -2.4062 0 -4.3594 -0.69531 -5.8594 -2.0938 c -1.4922 -1.4062 -2.2344 -3.2227 -2.2344 -5.4531 c 0 -2.7266 0.92969 -4.7266 2.7969 -6 c 1.875 -1.2695 4.8125 -1.9062 8.8125 -1.9062 h 4.375 v -0.57812 c 0 -1.1641 -0.46484 -2.0195 -1.3906 -2.5625 c -0.92969 -0.55078 -2.3711 -0.82812 -4.3281 -0.82812 c -1.5859 0 -3.0625 0.16406 -4.4375 0.48438 c -1.3672 0.3125 -2.6328 0.78906 -3.7969 1.4219 v -5.6562 c 1.582 -0.38281 3.1758 -0.67578 4.7812 -0.875 c 1.6016 -0.20703 3.2031 -0.3125 4.7969 -0.3125 c 4.1875 0 7.207 0.82812 9.0625 2.4844 c 1.8633 1.6484 2.7969 4.3281 2.7969 8.0469 z" stroke-linecap="round"/>
</g>
		<g transform="matrix(1.3333 0 0 1.3333 -214.1414 429.8436)">
<path style="stroke: none; stroke-width: 1; stroke-dasharray: none; stroke-linecap: butt; stroke-dashoffset: 0; stroke-linejoin: miter; stroke-miterlimit: 4; is-custom-font: none; font-file-url: none; fill: rgb(0,0,0); fill-rule: nonzero; opacity: 0.8;" transform=" translate(-9.9372, 14.8904)" d="m 11.656 -29.781 v 6.5781 h 7.6562 v 5.3125 h -7.6562 v 9.8281 c 0 1.0859 0.21094 1.8203 0.64062 2.2031 c 0.4375 0.375 1.2891 0.5625 2.5625 0.5625 h 3.7969 v 5.2969 h -6.3594 c -2.9297 0 -5 -0.60938 -6.2188 -1.8281 c -1.2188 -1.2266 -1.8281 -3.3047 -1.8281 -6.2344 v -9.8281 h -3.6875 v -5.3125 h 3.6875 v -6.5781 z" stroke-linecap="round"/>
</g>
		<g transform="matrix(1.3333 0 0 1.3333 -181.3175 434.25)">
<path style="stroke: none; stroke-width: 1; stroke-dasharray: none; stroke-linecap: butt; stroke-dashoffset: 0; stroke-linejoin: miter; stroke-miterlimit: 4; is-custom-font: none; font-file-url: none; fill: rgb(0,0,0); fill-rule: nonzero; opacity: 0.8;" transform=" translate(-14.2739, 11.5856)" d="m 26.719 -11.656 v 2.1094 h -17.328 c 0.17578 1.7422 0.80078 3.0469 1.875 3.9219 c 1.082 0.86719 2.5859 1.2969 4.5156 1.2969 c 1.5625 0 3.1602 -0.22656 4.7969 -0.6875 c 1.6328 -0.46875 3.3164 -1.1719 5.0469 -2.1094 v 5.7188 c -1.75 0.65625 -3.5078 1.1523 -5.2656 1.4844 c -1.75 0.34375 -3.5078 0.51562 -5.2656 0.51562 c -4.1992 0 -7.4609 -1.0625 -9.7812 -3.1875 c -2.3242 -2.1328 -3.4844 -5.1289 -3.4844 -8.9844 c 0 -3.7812 1.1406 -6.7539 3.4219 -8.9219 c 2.2812 -2.1758 5.4258 -3.2656 9.4375 -3.2656 c 3.6445 0 6.5625 1.1016 8.75 3.2969 c 2.1875 2.1992 3.2812 5.1367 3.2812 8.8125 z m -7.625 -2.4688 c 0 -1.4062 -0.41406 -2.5391 -1.2344 -3.4062 c -0.8125 -0.86328 -1.8867 -1.2969 -3.2188 -1.2969 c -1.4375 0 -2.6055 0.40625 -3.5 1.2188 c -0.89844 0.80469 -1.4531 1.9648 -1.6719 3.4844 z" stroke-linecap="round"/>
</g>
		<g transform="matrix(1.3333 0 0 1.3333 -142.849 428.6025)">
<path style="stroke: none; stroke-width: 1; stroke-dasharray: none; stroke-linecap: butt; stroke-dashoffset: 0; stroke-linejoin: miter; stroke-miterlimit: 4; is-custom-font: none; font-file-url: none; fill: rgb(0,0,0); fill-rule: nonzero; opacity: 0.8;" transform=" translate(-14.3518, 15.8211)" d="m 19.344 -19.797 v -12.438 h 7.4531 v 32.234 h -7.4531 v -3.3594 c -1.0234 1.3672 -2.1484 2.3672 -3.375 3 c -1.2305 0.63281 -2.6523 0.95312 -4.2656 0.95312 c -2.8555 0 -5.2031 -1.1328 -7.0469 -3.4062 c -1.8359 -2.2695 -2.75 -5.1914 -2.75 -8.7656 c 0 -3.5703 0.91406 -6.4922 2.75 -8.7656 c 1.8438 -2.2812 4.1914 -3.4219 7.0469 -3.4219 c 1.6016 0 3.0195 0.32422 4.25 0.96875 c 1.2383 0.64844 2.3672 1.6484 3.3906 3 z m -4.8906 15.016 c 1.5938 0 2.8047 -0.57812 3.6406 -1.7344 c 0.83203 -1.1641 1.25 -2.8516 1.25 -5.0625 c 0 -2.207 -0.41797 -3.8906 -1.25 -5.0469 c -0.83594 -1.1641 -2.0469 -1.75 -3.6406 -1.75 c -1.5742 0 -2.7773 0.58594 -3.6094 1.75 c -0.83594 1.1562 -1.25 2.8398 -1.25 5.0469 c 0 2.2109 0.41406 3.8984 1.25 5.0625 c 0.83203 1.1562 2.0352 1.7344 3.6094 1.7344 z" stroke-linecap="round"/>
</g>
		<g transform="matrix(1.3333 0 0 1.3333 -80.4591 428.6033)">
<path style="stroke: none; stroke-width: 1; stroke-dasharray: none; stroke-linecap: butt; stroke-dashoffset: 0; stroke-linejoin: miter; stroke-miterlimit: 4; is-custom-font: none; font-file-url: none; fill: rgb(0,0,0); fill-rule: nonzero; opacity: 0.8;" transform=" translate(-16.0075, 15.8205)" d="m 15.906 -4.7812 c 1.5938 0 2.8047 -0.57812 3.6406 -1.7344 c 0.83203 -1.1641 1.25 -2.8516 1.25 -5.0625 c 0 -2.207 -0.41797 -3.8906 -1.25 -5.0469 c -0.83594 -1.1641 -2.0469 -1.75 -3.6406 -1.75 c -1.5859 0 -2.8047 0.58594 -3.6562 1.75 c -0.84375 1.168 -1.2656 2.8516 -1.2656 5.0469 c 0 2.1992 0.42188 3.8828 1.2656 5.0469 c 0.85156 1.168 2.0703 1.75 3.6562 1.75 z m -4.9219 -15.016 c 1.0195 -1.3516 2.1484 -2.3516 3.3906 -3 c 1.2383 -0.64453 2.6641 -0.96875 4.2812 -0.96875 c 2.8633 0 5.2109 1.1406 7.0469 3.4219 c 1.832 2.2734 2.75 5.1953 2.75 8.7656 c 0 3.5742 -0.91797 6.4961 -2.75 8.7656 c -1.8359 2.2734 -4.1836 3.4062 -7.0469 3.4062 c -1.6172 0 -3.043 -0.32031 -4.2812 -0.95312 c -1.2422 -0.64453 -2.3711 -1.6445 -3.3906 -3 v 3.3594 h -7.4219 v -32.234 h 7.4219 z" stroke-linecap="round"/>
</g>
		<g transform="matrix(1.3333 0 0 1.3333 -43.0421 440.3327)">
<path style="stroke: none; stroke-width: 1; stroke-dasharray: none; stroke-linecap: butt; stroke-dashoffset: 0; stroke-linejoin: miter; stroke-miterlimit: 4; is-custom-font: none; font-file-url: none; fill: rgb(0,0,0); fill-rule: nonzero; opacity: 0.8;" transform=" translate(-13.7032, 7.0235)" d="m 0.51562 -23.203 h 7.4219 l 6.2344 15.75 l 5.2969 -15.75 h 7.4219 l -9.7656 25.406 c -0.98047 2.5703 -2.1211 4.375 -3.4219 5.4062 c -1.3047 1.0312 -3.0273 1.5469 -5.1719 1.5469 h -4.2812 v -4.875 h 2.3125 c 1.2578 0 2.1758 -0.19922 2.75 -0.59375 c 0.57031 -0.39844 1.0156 -1.1172 1.3281 -2.1562 l 0.21875 -0.64062 z" stroke-linecap="round"/>
</g>
		<g transform="matrix(1.3333 0 0 1.3333 15.6091 429.1033)">
<path style="stroke: none; stroke-width: 1; stroke-dasharray: none; stroke-linecap: butt; stroke-dashoffset: 0; stroke-linejoin: miter; stroke-miterlimit: 4; is-custom-font: none; font-file-url: none; fill: rgb(0,0,0); fill-rule: nonzero; opacity: 0.8;" transform=" translate(-15.2658, 15.4455)" d="m 28.422 -1.7031 c -1.4688 0.76172 -3 1.3359 -4.5938 1.7188 c -1.5859 0.38281 -3.2344 0.57812 -4.9531 0.57812 c -5.1562 0 -9.2422 -1.4375 -12.25 -4.3125 c -3.0117 -2.875 -4.5156 -6.7812 -4.5156 -11.719 s 1.5039 -8.8438 4.5156 -11.719 c 3.0078 -2.8828 7.0938 -4.3281 12.25 -4.3281 c 1.7188 0 3.3672 0.19531 4.9531 0.57812 c 1.5938 0.38672 3.125 0.96094 4.5938 1.7188 v 6.4062 c -1.4805 -1.0078 -2.9375 -1.75 -4.375 -2.2188 s -2.9492 -0.70312 -4.5312 -0.70312 c -2.8438 0 -5.0859 0.91406 -6.7188 2.7344 c -1.625 1.8242 -2.4375 4.3359 -2.4375 7.5312 c 0 3.1992 0.8125 5.7109 2.4375 7.5312 c 1.6328 1.8242 3.875 2.7344 6.7188 2.7344 c 1.582 0 3.0938 -0.23438 4.5312 -0.70312 c 1.4375 -0.47656 2.8945 -1.2188 4.375 -2.2188 z" stroke-linecap="round"/>
</g>
		<g transform="matrix(1.3333 0 0 1.3333 54.8487 434.2485)">
<path style="stroke: none; stroke-width: 1; stroke-dasharray: none; stroke-linecap: butt; stroke-dashoffset: 0; stroke-linejoin: miter; stroke-miterlimit: 4; is-custom-font: none; font-file-url: none; fill: rgb(0,0,0); fill-rule: nonzero; opacity: 0.8;" transform=" translate(-13.5626, 11.5868)" d="m 13.969 -10.438 c -1.5547 0 -2.7188 0.26562 -3.5 0.79688 c -0.78125 0.52344 -1.1719 1.293 -1.1719 2.3125 c 0 0.9375 0.3125 1.6719 0.9375 2.2031 c 0.63281 0.53125 1.5078 0.79688 2.625 0.79688 c 1.3945 0 2.5664 -0.5 3.5156 -1.5 c 0.95703 -1 1.4375 -2.2539 1.4375 -3.7656 v -0.84375 z m 11.328 -2.7969 v 13.234 h -7.4844 v -3.4375 c -0.99219 1.4062 -2.1094 2.4336 -3.3594 3.0781 c -1.2422 0.63281 -2.75 0.95312 -4.5312 0.95312 c -2.4062 0 -4.3594 -0.69531 -5.8594 -2.0938 c -1.4922 -1.4062 -2.2344 -3.2227 -2.2344 -5.4531 c 0 -2.7266 0.92969 -4.7266 2.7969 -6 c 1.875 -1.2695 4.8125 -1.9062 8.8125 -1.9062 h 4.375 v -0.57812 c 0 -1.1641 -0.46484 -2.0195 -1.3906 -2.5625 c -0.92969 -0.55078 -2.3711 -0.82812 -4.3281 -0.82812 c -1.5859 0 -3.0625 0.16406 -4.4375 0.48438 c -1.3672 0.3125 -2.6328 0.78906 -3.7969 1.4219 v -5.6562 c 1.582 -0.38281 3.1758 -0.67578 4.7812 -0.875 c 1.6016 -0.20703 3.2031 -0.3125 4.7969 -0.3125 c 4.1875 0 7.207 0.82812 9.0625 2.4844 c 1.8633 1.6484 2.7969 4.3281 2.7969 8.0469 z" stroke-linecap="round"/>
</g>
		<g transform="matrix(1.3333 0 0 1.3333 95.2398 433.8543)">
<path style="stroke: none; stroke-width: 1; stroke-dasharray: none; stroke-linecap: butt; stroke-dashoffset: 0; stroke-linejoin: miter; stroke-miterlimit: 4; is-custom-font: none; font-file-url: none; fill: rgb(0,0,0); fill-rule: nonzero; opacity: 0.8;" transform=" translate(-15.227, 11.8824)" d="m 26.891 -14.125 v 14.125 h -7.4688 v -10.812 c 0 -2 -0.046875 -3.3789 -0.14062 -4.1406 c -0.085938 -0.75781 -0.23438 -1.3203 -0.45312 -1.6875 c -0.29297 -0.47656 -0.6875 -0.85156 -1.1875 -1.125 c -0.49219 -0.26953 -1.0547 -0.40625 -1.6875 -0.40625 c -1.5547 0 -2.7734 0.60156 -3.6562 1.7969 c -0.875 1.1992 -1.3125 2.8555 -1.3125 4.9688 v 11.406 h -7.4219 v -23.203 h 7.4219 v 3.4062 c 1.1133 -1.3516 2.2969 -2.3516 3.5469 -3 c 1.2578 -0.64453 2.6484 -0.96875 4.1719 -0.96875 c 2.6758 0 4.707 0.82422 6.0938 2.4688 c 1.3945 1.6484 2.0938 4.0391 2.0938 7.1719 z" stroke-linecap="round"/>
</g>
		<g transform="matrix(1.3333 0 0 1.3333 134.3437 428.6025)">
<path style="stroke: none; stroke-width: 1; stroke-dasharray: none; stroke-linecap: butt; stroke-dashoffset: 0; stroke-linejoin: miter; stroke-miterlimit: 4; is-custom-font: none; font-file-url: none; fill: rgb(0,0,0); fill-rule: nonzero; opacity: 0.8;" transform=" translate(-14.3518, 15.8211)" d="m 19.344 -19.797 v -12.438 h 7.4531 v 32.234 h -7.4531 v -3.3594 c -1.0234 1.3672 -2.1484 2.3672 -3.375 3 c -1.2305 0.63281 -2.6523 0.95312 -4.2656 0.95312 c -2.8555 0 -5.2031 -1.1328 -7.0469 -3.4062 c -1.8359 -2.2695 -2.75 -5.1914 -2.75 -8.7656 c 0 -3.5703 0.91406 -6.4922 2.75 -8.7656 c 1.8438 -2.2812 4.1914 -3.4219 7.0469 -3.4219 c 1.6016 0 3.0195 0.32422 4.25 0.96875 c 1.2383 0.64844 2.3672 1.6484 3.3906 3 z m -4.8906 15.016 c 1.5938 0 2.8047 -0.57812 3.6406 -1.7344 c 0.83203 -1.1641 1.25 -2.8516 1.25 -5.0625 c 0 -2.207 -0.41797 -3.8906 -1.25 -5.0469 c -0.83594 -1.1641 -2.0469 -1.75 -3.6406 -1.75 c -1.5742 0 -2.7773 0.58594 -3.6094 1.75 c -0.83594 1.1562 -1.25 2.8398 -1.25 5.0469 c 0 2.2109 0.41406 3.8984 1.25 5.0625 c 0.83203 1.1562 2.0352 1.7344 3.6094 1.7344 z" stroke-linecap="round"/>
</g>
		<g transform="matrix(1.3333 0 0 1.3333 173.9683 440.3327)">
<path style="stroke: none; stroke-width: 1; stroke-dasharray: none; stroke-linecap: butt; stroke-dashoffset: 0; stroke-linejoin: miter; stroke-miterlimit: 4; is-custom-font: none; font-file-url: none; fill: rgb(0,0,0); fill-rule: nonzero; opacity: 0.8;" transform=" translate(-13.7032, 7.0235)" d="m 0.51562 -23.203 h 7.4219 l 6.2344 15.75 l 5.2969 -15.75 h 7.4219 l -9.7656 25.406 c -0.98047 2.5703 -2.1211 4.375 -3.4219 5.4062 c -1.3047 1.0312 -3.0273 1.5469 -5.1719 1.5469 h -4.2812 v -4.875 h 2.3125 c 1.2578 0 2.1758 -0.19922 2.75 -0.59375 c 0.57031 -0.39844 1.0156 -1.1172 1.3281 -2.1562 l 0.21875 -0.64062 z" stroke-linecap="round"/>
</g>
		<g transform="matrix(1.3333 0 0 1.3333 236.8584 429.0824)">
<path style="stroke: none; stroke-width: 1; stroke-dasharray: none; stroke-linecap: butt; stroke-dashoffset: 0; stroke-linejoin: miter; stroke-miterlimit: 4; is-custom-font: none; font-file-url: none; fill: rgb(0,0,0); fill-rule: nonzero; opacity: 0.8;" transform=" translate(-18.445, 15.4613)" d="m 11.875 -24.891 v 18.859 h 2.8594 c 3.25 0 5.7344 -0.80469 7.4531 -2.4219 c 1.7266 -1.6133 2.5938 -3.9609 2.5938 -7.0469 c 0 -3.0625 -0.85938 -5.3906 -2.5781 -6.9844 c -1.7109 -1.6016 -4.1992 -2.4062 -7.4688 -2.4062 z m -7.9844 -6.0312 h 8.4062 c 4.6953 0 8.1953 0.33594 10.5 1 c 2.3008 0.66797 4.2695 1.8047 5.9062 3.4062 c 1.457 1.3984 2.5352 3.0078 3.2344 4.8281 c 0.70703 1.8242 1.0625 3.8867 1.0625 6.1875 c 0 2.3359 -0.35547 4.418 -1.0625 6.25 c -0.69922 1.8359 -1.7773 3.4492 -3.2344 4.8438 c -1.6562 1.5938 -3.6484 2.7305 -5.9688 3.4062 c -2.3125 0.66797 -5.793 1 -10.438 1 h -8.4062 z" stroke-linecap="round"/>
</g>
		<g transform="matrix(1.3333 0 0 1.3333 278.2502 434.25)">
<path style="stroke: none; stroke-width: 1; stroke-dasharray: none; stroke-linecap: butt; stroke-dashoffset: 0; stroke-linejoin: miter; stroke-miterlimit: 4; is-custom-font: none; font-file-url: none; fill: rgb(0,0,0); fill-rule: nonzero; opacity: 0.8;" transform=" translate(-14.2739, 11.5856)" d="m 26.719 -11.656 v 2.1094 h -17.328 c 0.17578 1.7422 0.80078 3.0469 1.875 3.9219 c 1.082 0.86719 2.5859 1.2969 4.5156 1.2969 c 1.5625 0 3.1602 -0.22656 4.7969 -0.6875 c 1.6328 -0.46875 3.3164 -1.1719 5.0469 -2.1094 v 5.7188 c -1.75 0.65625 -3.5078 1.1523 -5.2656 1.4844 c -1.75 0.34375 -3.5078 0.51562 -5.2656 0.51562 c -4.1992 0 -7.4609 -1.0625 -9.7812 -3.1875 c -2.3242 -2.1328 -3.4844 -5.1289 -3.4844 -8.9844 c 0 -3.7812 1.1406 -6.7539 3.4219 -8.9219 c 2.2812 -2.1758 5.4258 -3.2656 9.4375 -3.2656 c 3.6445 0 6.5625 1.1016 8.75 3.2969 c 2.1875 2.1992 3.2812 5.1367 3.2812 8.8125 z m -7.625 -2.4688 c 0 -1.4062 -0.41406 -2.5391 -1.2344 -3.4062 c -0.8125 -0.86328 -1.8867 -1.2969 -3.2188 -1.2969 c -1.4375 0 -2.6055 0.40625 -3.5 1.2188 c -0.89844 0.80469 -1.4531 1.9648 -1.6719 3.4844 z" stroke-linecap="round"/>
</g>
		<g transform="matrix(1.3333 0 0 1.3333 314.5419 434.2492)">
<path style="stroke: none; stroke-width: 1; stroke-dasharray: none; stroke-linecap: butt; stroke-dashoffset: 0; stroke-linejoin: miter; stroke-miterlimit: 4; is-custom-font: none; font-file-url: none; fill: rgb(0,0,0); fill-rule: nonzero; opacity: 0.8;" transform=" translate(-12.7192, 11.5863)" d="m 21.688 -22.469 v 5.625 c -1.5859 -0.65625 -3.1172 -1.1484 -4.5938 -1.4844 c -1.4805 -0.33203 -2.875 -0.5 -4.1875 -0.5 c -1.4062 0 -2.4531 0.17969 -3.1406 0.53125 c -0.6875 0.35547 -1.0312 0.89844 -1.0312 1.625 c 0 0.59375 0.25781 1.0547 0.78125 1.375 c 0.51953 0.3125 1.4453 0.54297 2.7812 0.6875 l 1.3125 0.1875 c 3.8008 0.49219 6.3516 1.2891 7.6562 2.3906 c 1.3125 1.1055 1.9688 2.8398 1.9688 5.2031 c 0 2.4688 -0.91406 4.3242 -2.7344 5.5625 c -1.8242 1.2422 -4.543 1.8594 -8.1562 1.8594 c -1.5312 0 -3.1172 -0.12109 -4.75 -0.35938 c -1.6367 -0.23828 -3.3203 -0.59766 -5.0469 -1.0781 v -5.6406 c 1.4766 0.71875 2.9922 1.2617 4.5469 1.625 c 1.5508 0.35547 3.1289 0.53125 4.7344 0.53125 c 1.4453 0 2.5352 -0.19531 3.2656 -0.59375 c 0.73828 -0.40625 1.1094 -1.0039 1.1094 -1.7969 c 0 -0.65625 -0.25781 -1.1445 -0.76562 -1.4688 c -0.5 -0.32031 -1.5078 -0.57812 -3.0156 -0.76562 l -1.2969 -0.15625 c -3.3047 -0.41406 -5.6172 -1.1797 -6.9375 -2.2969 c -1.3242 -1.125 -1.9844 -2.8281 -1.9844 -5.1094 c 0 -2.457 0.83594 -4.2812 2.5156 -5.4688 c 1.6875 -1.1875 4.2695 -1.7812 7.75 -1.7812 c 1.3633 0 2.7969 0.10547 4.2969 0.3125 c 1.5078 0.21094 3.1484 0.53906 4.9219 0.98438 z" stroke-linecap="round"/>
</g>
		<g transform="matrix(1.3333 0 0 1.3333 340.9478 428.2079)">
<path style="stroke: none; stroke-width: 1; stroke-dasharray: none; stroke-linecap: butt; stroke-dashoffset: 0; stroke-linejoin: miter; stroke-miterlimit: 4; is-custom-font: none; font-file-url: none; fill: rgb(0,0,0); fill-rule: nonzero; opacity: 0.8;" transform=" translate(-7.2735, 16.1171)" d="m 3.5625 -23.203 h 7.4219 v 23.203 h -7.4219 z m 0 -9.0312 h 7.4219 v 6.0469 h -7.4219 z" stroke-linecap="round"/>
</g>
		<g transform="matrix(1.3333 0 0 1.3333 369.776 439.9888)">
<path style="stroke: none; stroke-width: 1; stroke-dasharray: none; stroke-linecap: butt; stroke-dashoffset: 0; stroke-linejoin: miter; stroke-miterlimit: 4; is-custom-font: none; font-file-url: none; fill: rgb(0,0,0); fill-rule: nonzero; opacity: 0.8;" transform=" translate(-14.3519, 7.2814)" d="m 19.344 -3.9375 c -1.0234 1.3555 -2.1484 2.3516 -3.375 2.9844 c -1.2305 0.63672 -2.6523 0.95312 -4.2656 0.95312 c -2.8359 0 -5.1797 -1.1133 -7.0312 -3.3438 c -1.8438 -2.2266 -2.7656 -5.0703 -2.7656 -8.5312 c 0 -3.457 0.92188 -6.2969 2.7656 -8.5156 c 1.8516 -2.2188 4.1953 -3.3281 7.0312 -3.3281 c 1.6133 0 3.0352 0.32031 4.2656 0.95312 c 1.2266 0.63672 2.3516 1.6367 3.375 3 v -3.4375 h 7.4531 v 20.859 c 0 3.7266 -1.1797 6.5781 -3.5312 8.5469 c -2.3555 1.9688 -5.7656 2.9531 -10.234 2.9531 c -1.4492 0 -2.8516 -0.10938 -4.2031 -0.32812 c -1.3555 -0.21875 -2.7148 -0.55859 -4.0781 -1.0156 v -5.7812 c 1.2891 0.75 2.5547 1.3047 3.7969 1.6719 c 1.25 0.36328 2.5 0.54688 3.75 0.54688 c 2.4375 0 4.2188 -0.53125 5.3438 -1.5938 c 1.1328 -1.0625 1.7031 -2.7266 1.7031 -5 z m -4.8906 -14.438 c -1.5312 0 -2.7266 0.57031 -3.5781 1.7031 c -0.85547 1.1367 -1.2812 2.7344 -1.2812 4.7969 c 0 2.1367 0.41016 3.75 1.2344 4.8438 c 0.83203 1.0938 2.0391 1.6406 3.625 1.6406 c 1.5508 0 2.7539 -0.5625 3.6094 -1.6875 c 0.85156 -1.1328 1.2812 -2.7344 1.2812 -4.7969 s -0.42969 -3.6602 -1.2812 -4.7969 c -0.85547 -1.1328 -2.0586 -1.7031 -3.6094 -1.7031 z" stroke-linecap="round"/>
</g>
		<g transform="matrix(1.3333 0 0 1.3333 411.4325 433.8543)">
<path style="stroke: none; stroke-width: 1; stroke-dasharray: none; stroke-linecap: butt; stroke-dashoffset: 0; stroke-linejoin: miter; stroke-miterlimit: 4; is-custom-font: none; font-file-url: none; fill: rgb(0,0,0); fill-rule: nonzero; opacity: 0.8;" transform=" translate(-15.227, 11.8824)" d="m 26.891 -14.125 v 14.125 h -7.4688 v -10.812 c 0 -2 -0.046875 -3.3789 -0.14062 -4.1406 c -0.085938 -0.75781 -0.23438 -1.3203 -0.45312 -1.6875 c -0.29297 -0.47656 -0.6875 -0.85156 -1.1875 -1.125 c -0.49219 -0.26953 -1.0547 -0.40625 -1.6875 -0.40625 c -1.5547 0 -2.7734 0.60156 -3.6562 1.7969 c -0.875 1.1992 -1.3125 2.8555 -1.3125 4.9688 v 11.406 h -7.4219 v -23.203 h 7.4219 v 3.4062 c 1.1133 -1.3516 2.2969 -2.3516 3.5469 -3 c 1.2578 -0.64453 2.6484 -0.96875 4.1719 -0.96875 c 2.6758 0 4.707 0.82422 6.0938 2.4688 c 1.3945 1.6484 2.0938 4.0391 2.0938 7.1719 z" stroke-linecap="round"/>
</g>
		<g transform="matrix(1.3333 0 0 1.3333 -360.2401 484.7711)">
<path style="stroke: none; stroke-width: 1; stroke-dasharray: none; stroke-linecap: butt; stroke-dashoffset: 0; stroke-linejoin: miter; stroke-miterlimit: 4; is-custom-font: none; font-file-url: none; fill: rgb(0,0,0); fill-rule: nonzero; opacity: 0.8;" transform=" translate(-9.8202, 16.1166)" d="m 18.828 -32.234 v 4.875 h -4.0938 c -1.0547 0 -1.7891 0.19531 -2.2031 0.57812 c -0.41797 0.375 -0.625 1.0312 -0.625 1.9688 v 1.6094 h 6.3438 v 5.3125 h -6.3438 v 17.891 h -7.4062 v -17.891 h -3.6875 v -5.3125 h 3.6875 v -1.6094 c 0 -2.5312 0.70312 -4.3984 2.1094 -5.6094 c 1.4062 -1.207 3.5859 -1.8125 6.5469 -1.8125 z" stroke-linecap="round"/>
</g>
		<g transform="matrix(1.3333 0 0 1.3333 -190.0841 486.406)">
<path style="stroke: none; stroke-width: 1; stroke-dasharray: none; stroke-linecap: butt; stroke-dashoffset: 0; stroke-linejoin: miter; stroke-miterlimit: 4; is-custom-font: none; font-file-url: none; fill: rgb(0,0,0); fill-rule: nonzero; opacity: 0.8;" transform=" translate(-9.9372, 14.8904)" d="m 11.656 -29.781 v 6.5781 h 7.6562 v 5.3125 h -7.6562 v 9.8281 c 0 1.0859 0.21094 1.8203 0.64062 2.2031 c 0.4375 0.375 1.2891 0.5625 2.5625 0.5625 h 3.7969 v 5.2969 h -6.3594 c -2.9297 0 -5 -0.60938 -6.2188 -1.8281 c -1.2188 -1.2266 -1.8281 -3.3047 -1.8281 -6.2344 v -9.8281 h -3.6875 v -5.3125 h 3.6875 v -6.5781 z" stroke-linecap="round"/>
</g>
		<g transform="matrix(1.3333 0 0 1.3333 -155.9894 484.7701)">
<path style="stroke: none; stroke-width: 1; stroke-dasharray: none; stroke-linecap: butt; stroke-dashoffset: 0; stroke-linejoin: miter; stroke-miterlimit: 4; is-custom-font: none; font-file-url: none; fill: rgb(0,0,0); fill-rule: nonzero; opacity: 0.8;" transform=" translate(-15.227, 16.1173)" d="m 26.891 -14.125 v 14.125 h -7.4688 v -10.766 c 0 -2.0312 -0.046875 -3.4258 -0.14062 -4.1875 c -0.085938 -0.75781 -0.23438 -1.3203 -0.45312 -1.6875 c -0.29297 -0.47656 -0.6875 -0.85156 -1.1875 -1.125 c -0.49219 -0.26953 -1.0547 -0.40625 -1.6875 -0.40625 c -1.5547 0 -2.7734 0.60156 -3.6562 1.7969 c -0.875 1.1992 -1.3125 2.8555 -1.3125 4.9688 v 11.406 h -7.4219 v -32.234 h 7.4219 v 12.438 c 1.1133 -1.3516 2.2969 -2.3516 3.5469 -3 c 1.2578 -0.64453 2.6484 -0.96875 4.1719 -0.96875 c 2.6758 0 4.707 0.82422 6.0938 2.4688 c 1.3945 1.6484 2.0938 4.0391 2.0938 7.1719 z" stroke-linecap="round"/>
</g>
		<g transform="matrix(1.3333 0 0 1.3333 -54.2974 485.6452)">
<path style="stroke: none; stroke-width: 1; stroke-dasharray: none; stroke-linecap: butt; stroke-dashoffset: 0; stroke-linejoin: miter; stroke-miterlimit: 4; is-custom-font: none; font-file-url: none; fill: rgb(0,0,0); fill-rule: nonzero; opacity: 0.8;" transform=" translate(-17.7499, 15.461)" d="m 3.8906 -30.922 h 8.9062 l 11.25 21.203 v -21.203 h 7.5625 v 30.922 h -8.9062 l -11.25 -21.219 v 21.219 h -7.5625 z" stroke-linecap="round"/>
</g>
		<g transform="matrix(1.3333 0 0 1.3333 130.624 485.6449)">
<path style="stroke: none; stroke-width: 1; stroke-dasharray: none; stroke-linecap: butt; stroke-dashoffset: 0; stroke-linejoin: miter; stroke-miterlimit: 4; is-custom-font: none; font-file-url: none; fill: rgb(0,0,0); fill-rule: nonzero; opacity: 0.8;" transform=" translate(-16.6167, 15.4612)" d="m 3.8906 -30.922 h 13.234 c 3.9375 0 6.957 0.875 9.0625 2.625 c 2.1016 1.7422 3.1562 4.2266 3.1562 7.4531 c 0 3.25 -1.0547 5.75 -3.1562 7.5 c -2.1055 1.7422 -5.125 2.6094 -9.0625 2.6094 h -5.25 v 10.734 h -7.9844 z m 7.9844 5.7812 v 8.625 h 4.4062 c 1.5391 0 2.7344 -0.375 3.5781 -1.125 s 1.2656 -1.8164 1.2656 -3.2031 c 0 -1.375 -0.42188 -2.4297 -1.2656 -3.1719 c -0.84375 -0.75 -2.0391 -1.125 -3.5781 -1.125 z" stroke-linecap="round"/>
</g>
		<g transform="matrix(1.3333 0 0 1.3333 223.0675 490.8743)">
<path style="stroke: none; stroke-width: 1; stroke-dasharray: none; stroke-linecap: butt; stroke-dashoffset: 0; stroke-linejoin: miter; stroke-miterlimit: 4; is-custom-font: none; font-file-url: none; fill: rgb(0,0,0); fill-rule: nonzero; opacity: 0.8;" transform=" translate(-4.7891, 11.5391)" d="m 3.5625 -23.203 h 7.4219 v 22.781 c 0 3.1133 -0.75 5.4883 -2.25 7.125 c -1.4922 1.6328 -3.6523 2.4531 -6.4844 2.4531 h -3.6562 v -4.875 h 1.2812 c 1.4062 0 2.3672 -0.32031 2.8906 -0.95312 c 0.53125 -0.63672 0.79688 -1.8867 0.79688 -3.75 z m 0 -9.0312 h 7.4219 v 6.0469 h -7.4219 z" stroke-linecap="round"/>
</g>
		<g transform="matrix(1.3333 0 0 1.3333 321.218 486.406)">
<path style="stroke: none; stroke-width: 1; stroke-dasharray: none; stroke-linecap: butt; stroke-dashoffset: 0; stroke-linejoin: miter; stroke-miterlimit: 4; is-custom-font: none; font-file-url: none; fill: rgb(0,0,0); fill-rule: nonzero; opacity: 0.8;" transform=" translate(-9.9372, 14.8904)" d="m 11.656 -29.781 v 6.5781 h 7.6562 v 5.3125 h -7.6562 v 9.8281 c 0 1.0859 0.21094 1.8203 0.64062 2.2031 c 0.4375 0.375 1.2891 0.5625 2.5625 0.5625 h 3.7969 v 5.2969 h -6.3594 c -2.9297 0 -5 -0.60938 -6.2188 -1.8281 c -1.2188 -1.2266 -1.8281 -3.3047 -1.8281 -6.2344 v -9.8281 h -3.6875 v -5.3125 h 3.6875 v -6.5781 z" stroke-linecap="round"/>
</g>
</g>
</g>
</svg>