<svg width="319" height="258" viewBox="0 0 319 258" fill="none" xmlns="http://www.w3.org/2000/svg">
<ellipse cx="113.611" cy="55.3543" rx="39.7502" ry="54" transform="rotate(-2 113.611 55.3543)" fill="#1E293B"/>
<ellipse cx="40.2502" cy="54" rx="40.2502" ry="54" transform="matrix(-0.999391 -0.0348995 -0.0348995 0.999391 246.22 2.80933)" fill="#1E293B"/>
<ellipse cx="43.5085" cy="120.434" rx="32.2654" ry="41.4938" transform="rotate(-18 43.5085 120.434)" fill="#1E293B"/>
<ellipse cx="32.2654" cy="41.4938" rx="32.2654" ry="41.4938" transform="matrix(-0.951056 -0.309017 -0.309017 0.951056 318.017 90.9412)" fill="#1E293B"/>
<path d="M256.727 233C247.227 276 215.008 245 159.227 245C103.446 245 69.7268 276 61.2268 233C57.2268 172.5 103.727 112 159.227 112C222.227 116.009 263.227 180 256.727 233Z" fill="#1E293B"/>
<circle cx="168.718" cy="167" r="32" stroke="#F1F5F9" stroke-width="6"/>
<path d="M137.07 197.706C137.8 198.377 138.487 200.363 137.189 204.4C135.977 208.169 133.287 212.729 129.307 217.058C125.327 221.386 121.008 224.449 117.354 225.973C113.44 227.604 111.403 227.086 110.674 226.415C109.944 225.744 109.257 223.758 110.555 219.722C111.767 215.952 114.457 211.392 118.437 207.064C122.417 202.735 126.736 199.672 130.39 198.149C134.304 196.517 136.34 197.035 137.07 197.706Z" stroke="#F1F5F9" stroke-width="6"/>
<path d="M138.596 197.879L145.596 190.879" stroke="#F1F5F9" stroke-width="6" stroke-linecap="round"/>
<path d="M149.218 167C149.218 167 150.718 156 157.218 151.5C163.718 147 168.718 148 168.718 148" stroke="#F1F5F9" stroke-width="6" stroke-linecap="round"/>
</svg>
