<svg width="319" height="258" viewBox="0 0 319 258" fill="none" xmlns="http://www.w3.org/2000/svg">
<ellipse cx="113.611" cy="55.3543" rx="39.7502" ry="54" transform="rotate(-2 113.611 55.3543)" fill="#1E293B"/>
<ellipse cx="40.2502" cy="54" rx="40.2502" ry="54" transform="matrix(-0.999391 -0.0348995 -0.0348995 0.999391 246.22 2.80933)" fill="#1E293B"/>
<ellipse cx="43.5085" cy="120.434" rx="32.2654" ry="41.4938" transform="rotate(-18 43.5085 120.434)" fill="#1E293B"/>
<ellipse cx="32.2654" cy="41.4938" rx="32.2654" ry="41.4938" transform="matrix(-0.951056 -0.309017 -0.309017 0.951056 318.017 90.9412)" fill="#1E293B"/>
<path d="M256.727 233C247.227 276 215.008 245 159.227 245C103.446 245 69.7268 276 61.2268 233C57.2268 172.5 103.727 112 159.227 112C222.227 116.009 263.227 180 256.727 233Z" fill="#1E293B"/>
<path d="M144.828 200V188M155.328 190V173.5M155.328 173.5V155C155.328 155 155.334 150 149.828 150C144.828 150 144.828 155 144.828 155V188M155.328 173.5C155.328 173.5 157.078 168 161.328 168C165.828 168 167.328 173.5 167.328 173.5V180M167.328 190V180M167.328 180C167.328 180 169.053 175.446 173.828 175.5C179.186 175.561 179.828 180.5 179.828 180.5V186.75M179.828 190V186.75M179.828 186.75C179.828 186.75 180.065 183.5 185.328 183.5C192.328 183.5 192.328 191.75 192.328 191.75V208C192.328 208 193.193 222.5 174.828 222.5C156.462 222.5 169.328 222.5 150.828 222.5C132.328 222.5 133.328 208 133.328 208V190C133.328 190 134.328 183.75 138.828 183.75C143.699 183.75 144.828 188 144.828 188" stroke="#F1F5F9" stroke-width="5" stroke-linecap="round"/>
<path d="M150.318 138V129" stroke="#F1F5F9" stroke-width="5" stroke-linecap="round"/>
<path d="M160.136 141.682L166.5 135.318" stroke="#F1F5F9" stroke-width="5" stroke-linecap="round"/>
<path d="M164.636 150.181H173.636" stroke="#F1F5F9" stroke-width="5" stroke-linecap="round"/>
<path d="M140.5 141.682L134.136 135.318" stroke="#F1F5F9" stroke-width="5" stroke-linecap="round"/>
<path d="M136 150.182H127" stroke="#F1F5F9" stroke-width="5" stroke-linecap="round"/>
</svg>
