<svg width="319" height="258" viewBox="0 0 319 258" fill="none" xmlns="http://www.w3.org/2000/svg">
<ellipse cx="113.611" cy="55.3543" rx="39.7502" ry="54" transform="rotate(-2 113.611 55.3543)" fill="#1E293B"/>
<ellipse cx="40.2502" cy="54" rx="40.2502" ry="54" transform="matrix(-0.999391 -0.0348995 -0.0348995 0.999391 246.22 2.80933)" fill="#1E293B"/>
<ellipse cx="43.5085" cy="120.434" rx="32.2654" ry="41.4938" transform="rotate(-18 43.5085 120.434)" fill="#1E293B"/>
<ellipse cx="32.2654" cy="41.4938" rx="32.2654" ry="41.4938" transform="matrix(-0.951056 -0.309017 -0.309017 0.951056 318.017 90.9412)" fill="#1E293B"/>
<path d="M256.727 233C247.227 276 215.008 245 159.227 245C103.446 245 69.7268 276 61.2268 233C57.2268 172.5 103.727 112 159.227 112C222.227 116.009 263.227 180 256.727 233Z" fill="#1E293B"/>
<path d="M180.5 153.5C180.5 165.166 171.254 174.5 160 174.5C148.746 174.5 139.5 165.166 139.5 153.5C139.5 141.834 148.746 132.5 160 132.5C171.254 132.5 180.5 141.834 180.5 153.5Z" stroke="#F1F5F9" stroke-width="7"/>
<path d="M185.481 183.873C191.797 189.757 196.058 198.262 197.499 208.731C197.469 214.068 196.398 217.068 195.023 218.821C193.686 220.528 191.644 221.581 188.437 222.096C185.153 222.623 181.093 222.517 176.163 222.229C175.183 222.171 174.171 222.107 173.133 222.041C169.079 221.784 164.614 221.5 160 221.5C155.386 221.5 150.921 221.784 146.867 222.041C145.829 222.107 144.817 222.171 143.837 222.229C138.907 222.517 134.847 222.623 131.563 222.096C128.356 221.581 126.314 220.528 124.977 218.821C123.608 217.075 122.539 214.092 122.501 208.795C125.88 189.662 139.588 174.5 160 174.5C170.513 174.5 179.138 177.965 185.481 183.873Z" stroke="#F1F5F9" stroke-width="7"/>
</svg>
