<svg width="319" height="258" viewBox="0 0 319 258" fill="none" xmlns="http://www.w3.org/2000/svg">
<ellipse cx="113.611" cy="55.3543" rx="39.7502" ry="54" transform="rotate(-2 113.611 55.3543)" fill="#1E293B"/>
<ellipse cx="40.2502" cy="54" rx="40.2502" ry="54" transform="matrix(-0.999391 -0.0348995 -0.0348995 0.999391 246.22 2.80933)" fill="#1E293B"/>
<ellipse cx="43.5085" cy="120.434" rx="32.2654" ry="41.4938" transform="rotate(-18 43.5085 120.434)" fill="#1E293B"/>
<ellipse cx="32.2654" cy="41.4938" rx="32.2654" ry="41.4938" transform="matrix(-0.951056 -0.309017 -0.309017 0.951056 318.017 90.9412)" fill="#1E293B"/>
<path d="M256.727 233C247.227 276 215.008 245 159.227 245C103.446 245 69.7268 276 61.2268 233C57.2268 172.5 103.727 112 159.227 112C222.227 116.009 263.227 180 256.727 233Z" fill="#1E293B"/>
<path d="M145.357 224.097L132.742 224.097C132.742 224.097 129.51 224.097 125.741 220.098C122.742 216.915 122.742 213.915 122.742 213.915L122.742 149.414C122.742 149.414 122.742 142.791 125.742 139.414C128.408 136.413 132.742 136.413 132.742 136.413L180.742 136.413C180.742 136.413 185.107 136.413 187.357 139.414C190.357 143.414 190.357 147.755 190.357 147.755L190.357 170.097" stroke="#F1F5F9" stroke-width="6" stroke-linecap="round"/>
<path d="M136.742 158.415H175.742" stroke="#F1F5F9" stroke-width="6" stroke-linecap="round"/>
<path d="M136.742 173.415H175.742" stroke="#F1F5F9" stroke-width="6" stroke-linecap="round"/>
<path d="M136.742 188.415H160.742" stroke="#F1F5F9" stroke-width="6" stroke-linecap="round"/>
<path d="M167.242 208.915C167.242 208.915 161.741 222.916 162.242 223.915C162.742 224.915 178.242 219.415 178.242 219.415L199.242 197.915C199.242 197.915 202.242 192.914 197.242 187.915C193.242 183.916 188.242 187.915 188.242 187.915L167.242 208.915Z" stroke="#F1F5F9" stroke-width="6"/>
<line x1="185.707" y1="193.507" x2="193.092" y2="201.154" stroke="#F1F5F9" stroke-width="6"/>
</svg>
