<svg width="464" height="327" viewBox="0 0 464 327" fill="none" xmlns="http://www.w3.org/2000/svg">
<path d="M464 285.121H0V285.353H464V285.121Z" fill="#A8A3B9"/>
<path d="M417.507 300.042H386.771V300.274H417.507V300.042Z" fill="#A8A3B9"/>
<path d="M307.372 302.564H299.308V302.796H307.372V302.564Z" fill="#A8A3B9"/>
<path d="M385.844 291.437H368.035V291.668H385.844V291.437Z" fill="#A8A3B9"/>
<path d="M88.7629 292.994H48.6826V293.226H88.7629V292.994Z" fill="#A8A3B9"/>
<path d="M102.905 292.994H97.0312V293.226H102.905V292.994Z" fill="#A8A3B9"/>
<path d="M208.939 296.907H122.004V297.139H208.939V296.907Z" fill="#A8A3B9"/>
<path d="M199.863 0.368748L200.643 1.95452C200.689 2.04731 200.756 2.12727 200.841 2.18718C200.925 2.2471 201.023 2.28506 201.126 2.29764L202.879 2.5573C202.995 2.57517 203.104 2.62504 203.193 2.70129C203.283 2.77754 203.349 2.87714 203.385 2.98891C203.42 3.10067 203.424 3.22017 203.395 3.33395C203.367 3.44774 203.307 3.55132 203.223 3.63303L201.961 4.87567C201.886 4.94598 201.83 5.03355 201.798 5.13062C201.766 5.22768 201.758 5.33124 201.775 5.43209L202.072 7.17551C202.094 7.29339 202.083 7.41519 202.038 7.52661C201.994 7.63803 201.918 7.73445 201.821 7.80455C201.723 7.87465 201.608 7.91552 201.488 7.92237C201.368 7.92922 201.249 7.90175 201.144 7.8432L199.576 7.01786C199.485 6.9722 199.385 6.94842 199.283 6.94842C199.182 6.94842 199.082 6.9722 198.991 7.01786L197.414 7.8432C197.309 7.90175 197.189 7.92922 197.07 7.92237C196.95 7.91552 196.834 7.87465 196.737 7.80455C196.639 7.73445 196.564 7.63803 196.52 7.52661C196.475 7.41519 196.463 7.29339 196.486 7.17551L196.792 5.43209C196.807 5.3313 196.798 5.22841 196.765 5.13174C196.733 5.03508 196.679 4.94735 196.606 4.87567L195.335 3.63303C195.25 3.55071 195.191 3.4464 195.163 3.33193C195.135 3.21746 195.139 3.09742 195.176 2.98541C195.213 2.87341 195.28 2.77392 195.37 2.69825C195.461 2.62258 195.571 2.57375 195.687 2.5573L197.441 2.29764C197.544 2.2835 197.641 2.24493 197.725 2.18519C197.809 2.12545 197.877 2.04632 197.924 1.95452L198.703 0.368748C198.755 0.258539 198.837 0.165312 198.94 0.0999998C199.042 0.0346877 199.162 0 199.283 0C199.405 0 199.524 0.0346877 199.627 0.0999998C199.73 0.165312 199.812 0.258539 199.863 0.368748Z" fill="#EAE7F5"/>
<path d="M84.3176 130.986L85.1064 132.581C85.1517 132.672 85.2184 132.751 85.3008 132.81C85.3833 132.87 85.4789 132.909 85.5797 132.924L87.3336 133.183C87.4504 133.2 87.5602 133.249 87.6506 133.324C87.741 133.4 87.8084 133.499 87.8452 133.611C87.8819 133.724 87.8864 133.844 87.8584 133.958C87.8303 134.072 87.7706 134.177 87.6862 134.259L86.4149 135.492C86.342 135.566 86.2879 135.655 86.2572 135.754C86.2265 135.852 86.2201 135.957 86.2385 136.058L86.5355 137.802C86.5578 137.919 86.546 138.041 86.5015 138.153C86.457 138.264 86.3816 138.361 86.2842 138.431C86.1868 138.501 86.0713 138.542 85.9515 138.548C85.8316 138.555 85.7123 138.528 85.6075 138.469L84.0392 137.644C83.9469 137.598 83.8452 137.574 83.7422 137.574C83.6392 137.574 83.5375 137.598 83.4453 137.644L81.8769 138.469C81.7721 138.528 81.6528 138.555 81.5329 138.548C81.4131 138.542 81.2977 138.501 81.2002 138.431C81.1028 138.361 81.0274 138.264 80.9829 138.153C80.9384 138.041 80.9266 137.919 80.9489 137.802L81.2459 136.058C81.2643 135.957 81.2579 135.852 81.2272 135.754C81.1965 135.655 81.1424 135.566 81.0696 135.492L79.8075 134.259C79.7231 134.177 79.6634 134.072 79.6353 133.958C79.6073 133.844 79.6118 133.724 79.6485 133.611C79.6853 133.499 79.7527 133.4 79.8431 133.324C79.9335 133.249 80.0433 133.2 80.1601 133.183L81.914 132.924C82.0148 132.909 82.1104 132.87 82.1929 132.81C82.2753 132.751 82.342 132.672 82.3873 132.581L83.1761 130.986C83.2272 130.877 83.3079 130.786 83.409 130.722C83.51 130.658 83.6272 130.624 83.7469 130.624C83.8665 130.624 83.9837 130.658 84.0847 130.722C84.1858 130.786 84.2665 130.877 84.3176 130.986Z" fill="#EAE7F5"/>
<path d="M69.7481 43.3516L70.5277 44.9373C70.5725 45.0297 70.6389 45.1099 70.7212 45.1713C70.8036 45.2326 70.8995 45.2732 71.0009 45.2897L72.7549 45.5401C72.8716 45.5585 72.981 45.6088 73.0709 45.6855C73.1608 45.7621 73.2277 45.8622 73.2642 45.9745C73.3007 46.0868 73.3054 46.2071 73.2777 46.3219C73.2501 46.4367 73.1912 46.5417 73.1075 46.6251L71.8361 47.8585C71.7643 47.9306 71.7101 48.0183 71.6779 48.1149C71.6457 48.2114 71.6363 48.3141 71.6505 48.4149L71.9568 50.1676C71.9791 50.2854 71.9673 50.4073 71.9228 50.5187C71.8783 50.6301 71.8029 50.7265 71.7055 50.7966C71.608 50.8667 71.4926 50.9076 71.3728 50.9144C71.2529 50.9213 71.1336 50.8938 71.0288 50.8353L69.4605 50.0099C69.3696 49.9596 69.2674 49.9332 69.1635 49.9332C69.0596 49.9332 68.9574 49.9596 68.8665 50.0099L67.2982 50.8353C67.1934 50.8938 67.0741 50.9213 66.9542 50.9144C66.8344 50.9076 66.719 50.8667 66.6215 50.7966C66.5241 50.7265 66.4487 50.6301 66.4042 50.5187C66.3597 50.4073 66.3479 50.2854 66.3702 50.1676L66.6672 48.4149C66.6862 48.314 66.6791 48.21 66.6467 48.1126C66.6142 48.0152 66.5574 47.9278 66.4816 47.8585L65.2195 46.6251C65.1325 46.5438 65.0703 46.4395 65.0401 46.3244C65.0099 46.2092 65.013 46.0879 65.0489 45.9744C65.0848 45.8609 65.1521 45.7599 65.2431 45.6831C65.334 45.6062 65.4449 45.5566 65.5629 45.5401L67.3168 45.2897C67.4193 45.2731 67.5165 45.2326 67.6003 45.1713C67.6842 45.1101 67.7524 45.0299 67.7993 44.9373L68.5789 43.3516C68.6293 43.2387 68.7113 43.1429 68.8151 43.0757C68.9188 43.0084 69.0398 42.9727 69.1635 42.9727C69.2871 42.9727 69.4082 43.0084 69.5119 43.0757C69.6157 43.1429 69.6977 43.2387 69.7481 43.3516Z" fill="#EAE7F5"/>
<path d="M140.063 83.2094L140.527 84.1367C140.555 84.1909 140.596 84.2377 140.646 84.2731C140.696 84.3086 140.754 84.3317 140.814 84.3407L141.863 84.4891C141.933 84.5003 141.998 84.5306 142.052 84.5768C142.105 84.623 142.145 84.6832 142.166 84.7506C142.187 84.818 142.189 84.89 142.172 84.9585C142.154 85.0269 142.118 85.0892 142.067 85.1383L141.315 85.8801C141.271 85.9222 141.237 85.9747 141.218 86.033C141.198 86.0913 141.194 86.1535 141.204 86.214L141.38 87.2526C141.395 87.3226 141.389 87.3954 141.364 87.4622C141.338 87.5291 141.294 87.587 141.236 87.6292C141.178 87.6713 141.109 87.6959 141.038 87.6998C140.966 87.7037 140.895 87.6869 140.833 87.6514L139.905 87.1599C139.85 87.1322 139.79 87.1177 139.729 87.1177C139.667 87.1177 139.607 87.1322 139.552 87.1599L138.624 87.6514C138.562 87.6869 138.491 87.7037 138.419 87.6998C138.348 87.6959 138.279 87.6713 138.221 87.6292C138.163 87.587 138.119 87.5291 138.093 87.4622C138.068 87.3954 138.062 87.3226 138.077 87.2526L138.253 86.214C138.264 86.1535 138.259 86.0913 138.24 86.033C138.22 85.9747 138.186 85.9222 138.142 85.8801L137.381 85.1383C137.33 85.0886 137.294 85.0256 137.277 84.9564C137.26 84.8873 137.262 84.8147 137.285 84.7471C137.307 84.6794 137.348 84.6194 137.402 84.5738C137.457 84.5282 137.524 84.4988 137.594 84.4891L138.643 84.3407C138.703 84.3317 138.761 84.3086 138.811 84.2731C138.861 84.2377 138.902 84.1909 138.931 84.1367L139.395 83.2094C139.429 83.1518 139.478 83.1041 139.537 83.071C139.595 83.0379 139.661 83.0205 139.729 83.0205C139.796 83.0205 139.862 83.0379 139.921 83.071C139.979 83.1041 140.028 83.1518 140.063 83.2094Z" fill="#EAE7F5"/>
<path d="M111.62 204.719L112.084 205.647C112.112 205.702 112.153 205.75 112.203 205.787C112.253 205.824 112.31 205.849 112.372 205.86L113.42 206.008C113.491 206.018 113.557 206.047 113.612 206.093C113.667 206.139 113.708 206.199 113.73 206.266C113.752 206.334 113.755 206.406 113.738 206.476C113.721 206.545 113.685 206.608 113.634 206.657L112.873 207.39C112.828 207.434 112.794 207.488 112.775 207.548C112.756 207.608 112.751 207.671 112.762 207.733L112.947 208.772C112.959 208.842 112.951 208.915 112.924 208.981C112.897 209.047 112.852 209.104 112.794 209.146C112.736 209.187 112.667 209.212 112.596 209.216C112.524 209.221 112.453 209.205 112.39 209.171L111.462 208.679C111.408 208.651 111.347 208.637 111.286 208.637C111.225 208.637 111.164 208.651 111.11 208.679L110.182 209.171C110.119 209.202 110.049 209.216 109.979 209.21C109.909 209.205 109.842 209.18 109.786 209.139C109.729 209.097 109.685 209.041 109.658 208.977C109.632 208.912 109.623 208.841 109.634 208.772L109.81 207.733C109.822 207.672 109.819 207.609 109.801 207.549C109.783 207.49 109.752 207.435 109.708 207.39L108.947 206.657C108.897 206.608 108.86 206.546 108.843 206.478C108.825 206.409 108.827 206.337 108.849 206.27C108.87 206.202 108.909 206.142 108.963 206.096C109.016 206.05 109.082 206.019 109.152 206.008L110.2 205.86C110.262 205.851 110.321 205.826 110.371 205.789C110.421 205.752 110.461 205.703 110.488 205.647L110.961 204.719C110.995 204.662 111.043 204.614 111.1 204.58C111.158 204.547 111.224 204.529 111.291 204.529C111.357 204.529 111.423 204.547 111.481 204.58C111.539 204.614 111.587 204.662 111.62 204.719Z" fill="#EAE7F5"/>
<path d="M403.123 1.81523L403.587 2.74258C403.614 2.79829 403.654 2.84627 403.704 2.88198C403.755 2.91769 403.813 2.93994 403.875 2.9466L404.923 3.10425C404.994 3.11396 405.06 3.1433 405.115 3.18891C405.17 3.23452 405.211 3.29457 405.233 3.36222C405.255 3.42988 405.258 3.50241 405.241 3.57157C405.224 3.64073 405.188 3.70373 405.137 3.75339L404.376 4.486C404.332 4.52856 404.299 4.58115 404.279 4.63928C404.26 4.6974 404.255 4.75935 404.264 4.81985L404.45 5.86775C404.462 5.93816 404.454 6.01059 404.427 6.07671C404.4 6.14283 404.355 6.19998 404.297 6.24161C404.239 6.28323 404.17 6.30764 404.099 6.31205C404.027 6.31645 403.956 6.30067 403.893 6.26651L402.965 5.77502C402.911 5.74732 402.85 5.73289 402.789 5.73289C402.728 5.73289 402.667 5.74732 402.613 5.77502L401.685 6.26651C401.622 6.29812 401.552 6.31185 401.482 6.30621C401.412 6.30056 401.345 6.27574 401.289 6.2345C401.232 6.19326 401.188 6.13718 401.161 6.07247C401.134 6.00776 401.126 5.93691 401.137 5.86775L401.313 4.81985C401.324 4.7601 401.321 4.69861 401.303 4.64053C401.285 4.58244 401.254 4.52945 401.211 4.486L400.432 3.76267C400.381 3.71361 400.345 3.65135 400.327 3.58287C400.31 3.51439 400.312 3.4424 400.333 3.37499C400.354 3.30757 400.394 3.24739 400.447 3.20121C400.501 3.15502 400.566 3.12466 400.636 3.11352L401.685 2.95587C401.746 2.9501 401.805 2.9282 401.856 2.89239C401.906 2.85658 401.946 2.80811 401.972 2.75186L402.446 1.82451C402.474 1.7588 402.521 1.70271 402.58 1.66298C402.64 1.62326 402.71 1.6016 402.781 1.60062C402.853 1.59964 402.923 1.61938 402.984 1.65746C403.045 1.69553 403.093 1.75033 403.123 1.81523Z" fill="#EAE7F5"/>
<path d="M395.059 176.834L395.866 178.476C395.912 178.571 395.981 178.653 396.067 178.715C396.153 178.776 396.253 178.815 396.358 178.828L398.214 179.097C398.335 179.113 398.449 179.164 398.543 179.242C398.637 179.32 398.707 179.423 398.745 179.54C398.783 179.656 398.787 179.781 398.757 179.899C398.727 180.018 398.664 180.125 398.576 180.21L397.184 181.49C397.109 181.566 397.053 181.658 397.021 181.76C396.989 181.861 396.981 181.969 396.998 182.074L397.314 183.929C397.33 184.045 397.314 184.164 397.268 184.273C397.222 184.381 397.148 184.476 397.053 184.546C396.958 184.616 396.846 184.659 396.729 184.671C396.611 184.684 396.493 184.664 396.386 184.615L394.762 183.762C394.668 183.711 394.562 183.685 394.456 183.685C394.349 183.685 394.244 183.711 394.149 183.762L392.544 184.596C392.437 184.649 392.317 184.671 392.199 184.66C392.08 184.65 391.967 184.606 391.871 184.536C391.775 184.465 391.7 184.369 391.655 184.259C391.611 184.148 391.597 184.028 391.616 183.91L391.922 182.055C391.942 181.95 391.935 181.842 391.903 181.74C391.87 181.638 391.813 181.546 391.737 181.471L390.419 180.191C390.334 180.105 390.274 179.996 390.247 179.878C390.219 179.76 390.225 179.636 390.263 179.521C390.302 179.406 390.371 179.304 390.464 179.226C390.557 179.148 390.67 179.097 390.79 179.078L392.6 178.81C392.705 178.797 392.805 178.758 392.891 178.696C392.976 178.635 393.046 178.552 393.091 178.457L393.908 176.816C393.967 176.714 394.052 176.63 394.154 176.573C394.256 176.515 394.372 176.485 394.489 176.487C394.606 176.489 394.721 176.522 394.821 176.583C394.921 176.644 395.003 176.731 395.059 176.834Z" fill="#EAE7F5"/>
<path d="M295.651 23.1357C295.651 23.3797 295.579 23.6181 295.443 23.8209C295.307 24.0238 295.115 24.1819 294.889 24.2752C294.664 24.3686 294.415 24.393 294.176 24.3454C293.937 24.2978 293.717 24.1803 293.544 24.0078C293.371 23.8354 293.254 23.6156 293.206 23.3763C293.159 23.1371 293.183 22.8891 293.277 22.6637C293.37 22.4384 293.528 22.2457 293.731 22.1102C293.934 21.9747 294.173 21.9023 294.417 21.9023C294.744 21.9023 295.058 22.0323 295.29 22.2636C295.521 22.4949 295.651 22.8086 295.651 23.1357Z" fill="#EAE7F5"/>
<path d="M331.073 262.188C331.073 262.431 331.001 262.67 330.865 262.873C330.729 263.076 330.537 263.234 330.311 263.327C330.085 263.42 329.837 263.445 329.598 263.397C329.359 263.35 329.139 263.232 328.966 263.06C328.793 262.887 328.676 262.667 328.628 262.428C328.581 262.189 328.605 261.941 328.698 261.716C328.792 261.49 328.95 261.298 329.153 261.162C329.356 261.026 329.595 260.954 329.839 260.954C330.001 260.953 330.162 260.984 330.312 261.046C330.463 261.107 330.599 261.198 330.714 261.313C330.829 261.427 330.92 261.564 330.981 261.714C331.043 261.864 331.074 262.025 331.073 262.188Z" fill="#EAE7F5"/>
<path d="M123.192 7.76001C123.192 8.80363 122.882 9.82381 122.302 10.6915C121.721 11.5593 120.897 12.2356 119.932 12.635C118.967 13.0343 117.905 13.1388 116.881 12.9352C115.857 12.7316 114.916 12.2291 114.177 11.4911C113.439 10.7532 112.936 9.813 112.732 8.78943C112.529 7.76587 112.633 6.70491 113.033 5.74074C113.432 4.77656 114.109 3.95247 114.978 3.37267C115.846 2.79287 116.867 2.4834 117.911 2.4834C119.312 2.4834 120.655 3.03932 121.645 4.02888C122.635 5.01844 123.192 6.36056 123.192 7.76001Z" fill="#EAE7F5"/>
<path d="M173.156 42.6284C176.342 43.1879 179.572 43.4641 182.807 43.4537C181.54 44.9328 179.912 46.0588 178.081 46.722C176.249 47.3851 174.277 47.5629 172.357 47.2379C170.436 46.9129 168.633 46.0962 167.122 44.8675C165.611 43.6387 164.445 42.0398 163.736 40.2266C166.8 41.2996 169.952 42.1033 173.156 42.6284Z" fill="#EAE7F5"/>
<path d="M174.798 32.8913C171.125 32.2339 167.391 31.9727 163.662 32.1123C164.592 29.6722 166.34 27.63 168.608 26.3343C170.876 25.0386 173.524 24.5695 176.1 25.0073C178.676 25.4451 181.02 26.7624 182.732 28.7346C184.444 30.7069 185.419 33.2117 185.489 35.8217C182.04 34.4664 178.456 33.484 174.798 32.8913Z" fill="#EAE7F5"/>
<path d="M191.755 39.0627C192.114 36.9417 184.567 33.899 174.9 32.2668C165.232 30.6345 157.105 31.0307 156.746 33.1518C156.387 35.2728 163.934 38.3154 173.601 39.9476C183.269 41.5799 191.397 41.1837 191.755 39.0627Z" fill="#EAE7F5"/>
<path d="M402.418 118.569C398.098 127.212 392.116 134.92 384.815 141.252C377.513 147.584 369.035 152.417 359.864 155.474C350.693 158.531 341.009 159.753 331.365 159.069C321.722 158.386 312.307 155.81 303.66 151.49C302.157 150.748 300.7 149.959 299.308 149.125C312.292 144.313 324.005 136.602 333.553 126.579C343.102 116.556 350.233 104.486 354.405 91.2905C358.576 78.0947 359.677 64.1213 357.623 50.4358C355.569 36.7504 350.414 23.7145 342.552 12.3223C354.554 13.307 366.131 17.2171 376.269 23.7102C386.407 30.2033 394.798 39.0813 400.706 49.5667C406.614 60.0521 409.859 71.8251 410.158 83.8547C410.456 95.8843 407.799 107.804 402.418 118.569Z" fill="#EAE7F5"/>
<path d="M368.75 31.9079C370.731 33.3696 372.363 35.2508 373.531 37.4167C374.699 39.5825 375.373 41.9797 375.506 44.4364C372.936 40.8876 369.831 37.7591 366.3 35.1629C362.785 32.5547 358.892 30.4971 354.756 29.061C357.154 28.4723 359.653 28.4223 362.073 28.9146C364.493 29.4069 366.773 30.4292 368.75 31.9079Z" fill="#DBD8E9"/>
<path d="M350.162 143.412C348.106 144.768 345.775 145.652 343.336 146.002C340.897 146.351 338.411 146.157 336.057 145.434C340.263 144.242 344.258 142.402 347.898 139.981C351.562 137.584 354.839 134.641 357.614 131.255C357.347 133.705 356.541 136.067 355.252 138.169C353.964 140.271 352.225 142.062 350.162 143.412Z" fill="#DBD8E9"/>
<path d="M375.525 73.3981C376.579 75.6228 377.126 78.0538 377.126 80.5155C377.126 82.9772 376.579 85.4081 375.525 87.6329C374.948 83.3008 373.696 79.0857 371.813 75.1415C369.959 71.1802 367.512 67.5246 364.556 64.3008C366.942 64.9146 369.164 66.0487 371.06 67.6215C372.956 69.1943 374.481 71.167 375.525 73.3981Z" fill="#DBD8E9"/>
<path d="M387.487 123.892C385.943 125.811 383.993 127.365 381.777 128.443C379.562 129.52 377.135 130.094 374.671 130.124C378.313 127.707 381.554 124.734 384.276 121.314C387.032 117.914 389.253 114.115 390.864 110.047C391.359 112.461 391.312 114.954 390.728 117.348C390.144 119.742 389.037 121.977 387.487 123.892Z" fill="#DBD8E9"/>
<path d="M232 327C331.373 327 411.93 322.3 411.93 316.502C411.93 310.705 331.373 306.005 232 306.005C132.628 306.005 52.0703 310.705 52.0703 316.502C52.0703 322.3 132.628 327 232 327Z" fill="#EAE7F5"/>
<path d="M236.036 53.6825L235.387 53.1724C238.31 49.463 241.382 45.9762 244.518 42.7119L245.103 43.2869C241.985 46.5233 238.932 50.0287 236.036 53.6825Z" fill="#754FFE"/>
<path d="M232.57 56.7282L229.577 60.499L230.217 61.0061L233.21 57.2353L232.57 56.7282Z" fill="#754FFE"/>
<path d="M296.959 96.702C317.125 64.3097 319.872 32.3903 305.191 22.0596C290.51 11.729 261.361 25.0642 237.632 54.9527L169.823 140.426L239.349 189.353L296.959 96.702Z" fill="#754FFE"/>
<path opacity="0.1" d="M289.025 91.12L230.004 182.807L222.784 169.017L281.406 85.3704C297.98 61.7138 307.269 40.0972 307.306 28.0602C307.305 27.8275 307.385 27.6017 307.534 27.4229C307.684 27.2442 307.891 27.1241 308.121 27.084C308.35 27.0439 308.586 27.0865 308.787 27.2042C308.988 27.3218 309.141 27.5068 309.218 27.7264C313.394 39.7356 306.156 64.5143 289.025 91.12Z" fill="white"/>
<path d="M239.308 189.332C248.694 176.011 240.737 154.259 221.536 140.749C202.334 127.238 179.159 127.085 169.773 140.406C160.387 153.727 168.344 175.478 187.545 188.988C206.747 202.499 229.922 202.653 239.308 189.332Z" fill="#754FFE"/>
<path opacity="0.5" d="M239.308 189.332C248.694 176.011 240.737 154.259 221.536 140.749C202.334 127.238 179.159 127.085 169.773 140.406C160.387 153.727 168.344 175.478 187.545 188.988C206.747 202.499 229.922 202.653 239.308 189.332Z" fill="white"/>
<path opacity="0.1" d="M232.092 125.654C216.836 114.915 199.529 111.846 188.476 116.863L171.262 138.544C181.47 127.156 203.287 127.935 221.531 140.77C239.776 153.604 247.877 173.904 240.565 187.323L255.014 164.139C256.257 151.963 247.515 136.504 232.092 125.654Z" fill="#18113C"/>
<path opacity="0.2" d="M256.526 55.75C252.295 62.4455 249.102 74.974 261.677 83.8116C274.251 92.6492 284.979 85.4437 289.851 79.1749L256.526 55.75Z" fill="#18113C"/>
<path d="M292.821 71.4594C291.383 83.4222 277.546 92.1486 263.023 81.9292C248.5 71.7098 252.054 55.7501 262.837 50.3993C269.482 47.0794 277.945 48.5447 283.736 52.5693C289.527 56.594 293.712 64.0407 292.821 71.4594Z" fill="white"/>
<path d="M264.999 79.1014C259.347 75.1323 256.452 69.9392 256.86 64.5049C257.046 62.1595 257.835 59.902 259.153 57.9519C260.47 56.0019 262.27 54.4257 264.377 53.3767C269.425 50.8543 276.571 51.6426 281.758 55.287C286.946 58.9315 290.11 65.4044 289.414 71.0056C289.138 73.3354 288.264 75.5543 286.878 77.4472C285.491 79.3401 283.638 80.8427 281.499 81.8093C276.543 84.0534 270.65 83.0797 264.999 79.1014Z" fill="#754FFE"/>
<path opacity="0.3" d="M264.999 79.1014C259.347 75.1323 256.452 69.9392 256.86 64.5049C257.046 62.1595 257.835 59.902 259.153 57.9519C260.47 56.0019 262.27 54.4257 264.377 53.3767C269.425 50.8543 276.571 51.6426 281.758 55.287C286.946 58.9315 290.11 65.4044 289.414 71.0056C289.138 73.3354 288.264 75.5543 286.878 77.4472C285.491 79.3401 283.638 80.8427 281.499 81.8093C276.543 84.0534 270.65 83.0797 264.999 79.1014Z" fill="#18113C"/>
<path d="M264.999 79.1008C259.348 75.1317 256.35 70.087 256.573 64.9124C256.669 62.7123 257.372 60.5817 258.604 58.7554C259.835 56.9292 261.547 55.4784 263.552 54.5631C268.405 52.3189 275.411 53.3019 280.599 56.9557C285.786 60.6094 289.072 66.8691 288.589 72.192C288.402 74.3895 287.609 76.4921 286.298 78.2666C284.988 80.041 283.211 81.4179 281.165 82.2445C276.404 84.2012 270.651 83.0791 264.999 79.1008Z" fill="#754FFE"/>
<path opacity="0.2" d="M264.999 79.1008C259.348 75.1317 256.35 70.087 256.573 64.9124C256.669 62.7123 257.372 60.5817 258.604 58.7554C259.835 56.9292 261.547 55.4784 263.552 54.5631C268.405 52.3189 275.411 53.3019 280.599 56.9557C285.786 60.6094 289.072 66.8691 288.589 72.192C288.402 74.3895 287.609 76.4921 286.298 78.2666C284.988 80.041 283.211 81.4179 281.165 82.2445C276.404 84.2012 270.651 83.0791 264.999 79.1008Z" fill="white"/>
<path opacity="0.3" d="M284.533 60.6193L258.41 72.137C257.115 69.9552 256.471 67.4486 256.554 64.913C256.604 63.7186 256.838 62.5392 257.25 61.4168L274.112 53.998C278.204 55.0345 281.853 57.3632 284.515 60.6379L284.533 60.6193Z" fill="white"/>
<path opacity="0.3" d="M288.283 68.0469L264.313 78.6001C262.871 77.5436 261.557 76.3237 260.396 74.9649L286.473 63.4658C287.288 64.9007 287.897 66.4428 288.283 68.0469Z" fill="white"/>
<path opacity="0.1" d="M314.415 47.395C313.617 40.9963 308.698 33.596 300.922 28.1247C293.145 22.6533 284.524 20.5204 278.223 21.9207C288.941 17.5529 298.546 17.3859 305.19 22.0598C311.835 26.7336 314.916 35.8402 314.415 47.395Z" fill="#18113C"/>
<path opacity="0.5" d="M221.521 163.248C224.445 159.098 222.077 152.399 216.231 148.286C210.385 144.172 203.275 144.202 200.351 148.352C197.427 152.502 199.796 159.201 205.642 163.314C211.487 167.427 218.597 167.398 221.521 163.248Z" fill="#754FFE"/>
<path opacity="0.5" d="M193.951 159.354C191.028 163.5 183.92 163.537 178.073 159.419C172.227 155.302 169.851 148.606 172.774 144.461C175.697 140.316 182.815 140.279 188.662 144.396C194.508 148.514 196.837 155.209 193.951 159.354Z" fill="#754FFE"/>
<path opacity="0.5" d="M234.514 187.926C231.591 192.08 224.483 192.108 218.636 187.991C212.79 183.873 210.423 177.178 213.347 173.032C216.27 168.887 223.378 168.85 229.225 172.968C235.071 177.085 237.437 183.78 234.514 187.926Z" fill="#754FFE"/>
<path opacity="0.5" d="M206.944 184.022C204.021 188.167 196.912 188.195 191.066 184.087C185.219 179.979 182.853 173.274 185.776 169.119C188.699 164.965 195.808 164.946 201.654 169.054C207.501 173.163 209.83 179.867 206.944 184.022Z" fill="#754FFE"/>
<path opacity="0.5" d="M221.532 163.267C221.223 163.705 220.862 164.104 220.456 164.454C222.08 160.318 219.63 154.578 214.405 150.906C209.18 147.234 202.954 146.863 199.604 149.775C199.8 149.281 200.053 148.811 200.355 148.374C203.278 144.229 210.396 144.192 216.243 148.309C222.089 152.427 224.446 159.113 221.532 163.267Z" fill="#754FFE"/>
<path opacity="0.5" d="M193.952 159.354C193.644 159.79 193.285 160.188 192.884 160.541C194.508 156.396 192.068 150.665 186.834 146.983C181.6 143.302 175.382 142.94 172.032 145.861C172.227 145.366 172.479 144.896 172.784 144.461C175.707 140.306 182.816 140.278 188.662 144.396C194.508 148.513 196.838 155.199 193.952 159.354Z" fill="#754FFE"/>
<path opacity="0.5" d="M234.514 187.935C234.206 188.368 233.848 188.763 233.447 189.112C235.071 184.967 232.621 179.236 227.396 175.564C222.172 171.891 215.945 171.511 212.595 174.442C212.788 173.943 213.04 173.47 213.346 173.032C216.27 168.877 223.378 168.85 229.224 172.967C235.071 177.085 237.447 183.78 234.514 187.935Z" fill="#754FFE"/>
<path opacity="0.5" d="M206.944 184.022C206.641 184.459 206.282 184.855 205.877 185.2C207.501 181.064 205.051 175.323 199.826 171.651C194.601 167.979 188.374 167.608 185.024 170.529C185.215 170.03 185.468 169.556 185.776 169.119C188.699 164.965 195.808 164.946 201.654 169.054C207.501 173.163 209.83 179.867 206.944 184.022Z" fill="#754FFE"/>
<path d="M215.834 86.5109C215.834 86.5109 203.306 102.758 192.392 116.743C190.843 118.692 188.812 120.205 186.5 121.134C184.188 122.062 181.674 122.374 179.205 122.038C169.675 120.86 154.149 127.602 154.149 127.602C154.149 127.602 183.521 79.3889 215.834 86.5109Z" fill="#754FFE"/>
<path opacity="0.3" d="M215.834 86.5109C215.834 86.5109 203.306 102.758 192.392 116.743C190.843 118.692 188.812 120.205 186.5 121.134C184.188 122.062 181.674 122.374 179.205 122.038C169.675 120.86 154.149 127.602 154.149 127.602C154.149 127.602 183.521 79.3889 215.834 86.5109Z" fill="#18113C"/>
<path d="M274.585 127.861C274.585 127.861 263.551 145.119 254.002 160.096C252.688 162.211 251.947 164.631 251.853 167.119C251.759 169.607 252.314 172.076 253.464 174.284C257.788 182.862 256.656 199.777 256.656 199.777C256.656 199.777 292.189 155.849 274.585 127.861Z" fill="#754FFE"/>
<path opacity="0.3" d="M274.585 127.861C274.585 127.861 263.551 145.119 254.002 160.096C252.688 162.211 251.947 164.631 251.853 167.119C251.759 169.607 252.314 172.076 253.464 174.284C257.788 182.862 256.656 199.777 256.656 199.777C256.656 199.777 292.189 155.849 274.585 127.861Z" fill="#18113C"/>
<path d="M315.065 251.931C326.656 223.591 276.544 215.56 256.713 222.673C236.881 229.786 216.66 235.072 215.881 216.107C215.101 197.143 230.376 185.384 223.091 181.007C219.054 178.577 217.904 182.862 215.908 189.112C209.802 208.262 175.216 212.824 191.131 240.543C207.046 268.261 198.555 262.243 171.782 273.362C145.009 284.481 158.79 316.502 184.691 316.502H340.669C412.162 316.502 344.474 179.755 315.065 251.931Z" fill="#754FFE"/>
<path opacity="0.6" d="M315.065 251.931C326.656 223.591 276.544 215.56 256.713 222.673C236.881 229.786 216.66 235.072 215.881 216.107C215.101 197.143 230.376 185.384 223.091 181.007C219.054 178.577 217.904 182.862 215.908 189.112C209.802 208.262 175.216 212.824 191.131 240.543C207.046 268.261 198.555 262.243 171.782 273.362C145.009 284.481 158.79 316.502 184.691 316.502H340.669C412.162 316.502 344.474 179.755 315.065 251.931Z" fill="white"/>
<path d="M183.326 153.15C181.247 145.935 170 155.004 158.92 165.993C147.839 176.983 142.373 202.067 131.655 215.143C120.937 228.219 90.2476 240.033 102.247 259.711C119.944 288.71 79.2693 316.53 127.442 316.53H226.246C244.314 316.53 263.904 294.45 235.767 279.436C207.63 264.422 165.481 299.43 154.103 266.036C148.461 249.464 168.951 257.068 159.458 229.934C149.964 202.8 150.595 195.409 155.43 183.316C167.197 153.845 186.528 164.111 183.326 153.15Z" fill="#754FFE"/>
<path opacity="0.6" d="M183.326 153.15C181.247 145.935 170 155.004 158.92 165.993C147.839 176.983 142.373 202.067 131.655 215.143C120.937 228.219 90.2476 240.033 102.247 259.711C119.944 288.71 79.2693 316.53 127.442 316.53H226.246C244.314 316.53 263.904 294.45 235.767 279.436C207.63 264.422 165.481 299.43 154.103 266.036C148.461 249.464 168.951 257.068 159.458 229.934C149.964 202.8 150.595 195.409 155.43 183.316C167.197 153.845 186.528 164.111 183.326 153.15Z" fill="white"/>
<path d="M203.807 156.479C206.257 152.009 214.665 154.689 214.479 160.541C214.294 166.392 192.523 174.061 196.569 194.268C200.615 214.475 239.479 215.922 248.602 236.166C257.724 256.41 222.386 259.248 232.928 271.906C243.47 284.564 276.005 255.492 299.187 262.966C322.368 270.441 345.531 316.502 303.01 316.502H171.986C143.496 316.502 122.691 257.718 150.067 233.532C177.443 209.347 155.356 217.202 165.574 201.706C175.791 186.21 194.406 173.616 203.807 156.479Z" fill="#754FFE"/>
<path opacity="0.8" d="M203.807 156.479C206.257 152.009 214.665 154.689 214.479 160.541C214.294 166.392 192.523 174.061 196.569 194.268C200.615 214.475 239.479 215.922 248.602 236.166C257.724 256.41 222.386 259.248 232.928 271.906C243.47 284.564 276.005 255.492 299.187 262.966C322.368 270.441 345.531 316.502 303.01 316.502H171.986C143.496 316.502 122.691 257.718 150.067 233.532C177.443 209.347 155.356 217.202 165.574 201.706C175.791 186.21 194.406 173.616 203.807 156.479Z" fill="white"/>
</svg>
