<svg width="1378" height="411" viewBox="0 0 1378 411" fill="none" xmlns="http://www.w3.org/2000/svg">
<mask id="path-1-inside-1_6042_28606" fill="white">
<path d="M81 42C81 45.4478 79.6304 48.7544 77.1924 51.1924C74.7544 53.6304 71.4478 55 68 55C64.5522 55 61.2456 53.6304 58.8076 51.1924C56.3696 48.7544 55 45.4478 55 42L68 42H81Z"/>
</mask>
<path d="M81 42C81 45.4478 79.6304 48.7544 77.1924 51.1924C74.7544 53.6304 71.4478 55 68 55C64.5522 55 61.2456 53.6304 58.8076 51.1924C56.3696 48.7544 55 45.4478 55 42L68 42H81Z" stroke="#94A3B8" stroke-width="2" mask="url(#path-1-inside-1_6042_28606)"/>
<circle cx="195.5" cy="378.5" r="6" stroke="#94A3B8"/>
<rect x="245.457" y="156.516" width="22.8483" height="22.8483" rx="5.85955" transform="rotate(43.773 245.457 156.516)" stroke="#94A3B8"/>
<path fill-rule="evenodd" clip-rule="evenodd" d="M146.496 223.381L152.503 226.885C152.676 226.699 152.875 226.54 153.094 226.412C154.34 225.689 155.929 226.118 156.652 227.377C157.369 228.635 156.943 230.24 155.697 230.971C155.481 231.097 155.247 231.191 155.004 231.25V238.259C155.244 238.318 155.475 238.411 155.69 238.536C156.943 239.267 157.369 240.872 156.645 242.13C155.929 243.388 154.332 243.818 153.086 243.095C152.845 242.955 152.628 242.776 152.442 242.567L146.472 246.048C146.559 246.316 146.604 246.595 146.604 246.877C146.604 248.324 145.44 249.507 144 249.507C142.56 249.507 141.396 248.331 141.396 246.877C141.396 246.619 141.433 246.369 141.502 246.133L135.496 242.631C135.325 242.813 135.129 242.969 134.914 243.095C133.66 243.818 132.071 243.388 131.355 242.13C130.639 240.872 131.064 239.267 132.31 238.536C132.525 238.411 132.756 238.318 132.996 238.259V231.25C132.753 231.191 132.519 231.097 132.303 230.971C131.057 230.248 130.631 228.635 131.348 227.377C132.064 226.118 133.66 225.689 134.906 226.412C135.123 226.539 135.321 226.697 135.494 226.882L141.503 223.377C141.432 223.135 141.396 222.883 141.396 222.63C141.396 221.176 142.56 220 144 220C145.44 220 146.604 221.175 146.604 222.63C146.604 222.891 146.566 223.143 146.496 223.381ZM145.87 224.461L151.891 227.972C151.796 228.311 151.768 228.665 151.811 229.015C151.853 229.364 151.965 229.701 152.139 230.006C152.506 230.65 153.103 231.077 153.765 231.244V238.261C153.731 238.27 153.698 238.279 153.664 238.288L145.8 224.531C145.824 224.508 145.847 224.485 145.87 224.461V224.461ZM142.201 224.533L134.337 238.29C134.303 238.28 134.269 238.271 134.235 238.262V231.244C134.897 231.077 135.494 230.65 135.861 230.006C136.036 229.701 136.147 229.363 136.19 229.013C136.232 228.662 136.204 228.307 136.107 227.968L142.127 224.458C142.151 224.483 142.176 224.508 142.201 224.532V224.533ZM144.727 225.156L152.59 238.91C152.41 239.083 152.255 239.282 152.131 239.5C152.008 239.717 151.916 239.951 151.857 240.194H136.143C136.085 239.951 135.992 239.717 135.869 239.5C135.744 239.284 135.59 239.086 135.411 238.913L143.275 225.156C143.511 225.225 143.755 225.26 144 225.259C144.253 225.259 144.497 225.223 144.727 225.156ZM145.925 245.106L151.908 241.617C151.89 241.56 151.874 241.502 151.86 241.444H136.14C136.131 241.479 136.122 241.512 136.113 241.546L142.124 245.052C142.367 244.797 142.658 244.594 142.981 244.456C143.303 244.318 143.65 244.247 144 244.247C144.362 244.247 144.721 244.323 145.053 244.471C145.384 244.618 145.682 244.835 145.925 245.106V245.106Z" fill="#E23CE5"/>
<path d="M244.911 58.1074C244.911 55.8603 242.181 53.7307 237.995 52.4101C238.961 48.0128 238.531 44.5142 236.64 43.3941C236.204 43.1314 235.694 43.0069 235.137 43.0069V44.5488C235.446 44.5488 235.694 44.611 235.902 44.7285C236.814 45.2678 237.21 47.3213 236.901 49.9625C236.828 50.6125 236.707 51.297 236.559 51.9953C235.244 51.6634 233.809 51.4076 232.299 51.2417C231.394 49.9625 230.455 48.801 229.509 47.7846C231.696 45.6896 233.748 44.5419 235.144 44.5419V43C233.299 43 230.884 44.3552 228.442 46.706C226 44.369 223.585 43.0277 221.741 43.0277V44.5695C223.129 44.5695 225.189 45.7103 227.376 47.7915C226.436 48.8079 225.497 49.9625 224.605 51.2417C223.089 51.4076 221.653 51.6634 220.338 52.0022C220.184 51.3108 220.07 50.6401 219.99 49.9971C219.674 47.3559 220.063 45.3024 220.969 44.7562C221.17 44.6317 221.432 44.5764 221.741 44.5764V43.0346C221.177 43.0346 220.667 43.159 220.224 43.4218C218.339 44.5419 217.917 48.0335 218.889 52.4171C214.717 53.7446 212 55.8672 212 58.1074C212 60.3545 214.73 62.484 218.916 63.8046C217.95 68.202 218.38 71.7006 220.271 72.8207C220.707 73.0834 221.217 73.2079 221.781 73.2079C223.626 73.2079 226.041 71.8527 228.482 69.5019C230.924 71.8389 233.339 73.1802 235.184 73.1802C235.748 73.1802 236.257 73.0558 236.7 72.793C238.585 71.6729 239.008 68.1813 238.035 63.7977C242.194 62.4771 244.911 60.3476 244.911 58.1074V58.1074ZM236.177 53.4957C235.929 54.3876 235.62 55.3072 235.271 56.2267C234.996 55.6736 234.708 55.1205 234.392 54.5674C234.084 54.0142 233.755 53.4749 233.426 52.9494C234.379 53.0946 235.298 53.2744 236.177 53.4957ZM233.104 60.8592C232.581 61.7926 232.045 62.6776 231.488 63.5004C230.488 63.5903 229.475 63.6387 228.456 63.6387C227.443 63.6387 226.43 63.5903 225.437 63.5073C224.88 62.6845 224.337 61.8065 223.813 60.88C223.304 59.9742 222.841 59.0546 222.418 58.1281C222.834 57.2016 223.304 56.2751 223.807 55.3694C224.33 54.436 224.867 53.551 225.423 52.7282C226.423 52.6383 227.436 52.5899 228.456 52.5899C229.469 52.5899 230.481 52.6383 231.474 52.7213C232.031 53.5441 232.574 54.4222 233.098 55.3486C233.608 56.2544 234.07 57.174 234.493 58.1005C234.07 59.027 233.608 59.9535 233.104 60.8592ZM235.271 59.9604C235.633 60.8869 235.942 61.8134 236.197 62.7122C235.318 62.9335 234.392 63.1201 233.433 63.2653C233.762 62.7329 234.091 62.1867 234.399 61.6267C234.708 61.0736 234.996 60.5135 235.271 59.9604ZM228.469 67.3378C227.845 66.674 227.221 65.9342 226.604 65.1252C227.208 65.1529 227.825 65.1736 228.449 65.1736C229.079 65.1736 229.703 65.1598 230.314 65.1252C229.71 65.9342 229.086 66.674 228.469 67.3378ZM223.478 63.2653C222.525 63.1201 221.606 62.9404 220.728 62.7191C220.976 61.8272 221.284 60.9076 221.633 59.988C221.908 60.5412 222.197 61.0943 222.512 61.6474C222.827 62.2006 223.149 62.7399 223.478 63.2653ZM228.435 48.877C229.059 49.5408 229.683 50.2806 230.3 51.0895C229.697 51.0619 229.079 51.0411 228.456 51.0411C227.825 51.0411 227.201 51.055 226.591 51.0895C227.194 50.2806 227.818 49.5408 228.435 48.877ZM223.471 52.9494C223.143 53.4818 222.814 54.028 222.505 54.5881C222.197 55.1412 221.908 55.6944 221.633 56.2475C221.271 55.321 220.962 54.3945 220.707 53.4957C221.586 53.2813 222.512 53.0946 223.471 52.9494V52.9494ZM217.4 61.6059C215.025 60.5619 213.489 59.1929 213.489 58.1074C213.489 57.0219 215.025 55.646 217.4 54.6088C217.977 54.353 218.608 54.1248 219.258 53.9105C219.641 55.2657 220.144 56.6762 220.768 58.1212C220.151 59.5594 219.654 60.9629 219.279 62.3112C218.614 62.0968 217.984 61.8618 217.4 61.6059ZM221.009 71.4862C220.097 70.9469 219.701 68.8934 220.01 66.2522C220.084 65.6023 220.204 64.9178 220.352 64.2195C221.667 64.5514 223.102 64.8072 224.612 64.9731C225.517 66.2522 226.456 67.4138 227.402 68.4302C225.215 70.5252 223.163 71.6729 221.767 71.6729C221.465 71.666 221.211 71.6038 221.009 71.4862V71.4862ZM236.921 66.2177C237.237 68.8589 236.848 70.9124 235.942 71.4586C235.741 71.583 235.479 71.6384 235.171 71.6384C233.782 71.6384 231.723 70.4975 229.536 68.4164C230.475 67.4 231.414 66.2453 232.306 64.9662C233.822 64.8003 235.258 64.5445 236.573 64.2057C236.727 64.904 236.848 65.5747 236.921 66.2177V66.2177ZM239.504 61.6059C238.927 61.8618 238.297 62.0899 237.646 62.3043C237.264 60.9491 236.76 59.5386 236.137 58.0936C236.754 56.6554 237.25 55.2519 237.626 53.9036C238.29 54.1179 238.921 54.353 239.511 54.6088C241.886 55.6529 243.422 57.0219 243.422 58.1074C243.415 59.1929 241.879 60.5688 239.504 61.6059V61.6059Z" fill="#0EA5E9"/>
<path d="M228.449 61.2668C230.142 61.2668 231.515 59.8521 231.515 58.107C231.515 56.3619 230.142 54.9473 228.449 54.9473C226.756 54.9473 225.383 56.3619 225.383 58.107C225.383 59.8521 226.756 61.2668 228.449 61.2668Z" fill="#0EA5E9"/>
<g clip-path="url(#clip0_6042_28606)">
<path d="M120.843 117.938L134.906 112.96L149.348 117.85L147.01 136.335L134.906 142.995L122.992 136.424L120.843 117.938Z" fill="#E53E3E"/>
<path d="M149.349 117.85L134.906 112.96V142.995L147.01 136.346L149.349 117.85V117.85Z" fill="#E53E3E"/>
<path d="M134.929 116.467L126.166 135.837L129.439 135.782L131.199 131.412H139.06L140.987 135.837L144.116 135.893L134.929 116.467ZM134.951 122.673L137.913 128.824H132.346L134.951 122.673Z" fill="white"/>
</g>
<g clip-path="url(#clip1_6042_28606)">
<path fill-rule="evenodd" clip-rule="evenodd" d="M10.6464 199.115C8.54553 199.649 7.45743 201.879 8.03282 203.852C8.58553 205.747 9.12814 208.246 9.01671 210.425C8.90492 212.61 8.17137 214.162 6.48245 214.767L6.95509 216.627C8.72775 216.352 10.1134 217.366 11.2547 219.232C12.3927 221.093 13.1087 223.548 13.5279 225.477C13.9641 227.485 15.985 228.926 18.0862 228.392L39.6126 222.922C41.7134 222.388 42.8012 220.158 42.2258 218.185C41.6731 216.29 41.1305 213.791 41.2419 211.612C41.354 209.427 42.0848 207.876 43.7737 207.271L43.3011 205.411C41.5284 205.686 40.1455 204.671 39.0039 202.805C37.8661 200.944 37.1499 198.489 36.7307 196.56C36.2946 194.552 34.2739 193.111 32.1731 193.645L10.6461 199.115L10.6464 199.115ZM32.5403 212.737C33.2367 215.478 31.611 217.661 28.2122 218.525L22.4263 219.995C22.2608 220.037 22.0854 220.012 21.9387 219.924C21.792 219.837 21.686 219.696 21.644 219.53L18.0034 205.203C17.9614 205.038 17.9869 204.863 18.0743 204.716C18.1616 204.57 18.3037 204.464 18.4692 204.422L24.2219 202.96C27.056 202.24 29.3054 203.3 29.9032 205.652C30.3228 207.304 29.4473 209.1 27.919 209.764L27.9409 209.85C30.1714 209.537 32.0137 210.665 32.5403 212.737ZM24.1258 205.086L20.8268 205.925L22.0088 210.576L24.7873 209.87C26.9353 209.324 27.9003 208.16 27.5082 206.617C27.1407 205.171 25.9193 204.631 24.1258 205.086V205.086ZM22.4778 212.422L23.7803 217.548L27.2007 216.679C29.437 216.111 30.3941 214.914 29.9663 213.23C29.5385 211.547 28.1013 210.993 25.7542 211.589L22.4777 212.422L22.4778 212.422Z" fill="#663CFF"/>
</g>
<rect x="34.6225" y="330.5" width="20.478" height="20.478" rx="7.5" transform="rotate(-16.6808 34.6225 330.5)" stroke="#94A3B8"/>
<path d="M218.022 287L245.334 295.548L236.311 324.377L209 315.829L218.022 287Z" fill="#F8DC4D"/>
<path d="M217.664 313.339L220.172 312.658C220.339 313.539 220.506 314.292 221.386 314.567C222.229 314.831 222.87 314.65 223.294 313.295L226.177 304.083L228.743 304.887L225.848 314.137C224.97 316.943 223.012 317.732 220.738 317.021C218.685 316.378 217.845 314.883 217.664 313.339L217.664 313.339ZM226.83 315.889L229.32 315.266C229.573 316.386 230.07 317.307 231.335 317.703C232.399 318.035 233.252 317.686 233.495 316.912C233.785 315.984 233.192 315.436 232.188 314.528L231.637 314.036C230.046 312.625 229.145 311.195 229.835 308.989C230.471 306.957 232.422 305.868 234.714 306.585C236.346 307.096 237.331 308.063 237.684 309.895L235.261 310.624C235.082 309.654 234.708 309.176 233.975 308.946C233.223 308.711 232.589 309.065 232.383 309.723C232.129 310.536 232.502 311.014 233.445 311.862L233.996 312.353C235.868 314.022 236.782 315.413 236.073 317.677C235.31 320.115 233.077 320.883 230.639 320.119C228.256 319.374 227.091 317.692 226.83 315.889" fill="#1E2248"/>
<g clip-path="url(#clip2_6042_28606)">
<path d="M104.863 305.009C96.7597 305.009 97.2657 308.523 97.2657 308.523L97.2747 312.163H105.007V313.257H94.2033C94.2033 313.257 89.0181 312.668 89.0181 320.845C89.0181 329.021 93.5439 328.731 93.5439 328.731H96.2449V324.937C96.2449 324.937 96.0993 320.411 100.698 320.411H108.368C108.368 320.411 112.677 320.481 112.677 316.246V309.246C112.677 309.246 113.331 305.009 104.863 305.009ZM100.599 307.457C100.782 307.457 100.963 307.493 101.132 307.563C101.301 307.632 101.454 307.735 101.583 307.864C101.712 307.993 101.815 308.147 101.885 308.316C101.955 308.484 101.99 308.665 101.99 308.848C101.99 309.031 101.955 309.212 101.885 309.381C101.815 309.55 101.712 309.703 101.583 309.832C101.454 309.961 101.301 310.064 101.132 310.134C100.963 310.204 100.782 310.239 100.599 310.239C100.416 310.239 100.235 310.204 100.067 310.134C99.8977 310.064 99.7443 309.961 99.6151 309.832C99.4859 309.703 99.3834 309.55 99.3135 309.381C99.2437 309.212 99.2078 309.031 99.208 308.848C99.2078 308.665 99.2437 308.484 99.3135 308.316C99.3834 308.147 99.4859 307.993 99.6151 307.864C99.7443 307.735 99.8977 307.632 100.067 307.563C100.235 307.493 100.416 307.457 100.599 307.457V307.457Z" fill="url(#paint0_linear_6042_28606)"/>
<path d="M105.093 336.763C113.196 336.763 112.69 333.249 112.69 333.249L112.681 329.608H104.948V328.515H115.752C115.752 328.515 120.938 329.103 120.938 320.927C120.938 312.75 116.412 313.04 116.412 313.04H113.711V316.834C113.711 316.834 113.857 321.36 109.257 321.36H101.588C101.588 321.36 97.2788 321.291 97.2788 325.525V332.526C97.2788 332.526 96.6245 336.763 105.093 336.763H105.093ZM109.357 334.315C109.174 334.315 108.993 334.279 108.824 334.209C108.655 334.139 108.502 334.037 108.373 333.907C108.244 333.778 108.141 333.625 108.071 333.456C108.001 333.287 107.966 333.106 107.966 332.923C107.965 332.741 108.001 332.56 108.071 332.391C108.141 332.222 108.244 332.069 108.373 331.939C108.502 331.81 108.655 331.708 108.824 331.638C108.993 331.568 109.174 331.532 109.357 331.532C109.54 331.532 109.72 331.568 109.889 331.638C110.058 331.708 110.212 331.81 110.341 331.939C110.47 332.068 110.573 332.222 110.642 332.391C110.712 332.56 110.748 332.741 110.748 332.923C110.748 333.106 110.712 333.287 110.642 333.456C110.573 333.625 110.47 333.778 110.341 333.907C110.212 334.037 110.058 334.139 109.889 334.209C109.72 334.279 109.54 334.315 109.357 334.314V334.315Z" fill="url(#paint1_linear_6042_28606)"/>
</g>
<mask id="path-16-inside-2_6042_28606" fill="white">
<path d="M1188 27C1188 30.4478 1186.63 33.7544 1184.19 36.1924C1181.75 38.6304 1178.45 40 1175 40C1171.55 40 1168.25 38.6304 1165.81 36.1924C1163.37 33.7544 1162 30.4478 1162 27L1175 27H1188Z"/>
</mask>
<path d="M1188 27C1188 30.4478 1186.63 33.7544 1184.19 36.1924C1181.75 38.6304 1178.45 40 1175 40C1171.55 40 1168.25 38.6304 1165.81 36.1924C1163.37 33.7544 1162 30.4478 1162 27L1175 27H1188Z" stroke="#94A3B8" stroke-width="2" mask="url(#path-16-inside-2_6042_28606)"/>
<circle cx="1127" cy="311" r="7.5" stroke="#94A3B8"/>
<rect x="1176.46" y="154.62" width="16.812" height="16.812" rx="3.98503" transform="rotate(-21.7649 1176.46 154.62)" stroke="#94A3B8"/>
<rect x="1333.65" y="223.883" width="16.812" height="16.812" rx="3.98503" transform="rotate(-21.7649 1333.65 223.883)" stroke="#94A3B8"/>
<g clip-path="url(#clip3_6042_28606)">
<path d="M1334.17 303.002L1330.54 309.562L1326.92 303.002H1314.85L1330.54 331.407L1346.24 303.002H1334.17Z" fill="#38A169"/>
<path d="M1334.17 303.002L1330.54 309.562L1326.92 303.002H1321.13L1330.54 320.044L1339.96 303.002H1334.17Z" fill="#226A47"/>
</g>
<g clip-path="url(#clip4_6042_28606)">
<path d="M1223.04 270.38C1221.29 270.391 1219.78 270.827 1218.51 271.477C1218.04 270.512 1217.57 269.669 1217.49 269.04C1217.4 268.308 1217.3 267.861 1217.4 266.988C1217.51 266.115 1218 264.876 1218 264.774C1217.99 264.683 1217.89 264.236 1216.89 264.226C1215.88 264.215 1215.01 264.429 1214.91 264.703C1214.82 264.977 1214.62 265.607 1214.49 266.257C1214.32 267.211 1212.48 270.594 1211.44 272.371C1211.09 271.68 1210.8 271.071 1210.74 270.583C1210.66 269.852 1210.55 269.405 1210.66 268.532C1210.76 267.658 1211.25 266.419 1211.25 266.318C1211.24 266.226 1211.14 265.779 1210.14 265.769C1209.13 265.759 1208.26 265.972 1208.17 266.247C1208.07 266.521 1207.96 267.171 1207.75 267.801C1207.54 268.43 1205.1 274.077 1204.46 275.55C1204.14 276.301 1203.86 276.901 1203.65 277.307C1203.45 277.713 1203.64 277.337 1203.62 277.378C1203.45 277.723 1203.35 277.916 1203.35 277.916V277.926C1203.21 278.18 1203.07 278.424 1203 278.424C1202.95 278.424 1202.85 277.744 1203.02 276.809C1203.38 274.849 1204.26 271.792 1204.25 271.68C1204.25 271.63 1204.42 271.091 1203.68 270.817C1202.97 270.543 1202.72 271 1202.66 271C1202.6 271 1202.55 271.162 1202.55 271.162C1202.55 271.162 1203.34 267.72 1201.04 267.72C1199.59 267.72 1197.6 269.355 1196.61 270.848C1195.99 271.203 1194.66 271.955 1193.25 272.757C1192.72 273.062 1192.16 273.387 1191.63 273.681L1191.52 273.559C1188.73 270.461 1183.57 268.268 1183.78 264.104C1183.86 262.59 1184.37 258.599 1193.7 253.765C1201.35 249.804 1207.47 250.89 1208.54 253.308C1210.05 256.761 1205.26 263.179 1197.32 264.104C1194.29 264.459 1192.7 263.24 1192.3 262.783C1191.88 262.306 1191.82 262.286 1191.66 262.377C1191.41 262.519 1191.56 262.946 1191.66 263.2C1191.9 263.84 1192.87 264.977 1194.53 265.546C1195.99 266.044 1199.54 266.318 1203.84 264.591C1208.65 262.651 1212.41 257.269 1211.31 252.769C1210.19 248.189 1202.88 246.686 1195.98 249.235C1191.87 250.758 1187.41 253.135 1184.21 256.253C1180.4 259.95 1179.8 263.179 1180.05 264.52C1180.94 269.304 1187.28 272.422 1189.82 274.727C1189.69 274.798 1189.57 274.869 1189.46 274.93C1188.19 275.58 1183.36 278.211 1182.15 280.993C1180.78 284.142 1182.36 286.407 1183.42 286.711C1186.68 287.656 1190.02 285.96 1191.83 283.167C1193.62 280.374 1193.41 276.748 1192.58 275.093L1192.55 275.032L1193.55 274.422C1194.19 274.026 1194.83 273.661 1195.38 273.346C1195.07 274.229 1194.84 275.275 1194.73 276.799C1194.59 278.586 1195.29 280.902 1196.22 281.816C1196.63 282.212 1197.12 282.222 1197.42 282.222C1198.5 282.222 1198.99 281.298 1199.52 280.191C1200.19 278.84 1200.77 277.276 1200.77 277.276C1200.77 277.276 1200.04 281.511 1202.04 281.511C1202.77 281.511 1203.51 280.526 1203.84 280.018V280.029C1203.84 280.029 1203.86 279.998 1203.9 279.927C1203.94 279.864 1203.98 279.8 1204.01 279.734V279.714C1204.31 279.186 1204.96 277.977 1205.94 275.976C1207.2 273.397 1208.41 270.167 1208.41 270.167C1208.41 270.167 1208.53 270.959 1208.89 272.259C1209.1 273.031 1209.57 273.874 1209.93 274.697C1209.64 275.123 1209.46 275.367 1209.46 275.367L1209.47 275.377C1209.24 275.702 1208.98 276.048 1208.7 276.393C1207.71 277.632 1206.51 279.044 1206.36 279.45C1206.17 279.927 1206.21 280.283 1206.57 280.567C1206.84 280.77 1207.31 280.811 1207.8 280.77C1208.7 280.709 1209.33 280.476 1209.64 280.333C1210.13 280.151 1210.68 279.876 1211.22 279.47C1212.2 278.719 1212.79 277.652 1212.74 276.23C1212.71 275.448 1212.46 274.677 1212.16 273.945C1212.25 273.813 1212.34 273.681 1212.42 273.539C1213.97 271.193 1215.16 268.613 1215.16 268.613C1215.16 268.613 1215.27 269.405 1215.64 270.705C1215.82 271.366 1216.19 272.087 1216.52 272.798C1215.08 274.027 1214.17 275.449 1213.86 276.383C1213.28 278.109 1213.73 278.891 1214.58 279.074C1214.96 279.156 1215.51 278.973 1215.92 278.79C1216.43 278.617 1217.04 278.323 1217.61 277.886C1218.59 277.134 1219.52 276.088 1219.47 274.677C1219.44 274.027 1219.28 273.387 1219.05 272.777C1220.28 272.249 1221.88 271.945 1223.9 272.199C1228.24 272.727 1229.1 275.55 1228.94 276.728C1228.77 277.906 1227.86 278.556 1227.56 278.759C1227.26 278.952 1227.16 279.024 1227.19 279.166C1227.23 279.379 1227.36 279.369 1227.63 279.328C1227.99 279.267 1229.91 278.363 1229.99 276.19C1230.11 273.397 1227.56 270.35 1223.04 270.38V270.38ZM1189.52 282.131C1188.09 283.766 1186.07 284.386 1185.21 283.858C1184.28 283.299 1184.64 280.892 1186.41 279.155C1187.48 278.099 1188.88 277.124 1189.8 276.525C1190 276.393 1190.31 276.2 1190.68 275.966C1190.74 275.926 1190.78 275.905 1190.78 275.905C1190.85 275.865 1190.93 275.814 1191.01 275.763C1191.66 278.241 1191.04 280.415 1189.52 282.131V282.131ZM1200.02 274.707C1199.52 275.976 1198.47 279.236 1197.83 279.054C1197.29 278.901 1196.95 276.433 1197.73 273.996C1198.12 272.767 1198.95 271.304 1199.43 270.736C1200.23 269.822 1201.09 269.517 1201.3 269.893C1201.55 270.38 1200.33 273.915 1200.02 274.707ZM1208.68 279.013C1208.47 279.125 1208.27 279.206 1208.18 279.145C1208.12 279.105 1208.27 278.952 1208.27 278.952C1208.27 278.952 1209.36 277.744 1209.79 277.185C1210.03 276.86 1210.32 276.484 1210.64 276.058V276.18C1210.64 277.642 1209.29 278.617 1208.68 279.013ZM1215.36 277.429C1215.21 277.307 1215.23 276.931 1215.75 275.753C1215.96 275.286 1216.43 274.504 1217.24 273.762C1217.34 274.067 1217.39 274.361 1217.38 274.636C1217.37 276.464 1216.12 277.144 1215.36 277.429Z" fill="#D366C9"/>
</g>
<path d="M1268.25 368.407V368.81L1268.59 369.031L1275.13 373.33L1276.05 373.934L1275.88 374.867L1275.72 375.748H1276.61H1278.32H1278.94L1279.05 375.133L1281.71 360.385V361.668V364.476V364.899L1282.08 365.117L1285.53 367.186L1282.08 369.256L1281.71 369.474V369.897V372.705V374.091L1282.87 373.33L1289.41 369.031L1289.75 368.81V368.407V365.966V365.563L1289.41 365.342L1282.87 361.043L1281.73 360.293L1282.12 358.133L1282.28 357.252H1281.38H1279.68H1279.05L1278.94 357.867L1276.29 372.609V369.897V369.474L1275.92 369.256L1272.47 367.186L1275.92 365.117L1276.29 364.899V364.476V361.668V360.282L1275.13 361.043L1268.59 365.342L1268.25 365.563V365.966V368.407Z" fill="#5F6498" stroke="#94A3B8" stroke-width="1.49501"/>
<path d="M1308.42 46C1301.56 46 1296 51.5281 1296 58.3484C1296 65.1686 1301.56 70.6967 1308.42 70.6967C1315.28 70.6967 1320.84 65.1686 1320.84 58.3484C1320.84 51.5281 1315.28 46 1308.42 46ZM1298.67 58.4768L1308.29 68.0433C1303.01 67.9752 1298.74 63.7303 1298.67 58.4768ZM1310.6 67.8013L1298.91 56.178C1299.9 51.8679 1303.78 48.6514 1308.42 48.6514C1311.66 48.6514 1314.53 50.2231 1316.3 52.6414L1314.95 53.8259C1313.51 51.7751 1311.12 50.4326 1308.42 50.4326C1304.97 50.4326 1302.04 52.6079 1300.93 55.6525L1311.13 65.792C1313.61 64.8999 1315.51 62.8214 1316.15 60.2471H1311.92V58.3484H1318.17C1318.17 62.9578 1314.94 66.8154 1310.6 67.8013Z" fill="#754FFE"/>
<g clip-path="url(#clip5_6042_28606)">
<path d="M1219.64 111.72L1220.04 105.01L1221.15 103.112C1221.15 103.112 1218.62 104.147 1214.39 104.147C1210.15 104.147 1207.66 103.131 1207.66 103.131L1208.9 105.201L1209.34 111.72C1209.34 112.419 1211.65 112.985 1214.49 112.985C1217.33 112.985 1219.64 112.419 1219.64 111.72V111.72ZM1218.37 80.3837L1219.21 77.0427L1223.89 72.1172L1222.66 71.0664L1217.71 76.3132L1216.72 80.3049C1215.99 80.2802 1215.25 80.2679 1214.51 80.268C1209.29 80.268 1205.06 80.8629 1205.06 81.5965C1205.06 82.3301 1209.29 82.9249 1214.51 82.9249C1219.73 82.9249 1223.96 82.3301 1223.96 81.5965C1223.96 81.0562 1221.66 80.5913 1218.37 80.3837" fill="#D34A47"/>
<path d="M1217.88 82.2548C1217.88 82.2548 1217.69 82.2958 1217.15 82.2981C1216.62 82.3003 1216.23 82.2946 1216.08 82.1559C1216.04 82.1186 1216.02 82.0447 1216.02 81.9946C1216.02 81.8992 1216.09 81.8431 1216.17 81.8079L1216.25 81.9358C1216.22 81.9481 1216.2 81.9625 1216.2 81.978C1216.2 82.0504 1216.75 82.0999 1217.17 82.0946C1217.59 82.0894 1218.1 82.0547 1218.1 81.9833C1218.1 81.9617 1218.06 81.9414 1218 81.9254L1218.08 81.7983C1218.19 81.8322 1218.28 81.8978 1218.28 82.0111C1218.28 82.2039 1218.04 82.2332 1217.88 82.2548" fill="white"/>
<path d="M1223.88 72.1267C1224 71.9908 1223.82 71.6431 1223.49 71.3502C1223.15 71.0575 1222.78 70.9303 1222.66 71.0662C1222.54 71.2022 1222.72 71.5499 1223.06 71.8426C1223.4 72.1354 1223.77 72.2628 1223.88 72.1267ZM1219.41 95.3291C1219.3 94.2617 1221.75 92.7159 1221.12 92.6664C1219.77 92.7437 1219.1 94.2498 1218.42 95.8272C1218.17 96.4054 1217.32 98.8706 1216.76 98.5671C1216.2 98.2638 1217.48 96.2366 1217.84 95.0327C1217.43 95.337 1215.9 96.5198 1215.51 95.4121C1214.88 95.9478 1213.53 96.238 1213.68 94.8309C1213.35 95.4253 1212.6 96.2551 1211.69 95.9103C1210.5 95.4576 1212.38 91.676 1212.85 91.8668C1213.31 92.0575 1212.75 92.9189 1212.61 93.2535C1212.28 93.9896 1211.91 94.9151 1212.16 95.1046C1212.59 95.4291 1213.75 93.8767 1213.77 93.8426C1213.99 93.5556 1214.61 91.6783 1215.11 91.8939C1215.61 92.1094 1213.86 94.5881 1214.51 95.08C1214.65 95.1793 1215.18 95.0188 1215.51 94.6649C1215.72 94.436 1215.65 93.9289 1216.36 92.2466C1217.06 90.5643 1217.69 88.4692 1218.17 88.6288C1218.66 88.7883 1218.26 89.8636 1218.08 90.2645C1217.27 92.1459 1215.86 95.2541 1216.53 95.0188C1217.19 94.7836 1217.54 94.7698 1218.19 94.0086C1218.84 93.2475 1218.81 91.9938 1219.24 92.0205C1219.67 92.0472 1219.6 92.4492 1219.5 92.7552C1219.92 92.267 1221.52 91.2387 1221.9 92.2571C1222.36 93.4629 1219.62 95.2045 1220.3 95.1157C1220.97 95.0291 1222.05 94.3457 1222.51 93.7244L1223.78 82.3247C1223.78 82.3247 1222.5 83.3806 1214.38 83.3806C1206.27 83.3806 1205.12 82.3466 1205.12 82.3466L1206.2 92.7519C1206.78 91.1233 1208.14 87.8292 1210.28 87.9398C1211.26 87.9901 1212.56 89.8688 1211.44 89.9324C1210.97 89.9593 1210.92 88.9947 1210.36 88.853C1209.96 88.7508 1209.4 89.0789 1209.04 89.4343C1208.31 90.1429 1206.75 92.9389 1206.96 94.3328C1207.22 96.11 1209.41 93.7153 1209.78 93.0044C1210.04 92.5035 1210.22 91.0198 1210.79 91.1754C1211.36 91.3311 1210.74 92.8624 1210.33 94.2163C1209.86 95.7365 1209.62 97.3401 1209.04 97.1557C1208.45 96.9713 1209.4 95.0088 1209.37 94.6649C1208.82 95.1702 1207.81 96.4493 1206.52 95.8162L1207.19 102.278C1207.19 102.278 1208.97 103.686 1214.34 103.686C1219.71 103.686 1221.56 102.3 1221.56 102.3L1222.39 94.8157C1221.71 95.4789 1219.55 96.6567 1219.41 95.3291" fill="#D34A47"/>
</g>
<g clip-path="url(#clip6_6042_28606)">
<path d="M1295.89 193.24C1295.66 193.012 1292.73 189.321 1292.23 188.712C1291.7 188.103 1291.47 188.217 1291.13 188.256C1290.79 188.294 1287.1 188.94 1286.68 188.978C1286.26 189.055 1285.99 189.207 1286.26 189.587C1286.49 189.93 1288.92 193.354 1289.46 194.153L1279.75 196.474L1272.07 183.575C1271.76 183.119 1271.69 182.967 1271 183.005C1270.32 183.043 1264.95 183.499 1264.57 183.499C1264.19 183.537 1263.77 183.69 1264.15 184.603C1264.53 185.516 1270.62 198.605 1270.77 198.986C1270.93 199.366 1271.38 199.975 1272.41 199.747C1273.47 199.48 1277.13 198.529 1279.14 197.996C1280.21 199.899 1282.34 203.78 1282.76 204.351C1283.29 205.112 1283.67 204.959 1284.47 204.731C1285.12 204.541 1294.44 201.192 1294.86 201.002C1295.28 200.812 1295.54 200.698 1295.24 200.279C1295.01 199.975 1292.58 196.665 1291.28 194.952C1292.16 194.724 1295.32 193.887 1295.66 193.773C1296.04 193.659 1296.11 193.468 1295.89 193.24V193.24ZM1278.27 196.855C1278.15 196.893 1272.71 198.187 1272.45 198.263C1272.14 198.339 1272.14 198.301 1272.14 198.187C1272.07 198.072 1265.67 184.831 1265.56 184.679C1265.48 184.527 1265.48 184.374 1265.56 184.374C1265.64 184.374 1270.7 183.918 1270.85 183.918C1271.04 183.918 1271 183.956 1271.08 184.07C1271.08 184.07 1278.19 196.36 1278.31 196.55C1278.46 196.741 1278.38 196.817 1278.27 196.855V196.855ZM1293.57 199.709C1293.64 199.861 1293.76 199.937 1293.45 200.013C1293.18 200.127 1284.28 203.133 1284.09 203.209C1283.9 203.285 1283.79 203.323 1283.56 202.981C1283.33 202.638 1280.44 197.654 1280.44 197.654L1289.91 195.181C1290.14 195.105 1290.22 195.066 1290.37 195.295C1290.52 195.561 1293.49 199.594 1293.57 199.709ZM1294.17 193.012C1293.95 193.05 1290.48 193.925 1290.48 193.925L1287.63 190.044C1287.55 189.93 1287.48 189.816 1287.67 189.778C1287.86 189.739 1291.09 189.169 1291.24 189.131C1291.4 189.093 1291.51 189.055 1291.7 189.321C1291.89 189.549 1294.33 192.669 1294.44 192.783C1294.55 192.898 1294.4 192.974 1294.17 193.012Z" fill="#FB503B"/>
</g>
<defs>
<linearGradient id="paint0_linear_6042_28606" x1="92.0855" y1="307.865" x2="107.904" y2="323.525" gradientUnits="userSpaceOnUse">
<stop stop-color="#387EB8"/>
<stop offset="1" stop-color="#366994"/>
</linearGradient>
<linearGradient id="paint1_linear_6042_28606" x1="101.795" y1="317.921" x2="118.782" y2="333.98" gradientUnits="userSpaceOnUse">
<stop stop-color="#FFE052"/>
<stop offset="1" stop-color="#FFC331"/>
</linearGradient>
<clipPath id="clip0_6042_28606">
<rect width="28.618" height="30.2079" fill="white" transform="translate(120.832 112.882)"/>
</clipPath>
<clipPath id="clip1_6042_28606">
<rect width="37.9887" height="30.2079" fill="white" transform="translate(3 201.355) rotate(-14.2573)"/>
</clipPath>
<clipPath id="clip2_6042_28606">
<rect width="32" height="31.872" fill="white" transform="translate(89 305)"/>
</clipPath>
<clipPath id="clip3_6042_28606">
<rect width="31.3952" height="28.4052" fill="white" transform="translate(1314.85 303.002)"/>
</clipPath>
<clipPath id="clip4_6042_28606">
<rect width="50" height="39" fill="white" transform="translate(1180 248)"/>
</clipPath>
<clipPath id="clip5_6042_28606">
<rect width="19" height="42" fill="white" transform="translate(1205 71)"/>
</clipPath>
<clipPath id="clip6_6042_28606">
<rect width="32" height="21.9264" fill="white" transform="translate(1264 183)"/>
</clipPath>
</defs>
</svg>
