<svg width="455" height="327" viewBox="0 0 455 327" fill="none" xmlns="http://www.w3.org/2000/svg">
<path d="M455 271.521H0V271.768H455V271.521Z" fill="#DBD8E9"/>
<path d="M440.813 277.877H408.413V278.124H440.813V277.877Z" fill="#DBD8E9"/>
<path d="M326.737 283.245H286.255V283.492H326.737V283.245Z" fill="#DBD8E9"/>
<path d="M342.18 283.245H332.802V283.492H342.18V283.245Z" fill="#DBD8E9"/>
<path d="M130.261 280.407H92.1729V280.654H130.261V280.407Z" fill="#DBD8E9"/>
<path d="M206.269 280.407H172.307V280.654H206.269V280.407Z" fill="#DBD8E9"/>
<path d="M398.837 277.877H364.291V278.124H398.837V277.877Z" fill="#DBD8E9"/>
<path d="M84.0909 280.407H51.0977V280.654H84.0909V280.407Z" fill="#DBD8E9"/>
<path d="M225.518 327C331.455 327 417.334 321.99 417.334 315.809C417.334 309.628 331.455 304.618 225.518 304.618C119.581 304.618 33.7021 309.628 33.7021 315.809C33.7021 321.99 119.581 327 225.518 327Z" fill="#EAE7F5"/>
<path d="M402.988 0H48.0562C45.5362 0.007807 43.1215 1.01093 41.3387 2.79064C39.5559 4.57035 38.5495 6.98227 38.5391 9.50044V246.23C38.5469 248.749 39.5524 251.163 41.3358 252.943C43.1192 254.723 45.5354 255.726 48.0562 255.731H402.988C405.507 255.723 407.921 254.72 409.702 252.94C411.483 251.16 412.488 248.748 412.495 246.23V9.50044C412.485 6.98397 411.48 4.57354 409.699 2.79412C407.919 1.01469 405.507 0.0104095 402.988 0Z" fill="#754FFE"/>
<path opacity="0.2" d="M402.988 0H48.0562C45.5362 0.007807 43.1215 1.01093 41.3387 2.79064C39.5559 4.57035 38.5495 6.98227 38.5391 9.50044V246.23C38.5469 248.749 39.5524 251.163 41.3358 252.943C43.1192 254.723 45.5354 255.726 48.0562 255.731H402.988C405.507 255.723 407.921 254.72 409.702 252.94C411.483 251.16 412.488 248.748 412.495 246.23V9.50044C412.485 6.98397 411.48 4.57354 409.699 2.79412C407.919 1.01469 405.507 0.0104095 402.988 0Z" fill="white"/>
<path d="M38.5391 24.5762V246.23C38.5469 248.749 39.5524 251.162 41.3358 252.943C43.1192 254.723 45.5354 255.725 48.0562 255.73H402.988C405.507 255.723 407.921 254.719 409.702 252.939C411.483 251.159 412.488 248.747 412.495 246.23V24.5762H38.5391Z" fill="#754FFE"/>
<path opacity="0.6" d="M38.5391 24.5762V246.23C38.5469 248.749 39.5524 251.162 41.3358 252.943C43.1192 254.723 45.5354 255.725 48.0562 255.73H402.988C405.507 255.723 407.921 254.719 409.702 252.939C411.483 251.159 412.488 248.747 412.495 246.23V24.5762H38.5391Z" fill="white"/>
<path d="M40.2998 24.5762V237.699C40.2985 238.407 40.437 239.109 40.7074 239.763C40.9778 240.418 41.3747 241.013 41.8755 241.515C42.3763 242.016 42.9711 242.414 43.6259 242.685C44.2807 242.957 44.9826 243.096 45.6915 243.096H405.343C406.052 243.096 406.753 242.957 407.408 242.685C408.063 242.414 408.658 242.016 409.159 241.515C409.659 241.013 410.056 240.418 410.327 239.763C410.597 239.109 410.736 238.407 410.734 237.699V24.5762H40.2998Z" fill="#FAFAFA"/>
<path d="M61.3359 37.1221C59.1268 37.1221 57.3359 38.9129 57.3359 41.1221V72.666C57.3359 74.8752 59.1268 76.666 61.3359 76.666H307.587C309.796 76.666 311.587 74.8752 311.587 72.666V41.1221C311.587 38.9129 309.796 37.1221 307.587 37.1221H61.3359Z" fill="#754FFE"/>
<path opacity="0.9" d="M61.3359 37.1221C59.1268 37.1221 57.3359 38.9129 57.3359 41.1221V72.666C57.3359 74.8752 59.1268 76.666 61.3359 76.666H307.587C309.796 76.666 311.587 74.8752 311.587 72.666V41.1221C311.587 38.9129 309.796 37.1221 307.587 37.1221H61.3359Z" fill="white"/>
<path d="M306.597 88.1341C308.807 88.1341 310.597 89.925 310.597 92.1341V189.123C310.597 191.333 308.807 193.123 306.597 193.123H62.3252C60.1161 193.123 58.3252 191.333 58.3252 189.123V92.1341C58.3252 89.925 60.1161 88.1341 62.3252 88.1341H306.597ZM311.587 91.1455C311.587 88.9364 309.796 87.1455 307.587 87.1455H61.3359C59.1268 87.1455 57.3359 88.9364 57.3359 91.1455V190.112C57.3359 192.321 59.1268 194.112 61.3359 194.112H307.587C309.796 194.112 311.587 192.321 311.587 190.112V91.1455Z" fill="#754FFE"/>
<path opacity="0.9" d="M306.597 88.1341C308.807 88.1341 310.597 89.925 310.597 92.1341V189.123C310.597 191.333 308.807 193.123 306.597 193.123H62.3252C60.1161 193.123 58.3252 191.333 58.3252 189.123V92.1341C58.3252 89.925 60.1161 88.1341 62.3252 88.1341H306.597ZM311.587 91.1455C311.587 88.9364 309.796 87.1455 307.587 87.1455H61.3359C59.1268 87.1455 57.3359 88.9364 57.3359 91.1455V190.112C57.3359 192.321 59.1268 194.112 61.3359 194.112H307.587C309.796 194.112 311.587 192.321 311.587 190.112V91.1455Z" fill="white"/>
<path d="M340.099 306.615H332.64L330.651 289.344H338.121L340.099 306.615Z" fill="#FF8B7B"/>
<path d="M385.369 306.615H377.91L372.093 289.344H379.552L385.369 306.615Z" fill="#FF8B7B"/>
<path d="M376.881 305.744H385.983C386.131 305.745 386.275 305.797 386.39 305.89C386.505 305.984 386.585 306.113 386.616 306.258L388.09 312.882C388.126 313.044 388.125 313.211 388.087 313.372C388.048 313.534 387.974 313.684 387.869 313.812C387.765 313.941 387.632 314.044 387.482 314.114C387.332 314.184 387.168 314.219 387.002 314.216C384.034 314.167 381.937 313.989 378.247 313.989C375.981 313.989 371.322 314.226 368.176 314.226C365.03 314.226 364.634 311.132 365.91 310.855C371.668 309.59 373.825 307.889 375.675 306.209C376.005 305.91 376.435 305.744 376.881 305.744Z" fill="#18113C"/>
<path d="M332.689 305.744H340.84C340.99 305.745 341.135 305.796 341.252 305.889C341.368 305.983 341.45 306.113 341.483 306.258L342.958 312.882C342.993 313.043 342.992 313.21 342.954 313.37C342.917 313.53 342.843 313.68 342.74 313.808C342.636 313.937 342.505 314.04 342.356 314.111C342.207 314.181 342.044 314.217 341.879 314.216C338.911 314.167 334.687 313.989 330.997 313.989C326.674 313.989 322.944 314.226 317.879 314.226C314.812 314.226 313.922 311.132 315.247 310.855C321.084 309.57 325.853 309.442 330.898 306.327C331.429 305.97 332.049 305.768 332.689 305.744Z" fill="#18113C"/>
<path d="M344.383 121.558C343.641 127.331 342.83 133.135 341.969 138.908L339.387 156.465C338.986 158.6 338.129 160.624 336.874 162.397C335.738 163.992 334.363 165.402 332.798 166.579C330.039 168.589 326.972 170.138 323.716 171.166C320.727 172.145 317.658 172.866 314.545 173.321C313.012 173.558 311.488 173.717 309.955 173.845C308.422 173.974 306.938 174.053 305.305 174.053L304.801 168.477C307.462 167.864 310.282 167.152 312.923 166.272C315.54 165.459 318.098 164.468 320.58 163.307C322.84 162.285 324.937 160.936 326.803 159.303C327.533 158.641 328.157 157.871 328.653 157.019C329.027 156.352 329.259 155.615 329.336 154.854L329.622 150.692C329.721 149.209 329.86 147.726 329.988 146.263C330.246 143.317 330.539 140.378 330.869 137.445C331.512 131.582 332.274 125.76 333.184 119.917L344.383 121.558Z" fill="#FF8B7B"/>
<path d="M346.846 117.851C349.358 124.524 343.334 146.896 343.334 146.896L326.753 138.612C326.753 138.612 327.535 127.46 331.324 118.84C335.113 110.219 344.085 110.496 346.846 117.851Z" fill="#754FFE"/>
<path opacity="0.3" d="M346.846 117.851C349.358 124.524 343.334 146.896 343.334 146.896L326.753 138.612C326.753 138.612 327.535 127.46 331.324 118.84C335.113 110.219 344.085 110.496 346.846 117.851Z" fill="black"/>
<path d="M308.768 167.795L300.626 168.339L304.435 177.068C305.964 177.025 307.439 176.494 308.644 175.553C309.849 174.612 310.721 173.31 311.132 171.838L308.768 167.795Z" fill="#FF8B7B"/>
<path d="M293.275 171.769L297.797 177.879L304.425 177.068L300.626 168.339L293.275 171.769Z" fill="#FF8B7B"/>
<path d="M330.661 289.344L331.809 299.368L339.229 298.923L338.12 289.344H330.661Z" fill="#EA7063"/>
<path d="M379.562 289.344H372.093L375.991 300.91L382.936 299.358L379.562 289.344Z" fill="#EA7063"/>
<path d="M337.981 112.71C337.981 112.71 329.176 135.231 337.536 177.177H377.454C377.731 171.048 373.883 141.182 379.789 112.325C375.379 111.474 370.917 110.912 366.434 110.644C360.78 110.313 355.111 110.313 349.457 110.644C345.584 111.032 341.747 111.723 337.981 112.71Z" fill="#754FFE"/>
<path opacity="0.3" d="M337.981 112.71C337.981 112.71 329.176 135.231 337.536 177.177H377.454C377.731 171.048 373.883 141.182 379.789 112.325C375.379 111.474 370.917 110.912 366.434 110.644C360.78 110.313 355.111 110.313 349.457 110.644C345.584 111.032 341.747 111.723 337.981 112.71Z" fill="black"/>
<path d="M352.564 133.788C352.03 138.79 349.279 142.606 346.41 142.3C343.541 141.993 341.652 137.693 342.176 132.681C342.701 127.668 345.471 123.862 348.33 124.159C351.189 124.455 353.138 128.776 352.564 133.788Z" fill="#754FFE"/>
<path opacity="0.1" d="M352.564 133.788C352.03 138.79 349.279 142.606 346.41 142.3C343.541 141.993 341.652 137.693 342.176 132.681C342.701 127.668 345.471 123.862 348.33 124.159C351.189 124.455 353.138 128.776 352.564 133.788Z" fill="white"/>
<path d="M371.658 126.116C372.964 119.532 375.496 120.668 377.91 123.911C376.879 132.641 376.403 141.428 376.486 150.218C374.843 147.43 369.481 137.148 371.658 126.116Z" fill="#754FFE"/>
<path opacity="0.4" d="M371.658 126.116C372.964 119.532 375.496 120.668 377.91 123.911C376.879 132.641 376.403 141.428 376.486 150.218C374.843 147.43 369.481 137.148 371.658 126.116Z" fill="black"/>
<path d="M364.752 91.5449C363.683 97.002 362.615 106.997 366.434 110.645C366.434 110.645 364.94 116.171 354.79 116.171C343.64 116.171 349.457 110.645 349.457 110.645C355.551 109.191 355.393 104.713 354.334 100.432L364.752 91.5449Z" fill="#FF8B7B"/>
<path d="M360.498 95.1729L354.335 100.432C354.597 101.403 354.773 102.396 354.859 103.398C357.184 103.062 360.38 100.511 360.627 98.0793C360.766 97.111 360.723 96.1251 360.498 95.1729Z" fill="#EA7063"/>
<path d="M349.181 71.12C345.075 74.3132 345.105 87.0563 351.328 87.3232C357.55 87.5901 356.987 65.0896 349.181 71.12Z" fill="#18113C"/>
<path d="M366.335 85.0992C364.168 92.1776 363.258 96.4286 358.737 99.2461C351.95 103.487 343.897 98.0697 343.897 90.4871C343.897 83.6559 347.449 73.236 355.176 72.0596C356.875 71.7985 358.613 71.9752 360.225 72.5731C361.837 73.1709 363.269 74.17 364.387 75.4758C365.504 76.7816 366.27 78.3508 366.611 80.0349C366.952 81.7189 366.857 83.4621 366.335 85.0992Z" fill="#FF8B7B"/>
<path d="M364.139 92.0191C359.974 92.6716 357.699 71.2586 367.631 75.994C381.749 82.7461 370.886 90.9712 364.139 92.0191Z" fill="#18113C"/>
<path d="M364.534 77.9612C359.4 77.5163 351.97 77.7338 350.358 71.3969C348.112 62.5588 358.688 61.2539 361.299 68.0159C367.591 65.9497 384.924 76.7452 373.379 82.222L364.534 77.9612Z" fill="#18113C"/>
<path d="M367.681 93.7981C366.341 95.0891 364.545 95.7997 362.684 95.7753C360.221 95.7259 359.717 93.3532 360.963 91.3958C362.121 89.6262 364.792 87.5304 366.978 88.5289C369.164 89.5274 369.293 92.1471 367.681 93.7981Z" fill="#FF8B7B"/>
<path d="M337.537 177.167C337.537 177.167 308.431 217.472 309.252 240.21C310.093 263.867 328.88 296.56 328.88 296.56L341.019 293.782C341.019 293.782 328.94 265.301 329.503 242.069C330.117 216.741 363.783 196.751 363.783 177.216L337.537 177.167Z" fill="#18113C"/>
<path d="M351.704 177.167C351.704 177.167 336.864 218.688 341.524 240.052C346.609 263.432 372.192 297.984 372.192 297.984L384.41 294.622C384.41 294.622 367.869 264.895 364.97 241.742C361.814 216.622 377.495 195.852 377.495 177.167H351.704Z" fill="#18113C"/>
<path d="M370.332 299.684L387.902 296.422L387.021 291.706L367.324 295.038L370.332 299.684Z" fill="#754FFE"/>
<path opacity="0.4" d="M370.332 299.684L387.902 296.422L387.021 291.706L367.324 295.038L370.332 299.684Z" fill="white"/>
<path d="M326.347 297.578L344.125 295.829L343.65 290.984L323.745 292.695L326.347 297.578Z" fill="#754FFE"/>
<path opacity="0.4" d="M326.347 297.578L344.125 295.829L343.65 290.984L323.745 292.695L326.347 297.578Z" fill="white"/>
<path d="M354.948 84.4956C354.809 85.0789 354.384 85.4842 353.958 85.3853C353.533 85.2865 353.375 84.7427 353.523 84.1595C353.672 83.5762 354.087 83.1709 354.463 83.2697C354.839 83.3686 355.116 83.9123 354.948 84.4956Z" fill="#18113C"/>
<path d="M348.329 82.9041C348.191 83.4874 347.766 83.8927 347.34 83.8037C346.915 83.7148 346.766 83.1612 346.905 82.5779C347.043 81.9946 347.469 81.5893 347.894 81.6783C348.32 81.7672 348.468 82.3208 348.329 82.9041Z" fill="#18113C"/>
<path d="M350.358 83.7051C349.244 85.3233 347.912 86.7803 346.4 88.0351C346.732 88.4168 347.142 88.7216 347.604 88.9282C348.065 89.1348 348.566 89.2383 349.071 89.2313L350.358 83.7051Z" fill="#FF5652"/>
<path d="M351.674 91.4157C351.228 91.413 350.783 91.3599 350.348 91.2576C350.304 91.2438 350.266 91.2139 350.242 91.1736C350.218 91.1334 350.21 91.0858 350.22 91.0401C350.225 91.0173 350.236 90.9959 350.25 90.9771C350.264 90.9583 350.282 90.9425 350.302 90.9305C350.322 90.9186 350.344 90.9107 350.368 90.9075C350.391 90.9042 350.415 90.9056 350.437 90.9116C351.162 91.103 351.921 91.1204 352.654 90.9623C353.386 90.8043 354.071 90.4752 354.652 90.002C354.685 89.97 354.729 89.9521 354.775 89.9521C354.822 89.9521 354.866 89.97 354.899 90.002C354.916 90.0178 354.93 90.0369 354.939 90.0582C354.949 90.0794 354.953 90.1024 354.953 90.1256C354.953 90.1488 354.949 90.1718 354.939 90.1931C354.93 90.2144 354.916 90.2335 354.899 90.2492C353.998 91.01 352.854 91.4237 351.674 91.4157Z" fill="#18113C"/>
<path d="M357.53 82.845C357.463 82.8448 357.397 82.8251 357.341 82.7883C357.284 82.7514 357.24 82.699 357.213 82.6374C357.047 82.2265 356.785 81.8608 356.45 81.5704C356.114 81.28 355.715 81.0731 355.284 80.9667C355.191 80.9509 355.108 80.8989 355.053 80.8219C354.998 80.745 354.977 80.6495 354.992 80.5564C355.008 80.4633 355.06 80.3803 355.137 80.3256C355.214 80.2709 355.31 80.249 355.403 80.2647C355.949 80.3901 356.458 80.6451 356.885 81.0081C357.312 81.3712 357.645 81.8317 357.856 82.3507C357.876 82.3927 357.887 82.4383 357.889 82.4847C357.89 82.5311 357.883 82.5774 357.866 82.6207C357.849 82.6641 357.824 82.7037 357.792 82.7371C357.76 82.7705 357.721 82.7971 357.678 82.8153C357.633 82.8393 357.581 82.8496 357.53 82.845Z" fill="#18113C"/>
<path d="M346.065 79.9479C345.982 79.9506 345.901 79.9224 345.837 79.8689C345.801 79.8401 345.771 79.8043 345.748 79.7636C345.726 79.723 345.712 79.6783 345.708 79.6322C345.703 79.5861 345.708 79.5395 345.722 79.4953C345.735 79.451 345.758 79.41 345.788 79.3746C346.137 78.9275 346.589 78.5717 347.106 78.3375C347.623 78.1034 348.189 77.9979 348.756 78.0301C348.849 78.0424 348.933 78.0908 348.99 78.1649C349.048 78.2389 349.074 78.3325 349.062 78.4255C349.05 78.5164 349.003 78.5991 348.931 78.6562C348.859 78.7133 348.768 78.7404 348.676 78.732C348.232 78.7204 347.792 78.8127 347.39 79.0015C346.988 79.1903 346.636 79.4704 346.362 79.8194C346.327 79.864 346.281 79.8992 346.23 79.9217C346.178 79.9441 346.121 79.9532 346.065 79.9479Z" fill="#18113C"/>
<path d="M248.75 222.933L221.971 226.119L222.088 227.101L248.867 223.915L248.75 222.933Z" fill="#754FFE"/>
<path d="M269.332 220.458L258.302 221.782L258.42 222.764L269.45 221.44L269.332 220.458Z" fill="#754FFE"/>
<path d="M418.157 157.698L188.59 185.053C186.396 185.314 184.83 187.305 185.092 189.498L189.149 223.5C189.411 225.694 191.402 227.26 193.595 226.999L423.163 199.644C425.356 199.383 426.922 197.392 426.661 195.199L422.603 161.197C422.341 159.003 420.351 157.437 418.157 157.698Z" fill="#754FFE"/>
<path d="M387.061 172.901L277.952 185.902L280.252 205.172L389.361 192.171L387.061 172.901Z" fill="#754FFE"/>
<g opacity="0.2" filter="url(#filter0_d)">
<path d="M385.075 173.138L279.938 185.666C278.841 185.796 278.058 186.791 278.189 187.888L280.015 203.186C280.145 204.283 281.141 205.066 282.238 204.935L387.375 192.407C388.471 192.277 389.254 191.282 389.124 190.185L387.298 174.887C387.167 173.79 386.172 173.007 385.075 173.138Z" fill="white"/>
</g>
<path d="M220.472 213.013C225.778 208.768 226.636 201.029 222.388 195.727C218.14 190.424 210.395 189.567 205.089 193.812C199.783 198.057 198.925 205.796 203.173 211.099C207.421 216.401 215.166 217.258 220.472 213.013Z" fill="#754FFE"/>
<g opacity="0.2" filter="url(#filter1_d)">
<path d="M220.472 213.013C225.778 208.768 226.636 201.029 222.388 195.727C218.14 190.424 210.395 189.567 205.089 193.812C199.783 198.057 198.925 205.796 203.173 211.099C207.421 216.401 215.166 217.258 220.472 213.013Z" fill="white"/>
</g>
<path d="M257.343 206.82C261.485 201.435 260.475 193.714 255.086 189.575C249.698 185.435 241.971 186.445 237.829 191.83C233.686 197.215 234.697 204.936 240.085 209.075C245.474 213.215 253.201 212.205 257.343 206.82Z" fill="#754FFE"/>
<g opacity="0.2" filter="url(#filter2_d)">
<path d="M257.343 206.82C261.485 201.435 260.475 193.714 255.086 189.575C249.698 185.435 241.971 186.445 237.829 191.83C233.686 197.215 234.697 204.936 240.085 209.075C245.474 213.215 253.201 212.205 257.343 206.82Z" fill="white"/>
</g>
<path d="M382.638 118.128C383.291 119.512 383.826 120.738 384.34 122.082C384.854 123.427 385.329 124.682 385.844 126.037C386.833 128.657 387.654 131.316 388.396 134.034C389.165 136.766 389.796 139.534 390.286 142.329L390.642 144.454L390.899 146.619C390.998 147.341 391.038 148.082 391.087 148.814L391.166 149.921V150.198V150.653C391.166 151.009 391.166 151.315 391.166 151.641C390.972 153.586 390.408 155.475 389.504 157.207C388.807 158.602 388.013 159.946 387.13 161.231C385.494 163.58 383.706 165.819 381.778 167.934C378.054 172.022 374.018 175.816 369.708 179.283L365.751 175.328C368.976 171.206 372.201 166.945 375.12 162.714C376.552 160.657 377.873 158.525 379.077 156.327C379.629 155.342 380.108 154.318 380.511 153.263C380.794 152.587 380.962 151.868 381.006 151.137C381.006 151.137 381.006 151.088 381.006 151.137C381.006 151.187 381.006 151.197 381.006 151.137V150.91L380.868 150.02C380.778 149.417 380.699 148.834 380.561 148.221L380.205 146.422L379.779 144.603C379.176 142.181 378.493 139.749 377.712 137.327C376.93 134.904 376.079 132.482 375.179 130.07C374.734 128.864 374.279 127.668 373.804 126.472L372.35 122.794L382.638 118.128Z" fill="#FF8B7B"/>
<path d="M381.353 112.82C388.011 115.38 392.789 139.719 392.789 139.719L376.96 145.957C376.96 145.957 371.648 133.728 369.857 124.683C367.977 115.163 373.794 109.943 381.353 112.82Z" fill="#754FFE"/>
<path opacity="0.3" d="M381.353 112.82C388.011 115.38 392.789 139.719 392.789 139.719L376.96 145.957C376.96 145.957 371.648 133.728 369.857 124.683C367.977 115.163 373.794 109.943 381.353 112.82Z" fill="black"/>
<path d="M374.447 307.049C373.937 307.086 373.429 306.954 373.003 306.673C372.87 306.558 372.768 306.412 372.704 306.249C372.64 306.085 372.617 305.908 372.637 305.734C372.636 305.631 372.664 305.53 372.718 305.442C372.772 305.355 372.85 305.285 372.943 305.24C373.774 304.815 376.178 306.288 376.445 306.466C376.477 306.482 376.501 306.509 376.516 306.541C376.53 306.573 376.533 306.609 376.525 306.644C376.519 306.677 376.504 306.708 376.481 306.733C376.459 306.757 376.429 306.774 376.396 306.782C375.759 306.945 375.105 307.035 374.447 307.049ZM373.339 305.507C373.257 305.5 373.174 305.517 373.101 305.556C373.052 305.556 373.003 305.625 372.993 305.764C372.976 305.881 372.989 306 373.03 306.11C373.072 306.221 373.14 306.319 373.23 306.396C374.063 306.781 375.013 306.831 375.881 306.535C375.107 306.033 374.244 305.684 373.339 305.507Z" fill="#754FFE"/>
<path d="M376.356 306.792C376.327 306.801 376.296 306.801 376.267 306.792C375.496 306.377 374.002 304.746 374.16 303.915C374.185 303.785 374.256 303.667 374.358 303.582C374.461 303.497 374.591 303.451 374.724 303.451C374.858 303.435 374.994 303.448 375.123 303.487C375.253 303.526 375.373 303.591 375.476 303.678C376.346 304.38 376.524 306.535 376.534 306.644C376.535 306.676 376.528 306.708 376.515 306.737C376.501 306.766 376.481 306.792 376.455 306.812C376.421 306.815 376.387 306.808 376.356 306.792ZM374.902 303.767H374.813C374.585 303.767 374.566 303.906 374.556 303.945C374.467 304.439 375.416 305.675 376.188 306.258C376.134 305.407 375.828 304.592 375.308 303.915C375.193 303.822 375.05 303.77 374.902 303.767Z" fill="#754FFE"/>
<path d="M329.593 307.049C328.952 307.107 328.31 306.947 327.772 306.594C327.652 306.488 327.56 306.354 327.503 306.204C327.446 306.055 327.426 305.893 327.446 305.734C327.45 305.637 327.478 305.543 327.528 305.46C327.578 305.377 327.649 305.308 327.733 305.26C328.643 304.755 331.64 306.248 331.987 306.456C332.018 306.473 332.043 306.5 332.058 306.531C332.074 306.563 332.08 306.599 332.076 306.634C332.072 306.67 332.056 306.704 332.031 306.731C332.006 306.758 331.973 306.776 331.937 306.782C331.166 306.945 330.381 307.034 329.593 307.049ZM328.237 305.507C328.124 305.499 328.011 305.523 327.911 305.576C327.876 305.594 327.846 305.621 327.826 305.654C327.805 305.687 327.793 305.725 327.792 305.764C327.782 305.868 327.796 305.974 327.834 306.071C327.872 306.169 327.932 306.257 328.01 306.327C328.465 306.733 329.701 306.812 331.344 306.535C330.375 306.017 329.324 305.67 328.237 305.507Z" fill="#754FFE"/>
<path d="M331.898 306.793H331.828C330.928 306.387 329.148 304.815 329.276 303.935C329.276 303.738 329.454 303.491 329.939 303.441C330.115 303.418 330.295 303.433 330.465 303.484C330.636 303.535 330.793 303.622 330.928 303.738C331.917 304.519 332.076 306.526 332.086 306.615C332.091 306.645 332.087 306.676 332.075 306.704C332.062 306.732 332.042 306.756 332.016 306.773C331.98 306.791 331.938 306.798 331.898 306.793ZM330.077 303.767H329.979C329.652 303.767 329.632 303.926 329.632 303.965C329.543 304.479 330.76 305.745 331.68 306.298C331.594 305.447 331.249 304.643 330.691 303.995C330.522 303.846 330.303 303.765 330.077 303.767Z" fill="#754FFE"/>
<path d="M367.483 174.201L360.162 176.178L366.227 183.524C366.227 183.524 372.093 180.489 370.827 177.197L367.483 174.201Z" fill="#FF8B7B"/>
<path d="M354.859 182.279L360.162 188.032L366.227 183.514L360.162 176.169L354.859 182.279Z" fill="#FF8B7B"/>
<path d="M118.307 95.1138C116.655 96.7944 114.884 98.6629 113.252 100.521C111.619 102.38 109.987 104.288 108.454 106.245C106.92 108.203 105.486 110.2 104.071 112.177L103.082 113.709L102.092 115.261C101.766 115.785 101.479 116.309 101.192 116.843L100.411 118.277C100.089 119.097 99.9083 119.966 99.8764 120.847C99.7972 121.979 99.7972 123.116 99.8764 124.248C100.049 126.693 100.363 129.125 100.816 131.534C101.242 133.995 101.806 136.477 102.369 138.929C102.933 141.38 103.586 143.872 104.229 146.313L100.608 147.668C98.4038 142.87 96.5651 137.913 95.108 132.839C94.355 130.245 93.7799 127.602 93.3866 124.93C93.1815 123.499 93.079 122.055 93.0799 120.61C93.0526 118.904 93.341 117.208 93.9307 115.607C94.1483 115.064 94.277 114.846 94.4253 114.52L94.8705 113.591C95.1673 112.968 95.474 112.355 95.8005 111.762L96.7898 109.963L97.7791 108.213C99.1624 105.909 100.668 103.682 102.29 101.54C103.893 99.4043 105.555 97.3085 107.306 95.3115C109.057 93.3145 110.828 91.3571 112.856 89.459L118.307 95.1138Z" fill="#FF8B7B"/>
<path d="M118.722 83.3389C113.429 83.5762 108.394 92.3649 108.394 92.3649L114.656 105.138C114.656 105.138 124.875 98.7512 125.004 90.9907C125.083 85.9488 123.936 83.1017 118.722 83.3389Z" fill="#754FFE"/>
<path opacity="0.5" d="M118.722 83.3389C113.429 83.5762 108.394 92.3649 108.394 92.3649L114.656 105.138C114.656 105.138 124.875 98.7512 125.004 90.9907C125.083 85.9488 123.936 83.1017 118.722 83.3389Z" fill="black"/>
<path d="M103.23 144.83L109.68 146.748L105.387 151.088C105.387 151.088 100.747 149.654 100.094 146.501L103.23 144.83Z" fill="#FF8B7B"/>
<path d="M113.578 151.701L112.5 155.853L105.387 151.088L109.68 146.748L113.578 151.701Z" fill="#FF8B7B"/>
<path d="M257.436 108.82L108.991 112.367C106.783 112.42 105.035 114.253 105.088 116.462L106.307 167.407C106.36 169.616 108.193 171.363 110.402 171.311L258.847 167.763C261.056 167.71 262.803 165.877 262.75 163.669L261.531 112.723C261.478 110.514 259.645 108.767 257.436 108.82Z" fill="#754FFE"/>
<path opacity="0.6" d="M257.436 108.82L108.991 112.367C106.783 112.42 105.035 114.253 105.088 116.462L106.307 167.407C106.36 169.616 108.193 171.363 110.402 171.311L258.847 167.763C261.056 167.71 262.803 165.877 262.75 163.669L261.531 112.723C261.478 110.514 259.645 108.767 257.436 108.82Z" fill="white"/>
<path d="M249.574 113.703L199.249 114.905C197.04 114.958 195.293 116.791 195.346 119L195.68 132.972C195.733 135.181 197.566 136.928 199.775 136.876L250.099 135.673C252.308 135.62 254.055 133.787 254.003 131.579L253.668 117.606C253.615 115.397 251.782 113.65 249.574 113.703Z" fill="#754FFE"/>
<path opacity="0.7" d="M249.574 113.703L199.249 114.905C197.04 114.958 195.293 116.791 195.346 119L195.68 132.972C195.733 135.181 197.566 136.928 199.775 136.876L250.099 135.673C252.308 135.62 254.055 133.787 254.003 131.579L253.668 117.606C253.615 115.397 251.782 113.65 249.574 113.703Z" fill="white"/>
<path d="M218.302 141.055L167.977 142.258C165.769 142.311 164.021 144.144 164.074 146.352L164.409 160.325C164.461 162.533 166.295 164.281 168.503 164.228L218.828 163.026C221.036 162.973 222.784 161.14 222.731 158.931L222.397 144.959C222.344 142.75 220.511 141.002 218.302 141.055Z" fill="#754FFE"/>
<path opacity="0.7" d="M218.302 141.055L167.977 142.258C165.769 142.311 164.021 144.144 164.074 146.352L164.409 160.325C164.461 162.533 166.295 164.281 168.503 164.228L218.828 163.026C221.036 162.973 222.784 161.14 222.731 158.931L222.397 144.959C222.344 142.75 220.511 141.002 218.302 141.055Z" fill="white"/>
<path d="M155.277 63.8637C155.178 64.4668 155.416 65.0204 155.812 65.0896C156.207 65.1588 156.613 64.7436 156.722 64.101C156.831 63.4584 156.573 62.9443 156.178 62.8652C155.782 62.7861 155.327 63.2508 155.277 63.8637Z" fill="#18113C"/>
<path d="M155.949 62.905L157.473 62.7666C157.473 62.7666 156.543 63.7552 155.949 62.905Z" fill="#18113C"/>
<path d="M155.643 64.5459C155.96 66.035 156.476 67.4747 157.176 68.8265C156.826 68.9873 156.444 69.0705 156.058 69.0705C155.672 69.0705 155.291 68.9873 154.94 68.8265L155.643 64.5459Z" fill="#A02724"/>
<path d="M156.711 59.9889C156.652 59.9875 156.594 59.9705 156.543 59.9394C156.143 59.7075 155.693 59.5724 155.231 59.5449C154.769 59.5175 154.307 59.5984 153.882 59.7812C153.84 59.8033 153.794 59.8167 153.746 59.8206C153.699 59.8246 153.651 59.819 153.606 59.8043C153.561 59.7895 153.519 59.7659 153.483 59.7348C153.447 59.7037 153.418 59.6657 153.397 59.6231C153.373 59.5819 153.358 59.5363 153.353 59.4891C153.347 59.4419 153.352 59.394 153.366 59.3486C153.38 59.3031 153.403 59.261 153.434 59.2249C153.465 59.1888 153.503 59.1595 153.545 59.1387C154.075 58.9013 154.653 58.7928 155.233 58.822C155.812 58.8513 156.377 59.0174 156.879 59.3067C156.921 59.3286 156.958 59.3585 156.988 59.3947C157.019 59.431 157.041 59.4729 157.055 59.5179C157.069 59.563 157.073 59.6104 157.069 59.6573C157.064 59.7041 157.05 59.7497 157.028 59.7911C156.999 59.8509 156.955 59.9012 156.898 59.9363C156.842 59.9713 156.777 59.9896 156.711 59.9889Z" fill="#18113C"/>
<path d="M135.897 68.8467C136.045 73.4634 135.57 81.7874 131.939 84.1403C131.939 84.1403 132.414 88.8955 140.734 90.497C149.876 92.2666 145.849 86.8392 145.849 86.8392C141.051 84.684 141.793 81.0361 143.237 77.7441L135.897 68.8467Z" fill="#FF8B7B"/>
<path d="M160.807 95.7861C161.381 98.0896 162.103 100.611 162.895 102.983C163.686 105.356 164.577 107.728 165.576 110.012C166.551 112.26 167.689 114.434 168.979 116.517C170.158 118.495 171.592 120.31 173.243 121.915C174.007 122.631 174.85 123.257 175.756 123.783C176.177 124.034 176.617 124.252 177.072 124.436L177.487 124.594C177.597 124.626 177.709 124.646 177.823 124.653C178.617 124.671 179.403 124.501 180.119 124.159C181.122 123.709 182.08 123.163 182.978 122.528C187.002 119.509 190.655 116.024 193.86 112.147L197.085 114.293C196.403 115.538 195.7 116.675 194.958 117.832C194.216 118.989 193.425 120.096 192.584 121.193C190.898 123.464 188.986 125.558 186.876 127.441C185.716 128.461 184.449 129.353 183.096 130.1C181.475 131.019 179.656 131.535 177.794 131.603C177.247 131.605 176.7 131.559 176.161 131.465C175.657 131.369 175.161 131.234 174.677 131.059C173.895 130.789 173.134 130.458 172.402 130.071C170.983 129.331 169.655 128.429 168.445 127.382C163.746 123.299 160.877 118.257 158.552 113.215C157.383 110.7 156.363 108.118 155.495 105.484C154.593 102.85 153.84 100.166 153.239 97.447L160.807 95.7861Z" fill="#FF8B7B"/>
<path d="M193.424 112.532L195.67 108.42L201.902 110.071C201.902 110.071 198.163 115.755 194.977 115.765L193.424 112.532Z" fill="#FF8B7B"/>
<path d="M200.745 106.938L205.484 110.071H201.903L195.66 108.42L200.745 106.938Z" fill="#FF8B7B"/>
<path d="M116.002 306.081L123.639 306.634L125.905 289.116L118.267 288.553L116.002 306.081Z" fill="#FF8B7B"/>
<path d="M55.9111 268.395L61.1841 274.06L75.4993 263.818L70.2165 258.153L55.9111 268.395Z" fill="#FF8B7B"/>
<path d="M63.4993 273.18L59.087 265.667C59.0172 265.537 58.9022 265.437 58.7636 265.386C58.6251 265.335 58.4726 265.336 58.3351 265.39L52.0629 267.921C51.9057 267.993 51.7657 268.098 51.6522 268.228C51.5386 268.359 51.4543 268.512 51.4047 268.677C51.355 268.843 51.3413 269.017 51.3644 269.188C51.3875 269.36 51.4469 269.524 51.5386 269.671C53.1116 272.261 54.0019 273.437 55.941 276.739C57.1281 278.716 58.6715 281.86 60.3137 284.648C61.9559 287.436 64.7458 286.022 64.2709 284.707C62.2923 278.825 63.2816 277.115 63.7169 274.505C63.7955 274.052 63.7188 273.585 63.4993 273.18Z" fill="#18113C"/>
<path d="M124.114 305.557H115.537C115.388 305.553 115.243 305.602 115.128 305.697C115.014 305.791 114.937 305.924 114.913 306.071L113.726 312.863C113.704 313.032 113.718 313.204 113.767 313.367C113.816 313.53 113.9 313.681 114.012 313.809C114.125 313.937 114.263 314.04 114.419 314.11C114.574 314.181 114.743 314.217 114.913 314.217C117.881 314.168 119.355 313.99 123.135 313.99C125.459 313.99 130.258 314.237 133.463 314.237C136.668 314.237 136.916 311.063 135.59 310.777C129.654 309.492 127.329 307.712 125.351 306.022C125.004 305.73 124.567 305.566 124.114 305.557Z" fill="#18113C"/>
<path d="M125.904 289.116L124.648 298.864L117.1 297.598L118.267 288.562L125.904 289.116Z" fill="#9E4541"/>
<path d="M70.2164 258.153L75.4993 263.818L69.5734 268.059L64.1025 262.523L70.2164 258.153Z" fill="#9E4541"/>
<path d="M116.575 129.823L147.244 135.755C161.678 93.1364 158.245 91.8018 158.245 91.8018C156.003 90.5867 153.691 89.5071 151.32 88.569L150.904 88.4207C148.925 87.6991 148.53 87.6002 145.908 86.8291C141.397 85.7713 137.192 84.8519 131.998 84.15L131.009 84.0116C130.069 83.893 129.139 83.7941 128.239 83.7051C127.626 83.6359 127.022 83.5964 126.439 83.5568L124.46 83.4481C121.116 83.2899 118.722 83.3393 118.722 83.3393C120.414 109.943 119.137 117.545 116.575 129.823Z" fill="#754FFE"/>
<path opacity="0.5" d="M116.575 129.823L147.244 135.755C161.678 93.1364 158.245 91.8018 158.245 91.8018C156.003 90.5867 153.691 89.5071 151.32 88.569L150.904 88.4207C148.925 87.6991 148.53 87.6002 145.908 86.8291C141.397 85.7713 137.192 84.8519 131.998 84.15L131.009 84.0116C130.069 83.893 129.139 83.7941 128.239 83.7051C127.626 83.6359 127.022 83.5964 126.439 83.5568L124.46 83.4481C121.116 83.2899 118.722 83.3393 118.722 83.3393C120.414 109.943 119.137 117.545 116.575 129.823Z" fill="black"/>
<path d="M152.022 104.753C151.143 109.206 151.453 113.813 152.922 118.109C155.465 109.785 156.879 104.09 157.691 100.195C155.346 99.8887 152.843 100.65 152.022 104.753Z" fill="#754FFE"/>
<path opacity="0.6" d="M152.022 104.753C151.143 109.206 151.453 113.813 152.922 118.109C155.465 109.785 156.879 104.09 157.691 100.195C155.346 99.8887 152.843 100.65 152.022 104.753Z" fill="black"/>
<path d="M157.957 91.6539C163.072 94.9854 166.327 102.41 167.188 106.651L155.316 116.31C155.316 116.31 148.856 101.896 150.973 98.2182C153.199 94.3824 156.028 90.3983 157.957 91.6539Z" fill="#754FFE"/>
<path opacity="0.5" d="M157.957 91.6539C163.072 94.9854 166.327 102.41 167.188 106.651L155.316 116.31C155.316 116.31 148.856 101.896 150.973 98.2182C153.199 94.3824 156.028 90.3983 157.957 91.6539Z" fill="black"/>
<path d="M135.144 58.2583C134.382 65.7716 133.888 68.9351 137.034 73.4728C141.763 80.304 151.201 79.8789 154.208 72.8104C156.919 66.4537 157.72 55.2331 150.894 50.8635C149.442 49.8768 147.757 49.2851 146.006 49.1467C144.256 49.0083 142.499 49.328 140.91 50.0743C139.32 50.8206 137.953 51.9677 136.942 53.4028C135.931 54.8378 135.311 56.5112 135.144 58.2583Z" fill="#FF8B7B"/>
<path d="M135.254 42.9254C130.634 46.3459 133.592 47.1664 131.623 50.6167C129.516 54.314 127.3 50.1026 123.105 54.1657C120.384 56.8053 125.084 59.603 121.651 64.2494C119.019 67.8578 116.17 64.7338 117.278 72.1582C118.04 77.21 114.943 76.5773 112.856 79.4343C109.888 83.5271 112.549 86.4633 120.187 88.0055C127.824 89.5477 122.383 97.2192 129.565 97.4466C137.4 97.7036 135.58 87.5013 139.399 89.9827C143.217 92.4641 150.172 90.2002 149.747 84.1005C149.371 78.505 143.148 78.7028 148.184 74.8769C152.141 71.9111 153.338 71.9111 150.548 65.5445C148.184 60.127 156.87 60.9574 156.712 56.2616C156.415 47.7893 150.548 50.33 148.698 45.99C147.501 43.1428 141.17 38.536 135.254 42.9254Z" fill="#18113C"/>
<path d="M149.757 62.1731C149.796 63.577 150.269 64.9344 151.112 66.0583C152.28 67.6499 153.655 67.2347 153.991 65.7716C154.298 64.4568 154.06 62.0446 152.566 60.9374C151.073 59.8301 149.767 60.6012 149.757 62.1731Z" fill="#FF8B7B"/>
<path d="M139.122 134.192C139.122 134.192 124.203 184.127 116.912 212.885C109.215 243.235 72.5119 267.96 72.5119 267.96L64.6865 260.209C64.6865 260.209 89.2212 239.518 96.6707 211.195C111.797 153.717 104.516 141.538 116.575 129.853L139.122 134.192Z" fill="#754FFE"/>
<path opacity="0.8" d="M139.122 134.192C139.122 134.192 124.203 184.127 116.912 212.885C109.215 243.235 72.5119 267.96 72.5119 267.96L64.6865 260.209C64.6865 260.209 89.2212 239.518 96.6707 211.195C111.797 153.717 104.516 141.538 116.575 129.853L139.122 134.192Z" fill="white"/>
<path d="M73.1944 269.098L63.4102 259.38L66.0714 256.434L77.9727 266.557L73.1944 269.098Z" fill="#754FFE"/>
<path d="M132.117 144.83C122.323 152.373 121.67 181.122 121.897 194.112C126.844 175.951 132.78 155.754 136.203 144.069C135.263 143.278 133.917 143.436 132.117 144.83Z" fill="#754FFE"/>
<path opacity="0.6" d="M132.117 144.83C122.323 152.373 121.67 181.122 121.897 194.112C126.844 175.951 132.78 155.754 136.203 144.069C135.263 143.278 133.917 143.436 132.117 144.83Z" fill="white"/>
<path d="M65.082 277.253C64.9903 277.268 64.8967 277.268 64.805 277.253C63.875 276.966 63.2122 275.276 62.8956 274.287C62.8859 274.254 62.8864 274.218 62.8969 274.185C62.9075 274.151 62.9277 274.122 62.955 274.1C62.9837 274.079 63.0184 274.067 63.0539 274.067C63.0895 274.067 63.1241 274.079 63.1529 274.1C63.4397 274.238 65.913 275.533 66.0119 276.502C66.021 276.61 66.0021 276.719 65.957 276.817C65.912 276.916 65.8423 277.001 65.7547 277.065C65.5582 277.202 65.321 277.268 65.082 277.253ZM63.3903 274.554C63.8454 275.859 64.3796 276.709 64.9039 276.868C65.015 276.896 65.1315 276.895 65.2423 276.866C65.3532 276.836 65.4546 276.779 65.5371 276.7C65.5764 276.675 65.6077 276.639 65.6271 276.597C65.6464 276.555 65.653 276.508 65.6459 276.462C65.5964 275.948 64.3598 275.098 63.3903 274.554Z" fill="#754FFE"/>
<path d="M146.749 135.755C146.749 135.755 148.659 196.178 144.385 218.936C139.943 242.603 126.409 296.452 126.409 296.452L115.398 295.028C115.398 295.028 122.324 240.655 125.291 217.117C128.507 191.472 124.302 131.415 124.302 131.415L146.749 135.755Z" fill="#754FFE"/>
<path opacity="0.8" d="M146.749 135.755C146.749 135.755 148.659 196.178 144.385 218.936C139.943 242.603 126.409 296.452 126.409 296.452L115.398 295.028C115.398 295.028 122.324 240.655 125.291 217.117C128.507 191.472 124.302 131.415 124.302 131.415L146.749 135.755Z" fill="white"/>
<path d="M128.754 297.075L113.054 295.058L113.242 291.331L130.327 292.073L128.754 297.075Z" fill="#754FFE"/>
<path d="M65.3293 274.87C64.5151 274.865 63.7117 274.683 62.9748 274.337C62.9494 274.318 62.9283 274.295 62.913 274.267C62.8976 274.24 62.8883 274.21 62.8857 274.178C62.8879 274.146 62.8981 274.115 62.9154 274.087C62.9326 274.059 62.9564 274.036 62.9847 274.02C63.0638 273.971 64.9633 272.893 65.9526 273.239C66.0887 273.282 66.214 273.353 66.3199 273.449C66.4258 273.545 66.5097 273.662 66.5659 273.793C66.6391 273.919 66.6663 274.067 66.6429 274.211C66.6194 274.355 66.5468 274.487 66.4373 274.584C66.1106 274.801 65.7204 274.902 65.3293 274.87ZM63.4694 274.169C64.3301 274.515 65.824 274.663 66.2197 274.307C66.2889 274.258 66.3483 274.159 66.2197 273.941C66.1877 273.856 66.1361 273.779 66.0691 273.717C66.0021 273.656 65.9215 273.61 65.8339 273.585C65.0046 273.534 64.1794 273.737 63.4694 274.169Z" fill="#754FFE"/>
<path d="M126.953 306.891C126.148 306.874 125.346 306.781 124.559 306.614C124.522 306.607 124.488 306.589 124.462 306.563C124.435 306.536 124.418 306.502 124.41 306.466C124.404 306.428 124.411 306.389 124.429 306.356C124.447 306.322 124.475 306.295 124.509 306.278C124.856 306.1 127.952 304.538 128.872 305.062C128.957 305.11 129.029 305.178 129.081 305.261C129.133 305.344 129.163 305.439 129.169 305.537C129.188 305.701 129.166 305.868 129.103 306.022C129.041 306.176 128.941 306.311 128.813 306.416C128.266 306.783 127.609 306.951 126.953 306.891ZM125.162 306.357C126.844 306.634 128.13 306.565 128.575 306.149C128.658 306.079 128.723 305.988 128.762 305.886C128.802 305.785 128.816 305.675 128.803 305.566C128.804 305.527 128.794 305.488 128.775 305.453C128.756 305.418 128.728 305.389 128.694 305.368C128.189 305.092 126.438 305.754 125.162 306.357Z" fill="#754FFE"/>
<path d="M124.608 306.615C124.576 306.623 124.542 306.623 124.509 306.615C124.483 306.596 124.461 306.57 124.448 306.541C124.434 306.512 124.428 306.479 124.43 306.447C124.43 306.308 124.836 302.996 126.656 303.194C127.151 303.243 127.299 303.501 127.329 303.698C127.467 304.558 125.617 306.219 124.687 306.664L124.608 306.615ZM126.518 303.52C125.41 303.52 124.974 305.339 124.846 306.11C125.835 305.547 127.052 304.242 126.973 303.728C126.973 303.728 126.973 303.56 126.617 303.53L126.518 303.52Z" fill="#754FFE"/>
<path d="M116.417 127.955L114.587 130.407C114.439 130.605 114.657 130.862 115.013 130.931L147.135 137.149C147.412 137.209 147.67 137.149 147.709 136.942L148.441 134.272C148.441 134.085 148.273 133.887 147.976 133.827L116.952 127.817C116.858 127.79 116.76 127.789 116.666 127.813C116.572 127.838 116.486 127.887 116.417 127.955Z" fill="#754FFE"/>
<path d="M120.009 132.206L119.178 132.047C119.019 132.047 118.901 131.899 118.93 131.8L119.92 128.34C119.92 128.241 120.108 128.182 120.266 128.212L121.097 128.37C121.265 128.37 121.374 128.518 121.344 128.617L120.355 132.077C120.335 132.176 120.177 132.235 120.009 132.206Z" fill="#754FFE"/>
<path opacity="0.8" d="M120.009 132.206L119.178 132.047C119.019 132.047 118.901 131.899 118.93 131.8L119.92 128.34C119.92 128.241 120.108 128.182 120.266 128.212L121.097 128.37C121.265 128.37 121.374 128.518 121.344 128.617L120.355 132.077C120.335 132.176 120.177 132.235 120.009 132.206Z" fill="white"/>
<path d="M140.991 136.319L140.16 136.151C139.992 136.151 139.883 136.012 139.913 135.914L140.902 132.444C140.902 132.345 141.09 132.285 141.259 132.325L142.09 132.483C142.258 132.483 142.367 132.621 142.337 132.73L141.348 136.19C141.318 136.289 141.16 136.348 140.991 136.319Z" fill="#754FFE"/>
<path opacity="0.8" d="M140.991 136.319L140.16 136.151C139.992 136.151 139.883 136.012 139.913 135.914L140.902 132.444C140.902 132.345 141.09 132.285 141.259 132.325L142.09 132.483C142.258 132.483 142.367 132.621 142.337 132.73L141.348 136.19C141.318 136.289 141.16 136.348 140.991 136.319Z" fill="white"/>
<path d="M56.3868 12.1612C56.3868 13.7461 55.1011 15.0315 53.5142 15.0315C51.9274 15.0315 50.6416 13.7461 50.6416 12.1612C50.6416 10.5764 51.9274 9.29102 53.5142 9.29102C55.1011 9.29102 56.3868 10.5764 56.3868 12.1612Z" stroke="white"/>
<path d="M65.38 12.1612C65.38 13.7461 64.0942 15.0315 62.5074 15.0315C60.9205 15.0315 59.6348 13.7461 59.6348 12.1612C59.6348 10.5764 60.9205 9.29102 62.5074 9.29102C64.0942 9.29102 65.38 10.5764 65.38 12.1612Z" stroke="white"/>
<path d="M74.3742 12.1612C74.3742 13.7461 73.0884 15.0315 71.5015 15.0315C69.9147 15.0315 68.6289 13.7461 68.6289 12.1612C68.6289 10.5764 69.9147 9.29102 71.5015 9.29102C73.0884 9.29102 74.3742 10.5764 74.3742 12.1612Z" stroke="white"/>
<defs>
<filter id="filter0_d" x="276.175" y="173.124" width="114.963" height="35.8261" filterUnits="userSpaceOnUse" color-interpolation-filters="sRGB">
<feFlood flood-opacity="0" result="BackgroundImageFix"/>
<feColorMatrix in="SourceAlpha" type="matrix" values="0 0 0 0 0 0 0 0 0 0 0 0 0 0 0 0 0 0 127 0"/>
<feOffset dy="2"/>
<feGaussianBlur stdDeviation="1"/>
<feColorMatrix type="matrix" values="0 0 0 0 0 0 0 0 0 0 0 0 0 0 0 0 0 0 0.5 0"/>
<feBlend mode="normal" in2="BackgroundImageFix" result="effect1_dropShadow"/>
<feBlend mode="normal" in="SourceGraphic" in2="effect1_dropShadow" result="shape"/>
</filter>
<filter id="filter1_d" x="198.473" y="191.114" width="28.6148" height="28.5972" filterUnits="userSpaceOnUse" color-interpolation-filters="sRGB">
<feFlood flood-opacity="0" result="BackgroundImageFix"/>
<feColorMatrix in="SourceAlpha" type="matrix" values="0 0 0 0 0 0 0 0 0 0 0 0 0 0 0 0 0 0 127 0"/>
<feOffset dy="2"/>
<feGaussianBlur stdDeviation="1"/>
<feColorMatrix type="matrix" values="0 0 0 0 0 0 0 0 0 0 0 0 0 0 0 0 0 0 0.5 0"/>
<feBlend mode="normal" in2="BackgroundImageFix" result="effect1_dropShadow"/>
<feBlend mode="normal" in="SourceGraphic" in2="effect1_dropShadow" result="shape"/>
</filter>
<filter id="filter2_d" x="233.278" y="187.026" width="28.6151" height="28.5975" filterUnits="userSpaceOnUse" color-interpolation-filters="sRGB">
<feFlood flood-opacity="0" result="BackgroundImageFix"/>
<feColorMatrix in="SourceAlpha" type="matrix" values="0 0 0 0 0 0 0 0 0 0 0 0 0 0 0 0 0 0 127 0"/>
<feOffset dy="2"/>
<feGaussianBlur stdDeviation="1"/>
<feColorMatrix type="matrix" values="0 0 0 0 0 0 0 0 0 0 0 0 0 0 0 0 0 0 0.5 0"/>
<feBlend mode="normal" in2="BackgroundImageFix" result="effect1_dropShadow"/>
<feBlend mode="normal" in="SourceGraphic" in2="effect1_dropShadow" result="shape"/>
</filter>
</defs>
</svg>
