<svg width="1406" height="462" viewBox="0 0 1406 462" fill="none" xmlns="http://www.w3.org/2000/svg">
<g filter="url(#filter0_dd)">
<rect x="1320" y="164" width="56" height="56" rx="8" fill="white"/>
<g clip-path="url(#clip0)">
<path d="M1350.96 204.974L1351.26 199.862L1352.09 198.415C1352.09 198.415 1350.2 199.204 1347.03 199.204C1343.85 199.204 1341.99 198.43 1341.99 198.43L1342.92 200.008L1343.25 204.974C1343.25 205.507 1344.98 205.938 1347.1 205.938C1349.23 205.938 1350.96 205.507 1350.96 204.974ZM1350.01 181.099L1350.64 178.553L1354.14 174.801L1353.22 174L1349.51 177.998L1348.78 181.039C1348.22 181.02 1347.67 181.011 1347.12 181.011C1343.21 181.011 1340.04 181.464 1340.04 182.023C1340.04 182.582 1343.21 183.035 1347.12 183.035C1351.02 183.035 1354.19 182.582 1354.19 182.023C1354.19 181.611 1352.47 181.257 1350.01 181.099Z" fill="#D34A47"/>
<path d="M1349.64 182.575C1349.64 182.575 1349.5 182.606 1349.1 182.608C1348.7 182.61 1348.41 182.605 1348.3 182.5C1348.26 182.471 1348.25 182.415 1348.25 182.377C1348.25 182.304 1348.3 182.261 1348.36 182.234L1348.42 182.332C1348.4 182.341 1348.38 182.352 1348.38 182.364C1348.38 182.419 1348.8 182.457 1349.11 182.453C1349.43 182.449 1349.81 182.422 1349.81 182.368C1349.81 182.352 1349.78 182.336 1349.73 182.324L1349.79 182.227C1349.87 182.253 1349.94 182.303 1349.94 182.389C1349.94 182.536 1349.76 182.558 1349.64 182.575Z" fill="white"/>
<path d="M1354.14 174.858C1354.22 174.755 1354.09 174.49 1353.84 174.267C1353.58 174.044 1353.31 173.947 1353.22 174.05C1353.13 174.154 1353.27 174.419 1353.52 174.642C1353.77 174.865 1354.05 174.962 1354.14 174.858ZM1350.79 192.537C1350.71 191.723 1352.54 190.546 1352.07 190.508C1351.06 190.567 1350.55 191.714 1350.04 192.916C1349.86 193.357 1349.22 195.235 1348.8 195.004C1348.38 194.772 1349.34 193.228 1349.61 192.311C1349.3 192.543 1348.16 193.444 1347.87 192.6C1347.4 193.008 1346.39 193.229 1346.5 192.157C1346.25 192.61 1345.69 193.242 1345.01 192.979C1344.12 192.634 1345.52 189.753 1345.87 189.899C1346.22 190.044 1345.8 190.7 1345.69 190.955C1345.45 191.516 1345.17 192.221 1345.36 192.365C1345.68 192.613 1346.55 191.43 1346.57 191.404C1346.73 191.185 1347.19 189.755 1347.57 189.919C1347.94 190.083 1346.63 191.972 1347.12 192.347C1347.22 192.422 1347.62 192.3 1347.87 192.03C1348.03 191.856 1347.97 191.47 1348.5 190.188C1349.03 188.906 1349.5 187.31 1349.86 187.432C1350.22 187.553 1349.92 188.372 1349.79 188.678C1349.19 190.111 1348.13 192.479 1348.63 192.3C1349.13 192.121 1349.38 192.11 1349.87 191.53C1350.36 190.951 1350.34 189.995 1350.66 190.016C1350.98 190.036 1350.93 190.342 1350.85 190.575C1351.17 190.203 1352.37 189.42 1352.65 190.196C1353 191.115 1350.94 192.442 1351.46 192.374C1351.95 192.308 1352.76 191.787 1353.11 191.314L1354.06 182.628C1354.06 182.628 1353.1 183.433 1347.02 183.433C1340.95 183.433 1340.09 182.645 1340.09 182.645L1340.9 190.573C1341.33 189.332 1342.35 186.822 1343.95 186.907C1344.68 186.945 1345.66 188.376 1344.82 188.425C1344.47 188.445 1344.43 187.71 1344.02 187.602C1343.71 187.524 1343.29 187.774 1343.02 188.045C1342.48 188.585 1341.31 190.715 1341.47 191.777C1341.66 193.131 1343.3 191.307 1343.58 190.765C1343.78 190.384 1343.91 189.253 1344.33 189.372C1344.76 189.49 1344.3 190.657 1343.99 191.689C1343.64 192.847 1343.46 194.069 1343.02 193.928C1342.58 193.788 1343.3 192.292 1343.27 192.03C1342.86 192.415 1342.1 193.39 1341.14 192.908L1341.64 197.831C1341.64 197.831 1342.97 198.903 1346.99 198.903C1351.01 198.903 1352.39 197.848 1352.39 197.848L1353.02 192.145C1352.51 192.651 1350.89 193.548 1350.79 192.537Z" fill="#D34A47"/>
</g>
</g>
<g filter="url(#filter1_dd)">
<rect x="1256" y="31" width="56" height="56" rx="8" fill="white"/>
<path d="M1284 43C1275.16 43 1268 50.1629 1268 59C1268 67.8371 1275.16 75 1284 75C1292.84 75 1300 67.8371 1300 59C1300 50.1629 1292.84 43 1284 43ZM1271.44 59.1664L1283.83 71.5619C1277.03 71.4736 1271.53 65.9734 1271.44 59.1664ZM1286.81 71.2483L1271.75 56.1878C1273.03 50.6032 1278.03 46.4355 1284 46.4355C1288.17 46.4355 1291.87 48.472 1294.16 51.6054L1292.42 53.1402C1290.57 50.4829 1287.49 48.7434 1284 48.7434C1279.56 48.7434 1275.78 51.5619 1274.35 55.5069L1287.49 68.6448C1290.68 67.489 1293.14 64.7958 1293.96 61.4602H1288.51V59H1296.57C1296.56 64.9725 1292.4 69.9709 1286.81 71.2483Z" fill="#833BF9"/>
</g>
<g filter="url(#filter2_dd)">
<rect x="1050" y="15" width="56" height="56" rx="8" fill="white"/>
<g clip-path="url(#clip1)" filter="url(#filter3_d)">
<path d="M1078 27L1092.14 35V51L1078 59.0001L1063.86 51V35L1078 27Z" fill="white"/>
<path d="M1089.62 50.448L1078.47 56.7546V51.8426L1085.41 48.0213L1089.62 50.448ZM1090.38 49.7573V36.568L1086.3 38.9227V47.4L1090.38 49.7573ZM1066.34 50.448L1077.49 56.7546V51.8426L1070.54 48.0213L1066.34 50.448ZM1065.58 49.7573V36.568L1069.66 38.9227V47.4L1065.58 49.7573ZM1066.05 35.7147L1077.49 29.2454V33.9947L1070.16 38.024L1070.11 38.056L1066.05 35.7147ZM1089.9 35.7147L1078.47 29.2454V33.9947L1085.79 38.024L1085.85 38.056L1089.9 35.7147Z" fill="#8ED6FB"/>
<path d="M1077.49 50.7253L1070.63 46.9573V39.4907L1077.49 43.448V50.7253ZM1078.47 50.7253L1085.32 46.9573V39.4907L1078.47 43.448V50.7253ZM1071.1 38.6267L1077.98 34.8427L1084.86 38.6267L1077.98 42.6L1071.1 38.6267Z" fill="#1C78C0"/>
</g>
</g>
<g filter="url(#filter4_dd)">
<rect x="1177" y="232" width="56" height="56" rx="8" fill="white"/>
<g clip-path="url(#clip2)">
<path d="M1216.54 261.371C1215.43 261.378 1214.46 261.658 1213.64 262.076C1213.34 261.456 1213.04 260.915 1212.99 260.51C1212.94 260.041 1212.87 259.754 1212.94 259.193C1213.01 258.632 1213.32 257.836 1213.32 257.771C1213.31 257.712 1213.25 257.426 1212.61 257.419C1211.96 257.412 1211.41 257.549 1211.34 257.726C1211.28 257.902 1211.16 258.306 1211.08 258.723C1210.96 259.336 1209.79 261.508 1209.12 262.649C1208.9 262.206 1208.71 261.815 1208.68 261.502C1208.62 261.032 1208.55 260.745 1208.62 260.184C1208.69 259.623 1209 258.828 1209 258.762C1208.99 258.704 1208.93 258.417 1208.29 258.41C1207.64 258.404 1207.09 258.541 1207.03 258.717C1206.96 258.893 1206.89 259.31 1206.76 259.715C1206.63 260.119 1205.06 263.745 1204.66 264.691C1204.45 265.173 1204.27 265.558 1204.14 265.819C1204.01 266.08 1204.13 265.839 1204.12 265.865C1204.01 266.086 1203.94 266.21 1203.94 266.21V266.217C1203.86 266.38 1203.76 266.536 1203.72 266.536C1203.69 266.536 1203.63 266.099 1203.73 265.499C1203.96 264.241 1204.53 262.278 1204.52 262.206C1204.52 262.173 1204.63 261.828 1204.16 261.652C1203.7 261.476 1203.54 261.769 1203.5 261.769C1203.46 261.769 1203.43 261.873 1203.43 261.873C1203.43 261.873 1203.94 259.663 1202.46 259.663C1201.54 259.663 1200.26 260.713 1199.63 261.671C1199.23 261.9 1198.38 262.382 1197.48 262.897C1197.14 263.093 1196.78 263.302 1196.44 263.491L1196.38 263.412C1194.59 261.423 1191.28 260.015 1191.42 257.341C1191.47 256.369 1191.79 253.806 1197.77 250.702C1202.66 248.158 1206.58 248.856 1207.26 250.408C1208.23 252.626 1205.17 256.747 1200.08 257.341C1198.14 257.569 1197.13 256.786 1196.87 256.493C1196.6 256.186 1196.56 256.173 1196.46 256.232C1196.3 256.323 1196.4 256.597 1196.46 256.76C1196.61 257.171 1197.24 257.902 1198.3 258.267C1199.23 258.586 1201.51 258.762 1204.26 257.654C1207.34 256.408 1209.74 252.952 1209.04 250.062C1208.32 247.121 1203.64 246.156 1199.23 247.793C1196.59 248.771 1193.74 250.297 1191.69 252.299C1189.26 254.673 1188.87 256.747 1189.03 257.608C1189.6 260.68 1193.66 262.682 1195.28 264.162C1195.2 264.208 1195.13 264.254 1195.06 264.293C1194.24 264.71 1191.15 266.399 1190.38 268.186C1189.5 270.208 1190.51 271.662 1191.19 271.858C1193.28 272.465 1195.41 271.376 1196.57 269.582C1197.72 267.789 1197.58 265.46 1197.05 264.397L1197.03 264.358L1197.67 263.967C1198.08 263.712 1198.49 263.478 1198.84 263.275C1198.64 263.843 1198.5 264.515 1198.43 265.493C1198.34 266.641 1198.79 268.128 1199.38 268.715C1199.64 268.969 1199.96 268.975 1200.15 268.975C1200.84 268.975 1201.15 268.382 1201.49 267.671C1201.92 266.804 1202.29 265.799 1202.29 265.799C1202.29 265.799 1201.83 268.519 1203.11 268.519C1203.58 268.519 1204.04 267.886 1204.26 267.56V267.567C1204.26 267.567 1204.27 267.547 1204.29 267.502C1204.32 267.461 1204.35 267.42 1204.37 267.378V267.365C1204.56 267.026 1204.98 266.249 1205.6 264.965C1206.41 263.308 1207.18 261.234 1207.18 261.234C1207.18 261.234 1207.26 261.743 1207.49 262.578C1207.63 263.073 1207.93 263.615 1208.16 264.143C1207.97 264.417 1207.86 264.573 1207.86 264.573L1207.86 264.58C1207.71 264.789 1207.54 265.01 1207.37 265.232C1206.73 266.028 1205.97 266.934 1205.87 267.195C1205.75 267.502 1205.78 267.73 1206.01 267.913C1206.18 268.043 1206.48 268.069 1206.79 268.043C1207.37 268.004 1207.77 267.854 1207.97 267.763C1208.28 267.645 1208.64 267.469 1208.98 267.208C1209.61 266.726 1209.99 266.041 1209.95 265.128C1209.93 264.626 1209.78 264.13 1209.58 263.66C1209.64 263.576 1209.69 263.491 1209.75 263.4C1210.74 261.893 1211.5 260.237 1211.5 260.237C1211.5 260.237 1211.58 260.745 1211.81 261.58C1211.93 262.004 1212.16 262.467 1212.38 262.924C1211.45 263.713 1210.87 264.626 1210.67 265.226C1210.3 266.334 1210.59 266.837 1211.13 266.954C1211.38 267.006 1211.73 266.889 1211.99 266.771C1212.31 266.66 1212.71 266.471 1213.07 266.191C1213.69 265.708 1214.29 265.037 1214.26 264.13C1214.24 263.713 1214.14 263.302 1213.99 262.91C1214.78 262.571 1215.8 262.376 1217.09 262.539C1219.88 262.878 1220.43 264.691 1220.32 265.447C1220.21 266.204 1219.63 266.621 1219.44 266.752C1219.24 266.876 1219.18 266.921 1219.2 267.013C1219.23 267.15 1219.31 267.143 1219.48 267.117C1219.71 267.078 1220.94 266.498 1220.99 265.102C1221.07 263.308 1219.44 261.352 1216.54 261.371ZM1195.09 268.917C1194.18 269.967 1192.88 270.365 1192.33 270.026C1191.74 269.667 1191.97 268.121 1193.1 267.006C1193.79 266.328 1194.68 265.702 1195.27 265.317C1195.4 265.232 1195.6 265.108 1195.84 264.958C1195.88 264.932 1195.9 264.919 1195.9 264.919C1195.94 264.893 1195.99 264.86 1196.04 264.828C1196.46 266.419 1196.06 267.815 1195.09 268.917ZM1201.81 264.149C1201.49 264.965 1200.82 267.058 1200.41 266.941C1200.06 266.843 1199.85 265.258 1200.34 263.693C1200.59 262.904 1201.13 261.965 1201.44 261.599C1201.94 261.012 1202.49 260.817 1202.63 261.058C1202.79 261.371 1202.01 263.641 1201.81 264.149ZM1207.36 266.915C1207.22 266.986 1207.09 267.039 1207.04 266.999C1206.99 266.973 1207.09 266.876 1207.09 266.876C1207.09 266.876 1207.79 266.099 1208.06 265.741C1208.22 265.532 1208.41 265.291 1208.61 265.017V265.095C1208.61 266.034 1207.74 266.66 1207.36 266.915ZM1211.63 265.897C1211.53 265.819 1211.54 265.578 1211.88 264.821C1212.01 264.521 1212.31 264.019 1212.83 263.543C1212.89 263.739 1212.93 263.928 1212.93 264.104C1212.92 265.278 1212.12 265.715 1211.63 265.897Z" fill="#E756AD"/>
</g>
</g>
<g filter="url(#filter5_dd)">
<rect x="1291" y="344" width="56" height="56" rx="8" fill="white"/>
<g clip-path="url(#clip3)">
<path d="M1334.65 363.3C1334.66 363.343 1334.67 363.386 1334.67 363.43V370.257C1334.67 370.345 1334.64 370.431 1334.6 370.507C1334.56 370.583 1334.49 370.645 1334.42 370.689L1328.73 373.988V380.527C1328.73 380.705 1328.64 380.869 1328.48 380.959L1316.61 387.844C1316.58 387.86 1316.55 387.87 1316.52 387.88C1316.51 387.884 1316.5 387.891 1316.49 387.894C1316.41 387.916 1316.32 387.916 1316.24 387.894C1316.22 387.89 1316.21 387.883 1316.2 387.878C1316.17 387.868 1316.14 387.859 1316.12 387.844L1304.25 380.959C1304.17 380.915 1304.11 380.852 1304.07 380.776C1304.02 380.7 1304 380.614 1304 380.527V360.046C1304 360.001 1304.01 359.958 1304.02 359.915C1304.02 359.901 1304.03 359.888 1304.03 359.874C1304.04 359.848 1304.05 359.821 1304.07 359.797C1304.08 359.78 1304.09 359.767 1304.1 359.752C1304.11 359.732 1304.13 359.712 1304.14 359.695C1304.16 359.68 1304.18 359.67 1304.19 359.657C1304.21 359.642 1304.23 359.626 1304.25 359.614H1304.25L1310.18 356.172C1310.26 356.128 1310.34 356.105 1310.43 356.105C1310.52 356.105 1310.6 356.128 1310.68 356.172L1316.61 359.614H1316.61C1316.63 359.627 1316.65 359.642 1316.67 359.657C1316.68 359.669 1316.7 359.68 1316.72 359.694C1316.73 359.712 1316.75 359.732 1316.76 359.752C1316.77 359.767 1316.78 359.78 1316.79 359.797C1316.81 359.821 1316.82 359.848 1316.83 359.874C1316.83 359.888 1316.84 359.901 1316.84 359.916C1316.85 359.958 1316.86 360.002 1316.86 360.046V372.838L1321.81 369.969V363.43C1321.81 363.386 1321.81 363.342 1321.82 363.3C1321.83 363.285 1321.84 363.272 1321.84 363.258C1321.85 363.232 1321.86 363.205 1321.87 363.181C1321.88 363.165 1321.9 363.152 1321.91 363.137C1321.92 363.117 1321.93 363.096 1321.95 363.079C1321.96 363.064 1321.98 363.054 1322 363.041C1322.02 363.026 1322.03 363.01 1322.05 362.998H1322.05L1327.99 359.556C1328.06 359.512 1328.15 359.489 1328.24 359.489C1328.32 359.489 1328.41 359.512 1328.48 359.556L1334.42 362.998C1334.44 363.011 1334.45 363.026 1334.47 363.041C1334.49 363.053 1334.51 363.064 1334.52 363.078C1334.54 363.096 1334.55 363.117 1334.57 363.137C1334.58 363.152 1334.59 363.165 1334.6 363.181C1334.61 363.205 1334.62 363.232 1334.63 363.258C1334.64 363.272 1334.64 363.285 1334.65 363.3ZM1333.68 369.969V364.292L1331.6 365.497L1328.73 367.161V372.838L1333.68 369.969H1333.68ZM1327.74 380.239V374.558L1324.92 376.182L1316.86 380.816V386.55L1327.74 380.239ZM1304.99 360.908V380.239L1315.87 386.55V380.817L1310.19 377.576L1310.18 377.574L1310.18 377.573C1310.16 377.562 1310.15 377.546 1310.13 377.532C1310.11 377.52 1310.09 377.51 1310.08 377.496L1310.08 377.494C1310.06 377.479 1310.05 377.459 1310.04 377.442C1310.03 377.425 1310.01 377.411 1310 377.393L1310 377.391C1309.99 377.373 1309.98 377.35 1309.98 377.329C1309.97 377.311 1309.96 377.293 1309.95 377.273V377.273C1309.95 377.249 1309.94 377.224 1309.94 377.2C1309.94 377.181 1309.93 377.163 1309.93 377.144V363.777L1307.07 362.112L1304.99 360.908V360.908ZM1310.43 357.178L1305.49 360.046L1310.43 362.914L1315.37 360.045L1310.43 357.178H1310.43ZM1313 375.076L1315.87 373.412V360.908L1313.79 362.112L1310.92 363.777V376.281L1313 375.076ZM1328.24 360.562L1323.29 363.43L1328.24 366.298L1333.18 363.43L1328.24 360.562ZM1327.74 367.161L1324.87 365.497L1322.79 364.292V369.969L1325.66 371.633L1327.74 372.838V367.161ZM1316.36 379.954L1323.62 375.783L1327.24 373.699L1322.3 370.833L1316.61 374.132L1311.43 377.139L1316.36 379.954Z" fill="#E53F3C"/>
</g>
</g>
<g filter="url(#filter6_dd)">
<rect x="1072" y="330" width="56" height="56" rx="8" fill="white"/>
<g clip-path="url(#clip4)">
<path d="M1103.7 344L1100 350.686L1096.3 344H1084L1100 372.952L1116 344H1103.7Z" fill="#169B5B"/>
<path d="M1103.7 344L1100 350.686L1096.3 344H1090.4L1100 361.371L1109.6 344H1103.7Z" fill="#095F36"/>
</g>
</g>
<g filter="url(#filter7_dd)">
<rect x="1161" y="114" width="56" height="56" rx="8" fill="white"/>
<path d="M1188.01 128.33C1188.61 127.963 1189.39 127.961 1189.98 128.33C1192.99 130.153 1196 131.973 1199.01 133.798C1199.57 134.14 1199.95 134.815 1199.94 135.514V146.483C1199.95 147.211 1199.53 147.902 1198.94 148.236C1195.94 150.049 1192.94 151.865 1189.95 153.678C1189.34 154.052 1188.54 154.023 1187.95 153.618C1187.05 153.059 1186.15 152.503 1185.25 151.945C1185.07 151.827 1184.86 151.734 1184.73 151.543C1184.85 151.377 1185.05 151.356 1185.22 151.284C1185.59 151.156 1185.94 150.95 1186.28 150.751C1186.37 150.687 1186.48 150.712 1186.56 150.769C1187.33 151.242 1188.09 151.728 1188.86 152.196C1189.03 152.298 1189.19 152.163 1189.33 152.079C1192.27 150.295 1195.22 148.518 1198.16 146.734C1198.27 146.678 1198.33 146.554 1198.32 146.426C1198.32 142.807 1198.32 139.188 1198.32 135.57C1198.33 135.425 1198.25 135.291 1198.13 135.232C1195.14 133.427 1192.16 131.619 1189.17 129.814C1189.12 129.776 1189.06 129.756 1189 129.755C1188.93 129.755 1188.87 129.776 1188.82 129.814C1185.84 131.619 1182.85 133.429 1179.87 135.233C1179.74 135.293 1179.66 135.424 1179.68 135.57C1179.68 139.188 1179.68 142.807 1179.68 146.426C1179.67 146.489 1179.68 146.552 1179.71 146.606C1179.74 146.66 1179.79 146.704 1179.84 146.731C1180.64 147.216 1181.43 147.697 1182.23 148.18C1182.68 148.44 1183.23 148.594 1183.73 148.395C1184.16 148.227 1184.47 147.749 1184.46 147.251C1184.46 143.654 1184.46 140.056 1184.46 136.46C1184.45 136.3 1184.59 136.168 1184.74 136.183C1185.12 136.18 1185.5 136.178 1185.89 136.184C1186.05 136.18 1186.16 136.352 1186.14 136.513C1186.14 140.133 1186.14 143.753 1186.14 147.373C1186.14 148.338 1185.77 149.388 1184.94 149.86C1183.91 150.429 1182.64 150.309 1181.63 149.762C1180.76 149.293 1179.92 148.739 1179.06 148.237C1178.46 147.904 1178.05 147.21 1178.05 146.483V135.514C1178.05 134.8 1178.44 134.113 1179.02 133.776C1182.02 131.961 1185.01 130.145 1188.01 128.33Z" fill="#8CC84B"/>
<path d="M1190.62 135.928C1191.93 135.838 1193.33 135.875 1194.51 136.566C1195.42 137.095 1195.92 138.206 1195.94 139.291C1195.91 139.438 1195.77 139.519 1195.64 139.509C1195.26 139.508 1194.88 139.514 1194.5 139.506C1194.34 139.512 1194.25 139.353 1194.23 139.201C1194.12 138.681 1193.85 138.167 1193.4 137.917C1192.7 137.541 1191.89 137.56 1191.13 137.568C1190.57 137.599 1189.97 137.651 1189.5 138.002C1189.14 138.268 1189.03 138.805 1189.16 139.238C1189.28 139.549 1189.61 139.649 1189.89 139.741C1191.46 140.183 1193.13 140.139 1194.67 140.721C1195.31 140.958 1195.94 141.419 1196.16 142.138C1196.44 143.101 1196.32 144.252 1195.68 145.025C1195.16 145.661 1194.41 146.008 1193.66 146.196C1192.66 146.435 1191.62 146.441 1190.6 146.335C1189.64 146.218 1188.65 145.949 1187.91 145.25C1187.28 144.662 1186.97 143.747 1187 142.863C1187.01 142.713 1187.15 142.609 1187.28 142.621C1187.67 142.618 1188.05 142.617 1188.43 142.622C1188.58 142.61 1188.69 142.752 1188.7 142.906C1188.77 143.401 1188.95 143.92 1189.35 144.214C1190.12 144.751 1191.1 144.714 1191.99 144.729C1192.72 144.694 1193.55 144.683 1194.15 144.161C1194.47 143.864 1194.56 143.365 1194.48 142.937C1194.38 142.575 1194.03 142.406 1193.73 142.296C1192.17 141.768 1190.48 141.96 1188.94 141.363C1188.32 141.126 1187.72 140.678 1187.48 139.988C1187.14 139.013 1187.29 137.807 1188 137.06C1188.69 136.317 1189.68 136.031 1190.62 135.928V135.928Z" fill="#8CC84B"/>
</g>
<g filter="url(#filter8_dd)">
<rect x="188" y="121" width="56" height="56" rx="8" fill="white"/>
<g clip-path="url(#clip5)">
<path fill-rule="evenodd" clip-rule="evenodd" d="M208.985 139C207.615 139 206.602 140.196 206.648 141.494C206.691 142.741 206.635 144.355 206.227 145.672C205.819 146.992 205.128 147.829 204 147.936V149.148C205.128 149.256 205.819 150.092 206.227 151.413C206.635 152.729 206.691 154.344 206.648 155.59C206.602 156.888 207.615 158.084 208.985 158.084H223.017C224.386 158.084 225.399 156.888 225.354 155.59C225.311 154.344 225.367 152.729 225.774 151.413C226.183 150.092 226.872 149.256 228 149.148V147.936C226.872 147.829 226.183 146.992 225.774 145.672C225.367 144.355 225.311 142.741 225.354 141.494C225.399 140.197 224.386 139 223.017 139H208.985H208.985ZM220.271 150.748C220.271 152.534 218.936 153.618 216.721 153.618H212.949C212.841 153.618 212.738 153.575 212.662 153.499C212.585 153.423 212.542 153.319 212.542 153.212V143.873C212.542 143.765 212.585 143.662 212.662 143.585C212.738 143.509 212.841 143.467 212.949 143.467H216.699C218.546 143.467 219.759 144.465 219.759 145.999C219.759 147.076 218.943 148.039 217.904 148.208V148.264C219.319 148.419 220.271 149.397 220.271 150.748ZM216.309 144.754H214.159V147.786H215.97C217.37 147.786 218.142 147.223 218.142 146.217C218.142 145.274 217.478 144.754 216.309 144.754ZM214.159 148.989V152.33H216.388C217.846 152.33 218.618 151.746 218.618 150.649C218.618 149.551 217.825 148.989 216.295 148.989H214.159V148.989Z" fill="#7954FF"/>
</g>
</g>
<g filter="url(#filter9_dd)">
<rect x="291" y="15" width="56" height="56" rx="8" fill="white"/>
<path d="M307 30H331V55.3333H307V30Z" fill="#FBC812"/>
<path d="M313.311 51.1704L315.147 49.9972C315.502 50.6603 315.824 51.2214 316.597 51.2214C317.338 51.2214 317.805 50.9154 317.805 49.7252V41.6306H320.061V49.7588C320.061 52.2245 318.692 53.3469 316.694 53.3469C314.889 53.3469 313.842 52.3606 313.311 51.1702L313.311 51.1704ZM321.286 50.9153L323.122 49.793C323.606 50.6264 324.234 51.2385 325.346 51.2385C326.28 51.2385 326.876 50.7453 326.876 50.0651C326.876 49.2489 326.264 48.9597 325.233 48.4837L324.669 48.2284C323.042 47.4974 321.962 46.5791 321.962 44.6405C321.962 42.8549 323.251 41.4944 325.265 41.4944C326.699 41.4944 327.73 42.0216 328.471 43.399L326.715 44.5895C326.328 43.8583 325.909 43.5693 325.265 43.5693C324.604 43.5693 324.186 44.0114 324.186 44.5895C324.186 45.3037 324.604 45.593 325.571 46.0351L326.135 46.2901C328.052 47.1575 329.131 48.0417 329.131 50.0311C329.131 52.174 327.536 53.3472 325.394 53.3472C323.3 53.3472 321.946 52.2929 321.286 50.9154" fill="#18113C"/>
</g>
<g filter="url(#filter10_dd)">
<rect x="69" y="33" width="56" height="56" rx="8" fill="white"/>
<g clip-path="url(#clip6)">
<path d="M85.0088 52.2398L96.803 48.065L108.915 52.1656L106.954 67.6683L96.803 73.2534L86.8111 67.7425L85.0088 52.2398Z" fill="#E53F3C"/>
<path d="M108.915 52.1652L96.8032 48.0646V73.253L106.954 67.6772L108.915 52.1652Z" fill="#E53F3C"/>
<path d="M96.8223 51.0059L89.4731 67.2508L92.2185 67.2044L93.694 63.5397H100.287L101.902 67.2508L104.526 67.2972L96.8223 51.0059ZM96.8411 56.2106L99.325 61.3688H94.6558L96.8411 56.2106Z" fill="white"/>
</g>
</g>
<g filter="url(#filter11_dd)">
<rect x="204" y="242" width="56" height="56" rx="8" fill="white"/>
<path d="M244 269.911C244 271.548 242.009 273.101 238.956 274.063C239.661 277.269 239.348 279.819 237.968 280.635C237.65 280.827 237.278 280.918 236.872 280.918V279.794C237.097 279.794 237.278 279.748 237.43 279.663C238.095 279.27 238.384 277.773 238.159 275.847C238.105 275.374 238.017 274.875 237.909 274.366C236.951 274.608 235.904 274.794 234.803 274.915C234.143 275.847 233.458 276.694 232.768 277.435C234.363 278.962 235.86 279.799 236.877 279.799V280.923C235.532 280.923 233.771 279.935 231.99 278.221C230.21 279.925 228.448 280.902 227.103 280.902V279.779C228.116 279.779 229.618 278.947 231.212 277.43C230.528 276.689 229.843 275.847 229.192 274.915C228.086 274.794 227.04 274.608 226.081 274.361C225.968 274.865 225.885 275.354 225.826 275.822C225.596 277.747 225.88 279.244 226.541 279.642C226.687 279.733 226.878 279.773 227.103 279.773V280.897C226.692 280.897 226.32 280.807 225.998 280.615C224.623 279.799 224.315 277.254 225.024 274.058C221.981 273.091 220 271.543 220 269.911C220 268.273 221.991 266.72 225.044 265.758C224.339 262.552 224.652 260.002 226.032 259.186C226.35 258.994 226.722 258.904 227.132 258.904C228.478 258.904 230.239 259.891 232.02 261.605C233.8 259.901 235.561 258.924 236.907 258.924C237.318 258.924 237.689 259.014 238.012 259.206C239.387 260.022 239.695 262.568 238.986 265.763C242.019 266.725 244 268.278 244 269.911ZM237.631 273.272C237.45 272.622 237.225 271.952 236.97 271.281C236.77 271.685 236.559 272.088 236.329 272.491C236.104 272.894 235.865 273.287 235.625 273.67C236.32 273.564 236.99 273.433 237.631 273.272ZM235.39 267.905C235.009 267.224 234.617 266.579 234.211 265.979C233.482 265.914 232.744 265.879 232 265.879C231.261 265.879 230.523 265.914 229.799 265.974C229.393 266.574 228.996 267.214 228.615 267.89C228.243 268.55 227.905 269.22 227.597 269.895C227.901 270.571 228.243 271.246 228.61 271.906C228.991 272.587 229.383 273.232 229.789 273.832C230.518 273.897 231.256 273.932 232 273.932C232.739 273.932 233.477 273.897 234.201 273.837C234.607 273.237 235.004 272.597 235.385 271.921C235.757 271.261 236.095 270.591 236.403 269.916C236.095 269.24 235.757 268.565 235.39 267.905ZM236.97 268.56C237.234 267.885 237.459 267.209 237.645 266.554C237.004 266.393 236.329 266.257 235.63 266.151C235.87 266.539 236.109 266.937 236.334 267.345C236.559 267.748 236.77 268.157 236.97 268.56ZM232.01 263.182C231.555 263.666 231.1 264.205 230.65 264.795C231.09 264.775 231.54 264.76 231.995 264.76C232.455 264.76 232.91 264.77 233.355 264.795C232.915 264.205 232.46 263.666 232.01 263.182ZM228.37 266.151C227.675 266.257 227.005 266.388 226.364 266.549C226.545 267.199 226.77 267.869 227.025 268.54C227.225 268.137 227.436 267.733 227.666 267.33C227.896 266.927 228.13 266.534 228.37 266.151ZM231.985 276.639C232.44 276.155 232.895 275.616 233.345 275.026C232.905 275.046 232.455 275.061 232 275.061C231.54 275.061 231.085 275.051 230.64 275.026C231.08 275.616 231.535 276.155 231.985 276.639ZM228.365 273.67C228.126 273.282 227.886 272.884 227.661 272.476C227.436 272.073 227.225 271.669 227.025 271.266C226.761 271.942 226.536 272.617 226.35 273.272C226.991 273.428 227.666 273.564 228.365 273.67ZM223.938 267.36C222.206 268.121 221.086 269.119 221.086 269.911C221.086 270.702 222.206 271.705 223.938 272.461C224.359 272.647 224.819 272.813 225.293 272.97C225.572 271.982 225.939 270.954 226.394 269.9C225.944 268.852 225.582 267.829 225.308 266.846C224.823 267.003 224.364 267.174 223.938 267.36ZM226.57 260.158C225.905 260.552 225.616 262.048 225.841 263.974C225.895 264.447 225.983 264.946 226.091 265.455C227.049 265.213 228.096 265.027 229.197 264.906C229.857 263.974 230.542 263.127 231.232 262.386C229.637 260.859 228.14 260.022 227.123 260.022C226.903 260.027 226.717 260.073 226.57 260.158ZM238.174 263.999C238.404 262.074 238.12 260.577 237.459 260.179C237.313 260.088 237.122 260.048 236.897 260.048C235.884 260.048 234.382 260.879 232.788 262.396C233.472 263.137 234.157 263.979 234.808 264.911C235.914 265.032 236.96 265.218 237.919 265.465C238.032 264.956 238.12 264.468 238.174 263.999ZM240.057 267.36C239.636 267.174 239.177 267.008 238.702 266.851C238.423 267.839 238.056 268.867 237.601 269.921C238.051 270.969 238.413 271.992 238.687 272.975C239.172 272.819 239.631 272.647 240.062 272.461C241.794 271.7 242.914 270.702 242.914 269.911C242.909 269.119 241.789 268.116 240.057 267.36Z" fill="#1ECFFF"/>
<path d="M231.995 267.607C233.23 267.607 234.231 268.639 234.231 269.911C234.231 271.183 233.23 272.214 231.995 272.214C230.761 272.214 229.76 271.183 229.76 269.911C229.76 268.639 230.761 267.607 231.995 267.607Z" fill="#1ECFFF"/>
</g>
<g filter="url(#filter12_dd)">
<rect x="91" y="333" width="56" height="56" rx="8" fill="white"/>
<path d="M105.864 369.185H115.617C115.617 369.185 113.753 360.679 119.926 357.235C121.272 356.58 125.556 354.136 132.568 359.321C132.79 359.136 133 358.988 133 358.988C133 358.988 126.58 352.58 119.432 353.296C115.84 353.617 111.42 356.889 108.827 361.21C106.235 365.531 105.864 369.185 105.864 369.185Z" fill="#E53F3C"/>
<path d="M105.864 369.185H115.617C115.617 369.185 113.753 360.679 119.926 357.235C121.272 356.58 125.556 354.136 132.568 359.321C132.79 359.136 133 358.988 133 358.988C133 358.988 126.58 352.58 119.432 353.296C115.84 353.617 111.42 356.889 108.827 361.21C106.235 365.531 105.864 369.185 105.864 369.185Z" fill="#E53F3C"/>
<path d="M105.864 369.185H115.617C115.617 369.185 113.753 360.679 119.926 357.235C121.272 356.58 125.556 354.136 132.568 359.321C132.79 359.136 133 358.988 133 358.988C133 358.988 126.58 352.58 119.432 353.296C115.827 353.617 111.407 356.889 108.815 361.21C106.222 365.531 105.864 369.185 105.864 369.185ZM126.185 353.988L126.235 353.16C126.123 353.099 125.815 352.951 125.037 352.728L124.988 353.543C125.395 353.679 125.79 353.827 126.185 353.988Z" fill="#E53F3C"/>
<path d="M125.012 356.605L124.963 357.383C125.37 357.395 125.778 357.444 126.185 357.531L126.234 356.765C125.815 356.679 125.407 356.63 125.012 356.605ZM120.444 352.753H120.568L120.321 352C119.938 352 119.543 352.025 119.136 352.074L119.37 352.802C119.728 352.765 120.086 352.753 120.444 352.753ZM121.037 357.296L121.321 358.148C121.679 357.975 122.037 357.827 122.395 357.716L122.123 356.901C121.704 357.025 121.346 357.16 121.037 357.296ZM115.432 354.049L114.877 353.198C114.568 353.358 114.247 353.531 113.914 353.728L114.481 354.593C114.802 354.395 115.111 354.21 115.432 354.049ZM117.963 359.605L118.556 360.494C118.765 360.185 119.012 359.901 119.284 359.617L118.728 358.778C118.444 359.037 118.185 359.321 117.963 359.605ZM116.173 363.58L117.173 364.37C117.222 363.889 117.309 363.407 117.432 362.926L116.543 362.222C116.383 362.679 116.272 363.136 116.173 363.58ZM110.765 357.716L109.889 356.951C109.568 357.259 109.259 357.568 108.975 357.877L109.926 358.691C110.185 358.358 110.469 358.025 110.765 357.716ZM107.037 363.235L105.617 362.716C105.383 363.247 105.123 363.864 105 364.197L106.42 364.716C106.58 364.296 106.839 363.691 107.037 363.235ZM115.988 366.716C116.012 367.37 116.074 367.901 116.136 368.272L117.617 368.802C117.506 368.321 117.395 367.778 117.321 367.197L115.988 366.716Z" fill="#E53F3C"/>
</g>
<g filter="url(#filter13_dd)">
<rect x="30" y="193" width="56" height="56" rx="8" fill="white"/>
<path d="M57.9002 209.008C51.8228 209.008 52.2023 211.654 52.2023 211.654L52.209 214.396H58.0086V215.219H49.9055C49.9055 215.219 46.0166 214.776 46.0166 220.933C46.0166 227.09 49.411 226.871 49.411 226.871H51.4367V224.014C51.4367 224.014 51.3275 220.606 54.7769 220.606H60.529C60.529 220.606 63.7607 220.659 63.7607 217.47V212.199C63.7607 212.199 64.2515 209.008 57.9002 209.008ZM54.7023 210.852C54.8394 210.852 54.9751 210.879 55.1017 210.931C55.2284 210.984 55.3435 211.061 55.4404 211.158C55.5373 211.256 55.6141 211.371 55.6665 211.498C55.7189 211.626 55.7458 211.762 55.7457 211.899C55.7458 212.037 55.7189 212.173 55.6665 212.3C55.6141 212.428 55.5373 212.543 55.4404 212.64C55.3435 212.738 55.2284 212.815 55.1017 212.867C54.9751 212.92 54.8394 212.947 54.7023 212.947C54.5653 212.947 54.4296 212.92 54.3029 212.867C54.1763 212.815 54.0612 212.738 53.9643 212.64C53.8674 212.543 53.7906 212.428 53.7382 212.3C53.6858 212.173 53.6589 212.037 53.659 211.899C53.6589 211.762 53.6858 211.626 53.7382 211.498C53.7906 211.371 53.8674 211.256 53.9643 211.158C54.0612 211.061 54.1763 210.984 54.3029 210.931C54.4296 210.879 54.5653 210.852 54.7023 210.852Z" fill="url(#paint0_linear)"/>
<path d="M58.0701 232.918C64.1475 232.918 63.768 230.272 63.768 230.272L63.7613 227.53H57.9616V226.707H66.0647C66.0647 226.707 69.9536 227.15 69.9536 220.993C69.9536 214.836 66.5593 215.055 66.5593 215.055H64.5335V217.912C64.5335 217.912 64.6427 221.32 61.1933 221.32H55.4412C55.4412 221.32 52.2095 221.267 52.2095 224.456V229.727C52.2095 229.727 51.7187 232.918 58.07 232.918H58.0701ZM61.268 231.074C61.1309 231.075 60.9952 231.047 60.8686 230.995C60.7419 230.942 60.6268 230.865 60.5299 230.768C60.433 230.671 60.3562 230.555 60.3038 230.428C60.2514 230.301 60.2245 230.164 60.2246 230.027C60.2245 229.889 60.2514 229.753 60.3038 229.626C60.3562 229.499 60.433 229.383 60.5299 229.286C60.6268 229.188 60.7419 229.111 60.8685 229.059C60.9952 229.006 61.1309 228.979 61.268 228.979C61.405 228.979 61.5407 229.006 61.6674 229.059C61.794 229.111 61.9091 229.188 62.006 229.286C62.1029 229.383 62.1797 229.499 62.2321 229.626C62.2845 229.753 62.3114 229.889 62.3113 230.027C62.3114 230.164 62.2845 230.301 62.2321 230.428C62.1797 230.555 62.1029 230.67 62.006 230.768C61.9091 230.865 61.794 230.942 61.6674 230.995C61.5407 231.047 61.405 231.074 61.268 231.074V231.074Z" fill="url(#paint1_linear)"/>
</g>
<g filter="url(#filter14_dd)">
<rect x="291" y="361" width="56" height="56" rx="8" fill="white"/>
<g clip-path="url(#clip7)">
<path fill-rule="evenodd" clip-rule="evenodd" d="M321.481 376.777L328.257 380.689C328.453 380.482 328.678 380.305 328.924 380.162C330.329 379.354 332.122 379.834 332.938 381.239C333.746 382.644 333.266 384.437 331.861 385.253C331.616 385.394 331.353 385.499 331.078 385.565V393.393C331.35 393.459 331.611 393.563 331.853 393.703C333.266 394.519 333.746 396.311 332.93 397.717C332.122 399.122 330.321 399.602 328.916 398.794C328.643 398.638 328.398 398.439 328.189 398.204L321.454 402.093C321.553 402.392 321.603 402.704 321.602 403.019C321.602 404.635 320.29 405.956 318.665 405.956C317.041 405.956 315.728 404.643 315.728 403.019C315.728 402.73 315.77 402.451 315.847 402.188L309.072 398.276C308.879 398.479 308.658 398.654 308.415 398.794C307.001 399.602 305.209 399.122 304.401 397.717C303.593 396.311 304.072 394.519 305.478 393.703C305.72 393.563 305.981 393.459 306.252 393.393V385.565C305.978 385.499 305.714 385.394 305.469 385.253C304.064 384.445 303.584 382.644 304.392 381.239C305.2 379.834 307.001 379.354 308.406 380.162C308.652 380.304 308.875 380.48 309.07 380.686L315.848 376.772C315.768 376.501 315.728 376.22 315.728 375.937C315.728 374.313 317.041 373 318.665 373C320.29 373 321.602 374.313 321.602 375.937C321.602 376.229 321.56 376.511 321.481 376.777ZM320.775 377.982L327.568 381.904C327.459 382.282 327.428 382.678 327.476 383.068C327.524 383.459 327.65 383.835 327.847 384.176C328.26 384.895 328.934 385.372 329.681 385.558V393.396C329.643 393.405 329.605 393.415 329.568 393.426L320.696 378.061C320.723 378.035 320.749 378.009 320.775 377.982V377.982ZM316.636 378.062L307.765 393.428C307.726 393.416 307.688 393.406 307.649 393.397V385.558C308.397 385.372 309.07 384.895 309.484 384.176C309.681 383.835 309.807 383.457 309.854 383.066C309.902 382.675 309.871 382.278 309.762 381.9L316.552 377.979C316.58 378.007 316.608 378.035 316.636 378.062V378.062ZM319.486 378.758L328.355 394.12C328.152 394.314 327.978 394.536 327.838 394.78C327.699 395.022 327.595 395.283 327.529 395.554H309.802C309.736 395.283 309.632 395.022 309.492 394.78C309.352 394.538 309.178 394.317 308.976 394.124L317.847 378.759C318.113 378.836 318.388 378.874 318.665 378.874C318.95 378.874 319.225 378.834 319.486 378.758ZM320.837 401.04L327.586 397.144C327.566 397.08 327.547 397.016 327.532 396.951H309.798C309.789 396.989 309.779 397.027 309.768 397.065L316.549 400.98C316.823 400.695 317.152 400.469 317.515 400.315C317.879 400.16 318.27 400.081 318.665 400.082C319.074 400.081 319.479 400.166 319.853 400.331C320.227 400.496 320.562 400.738 320.837 401.04Z" fill="#E535AB"/>
</g>
</g>
<defs>
<filter id="filter0_dd" x="1290" y="149" width="116" height="116" filterUnits="userSpaceOnUse" color-interpolation-filters="sRGB">
<feFlood flood-opacity="0" result="BackgroundImageFix"/>
<feColorMatrix in="SourceAlpha" type="matrix" values="0 0 0 0 0 0 0 0 0 0 0 0 0 0 0 0 0 0 127 0"/>
<feOffset dy="15"/>
<feGaussianBlur stdDeviation="15"/>
<feColorMatrix type="matrix" values="0 0 0 0 0.0117647 0 0 0 0 0 0 0 0 0 0.278431 0 0 0 0.12 0"/>
<feBlend mode="normal" in2="BackgroundImageFix" result="effect1_dropShadow"/>
<feColorMatrix in="SourceAlpha" type="matrix" values="0 0 0 0 0 0 0 0 0 0 0 0 0 0 0 0 0 0 127 0"/>
<feOffset dy="2"/>
<feGaussianBlur stdDeviation="2.5"/>
<feColorMatrix type="matrix" values="0 0 0 0 0.0823529 0 0 0 0 0.0823529 0 0 0 0 0.0823529 0 0 0 0.08 0"/>
<feBlend mode="normal" in2="effect1_dropShadow" result="effect2_dropShadow"/>
<feBlend mode="normal" in="SourceGraphic" in2="effect2_dropShadow" result="shape"/>
</filter>
<filter id="filter1_dd" x="1226" y="16" width="116" height="116" filterUnits="userSpaceOnUse" color-interpolation-filters="sRGB">
<feFlood flood-opacity="0" result="BackgroundImageFix"/>
<feColorMatrix in="SourceAlpha" type="matrix" values="0 0 0 0 0 0 0 0 0 0 0 0 0 0 0 0 0 0 127 0"/>
<feOffset dy="15"/>
<feGaussianBlur stdDeviation="15"/>
<feColorMatrix type="matrix" values="0 0 0 0 0.0117647 0 0 0 0 0 0 0 0 0 0.278431 0 0 0 0.12 0"/>
<feBlend mode="normal" in2="BackgroundImageFix" result="effect1_dropShadow"/>
<feColorMatrix in="SourceAlpha" type="matrix" values="0 0 0 0 0 0 0 0 0 0 0 0 0 0 0 0 0 0 127 0"/>
<feOffset dy="2"/>
<feGaussianBlur stdDeviation="2.5"/>
<feColorMatrix type="matrix" values="0 0 0 0 0.0823529 0 0 0 0 0.0823529 0 0 0 0 0.0823529 0 0 0 0.08 0"/>
<feBlend mode="normal" in2="effect1_dropShadow" result="effect2_dropShadow"/>
<feBlend mode="normal" in="SourceGraphic" in2="effect2_dropShadow" result="shape"/>
</filter>
<filter id="filter2_dd" x="1020" y="0" width="116" height="116" filterUnits="userSpaceOnUse" color-interpolation-filters="sRGB">
<feFlood flood-opacity="0" result="BackgroundImageFix"/>
<feColorMatrix in="SourceAlpha" type="matrix" values="0 0 0 0 0 0 0 0 0 0 0 0 0 0 0 0 0 0 127 0"/>
<feOffset dy="15"/>
<feGaussianBlur stdDeviation="15"/>
<feColorMatrix type="matrix" values="0 0 0 0 0.0117647 0 0 0 0 0 0 0 0 0 0.278431 0 0 0 0.12 0"/>
<feBlend mode="normal" in2="BackgroundImageFix" result="effect1_dropShadow"/>
<feColorMatrix in="SourceAlpha" type="matrix" values="0 0 0 0 0 0 0 0 0 0 0 0 0 0 0 0 0 0 127 0"/>
<feOffset dy="2"/>
<feGaussianBlur stdDeviation="2.5"/>
<feColorMatrix type="matrix" values="0 0 0 0 0.0823529 0 0 0 0 0.0823529 0 0 0 0 0.0823529 0 0 0 0.08 0"/>
<feBlend mode="normal" in2="effect1_dropShadow" result="effect2_dropShadow"/>
<feBlend mode="normal" in="SourceGraphic" in2="effect2_dropShadow" result="shape"/>
</filter>
<filter id="filter3_d" x="1060" y="26" width="36" height="36" filterUnits="userSpaceOnUse" color-interpolation-filters="sRGB">
<feFlood flood-opacity="0" result="BackgroundImageFix"/>
<feColorMatrix in="SourceAlpha" type="matrix" values="0 0 0 0 0 0 0 0 0 0 0 0 0 0 0 0 0 0 127 0"/>
<feOffset dy="1"/>
<feGaussianBlur stdDeviation="1"/>
<feColorMatrix type="matrix" values="0 0 0 0 0.0117647 0 0 0 0 0 0 0 0 0 0.278431 0 0 0 0.06 0"/>
<feBlend mode="normal" in2="BackgroundImageFix" result="effect1_dropShadow"/>
<feBlend mode="normal" in="SourceGraphic" in2="effect1_dropShadow" result="shape"/>
</filter>
<filter id="filter4_dd" x="1147" y="217" width="116" height="116" filterUnits="userSpaceOnUse" color-interpolation-filters="sRGB">
<feFlood flood-opacity="0" result="BackgroundImageFix"/>
<feColorMatrix in="SourceAlpha" type="matrix" values="0 0 0 0 0 0 0 0 0 0 0 0 0 0 0 0 0 0 127 0"/>
<feOffset dy="15"/>
<feGaussianBlur stdDeviation="15"/>
<feColorMatrix type="matrix" values="0 0 0 0 0.0117647 0 0 0 0 0 0 0 0 0 0.278431 0 0 0 0.12 0"/>
<feBlend mode="normal" in2="BackgroundImageFix" result="effect1_dropShadow"/>
<feColorMatrix in="SourceAlpha" type="matrix" values="0 0 0 0 0 0 0 0 0 0 0 0 0 0 0 0 0 0 127 0"/>
<feOffset dy="2"/>
<feGaussianBlur stdDeviation="2.5"/>
<feColorMatrix type="matrix" values="0 0 0 0 0.0823529 0 0 0 0 0.0823529 0 0 0 0 0.0823529 0 0 0 0.08 0"/>
<feBlend mode="normal" in2="effect1_dropShadow" result="effect2_dropShadow"/>
<feBlend mode="normal" in="SourceGraphic" in2="effect2_dropShadow" result="shape"/>
</filter>
<filter id="filter5_dd" x="1261" y="329" width="116" height="116" filterUnits="userSpaceOnUse" color-interpolation-filters="sRGB">
<feFlood flood-opacity="0" result="BackgroundImageFix"/>
<feColorMatrix in="SourceAlpha" type="matrix" values="0 0 0 0 0 0 0 0 0 0 0 0 0 0 0 0 0 0 127 0"/>
<feOffset dy="15"/>
<feGaussianBlur stdDeviation="15"/>
<feColorMatrix type="matrix" values="0 0 0 0 0.0117647 0 0 0 0 0 0 0 0 0 0.278431 0 0 0 0.12 0"/>
<feBlend mode="normal" in2="BackgroundImageFix" result="effect1_dropShadow"/>
<feColorMatrix in="SourceAlpha" type="matrix" values="0 0 0 0 0 0 0 0 0 0 0 0 0 0 0 0 0 0 127 0"/>
<feOffset dy="2"/>
<feGaussianBlur stdDeviation="2.5"/>
<feColorMatrix type="matrix" values="0 0 0 0 0.0823529 0 0 0 0 0.0823529 0 0 0 0 0.0823529 0 0 0 0.08 0"/>
<feBlend mode="normal" in2="effect1_dropShadow" result="effect2_dropShadow"/>
<feBlend mode="normal" in="SourceGraphic" in2="effect2_dropShadow" result="shape"/>
</filter>
<filter id="filter6_dd" x="1042" y="315" width="116" height="116" filterUnits="userSpaceOnUse" color-interpolation-filters="sRGB">
<feFlood flood-opacity="0" result="BackgroundImageFix"/>
<feColorMatrix in="SourceAlpha" type="matrix" values="0 0 0 0 0 0 0 0 0 0 0 0 0 0 0 0 0 0 127 0"/>
<feOffset dy="15"/>
<feGaussianBlur stdDeviation="15"/>
<feColorMatrix type="matrix" values="0 0 0 0 0.0117647 0 0 0 0 0 0 0 0 0 0.278431 0 0 0 0.12 0"/>
<feBlend mode="normal" in2="BackgroundImageFix" result="effect1_dropShadow"/>
<feColorMatrix in="SourceAlpha" type="matrix" values="0 0 0 0 0 0 0 0 0 0 0 0 0 0 0 0 0 0 127 0"/>
<feOffset dy="2"/>
<feGaussianBlur stdDeviation="2.5"/>
<feColorMatrix type="matrix" values="0 0 0 0 0.0823529 0 0 0 0 0.0823529 0 0 0 0 0.0823529 0 0 0 0.08 0"/>
<feBlend mode="normal" in2="effect1_dropShadow" result="effect2_dropShadow"/>
<feBlend mode="normal" in="SourceGraphic" in2="effect2_dropShadow" result="shape"/>
</filter>
<filter id="filter7_dd" x="1131" y="99" width="116" height="116" filterUnits="userSpaceOnUse" color-interpolation-filters="sRGB">
<feFlood flood-opacity="0" result="BackgroundImageFix"/>
<feColorMatrix in="SourceAlpha" type="matrix" values="0 0 0 0 0 0 0 0 0 0 0 0 0 0 0 0 0 0 127 0"/>
<feOffset dy="15"/>
<feGaussianBlur stdDeviation="15"/>
<feColorMatrix type="matrix" values="0 0 0 0 0.0117647 0 0 0 0 0 0 0 0 0 0.278431 0 0 0 0.12 0"/>
<feBlend mode="normal" in2="BackgroundImageFix" result="effect1_dropShadow"/>
<feColorMatrix in="SourceAlpha" type="matrix" values="0 0 0 0 0 0 0 0 0 0 0 0 0 0 0 0 0 0 127 0"/>
<feOffset dy="2"/>
<feGaussianBlur stdDeviation="2.5"/>
<feColorMatrix type="matrix" values="0 0 0 0 0.0823529 0 0 0 0 0.0823529 0 0 0 0 0.0823529 0 0 0 0.08 0"/>
<feBlend mode="normal" in2="effect1_dropShadow" result="effect2_dropShadow"/>
<feBlend mode="normal" in="SourceGraphic" in2="effect2_dropShadow" result="shape"/>
</filter>
<filter id="filter8_dd" x="158" y="106" width="116" height="116" filterUnits="userSpaceOnUse" color-interpolation-filters="sRGB">
<feFlood flood-opacity="0" result="BackgroundImageFix"/>
<feColorMatrix in="SourceAlpha" type="matrix" values="0 0 0 0 0 0 0 0 0 0 0 0 0 0 0 0 0 0 127 0"/>
<feOffset dy="15"/>
<feGaussianBlur stdDeviation="15"/>
<feColorMatrix type="matrix" values="0 0 0 0 0.0117647 0 0 0 0 0 0 0 0 0 0.278431 0 0 0 0.12 0"/>
<feBlend mode="normal" in2="BackgroundImageFix" result="effect1_dropShadow"/>
<feColorMatrix in="SourceAlpha" type="matrix" values="0 0 0 0 0 0 0 0 0 0 0 0 0 0 0 0 0 0 127 0"/>
<feOffset dy="2"/>
<feGaussianBlur stdDeviation="2.5"/>
<feColorMatrix type="matrix" values="0 0 0 0 0.0823529 0 0 0 0 0.0823529 0 0 0 0 0.0823529 0 0 0 0.08 0"/>
<feBlend mode="normal" in2="effect1_dropShadow" result="effect2_dropShadow"/>
<feBlend mode="normal" in="SourceGraphic" in2="effect2_dropShadow" result="shape"/>
</filter>
<filter id="filter9_dd" x="261" y="0" width="116" height="116" filterUnits="userSpaceOnUse" color-interpolation-filters="sRGB">
<feFlood flood-opacity="0" result="BackgroundImageFix"/>
<feColorMatrix in="SourceAlpha" type="matrix" values="0 0 0 0 0 0 0 0 0 0 0 0 0 0 0 0 0 0 127 0"/>
<feOffset dy="15"/>
<feGaussianBlur stdDeviation="15"/>
<feColorMatrix type="matrix" values="0 0 0 0 0.0117647 0 0 0 0 0 0 0 0 0 0.278431 0 0 0 0.12 0"/>
<feBlend mode="normal" in2="BackgroundImageFix" result="effect1_dropShadow"/>
<feColorMatrix in="SourceAlpha" type="matrix" values="0 0 0 0 0 0 0 0 0 0 0 0 0 0 0 0 0 0 127 0"/>
<feOffset dy="2"/>
<feGaussianBlur stdDeviation="2.5"/>
<feColorMatrix type="matrix" values="0 0 0 0 0.0823529 0 0 0 0 0.0823529 0 0 0 0 0.0823529 0 0 0 0.08 0"/>
<feBlend mode="normal" in2="effect1_dropShadow" result="effect2_dropShadow"/>
<feBlend mode="normal" in="SourceGraphic" in2="effect2_dropShadow" result="shape"/>
</filter>
<filter id="filter10_dd" x="39" y="18" width="116" height="116" filterUnits="userSpaceOnUse" color-interpolation-filters="sRGB">
<feFlood flood-opacity="0" result="BackgroundImageFix"/>
<feColorMatrix in="SourceAlpha" type="matrix" values="0 0 0 0 0 0 0 0 0 0 0 0 0 0 0 0 0 0 127 0"/>
<feOffset dy="15"/>
<feGaussianBlur stdDeviation="15"/>
<feColorMatrix type="matrix" values="0 0 0 0 0.0117647 0 0 0 0 0 0 0 0 0 0.278431 0 0 0 0.12 0"/>
<feBlend mode="normal" in2="BackgroundImageFix" result="effect1_dropShadow"/>
<feColorMatrix in="SourceAlpha" type="matrix" values="0 0 0 0 0 0 0 0 0 0 0 0 0 0 0 0 0 0 127 0"/>
<feOffset dy="2"/>
<feGaussianBlur stdDeviation="2.5"/>
<feColorMatrix type="matrix" values="0 0 0 0 0.0823529 0 0 0 0 0.0823529 0 0 0 0 0.0823529 0 0 0 0.08 0"/>
<feBlend mode="normal" in2="effect1_dropShadow" result="effect2_dropShadow"/>
<feBlend mode="normal" in="SourceGraphic" in2="effect2_dropShadow" result="shape"/>
</filter>
<filter id="filter11_dd" x="174" y="227" width="116" height="116" filterUnits="userSpaceOnUse" color-interpolation-filters="sRGB">
<feFlood flood-opacity="0" result="BackgroundImageFix"/>
<feColorMatrix in="SourceAlpha" type="matrix" values="0 0 0 0 0 0 0 0 0 0 0 0 0 0 0 0 0 0 127 0"/>
<feOffset dy="15"/>
<feGaussianBlur stdDeviation="15"/>
<feColorMatrix type="matrix" values="0 0 0 0 0.0117647 0 0 0 0 0 0 0 0 0 0.278431 0 0 0 0.12 0"/>
<feBlend mode="normal" in2="BackgroundImageFix" result="effect1_dropShadow"/>
<feColorMatrix in="SourceAlpha" type="matrix" values="0 0 0 0 0 0 0 0 0 0 0 0 0 0 0 0 0 0 127 0"/>
<feOffset dy="2"/>
<feGaussianBlur stdDeviation="2.5"/>
<feColorMatrix type="matrix" values="0 0 0 0 0.0823529 0 0 0 0 0.0823529 0 0 0 0 0.0823529 0 0 0 0.08 0"/>
<feBlend mode="normal" in2="effect1_dropShadow" result="effect2_dropShadow"/>
<feBlend mode="normal" in="SourceGraphic" in2="effect2_dropShadow" result="shape"/>
</filter>
<filter id="filter12_dd" x="61" y="318" width="116" height="116" filterUnits="userSpaceOnUse" color-interpolation-filters="sRGB">
<feFlood flood-opacity="0" result="BackgroundImageFix"/>
<feColorMatrix in="SourceAlpha" type="matrix" values="0 0 0 0 0 0 0 0 0 0 0 0 0 0 0 0 0 0 127 0"/>
<feOffset dy="15"/>
<feGaussianBlur stdDeviation="15"/>
<feColorMatrix type="matrix" values="0 0 0 0 0.0117647 0 0 0 0 0 0 0 0 0 0.278431 0 0 0 0.12 0"/>
<feBlend mode="normal" in2="BackgroundImageFix" result="effect1_dropShadow"/>
<feColorMatrix in="SourceAlpha" type="matrix" values="0 0 0 0 0 0 0 0 0 0 0 0 0 0 0 0 0 0 127 0"/>
<feOffset dy="2"/>
<feGaussianBlur stdDeviation="2.5"/>
<feColorMatrix type="matrix" values="0 0 0 0 0.0823529 0 0 0 0 0.0823529 0 0 0 0 0.0823529 0 0 0 0.08 0"/>
<feBlend mode="normal" in2="effect1_dropShadow" result="effect2_dropShadow"/>
<feBlend mode="normal" in="SourceGraphic" in2="effect2_dropShadow" result="shape"/>
</filter>
<filter id="filter13_dd" x="0" y="178" width="116" height="116" filterUnits="userSpaceOnUse" color-interpolation-filters="sRGB">
<feFlood flood-opacity="0" result="BackgroundImageFix"/>
<feColorMatrix in="SourceAlpha" type="matrix" values="0 0 0 0 0 0 0 0 0 0 0 0 0 0 0 0 0 0 127 0"/>
<feOffset dy="15"/>
<feGaussianBlur stdDeviation="15"/>
<feColorMatrix type="matrix" values="0 0 0 0 0.0117647 0 0 0 0 0 0 0 0 0 0.278431 0 0 0 0.12 0"/>
<feBlend mode="normal" in2="BackgroundImageFix" result="effect1_dropShadow"/>
<feColorMatrix in="SourceAlpha" type="matrix" values="0 0 0 0 0 0 0 0 0 0 0 0 0 0 0 0 0 0 127 0"/>
<feOffset dy="2"/>
<feGaussianBlur stdDeviation="2.5"/>
<feColorMatrix type="matrix" values="0 0 0 0 0.0823529 0 0 0 0 0.0823529 0 0 0 0 0.0823529 0 0 0 0.08 0"/>
<feBlend mode="normal" in2="effect1_dropShadow" result="effect2_dropShadow"/>
<feBlend mode="normal" in="SourceGraphic" in2="effect2_dropShadow" result="shape"/>
</filter>
<filter id="filter14_dd" x="261" y="346" width="116" height="116" filterUnits="userSpaceOnUse" color-interpolation-filters="sRGB">
<feFlood flood-opacity="0" result="BackgroundImageFix"/>
<feColorMatrix in="SourceAlpha" type="matrix" values="0 0 0 0 0 0 0 0 0 0 0 0 0 0 0 0 0 0 127 0"/>
<feOffset dy="15"/>
<feGaussianBlur stdDeviation="15"/>
<feColorMatrix type="matrix" values="0 0 0 0 0.0117647 0 0 0 0 0 0 0 0 0 0.278431 0 0 0 0.12 0"/>
<feBlend mode="normal" in2="BackgroundImageFix" result="effect1_dropShadow"/>
<feColorMatrix in="SourceAlpha" type="matrix" values="0 0 0 0 0 0 0 0 0 0 0 0 0 0 0 0 0 0 127 0"/>
<feOffset dy="2"/>
<feGaussianBlur stdDeviation="2.5"/>
<feColorMatrix type="matrix" values="0 0 0 0 0.0823529 0 0 0 0 0.0823529 0 0 0 0 0.0823529 0 0 0 0.08 0"/>
<feBlend mode="normal" in2="effect1_dropShadow" result="effect2_dropShadow"/>
<feBlend mode="normal" in="SourceGraphic" in2="effect2_dropShadow" result="shape"/>
</filter>
<linearGradient id="paint0_linear" x1="48.3172" y1="211.159" x2="60.2281" y2="222.904" gradientUnits="userSpaceOnUse">
<stop stop-color="#387EB8"/>
<stop offset="1" stop-color="#366994"/>
</linearGradient>
<linearGradient id="paint1_linear" x1="55.5965" y1="218.73" x2="68.3851" y2="230.771" gradientUnits="userSpaceOnUse">
<stop stop-color="#FFE052"/>
<stop offset="1" stop-color="#FFC331"/>
</linearGradient>
<clipPath id="clip0">
<rect x="1340" y="174" width="14.2222" height="32" fill="white"/>
</clipPath>
<clipPath id="clip1">
<rect width="32" height="32" fill="white" transform="translate(1062 27)"/>
</clipPath>
<clipPath id="clip2">
<rect width="32" height="25.0435" fill="white" transform="translate(1189 247)"/>
</clipPath>
<clipPath id="clip3">
<rect width="30.72" height="32" fill="white" transform="translate(1304 356)"/>
</clipPath>
<clipPath id="clip4">
<rect width="32" height="28.9524" fill="white" transform="translate(1084 344)"/>
</clipPath>
<clipPath id="clip5">
<rect width="24" height="19.0843" fill="white" transform="translate(204 139)"/>
</clipPath>
<clipPath id="clip6">
<rect width="24" height="25.3333" fill="white" transform="translate(85 48)"/>
</clipPath>
<clipPath id="clip7">
<rect width="29.3304" height="33" fill="white" transform="translate(304 373)"/>
</clipPath>
</defs>
</svg>
