<svg width="120" height="120" viewBox="0 0 120 120" fill="none" xmlns="http://www.w3.org/2000/svg">
<g clip-path="url(#clip0_2648_2425)">
<path d="M39.863 120.001C50.823 120.001 59.7182 111.041 59.7182 100V80.0005H39.863C28.9029 80.0005 20.0078 88.9605 20.0078 100C20.0078 111.041 28.9029 120.001 39.863 120.001Z" fill="#24CE85"/>
<path d="M20.0078 59.9995C20.0078 48.9595 28.9029 39.9995 39.863 39.9995H59.7182V79.9995H39.863C28.9029 79.9995 20.0078 71.0395 20.0078 59.9995Z" fill="#A160FB"/>
<path d="M20.0117 20C20.0117 8.96 28.9068 0 39.8669 0H59.7221V40H39.8669C28.9068 40 20.0117 31.04 20.0117 20Z" fill="#EF4F2B"/>
<path d="M59.7178 0H79.573C90.533 0 99.4282 8.96 99.4282 20C99.4282 31.04 90.533 40 79.573 40H59.7178V0Z" fill="#FD7366"/>
<path d="M99.4282 59.9995C99.4282 71.0395 90.533 79.9995 79.573 79.9995C68.6129 79.9995 59.7178 71.0395 59.7178 59.9995C59.7178 48.9595 68.6129 39.9995 79.573 39.9995C90.533 39.9995 99.4282 48.9595 99.4282 59.9995Z" fill="#2CBDFB"/>
</g>
<defs>
<clipPath id="clip0_2648_2425">
<rect width="79.4366" height="120" fill="white" transform="translate(20)"/>
</clipPath>
</defs>
</svg>
