<svg width="120" height="120" viewBox="0 0 120 120" fill="none" xmlns="http://www.w3.org/2000/svg">
<g clip-path="url(#clip0_2648_2425)">
<g clip-path="url(#clip1_2648_2425)">
<path d="M60 0C26.8608 0 0 26.8608 0 60C0 93.1392 26.8608 120 60 120C93.1392 120 120 93.1392 120 60C120 26.8608 93.1392 0 60 0ZM12.8928 60.624L59.376 107.107C33.8496 106.776 13.224 86.1504 12.8928 60.624ZM70.5456 105.931L14.0688 49.4544C18.8592 28.512 37.6032 12.8832 60 12.8832C75.6528 12.8832 89.5248 20.52 98.0928 32.2704L91.5696 38.0256C84.6192 28.0608 73.0704 21.5376 60 21.5376C43.3584 21.5376 29.184 32.1072 23.8272 46.9008L73.0992 96.168C85.0656 91.8336 94.2672 81.7344 97.3488 69.2256H76.9296V60H107.122C107.117 82.3968 91.488 101.141 70.5456 105.931Z" fill="#744C9E"/>
</g>
</g>
<defs>
<clipPath id="clip0_2648_2425">
<rect width="120" height="120" fill="white"/>
</clipPath>
<clipPath id="clip1_2648_2425">
<rect width="120" height="120" fill="white"/>
</clipPath>
</defs>
</svg>
