<svg width="120" height="120" viewBox="0 0 120 120" fill="none" xmlns="http://www.w3.org/2000/svg">
<g clip-path="url(#clip0_2648_2425)">
<path d="M119.572 57.4014C118.716 56.5453 107.729 42.7046 105.874 40.4216C103.876 38.1386 103.02 38.5667 101.736 38.7094C100.452 38.8521 86.6111 41.2778 85.0416 41.4205C83.472 41.7058 82.4732 42.2766 83.472 43.7035C84.3281 44.9876 93.4601 57.8295 95.4578 60.8259L59.0724 69.5299L30.2496 21.1589C29.1081 19.4466 28.8227 18.8759 26.2543 19.0186C23.6859 19.1612 3.56698 20.8735 2.14011 20.8735C0.713232 21.0162 -0.856331 21.5869 0.570545 25.0114C1.99742 28.4359 24.8274 77.5203 25.3982 78.9472C25.9689 80.3741 27.6812 82.6571 31.5337 81.801C35.529 80.8021 49.227 77.235 56.7894 75.2373C60.7847 82.3717 68.7752 96.9258 70.3448 99.0661C72.3424 101.92 73.7693 101.349 76.7657 100.493C79.1914 99.7796 114.15 87.2231 115.719 86.5096C117.289 85.7962 118.288 85.3681 117.146 83.7986C116.29 82.6571 107.158 70.2433 102.307 63.8224C105.589 62.9662 117.432 59.8271 118.716 59.3991C120.143 58.971 120.428 58.2576 119.572 57.4014ZM53.5076 70.9567C53.0796 71.0994 32.6752 75.9508 31.6764 76.2362C30.5349 76.5215 30.5349 76.3788 30.5349 75.9508C30.2496 75.5227 6.27805 25.8675 5.84998 25.2968C5.56461 24.726 5.56461 24.1553 5.84998 24.1553C6.13536 24.1553 25.1128 22.443 25.6836 22.443C26.397 22.443 26.2543 22.5857 26.5397 23.0138C26.5397 23.0138 53.2222 69.1018 53.6503 69.8152C54.2211 70.5287 53.9357 70.814 53.5076 70.9567ZM110.868 81.6583C111.153 82.229 111.581 82.5144 110.44 82.7998C109.441 83.2278 76.0523 94.5001 75.3388 94.7855C74.6254 95.0709 74.1973 95.2136 73.3412 93.9294C72.4851 92.6452 61.6408 73.9532 61.6408 73.9532L97.17 64.6785C98.0261 64.3931 98.3115 64.2504 98.8823 65.1065C99.453 66.1054 110.583 81.2302 110.868 81.6583ZM113.151 56.5453C112.295 56.688 99.3103 59.9698 99.3103 59.9698L88.6088 45.4157C88.3234 44.9876 88.038 44.5596 88.7514 44.4169C89.4649 44.2742 101.593 42.1339 102.164 41.9912C102.735 41.8485 103.163 41.7058 103.876 42.7046C104.59 43.5608 113.722 55.2611 114.15 55.6892C114.578 56.1172 114.007 56.4026 113.151 56.5453Z" fill="#FB503B"/>
</g>
<defs>
<clipPath id="clip0_2648_2425">
<rect width="120" height="82.224" fill="white" transform="translate(0 19)"/>
</clipPath>
</defs>
</svg>
