<svg width="120" height="120" viewBox="0 0 120 120" fill="none" xmlns="http://www.w3.org/2000/svg">
<g clip-path="url(#clip0_2648_2425)">
<path d="M112.312 60.0105C112.312 53.0341 103.575 46.4226 90.1806 42.3226C93.2717 28.6702 91.8979 17.8085 85.8445 14.331C84.4492 13.5153 82.8178 13.1289 81.0361 13.1289V17.9158C82.0235 17.9158 82.8178 18.109 83.4832 18.4739C86.4026 20.1483 87.6691 26.5236 86.6816 34.7236C86.4455 36.7414 86.0591 38.8666 85.5869 41.0346C81.3795 40.0043 76.7858 39.21 71.956 38.6948C69.0581 34.7236 66.0529 31.1174 63.0262 27.9619C70.0241 21.4577 76.5926 17.8943 81.0576 17.8943V13.1074C75.1544 13.1074 67.4267 17.3148 59.6131 24.6132C51.7995 17.3577 44.0717 13.1933 38.1686 13.1933V17.9802C42.612 17.9802 49.2021 21.5221 56.2 27.9833C53.1947 31.1388 50.1895 34.7236 47.3345 38.6948C42.4832 39.21 37.8895 40.0043 33.6822 41.0561C33.1885 38.9095 32.8235 36.8273 32.566 34.831C31.5571 26.631 32.8021 20.2556 35.7 18.5598C36.344 18.1734 37.1811 18.0017 38.1686 18.0017V13.2148C36.3654 13.2148 34.734 13.6011 33.3173 14.4168C27.2853 17.8943 25.933 28.7346 29.0455 42.3441C15.6937 46.4655 7 53.0556 7 60.0105C7 66.987 15.7366 73.5985 29.1314 77.6985C26.0403 91.3508 27.4141 102.213 33.4675 105.69C34.8628 106.506 36.4942 106.892 38.2974 106.892C44.2005 106.892 51.9283 102.685 59.7419 95.3864C67.5555 102.642 75.2832 106.806 81.1864 106.806C82.9895 106.806 84.6209 106.42 86.0377 105.604C92.0696 102.127 93.422 91.2864 90.3094 77.677C103.618 73.577 112.312 66.9655 112.312 60.0105ZM84.3633 45.6927C83.5691 48.4619 82.5816 51.3168 81.4654 54.1718C80.5853 52.4545 79.6623 50.7372 78.6534 49.02C77.6659 47.3027 76.6141 45.6283 75.5623 43.9969C78.6105 44.4477 81.5513 45.0058 84.3633 45.6927ZM74.5319 68.554C72.8576 71.4519 71.1403 74.1995 69.3586 76.754C66.1602 77.033 62.9188 77.1833 59.656 77.1833C56.4146 77.1833 53.1733 77.033 49.9963 76.7755C48.2146 74.221 46.4759 71.4948 44.8016 68.6184C43.1701 65.8063 41.689 62.9514 40.3366 60.0749C41.6675 57.1985 43.1701 54.3221 44.7801 51.51C46.4544 48.6121 48.1717 45.8645 49.9534 43.31C53.1518 43.031 56.3932 42.8807 59.656 42.8807C62.8974 42.8807 66.1387 43.031 69.3157 43.2886C71.0974 45.843 72.8361 48.5692 74.5104 51.4456C76.1419 54.2577 77.623 57.1126 78.9754 59.9891C77.623 62.8655 76.1419 65.7419 74.5319 68.554ZM81.4654 65.7634C82.6246 68.6399 83.612 71.5163 84.4277 74.3069C81.6157 74.9938 78.6534 75.5734 75.5837 76.0241C76.6356 74.3713 77.6874 72.6755 78.6748 70.9367C79.6623 69.2194 80.5853 67.4807 81.4654 65.7634ZM59.6989 88.6676C57.7026 86.6069 55.7063 84.31 53.7314 81.7985C55.6633 81.8843 57.6382 81.9487 59.6345 81.9487C61.6523 81.9487 63.6487 81.9058 65.6021 81.7985C63.6701 84.31 61.6738 86.6069 59.6989 88.6676ZM43.7283 76.0241C40.6801 75.5734 37.7393 75.0152 34.9272 74.3283C35.7215 71.5592 36.7089 68.7043 37.8251 65.8493C38.7052 67.5666 39.6283 69.2838 40.6372 71.0011C41.6461 72.7184 42.6764 74.3927 43.7283 76.0241ZM59.5916 31.3535C61.5879 33.4142 63.5843 35.7111 65.5591 38.2226C63.6272 38.1367 61.6523 38.0723 59.656 38.0723C57.6382 38.0723 55.6419 38.1153 53.6885 38.2226C55.6204 35.7111 57.6167 33.4142 59.5916 31.3535ZM43.7068 43.9969C42.655 45.6498 41.6031 47.3456 40.6157 49.0844C39.6283 50.8016 38.7052 52.5189 37.8251 54.2362C36.666 51.3598 35.6785 48.4833 34.8628 45.6927C37.6749 45.0273 40.6372 44.4477 43.7068 43.9969ZM24.2801 70.8723C16.6812 67.631 11.7654 63.3807 11.7654 60.0105C11.7654 56.6404 16.6812 52.3687 24.2801 49.1488C26.1262 48.3545 28.144 47.6461 30.2262 46.9807C31.4497 51.188 33.0597 55.5671 35.056 60.0535C33.0811 64.5184 31.4927 68.876 30.2906 73.0618C28.1654 72.3964 26.1476 71.6666 24.2801 70.8723ZM35.8288 101.547C32.9094 99.8728 31.6429 93.4974 32.6304 85.2974C32.8665 83.2796 33.2529 81.1545 33.7251 78.9864C37.9325 80.0168 42.5262 80.8111 47.356 81.3262C50.2539 85.2974 53.2591 88.9037 56.2858 92.0592C49.2879 98.5634 42.7194 102.127 38.2544 102.127C37.2885 102.105 36.4728 101.912 35.8288 101.547ZM86.746 85.1901C87.7549 93.3901 86.5099 99.7655 83.612 101.461C82.968 101.848 82.1309 102.019 81.1434 102.019C76.7 102.019 70.1099 98.4775 63.112 92.0163C66.1173 88.8608 69.1225 85.276 71.9775 81.3048C76.8288 80.7896 81.4225 79.9953 85.6298 78.9435C86.1235 81.1116 86.5099 83.1938 86.746 85.1901ZM95.0104 70.8723C93.1644 71.6666 91.1466 72.3749 89.0644 73.0404C87.8408 68.833 86.2309 64.454 84.2345 59.9676C86.2094 55.5027 87.7979 51.1451 89 46.9592C91.1251 47.6247 93.1429 48.3545 95.0319 49.1488C102.631 52.3901 107.547 56.6404 107.547 60.0105C107.525 63.3807 102.609 67.6524 95.0104 70.8723Z" fill="#61DAFB"/>
<path d="M59.6342 69.8206C65.0521 69.8206 69.4442 65.4285 69.4442 60.0106C69.4442 54.5927 65.0521 50.2007 59.6342 50.2007C54.2163 50.2007 49.8242 54.5927 49.8242 60.0106C49.8242 65.4285 54.2163 69.8206 59.6342 69.8206Z" fill="#61DAFB"/>
</g>
<defs>
<clipPath id="clip0_2648_2425">
<rect width="105.312" height="120" fill="white" transform="translate(7)"/>
</clipPath>
</defs>
</svg>
