<svg width="120" height="120" viewBox="0 0 120 120" fill="none" xmlns="http://www.w3.org/2000/svg">
<g clip-path="url(#clip0_2648_2425)">
<path fill-rule="evenodd" clip-rule="evenodd" d="M70.5671 13.7391L95.2088 27.9668C95.9202 27.2141 96.7366 26.568 97.6327 26.0487C102.743 23.1106 109.262 24.855 112.23 29.9658C115.168 35.0765 113.424 41.5946 108.313 44.5631C107.423 45.0753 106.465 45.4569 105.467 45.6963V74.1622C106.454 74.402 107.402 74.781 108.282 75.2879C113.424 78.2564 115.168 84.7749 112.2 89.8856C109.262 94.9959 102.713 96.7404 97.6019 93.8027C96.6118 93.2347 95.7198 92.5106 94.9605 91.6584L70.4688 105.799C70.8274 106.885 71.0096 108.021 71.0083 109.165C71.0083 115.041 66.2346 119.846 60.3281 119.846C54.4216 119.846 49.6479 115.071 49.6479 109.165C49.6479 108.115 49.7987 107.101 50.08 106.143L25.4449 91.9196C24.7413 92.6574 23.9364 93.2915 23.0543 93.8027C17.9132 96.7404 11.3947 94.9959 8.45663 89.8856C5.51901 84.7749 7.26341 78.2564 12.3737 75.2879C13.2541 74.7809 14.2021 74.4017 15.1893 74.1618V45.6963C14.1912 45.4569 13.2328 45.0753 12.3433 44.5631C7.23258 41.6255 5.48818 35.0765 8.42621 29.9658C11.3643 24.855 17.9128 23.1106 23.0235 26.0487C23.9147 26.5653 24.7271 27.2072 25.4358 27.9547L50.0845 13.7232C49.794 12.737 49.6469 11.7141 49.6479 10.686C49.6479 4.78038 54.4216 0.00585938 60.3281 0.00585938C66.2346 0.00585938 71.0083 4.77997 71.0083 10.686C71.0083 11.7476 70.8541 12.7721 70.5671 13.7391ZM67.9998 18.1228L92.7003 32.3839C92.307 33.7588 92.1942 35.1987 92.3686 36.6181C92.543 38.0374 93.0011 39.4072 93.7156 40.646C95.2192 43.2615 97.6685 44.9955 100.387 45.6713V74.1726C100.248 74.2064 100.11 74.2434 99.9733 74.2826L67.7128 18.4082C67.8103 18.3149 67.9061 18.2199 67.9998 18.1232V18.1228ZM52.9501 18.4144L20.69 74.288C20.5505 74.2477 20.4102 74.2102 20.2692 74.1755V45.6713C22.9877 44.9955 25.437 43.2615 26.9406 40.646C27.6565 39.4048 28.1151 38.0322 28.2888 36.6099C28.4625 35.1877 28.3479 33.745 27.9518 32.368L52.6451 18.1111C52.7447 18.214 52.8464 18.3153 52.9501 18.414V18.4144ZM63.3124 20.9454L95.565 76.8065C94.8262 77.5115 94.1929 78.3193 93.6848 79.205C93.1779 80.0854 92.7988 81.0334 92.559 82.0206H28.098C27.8579 81.0334 27.4786 80.0854 26.9714 79.205C26.4615 78.3254 25.8294 77.5225 25.0941 76.8203L57.353 20.9479C58.3201 21.2264 59.3217 21.3672 60.3281 21.3662C61.3643 21.3662 62.3654 21.2196 63.3124 20.9454ZM68.2265 101.97L92.7665 87.8012C92.693 87.5699 92.6272 87.3362 92.5695 87.1005H28.0842C28.0501 87.2392 28.013 87.3767 27.9734 87.5138L52.6335 101.752C53.6293 100.716 54.8244 99.8932 56.1468 99.3317C57.4691 98.7702 58.8915 98.4821 60.3281 98.4848C61.815 98.4822 63.2859 98.7909 64.6462 99.3912C66.0066 99.9914 67.2261 100.87 68.2265 101.97Z" fill="#E535AB"/>
</g>
<defs>
<clipPath id="clip0_2648_2425">
<rect width="106.656" height="120" fill="white" transform="translate(7)"/>
</clipPath>
</defs>
</svg>
