<svg width="120" height="120" viewBox="0 0 120 120" fill="none" xmlns="http://www.w3.org/2000/svg">
<g clip-path="url(#clip0_2648_2425)">
<path fill-rule="evenodd" clip-rule="evenodd" d="M24.3825 45.0308L59.8748 114.499L0.21875 45.0308H24.3825Z" fill="#EA6C00"/>
<path fill-rule="evenodd" clip-rule="evenodd" d="M95.3772 45.0308L59.885 114.499L119.541 45.0308H95.3772Z" fill="#EA6C00"/>
<path fill-rule="evenodd" clip-rule="evenodd" d="M24.3818 45.0308H95.3664L59.8741 114.499L24.3818 45.0308Z" fill="#FDAD00"/>
<path fill-rule="evenodd" clip-rule="evenodd" d="M59.8741 6.53076L26.2499 10.085L24.3818 45.0304L59.8741 6.53076Z" fill="#FDD231"/>
<path fill-rule="evenodd" clip-rule="evenodd" d="M59.8739 6.53076L93.4981 10.085L95.3662 45.0304L59.8739 6.53076Z" fill="#FDD231"/>
<path fill-rule="evenodd" clip-rule="evenodd" d="M119.541 45.0298L93.5091 10.0845L95.3772 45.0298H119.541Z" fill="#FDAD00"/>
<path fill-rule="evenodd" clip-rule="evenodd" d="M0.21875 45.0298L26.2506 10.0845L24.3825 45.0298H0.21875Z" fill="#FDAD00"/>
<path fill-rule="evenodd" clip-rule="evenodd" d="M59.8741 6.53076L24.3818 45.0304H95.3664L59.8741 6.53076Z" fill="#FEEEB7"/>
</g>
<defs>
<clipPath id="clip0_2648_2425">
<rect width="120" height="108.624" fill="white" transform="translate(0 6)"/>
</clipPath>
</defs>
</svg>
