<svg width="120" height="120" viewBox="0 0 120 120" fill="none" xmlns="http://www.w3.org/2000/svg">
<g clip-path="url(#clip0_4693_13644)">
<path d="M74.8242 116.342L75.9748 97.1695L79.1519 91.7462C79.1519 91.7462 71.9209 94.7042 59.8151 94.7042C47.7091 94.7042 40.5878 91.8009 40.5878 91.8009L44.1483 97.7169L45.4079 116.342C45.4079 118.339 51.9929 119.957 60.1162 119.957C68.2391 119.957 74.8242 118.339 74.8242 116.342ZM71.1948 26.8094L73.6098 17.2635L86.9839 3.19081L83.4589 0.188477L69.2998 15.1794L66.4957 26.5842C64.3853 26.5135 62.2738 26.4784 60.1622 26.4789C45.25 26.4789 33.1611 28.1784 33.1611 30.2743C33.1611 32.3705 45.25 34.0698 60.1622 34.0698C75.0742 34.0698 87.1628 32.3705 87.1628 30.2743C87.1628 28.7309 80.6065 27.4024 71.1948 26.8094Z" fill="#E13238"/>
<path d="M69.796 32.1559C69.796 32.1559 69.2729 32.2731 67.7343 32.2797C66.1953 32.286 65.1025 32.2697 64.6672 31.8732C64.5502 31.7668 64.4862 31.5554 64.4868 31.4123C64.4881 31.1399 64.6815 30.9794 64.9278 30.8789L65.1608 31.2444C65.0595 31.2794 65.0016 31.3207 65.0014 31.3648C65.0005 31.5718 66.575 31.7134 67.7792 31.6981C68.9837 31.6833 70.439 31.5841 70.4403 31.3801C70.4403 31.3184 70.3302 31.2603 70.1388 31.2145L70.3707 30.8516C70.6828 30.9485 70.9553 31.1357 70.9546 31.4596C70.9517 32.0104 70.2507 32.0942 69.796 32.1559Z" fill="#E13238"/>
<path d="M86.9593 3.21898C87.2956 2.83057 86.7853 1.83708 85.8195 1.00027C84.8534 0.163874 83.7976 -0.199517 83.4607 0.188891C83.1242 0.577299 83.6347 1.57079 84.6009 2.40718C85.5666 3.24379 86.6229 3.6076 86.9593 3.21898ZM74.1827 69.5114C73.8658 66.4618 80.8531 62.0452 79.0599 61.9038C75.1995 62.1245 73.2783 66.4277 71.336 70.9347C70.6243 72.5865 68.1889 79.63 66.5916 78.7628C64.9947 77.8961 68.6619 72.1041 69.6897 68.6644C68.5037 69.5341 64.1542 72.9134 63.0333 69.7487C61.2312 71.2792 57.3804 72.1084 57.8148 68.088C56.8561 69.7862 54.7044 72.1571 52.1216 71.1719C48.7298 69.8784 54.087 59.074 55.4191 59.6191C56.7513 60.164 55.1502 62.6252 54.7309 63.581C53.8086 65.6844 52.7432 68.3286 53.455 68.8699C54.6742 69.7972 57.9923 65.3617 58.066 65.2642C58.6866 64.4443 60.4546 59.0806 61.8795 59.6965C63.3045 60.3124 58.3253 67.3943 60.187 68.7997C60.5625 69.0834 62.0988 68.6248 63.0333 67.6137C63.638 66.9596 63.43 65.5109 65.4456 60.7042C67.4612 55.8976 69.2576 49.9117 70.64 50.3677C72.0223 50.8235 70.8829 53.8958 70.387 55.0411C68.06 60.4165 64.0359 69.2971 65.9337 68.6248C67.8314 67.9527 68.8196 67.9133 70.6779 65.7387C72.5362 63.564 72.4506 59.9821 73.6892 60.0582C74.9282 60.1345 74.7202 61.283 74.4198 62.1575C75.6388 60.7625 80.1984 57.8244 81.2992 60.7343C82.6031 64.1793 74.7757 69.1555 76.7273 68.9017C78.6301 68.6543 81.7128 66.7018 83.029 64.9266L86.6519 32.3559C86.6519 32.3559 83.0063 35.3729 59.8133 35.3729C36.62 35.3729 33.3516 32.4187 33.3516 32.4187L36.4359 62.148C38.0731 57.4949 41.9608 48.0833 48.0889 48.3992C50.8764 48.5429 54.5977 53.9104 51.4101 54.0924C50.0608 54.1691 49.9239 51.4131 48.3261 51.0084C47.1732 50.7163 45.568 51.6536 44.5306 52.6691C42.4618 54.6938 38.0123 62.6823 38.6002 66.6649C39.3492 71.7424 45.6068 64.9006 46.6656 62.8693C47.4113 61.4384 47.915 57.199 49.5458 57.6438C51.1769 58.0886 49.4036 62.4637 48.2214 66.3319C46.8933 70.6754 46.1952 75.2572 44.5306 74.7301C42.8659 74.2035 45.5776 68.5962 45.4794 67.6137C43.9147 69.0573 41.0322 72.712 37.3444 70.9031L39.26 89.3647C39.26 89.3647 44.3511 93.3873 59.6875 93.3873C75.024 93.3873 80.3036 89.4275 80.3036 89.4275L82.6822 68.0445C80.7361 69.9395 74.5771 73.3045 74.1827 69.5114Z" fill="#E13238"/>
</g>
<defs>
<clipPath id="clip0_4693_13644">
<rect width="54.288" height="120" fill="white" transform="translate(33)"/>
</clipPath>
</defs>
</svg>
