<svg width="72" height="20" viewBox="0 0 72 20" fill="none" xmlns="http://www.w3.org/2000/svg">
<path d="M29.2623 15.8333C28.0947 15.8333 27.0745 15.5601 26.2017 15.0137C25.3289 14.4672 24.6507 13.7083 24.1672 12.7368C23.6836 11.7532 23.4418 10.6117 23.4418 9.31239C23.4418 8.00091 23.6895 6.8473 24.1849 5.85155C24.692 4.84366 25.4056 4.06041 26.3255 3.50182C27.2573 2.93109 28.36 2.64572 29.6338 2.64572C31.0845 2.64572 32.2875 3.00395 33.2429 3.7204C34.1982 4.43685 34.8174 5.42653 35.1005 6.68944H32.5706C32.3819 6.09441 32.0398 5.63297 31.5445 5.3051C31.0491 4.96509 30.4122 4.79508 29.6338 4.79508C28.3954 4.79508 27.4401 5.20188 26.7678 6.01548C26.0955 6.81694 25.7594 7.92198 25.7594 9.3306C25.7594 10.7392 26.0896 11.8321 26.7501 12.6093C27.4224 13.3743 28.3306 13.7568 29.4746 13.7568C30.595 13.7568 31.4383 13.4472 32.0045 12.8279C32.5824 12.1964 32.9303 11.3707 33.0483 10.3506H29.9169V8.602H35.3304V15.6148H33.2429L33.0659 13.939C32.6649 14.5461 32.1637 15.0137 31.5622 15.3415C30.9607 15.6694 30.194 15.8333 29.2623 15.8333Z" fill="white"/>
<path d="M40.8579 15.8333C39.9733 15.8333 39.189 15.639 38.5049 15.2505C37.8209 14.8619 37.2842 14.3154 36.895 13.6111C36.5058 12.9068 36.3112 12.0932 36.3112 11.1703C36.3112 10.2353 36.4999 9.40346 36.8773 8.67486C37.2665 7.94627 37.7973 7.3816 38.4696 6.98087C39.1536 6.568 39.9556 6.36157 40.8756 6.36157C41.7366 6.36157 42.4973 6.55586 43.1578 6.94444C43.8183 7.33303 44.3313 7.86733 44.6969 8.54736C45.0743 9.21524 45.2631 9.96205 45.2631 10.7878C45.2631 10.9214 45.2572 11.061 45.2454 11.2067C45.2454 11.3525 45.2395 11.5043 45.2277 11.6621H38.558C38.6052 12.3664 38.8411 12.9189 39.2657 13.3197C39.7021 13.7204 40.2269 13.9208 40.8402 13.9208C41.3002 13.9208 41.6835 13.8175 41.9901 13.6111C42.3086 13.3925 42.5445 13.1132 42.6978 12.7732H44.9977C44.8326 13.344 44.5554 13.8661 44.1662 14.3397C43.7888 14.8012 43.317 15.1655 42.7509 15.4326C42.1965 15.6998 41.5656 15.8333 40.8579 15.8333ZM40.8756 8.25592C40.3213 8.25592 39.8318 8.41985 39.4072 8.74772C38.9826 9.06345 38.7113 9.54918 38.5934 10.2049H42.9632C42.9278 9.6099 42.7155 9.13631 42.3263 8.78415C41.9371 8.432 41.4535 8.25592 40.8756 8.25592Z" fill="white"/>
<path d="M50.5467 15.8333C49.6621 15.8333 48.8778 15.639 48.1937 15.2505C47.5097 14.8619 46.973 14.3154 46.5838 13.6111C46.1946 12.9068 46 12.0932 46 11.1703C46 10.2353 46.1887 9.40346 46.5661 8.67486C46.9553 7.94627 47.4861 7.3816 48.1584 6.98087C48.8424 6.568 49.6444 6.36157 50.5644 6.36157C51.4254 6.36157 52.1861 6.55586 52.8466 6.94444C53.5071 7.33303 54.0201 7.86733 54.3857 8.54736C54.7631 9.21524 54.9518 9.96205 54.9518 10.7878C54.9518 10.9214 54.9459 11.061 54.9342 11.2067C54.9342 11.3525 54.9283 11.5043 54.9165 11.6621H48.2468C48.294 12.3664 48.5299 12.9189 48.9545 13.3197C49.3909 13.7204 49.9157 13.9208 50.529 13.9208C50.989 13.9208 51.3723 13.8175 51.6789 13.6111C51.9974 13.3925 52.2333 13.1132 52.3866 12.7732H54.6865C54.5214 13.344 54.2442 13.8661 53.855 14.3397C53.4776 14.8012 53.0058 15.1655 52.4397 15.4326C51.8853 15.6998 51.2543 15.8333 50.5467 15.8333ZM50.5644 8.25592C50.0101 8.25592 49.5206 8.41985 49.096 8.74772C48.6714 9.06345 48.4001 9.54918 48.2822 10.2049H52.652C52.6166 9.6099 52.4043 9.13631 52.0151 8.78415C51.6259 8.432 51.1423 8.25592 50.5644 8.25592Z" fill="white"/>
<path d="M55.9719 15.6148V2.5H58.2364V10.2413L61.35 6.58015H64.0391L60.4478 10.6967L64.6229 15.6148H61.7923L58.2364 11.0792V15.6148H55.9719Z" fill="white"/>
<path d="M68.3372 15.8333C67.5588 15.8333 66.8747 15.7058 66.285 15.4508C65.6953 15.1837 65.2235 14.8194 64.8697 14.3579C64.5158 13.8965 64.3035 13.3622 64.2328 12.755H66.515C66.5857 13.1072 66.7744 13.4107 67.0811 13.6658C67.3995 13.9086 67.8064 14.0301 68.3018 14.0301C68.7971 14.0301 69.1569 13.9268 69.381 13.7204C69.6169 13.514 69.7348 13.2772 69.7348 13.01C69.7348 12.6214 69.5697 12.3604 69.2394 12.2268C68.9092 12.0811 68.4492 11.9414 67.8595 11.8078C67.4821 11.7228 67.0988 11.6196 66.7096 11.4982C66.3204 11.3767 65.9606 11.225 65.6304 11.0428C65.3119 10.8485 65.0525 10.6056 64.852 10.3142C64.6515 10.0106 64.5512 9.64025 64.5512 9.2031C64.5512 8.40164 64.8579 7.72769 65.4712 7.18124C66.0963 6.63479 66.969 6.36157 68.0895 6.36157C69.1274 6.36157 69.953 6.6105 70.5663 7.10838C71.1914 7.60625 71.5629 8.29235 71.6808 9.16667H69.5402C69.4104 8.49879 68.921 8.16484 68.0718 8.16484C67.6472 8.16484 67.317 8.24985 67.0811 8.41985C66.857 8.58986 66.745 8.80237 66.745 9.05738C66.745 9.32453 66.916 9.53704 67.258 9.6949C67.6 9.85276 68.0541 9.99848 68.6202 10.1321C69.2335 10.2778 69.7938 10.4417 70.3009 10.6239C70.8199 10.7939 71.2327 11.0549 71.5393 11.4071C71.846 11.7471 71.9993 12.2389 71.9993 12.8825C72.0111 13.4411 71.8696 13.9451 71.5747 14.3944C71.2798 14.8437 70.8553 15.1958 70.3009 15.4508C69.7466 15.7058 69.092 15.8333 68.3372 15.8333Z" fill="white"/>
<path d="M7.05141 11.5166C7.05141 11.737 6.92999 11.9158 6.7802 11.9158C6.63042 11.9158 6.50899 11.737 6.50899 11.5166C6.50899 11.2961 6.63042 11.1174 6.7802 11.1174C6.92999 11.1174 7.05141 11.2961 7.05141 11.5166Z" fill="white"/>
<path d="M12.0688 11.5166C12.0688 11.737 12.1902 11.9158 12.34 11.9158C12.4898 11.9158 12.6112 11.737 12.6112 11.5166C12.6112 11.2961 12.4898 11.1174 12.34 11.1174C12.1902 11.1174 12.0688 11.2961 12.0688 11.5166Z" fill="white"/>
<path d="M10.1477 14.1113C9.69571 14.4661 9.08548 14.2887 8.92728 14.1113C8.97248 14.333 9.14425 14.6435 9.5601 14.6435C9.97595 14.6435 10.1251 14.2887 10.1477 14.1113Z" fill="white"/>
<path fill-rule="evenodd" clip-rule="evenodd" d="M17.3988 9.10975C17.9139 7.82318 18.4347 5.13638 17.3122 3.73256C17.7265 3.3112 18.6953 2.59266 19.2558 2.91201C19.1127 1.79577 17.9877 -0.358813 14.6453 0.0511719C13.9173 0.140468 13.3893 0.301305 12.8914 0.452963C11.6583 0.828624 10.6099 1.14797 7.1644 0.18423C4.47492 -0.414531 2.35046 1.24875 2.35046 2.95636C1.31108 3.68803 0.158772 5.63869 1.69391 9.11887C1.18731 9.29216 0.79805 9.71111 0.674336 10.2303H0.271208C0.121423 10.2303 0 10.3494 0 10.4964V11.2061C0 11.3531 0.121423 11.4722 0.271208 11.4722H0.632819V12.8472C0.632819 13.7046 1.34113 14.3996 2.21487 14.3996H7.18701C8.06075 14.3996 8.76907 13.7046 8.76907 12.8472V12.1375H10.3511V12.8472C10.3511 13.7046 11.0594 14.3996 11.9332 14.3996H16.9053C17.7791 14.3996 18.4874 13.7046 18.4874 12.8472V11.4722H18.8038C18.9536 11.4722 19.075 11.3531 19.075 11.2061V10.4964C19.075 10.3494 18.9536 10.2303 18.8038 10.2303H18.4459C18.3199 9.70176 17.9188 9.2771 17.3988 9.10975ZM2.83633 8.95659C2.84024 8.98277 2.84403 9.00816 2.84768 9.03274H7.18701C8.06075 9.03274 8.76907 9.72777 8.76907 10.5851V10.8956H10.3511V10.5851C10.3511 9.72777 11.0594 9.03274 11.9332 9.03274H16.153C16.3963 6.25763 16.1161 5.14054 15.8431 4.9523C12.5746 7.27059 9.65507 6.53372 8.75267 6.30595C8.50696 6.24394 8.41079 6.21966 8.49785 6.30509C8.76313 6.5654 9.36679 6.87777 9.79718 7.10048L9.79725 7.10052C9.89483 7.15102 9.98351 7.19691 10.0573 7.23653C6.50919 7.27678 5.08276 5.60033 4.66339 5.10744C4.62063 5.05718 4.58833 5.01923 4.56533 4.99666C4.36067 4.79584 3.20929 4.10957 2.84767 5.41802C2.49741 6.68541 2.71924 8.17191 2.83633 8.95659ZM4.52736 1.68732C5.70035 0.501901 7.93254 0.815025 8.7989 1.11072C6.92304 0.0462219 5.06977 0.667179 4.32395 1.02201C3.57813 1.37684 2.6289 2.5744 3.03571 2.97358C3.44252 3.37275 3.96234 2.44134 3.96234 2.44134C3.96234 2.44134 4.26788 1.94954 4.52736 1.68732ZM2.21487 9.91982H7.18701C7.56147 9.91982 7.86503 10.2177 7.86503 10.5851V12.8472C7.86503 13.2146 7.56147 13.5125 7.18701 13.5125H2.21487C1.84041 13.5125 1.53685 13.2146 1.53685 12.8472V10.5851C1.53685 10.2177 1.84041 9.91982 2.21487 9.91982ZM16.9053 9.91982H11.9332C11.5587 9.91982 11.2552 10.2177 11.2552 10.5851V12.8472C11.2552 13.2146 11.5587 13.5125 11.9332 13.5125H16.9053C17.2798 13.5125 17.5834 13.2146 17.5834 12.8472V10.5851C17.5834 10.2177 17.2798 9.91982 16.9053 9.91982Z" fill="white"/>
<path fill-rule="evenodd" clip-rule="evenodd" d="M8.61857 15.7276C8.63736 15.6438 8.72177 15.5909 8.8071 15.6093L10.404 15.9543C10.4893 15.9727 10.5433 16.0556 10.5245 16.1393C10.5057 16.223 10.4213 16.276 10.336 16.2575L8.73906 15.9125C8.65373 15.8941 8.59979 15.8113 8.61857 15.7276Z" fill="white"/>
<path d="M9.5375 19.4116C6.39148 19.4471 4.08318 16.6025 3.32229 15.1758C3.2093 14.9639 3.1189 14.9318 3.0511 14.9762C2.94261 15.0472 3.02095 15.1906 3.05109 15.2645C3.43078 16.1338 3.94758 16.8686 4.15852 17.1274C3.41722 18.3338 3.17162 19.5373 3.14149 19.9882C4.37097 18.7995 5.6125 18.8572 6.07958 19.0346C9.74088 20.8974 11.775 19.589 12.9276 19.0346C13.8497 18.591 15.2856 19.4559 15.8883 19.9438C15.816 18.8439 15.2103 17.6374 14.9165 17.1717C15.3911 16.5508 15.7753 15.7967 15.9787 15.4197C16.1414 15.1181 16.0917 14.9984 16.0465 14.9762C15.938 14.923 15.8054 15.0871 15.7527 15.1758C15.4137 15.7302 13.47 19.3672 9.5375 19.4116Z" fill="white"/>
</svg>
