<svg width="133" height="34" viewBox="0 0 133 34" fill="none" xmlns="http://www.w3.org/2000/svg">
<g clip-path="url(#clip0)">
<path opacity="0.5" d="M30.3462 19.9833C30.3462 28.1488 24.9428 34.7683 18.2774 34.7683C11.6119 34.7683 6.20851 28.1488 6.20851 19.9833C6.20851 17.0196 6.11333 13.2271 7.33902 10.9133C9.49021 6.8523 14.0312 5.86206 18.2774 5.86206C22.5235 5.86206 27.4313 7.14727 29.5825 11.2082C30.8082 13.5221 30.3462 17.0196 30.3462 19.9833Z" fill="white"/>
<path fill-rule="evenodd" clip-rule="evenodd" d="M28.8046 6.25339C30.65 8.60529 29.7938 13.1066 28.9471 15.2621C28.9549 15.2647 28.9626 15.2673 28.9705 15.2699L28.9532 15.2705L26.8987 15.1338C26.8987 15.1304 26.8985 15.1257 26.8987 15.1233C27.2988 10.474 26.8384 8.61226 26.3896 8.2969C21.0163 12.1809 16.2167 10.9463 14.7332 10.5648C14.3293 10.4609 14.1712 10.4202 14.3143 10.5633C14.7504 10.9994 15.7427 11.5227 16.4503 11.8959H16.4504L16.4509 11.8961C16.6112 11.9807 16.7568 12.0575 16.878 12.1238C11.045 12.1912 8.70004 9.38258 8.01062 8.55682C7.94032 8.47261 7.88722 8.40902 7.84941 8.37121C7.51296 8.03476 5.62013 6.88502 5.02566 9.07714C4.44984 11.2005 4.81451 13.6909 5.00701 15.0055C5.0237 15.1194 5.02567 15.1219 5.02567 15.1591L3.13079 15.2705L3.12585 15.2703C0.606753 9.44419 2.50026 6.17828 4.20825 4.95298C4.20825 2.0921 7.70078 -0.69449 12.1222 0.308652C17.7865 1.92326 19.5099 1.38824 21.5372 0.758878C22.3556 0.504797 23.2236 0.235334 24.4204 0.0857316C29.9152 -0.601142 31.7646 3.00855 31.9999 4.87867C31.0785 4.34364 29.4858 5.54745 28.8046 6.25339ZM14.8093 1.86086C13.3849 1.36546 9.71533 0.840866 7.78698 2.82688C7.36042 3.26619 6.85812 4.09013 6.85812 4.09013C6.85812 4.09013 6.00356 5.65058 5.33478 4.98181C4.666 4.31305 6.22649 2.30671 7.45259 1.71224C8.67869 1.11777 11.7254 0.0774386 14.8093 1.86086Z" fill="#754FFE"/>
<path d="M12.1604 15.8279H3.98639C2.96039 15.8279 2.12866 16.6596 2.12866 17.6856V21.4754C2.12866 22.5014 2.96039 23.3331 3.98639 23.3331H12.1604C13.1864 23.3331 14.0181 22.5014 14.0181 21.4754V17.6856C14.0181 16.6596 13.1864 15.8279 12.1604 15.8279Z" fill="#F4F1FF" stroke="#754FFE" stroke-width="1.48619"/>
<path d="M1.31021 17.1282H0.790048C0.564329 17.1282 0.381348 17.3112 0.381348 17.5369V18.7258C0.381348 18.9515 0.564329 19.1345 0.790048 19.1345H1.31021C1.53593 19.1345 1.71891 18.9515 1.71891 18.7258V17.5369C1.71891 17.3112 1.53593 17.1282 1.31021 17.1282Z" fill="#754FFE" stroke="#754FFE" stroke-width="0.0743091"/>
<path d="M19.9624 15.8279H28.1364C29.1624 15.8279 29.9941 16.6596 29.9941 17.6856V21.4754C29.9941 22.5014 29.1624 23.3331 28.1364 23.3331H19.9624C18.9364 23.3331 18.1047 22.5014 18.1047 21.4754V17.6856C18.1047 16.6596 18.9364 15.8279 19.9624 15.8279Z" fill="#F4F1FF" stroke="#754FFE" stroke-width="1.48619"/>
<path d="M30.8111 17.1282H31.3313C31.557 17.1282 31.74 17.3112 31.74 17.5369V18.7258C31.74 18.9515 31.557 19.1345 31.3313 19.1345H30.8111C30.5854 19.1345 30.4024 18.9515 30.4024 18.7258V17.5369C30.4024 17.3112 30.5854 17.1282 30.8111 17.1282Z" fill="#754FFE" stroke="#754FFE" stroke-width="0.0743091"/>
<path d="M14.76 18.2429H17.3608C17.5866 18.2429 17.7695 18.4259 17.7695 18.6516V19.8406C17.7695 20.0663 17.5866 20.2493 17.3608 20.2493H14.76C14.5343 20.2493 14.3513 20.0663 14.3513 19.8406V18.6516C14.3513 18.4259 14.5343 18.2429 14.76 18.2429Z" fill="#754FFE" stroke="#754FFE" stroke-width="0.0743091"/>
<path d="M11.9908 19.2201C11.9908 19.5894 11.7912 19.8889 11.545 19.8889C11.2987 19.8889 11.0991 19.5894 11.0991 19.2201C11.0991 18.8507 11.2987 18.5513 11.545 18.5513C11.7912 18.5513 11.9908 18.8507 11.9908 19.2201Z" fill="#754FFE"/>
<path d="M20.2393 19.2201C20.2393 19.5894 20.4388 19.8889 20.6851 19.8889C20.9313 19.8889 21.131 19.5894 21.131 19.2201C21.131 18.8507 20.9313 18.5513 20.6851 18.5513C20.4388 18.5513 20.2393 18.8507 20.2393 19.2201Z" fill="#754FFE"/>
<path d="M17.082 23.5674C16.339 24.1618 15.3357 23.8646 15.0757 23.5674C15.1499 23.9389 15.4323 24.4591 16.116 24.4591C16.7996 24.4591 17.0449 23.8646 17.082 23.5674Z" fill="#754FFE"/>
<path fill-rule="evenodd" clip-rule="evenodd" d="M14.5676 26.275C14.5985 26.1348 14.7373 26.046 14.8776 26.077L17.5028 26.6548C17.6431 26.6858 17.7318 26.8245 17.7008 26.9648C17.67 27.105 17.5313 27.1938 17.3909 27.1628L14.7658 26.5848C14.6254 26.554 14.5368 26.4153 14.5676 26.275Z" fill="#754FFE"/>
<path d="M16.079 32.447C10.9071 32.5064 7.11239 27.7408 5.86152 25.3505C5.67575 24.9955 5.52715 24.9418 5.41569 25.0161C5.23734 25.135 5.36613 25.3753 5.41566 25.4991C6.03986 26.9556 6.88946 28.1867 7.23623 28.6201C6.01757 30.6413 5.61383 32.6575 5.56428 33.413C7.58549 31.4216 9.62652 31.5182 10.3944 31.8154C16.4134 34.9364 19.7574 32.7443 21.6522 31.8154C23.1681 31.0723 25.5287 32.5213 26.5195 33.3387C26.4006 31.4959 25.4049 29.4747 24.9218 28.6944C25.7021 27.654 26.3337 26.3909 26.6682 25.7592C26.9356 25.2539 26.8539 25.0533 26.7795 25.0161C26.6012 24.927 26.3833 25.2019 26.2966 25.3505C25.7392 26.2794 22.5439 32.3728 16.079 32.447Z" fill="#754FFE"/>
<path d="M53.4234 12.7334H58.5528C57.9 8.0121 53.7382 4.6897 48.3408 4.6897C42.034 4.6897 37.1729 9.23613 37.1729 16.9767C37.1729 24.5308 41.7194 29.2172 48.4457 29.2172C54.4726 29.2172 58.7742 25.4051 58.7742 19.1217V16.114H48.7837V19.9144H53.913C53.8432 22.8755 51.8264 24.7523 48.4691 24.7523C44.6803 24.7523 42.2906 21.9195 42.2906 16.9302C42.2906 11.964 44.7736 9.15453 48.4224 9.15453C51.022 9.15453 52.7823 10.4952 53.4234 12.7334Z" fill="#18113C"/>
<path d="M69.3198 29.2403C73.7498 29.2403 76.734 27.0837 77.4335 23.7613L72.8404 23.4581C72.3391 24.8221 71.0568 25.5332 69.4014 25.5332C66.9183 25.5332 65.3446 23.8895 65.3446 21.2199V21.2083H77.5384V19.8443C77.5384 13.7591 73.8546 10.7515 69.1217 10.7515C63.8525 10.7515 60.4368 14.4935 60.4368 20.0192C60.4368 25.6964 63.8058 29.2403 69.3198 29.2403ZM65.3446 18.1307C65.4495 16.0906 67.0001 14.4586 69.2033 14.4586C71.3599 14.4586 72.852 15.9973 72.8638 18.1307H65.3446Z" fill="#18113C"/>
<path d="M87.6262 29.2403C92.056 29.2403 95.0404 27.0837 95.7399 23.7613L91.1468 23.4581C90.6455 24.8221 89.3632 25.5332 87.7078 25.5332C85.2247 25.5332 83.651 23.8895 83.651 21.2199V21.2083H95.8448V19.8443C95.8448 13.7591 92.161 10.7515 87.4281 10.7515C82.1589 10.7515 78.7432 14.4935 78.7432 20.0192C78.7432 25.6964 82.1122 29.2403 87.6262 29.2403ZM83.651 18.1307C83.7559 16.0906 85.3063 14.4586 87.5096 14.4586C89.6663 14.4586 91.1584 15.9973 91.17 18.1307H83.651Z" fill="#18113C"/>
<path d="M97.772 28.8905H102.738V23.2016L104.079 21.6744L108.963 28.8905H114.78L107.797 18.7367L114.442 10.9845H108.742L103.006 17.7809H102.738V5.01587H97.772V28.8905Z" fill="#18113C"/>
<path d="M130.464 16.0906C130.021 12.7915 127.363 10.7515 122.84 10.7515C118.259 10.7515 115.239 12.8731 115.251 16.3237C115.239 19.0049 116.93 20.742 120.427 21.4415L123.528 22.0593C125.09 22.374 125.801 22.9452 125.825 23.8429C125.801 24.9037 124.647 25.6614 122.91 25.6614C121.139 25.6614 119.96 24.9037 119.658 23.4465L114.773 23.7029C115.239 27.1302 118.154 29.2403 122.898 29.2403C127.538 29.2403 130.86 26.8738 130.872 23.3416C130.86 20.7536 129.17 19.2032 125.696 18.492L122.455 17.8392C120.788 17.4779 120.17 16.9067 120.182 16.044C120.17 14.9715 121.383 14.272 122.922 14.272C124.647 14.272 125.672 15.2163 125.917 16.3704L130.464 16.0906Z" fill="#18113C"/>
</g>
<defs>
<clipPath id="clip0">
<rect width="132" height="34" fill="white" transform="translate(0.344727)"/>
</clipPath>
</defs>
</svg>
