<svg width="465" height="328" viewBox="0 0 465 328" fill="none" xmlns="http://www.w3.org/2000/svg">
<path d="M465 280.652H0V280.914H465V280.652Z" fill="#BEB9CD"/>
<path d="M439.395 290.634H406.246V290.896H439.395V290.634Z" fill="#BEB9CD"/>
<path d="M319.107 287.792H284.026V288.054H319.107V287.792Z" fill="#BEB9CD"/>
<path d="M448.971 300.374H383.42V300.636H448.971V300.374Z" fill="#BEB9CD"/>
<path d="M42.2745 298.612H22.083V298.874H42.2745V298.612Z" fill="#BEB9CD"/>
<path d="M83.4344 298.612H51.6299V298.874H83.4344V298.612Z" fill="#BEB9CD"/>
<path d="M223.347 294.188H166.059V294.45H223.347V294.188Z" fill="#BEB9CD"/>
<path d="M229.501 328C341.937 328 433.085 322.686 433.085 316.131C433.085 309.576 341.937 304.263 229.501 304.263C117.064 304.263 25.916 309.576 25.916 316.131C25.916 322.686 117.064 328 229.501 328Z" fill="#F5F4F8"/>
<path d="M131.711 32.6696C123.248 41.1726 137.633 54.3727 128.131 60.4328C135.89 64.3226 163.085 69.2608 170.131 53.9638C164.996 49.9797 168.566 40.187 163.831 30.7824C156.743 16.8378 123.248 23.0133 131.711 32.6696Z" fill="#18113C"/>
<path d="M132.478 32.4496C129.843 32.0092 120.928 36.4337 127.564 48.3128C132.909 57.9167 128.457 58.5982 128.457 58.5982C128.457 58.5982 133.707 58.745 130.557 51.605C127.218 43.9827 125.653 36.0773 132.478 32.4496Z" fill="#18113C"/>
<path d="M194.9 107.875C194.575 107.282 194.03 106.84 193.382 106.644C192.734 106.447 192.035 106.513 191.435 106.827L190.816 107.152C190.616 107.257 190.238 107.509 189.934 107.687C189.629 107.865 189.272 108.064 188.936 108.232C188.274 108.565 187.59 108.852 186.889 109.092C185.591 109.561 184.226 109.82 182.846 109.857C181.579 109.872 180.318 109.67 179.119 109.259C178.357 108.977 177.622 108.626 176.924 108.211C176.021 106.219 175.16 104.206 174.425 102.13C173.533 99.708 172.745 97.2336 172.052 94.7278C171.359 92.222 170.75 89.6847 170.246 87.1369C169.984 85.8683 169.753 84.5892 169.543 83.3206L169.259 81.4228C169.165 80.8147 169.081 80.1227 169.028 79.6404V79.4308C168.889 78.0404 168.202 76.7622 167.119 75.8774C166.036 74.9926 164.646 74.5737 163.253 74.7127C161.861 74.8517 160.581 75.5374 159.695 76.6188C158.809 77.7002 158.389 79.0889 158.528 80.4792C158.602 81.3704 158.665 82.0519 158.759 82.7963C158.854 83.5407 158.959 84.2537 159.064 84.9771C159.295 86.424 159.557 87.8499 159.851 89.2758C160.435 92.1092 161.171 94.9091 162.056 97.6635C162.466 99.0474 162.97 100.41 163.442 101.784C163.915 103.157 164.492 104.499 165.091 105.831C166.237 108.521 167.537 111.143 168.986 113.684L169.112 113.915C169.489 114.597 170.054 115.157 170.74 115.529C172.724 116.609 174.869 117.367 177.092 117.773C179.376 118.176 181.716 118.126 183.98 117.626C187.176 116.886 190.111 115.295 192.475 113.023C192.863 112.667 193.231 112.3 193.525 111.912C193.819 111.524 194.176 111.157 194.575 110.612C194.882 110.233 195.076 109.775 195.134 109.291C195.192 108.806 195.111 108.316 194.9 107.875Z" fill="#FF8B7B"/>
<path d="M201.883 98.062H201.578C200.573 98.0407 199.577 98.2509 198.666 98.6764C197.756 99.1019 196.956 99.7312 196.328 100.515L191.257 106.869V111.21C195.331 112.824 200.497 108.473 200.497 108.473L203.111 107.813C203.991 107.593 204.759 107.056 205.265 106.305C205.771 105.553 205.98 104.641 205.852 103.745L205.474 101.197C205.351 100.332 204.92 99.539 204.261 98.9637C203.602 98.3883 202.758 98.0684 201.883 98.062Z" fill="#FF8B7B"/>
<path d="M168.892 73.5593C172.284 77.0402 172.494 87.4304 172.494 87.4304L158.928 98.3344C158.928 98.3344 153.352 82.9221 156.439 77.4805C159.054 72.8673 164.566 69.1243 168.892 73.5593Z" fill="#754FFE"/>
<g opacity="0.2">
<path opacity="0.2" d="M168.892 73.5593C172.284 77.0402 172.494 87.4304 172.494 87.4304L158.928 98.3344C158.928 98.3344 153.352 82.9221 156.439 77.4805C159.054 72.8673 164.566 69.1243 168.892 73.5593Z" fill="white"/>
</g>
<path d="M146.443 307.146L153.94 307.963L154.969 287.623L147.472 286.795L146.443 307.146Z" fill="#FF8B7B"/>
<path d="M155.168 303.078H146.359C146.181 303.073 146.009 303.136 145.877 303.256C145.746 303.375 145.666 303.541 145.655 303.718L145.067 312.032C145.067 312.467 145.237 312.885 145.541 313.197C145.845 313.508 146.259 313.688 146.695 313.699C150.412 313.699 150.454 313.699 155.095 313.699H167.6C171.443 313.699 171.454 309.81 169.795 309.453C162.329 307.88 159.421 305.7 156.785 303.624C156.322 303.267 155.753 303.075 155.168 303.078Z" fill="#18113C"/>
<path opacity="0.2" d="M154.969 287.634L154.434 298.119H146.895L147.472 286.806L154.969 287.634Z" fill="black"/>
<path d="M159.011 125.343C159.011 125.343 165.5 179.58 165.5 203.695C160.387 237.246 156.05 296.127 156.05 296.127L145.676 295.854C145.676 295.854 140.962 231.731 145.33 204.041C139.733 179.234 132.824 121.988 132.824 121.988L159.011 125.343Z" fill="#18113C"/>
<path opacity="0.2" d="M139.009 140.44C137.773 140.984 136.573 141.607 135.418 142.307C136.846 153.011 138.725 166.484 140.72 178.919C144.122 168.686 142.285 146.186 139.009 140.44Z" fill="black"/>
<path d="M65.2568 288.263L71.4413 292.572L82.1093 275.21L75.9248 270.9L65.2568 288.263Z" fill="#FF8B7B"/>
<path d="M73.0059 290.297L67.7559 283.241C67.6559 283.096 67.5031 282.997 67.3303 282.963C67.1576 282.93 66.9786 282.966 66.8319 283.063L59.7969 287.571C59.4459 287.829 59.2107 288.214 59.1419 288.644C59.0731 289.074 59.1764 289.513 59.4294 289.867C61.6239 292.855 61.6659 292.876 64.4274 296.588C66.1389 298.863 69.5514 303.445 71.9034 306.601C74.2554 309.757 77.3319 307.366 76.6179 305.814C73.4679 298.905 73.4679 295.33 73.5309 291.933C73.5416 291.345 73.357 290.769 73.0059 290.297Z" fill="#18113C"/>
<path opacity="0.2" d="M82.0984 275.21L76.6069 284.163L69.9814 280.557L75.9244 270.9L82.0984 275.21Z" fill="black"/>
<path d="M103.193 295.539C97.8279 295.539 86.6559 295.539 86.4669 287.655C86.3199 281.469 93.9849 278.9 100.6 278.586C101.333 278.55 102.066 278.66 102.756 278.907C103.447 279.155 104.082 279.536 104.625 280.028C105.168 280.521 105.609 281.116 105.921 281.778C106.234 282.441 106.413 283.159 106.448 283.891V284.31C113.945 283.954 118.796 282.318 120.571 279.529C124.571 273.238 116.906 256.998 109.504 241.302C100.789 222.839 90.9189 201.922 90.7299 181.886C90.723 181.154 90.8606 180.427 91.135 179.748C91.4093 179.068 91.815 178.449 92.3288 177.927C92.8427 177.404 93.4546 176.987 94.1297 176.7C94.8048 176.414 95.5298 176.263 96.2634 176.256C97.735 176.259 99.1464 176.84 100.192 177.874C101.237 178.908 101.833 180.312 101.849 181.781C102.017 199.374 111.299 219.117 119.552 236.542C129.002 256.652 137.245 274.025 129.947 285.505C125.716 292.258 116.948 295.539 103.193 295.539Z" fill="#754FFE"/>
<path d="M150.706 124.274C150.706 124.274 132.793 186.259 124.046 208.738C107.099 238.158 78.9804 283.178 78.9804 283.178L70.0029 277.936C70.0029 277.936 91.0029 225.932 105.125 201.713C108.916 176.55 123.248 120.709 123.248 120.709L150.706 124.274Z" fill="#18113C"/>
<path d="M74.6225 295.361C74.9788 295.95 75.5277 296.399 76.1765 296.63C76.3665 296.676 76.5654 296.667 76.7508 296.606C76.9363 296.545 77.1011 296.434 77.2265 296.284C77.3138 296.204 77.3805 296.104 77.4207 295.993C77.4609 295.881 77.4735 295.762 77.4575 295.645C77.3315 294.386 74.0765 292.751 73.4255 292.436C73.3876 292.421 73.3453 292.42 73.3066 292.433C73.268 292.447 73.2356 292.474 73.2155 292.51C73.1902 292.549 73.1768 292.594 73.1768 292.641C73.1768 292.687 73.1902 292.733 73.2155 292.772C73.6011 293.678 74.0722 294.545 74.6225 295.361ZM76.859 295.361C76.9515 295.477 77.0129 295.614 77.0375 295.76C77.0426 295.801 77.0376 295.842 77.0229 295.88C77.0083 295.919 76.9845 295.953 76.9535 295.98C76.8688 296.076 76.76 296.148 76.6383 296.189C76.5165 296.23 76.3862 296.237 76.2605 296.211C75.5675 296.074 74.654 294.953 73.772 293.181C74.9156 293.713 75.9597 294.436 76.859 295.32V295.361Z" fill="#754FFE"/>
<path d="M73.1638 292.814L73.2268 292.866C74.2768 293.443 77.0068 293.914 77.6053 293.044C77.7058 292.885 77.7546 292.699 77.7453 292.512C77.7359 292.324 77.6686 292.144 77.5528 291.996C76.5028 290.14 73.3528 292.321 73.2163 292.415C73.185 292.44 73.1601 292.472 73.1437 292.509C73.1272 292.545 73.1197 292.585 73.1218 292.625C73.1176 292.69 73.1321 292.756 73.1638 292.814ZM77.1538 292.205C77.1844 292.242 77.2125 292.28 77.2378 292.321C77.3533 292.52 77.3743 292.667 77.3113 292.751C76.9648 293.254 74.9488 293.076 73.7728 292.614C74.5603 292.143 76.3978 291.188 77.1538 292.205Z" fill="#754FFE"/>
<path d="M160.251 304.808C160.939 304.87 161.628 304.696 162.204 304.315C162.35 304.187 162.458 304.022 162.515 303.836C162.572 303.651 162.577 303.454 162.529 303.266C162.514 303.148 162.472 303.034 162.407 302.934C162.341 302.834 162.254 302.751 162.151 302.69C161.101 302.05 157.815 303.675 157.174 304.011C157.138 304.031 157.11 304.062 157.095 304.101C157.079 304.139 157.078 304.181 157.09 304.22C157.106 304.264 157.133 304.303 157.168 304.334C157.202 304.366 157.244 304.388 157.29 304.399C158.26 304.636 159.252 304.773 160.251 304.808ZM161.553 302.994C161.702 302.984 161.852 303.017 161.983 303.088C162.036 303.088 162.088 303.161 162.109 303.287C162.137 303.413 162.13 303.543 162.089 303.665C162.048 303.787 161.976 303.895 161.878 303.979C161.364 304.451 159.915 304.514 157.962 304.168C159.065 303.577 160.262 303.18 161.5 302.994H161.553Z" fill="#754FFE"/>
<path d="M157.29 304.452H157.363C158.413 303.97 160.461 302.051 160.125 301.055C160.055 300.89 159.938 300.75 159.789 300.651C159.639 300.552 159.464 300.499 159.285 300.499C157.185 300.258 157.038 304.054 157.027 304.211C157.028 304.253 157.038 304.294 157.059 304.33C157.079 304.367 157.108 304.398 157.143 304.421C157.187 304.446 157.239 304.457 157.29 304.452ZM159.18 300.887H159.327C159.547 300.887 159.684 300.982 159.715 301.086C159.915 301.663 158.571 303.183 157.489 303.844C157.584 302.932 157.92 300.887 159.201 300.887H159.18Z" fill="#754FFE"/>
<path d="M123.248 120.761L159.011 125.332C167.075 98.2192 169.732 85.1239 170.446 78.8226C170.635 77.2388 170.264 75.6389 169.397 74.2989C168.531 72.959 167.223 71.9632 165.7 71.4834C163.6 70.8124 160.891 70.0156 158.203 69.3865C157.289 69.1454 156.355 68.9252 155.441 68.7155C150.087 67.6308 144.662 66.9301 139.208 66.6186C138.4 66.5452 137.602 66.5032 136.793 66.4613C135.208 66.3774 133.643 66.3565 132.215 66.3565C131.143 66.3552 130.083 66.5768 129.102 67.0073C128.12 67.4378 127.24 68.0676 126.516 68.8567C125.792 69.6457 125.24 70.5768 124.896 71.5904C124.552 72.6041 124.424 73.6781 124.519 74.7441C124.802 77.8895 125.023 80.8147 125.191 83.4988C125.59 89.7895 125.716 94.8222 125.621 99.2257C125.406 106.456 124.613 113.657 123.248 120.761Z" fill="#754FFE"/>
<g opacity="0.3">
<path opacity="0.3" d="M123.248 120.761L159.011 125.332C167.075 98.2192 169.732 85.1239 170.446 78.8226C170.635 77.2388 170.264 75.6389 169.397 74.2989C168.531 72.959 167.223 71.9632 165.7 71.4834C163.6 70.8124 160.891 70.0156 158.203 69.3865C157.289 69.1454 156.355 68.9252 155.441 68.7155C150.087 67.6308 144.662 66.9301 139.208 66.6186C138.4 66.5452 137.602 66.5032 136.793 66.4613C135.208 66.3774 133.643 66.3565 132.215 66.3565C131.143 66.3552 130.083 66.5768 129.102 67.0073C128.12 67.4378 127.24 68.0676 126.516 68.8567C125.792 69.6457 125.24 70.5768 124.896 71.5904C124.552 72.6041 124.424 73.6781 124.519 74.7441C124.802 77.8895 125.023 80.8147 125.191 83.4988C125.59 89.7895 125.716 94.8222 125.621 99.2257C125.406 106.456 124.613 113.657 123.248 120.761Z" fill="white"/>
</g>
<path opacity="0.3" d="M125.6 99.1836C130.325 93.0816 132.037 86.0988 130.504 82.251L125.17 83.4462C125.6 89.716 125.716 94.7696 125.6 99.1836Z" fill="#754FFE"/>
<path d="M158.202 69.3233C157.278 69.0822 156.354 68.862 155.441 68.6523C150.083 67.5726 144.655 66.8719 139.197 66.5554C138.389 66.4925 137.591 66.4505 136.793 66.4086L135.396 66.3457L136.446 68.1805C136.593 68.4321 140.163 74.2616 149.046 80.5314L150.947 81.8524L152.774 80.458C154.533 79.1977 155.971 77.5416 156.971 75.6236C157.97 73.7057 158.504 71.5797 158.528 69.4177L158.202 69.3233Z" fill="white"/>
<path d="M143.146 55.7779C142.81 60.1919 141.771 64.6898 139.198 66.577C139.198 66.577 142.474 72.0185 150.958 77.9633C156.271 73.9057 155.442 68.653 155.442 68.653C149.793 66.556 150.192 62.6453 152.575 56.4069L148.165 54.0374C147.785 53.6188 147.289 53.321 146.741 53.1813C146.192 53.0415 145.615 53.0659 145.08 53.2514C144.545 53.4368 144.076 53.7752 143.733 54.2244C143.389 54.6736 143.185 55.2138 143.146 55.7779Z" fill="#FF8B7B"/>
<path opacity="0.2" d="M148.165 54.0372C147.807 53.643 147.348 53.3552 146.837 53.2055C146.326 53.0558 145.784 53.0501 145.27 53.189C144.756 53.3278 144.29 53.6059 143.925 53.9925C143.559 54.379 143.308 54.8589 143.198 55.3792C144.873 58.7518 147.575 61.5082 150.916 63.2532C151.035 60.8887 151.594 58.5671 152.564 56.4067L148.165 54.0372Z" fill="black"/>
<path d="M136.279 41.9382C138.473 50.4622 139.219 54.1109 144.437 57.6651C152.281 63.0542 162.287 58.5039 162.676 49.5081C163.043 41.4035 159.4 28.822 150.286 27.0186C148.274 26.6079 146.19 26.7187 144.233 27.3404C142.276 27.962 140.511 29.0738 139.107 30.5698C137.702 32.0658 136.705 33.8961 136.21 35.8862C135.715 37.8763 135.739 39.9599 136.279 41.9382Z" fill="#FF8B7B"/>
<path d="M158.003 28.78C152.862 33.3437 146.763 36.7004 140.153 38.6041C140.153 38.6041 146.674 52.4543 134.473 48.9629C130.934 37.1677 134.473 31.0447 137.623 28.1614C147.325 25.016 154.15 23.9676 158.003 28.78Z" fill="#18113C"/>
<path d="M135.869 50.336C136.584 51.8804 137.883 53.0791 139.481 53.6702C141.581 54.425 142.83 52.6217 142.379 50.5248C141.969 48.648 140.373 45.9849 138.179 46.1212C137.704 46.1617 137.247 46.3188 136.848 46.5786C136.449 46.8383 136.12 47.1926 135.892 47.6099C135.663 48.0271 135.541 48.4944 135.537 48.9701C135.533 49.4458 135.647 49.915 135.869 50.336Z" fill="#FF8B7B"/>
<path d="M122.986 118.602L120.959 121.59C120.802 121.821 121.064 122.114 121.474 122.166L158.98 126.968C159.305 126.968 159.589 126.885 159.641 126.685L160.376 123.54C160.376 123.32 160.166 123.1 159.82 123.047L123.595 118.413C123.486 118.388 123.372 118.392 123.265 118.425C123.158 118.458 123.061 118.519 122.986 118.602Z" fill="#754FFE"/>
<path d="M127.322 123.267L126.356 123.141C126.167 123.141 126.031 122.994 126.062 122.879L127.049 118.779C127.087 118.71 127.147 118.656 127.219 118.626C127.292 118.595 127.372 118.59 127.448 118.612L128.425 118.738C128.614 118.738 128.75 118.874 128.719 119L127.732 123.089C127.7 123.214 127.522 123.288 127.322 123.267Z" fill="#18113C"/>
<path d="M156.208 126.957L155.242 126.842C155.053 126.842 154.916 126.695 154.948 126.569L155.935 122.48C155.935 122.365 156.145 122.281 156.334 122.302L157.31 122.428C157.499 122.428 157.636 122.575 157.604 122.69L156.617 126.789C156.586 126.905 156.407 126.989 156.208 126.957Z" fill="#18113C"/>
<path d="M141.77 125.112L140.804 124.986C140.605 124.986 140.468 124.85 140.5 124.724L141.487 120.635C141.487 120.509 141.697 120.436 141.896 120.457L142.862 120.582C143.051 120.582 143.188 120.729 143.167 120.845L142.169 124.944C142.148 125.059 141.959 125.133 141.77 125.112Z" fill="#18113C"/>
<path d="M150.905 41.5711C151.031 42.2735 151.514 42.7768 151.955 42.6824C152.396 42.5881 152.679 41.959 152.543 41.2566C152.406 40.5541 151.923 40.0508 151.493 40.1452C151.062 40.2395 150.8 40.8686 150.905 41.5711Z" fill="#18113C"/>
<path d="M158.844 40.0512C158.98 40.7536 159.463 41.2464 159.894 41.1625C160.324 41.0786 160.618 40.4286 160.482 39.7261C160.345 39.0237 159.862 38.5309 159.432 38.6148C159.001 38.6986 158.718 39.3487 158.844 40.0512Z" fill="#18113C"/>
<path d="M159.2 38.6987L160.796 37.8809C160.796 37.8809 160.25 39.3697 159.2 38.6987Z" fill="#18113C"/>
<path d="M156.743 41.623C157.681 43.1 158.815 44.4437 160.114 45.6177C159.806 45.9441 159.43 46.1988 159.013 46.3637C158.595 46.5286 158.147 46.5996 157.699 46.5718L156.743 41.623Z" fill="#FF5652"/>
<path d="M151.787 49.4026C151.756 49.4393 151.738 49.4857 151.736 49.5341C151.735 49.5825 151.751 49.6298 151.78 49.6681C151.81 49.7063 151.852 49.7332 151.899 49.744C151.946 49.7549 151.996 49.7491 152.039 49.7277C152.833 49.3236 153.711 49.1129 154.601 49.1129C155.492 49.1129 156.37 49.3236 157.163 49.7277C157.211 49.7547 157.267 49.7622 157.32 49.7485C157.373 49.7348 157.418 49.701 157.447 49.6543C157.476 49.6065 157.485 49.5496 157.473 49.4951C157.462 49.4406 157.43 49.3926 157.384 49.3607C156.528 48.9227 155.579 48.6943 154.617 48.6943C153.655 48.6943 152.707 48.9227 151.85 49.3607C151.85 49.3607 151.85 49.3817 151.787 49.4026Z" fill="#18113C"/>
<path d="M148.165 39.4113C148.23 39.3714 148.281 39.313 148.312 39.2435C148.531 38.7657 148.86 38.3464 149.272 38.0202C149.685 37.694 150.169 37.47 150.685 37.3668C150.74 37.3603 150.794 37.3429 150.842 37.3156C150.891 37.2883 150.933 37.2516 150.968 37.2077C151.002 37.1638 151.027 37.1136 151.041 37.0599C151.056 37.0062 151.06 36.9501 151.052 36.895C151.047 36.8402 151.031 36.787 151.005 36.7386C150.979 36.6902 150.943 36.6476 150.9 36.6133C150.856 36.579 150.807 36.5538 150.754 36.5392C150.701 36.5245 150.645 36.5207 150.59 36.528C149.934 36.6505 149.316 36.9274 148.789 37.3358C148.261 37.7443 147.838 38.2725 147.556 38.8766C147.515 38.9593 147.503 39.0531 147.521 39.1435C147.539 39.2339 147.586 39.3159 147.655 39.3768C147.725 39.4376 147.812 39.474 147.904 39.4802C147.996 39.4865 148.088 39.4623 148.165 39.4113Z" fill="#18113C"/>
<path d="M161.206 34.0951L161.258 34.0427C161.29 33.9974 161.313 33.9461 161.325 33.892C161.337 33.8378 161.338 33.7818 161.328 33.7272C161.319 33.6726 161.298 33.6205 161.268 33.5739C161.238 33.5272 161.199 33.487 161.153 33.4555C160.61 33.066 159.982 32.8114 159.321 32.7129C158.66 32.6144 157.985 32.6749 157.352 32.8894C157.251 32.9334 157.171 33.0145 157.128 33.1159C157.085 33.2174 157.082 33.3314 157.121 33.4346C157.163 33.5373 157.244 33.6193 157.347 33.6625C157.449 33.7057 157.564 33.7067 157.667 33.6652C158.17 33.5007 158.705 33.4586 159.227 33.5425C159.75 33.6264 160.244 33.8339 160.67 34.1475C160.751 34.2048 160.849 34.2311 160.948 34.2215C161.046 34.2118 161.138 34.1669 161.206 34.0951Z" fill="#18113C"/>
<path d="M151.294 40.2185L152.89 39.4111C152.89 39.4111 152.27 40.8895 151.294 40.2185Z" fill="#18113C"/>
<path d="M96.3157 187.412C94.8433 187.412 93.4304 186.832 92.3843 185.797C91.3382 184.762 90.7436 183.357 90.7297 181.887C90.5827 166.999 95.5492 154.428 105.094 145.537C116.843 134.591 135.166 129.506 156.712 131.204C171.821 132.4 181.513 128.73 192.727 124.463C194.575 123.771 196.433 123.058 198.344 122.366C199.737 121.86 201.273 121.927 202.616 122.552C203.959 123.177 204.998 124.31 205.505 125.7C206.012 127.09 205.945 128.625 205.319 129.966C204.693 131.307 203.559 132.344 202.166 132.85C200.308 133.521 198.502 134.213 196.706 134.895C185.272 139.236 173.459 143.712 155.83 142.328C137.455 140.871 122.146 144.908 112.717 153.694C105.367 160.488 101.786 169.934 101.902 181.782C101.909 182.515 101.771 183.241 101.497 183.921C101.222 184.6 100.817 185.219 100.303 185.742C99.789 186.264 99.177 186.681 98.5019 186.968C97.8268 187.254 97.1018 187.405 96.3682 187.412H96.3157Z" fill="#754FFE"/>
<path d="M225.503 140.726L203.034 148.945C201.159 149.631 199.088 149.545 197.277 148.706C195.465 147.867 194.062 146.344 193.375 144.472L184.096 119.181C183.409 117.309 183.495 115.241 184.335 113.432C185.175 111.624 186.701 110.222 188.575 109.536L211.045 101.317L225.492 140.696L225.503 140.726Z" fill="#754FFE"/>
<path opacity="0.7" d="M225.503 140.726L203.034 148.945C201.159 149.631 199.088 149.545 197.277 148.706C195.465 147.867 194.062 146.344 193.375 144.472L184.096 119.181C183.409 117.309 183.495 115.241 184.335 113.432C185.175 111.624 186.701 110.222 188.575 109.536L211.045 101.317L225.492 140.696L225.503 140.726Z" fill="white"/>
<path opacity="0.2" d="M201.032 104.972L211.06 101.312L225.508 140.714L215.48 144.383C214.813 143.739 214.303 142.949 213.989 142.077L201.389 107.698C201.06 106.829 200.937 105.896 201.032 104.972Z" fill="#754FFE"/>
<path d="M233.578 111.127L232.592 111.487L234.997 118.044L235.983 117.683L233.578 111.127Z" fill="#754FFE"/>
<path d="M231.073 107.404L227.534 97.7374C226.927 96.0982 225.832 94.6839 224.396 93.6849C222.96 92.6858 221.252 92.1498 219.502 92.1491C218.506 92.1462 217.517 92.3202 216.583 92.6628L210.199 95.0009L209.831 94.0153L216.226 91.6773C217.275 91.2931 218.384 91.0979 219.502 91.1006C221.468 91.1052 223.386 91.7104 224.998 92.8349C226.611 93.9593 227.84 95.5493 228.521 97.3914L232.06 107.058L231.073 107.404Z" fill="#754FFE"/>
<path d="M225.677 143.549L235.054 140.163C238.117 139.056 239.702 135.679 238.594 132.62L225.867 97.4854C224.759 94.4264 221.377 92.8435 218.314 93.95L208.937 97.3365C205.874 98.443 204.289 101.82 205.397 104.879L218.124 140.014C219.232 143.073 222.614 144.656 225.677 143.549Z" fill="#754FFE"/>
<path d="M220.311 108.148C220.525 108.733 220.56 109.368 220.413 109.972C220.265 110.577 219.941 111.125 219.482 111.546C219.023 111.967 218.449 112.242 217.833 112.337C217.217 112.432 216.586 112.342 216.021 112.079C215.456 111.816 214.982 111.392 214.659 110.86C214.336 110.327 214.178 109.711 214.205 109.089C214.233 108.468 214.444 107.868 214.814 107.366C215.183 106.865 215.692 106.484 216.279 106.271C217.063 105.988 217.927 106.026 218.683 106.378C219.439 106.729 220.024 107.366 220.311 108.148Z" fill="#18113C"/>
<path d="M228.154 129.526C228.367 130.111 228.402 130.745 228.254 131.349C228.106 131.953 227.783 132.5 227.324 132.921C226.865 133.341 226.292 133.617 225.676 133.712C225.061 133.807 224.431 133.718 223.866 133.456C223.301 133.193 222.827 132.77 222.503 132.239C222.179 131.707 222.021 131.092 222.047 130.471C222.073 129.85 222.283 129.25 222.651 128.748C223.018 128.246 223.526 127.863 224.111 127.65C224.5 127.508 224.913 127.443 225.327 127.461C225.74 127.478 226.147 127.577 226.522 127.751C226.897 127.926 227.235 128.172 227.515 128.477C227.795 128.781 228.012 129.138 228.154 129.526Z" fill="#18113C"/>
<path d="M136.101 126.999L136.017 126.905C134.379 125.27 132.646 123.487 131.082 121.663C129.517 119.838 127.984 118.014 126.588 116.127C125.218 114.286 123.973 112.356 122.86 110.35C122.064 108.915 121.386 107.418 120.834 105.873C121.464 103.776 122.136 101.679 122.934 99.6661C123.847 97.2442 124.876 94.8642 126 92.5156C127.123 90.1671 128.32 87.8604 129.612 85.6063C130.242 84.4739 130.903 83.3521 131.586 82.2512L132.636 80.6366C132.961 80.1123 133.35 79.5881 133.623 79.1372L133.738 78.9695C134.485 77.8334 134.76 76.4524 134.507 75.1175C134.253 73.7826 133.491 72.598 132.38 71.8136C131.269 71.0291 129.896 70.706 128.551 70.9124C127.206 71.1188 125.994 71.8385 125.17 72.9199C124.645 73.6328 124.246 74.199 123.826 74.8176C123.406 75.4362 123.028 76.0548 122.629 76.6734C121.863 77.9106 121.117 79.1582 120.403 80.4269C118.983 82.9578 117.696 85.5616 116.55 88.2274C115.962 89.5485 115.5 90.901 114.901 92.2535C114.303 93.606 113.904 94.9795 113.484 96.3844C112.592 99.1681 111.86 102 111.289 104.866V105.108C111.126 105.873 111.181 106.668 111.447 107.404C112.464 110.092 113.815 112.642 115.468 114.995C117.025 117.227 118.759 119.331 120.655 121.285C122.502 123.168 124.462 124.936 126.525 126.58C128.586 128.221 130.75 129.731 133.003 131.099C133.55 131.418 134.195 131.528 134.817 131.406C135.439 131.285 135.995 130.941 136.382 130.44C136.768 129.938 136.958 129.313 136.916 128.682C136.874 128.05 136.603 127.456 136.153 127.01L136.101 126.999Z" fill="#FF8B7B"/>
<path d="M148.302 132.211L148.165 131.938C147.73 131.03 147.088 130.235 146.292 129.616C145.496 128.997 144.566 128.572 143.577 128.373L135.607 126.759L131.712 128.698C132.132 133.06 138.369 135.671 138.369 135.671L140.143 137.694C140.742 138.373 141.57 138.807 142.469 138.913C143.368 139.02 144.275 138.791 145.015 138.271L147.115 136.772C147.821 136.274 148.328 135.543 148.545 134.708C148.762 133.873 148.676 132.988 148.302 132.211Z" fill="#FF8B7B"/>
<path d="M128.95 67.0278C124.529 69.0513 119.825 76.055 119.825 76.055L129.275 93.7216C129.275 93.7216 140.017 81.3603 139.114 75.1743C138.379 69.9215 134.578 64.4486 128.95 67.0278Z" fill="#754FFE"/>
<g opacity="0.3">
<path opacity="0.3" d="M128.95 67.0278C124.529 69.0513 119.825 76.055 119.825 76.055L129.275 93.7216C129.275 93.7216 140.017 81.3603 139.114 75.1743C138.379 69.9215 134.578 64.4486 128.95 67.0278Z" fill="white"/>
</g>
<path d="M411.455 298.508C402.204 298.508 393.111 296.61 388.701 290.865C367.827 263.605 368.016 208.77 368.195 155.707C368.3 127.137 370.557 100.139 367.376 79.1698C365.507 66.8085 358.976 58.3264 352.382 53.9439C342.596 47.4854 329.156 50.9558 323.412 52.4341C322.697 52.6337 321.949 52.6888 321.212 52.5962C320.475 52.5036 319.764 52.2651 319.12 51.8947C318.476 51.5244 317.913 51.0296 317.464 50.4392C317.014 49.8489 316.686 49.1749 316.501 48.4567C316.315 47.7386 316.275 46.9906 316.382 46.2566C316.489 45.5227 316.742 44.8174 317.125 44.1822C317.509 43.547 318.015 42.9945 318.615 42.5571C319.215 42.1197 319.897 41.8062 320.619 41.6349C327.791 39.7792 344.612 35.449 358.535 44.6335C367.932 50.8299 376.059 61.8912 378.422 77.5028C381.729 99.3108 379.472 126.707 379.367 155.707C379.188 206.904 379.01 259.841 397.574 284.05C399.075 286 404.924 287.751 414.636 287.247C415.497 287.247 416.337 287.153 417.167 287.08C416.791 286.32 416.597 285.484 416.6 284.637C416.6 283.157 417.188 281.739 418.236 280.693C419.284 279.646 420.704 279.059 422.186 279.059C434.397 279.059 440.823 280.107 442.062 285.685C442.419 287.289 442.608 291.315 436.707 294.073C432.297 296.138 421.776 298.508 411.455 298.508Z" fill="#754FFE"/>
<path d="M289.214 303.32L277.821 298.843L283.827 279.121L295.23 283.588L289.214 303.32Z" fill="#FFC3BD"/>
<path d="M277.548 297.637L290.4 302.67C290.563 302.736 290.699 302.854 290.786 303.006C290.874 303.158 290.908 303.335 290.883 303.508L289.623 311.498C289.59 311.691 289.514 311.874 289.401 312.034C289.288 312.194 289.141 312.327 288.969 312.422C288.798 312.518 288.608 312.574 288.412 312.586C288.216 312.599 288.02 312.567 287.838 312.494C284.615 311.162 279.564 308.96 275.48 307.356C272.97 306.371 268.193 304.798 264.717 303.435C261.242 302.072 262.145 298.465 263.667 298.717C270.587 299.828 273.233 298.644 275.994 297.616C276.496 297.424 277.052 297.432 277.548 297.637Z" fill="#18113C"/>
<path opacity="0.2" d="M295.23 283.598L283.827 279.121L280.729 289.291L292.133 293.768L295.23 283.598Z" fill="black"/>
<path d="M309.479 130.942C309.479 130.942 299.168 181.835 295.23 206.935C290.799 235.065 279.092 286.45 279.092 286.45L294.243 292.395C294.243 292.395 315.884 239.783 318.897 214.305C327.98 193.598 346.04 132.662 346.04 132.662L309.479 130.942Z" fill="#754FFE"/>
<path d="M278.357 286.534L294.989 293.066L297.835 288.034L279.239 280.338L278.357 286.534Z" fill="#18113C"/>
<path d="M274.283 297.857C273.703 297.677 273.2 297.308 272.855 296.809C272.759 296.624 272.709 296.419 272.709 296.211C272.709 296.003 272.759 295.798 272.855 295.613C272.897 295.5 272.971 295.4 273.068 295.326C273.164 295.252 273.28 295.206 273.401 295.194C274.503 295.079 276.551 297.763 276.75 298.077C276.773 298.112 276.785 298.152 276.785 298.193C276.785 298.234 276.773 298.274 276.75 298.308C276.728 298.342 276.697 298.37 276.659 298.386C276.622 298.403 276.581 298.409 276.54 298.402C275.77 298.303 275.013 298.12 274.283 297.857ZM273.726 295.666C273.642 295.624 273.547 295.606 273.453 295.613C273.39 295.613 273.317 295.613 273.243 295.792C273.173 295.917 273.137 296.057 273.137 296.201C273.137 296.344 273.173 296.484 273.243 296.609C273.548 297.165 274.598 297.658 276.12 297.91C275.481 297.009 274.667 296.246 273.726 295.666Z" fill="#754FFE"/>
<path d="M276.52 298.392C276.486 298.38 276.456 298.358 276.436 298.329C275.764 297.532 274.819 295.068 275.386 294.219C275.473 294.087 275.603 293.989 275.754 293.941C275.905 293.894 276.068 293.899 276.215 293.957C276.371 293.996 276.517 294.068 276.644 294.167C276.77 294.267 276.875 294.391 276.95 294.533C277.601 295.697 276.866 298.15 276.835 298.255C276.822 298.292 276.8 298.326 276.771 298.351C276.741 298.377 276.705 298.395 276.667 298.402C276.643 298.413 276.618 298.418 276.592 298.417C276.566 298.415 276.541 298.406 276.52 298.392ZM276.163 294.386H276.079C275.806 294.324 275.743 294.386 275.711 294.481C275.396 294.984 275.911 296.766 276.509 297.742C276.809 296.772 276.809 295.734 276.509 294.764C276.443 294.601 276.32 294.467 276.163 294.386Z" fill="#754FFE"/>
<path opacity="0.2" d="M331.707 161.757C325.995 168.823 323.738 186.836 323.759 201.85C327.612 191.25 332.033 177.788 335.918 165.563L331.707 161.757Z" fill="black"/>
<path d="M357.779 305.218H345.536L343.908 284.668H356.151L357.779 305.218Z" fill="#FFC3BD"/>
<path d="M344.843 304.189H358.651C358.828 304.188 359 304.248 359.137 304.359C359.275 304.47 359.37 304.625 359.407 304.798L361.16 312.682C361.201 312.875 361.198 313.074 361.152 313.265C361.105 313.456 361.016 313.634 360.891 313.786C360.766 313.939 360.608 314.061 360.429 314.143C360.25 314.226 360.055 314.268 359.858 314.265C356.372 314.202 350.881 313.993 346.492 313.993C343.783 313.993 338.764 314.276 335.036 314.276C331.309 314.276 330.836 310.596 332.338 310.26C339.194 308.761 341.231 306.706 343.415 304.735C343.809 304.385 344.317 304.192 344.843 304.189Z" fill="#18113C"/>
<path opacity="0.2" d="M356.152 284.668H343.898L344.749 295.268H357.002L356.152 284.668Z" fill="black"/>
<path d="M324.305 131.582C324.305 131.582 331.088 188.293 332.516 208.707C334.5 237.12 342.176 293.213 342.176 293.213H358.451C358.451 293.213 360.194 235.925 357.254 210.437C361.307 188.199 360.026 133.291 360.026 133.291L324.305 131.582Z" fill="#754FFE"/>
<path d="M341.525 293.558H359.396L360.205 287.844L340.076 287.467L341.525 293.558Z" fill="#18113C"/>
<path d="M341.851 305.585C341.246 305.63 340.643 305.471 340.139 305.134C339.983 304.997 339.861 304.825 339.785 304.631C339.708 304.438 339.678 304.23 339.698 304.023C339.699 303.899 339.733 303.778 339.798 303.672C339.863 303.567 339.955 303.481 340.066 303.425C341.053 302.922 343.919 304.683 344.266 304.882C344.302 304.903 344.332 304.934 344.351 304.971C344.369 305.009 344.376 305.051 344.371 305.092C344.361 305.134 344.341 305.173 344.311 305.204C344.282 305.235 344.244 305.258 344.203 305.27C343.433 305.464 342.644 305.569 341.851 305.585ZM340.528 303.75C340.434 303.744 340.34 303.762 340.255 303.802C340.202 303.802 340.139 303.886 340.129 304.044C340.107 304.185 340.122 304.329 340.171 304.463C340.221 304.597 340.304 304.716 340.412 304.809C340.895 305.218 342.061 305.27 343.562 304.966C342.649 304.372 341.629 303.959 340.559 303.75H340.528Z" fill="#754FFE"/>
<path d="M344.161 305.27H344.056C343.142 304.766 341.357 302.827 341.546 301.831C341.578 301.676 341.662 301.538 341.784 301.438C341.907 301.339 342.06 301.285 342.218 301.286C342.377 301.263 342.539 301.275 342.693 301.32C342.847 301.365 342.989 301.443 343.111 301.548C344.161 302.397 344.36 304.955 344.371 305.06C344.373 305.098 344.365 305.137 344.349 305.172C344.332 305.206 344.307 305.237 344.276 305.259C344.239 305.272 344.199 305.276 344.161 305.27ZM342.365 301.673H342.271C341.998 301.673 341.977 301.841 341.966 301.894C341.851 302.47 343.016 303.991 343.898 304.641C343.834 303.627 343.469 302.656 342.848 301.852C342.712 301.74 342.542 301.677 342.365 301.673Z" fill="#754FFE"/>
<path d="M329.922 53.377L320.115 53.2511C316.818 53.2511 313.542 53.1463 310.297 53.0939C309.31 53.0939 308.344 53.031 307.368 52.989C307.431 52.989 307.473 52.8737 307.525 52.8213C308.218 52.0873 308.911 51.3325 309.625 50.609C309.982 50.2316 310.332 49.8646 310.675 49.5081C311.001 49.1517 311.421 48.7532 311.641 48.4597L312.534 47.3273C313.237 46.4313 313.641 45.3367 313.686 44.199C313.731 43.0613 313.417 41.9382 312.787 40.989C312.157 40.0399 311.244 39.3128 310.177 38.9111C309.11 38.5094 307.944 38.4533 306.843 38.7509L304.9 39.2751C304.302 39.4534 303.703 39.6526 303.105 39.8518C301.929 40.2607 300.774 40.7116 299.629 41.2043C297.323 42.2212 295.095 43.4056 292.962 44.7481C290.753 46.1579 288.663 47.7464 286.714 49.4976C284.652 51.3703 282.784 53.4464 281.139 55.694C280.724 56.2549 280.372 56.8596 280.089 57.4974C279.114 59.729 279.066 62.256 279.956 64.5228C280.846 66.7896 282.601 68.6109 284.835 69.5861L285.79 70.0055C287.948 70.9325 290.182 71.6692 292.468 72.2073C294.463 72.721 296.353 73.0565 298.212 73.3711C300.07 73.6856 301.887 73.9373 303.693 74.1574C305.499 74.3776 307.284 74.5454 309.069 74.6922C312.628 75.0067 316.156 75.1639 319.674 75.2688C323.191 75.3736 326.635 75.3736 330.289 75.2059C333.139 75.0845 335.828 73.857 337.784 71.7849C339.74 69.7128 340.809 66.9599 340.762 64.1126C340.716 61.2653 339.558 58.5487 337.535 56.5414C335.512 54.5342 332.784 53.395 329.932 53.3665L329.922 53.377Z" fill="#FFC3BD"/>
<path d="M335.634 72.5112C327.161 82.157 306.77 78.5503 306.77 78.5503L307.893 54.5196C314.883 52.9836 322.01 52.1581 329.166 52.0557C341.136 52.0347 342.417 64.7735 335.634 72.5112Z" fill="#18113C"/>
<path d="M313.017 65.1197C312.513 68.999 311.967 74.2203 311.642 81.245C307.221 103.577 305.573 119.398 309.479 130.942C312.566 134.748 352.791 134.014 360.026 133.28C364.226 122.9 364.667 93.1031 365.16 68.0554C365.222 64.6038 364.044 61.2444 361.838 58.5861C359.632 55.9278 356.546 54.1467 353.138 53.5656C344.086 51.9634 334.852 51.6528 325.712 52.643C322.504 53.0074 319.511 54.4341 317.21 56.6956C314.909 58.957 313.433 61.9228 313.017 65.1197Z" fill="#18113C"/>
<path opacity="0.2" d="M352.046 80.3643C352.182 87.997 357.726 100.191 363.963 106.377C364.341 99.9285 364.583 92.9353 364.772 85.8792L352.046 80.3643Z" fill="black"/>
<path d="M387.095 95.2004L386.738 94.3616C385.27 90.8644 383.554 87.4762 381.603 84.223C379.734 81.0776 377.718 78.1105 375.629 75.2482C373.539 72.3859 371.324 69.6494 369.056 66.9863C367.901 65.6652 366.756 64.3442 365.549 63.0651L363.732 61.1569L361.8 59.2067C359.776 57.2114 357.054 56.0813 354.21 56.0561C351.366 56.0309 348.624 57.1124 346.565 59.0716C344.506 61.0307 343.292 63.7134 343.18 66.5511C343.069 69.3888 344.068 72.1585 345.966 74.2731L346.281 74.6191L352.445 81.4655C354.545 83.7931 356.55 86.1626 358.545 88.5217C359.511 89.7064 360.509 90.8912 361.412 92.0969C362.315 93.3027 363.27 94.4664 364.173 95.6617C365.475 97.4755 366.735 99.2789 367.859 101.051C367.687 101.945 367.469 102.831 367.208 103.703C366.453 106.243 365.566 108.742 364.551 111.189C363.501 113.779 362.388 116.432 361.233 119.042C360.078 121.653 358.839 124.379 357.737 127L357.632 127.231C357.148 128.389 357.074 129.678 357.423 130.884C357.773 132.09 358.523 133.141 359.551 133.863C360.579 134.586 361.824 134.936 363.078 134.857C364.333 134.778 365.523 134.273 366.452 133.427C368.768 131.283 370.966 129.015 373.035 126.633C375.135 124.278 377.106 121.796 378.947 119.189C379.881 117.879 380.774 116.516 381.656 115.1C382.572 113.661 383.41 112.174 384.165 110.644C385.015 108.976 385.752 107.253 386.37 105.486C387.176 103.223 387.629 100.85 387.714 98.4506C387.741 97.3355 387.53 96.2276 387.095 95.2004Z" fill="#FFC3BD"/>
<path d="M353.852 53.7026C368.016 56.1245 377.246 75.2694 377.246 75.2694L360.173 93.607C360.173 93.607 350.334 83.6046 344.423 74.3362C338.049 64.2501 343.709 51.9831 353.852 53.7026Z" fill="#18113C"/>
<path d="M327.98 23.517C325.607 19.5434 324.83 14.0809 329.177 8.51355C328.33 8.61958 327.47 8.47789 326.702 8.10567C325.934 7.73346 325.291 7.14671 324.851 6.41663C329.611 2.52803 335.596 0.447991 341.745 0.545255C354.45 0.545255 355.395 5.44157 354.965 8.78616C363.659 9.34184 370.001 31.9152 347.961 35.9098C335.351 22.6468 327.98 23.517 327.98 23.517Z" fill="#18113C"/>
<path d="M354.167 9.19486C354.167 9.19486 357.705 5.58816 353.306 1.22656C354.292 1.49662 355.191 2.01713 355.916 2.73738C356.641 3.45763 357.167 4.35308 357.443 5.33652C358.062 7.8738 356.351 9.90781 354.167 9.19486Z" fill="#18113C"/>
<path d="M349.295 33.1523C348.959 40.1036 348.329 48.009 349.494 53.5554C347.688 56.3967 343.068 59.6679 334.794 60.4018C331.854 58.7348 327.969 54.6563 329.324 52.5594C332.841 50.3052 334.332 43.4797 333.324 38.3737L349.295 33.1523Z" fill="#FFC3BD"/>
<path opacity="0.2" d="M345.263 34.4629L333.304 38.3737C333.71 40.5481 333.728 42.7773 333.356 44.958C336.926 44.8427 341.872 42.1586 343.73 39.6423C344.336 38.9349 344.785 38.108 345.049 37.2156C345.313 36.3232 345.386 35.3853 345.263 34.4629Z" fill="black"/>
<path d="M352.781 22.1439C350.566 30.6679 349.705 35.7739 344.476 39.3491C336.611 44.7277 326.72 38.6991 326.332 29.6928C325.996 21.5777 329.671 8.99618 338.806 7.20331C340.817 6.80052 342.898 6.91793 344.851 7.54437C346.805 8.17081 348.565 9.28549 349.965 10.7825C351.366 12.2795 352.359 14.1092 352.852 16.0977C353.345 18.0862 353.321 20.1675 352.781 22.1439Z" fill="#FFC3BD"/>
<path d="M351.017 9.93945C347.269 12.6025 342.617 23.884 352.067 28.4133C360.551 20.9693 358.357 9.93945 351.017 9.93945Z" fill="#18113C"/>
<path d="M353.18 11.292C354.787 3.86885 336.023 0.0314841 330.08 8.70225C328.064 13.9236 352.046 18.5368 353.18 11.292Z" fill="#18113C"/>
<path d="M339.184 31.1921C337.234 30.3119 335.144 29.783 333.01 29.6299C332.98 29.6298 332.95 29.6359 332.923 29.6476C332.895 29.6593 332.871 29.6765 332.85 29.698C332.829 29.7196 332.813 29.7451 332.803 29.7731C332.793 29.801 332.788 29.8308 332.789 29.8605C332.801 29.9283 332.836 29.9901 332.887 30.0358C332.939 30.0815 333.004 30.1085 333.073 30.1122C335.119 30.2598 337.123 30.7637 338.995 31.601C339.054 31.6268 339.12 31.6292 339.18 31.6078C339.241 31.5863 339.291 31.5427 339.32 31.4857C339.332 31.4576 339.338 31.4273 339.337 31.3969C339.336 31.3665 339.329 31.3366 339.316 31.309C339.304 31.2815 339.285 31.2568 339.262 31.2367C339.24 31.2166 339.213 31.2014 339.184 31.1921Z" fill="#18113C"/>
<path d="M354.828 31.4645C353.306 33.0772 351.208 34.0233 348.99 34.0961C346.05 34.159 345.304 31.3596 346.722 28.9691C348.003 26.8722 351.069 24.1882 353.736 25.2576C356.403 26.327 356.676 29.4619 354.828 31.4645Z" fill="#FFC3BD"/>
<path d="M339.204 21.9971C339.068 22.6996 338.585 23.2028 338.154 23.1085C337.724 23.0141 337.44 22.3745 337.577 21.6721C337.713 20.9696 338.196 20.4768 338.627 20.6236C339.057 20.7704 339.341 21.2632 339.204 21.9971Z" fill="#18113C"/>
<path d="M331.256 20.4556C331.119 21.158 330.636 21.6508 330.206 21.5669C329.775 21.4831 329.481 20.833 329.618 20.1306C329.754 19.4281 330.237 18.9248 330.668 19.0192C331.098 19.1136 331.35 19.7531 331.256 20.4556Z" fill="#18113C"/>
<path d="M333.713 21.2627C332.453 23.2471 330.927 25.0497 329.177 26.6203C330.227 28.0148 332.547 27.7422 332.547 27.7422L333.713 21.2627Z" fill="#ED847E"/>
<path d="M338.06 17.9186C338.135 17.9023 338.213 17.9052 338.286 17.9272C338.36 17.9492 338.427 17.9896 338.48 18.0445C338.817 18.4513 339.246 18.7727 339.731 18.9823C340.217 19.1919 340.745 19.2837 341.273 19.2502C341.384 19.2351 341.497 19.2638 341.587 19.3304C341.677 19.397 341.738 19.4961 341.756 19.6067C341.765 19.6612 341.763 19.717 341.749 19.7706C341.736 19.8243 341.712 19.8747 341.679 19.9188C341.645 19.9629 341.603 19.9998 341.555 20.0272C341.507 20.0547 341.454 20.0721 341.399 20.0785C340.732 20.132 340.062 20.0258 339.445 19.7687C338.828 19.5116 338.281 19.1109 337.85 18.6001C337.811 18.562 337.779 18.5164 337.758 18.466C337.737 18.4155 337.726 18.3613 337.726 18.3066C337.726 18.2518 337.737 18.1976 337.758 18.1472C337.779 18.0967 337.811 18.0511 337.85 18.013C337.912 17.9667 337.984 17.9345 338.06 17.9186Z" fill="#18113C"/>
<path d="M328.799 15.5902C328.712 15.5722 328.633 15.5239 328.578 15.4539C328.543 15.4102 328.517 15.3599 328.501 15.3059C328.486 15.2519 328.482 15.1953 328.488 15.1396C328.495 15.0838 328.513 15.03 328.541 14.9814C328.569 14.9327 328.607 14.8902 328.652 14.8563C329.168 14.4343 329.777 14.1409 330.428 14.0005C331.08 13.8601 331.756 13.8767 332.4 14.049C332.507 14.0849 332.595 14.161 332.646 14.2609C332.697 14.3608 332.707 14.4766 332.673 14.5837C332.631 14.6849 332.554 14.7673 332.455 14.8156C332.357 14.8638 332.244 14.8746 332.138 14.8458C331.625 14.7151 331.088 14.7078 330.571 14.8245C330.055 14.9411 329.573 15.1784 329.166 15.5168C329.117 15.5609 329.057 15.5909 328.993 15.6038C328.928 15.6167 328.861 15.612 328.799 15.5902Z" fill="#18113C"/>
<path d="M362.693 126.696L353.674 126.633L358.336 136.971C358.336 136.971 366.032 135.325 365.612 131.152L362.693 126.696Z" fill="#FFC3BD"/>
<path d="M349.085 133.731L350.565 136.646C350.963 137.422 351.637 138.022 352.454 138.328C353.272 138.634 354.175 138.625 354.986 138.302L358.335 136.971L353.673 126.633L350.093 129.359C349.437 129.853 348.977 130.562 348.792 131.362C348.608 132.161 348.711 133 349.085 133.731Z" fill="#FFC3BD"/>
<path d="M294.033 119.084C292.943 119.073 291.881 118.745 290.975 118.139C290.07 117.533 289.362 116.677 288.937 115.675C288.512 114.673 288.39 113.569 288.584 112.498C288.779 111.428 289.282 110.437 290.032 109.648C294.043 105.517 297.666 102.309 300.858 99.5097C308.565 92.7262 311.221 90.0736 310.969 84.9886C310.592 81.8511 309.924 78.7554 308.974 75.7411C306.675 67.301 304.071 57.7496 308.533 50.0853C310.927 45.9649 314.991 43.1445 320.619 41.6976C322.042 41.3604 323.54 41.5939 324.793 42.3478C326.045 43.1018 326.952 44.3161 327.317 45.73C327.683 47.1439 327.479 48.6446 326.749 49.9098C326.018 51.175 324.82 52.1038 323.412 52.4968C319.453 53.5452 318.498 55.1494 318.162 55.6946C316.062 59.3118 318.088 66.7978 319.726 72.8055C320.912 76.5939 321.708 80.4934 322.099 84.4434C322.624 95.1901 316.272 100.789 308.218 107.876C305.184 110.561 301.729 113.601 298.012 117.417C297.494 117.946 296.875 118.366 296.191 118.653C295.508 118.939 294.774 119.086 294.033 119.084Z" fill="#754FFE"/>
<path d="M306.287 38.9822L315.023 36.749L312.986 47.9046C312.986 47.9046 305.121 48.1458 304.533 44.0044L306.287 38.9822Z" fill="#FFC3BD"/>
<path d="M321.155 42.6623L320.483 45.5771C320.277 46.4674 319.744 47.2484 318.991 47.7664C318.237 48.2845 317.316 48.5021 316.409 48.3764L312.986 47.9046L315.023 36.749L319.034 38.479C319.822 38.818 320.466 39.4224 320.854 40.1869C321.242 40.9513 321.348 41.8274 321.155 42.6623Z" fill="#FFC3BD"/>
<path d="M290.91 100.739L290.672 100.502C289.61 99.4416 287.888 99.4419 286.826 100.503L255.864 131.431C254.802 132.491 254.802 134.211 255.864 135.271L256.102 135.508C257.164 136.568 258.886 136.568 259.948 135.507L290.911 104.579C291.972 103.519 291.972 101.799 290.91 100.739Z" fill="#18113C"/>
<path d="M307.047 116.832L306.81 116.595C305.748 115.534 304.026 115.534 302.964 116.595L271.996 147.518C270.934 148.578 270.934 150.298 271.996 151.358L272.233 151.595C273.295 152.656 275.017 152.656 276.079 151.595L307.047 120.673C308.109 119.612 308.109 117.893 307.047 116.832Z" fill="#18113C"/>
<path d="M265.633 112.252L287.454 90.463C288.153 89.7649 288.983 89.2112 289.896 88.8334C290.81 88.4556 291.789 88.2612 292.777 88.2612C293.766 88.2612 294.745 88.4556 295.658 88.8334C296.572 89.2112 297.402 89.7649 298.101 90.463L317.175 109.509C317.874 110.207 318.428 111.036 318.806 111.948C319.185 112.86 319.38 113.837 319.38 114.825C319.38 115.812 319.185 116.789 318.806 117.701C318.428 118.613 317.874 119.442 317.175 120.14L295.354 141.929L265.633 112.252Z" fill="#754FFE"/>
<path opacity="0.7" d="M265.633 112.252L287.454 90.463C288.153 89.7649 288.983 89.2112 289.896 88.8334C290.81 88.4556 291.789 88.2612 292.777 88.2612C293.766 88.2612 294.745 88.4556 295.658 88.8334C296.572 89.2112 297.402 89.7649 298.101 90.463L317.175 109.509C317.874 110.207 318.428 111.036 318.806 111.948C319.185 112.86 319.38 113.837 319.38 114.825C319.38 115.812 319.185 116.789 318.806 117.701C318.428 118.613 317.874 119.442 317.175 120.14L295.354 141.929L265.633 112.252Z" fill="white"/>
<path opacity="0.2" d="M273.16 104.679L265.6 112.217L295.325 141.899L302.875 134.35C302.574 133.472 302.075 132.676 301.415 132.023L275.491 106.188C274.842 105.511 274.044 104.994 273.16 104.679Z" fill="#754FFE"/>
<path d="M264.325 108.415L263.783 108.957C261.479 111.258 261.479 114.988 263.783 117.29L290.252 143.72C292.556 146.021 296.293 146.021 298.597 143.72L299.139 143.178C301.444 140.877 301.444 137.146 299.139 134.845L272.67 108.415C270.366 106.114 266.629 106.114 264.325 108.415Z" fill="#754FFE"/>
<path d="M232.467 42.2636C243.218 42.2636 251.934 33.5607 251.934 22.8252C251.934 12.0896 243.218 3.38672 232.467 3.38672C221.716 3.38672 213 12.0896 213 22.8252C213 33.5607 221.716 42.2636 232.467 42.2636Z" fill="#FFD0CF"/>
<path d="M232.467 39.3697C241.618 39.3697 249.036 31.9624 249.036 22.825C249.036 13.6876 241.618 6.28027 232.467 6.28027C223.317 6.28027 215.898 13.6876 215.898 22.825C215.898 31.9624 223.317 39.3697 232.467 39.3697Z" fill="white"/>
<path d="M243.671 19.2602H235.901L242.421 0L221.264 26.3897H229.034L222.513 45.65L243.671 19.2602Z" fill="#E53F3C"/>
<path d="M244.335 36.982L246.651 34.6689L220.598 8.65415L218.282 10.9672L244.335 36.982Z" fill="#FFD0CF"/>
</svg>
