<svg width="128" height="32" viewBox="0 0 128 32" fill="none" xmlns="http://www.w3.org/2000/svg">
<g clip-path="url(#clip0_6040_28511)">
<path d="M29.633 11.2798C31.0055 11.2798 32.3222 10.1372 32.5512 8.72761C32.822 7.35555 31.8917 6.21295 30.5202 6.21295C29.1483 6.21295 27.8314 7.35555 27.5988 8.72761C27.3312 10.1372 28.2233 11.2798 29.633 11.2798ZM122.768 15.3581H125.839C126.26 15.3581 126.506 15.1872 126.6 14.7946C126.747 14.1866 126.899 13.5794 127.054 12.9734C127.145 12.62 126.939 12.3522 126.547 12.3522H123.518C123.735 11.484 124.586 8.66515 124.586 6.82743C124.586 3.1573 121.469 0.0355213 117.047 0.0355213C112.053 0.0355213 108.804 3.38697 108.804 8.10293C108.804 9.47845 109.318 11.0818 109.954 12.0764C109.68 12.0608 109.405 12.053 109.131 12.0531C105.337 12.0531 102.947 14.1116 102.947 17.1067C102.947 19.9178 105.163 21.0102 107.249 21.7371C109.102 22.3831 110.809 22.6835 110.809 24.1313C110.809 25.1076 109.869 25.6804 108.032 25.6804C105.852 25.6804 104.653 24.6536 104.349 24.264C104.555 24.1018 104.862 23.7153 104.862 23.0714C104.862 22.1708 104.23 21.4356 103.055 21.4356C102.061 21.4356 101.22 22.2465 101.009 23.3132C99.4123 24.6195 97.6694 25.466 95.1977 25.466C92.7638 25.466 91.5006 24.2002 91.5006 21.5064C92.0712 21.6802 93.557 21.8888 94.5389 21.8888C98.6599 21.8888 101.469 20.0164 101.469 16.2666C101.469 14.2504 99.6984 12.1328 96.1965 12.1328H96.1886C91.5827 12.1328 89.0027 15.0504 87.8762 18.2596C87.5606 18.1834 87.2444 18.1097 86.9277 18.0383C87.1796 17.3265 87.3605 16.5014 87.3605 15.5869C87.3605 14.0019 86.379 12.1328 83.7525 12.1328C81.9229 12.1328 80.1875 13.3311 78.9846 15.1272C79.2839 13.9556 79.4823 13.1753 79.4952 13.1231C79.5737 12.8166 79.446 12.4753 78.9681 12.4753H76.2724C75.8882 12.4753 75.6171 12.611 75.5078 13.0486C75.4346 13.3403 74.5083 16.9744 73.6067 20.5131C73.0387 22.7195 70.1006 25.466 66.4079 25.466C63.9737 25.466 62.7115 24.1169 62.7115 21.4221C63.3484 21.6757 64.7676 21.8886 65.7491 21.8886C70.0378 21.8886 72.6788 20.0162 72.6788 16.2665C72.6788 14.2502 70.9089 12.1325 67.4065 12.1325H67.399C62.2125 12.1325 59.0354 16.1609 58.4971 20.7285C58.2731 22.6272 56.6706 25.2346 54.9333 25.2346C54.0869 25.2346 53.6149 24.703 53.6149 23.8004C53.6149 23.021 54.1636 21.1152 54.7651 18.7267C54.9666 17.9276 55.2724 16.7086 55.6114 15.3581H58.4312C58.8509 15.3581 59.0971 15.1872 59.1923 14.7946C59.3274 14.2293 59.5749 13.2431 59.6452 12.9734C59.736 12.62 59.5315 12.3522 59.1384 12.3522H56.3658C56.3658 12.3522 57.6423 7.25879 57.6727 7.12793C57.7956 6.61001 57.3622 6.31115 56.9088 6.40649C56.9088 6.40649 54.7657 6.826 54.3683 6.90888C53.9687 6.98973 53.6587 7.20918 53.5143 7.78507L52.3792 12.3522H50.1529C49.7331 12.3522 49.4863 12.5235 49.3922 12.9153C49.2443 13.5232 49.0934 14.1303 48.9393 14.7368C48.8474 15.0902 49.053 15.3581 49.4455 15.3581H51.6288C51.6133 15.4205 50.8402 18.3614 50.2149 20.9951C49.9205 22.2616 48.9347 25.2252 47.3203 25.2252C46.3559 25.2252 45.9485 24.7387 45.9485 23.6954C45.9485 22.0521 47.5659 17.9388 47.5659 16.0723C47.5659 13.5791 46.2284 12.1346 43.4882 12.1346C41.7608 12.1346 39.9699 13.2499 39.2108 14.2288C39.2108 14.2288 39.4411 13.4275 39.5199 13.1194C39.6041 12.7939 39.4295 12.4743 39.0023 12.4743H36.323C35.7529 12.4743 35.5953 12.7791 35.5115 13.1143C35.4781 13.2488 34.5127 17.0397 33.5859 20.6791C32.9519 23.1711 31.4117 25.2534 29.7649 25.2534C28.9181 25.2534 28.541 24.722 28.541 23.8194C28.541 23.0396 29.0448 21.1153 29.646 18.7271C30.3775 15.8194 31.0228 13.425 31.0918 13.1453C31.1819 12.7869 31.0215 12.4745 30.5596 12.4745H27.8642C27.376 12.4745 27.2016 12.7307 27.0987 13.0868C27.0987 13.0868 26.3401 15.9584 25.5368 19.1554C24.9534 21.4754 24.3091 23.8386 24.3091 24.949C24.3091 26.9304 25.1987 28.424 27.6446 28.424C29.5324 28.424 31.0263 27.4667 32.167 26.247C31.9994 26.9072 31.8924 27.325 31.8817 27.3676C31.7833 27.7452 31.9025 28.0787 32.3471 28.0787H35.1053C35.5855 28.0787 35.77 27.8856 35.8702 27.4669C35.9668 27.0674 38.0268 18.9646 38.0268 18.9646C38.5713 16.7881 39.918 15.3468 41.8127 15.3468C42.7112 15.3468 43.4887 15.9417 43.3987 17.0978C43.2987 18.3696 41.7649 22.9386 41.7649 24.9439C41.7649 26.4617 42.3277 28.4253 45.185 28.4253C47.1325 28.4253 48.5662 27.4916 49.6088 26.2865C49.9905 27.5655 51.0019 28.4253 52.857 28.4253C55.9399 28.4253 57.7982 26.5969 58.89 24.7601C59.796 26.8941 61.9179 28.4244 65.0295 28.4244C68.2009 28.4244 70.6552 27.0874 72.3944 25.2698L71.852 27.3975C71.7534 27.7807 71.9203 28.082 72.3702 28.082H75.1C75.4738 28.082 75.7398 27.8919 75.8367 27.4994C75.8847 27.3067 76.2791 25.7823 76.8362 23.6164C77.9017 19.4716 79.6141 15.1715 82.1871 15.1715C83.0945 15.1715 83.4666 15.6788 83.4666 16.478C83.4666 16.8548 83.3572 17.1805 83.2627 17.3549C82.0156 17.1071 81.0122 17.7229 81.0122 19.0545C81.0122 19.9221 81.9252 20.7108 83.1573 20.7108C84.0989 20.7108 84.8773 20.4798 85.4981 20.0619C86.1091 20.188 86.7189 20.3206 87.3271 20.4596C87.2335 21.0606 87.1856 21.6678 87.1839 22.2762C87.1839 25.6029 89.5594 28.4242 93.8172 28.4242C97.1538 28.4242 99.4435 27.2036 101.42 25.6388C102.37 27.1934 104.769 28.4497 107.916 28.4497C112.23 28.4497 114.676 26.2068 114.676 23.2419C114.676 20.5584 112.474 19.5708 110.202 18.7485C108.355 18.0813 106.815 17.7185 106.815 16.4135C106.815 15.3437 107.657 14.8544 109.1 14.8544C110.036 14.8544 110.74 15.0561 111.115 15.1615C111.488 16.0933 112.258 17.1253 113.573 17.1253C114.686 17.1253 115.186 16.245 115.186 15.4344C115.186 13.1267 111.342 12.8849 111.342 7.93573C111.342 4.85824 113.084 2.31949 116.69 2.31949C119.195 2.31949 120.831 3.90856 120.831 6.47324C120.831 8.58777 119.55 12.352 119.55 12.352H117.369C116.951 12.352 116.704 12.5233 116.609 12.915C116.461 13.5232 116.31 14.1303 116.155 14.7367C116.063 15.0899 116.269 15.3579 116.662 15.3579H118.79C118.79 15.3579 116.59 23.4726 116.59 24.9483C116.59 26.9298 117.707 28.4229 120.153 28.4229C123.614 28.4229 125.778 26.1739 126.718 22.9035C126.79 22.6505 126.647 22.4445 126.391 22.4445H125.071C124.807 22.4445 124.654 22.5948 124.588 22.8524C124.289 24.0134 123.55 25.2348 122.094 25.2348C121.248 25.2348 120.777 24.7032 120.777 23.8009C120.777 23.0212 121.292 21.196 121.927 18.7271C122.23 17.5513 122.768 15.3581 122.768 15.3581ZM95.4795 15.2194C96.7034 15.2194 97.2848 16.0335 97.2848 17.0039C97.2848 18.645 96.012 19.6457 94.0212 19.6457C93.3087 19.6457 92.3127 19.4769 91.7246 19.2809C91.9717 17.7716 93.0641 15.2194 95.4795 15.2194ZM66.6901 15.2194C68.0296 15.2194 68.4946 16.0335 68.4946 17.0039C68.4946 18.645 67.2225 19.6457 65.2318 19.6457C64.5192 19.6457 63.5232 19.4769 62.9352 19.2809C63.181 17.7716 64.1496 15.2194 66.6901 15.2194ZM13.7275 0C4.99451 0 0.591309 6.26113 0.591309 11.4823C0.591309 14.6437 1.78821 17.4562 4.35534 18.5041C4.77628 18.6765 5.15334 18.51 5.27542 18.044C5.36034 17.7214 5.56122 16.9079 5.65084 16.5689C5.77414 16.1079 5.72617 15.9462 5.38647 15.5444C4.64624 14.6713 4.17324 13.541 4.17324 11.9398C4.17324 7.29472 7.6486 3.13628 13.223 3.13628C18.1592 3.13628 20.8709 6.15232 20.8709 10.1803C20.8709 15.4801 18.5257 19.9532 15.0435 19.9532C13.1207 19.9532 11.6813 18.3628 12.1427 16.4124C12.6951 14.0839 13.7652 11.5709 13.7652 9.89022C13.7652 8.38567 12.9576 7.13079 11.2862 7.13079C9.32055 7.13079 7.7415 9.16427 7.7415 11.8883C7.7415 13.6234 8.3278 14.7968 8.3278 14.7968C8.3278 14.7968 6.31615 23.3202 5.96359 24.8128C5.26134 27.7856 5.85785 31.4298 5.90827 31.7978C5.93807 32.0159 6.21837 32.0678 6.34534 31.9032C6.52663 31.6666 8.86756 28.7763 9.66372 25.8881C9.88889 25.0703 10.9566 20.8359 10.9566 20.8359C11.5952 22.054 13.4616 23.127 15.4466 23.127C21.3551 23.127 25.3641 17.7402 25.3641 10.5298C25.3641 5.0777 20.7462 0 13.7275 0Z" fill="#94A3B8"/>
</g>
<defs>
<clipPath id="clip0_6040_28511">
<rect width="128" height="32" fill="white"/>
</clipPath>
</defs>
</svg>
