<svg width="103" height="32" viewBox="0 0 103 32" fill="none" xmlns="http://www.w3.org/2000/svg">
<g clip-path="url(#clip0_6040_28497)">
<path d="M54.0211 8.04049C54.0211 9.19375 53.0921 10.1224 51.9392 10.1224C50.7864 10.1224 49.858 9.19375 49.858 8.04049C49.858 6.88723 50.7547 5.95861 51.9392 5.95861C53.1248 5.9906 54.0211 6.91955 54.0211 8.04049ZM45.4391 12.2369V12.7495C45.4391 12.7495 44.4468 11.4676 42.3333 11.4676C38.8433 11.4676 36.1211 14.1265 36.1211 17.8099C36.1211 21.4617 38.8113 24.1522 42.3333 24.1522C44.4788 24.1522 45.4391 22.8389 45.4391 22.8389V23.3832C45.4391 23.6396 45.6317 23.8312 45.8876 23.8312H48.481V11.787H45.8876C45.6317 11.7879 45.4391 12.0126 45.4391 12.2369ZM45.4391 19.9561C44.9593 20.661 43.9983 21.2697 42.8458 21.2697C40.7966 21.2697 39.2272 19.9884 39.2272 17.8099C39.2272 15.6317 40.7966 14.3505 42.8458 14.3505C43.9666 14.3505 44.9913 14.9911 45.4391 15.6637V19.9561ZM50.4025 11.7879H53.4763V23.8322H50.4025V11.7879ZM96.3214 11.4673C94.2074 11.4673 93.2147 12.7492 93.2147 12.7492V5.9906H90.1407V23.8322H92.7348C92.991 23.8322 93.1826 23.6079 93.1826 23.3835V22.8393C93.1826 22.8393 94.1757 24.1525 96.2888 24.1525C99.7795 24.1525 102.5 21.4626 102.5 17.8109C102.5 14.1591 99.7795 11.4673 96.3214 11.4673ZM95.8087 21.2374C94.6231 21.2374 93.6947 20.6293 93.2147 19.9241V15.6317C93.6947 14.9911 94.72 14.3184 95.8087 14.3184C97.8575 14.3184 99.4271 15.5997 99.4271 17.7779C99.4271 19.9561 97.8584 21.2374 95.8087 21.2374ZM88.5401 16.6893V23.8642H85.4655V17.0412C85.4655 15.0557 84.8252 14.2545 83.0971 14.2545C82.1688 14.2545 81.2078 14.735 80.5984 15.44V23.8325H77.5253V11.7882H79.9581C80.2143 11.7882 80.4065 12.0126 80.4065 12.2369V12.7495C81.3032 11.8203 82.4877 11.4676 83.6723 11.4676C85.0174 11.4676 86.1383 11.8525 87.0349 12.6212C88.1232 13.5181 88.5401 14.6711 88.5401 16.6893ZM70.0632 11.4673C67.9503 11.4673 66.9574 12.7492 66.9574 12.7492V5.9906H63.8836V23.8322H66.477C66.7332 23.8322 66.9254 23.6079 66.9254 23.3835V22.8393C66.9254 22.8393 67.9183 24.1525 70.0312 24.1525C73.5218 24.1525 76.2435 21.4626 76.2435 17.8109C76.2754 14.1587 73.5539 11.4673 70.0632 11.4673ZM69.5507 21.2374C68.3662 21.2374 67.4379 20.6293 66.9574 19.9241V15.6317C67.4379 14.9911 68.4625 14.3184 69.5507 14.3184C71.6006 14.3184 73.1693 15.5997 73.1693 17.7779C73.1693 19.9561 71.6006 21.2374 69.5507 21.2374ZM61.2256 11.4673C62.154 11.4673 62.6345 11.6279 62.6345 11.6279V14.4784C62.6345 14.4784 60.0728 13.6135 58.472 15.4397V23.8638H55.3976V11.7879H57.9916C58.2478 11.7879 58.4394 12.0123 58.4394 12.2366V12.7492C59.0164 12.0762 60.2654 11.4673 61.2256 11.4673ZM29.301 22.743C29.1411 22.3586 28.9808 21.9423 28.8209 21.5897C28.5643 21.0134 28.308 20.4684 28.0844 19.9561L28.0525 19.9241C25.8426 15.1191 23.4736 10.2507 20.9756 5.4463L20.8796 5.25366C20.6168 4.75526 20.3608 4.25336 20.1116 3.74809C19.791 3.17114 19.4711 2.56315 18.9586 1.9862C17.9341 0.704946 16.461 0 14.8923 0C13.2908 0 11.8501 0.70495 10.7938 1.92189C10.3134 2.4982 9.96083 3.10683 9.64094 3.68378C9.39104 4.18873 9.13499 4.69062 8.87288 5.18935L8.7766 5.38197C6.31089 10.1863 3.90948 15.055 1.70001 19.8598L1.6677 19.9235C1.44378 20.4368 1.18723 20.981 0.930992 21.5571C0.771049 21.9097 0.611105 22.294 0.45116 22.7103C0.0346646 23.8952 -0.0936172 25.0164 0.0669672 26.17C0.419165 28.5726 2.01989 30.5898 4.22968 31.4874C5.06235 31.8401 5.92702 32 6.82335 32C7.07958 32 7.39948 31.968 7.65603 31.9357C8.71294 31.8077 9.80154 31.4557 10.8584 30.8471C12.1713 30.1102 13.4201 29.0535 14.8289 27.516C16.2377 29.0535 17.5186 30.1102 18.7993 30.8471C19.8566 31.4557 20.9448 31.8077 22.0015 31.9357C22.2577 31.9683 22.5783 32 22.8345 32C23.7311 32 24.6275 31.8401 25.4278 31.4874C27.6696 30.5898 29.2383 28.5406 29.5908 26.17C29.8452 25.0492 29.7172 23.9285 29.301 22.743ZM14.8599 24.4085C13.1306 22.2303 12.0097 20.1804 11.6258 18.4511C11.4659 17.7142 11.4336 17.0736 11.5299 16.497C11.5936 15.9843 11.7862 15.5357 12.0423 15.1514C12.6508 14.2871 13.6754 13.7422 14.8602 13.7422C16.0455 13.7422 17.102 14.2547 17.6785 15.1514C17.9347 15.5357 18.1267 15.9846 18.1912 16.497C18.2869 17.074 18.2549 17.7462 18.095 18.4511C17.7095 20.1484 16.5886 22.1986 14.8599 24.4085ZM27.6356 25.9141C27.4117 27.5796 26.2909 29.0215 24.7221 29.6621C23.9538 29.9821 23.1207 30.0785 22.2887 29.9821C21.4884 29.8858 20.6873 29.6295 19.8553 29.1496C18.7024 28.5083 17.5499 27.516 16.2048 26.042C18.3179 23.4478 19.5988 21.077 20.0792 18.9635C20.3035 17.9703 20.3358 17.0736 20.2392 16.2403C20.1116 15.4397 19.823 14.7028 19.3748 14.0622C18.3816 12.6202 16.7162 11.7879 14.8597 11.7879C13.003 11.7879 11.3376 12.6528 10.345 14.0622C9.89689 14.7028 9.60831 15.4397 9.48034 16.2403C9.35236 17.0736 9.38405 18.0022 9.64028 18.9635C10.1204 21.077 11.4333 23.4795 13.5145 26.0741C12.2017 27.5477 11.0168 28.5409 9.86389 29.1815C9.03122 29.6621 8.23119 29.9184 7.43082 30.0142C6.56648 30.1105 5.73349 29.9821 4.99711 29.6942C3.42837 29.0535 2.30748 27.6116 2.08356 25.946C1.98759 25.1455 2.05124 24.3448 2.37177 23.4478C2.46742 23.1273 2.62801 22.8073 2.78795 22.4229C3.01219 21.9103 3.26779 21.3653 3.52434 20.8211L3.55664 20.7573C5.7658 15.9843 8.13522 11.1156 10.6009 6.37523L10.6969 6.18261C10.9534 5.70262 11.2097 5.18998 11.4656 4.70935C11.7218 4.19672 12.0097 3.71609 12.3622 3.29945C13.0346 2.53147 13.931 2.11452 14.9239 2.11452C15.9168 2.11452 16.8131 2.53147 17.4856 3.29945C17.8381 3.71705 18.126 4.19768 18.3822 4.70935C18.6387 5.18998 18.895 5.70262 19.1506 6.18261L19.2468 6.37523C21.675 11.1353 24.0129 15.9409 26.2595 20.7894V20.8214C26.5161 21.3347 26.74 21.9106 26.9962 22.4239C27.1562 22.8076 27.3164 23.1276 27.4124 23.4482C27.668 24.2802 27.764 25.0814 27.6356 25.9141Z" fill="#94A3B8"/>
</g>
<defs>
<clipPath id="clip0_6040_28497">
<rect width="103" height="32" fill="white"/>
</clipPath>
</defs>
</svg>
