<svg width="190" height="32" viewBox="0 0 190 32" fill="none" xmlns="http://www.w3.org/2000/svg">
<g clip-path="url(#clip0_6040_28499)">
<mask id="mask0_6040_28499" style="mask-type:alpha" maskUnits="userSpaceOnUse" x="0" y="0" width="190" height="32">
<path d="M189.573 0H0V32H189.573V0Z" fill="white"/>
</mask>
<g mask="url(#mask0_6040_28499)">
<path d="M15.9227 31.9869V25.7662C22.518 25.7662 27.6054 19.2635 25.0627 12.3825C24.6 11.1053 23.8623 9.94541 22.9017 8.98488C21.9412 8.02434 20.7813 7.28663 19.5041 6.82394C18.0218 6.26655 16.4267 6.07567 14.8547 6.26757C13.2827 6.45948 11.7804 7.02846 10.4757 7.92608C9.17095 8.8237 8.1025 10.0234 7.36132 11.4229C6.62014 12.8224 6.22819 14.3803 6.21884 15.964H0C0 5.59606 10.0822 -2.60365 21.1047 0.790502C23.4734 1.53454 25.6273 2.84006 27.3827 4.59586C29.1382 6.35166 30.4433 8.50572 31.1869 10.8746C34.5792 21.9028 26.3814 31.9869 15.9227 31.9869Z" fill="#94A3B8"/>
<path d="M16.0173 25.7664H9.7985V19.6403H16.0173V25.7664ZM9.7985 30.5739H5.08754V25.7664H9.7985V30.5739ZM5.08754 25.7664H1.13525V21.8085H5.08754V25.7664ZM56.8153 9.27243C55.0256 8.04645 52.6701 7.38048 50.0308 7.38048H44.285V25.7588H50.0327C52.6714 25.7588 54.9329 25.0992 56.8172 23.7799C57.8465 23.0311 58.6592 22.0233 59.1727 20.8587C59.7403 19.6327 60.0203 18.1248 60.0203 16.5223C60.0203 14.9199 59.7384 13.412 59.1727 12.2806C58.6051 10.8749 57.8521 9.93272 56.8153 9.27243ZM47.6772 10.4984H49.467C51.446 10.4984 53.1412 10.8768 54.4599 11.7244C55.8732 12.572 56.541 14.1839 56.541 16.5318C56.541 18.8797 55.7842 20.5844 54.4599 21.5266C53.2358 22.2833 51.6333 22.7525 49.5597 22.7525H47.6772V10.4984ZM64.071 7.10615C63.8091 7.09915 63.5486 7.14591 63.3055 7.24353C63.0625 7.34115 62.842 7.48757 62.6577 7.67373C62.443 7.83965 62.271 8.05448 62.1562 8.30032C62.0413 8.54615 61.9869 8.81588 61.9974 9.08702C61.9974 9.61188 62.2059 10.1152 62.577 10.4863C62.9482 10.8575 63.4515 11.066 63.9764 11.066C64.5012 11.066 65.0046 10.8575 65.3757 10.4863C65.7469 10.1152 65.9554 9.61188 65.9554 9.08702C65.9622 8.82518 65.9154 8.5647 65.8178 8.32164C65.7202 8.07858 65.5739 7.85808 65.3878 7.67373C65.1059 7.29534 64.631 7.10615 64.0634 7.10615H64.071ZM62.3607 12.7611H65.6583V25.6737H62.3739V12.7611H62.3607ZM77.449 13.8963C76.503 13.0487 75.3678 12.483 74.1513 12.483C73.3209 12.4647 72.4961 12.6241 71.7323 12.9504C70.9685 13.2767 70.2831 13.7624 69.7222 14.375C68.5454 15.6216 67.903 17.2791 67.9325 18.9932C67.9325 20.7849 68.5 22.3855 69.6352 23.6115C70.7704 24.8375 72.2726 25.4032 74.0643 25.4032C75.2172 25.4212 76.3437 25.0566 77.2673 24.3664V24.6483C77.2673 25.6851 76.9854 26.5402 76.4197 27.1078C75.8541 27.6754 75.0954 27.9554 74.0643 27.9554C72.5507 27.9554 71.6142 27.3878 70.4847 25.7872L68.2144 27.9554L68.309 28.05C68.78 28.7103 69.533 29.3744 70.4752 30.029C71.4174 30.6836 72.6415 30.975 74.0548 30.975C76.0338 30.975 77.5417 30.4074 78.6712 29.1833C79.8007 27.9592 80.4609 26.4494 80.4609 24.4704V12.7611H77.2617V13.8963H77.4509H77.449ZM76.6033 21.5303C76.0357 22.1906 75.2789 22.4763 74.3329 22.4763C73.3869 22.4763 72.6302 22.1944 72.0626 21.5303C71.495 20.8663 71.215 20.0168 71.215 18.9857C71.215 17.9546 71.5158 17.0956 72.0834 16.4353C72.651 15.775 73.4078 15.4893 74.3537 15.4893C75.2997 15.4893 76.0565 15.7712 76.6241 16.4353C77.1917 17.0994 77.4717 17.9489 77.4717 18.98C77.4717 20.0111 77.1898 20.8719 76.6241 21.5247L76.6033 21.5303ZM83.5013 12.7593H86.799V25.6718H83.4805V12.7611L83.5013 12.7593ZM85.083 7.10615C84.8213 7.09966 84.5611 7.14641 84.318 7.24357C84.075 7.34072 83.8543 7.48626 83.6692 7.67133C83.4841 7.85641 83.3386 8.07716 83.2414 8.3202C83.1443 8.56323 83.0975 8.82347 83.104 9.08513C83.104 9.60999 83.3125 10.1133 83.6836 10.4844C84.0548 10.8556 84.5581 11.0641 85.083 11.0641C85.6078 11.0641 86.1112 10.8556 86.4823 10.4844C86.8535 10.1133 87.062 9.60999 87.062 9.08513C87.0685 8.82331 87.0217 8.56291 86.9244 8.31974C86.8271 8.07658 86.6814 7.85573 86.4961 7.67063C86.3109 7.48553 86.0899 7.34004 85.8466 7.243C85.6034 7.14596 85.3429 7.0994 85.0811 7.10615H85.083ZM93.8408 9.27243H90.6415V12.7611H88.7496V15.6823H90.6415V21.0555C90.6415 22.7582 91.0199 23.9766 91.6783 24.6369C92.3367 25.2972 93.5703 25.6737 95.1652 25.6737C95.7011 25.6892 96.2373 25.6576 96.7677 25.5791H96.9569V22.656L95.8217 22.7506C95.0649 22.7506 94.4973 22.656 94.3081 22.3723C94.0262 22.0904 93.9297 21.5247 93.9297 20.6695V15.7769H96.9455V12.8539H93.9392L93.8408 9.27243ZM112.119 7.38048H115.417V25.7588H112.123V7.39183L112.119 7.38048ZM148.304 21.1519C147.823 21.7092 147.286 22.2163 146.702 22.6655C146.189 22.9767 145.599 23.1397 144.999 23.1366C144.557 23.1328 144.121 23.0379 143.717 22.8579C143.314 22.6778 142.951 22.4166 142.653 22.0904C141.993 21.3336 141.707 20.4879 141.707 19.3565C141.707 18.2251 141.989 17.3775 142.653 16.6226C142.939 16.28 143.301 16.0081 143.709 15.8283C144.118 15.6484 144.563 15.5654 145.009 15.5858C146.045 15.5858 147.175 16.2461 148.117 17.3775L150.283 15.2964C148.87 13.5047 147.08 12.6571 144.912 12.6571C143.122 12.6571 141.614 13.3174 140.296 14.6361C139.062 15.9301 138.383 17.6555 138.404 19.4435C138.404 21.3355 139.064 23.025 140.296 24.251C140.882 24.8882 141.596 25.394 142.392 25.7351C143.188 26.0762 144.047 26.2449 144.912 26.2299C147.268 26.2299 149.152 25.1932 150.471 23.3088L148.304 21.1406V21.1519ZM161.59 14.638C161.094 13.9848 160.444 13.4648 159.698 13.1244C158.843 12.7284 157.908 12.5342 156.966 12.5568C155.176 12.5568 153.668 13.2171 152.537 14.5358C151.466 15.9065 150.9 17.6042 150.934 19.3432C150.934 21.3222 151.502 22.9247 152.724 24.1507C153.946 25.3767 155.456 26.0426 157.435 26.0426C159.601 26.0426 161.393 25.195 162.806 23.4034L162.901 23.3088L160.735 21.2276C160.545 21.5095 160.263 21.6987 159.978 21.9844C159.71 22.2662 159.388 22.4908 159.032 22.6447C158.542 22.9132 157.988 23.044 157.429 23.0231C156.609 23.035 155.808 22.7682 155.159 22.2663C154.591 21.7952 154.311 21.1311 154.213 20.2873H162.882V19.0613C162.903 18.2255 162.775 17.3926 162.503 16.6018C162.366 15.8711 162.04 15.189 161.558 14.6228L161.59 14.638ZM154.523 17.6613C154.667 17.0909 154.96 16.5687 155.371 16.1477C155.593 15.9258 155.86 15.7525 156.153 15.6388C156.446 15.5252 156.76 15.4736 157.074 15.4874C157.83 15.4874 158.487 15.6766 158.863 16.1477C159.242 16.5261 159.431 17.0937 159.524 17.6613H154.523ZM174.122 13.796C173.176 12.9485 171.766 12.5701 170.071 12.5701C169.035 12.5994 168.013 12.8241 167.059 13.2322C166.212 13.7033 165.357 14.3674 164.893 15.3134L166.974 17.2924C167.822 15.8791 168.764 15.4004 170.083 15.4004C170.699 15.3841 171.302 15.585 171.785 15.968C172 16.1339 172.172 16.3488 172.287 16.5946C172.402 16.8404 172.456 17.1102 172.446 17.3813V18.0416C171.687 17.7856 170.891 17.6577 170.09 17.6632C168.488 17.6632 167.169 18.0416 166.132 18.7984C165.095 19.5551 164.619 20.6903 164.619 22.0033C164.619 23.2293 164.997 24.1715 165.843 24.9245C166.688 25.6775 167.735 25.9613 168.951 25.9613C170.168 25.9613 171.307 25.4902 172.438 24.6369V25.6737H175.641V17.3794C175.641 15.8658 175.17 14.6455 174.128 13.7979L174.122 13.796ZM168.38 20.7717C168.758 20.4898 169.227 20.3933 169.893 20.3933C170.73 20.4215 171.556 20.5804 172.344 20.8644V22.0904C171.564 22.7765 170.555 23.1464 169.517 23.1271C168.949 23.1271 168.48 23.0325 168.193 22.7488C167.905 22.465 167.721 22.1812 167.721 21.8028C167.755 21.594 167.831 21.3943 167.944 21.2159C168.058 21.0376 168.207 20.8845 168.382 20.766L168.38 20.7717ZM188.16 13.9852C187.214 12.9485 185.994 12.4717 184.391 12.4717C183.072 12.4717 182.036 12.8501 181.283 13.6069V12.8501H178.078V25.7626H181.376V18.6035C181.376 17.6575 181.565 16.8118 182.036 16.248C182.267 15.9728 182.557 15.7535 182.884 15.6066C183.212 15.4598 183.569 15.3893 183.928 15.4004C184.251 15.3847 184.574 15.4449 184.869 15.5764C185.165 15.7078 185.426 15.9067 185.631 16.1572C186.073 16.7596 186.305 17.491 186.291 18.2383V25.7778H189.574V18.227C189.479 16.4359 189.008 15.022 188.16 13.9852ZM108.072 13.796C107.126 12.9485 105.717 12.5701 104.021 12.5701C102.984 12.5984 101.96 12.8224 101.006 13.2304C100.158 13.7014 99.3029 14.3655 98.8393 15.3115L100.92 17.2905C101.768 15.8772 102.71 15.3985 104.029 15.3985C104.646 15.3822 105.248 15.5831 105.732 15.9661C105.946 16.132 106.118 16.3469 106.233 16.5927C106.348 16.8385 106.403 17.1083 106.392 17.3794V18.0397C105.633 17.7837 104.837 17.6558 104.037 17.6613C102.435 17.6613 101.115 18.0397 100.079 18.7965C99.0418 19.5533 98.565 20.6884 98.565 22.0014C98.565 23.2274 98.9434 24.1696 99.7891 24.9226C100.635 25.6756 101.681 25.9594 102.898 25.9594C104.114 25.9594 105.253 25.4883 106.384 24.635V25.6718H109.588V17.3794C109.588 15.8658 109.02 14.6455 108.074 13.7979L108.072 13.796ZM102.232 20.7717C102.61 20.4898 103.079 20.3933 103.745 20.3933C104.581 20.4215 105.408 20.5804 106.195 20.8644V22.0904C105.415 22.7765 104.407 23.1464 103.369 23.1271C102.801 23.1271 102.332 23.0325 102.044 22.7488C101.757 22.465 101.573 22.1812 101.573 21.8028C101.714 21.4127 101.94 21.0586 102.234 20.766L102.232 20.7717ZM127.207 26.0445C125.343 26.0453 123.52 25.4931 121.97 24.4579C120.419 23.4226 119.21 21.9508 118.496 20.2285C117.782 18.5063 117.595 16.6109 117.958 14.7823C118.322 12.9536 119.219 11.2738 120.537 9.95524C121.855 8.63665 123.535 7.73857 125.363 7.37457C127.192 7.01057 129.087 7.19701 130.81 7.9103C132.532 8.6236 134.005 9.83172 135.04 11.3818C136.076 12.9319 136.629 14.7544 136.629 16.6188C136.62 19.1153 135.625 21.507 133.86 23.2726C132.095 25.0382 129.704 26.0346 127.207 26.0445ZM127.207 10.4C125.995 10.3981 124.81 10.7557 123.802 11.4276C122.793 12.0994 122.006 13.0553 121.541 14.1743C121.076 15.2933 120.953 16.5252 121.188 17.7141C121.423 18.903 122.005 19.9954 122.861 20.8533C123.717 21.7111 124.808 22.2958 125.997 22.5334C127.185 22.771 128.417 22.6507 129.537 22.1879C130.657 21.7251 131.615 20.9405 132.289 19.9334C132.963 18.9262 133.323 17.7418 133.324 16.5299C133.326 15.7251 133.168 14.9278 132.861 14.1839C132.554 13.44 132.103 12.764 131.534 12.1949C130.965 11.6257 130.289 11.1745 129.546 10.8671C128.802 10.5597 128.005 10.4023 127.2 10.4038" fill="#94A3B8"/>
</g>
</g>
<defs>
<clipPath id="clip0_6040_28499">
<rect width="190" height="32" fill="white"/>
</clipPath>
</defs>
</svg>
