<svg width="126" height="32" viewBox="0 0 126 32" fill="none" xmlns="http://www.w3.org/2000/svg">
<g clip-path="url(#clip0_6040_28509)">
<path d="M43.15 20.6222V11.3778C43.15 10.8089 43.6137 10.3467 44.1844 10.3467C44.7553 10.3467 45.219 10.8089 45.219 11.3778V20.6222C45.219 21.1911 44.7553 21.6534 44.1844 21.6534C43.6493 21.6534 43.15 21.1911 43.15 20.6222ZM54.9935 21.0133L50.4987 13.8667V20.6222C50.4987 21.1911 50.0349 21.6534 49.4641 21.6534C48.8934 21.6534 48.4296 21.1911 48.4296 20.6222V11.6622C48.4296 10.9156 49.0361 10.2756 49.8208 10.2756H49.8922C50.3559 10.2756 50.8198 10.5244 51.0694 10.9156L55.5286 17.9556V11.3066C55.5286 10.7378 55.9925 10.2756 56.5632 10.2756C57.1339 10.2756 57.5978 10.7378 57.5978 11.3066V20.2667C57.5978 21.0133 56.9913 21.6534 56.2065 21.6534C55.707 21.6534 55.2433 21.44 54.9935 21.0133ZM64.8038 12.2667V20.7289C64.8038 21.2622 64.3758 21.6889 63.8407 21.6889H63.6979C63.1628 21.6889 62.7347 21.2622 62.7347 20.7289V12.2667H60.3446C59.8095 12.2667 59.3815 11.84 59.3815 11.3066C59.3815 10.7733 59.8095 10.3467 60.3446 10.3467H67.2296C67.7648 10.3467 68.1928 10.7733 68.1928 11.3066C68.1928 11.84 67.7648 12.2667 67.2296 12.2667H64.8038ZM69.8338 20.7289V11.2355C69.8338 10.7378 70.2619 10.3111 70.7613 10.3111H77.0042C77.5036 10.3111 77.9317 10.7378 77.9317 11.2355C77.9317 11.7333 77.5036 12.16 77.0042 12.16H71.9028V14.7911H76.2907C76.7902 14.7911 77.2183 15.2178 77.2183 15.7156C77.2183 16.2133 76.7902 16.64 76.2907 16.64H71.9028V19.7333H77.0042C77.5036 19.7333 77.9317 20.16 77.9317 20.6577C77.9317 21.1556 77.5036 21.5822 77.0042 21.5822H70.7613C70.2619 21.6534 69.8338 21.2622 69.8338 20.7289ZM86.6718 21.0489L85.0307 17.3867H82.4979V20.6577C82.4979 21.2267 82.0342 21.6889 81.4634 21.6889H81.4277C80.857 21.6889 80.3931 21.2267 80.3931 20.6577V11.3778C80.3931 10.8089 80.857 10.3467 81.4277 10.3467H85.2091C87.9203 10.3467 89.1689 12.0534 89.1689 13.8667C89.1689 15.3955 88.3483 16.5688 87.0998 17.0312L88.5267 20.2312C88.8122 20.9066 88.3483 21.6534 87.5992 21.6534C87.2069 21.6534 86.8144 21.44 86.6718 21.0489ZM85.2448 12.1244H82.5336V15.5022H85.2805C86.4577 15.5022 87.1355 14.8978 87.1355 13.8312C87.0998 12.9423 86.422 12.1244 85.2448 12.1244ZM99.0148 20.5156C98.1586 21.3688 96.9814 21.8667 95.7685 21.8667C94.5556 21.8667 93.414 21.4756 92.5579 20.5867C91.3093 19.3423 91.131 17.8489 91.131 16C91.131 14.1511 91.3093 12.6222 92.5579 11.4133C93.414 10.56 94.5556 10.1333 95.7685 10.1333C96.9814 10.1333 98.1586 10.5955 99.0148 11.4489C99.3002 11.7688 99.5499 12.0889 99.7283 12.48C100.049 13.1556 99.5499 13.9022 98.8008 13.9022C98.3727 13.9022 98.016 13.6534 97.8376 13.2622C97.7662 13.0489 97.6235 12.8711 97.4808 12.6934C97.1241 12.2312 96.482 11.9822 95.7685 11.9822C95.1263 11.9822 94.4842 12.2667 94.0205 12.7289C93.2356 13.5466 93.2356 14.9333 93.2356 16C93.2356 17.0312 93.2356 18.4534 94.0205 19.2711C94.4842 19.7333 95.1263 20.0178 95.7685 20.0178C96.482 20.0178 97.1241 19.7688 97.4808 19.3066C97.6235 19.1289 97.7662 18.9156 97.8376 18.7022C97.9802 18.3111 98.3727 18.0622 98.8008 18.0622C99.5499 18.0622 100.049 18.8089 99.7283 19.4844C99.5499 19.8756 99.3002 20.2312 99.0148 20.5156ZM110.109 20.5867C109.253 21.44 108.04 21.8667 106.827 21.8667C105.615 21.8667 104.437 21.44 103.545 20.5867C102.297 19.3423 102.118 17.8489 102.118 16C102.118 14.1511 102.332 12.6222 103.545 11.4133C104.401 10.56 105.615 10.1333 106.827 10.1333C108.04 10.1333 109.217 10.56 110.109 11.4133C111.358 12.6577 111.536 14.1511 111.536 16C111.572 17.8489 111.358 19.3778 110.109 20.5867ZM108.646 12.7645C108.183 12.3022 107.506 12.0178 106.863 12.0178C106.221 12.0178 105.507 12.3022 105.079 12.7645C104.294 13.5822 104.259 14.9688 104.259 16.0355C104.259 17.0667 104.294 18.4534 105.079 19.2711C105.543 19.7333 106.221 20.0178 106.863 20.0178C107.506 20.0178 108.218 19.7333 108.646 19.2711C109.432 18.4534 109.467 17.0667 109.467 16.0355C109.467 14.9688 109.432 13.5466 108.646 12.7645ZM123.559 20.6577V13.5822L120.883 20.8C120.74 21.2267 120.312 21.5111 119.849 21.5111C119.385 21.5111 118.992 21.2267 118.814 20.8L116.138 13.4756V20.6577C116.138 21.2267 115.675 21.6534 115.139 21.6534C114.568 21.6534 114.14 21.1911 114.14 20.6577V11.8756C114.14 11.0222 114.854 10.3111 115.71 10.3111H115.853C116.495 10.3111 117.101 10.7022 117.316 11.3423L119.919 18.3822L122.559 11.3423C122.773 10.7378 123.379 10.3111 124.022 10.3111C124.879 10.3111 125.591 11.0222 125.591 11.8756V20.6577C125.591 21.2267 125.128 21.6534 124.593 21.6534C123.987 21.6534 123.559 21.2267 123.559 20.6577ZM28.7021 0H4.62242C2.37499 0 0.591309 1.77778 0.591309 3.98222V27.9822C0.591309 30.2222 2.37499 32 4.62242 32H28.7021C30.9138 32 32.6975 30.2222 32.6975 28.0178V4.01778C32.6975 1.77778 30.9138 0 28.7021 0ZM20.9252 5.86667C20.9252 5.26222 21.3891 4.8 21.9954 4.8C22.6019 4.8 23.0656 5.26222 23.0656 5.86667V20.1244C23.0656 20.7289 22.6019 21.1911 21.9954 21.1911C21.3891 21.1911 20.9252 20.7289 20.9252 20.1244V5.86667ZM15.5742 5.33333C15.5742 4.72889 16.038 4.26667 16.6444 4.26667C17.2509 4.26667 17.7146 4.72889 17.7146 5.33333V20.8C17.7146 21.4045 17.2509 21.8667 16.6444 21.8667C16.038 21.8667 15.5742 21.4045 15.5742 20.8V5.33333ZM10.2232 5.86667C10.2232 5.26222 10.6869 4.8 11.2933 4.8C11.8998 4.8 12.3636 5.26222 12.3636 5.86667V20.1244C12.3636 20.7289 11.8998 21.1911 11.2933 21.1911C10.6869 21.1911 10.2232 20.7289 10.2232 20.1244V5.86667ZM4.87214 8C4.87214 7.39556 5.33589 6.93333 5.94235 6.93333C6.5488 6.93333 7.01255 7.39556 7.01255 8V17.6C7.01255 18.2045 6.5488 18.6667 5.94235 18.6667C5.33589 18.6667 4.87214 18.2045 4.87214 17.6V8ZM28.0599 24.2844C27.8816 24.4267 23.9218 27.7333 16.6444 27.7333C9.36701 27.7333 5.40724 24.4267 5.22887 24.2844C4.76512 23.8934 4.72944 23.2178 5.12185 22.7911C5.51426 22.3289 6.19206 22.2934 6.62014 22.6844C6.69149 22.6844 10.2232 25.6 16.6444 25.6C23.137 25.6 26.633 22.6844 26.633 22.6489C27.0968 22.2577 27.7746 22.3289 28.1313 22.7556C28.5594 23.2178 28.488 23.8934 28.0599 24.2844ZM28.4167 17.6C28.4167 18.2045 27.9529 18.6667 27.3465 18.6667C26.7401 18.6667 26.2763 18.2045 26.2763 17.6V8C26.2763 7.39556 26.7401 6.93333 27.3465 6.93333C27.9529 6.93333 28.4167 7.39556 28.4167 8V17.6Z" fill="#94A3B8"/>
</g>
<defs>
<clipPath id="clip0_6040_28509">
<rect width="126" height="32" fill="white"/>
</clipPath>
</defs>
</svg>
