<svg width="90" height="30" viewBox="0 0 90 30" fill="none" xmlns="http://www.w3.org/2000/svg">
<path d="M51.364 1.12337C51.364 1.12337 53.856 2.85601 51.364 3.17738C51.364 3.17738 42.0401 4.2533 35.1101 10.7507C35.1101 10.7507 24.7082 19.8331 20.8023 29.7818C20.8023 29.7818 19.5003 29.7818 19.9343 27.8396C20.3683 25.8973 22.9722 17.3459 34.5641 6.85226C34.5501 6.85226 45.722 -3.32002 51.364 1.12337ZM21.7683 2.42285C21.8803 4.79824 23.9382 13.8946 23.9382 13.8946C24.6942 15.739 25.3522 13.8946 25.3522 13.8946C27.8442 6.43308 22.7482 2.10147 22.7482 2.10147C21.4463 1.33296 21.7683 2.42285 21.7683 2.42285Z" fill="#E94D1E"/>
<path d="M2.74397 8.76656C3.63996 8.54299 4.95595 8.41724 6.28594 8.41724C7.62992 8.41724 9.08591 8.69669 10.0239 9.45123C10.8919 10.108 11.3679 11.0581 11.3679 12.3576C11.3679 14.0902 10.5699 15.4735 9.50591 16.3259C8.32992 17.2621 6.66393 17.7092 4.92795 17.7092C4.40996 17.7092 3.94796 17.6393 3.55596 17.5974L2.51998 23.1167H0L2.74397 8.76656ZM3.93396 15.5155C4.35396 15.5993 4.71795 15.6412 5.26395 15.6412C7.41993 15.6412 8.81991 14.2719 8.81991 12.5392C8.81991 11.0022 7.71392 10.4433 6.28594 10.4433C5.65594 10.4433 5.17995 10.4852 4.89995 10.5691L3.93396 15.5155Z" fill="#343434"/>
<path d="M17.0259 23.1169C17.0539 22.4881 17.1379 21.6498 17.2219 20.7276H17.1519C16.1159 22.6698 14.716 23.3545 13.372 23.3545C11.482 23.3545 10.25 21.8873 10.25 19.7634C10.25 16.1724 12.77 12.3298 17.6979 12.3298C18.8459 12.3298 20.0919 12.5534 20.8899 12.8049L19.8119 18.3102C19.5039 19.8892 19.3359 21.8594 19.3779 23.1169H17.0259V23.1169ZM18.0619 14.3978C17.7959 14.328 17.4739 14.286 17.0259 14.286C14.688 14.286 12.882 16.9129 12.882 19.3163C12.882 20.4202 13.288 21.3284 14.408 21.3284C15.5839 21.3284 17.0119 19.8612 17.5159 17.1645L18.0619 14.3978Z" fill="#343434"/>
<path d="M43.106 16.7034C43.106 20.2804 40.586 23.3545 36.9881 23.3545C34.3141 23.3545 32.6621 21.51 32.6621 18.9949C32.6621 15.4178 35.1541 12.3298 38.766 12.3298C41.608 12.3298 43.106 14.3699 43.106 16.7034ZM35.2661 18.939C35.2661 20.3922 36.0501 21.4122 37.3241 21.4122C39.214 21.4122 40.474 18.8133 40.474 16.7173C40.474 15.6274 39.998 14.286 38.458 14.286C36.4421 14.286 35.2661 16.9688 35.2661 18.939Z" fill="#343434"/>
<path d="M43.541 23.1169L44.913 15.837C45.179 14.5795 45.319 13.4756 45.459 12.5674H47.699L47.489 14.4677H47.531C48.511 13.0425 49.855 12.3298 51.3249 12.3298C52.8229 12.3298 54.0129 13.2381 54.0129 15.2362C54.0129 15.7113 53.9289 16.4519 53.8169 16.9968L52.6409 23.1309H50.121L51.2549 17.1784C51.3249 16.7872 51.3809 16.3401 51.3809 15.9209C51.3809 15.0546 51.0589 14.4118 50.051 14.4118C48.903 14.4118 47.419 15.7951 46.971 18.2683L46.061 23.1449H43.541V23.1169Z" fill="#343434"/>
<path d="M63.1111 22.5161C62.0751 23.061 60.6611 23.3405 59.3732 23.3405C56.4472 23.3405 55.0332 21.5659 55.0332 18.9809C55.0332 15.7951 57.3712 12.3298 61.0251 12.3298C63.1111 12.3298 64.4271 13.5455 64.4271 15.2921C64.4271 18.0028 61.5851 18.8692 57.4972 18.7853C57.4552 19.1486 57.5392 19.8752 57.7772 20.2804C58.1832 20.993 58.9532 21.3703 59.9471 21.3703C61.1371 21.3703 62.0891 21.0629 62.8591 20.6717L63.1111 22.5161ZM60.7031 14.2162C59.1212 14.2162 58.0712 15.6274 57.7772 16.899C60.3811 16.9409 62.0471 16.5776 62.0471 15.32C62.0471 14.6354 61.5151 14.2162 60.7031 14.2162Z" fill="#343434"/>
<path d="M72.9256 22.5161C71.8896 23.061 70.4756 23.3405 69.1876 23.3405C66.2616 23.3405 64.8477 21.5659 64.8477 18.9809C64.8477 15.7951 67.1856 12.3298 70.8396 12.3298C72.9256 12.3298 74.2415 13.5455 74.2415 15.2921C74.2415 18.0028 71.3996 18.8692 67.3116 18.7853C67.2696 19.1486 67.3536 19.8752 67.5916 20.2804C67.9976 20.993 68.7676 21.3703 69.7616 21.3703C70.9516 21.3703 71.9036 21.0629 72.6736 20.6717L72.9256 22.5161ZM70.5176 14.2162C68.9356 14.2162 67.8856 15.6274 67.5916 16.899C70.1956 16.9409 71.8616 16.5776 71.8616 15.32C71.8616 14.6354 71.3156 14.2162 70.5176 14.2162Z" fill="#343434"/>
<path d="M74.3809 23.1169L75.6128 16.6195C75.8928 15.1244 76.0188 13.5175 76.1588 12.5674H78.3568C78.2868 13.28 78.2308 14.0206 78.1188 14.803H78.1888C78.9028 13.3778 80.0508 12.3298 81.5068 12.3298C81.6748 12.3298 81.8708 12.3578 82.0528 12.3718L81.5488 14.845C81.4228 14.817 81.2408 14.803 81.0728 14.803C79.2668 14.803 78.1188 16.6195 77.7128 18.8691L76.9148 23.1169H74.3809Z" fill="#343434"/>
<path d="M83.9986 13.0144C83.9986 13.3218 83.7606 13.5594 83.4526 13.5594C83.1446 13.5594 82.8926 13.3218 82.8926 13.0144C82.8926 12.721 83.1446 12.4835 83.4526 12.4835C83.7606 12.4695 83.9986 12.721 83.9986 13.0144ZM83.0326 13.0144C83.0326 13.252 83.2146 13.4476 83.4526 13.4476C83.6906 13.4476 83.8586 13.252 83.8586 13.0144C83.8586 12.7769 83.6906 12.5813 83.4386 12.5813C83.2146 12.5813 83.0326 12.7769 83.0326 13.0144ZM83.3686 13.2939H83.2426V12.7629C83.2986 12.749 83.3546 12.749 83.4526 12.749C83.5506 12.749 83.6066 12.7629 83.6346 12.7909C83.6626 12.8188 83.6906 12.8607 83.6906 12.9166C83.6906 12.9725 83.6486 13.0144 83.5786 13.0424C83.6346 13.0564 83.6626 13.0983 83.6766 13.1681C83.6906 13.252 83.7046 13.2799 83.7186 13.3079H83.5786C83.5646 13.2939 83.5506 13.238 83.5366 13.1821C83.5226 13.1262 83.4946 13.0983 83.4246 13.0983H83.3686V13.2939V13.2939ZM83.3686 12.9865H83.4246C83.4946 12.9865 83.5506 12.9585 83.5506 12.9027C83.5506 12.8607 83.5086 12.8188 83.4386 12.8188C83.4106 12.8188 83.3826 12.8188 83.3686 12.8188V12.9865Z" fill="#343434"/>
</svg>
