<svg width="120" height="31" viewBox="0 0 120 31" fill="none" xmlns="http://www.w3.org/2000/svg">
<g clip-path="url(#clip0)">
<path d="M27.5783 10.6932C28.8794 10.6932 30.1276 9.61005 30.3447 8.27374C30.6014 6.97303 29.7195 5.88985 28.4193 5.88985C27.1188 5.88985 25.8704 6.97303 25.6499 8.27374C25.3962 9.61005 26.2419 10.6932 27.5783 10.6932ZM115.87 14.5594H118.781C119.18 14.5594 119.413 14.3974 119.503 14.0252C119.642 13.4488 119.786 12.8732 119.933 12.2987C120.019 11.9637 119.824 11.7098 119.452 11.7098H116.581C116.787 10.8868 117.593 8.21452 117.593 6.47237C117.593 2.99311 114.638 0.033674 110.446 0.033674C105.712 0.033674 102.632 3.21083 102.632 7.68154C102.632 8.98553 103.119 10.5055 103.722 11.4484C103.462 11.4336 103.202 11.4262 102.942 11.4263C99.3451 11.4263 97.0792 13.3777 97.0792 16.2171C97.0792 18.882 99.18 19.9176 101.158 20.6067C102.915 21.2191 104.533 21.5039 104.533 22.8764C104.533 23.8019 103.642 24.3449 101.9 24.3449C99.8331 24.3449 98.6971 23.3715 98.4084 23.0022C98.6042 22.8484 98.8955 22.482 98.8955 21.8716C98.8955 21.0178 98.2958 20.3209 97.1818 20.3209C96.2393 20.3209 95.4426 21.0896 95.2425 22.1008C93.7287 23.3392 92.0765 24.1417 89.7333 24.1417C87.426 24.1417 86.2285 22.9417 86.2285 20.388C86.7694 20.5527 88.1779 20.7505 89.1088 20.7505C93.0155 20.7505 95.6781 18.9755 95.6781 15.4207C95.6781 13.5093 94 11.5018 90.6802 11.5018H90.6727C86.3063 11.5018 83.8605 14.2677 82.7926 17.31C82.4934 17.2378 82.1936 17.1679 81.8934 17.1002C82.1322 16.4254 82.3037 15.6433 82.3037 14.7763C82.3037 13.2737 81.3732 11.5018 78.8833 11.5018C77.1489 11.5018 75.5037 12.6378 74.3634 14.3405C74.6471 13.2298 74.8352 12.4901 74.8474 12.4406C74.9218 12.1501 74.8008 11.8265 74.3477 11.8265H71.7922C71.428 11.8265 71.171 11.9552 71.0674 12.37C70.998 12.6465 70.1199 16.0917 69.2651 19.4463C68.7267 21.538 65.9414 24.1417 62.4407 24.1417C60.1331 24.1417 58.9365 22.8627 58.9365 20.3081C59.5403 20.5485 60.8857 20.7503 61.8162 20.7503C65.8818 20.7503 68.3855 18.9753 68.3855 15.4206C68.3855 13.5091 66.7076 11.5016 63.3874 11.5016H63.3803C58.4635 11.5016 55.4516 15.3205 54.9413 19.6505C54.729 21.4505 53.2098 23.9223 51.5628 23.9223C50.7605 23.9223 50.313 23.4183 50.313 22.5627C50.313 21.8238 50.8332 20.0171 51.4034 17.7528C51.5944 16.9953 51.8843 15.8397 52.2057 14.5594H54.8788C55.2767 14.5594 55.5101 14.3974 55.6004 14.0252C55.7284 13.4893 55.9631 12.5544 56.0297 12.2987C56.1158 11.9637 55.9219 11.7098 55.5493 11.7098H52.9208C52.9208 11.7098 54.131 6.8813 54.1598 6.75725C54.2763 6.26626 53.8654 5.98294 53.4356 6.07332C53.4356 6.07332 51.404 6.47102 51.0272 6.54959C50.6484 6.62623 50.3545 6.83427 50.2176 7.38021L49.1416 11.7098H47.031C46.6331 11.7098 46.3991 11.8722 46.3099 12.2436C46.1697 12.8199 46.0266 13.3955 45.8806 13.9704C45.7934 14.3054 45.9883 14.5594 46.3604 14.5594H48.4302C48.4155 14.6186 47.6826 17.4065 47.0898 19.9033C46.8107 21.1039 45.8762 23.9134 44.3458 23.9134C43.4315 23.9134 43.0453 23.4522 43.0453 22.4631C43.0453 20.9053 44.5786 17.0059 44.5786 15.2365C44.5786 12.8729 43.3106 11.5035 40.7129 11.5035C39.0754 11.5035 37.3776 12.5608 36.658 13.4888C36.658 13.4888 36.8763 12.7292 36.951 12.4371C37.0308 12.1286 36.8653 11.8256 36.4603 11.8256H33.9204C33.3799 11.8256 33.2305 12.1145 33.1511 12.4323C33.1194 12.5598 32.2042 16.1536 31.3256 19.6037C30.7246 21.9661 29.2645 23.9401 27.7033 23.9401C26.9005 23.9401 26.5431 23.4363 26.5431 22.5807C26.5431 21.8414 27.0207 20.0172 27.5906 17.7532C28.2841 14.9967 28.8958 12.7268 28.9612 12.4617C29.0466 12.1219 28.8946 11.8258 28.4567 11.8258H25.9015C25.4386 11.8258 25.2733 12.0686 25.1758 12.4062C25.1758 12.4062 24.4566 15.1285 23.6951 18.1592C23.142 20.3586 22.5312 22.5989 22.5312 23.6515C22.5312 25.5299 23.3746 26.9458 25.6933 26.9458C27.4829 26.9458 28.8991 26.0383 29.9805 24.882C29.8216 25.5079 29.7202 25.904 29.71 25.9444C29.6167 26.3023 29.7297 26.6185 30.1512 26.6185H32.766C33.2212 26.6185 33.3961 26.4354 33.4911 26.0385C33.5827 25.6598 35.5356 17.9784 35.5356 17.9784C36.0517 15.915 37.3284 14.5487 39.1246 14.5487C39.9763 14.5487 40.7134 15.1127 40.6281 16.2086C40.5333 17.4143 39.0793 21.7457 39.0793 23.6467C39.0793 25.0856 39.6128 26.9471 42.3215 26.9471C44.1677 26.9471 45.5269 26.0619 46.5152 24.9195C46.8771 26.132 47.8359 26.9471 49.5945 26.9471C52.5171 26.9471 54.2788 25.2137 55.3138 23.4725C56.1727 25.4955 58.1842 26.9462 61.134 26.9462C64.1405 26.9462 66.4671 25.6787 68.1159 23.9557L67.6017 25.9727C67.5082 26.336 67.6664 26.6216 68.0929 26.6216H70.6808C71.0351 26.6216 71.2873 26.4414 71.3792 26.0693C71.4247 25.8866 71.7986 24.4415 72.3267 22.3882C73.3368 18.459 74.9601 14.3825 77.3993 14.3825C78.2595 14.3825 78.6123 14.8634 78.6123 15.6211C78.6123 15.9783 78.5086 16.287 78.419 16.4524C77.2367 16.2175 76.2855 16.8012 76.2855 18.0636C76.2855 18.8861 77.151 19.6337 78.3191 19.6337C79.2117 19.6337 79.9496 19.4148 80.5381 19.0186C81.1174 19.1381 81.6954 19.2638 82.272 19.3956C82.1833 19.9654 82.1379 20.541 82.1363 21.1177C82.1363 24.2714 84.3882 26.946 88.4246 26.946C91.5877 26.946 93.7583 25.7889 95.632 24.3055C96.5327 25.7792 98.8069 26.9702 101.79 26.9702C105.88 26.9702 108.199 24.8439 108.199 22.0332C108.199 19.4893 106.111 18.553 103.957 17.7735C102.206 17.141 100.746 16.7971 100.746 15.5599C100.746 14.5458 101.545 14.0819 102.913 14.0819C103.8 14.0819 104.467 14.2731 104.823 14.373C105.176 15.2564 105.906 16.2347 107.153 16.2347C108.208 16.2347 108.682 15.4002 108.682 14.6317C108.682 12.4441 105.038 12.2148 105.038 7.52304C105.038 4.60559 106.689 2.19887 110.108 2.19887C112.483 2.19887 114.034 3.7053 114.034 6.1366C114.034 8.14117 112.819 11.7096 112.819 11.7096H110.752C110.355 11.7096 110.121 11.872 110.031 12.2434C109.891 12.8199 109.748 13.3955 109.601 13.9703C109.514 14.3052 109.709 14.5592 110.081 14.5592H112.099C112.099 14.5592 110.013 22.2519 110.013 23.6509C110.013 25.5293 111.072 26.9448 113.391 26.9448C116.672 26.9448 118.723 24.8127 119.614 21.7124C119.683 21.4726 119.547 21.2773 119.304 21.2773H118.053C117.803 21.2773 117.658 21.4198 117.595 21.664C117.312 22.7646 116.611 23.9225 115.231 23.9225C114.429 23.9225 113.982 23.4185 113.982 22.5631C113.982 21.824 114.471 20.0937 115.073 17.7532C115.36 16.6386 115.87 14.5594 115.87 14.5594ZM90.0005 14.4279C91.1607 14.4279 91.7119 15.1997 91.7119 16.1196C91.7119 17.6754 90.5053 18.624 88.618 18.624C87.9426 18.624 86.9983 18.464 86.4408 18.2782C86.6751 16.8474 87.7107 14.4279 90.0005 14.4279ZM62.7082 14.4279C63.9781 14.4279 64.4189 15.1997 64.4189 16.1196C64.4189 17.6754 63.2129 18.624 61.3258 18.624C60.6502 18.624 59.706 18.464 59.1486 18.2782C59.3816 16.8474 60.2999 14.4279 62.7082 14.4279ZM12.4999 0C4.22109 0 0.046875 5.93552 0.046875 10.8852C0.046875 13.8822 1.18153 16.5484 3.61516 17.5418C4.01421 17.7052 4.37166 17.5474 4.48739 17.1056C4.5679 16.7998 4.75833 16.0286 4.84329 15.7072C4.96018 15.2702 4.9147 15.1169 4.59267 14.736C3.89093 13.9083 3.44253 12.8368 3.44253 11.3189C3.44253 6.91536 6.73716 2.97318 12.0217 2.97318C16.7012 2.97318 19.2718 5.83237 19.2718 9.65089C19.2718 14.6751 17.0486 18.9155 13.7475 18.9155C11.9247 18.9155 10.5601 17.4079 10.9975 15.5589C11.5212 13.3515 12.5357 10.9692 12.5357 9.37588C12.5357 7.94958 11.7701 6.75996 10.1856 6.75996C8.32216 6.75996 6.82522 8.68769 6.82522 11.2701C6.82522 12.9149 7.38103 14.0273 7.38103 14.0273C7.38103 14.0273 5.474 22.1074 5.13977 23.5224C4.47404 26.3406 5.03953 29.7953 5.08733 30.1442C5.11558 30.3509 5.3813 30.4001 5.50167 30.2441C5.67353 30.0198 7.89272 27.2798 8.64748 24.5418C8.86094 23.7665 9.8731 19.7523 9.8731 19.7523C10.4785 20.9071 12.2479 21.9243 14.1296 21.9243C19.7309 21.9243 23.5314 16.8176 23.5314 9.98221C23.5314 4.81364 19.1536 0 12.4999 0Z" fill="#CB2027"/>
</g>
<defs>
<clipPath id="clip0">
<rect width="120" height="30.336" fill="white"/>
</clipPath>
</defs>
</svg>
