<svg width="636" height="400" viewBox="0 0 636 400" fill="none" xmlns="http://www.w3.org/2000/svg">
<rect width="636" height="400" fill="#E2E8F0"/>
<g filter="url(#filter0_d_6113_30091)">
<rect x="87" y="59" width="462" height="280" rx="12" fill="white"/>
</g>
<rect x="329" y="232" width="40" height="16" rx="4" fill="#754FFE"/>
<rect x="285" y="232" width="40" height="16" rx="4" fill="#E2E8F0"/>
<path d="M295 145H341" stroke="#E2E8F0" stroke-width="3" stroke-linecap="round"/>
<path d="M191.453 159.909H194.188V169.037C194.188 169.881 193.999 170.614 193.619 171.236C193.244 171.858 192.722 172.337 192.053 172.674C191.384 173.011 190.607 173.179 189.72 173.179C188.932 173.179 188.216 173.04 187.573 172.763C186.933 172.482 186.426 172.056 186.051 171.485C185.676 170.91 185.491 170.187 185.495 169.318H188.25C188.259 169.663 188.329 169.96 188.461 170.207C188.597 170.45 188.783 170.637 189.017 170.769C189.256 170.897 189.537 170.961 189.861 170.961C190.202 170.961 190.489 170.888 190.724 170.744C190.962 170.594 191.144 170.377 191.267 170.092C191.391 169.806 191.453 169.455 191.453 169.037V159.909ZM202.722 168.82V163.182H205.445V173H202.83V171.217H202.728C202.506 171.792 202.138 172.254 201.622 172.604C201.111 172.953 200.487 173.128 199.749 173.128C199.093 173.128 198.516 172.979 198.017 172.68C197.519 172.382 197.129 171.958 196.847 171.408C196.57 170.859 196.43 170.2 196.426 169.433V163.182H199.149V168.947C199.153 169.527 199.308 169.985 199.615 170.322C199.922 170.658 200.333 170.827 200.849 170.827C201.177 170.827 201.484 170.752 201.769 170.603C202.055 170.45 202.285 170.224 202.46 169.925C202.639 169.627 202.726 169.259 202.722 168.82ZM215.792 165.982L213.299 166.135C213.256 165.922 213.165 165.73 213.024 165.56C212.883 165.385 212.698 165.246 212.468 165.144C212.242 165.038 211.972 164.984 211.656 164.984C211.234 164.984 210.878 165.074 210.589 165.253C210.299 165.428 210.154 165.662 210.154 165.956C210.154 166.19 210.248 166.388 210.435 166.55C210.623 166.712 210.945 166.842 211.4 166.94L213.177 167.298C214.132 167.494 214.844 167.81 215.312 168.244C215.781 168.679 216.016 169.25 216.016 169.957C216.016 170.601 215.826 171.165 215.447 171.651C215.072 172.137 214.556 172.516 213.9 172.789C213.248 173.058 212.496 173.192 211.643 173.192C210.344 173.192 209.308 172.921 208.537 172.38C207.77 171.835 207.32 171.093 207.188 170.156L209.866 170.015C209.947 170.411 210.143 170.714 210.454 170.923C210.766 171.127 211.164 171.229 211.65 171.229C212.127 171.229 212.511 171.138 212.8 170.955C213.094 170.767 213.244 170.526 213.248 170.232C213.244 169.985 213.139 169.783 212.935 169.625C212.73 169.463 212.415 169.339 211.989 169.254L210.288 168.915C209.329 168.724 208.616 168.391 208.147 167.918C207.682 167.445 207.45 166.842 207.45 166.109C207.45 165.479 207.621 164.935 207.962 164.479C208.307 164.023 208.79 163.672 209.413 163.425C210.039 163.178 210.772 163.054 211.611 163.054C212.851 163.054 213.827 163.316 214.539 163.84C215.255 164.364 215.672 165.078 215.792 165.982ZM222.953 163.182V165.227H217.04V163.182H222.953ZM218.382 160.83H221.105V169.983C221.105 170.234 221.144 170.43 221.22 170.571C221.297 170.707 221.403 170.803 221.54 170.859C221.68 170.914 221.842 170.942 222.026 170.942C222.153 170.942 222.281 170.931 222.409 170.91C222.537 170.884 222.635 170.865 222.703 170.852L223.131 172.879C222.995 172.921 222.803 172.97 222.556 173.026C222.309 173.085 222.009 173.121 221.655 173.134C220.999 173.16 220.423 173.072 219.929 172.872C219.439 172.672 219.058 172.361 218.785 171.939C218.512 171.517 218.378 170.984 218.382 170.341V160.83ZM234.115 163.182V165.227H228.202V163.182H234.115ZM229.544 160.83H232.267V169.983C232.267 170.234 232.306 170.43 232.382 170.571C232.459 170.707 232.566 170.803 232.702 170.859C232.843 170.914 233.005 170.942 233.188 170.942C233.316 170.942 233.443 170.931 233.571 170.91C233.699 170.884 233.797 170.865 233.865 170.852L234.294 172.879C234.157 172.921 233.965 172.97 233.718 173.026C233.471 173.085 233.171 173.121 232.817 173.134C232.161 173.16 231.585 173.072 231.091 172.872C230.601 172.672 230.22 172.361 229.947 171.939C229.674 171.517 229.54 170.984 229.544 170.341V160.83ZM235.888 173V163.182H238.528V164.895H238.631C238.81 164.286 239.11 163.825 239.532 163.514C239.954 163.199 240.44 163.041 240.989 163.041C241.126 163.041 241.273 163.05 241.43 163.067C241.588 163.084 241.726 163.107 241.846 163.137V165.553C241.718 165.515 241.541 165.481 241.315 165.451C241.089 165.421 240.883 165.406 240.695 165.406C240.295 165.406 239.937 165.494 239.621 165.668C239.31 165.839 239.063 166.077 238.88 166.384C238.701 166.691 238.611 167.045 238.611 167.445V173H235.888ZM245.234 176.682C244.888 176.682 244.565 176.654 244.262 176.599C243.964 176.548 243.717 176.482 243.521 176.401L244.134 174.368C244.454 174.466 244.741 174.519 244.997 174.528C245.257 174.536 245.481 174.477 245.668 174.349C245.86 174.221 246.016 174.004 246.135 173.697L246.295 173.281L242.773 163.182H245.636L247.669 170.392H247.771L249.823 163.182H252.706L248.89 174.061C248.707 174.589 248.457 175.05 248.142 175.442C247.831 175.838 247.437 176.143 246.959 176.356C246.482 176.573 245.907 176.682 245.234 176.682ZM258.265 173V163.182H260.988V173H258.265ZM259.633 161.916C259.228 161.916 258.881 161.782 258.591 161.513C258.306 161.241 258.163 160.915 258.163 160.536C258.163 160.161 258.306 159.839 258.591 159.57C258.881 159.298 259.228 159.161 259.633 159.161C260.038 159.161 260.383 159.298 260.669 159.57C260.959 159.839 261.103 160.161 261.103 160.536C261.103 160.915 260.959 161.241 260.669 161.513C260.383 161.782 260.038 161.916 259.633 161.916ZM268.392 163.182V165.227H262.479V163.182H268.392ZM263.822 160.83H266.545V169.983C266.545 170.234 266.583 170.43 266.66 170.571C266.736 170.707 266.843 170.803 266.979 170.859C267.12 170.914 267.282 170.942 267.465 170.942C267.593 170.942 267.721 170.931 267.849 170.91C267.976 170.884 268.074 170.865 268.143 170.852L268.571 172.879C268.435 172.921 268.243 172.97 267.996 173.026C267.748 173.085 267.448 173.121 267.094 173.134C266.438 173.16 265.863 173.072 265.369 172.872C264.878 172.672 264.497 172.361 264.224 171.939C263.952 171.517 263.817 170.984 263.822 170.341V160.83ZM278.768 173.192C277.775 173.192 276.916 172.981 276.192 172.559C275.472 172.133 274.916 171.54 274.524 170.782C274.131 170.019 273.935 169.135 273.935 168.129C273.935 167.115 274.131 166.229 274.524 165.47C274.916 164.707 275.472 164.115 276.192 163.693C276.916 163.267 277.775 163.054 278.768 163.054C279.761 163.054 280.617 163.267 281.337 163.693C282.062 164.115 282.62 164.707 283.012 165.47C283.404 166.229 283.6 167.115 283.6 168.129C283.6 169.135 283.404 170.019 283.012 170.782C282.62 171.54 282.062 172.133 281.337 172.559C280.617 172.981 279.761 173.192 278.768 173.192ZM278.781 171.082C279.232 171.082 279.609 170.955 279.912 170.699C280.215 170.439 280.443 170.085 280.596 169.638C280.754 169.19 280.832 168.681 280.832 168.11C280.832 167.539 280.754 167.03 280.596 166.582C280.443 166.135 280.215 165.781 279.912 165.521C279.609 165.261 279.232 165.131 278.781 165.131C278.325 165.131 277.941 165.261 277.63 165.521C277.323 165.781 277.091 166.135 276.933 166.582C276.78 167.03 276.703 167.539 276.703 168.11C276.703 168.681 276.78 169.19 276.933 169.638C277.091 170.085 277.323 170.439 277.63 170.699C277.941 170.955 278.325 171.082 278.781 171.082ZM291.667 168.82V163.182H294.39V173H291.776V171.217H291.673C291.452 171.792 291.083 172.254 290.568 172.604C290.056 172.953 289.432 173.128 288.695 173.128C288.038 173.128 287.461 172.979 286.962 172.68C286.464 172.382 286.074 171.958 285.793 171.408C285.516 170.859 285.375 170.2 285.371 169.433V163.182H288.094V168.947C288.098 169.527 288.254 169.985 288.56 170.322C288.867 170.658 289.278 170.827 289.794 170.827C290.122 170.827 290.429 170.752 290.715 170.603C291 170.45 291.23 170.224 291.405 169.925C291.584 169.627 291.671 169.259 291.667 168.82ZM301.79 163.182V165.227H295.878V163.182H301.79ZM297.22 160.83H299.943V169.983C299.943 170.234 299.981 170.43 300.058 170.571C300.135 170.707 300.241 170.803 300.378 170.859C300.518 170.914 300.68 170.942 300.864 170.942C300.991 170.942 301.119 170.931 301.247 170.91C301.375 170.884 301.473 170.865 301.541 170.852L301.969 172.879C301.833 172.921 301.641 172.97 301.394 173.026C301.147 173.085 300.847 173.121 300.493 173.134C299.837 173.16 299.261 173.072 298.767 172.872C298.277 172.672 297.896 172.361 297.623 171.939C297.35 171.517 297.216 170.984 297.22 170.341V160.83ZM306.818 159.909L306.568 169.075H304.229L303.973 159.909H306.818ZM305.399 173.166C304.977 173.166 304.615 173.017 304.312 172.719C304.009 172.416 303.86 172.054 303.865 171.632C303.86 171.214 304.009 170.857 304.312 170.558C304.615 170.26 304.977 170.111 305.399 170.111C305.804 170.111 306.159 170.26 306.466 170.558C306.773 170.857 306.929 171.214 306.933 171.632C306.929 171.913 306.854 172.171 306.709 172.406C306.568 172.636 306.383 172.821 306.153 172.962C305.923 173.098 305.671 173.166 305.399 173.166ZM312.85 159.909H315.95L318.935 165.547H319.063L322.048 159.909H325.149L320.374 168.372V173H317.625V168.372L312.85 159.909ZM328.989 173.192C327.996 173.192 327.137 172.981 326.413 172.559C325.692 172.133 325.136 171.54 324.744 170.782C324.352 170.019 324.156 169.135 324.156 168.129C324.156 167.115 324.352 166.229 324.744 165.47C325.136 164.707 325.692 164.115 326.413 163.693C327.137 163.267 327.996 163.054 328.989 163.054C329.981 163.054 330.838 163.267 331.558 163.693C332.283 164.115 332.841 164.707 333.233 165.47C333.625 166.229 333.821 167.115 333.821 168.129C333.821 169.135 333.625 170.019 333.233 170.782C332.841 171.54 332.283 172.133 331.558 172.559C330.838 172.981 329.981 173.192 328.989 173.192ZM329.001 171.082C329.453 171.082 329.83 170.955 330.133 170.699C330.435 170.439 330.663 170.085 330.817 169.638C330.974 169.19 331.053 168.681 331.053 168.11C331.053 167.539 330.974 167.03 330.817 166.582C330.663 166.135 330.435 165.781 330.133 165.521C329.83 165.261 329.453 165.131 329.001 165.131C328.545 165.131 328.162 165.261 327.851 165.521C327.544 165.781 327.312 166.135 327.154 166.582C327.001 167.03 326.924 167.539 326.924 168.11C326.924 168.681 327.001 169.19 327.154 169.638C327.312 170.085 327.544 170.439 327.851 170.699C328.162 170.955 328.545 171.082 329.001 171.082ZM341.888 168.82V163.182H344.611V173H341.996V171.217H341.894C341.672 171.792 341.304 172.254 340.788 172.604C340.277 172.953 339.653 173.128 338.915 173.128C338.259 173.128 337.682 172.979 337.183 172.68C336.685 172.382 336.295 171.958 336.013 171.408C335.736 170.859 335.596 170.2 335.592 169.433V163.182H338.315V168.947C338.319 169.527 338.474 169.985 338.781 170.322C339.088 170.658 339.499 170.827 340.015 170.827C340.343 170.827 340.65 170.752 340.935 170.603C341.221 170.45 341.451 170.224 341.626 169.925C341.805 169.627 341.892 169.259 341.888 168.82ZM349.334 159.909V161.29C349.334 161.682 349.258 162.082 349.104 162.491C348.955 162.896 348.755 163.28 348.503 163.642C348.252 164 347.977 164.305 347.679 164.556L346.477 163.847C346.69 163.51 346.878 163.137 347.04 162.728C347.206 162.319 347.289 161.844 347.289 161.303V159.909H349.334ZM353.871 159.909V173H351.148V159.909H353.871ZM358.775 159.909V173H356.052V159.909H358.775ZM370.403 163.182V165.227H364.343V163.182H370.403ZM365.73 173V162.472C365.73 161.761 365.869 161.17 366.146 160.702C366.427 160.233 366.81 159.881 367.296 159.647C367.782 159.413 368.334 159.295 368.952 159.295C369.369 159.295 369.751 159.327 370.096 159.391C370.445 159.455 370.705 159.513 370.876 159.564L370.39 161.609C370.283 161.575 370.151 161.543 369.994 161.513C369.84 161.484 369.682 161.469 369.521 161.469C369.12 161.469 368.841 161.562 368.683 161.75C368.525 161.933 368.447 162.191 368.447 162.523V173H365.73ZM374.514 173.185C373.888 173.185 373.33 173.077 372.84 172.859C372.35 172.638 371.962 172.312 371.676 171.881C371.395 171.447 371.254 170.906 371.254 170.258C371.254 169.712 371.354 169.254 371.555 168.884C371.755 168.513 372.028 168.214 372.373 167.989C372.718 167.763 373.11 167.592 373.549 167.477C373.992 167.362 374.457 167.281 374.943 167.234C375.514 167.175 375.974 167.119 376.323 167.068C376.673 167.013 376.926 166.932 377.084 166.825C377.242 166.719 377.32 166.561 377.32 166.352V166.314C377.32 165.909 377.193 165.596 376.937 165.374C376.685 165.153 376.328 165.042 375.863 165.042C375.373 165.042 374.983 165.151 374.693 165.368C374.403 165.581 374.212 165.849 374.118 166.173L371.6 165.969C371.727 165.372 371.979 164.857 372.354 164.422C372.729 163.983 373.212 163.646 373.805 163.412C374.401 163.173 375.092 163.054 375.876 163.054C376.421 163.054 376.943 163.118 377.442 163.246C377.945 163.374 378.39 163.572 378.778 163.84C379.17 164.109 379.479 164.454 379.705 164.876C379.93 165.293 380.043 165.794 380.043 166.378V173H377.461V171.638H377.384C377.227 171.945 377.016 172.216 376.752 172.45C376.487 172.68 376.17 172.862 375.799 172.994C375.428 173.121 375 173.185 374.514 173.185ZM375.294 171.306C375.695 171.306 376.048 171.227 376.355 171.07C376.662 170.908 376.903 170.69 377.078 170.418C377.252 170.145 377.34 169.836 377.34 169.491V168.449C377.254 168.504 377.137 168.555 376.988 168.602C376.843 168.645 376.679 168.685 376.496 168.724C376.313 168.758 376.129 168.79 375.946 168.82C375.763 168.845 375.597 168.869 375.448 168.89C375.128 168.937 374.849 169.011 374.61 169.114C374.372 169.216 374.186 169.354 374.054 169.529C373.922 169.7 373.856 169.913 373.856 170.168C373.856 170.539 373.99 170.822 374.259 171.018C374.531 171.21 374.877 171.306 375.294 171.306ZM384.879 159.909V173H382.156V159.909H384.879ZM389.783 159.909V173H387.06V159.909H389.783ZM396.131 173V163.182H398.854V173H396.131ZM397.498 161.916C397.094 161.916 396.746 161.782 396.457 161.513C396.171 161.241 396.028 160.915 396.028 160.536C396.028 160.161 396.171 159.839 396.457 159.57C396.746 159.298 397.094 159.161 397.498 159.161C397.903 159.161 398.248 159.298 398.534 159.57C398.824 159.839 398.969 160.161 398.969 160.536C398.969 160.915 398.824 161.241 398.534 161.513C398.248 161.782 397.903 161.916 397.498 161.916ZM403.758 167.324V173H401.035V163.182H403.63V164.914H403.745C403.962 164.343 404.327 163.891 404.838 163.559C405.35 163.222 405.97 163.054 406.698 163.054C407.38 163.054 407.975 163.203 408.482 163.501C408.989 163.8 409.383 164.226 409.664 164.78C409.945 165.33 410.086 165.986 410.086 166.749V173H407.363V167.234C407.367 166.634 407.214 166.165 406.903 165.828C406.592 165.487 406.163 165.317 405.618 165.317C405.252 165.317 404.928 165.396 404.646 165.553C404.369 165.711 404.152 165.941 403.994 166.244C403.841 166.542 403.762 166.902 403.758 167.324ZM419.121 159.909V173H416.398V159.909H419.121ZM425.739 173.192C424.746 173.192 423.887 172.981 423.163 172.559C422.442 172.133 421.886 171.54 421.494 170.782C421.102 170.019 420.906 169.135 420.906 168.129C420.906 167.115 421.102 166.229 421.494 165.47C421.886 164.707 422.442 164.115 423.163 163.693C423.887 163.267 424.746 163.054 425.739 163.054C426.731 163.054 427.588 163.267 428.308 163.693C429.033 164.115 429.591 164.707 429.983 165.47C430.375 166.229 430.571 167.115 430.571 168.129C430.571 169.135 430.375 170.019 429.983 170.782C429.591 171.54 429.033 172.133 428.308 172.559C427.588 172.981 426.731 173.192 425.739 173.192ZM425.751 171.082C426.203 171.082 426.58 170.955 426.883 170.699C427.185 170.439 427.413 170.085 427.567 169.638C427.724 169.19 427.803 168.681 427.803 168.11C427.803 167.539 427.724 167.03 427.567 166.582C427.413 166.135 427.185 165.781 426.883 165.521C426.58 165.261 426.203 165.131 425.751 165.131C425.295 165.131 424.912 165.261 424.601 165.521C424.294 165.781 424.062 166.135 423.904 166.582C423.751 167.03 423.674 167.539 423.674 168.11C423.674 168.681 423.751 169.19 423.904 169.638C424.062 170.085 424.294 170.439 424.601 170.699C424.912 170.955 425.295 171.082 425.751 171.082ZM441.179 163.182L437.746 173H434.678L431.245 163.182H434.122L436.161 170.207H436.263L438.296 163.182H441.179ZM446.73 173.192C445.72 173.192 444.851 172.987 444.122 172.578C443.398 172.165 442.839 171.581 442.447 170.827C442.055 170.068 441.859 169.171 441.859 168.136C441.859 167.126 442.055 166.239 442.447 165.477C442.839 164.714 443.391 164.119 444.103 163.693C444.819 163.267 445.658 163.054 446.621 163.054C447.269 163.054 447.872 163.158 448.43 163.367C448.993 163.572 449.483 163.881 449.9 164.294C450.322 164.707 450.65 165.227 450.885 165.854C451.119 166.476 451.236 167.205 451.236 168.04V168.788H442.946V167.1H448.673C448.673 166.708 448.588 166.361 448.418 166.058C448.247 165.756 448.011 165.519 447.708 165.349C447.41 165.174 447.062 165.087 446.666 165.087C446.253 165.087 445.886 165.183 445.567 165.374C445.251 165.562 445.004 165.815 444.825 166.135C444.646 166.45 444.555 166.802 444.55 167.19V168.794C444.55 169.28 444.64 169.7 444.819 170.053C445.002 170.407 445.26 170.68 445.592 170.871C445.925 171.063 446.319 171.159 446.775 171.159C447.077 171.159 447.354 171.116 447.606 171.031C447.857 170.946 448.072 170.818 448.251 170.648C448.43 170.477 448.567 170.268 448.66 170.021L451.179 170.188C451.051 170.793 450.789 171.321 450.393 171.773C450.001 172.22 449.494 172.57 448.871 172.821C448.253 173.068 447.54 173.192 446.73 173.192Z" fill="#475569"/>
<path d="M256 192H380.306" stroke="#CBD5E1" stroke-width="4" stroke-linecap="round"/>
<path d="M267 202H368.959" stroke="#E2E8F0" stroke-width="4" stroke-linecap="round"/>
<path d="M283 212H353" stroke="#E2E8F0" stroke-width="4" stroke-linecap="round"/>
<defs>
<filter id="filter0_d_6113_30091" x="84" y="57" width="468" height="286" filterUnits="userSpaceOnUse" color-interpolation-filters="sRGB">
<feFlood flood-opacity="0" result="BackgroundImageFix"/>
<feColorMatrix in="SourceAlpha" type="matrix" values="0 0 0 0 0 0 0 0 0 0 0 0 0 0 0 0 0 0 127 0" result="hardAlpha"/>
<feOffset dy="1"/>
<feGaussianBlur stdDeviation="1.5"/>
<feColorMatrix type="matrix" values="0 0 0 0 0.0117647 0 0 0 0 0 0 0 0 0 0.278431 0 0 0 0.13 0"/>
<feBlend mode="normal" in2="BackgroundImageFix" result="effect1_dropShadow_6113_30091"/>
<feBlend mode="normal" in="SourceGraphic" in2="effect1_dropShadow_6113_30091" result="shape"/>
</filter>
</defs>
</svg>
