<svg width="636" height="400" viewBox="0 0 636 400" fill="none" xmlns="http://www.w3.org/2000/svg">
<rect width="636" height="400" fill="#E2E8F0"/>
<g filter="url(#filter0_d_6115_29407)">
<rect x="178" y="64" width="293.397" height="280.245" rx="6.25216" fill="white"/>
<path d="M205.054 98.0932C204.574 98.0932 204.148 98.0111 203.775 97.8468C203.404 97.6825 203.111 97.4538 202.896 97.1608C202.68 96.8677 202.566 96.5291 202.553 96.145H203.805C203.816 96.3293 203.877 96.4902 203.988 96.6279C204.099 96.7633 204.247 96.8688 204.431 96.9443C204.615 97.0198 204.822 97.0575 205.051 97.0575C205.295 97.0575 205.511 97.0153 205.7 96.931C205.889 96.8444 206.036 96.7245 206.143 96.5713C206.25 96.4181 206.302 96.2416 206.299 96.0418C206.302 95.8353 206.248 95.6532 206.14 95.4956C206.031 95.3379 205.873 95.2147 205.667 95.1259C205.462 95.0371 205.216 94.9927 204.927 94.9927H204.325V94.0402H204.927C205.165 94.0402 205.373 93.9992 205.55 93.917C205.73 93.8349 205.871 93.7194 205.973 93.5706C206.075 93.4197 206.125 93.2454 206.123 93.0478C206.125 92.8546 206.082 92.687 205.993 92.5449C205.906 92.4006 205.783 92.2885 205.623 92.2085C205.466 92.1286 205.28 92.0886 205.067 92.0886C204.859 92.0886 204.665 92.1264 204.488 92.2019C204.31 92.2774 204.167 92.385 204.058 92.5249C203.949 92.6626 203.892 92.8269 203.885 93.0178H202.696C202.705 92.6359 202.815 92.3007 203.026 92.012C203.239 91.7212 203.523 91.4947 203.878 91.3327C204.234 91.1684 204.632 91.0862 205.074 91.0862C205.529 91.0862 205.924 91.1717 206.26 91.3426C206.597 91.5114 206.858 91.739 207.042 92.0254C207.226 92.3118 207.319 92.6282 207.319 92.9745C207.321 93.3586 207.208 93.6805 206.979 93.9403C206.752 94.2001 206.455 94.3699 206.086 94.4499V94.5031C206.566 94.5697 206.933 94.7474 207.189 95.036C207.446 95.3224 207.574 95.6788 207.572 96.105C207.572 96.4869 207.463 96.8288 207.245 97.1308C207.03 97.4305 206.732 97.6659 206.353 97.8368C205.975 98.0078 205.542 98.0932 205.054 98.0932ZM211.236 98.1299C210.687 98.1299 210.217 97.9911 209.824 97.7136C209.433 97.4338 209.132 97.0309 208.921 96.5047C208.713 95.9763 208.608 95.3402 208.608 94.5964C208.61 93.8526 208.716 93.2199 208.925 92.6981C209.136 92.1741 209.436 91.7745 209.827 91.4992C210.22 91.2239 210.69 91.0862 211.236 91.0862C211.782 91.0862 212.252 91.2239 212.645 91.4992C213.038 91.7745 213.338 92.1741 213.547 92.6981C213.758 93.2221 213.864 93.8548 213.864 94.5964C213.864 95.3424 213.758 95.9796 213.547 96.508C213.338 97.0342 213.038 97.4361 212.645 97.7136C212.254 97.9911 211.784 98.1299 211.236 98.1299ZM211.236 97.0875C211.662 97.0875 211.999 96.8777 212.245 96.4581C212.494 96.0362 212.618 95.4157 212.618 94.5964C212.618 94.0547 212.561 93.5995 212.448 93.231C212.335 92.8624 212.175 92.5849 211.969 92.3984C211.762 92.2096 211.518 92.1153 211.236 92.1153C210.812 92.1153 210.477 92.3262 210.23 92.7481C209.984 93.1677 209.859 93.7838 209.857 94.5964C209.855 95.1403 209.909 95.5977 210.02 95.9685C210.134 96.3393 210.293 96.619 210.5 96.8077C210.706 96.9942 210.952 97.0875 211.236 97.0875ZM219.208 98.0899C218.806 98.0899 218.446 97.9867 218.129 97.7802C217.811 97.5737 217.56 97.274 217.376 96.881C217.192 96.488 217.1 96.0107 217.1 95.449C217.1 94.8806 217.193 94.401 217.38 94.0103C217.568 93.6173 217.822 93.3209 218.142 93.1211C218.462 92.919 218.818 92.818 219.211 92.818C219.511 92.818 219.757 92.8691 219.951 92.9712C220.144 93.0711 220.297 93.1921 220.41 93.3342C220.523 93.4741 220.611 93.6062 220.673 93.7305H220.723V91.1795H221.932V98H220.746V97.1941H220.673C220.611 97.3184 220.521 97.4505 220.403 97.5904C220.286 97.728 220.13 97.8457 219.937 97.9434C219.744 98.0411 219.501 98.0899 219.208 98.0899ZM219.544 97.1008C219.8 97.1008 220.017 97.032 220.197 96.8943C220.377 96.7545 220.513 96.5602 220.607 96.3115C220.7 96.0629 220.746 95.7731 220.746 95.4423C220.746 95.1115 220.7 94.824 220.607 94.5797C220.516 94.3355 220.38 94.1457 220.2 94.0103C220.023 93.8748 219.804 93.8071 219.544 93.8071C219.276 93.8071 219.051 93.877 218.872 94.0169C218.692 94.1568 218.556 94.3499 218.465 94.5964C218.374 94.8428 218.329 95.1248 218.329 95.4423C218.329 95.762 218.374 96.0473 218.465 96.2982C218.558 96.5469 218.695 96.7434 218.875 96.8877C219.057 97.0298 219.28 97.1008 219.544 97.1008ZM224.689 98.1032C224.365 98.1032 224.073 98.0455 223.813 97.9301C223.555 97.8124 223.351 97.6392 223.2 97.4105C223.051 97.1818 222.977 96.8999 222.977 96.5646C222.977 96.276 223.03 96.0373 223.137 95.8486C223.243 95.6599 223.389 95.5089 223.573 95.3957C223.757 95.2824 223.965 95.197 224.196 95.1392C224.429 95.0793 224.67 95.036 224.919 95.0094C225.218 94.9783 225.461 94.9505 225.648 94.9261C225.834 94.8995 225.97 94.8595 226.054 94.8062C226.141 94.7507 226.184 94.6652 226.184 94.5498V94.5298C226.184 94.2789 226.11 94.0846 225.961 93.947C225.812 93.8093 225.598 93.7405 225.318 93.7405C225.023 93.7405 224.789 93.8049 224.616 93.9337C224.445 94.0624 224.329 94.2145 224.269 94.3899L223.143 94.2301C223.232 93.9192 223.379 93.6595 223.583 93.4508C223.787 93.2398 224.037 93.0822 224.332 92.9778C224.628 92.8713 224.954 92.818 225.312 92.818C225.558 92.818 225.803 92.8469 226.048 92.9046C226.292 92.9623 226.515 93.0578 226.717 93.191C226.919 93.322 227.081 93.5007 227.203 93.7272C227.328 93.9536 227.39 94.2367 227.39 94.5764V98H226.231V97.2973H226.191C226.117 97.4394 226.014 97.5726 225.881 97.6969C225.75 97.8191 225.585 97.9179 225.385 97.9933C225.187 98.0666 224.955 98.1032 224.689 98.1032ZM225.002 97.2174C225.244 97.2174 225.454 97.1696 225.631 97.0742C225.809 96.9765 225.945 96.8477 226.041 96.6878C226.139 96.528 226.187 96.3537 226.187 96.165V95.5622C226.15 95.5933 226.085 95.6221 225.994 95.6488C225.905 95.6754 225.806 95.6987 225.695 95.7187C225.584 95.7387 225.474 95.7565 225.365 95.772C225.256 95.7875 225.162 95.8009 225.082 95.812C224.902 95.8364 224.741 95.8764 224.599 95.9319C224.457 95.9874 224.345 96.0651 224.262 96.165C224.18 96.2627 224.139 96.3892 224.139 96.5446C224.139 96.7667 224.22 96.9343 224.382 97.0475C224.544 97.1608 224.751 97.2174 225.002 97.2174ZM229.168 99.9183C229.004 99.9183 228.852 99.905 228.712 99.8783C228.574 99.8539 228.464 99.825 228.382 99.7917L228.662 98.8526C228.837 98.9036 228.994 98.9281 229.131 98.9258C229.269 98.9236 229.39 98.8803 229.494 98.796C229.601 98.7138 229.691 98.5761 229.764 98.383L229.867 98.1066L228.012 92.8846H229.291L230.47 96.7478H230.524L231.706 92.8846H232.988L230.94 98.6194C230.844 98.8903 230.718 99.1223 230.56 99.3155C230.403 99.5109 230.209 99.6596 229.981 99.7618C229.754 99.8661 229.483 99.9183 229.168 99.9183ZM237.865 94.2367L236.766 94.3566C236.735 94.2456 236.681 94.1412 236.603 94.0436C236.528 93.9459 236.425 93.867 236.297 93.8071C236.168 93.7472 236.01 93.7172 235.824 93.7172C235.573 93.7172 235.362 93.7716 235.191 93.8804C235.022 93.9892 234.939 94.1301 234.941 94.3033C234.939 94.4521 234.993 94.5731 235.104 94.6663C235.218 94.7596 235.404 94.8362 235.664 94.8961L236.536 95.0826C237.02 95.187 237.38 95.3524 237.615 95.5788C237.853 95.8053 237.973 96.1017 237.975 96.468C237.973 96.79 237.879 97.0742 237.692 97.3206C237.508 97.5648 237.251 97.7558 236.923 97.8934C236.594 98.0311 236.217 98.0999 235.79 98.0999C235.164 98.0999 234.66 97.9689 234.278 97.7069C233.897 97.4427 233.669 97.0753 233.596 96.6046L234.771 96.4914C234.825 96.7223 234.938 96.8965 235.111 97.0142C235.284 97.1319 235.51 97.1907 235.787 97.1907C236.074 97.1907 236.303 97.1319 236.477 97.0142C236.652 96.8965 236.74 96.7511 236.74 96.5779C236.74 96.4314 236.683 96.3104 236.57 96.2149C236.459 96.1195 236.286 96.0462 236.05 95.9951L235.178 95.812C234.687 95.7098 234.324 95.5378 234.089 95.2958C233.853 95.0515 233.737 94.7429 233.739 94.3699C233.737 94.0547 233.822 93.7816 233.995 93.5507C234.171 93.3175 234.414 93.1377 234.725 93.0111C235.038 92.8824 235.399 92.818 235.807 92.818C236.407 92.818 236.878 92.9457 237.223 93.201C237.569 93.4563 237.783 93.8016 237.865 94.2367Z" fill="#64748B"/>
<path d="M208.761 110.359V124H206.289V112.763H206.21L203.019 114.802V112.537L206.409 110.359H208.761ZM211.849 124V122.215L216.585 117.572C217.038 117.115 217.415 116.709 217.717 116.354C218.019 115.998 218.245 115.654 218.396 115.321C218.547 114.988 218.623 114.633 218.623 114.255C218.623 113.825 218.525 113.456 218.33 113.15C218.134 112.839 217.866 112.599 217.524 112.43C217.182 112.262 216.793 112.177 216.358 112.177C215.91 112.177 215.517 112.271 215.179 112.457C214.842 112.639 214.58 112.899 214.393 113.236C214.211 113.574 214.12 113.976 214.12 114.442H211.769C211.769 113.576 211.967 112.823 212.362 112.184C212.757 111.545 213.301 111.049 213.994 110.699C214.691 110.348 215.49 110.172 216.392 110.172C217.306 110.172 218.11 110.343 218.803 110.685C219.495 111.027 220.033 111.496 220.415 112.091C220.801 112.686 220.994 113.365 220.994 114.129C220.994 114.64 220.896 115.141 220.701 115.634C220.506 116.127 220.162 116.673 219.669 117.273C219.18 117.872 218.494 118.598 217.611 119.451L215.259 121.842V121.935H221.201V124H211.849ZM225.981 122.135L225.894 122.868C225.832 123.427 225.721 123.996 225.561 124.573C225.406 125.155 225.242 125.69 225.068 126.178C224.895 126.666 224.755 127.051 224.649 127.33H223.024C223.086 127.059 223.17 126.691 223.277 126.225C223.388 125.758 223.494 125.234 223.596 124.653C223.698 124.071 223.767 123.48 223.803 122.881L223.849 122.135H225.981ZM232.744 124.186C232.092 124.182 231.454 124.069 230.833 123.847C230.211 123.62 229.652 123.254 229.154 122.748C228.657 122.237 228.262 121.56 227.969 120.716C227.676 119.868 227.531 118.818 227.536 117.566C227.536 116.398 227.66 115.357 227.909 114.442C228.157 113.527 228.515 112.755 228.981 112.124C229.447 111.489 230.009 111.005 230.666 110.672C231.328 110.339 232.067 110.172 232.884 110.172C233.741 110.172 234.501 110.341 235.162 110.679C235.828 111.016 236.365 111.478 236.774 112.064C237.183 112.646 237.436 113.303 237.533 114.036H235.102C234.978 113.512 234.723 113.094 234.336 112.783C233.954 112.468 233.47 112.311 232.884 112.311C231.938 112.311 231.21 112.721 230.699 113.543C230.193 114.364 229.938 115.492 229.933 116.926H230.027C230.244 116.536 230.526 116.2 230.873 115.921C231.219 115.641 231.61 115.425 232.045 115.275C232.485 115.119 232.949 115.041 233.437 115.041C234.236 115.041 234.953 115.232 235.588 115.614C236.228 115.996 236.734 116.522 237.107 117.193C237.48 117.859 237.664 118.623 237.66 119.484C237.664 120.381 237.46 121.187 237.047 121.902C236.634 122.612 236.059 123.172 235.322 123.58C234.585 123.989 233.726 124.191 232.744 124.186ZM232.731 122.188C233.215 122.188 233.648 122.071 234.03 121.835C234.412 121.6 234.714 121.282 234.936 120.883C235.158 120.483 235.266 120.035 235.262 119.537C235.266 119.049 235.16 118.607 234.942 118.212C234.729 117.817 234.434 117.504 234.056 117.273C233.679 117.042 233.248 116.926 232.764 116.926C232.405 116.926 232.069 116.995 231.759 117.133C231.448 117.27 231.177 117.461 230.946 117.706C230.715 117.945 230.533 118.225 230.4 118.545C230.271 118.86 230.204 119.198 230.2 119.557C230.204 120.032 230.315 120.47 230.533 120.869C230.751 121.269 231.05 121.589 231.432 121.829C231.814 122.068 232.247 122.188 232.731 122.188ZM244.272 110.172C244.925 110.177 245.56 110.292 246.177 110.519C246.798 110.741 247.358 111.105 247.855 111.611C248.353 112.113 248.748 112.786 249.041 113.629C249.334 114.473 249.48 115.517 249.48 116.76C249.485 117.932 249.361 118.98 249.107 119.904C248.859 120.823 248.501 121.6 248.035 122.235C247.569 122.87 247.007 123.354 246.35 123.687C245.693 124.02 244.953 124.186 244.132 124.186C243.27 124.186 242.507 124.018 241.841 123.68C241.179 123.343 240.644 122.881 240.235 122.295C239.827 121.709 239.576 121.038 239.483 120.283H241.914C242.038 120.825 242.291 121.256 242.673 121.576C243.06 121.891 243.546 122.048 244.132 122.048C245.078 122.048 245.806 121.638 246.317 120.816C246.827 119.995 247.083 118.854 247.083 117.393H246.989C246.772 117.783 246.49 118.121 246.143 118.405C245.797 118.685 245.404 118.9 244.965 119.051C244.529 119.202 244.068 119.278 243.579 119.278C242.78 119.278 242.06 119.087 241.421 118.705C240.786 118.323 240.282 117.799 239.909 117.133C239.541 116.467 239.354 115.705 239.35 114.848C239.35 113.96 239.554 113.163 239.962 112.457C240.375 111.747 240.95 111.187 241.687 110.779C242.425 110.366 243.286 110.164 244.272 110.172ZM244.278 112.171C243.799 112.171 243.366 112.288 242.98 112.524C242.598 112.755 242.296 113.07 242.074 113.469C241.856 113.865 241.747 114.306 241.747 114.795C241.752 115.279 241.861 115.719 242.074 116.114C242.291 116.509 242.587 116.822 242.96 117.053C243.337 117.284 243.768 117.399 244.252 117.399C244.612 117.399 244.947 117.33 245.258 117.193C245.568 117.055 245.839 116.864 246.07 116.62C246.306 116.371 246.488 116.089 246.616 115.774C246.75 115.459 246.814 115.126 246.81 114.775C246.81 114.309 246.699 113.878 246.476 113.483C246.259 113.088 245.959 112.77 245.577 112.53C245.2 112.291 244.767 112.171 244.278 112.171ZM256.172 124.186C255.182 124.186 254.303 124.02 253.535 123.687C252.771 123.354 252.171 122.899 251.736 122.322C251.306 121.74 251.092 121.08 251.097 120.343C251.092 119.77 251.217 119.244 251.47 118.765C251.723 118.285 252.065 117.885 252.496 117.566C252.931 117.242 253.415 117.035 253.948 116.946V116.853C253.246 116.698 252.678 116.34 252.243 115.781C251.812 115.217 251.599 114.566 251.603 113.829C251.599 113.128 251.794 112.501 252.189 111.951C252.584 111.4 253.126 110.967 253.814 110.652C254.503 110.332 255.289 110.172 256.172 110.172C257.047 110.172 257.826 110.332 258.51 110.652C259.198 110.967 259.74 111.4 260.135 111.951C260.535 112.501 260.735 113.128 260.735 113.829C260.735 114.566 260.515 115.217 260.075 115.781C259.64 116.34 259.079 116.698 258.39 116.853V116.946C258.923 117.035 259.403 117.242 259.829 117.566C260.26 117.885 260.602 118.285 260.855 118.765C261.112 119.244 261.241 119.77 261.241 120.343C261.241 121.08 261.024 121.74 260.588 122.322C260.153 122.899 259.554 123.354 258.79 123.687C258.031 124.02 257.158 124.186 256.172 124.186ZM256.172 122.282C256.683 122.282 257.127 122.195 257.504 122.022C257.882 121.844 258.175 121.595 258.384 121.276C258.592 120.956 258.699 120.588 258.703 120.17C258.699 119.735 258.586 119.351 258.364 119.018C258.146 118.68 257.846 118.416 257.464 118.225C257.087 118.034 256.656 117.939 256.172 117.939C255.684 117.939 255.249 118.034 254.867 118.225C254.485 118.416 254.183 118.68 253.961 119.018C253.743 119.351 253.637 119.735 253.641 120.17C253.637 120.588 253.739 120.956 253.948 121.276C254.156 121.591 254.449 121.837 254.827 122.015C255.209 122.193 255.657 122.282 256.172 122.282ZM256.172 116.067C256.59 116.067 256.958 115.983 257.278 115.814C257.602 115.645 257.857 115.41 258.044 115.108C258.23 114.806 258.326 114.457 258.33 114.062C258.326 113.672 258.233 113.33 258.051 113.037C257.869 112.739 257.615 112.51 257.291 112.35C256.967 112.186 256.594 112.104 256.172 112.104C255.742 112.104 255.362 112.186 255.033 112.35C254.709 112.51 254.456 112.739 254.274 113.037C254.096 113.33 254.01 113.672 254.014 114.062C254.01 114.457 254.099 114.806 254.281 115.108C254.467 115.406 254.723 115.641 255.047 115.814C255.375 115.983 255.75 116.067 256.172 116.067Z" fill="#1E293B"/>
<path d="M219.312 137.179V144H218.28V138.212H218.24L216.608 139.278V138.292L218.31 137.179H219.312ZM221.157 144V143.254L223.465 140.863C223.711 140.603 223.915 140.375 224.074 140.18C224.237 139.982 224.358 139.795 224.438 139.617C224.517 139.44 224.557 139.251 224.557 139.051C224.557 138.825 224.504 138.629 224.398 138.465C224.291 138.298 224.146 138.171 223.961 138.082C223.777 137.991 223.569 137.945 223.338 137.945C223.094 137.945 222.881 137.995 222.699 138.095C222.517 138.195 222.377 138.336 222.279 138.518C222.182 138.7 222.133 138.913 222.133 139.158H221.15C221.15 138.743 221.246 138.379 221.437 138.069C221.628 137.758 221.89 137.517 222.223 137.346C222.556 137.173 222.934 137.086 223.358 137.086C223.787 137.086 224.164 137.172 224.491 137.343C224.819 137.511 225.076 137.742 225.26 138.035C225.444 138.326 225.537 138.655 225.537 139.021C225.537 139.274 225.489 139.522 225.393 139.764C225.3 140.006 225.137 140.276 224.904 140.573C224.671 140.868 224.346 141.227 223.931 141.649L222.576 143.068V143.117H225.646V144H221.157ZM227.578 144.063C227.396 144.063 227.239 143.999 227.108 143.87C226.977 143.739 226.912 143.581 226.912 143.397C226.912 143.215 226.977 143.06 227.108 142.931C227.239 142.8 227.396 142.734 227.578 142.734C227.76 142.734 227.917 142.8 228.048 142.931C228.179 143.06 228.244 143.215 228.244 143.397C228.244 143.519 228.213 143.631 228.151 143.734C228.091 143.833 228.011 143.913 227.911 143.973C227.811 144.033 227.7 144.063 227.578 144.063ZM231.698 144.093C231.394 144.089 231.095 144.033 230.799 143.927C230.506 143.82 230.24 143.643 230 143.394C229.76 143.145 229.568 142.811 229.424 142.391C229.282 141.972 229.211 141.448 229.211 140.82C229.211 140.225 229.27 139.696 229.387 139.234C229.507 138.772 229.679 138.383 229.903 138.065C230.128 137.746 230.399 137.503 230.716 137.336C231.034 137.169 231.39 137.086 231.785 137.086C232.191 137.086 232.552 137.166 232.867 137.326C233.183 137.486 233.438 137.707 233.633 137.989C233.831 138.271 233.956 138.592 234.01 138.951H232.994C232.925 138.667 232.789 138.435 232.584 138.255C232.38 138.075 232.114 137.985 231.785 137.985C231.286 137.985 230.896 138.203 230.616 138.638C230.339 139.073 230.199 139.678 230.196 140.453H230.246C230.364 140.26 230.508 140.096 230.679 139.96C230.853 139.823 231.046 139.717 231.259 139.644C231.474 139.568 231.701 139.531 231.938 139.531C232.333 139.531 232.691 139.627 233.011 139.82C233.333 140.011 233.589 140.276 233.78 140.613C233.971 140.951 234.066 141.337 234.066 141.772C234.066 142.207 233.968 142.601 233.77 142.954C233.575 143.307 233.299 143.587 232.944 143.794C232.589 143.998 232.174 144.098 231.698 144.093ZM231.695 143.227C231.957 143.227 232.191 143.163 232.398 143.034C232.604 142.905 232.768 142.732 232.887 142.515C233.007 142.297 233.067 142.054 233.067 141.785C233.067 141.523 233.008 141.285 232.891 141.069C232.775 140.854 232.615 140.683 232.411 140.556C232.209 140.43 231.978 140.367 231.718 140.367C231.521 140.367 231.338 140.404 231.169 140.48C231.002 140.555 230.856 140.66 230.729 140.793C230.603 140.926 230.503 141.079 230.43 141.252C230.359 141.423 230.323 141.604 230.323 141.795C230.323 142.051 230.382 142.287 230.5 142.505C230.619 142.722 230.783 142.898 230.989 143.031C231.198 143.162 231.433 143.227 231.695 143.227ZM238.84 142.721V142.361C238.84 142.104 238.893 141.869 238.999 141.655C239.108 141.44 239.266 141.268 239.472 141.139C239.681 141.008 239.933 140.943 240.228 140.943C240.53 140.943 240.783 141.007 240.988 141.136C241.192 141.265 241.346 141.437 241.451 141.652C241.557 141.867 241.61 142.104 241.61 142.361V142.721C241.61 142.979 241.557 143.215 241.451 143.431C241.344 143.644 241.187 143.816 240.981 143.947C240.777 144.075 240.526 144.14 240.228 144.14C239.929 144.14 239.675 144.075 239.469 143.947C239.263 143.816 239.106 143.644 238.999 143.431C238.893 143.215 238.84 142.979 238.84 142.721ZM239.616 142.361V142.721C239.616 142.912 239.661 143.085 239.752 143.241C239.843 143.396 240.002 143.474 240.228 143.474C240.453 143.474 240.609 143.396 240.698 143.241C240.787 143.085 240.831 142.912 240.831 142.721V142.361C240.831 142.171 240.788 141.997 240.701 141.842C240.617 141.687 240.459 141.609 240.228 141.609C240.006 141.609 239.849 141.687 239.755 141.842C239.662 141.997 239.616 142.171 239.616 142.361ZM235.409 138.818V138.458C235.409 138.201 235.463 137.964 235.569 137.749C235.678 137.534 235.836 137.362 236.042 137.233C236.251 137.104 236.503 137.04 236.798 137.04C237.1 137.04 237.353 137.104 237.557 137.233C237.762 137.362 237.916 137.534 238.02 137.749C238.125 137.964 238.177 138.201 238.177 138.458V138.818C238.177 139.076 238.124 139.312 238.017 139.527C237.913 139.74 237.757 139.913 237.551 140.044C237.346 140.172 237.096 140.237 236.798 140.237C236.496 140.237 236.242 140.172 236.035 140.044C235.831 139.913 235.676 139.74 235.569 139.527C235.463 139.312 235.409 139.076 235.409 138.818ZM236.189 138.458V138.818C236.189 139.009 236.233 139.182 236.322 139.338C236.413 139.493 236.572 139.571 236.798 139.571C237.02 139.571 237.176 139.493 237.264 139.338C237.355 139.182 237.401 139.009 237.401 138.818V138.458C237.401 138.267 237.358 138.094 237.271 137.939C237.184 137.783 237.027 137.706 236.798 137.706C236.576 137.706 236.418 137.783 236.325 137.939C236.234 138.094 236.189 138.267 236.189 138.458ZM235.726 144L240.415 137.179H241.211L236.522 144H235.726Z" fill="#38A169"/>
<g clip-path="url(#clip0_6115_29407)">
<path d="M210.987 137.908L207.275 141.62L205.321 139.666L202.391 142.597" stroke="#38A169" stroke-width="0.78152" stroke-linecap="round" stroke-linejoin="round"/>
<path d="M208.645 137.908H210.989V140.252" stroke="#38A169" stroke-width="0.78152" stroke-linecap="round" stroke-linejoin="round"/>
</g>
<path d="M295.321 98L298.221 92.2585V92.2119H294.854V91.1795H299.5V92.2352L296.603 98H295.321ZM304.813 98.0899C304.411 98.0899 304.052 97.9867 303.734 97.7802C303.417 97.5737 303.166 97.274 302.981 96.881C302.797 96.488 302.705 96.0107 302.705 95.449C302.705 94.8806 302.798 94.401 302.985 94.0103C303.173 93.6173 303.428 93.3209 303.747 93.1211C304.067 92.919 304.423 92.818 304.816 92.818C305.116 92.818 305.363 92.8691 305.556 92.9712C305.749 93.0711 305.902 93.1921 306.015 93.3342C306.129 93.4741 306.216 93.6062 306.278 93.7305H306.328V91.1795H307.537V98H306.352V97.1941H306.278C306.216 97.3184 306.126 97.4505 306.009 97.5904C305.891 97.728 305.736 97.8457 305.542 97.9434C305.349 98.0411 305.106 98.0899 304.813 98.0899ZM305.149 97.1008C305.405 97.1008 305.622 97.032 305.802 96.8943C305.982 96.7545 306.119 96.5602 306.212 96.3115C306.305 96.0629 306.352 95.7731 306.352 95.4423C306.352 95.1115 306.305 94.824 306.212 94.5797C306.121 94.3355 305.985 94.1457 305.805 94.0103C305.628 93.8748 305.409 93.8071 305.149 93.8071C304.881 93.8071 304.657 93.877 304.477 94.0169C304.297 94.1568 304.161 94.3499 304.07 94.5964C303.979 94.8428 303.934 95.1248 303.934 95.4423C303.934 95.762 303.979 96.0473 304.07 96.2982C304.164 96.5469 304.3 96.7434 304.48 96.8877C304.662 97.0298 304.885 97.1008 305.149 97.1008ZM310.294 98.1032C309.97 98.1032 309.678 98.0455 309.418 97.9301C309.161 97.8124 308.956 97.6392 308.805 97.4105C308.657 97.1818 308.582 96.8999 308.582 96.5646C308.582 96.276 308.635 96.0373 308.742 95.8486C308.849 95.6599 308.994 95.5089 309.178 95.3957C309.363 95.2824 309.57 95.197 309.801 95.1392C310.034 95.0793 310.275 95.036 310.524 95.0094C310.823 94.9783 311.067 94.9505 311.253 94.9261C311.44 94.8995 311.575 94.8595 311.659 94.8062C311.746 94.7507 311.789 94.6652 311.789 94.5498V94.5298C311.789 94.2789 311.715 94.0846 311.566 93.947C311.417 93.8093 311.203 93.7405 310.923 93.7405C310.628 93.7405 310.394 93.8049 310.221 93.9337C310.05 94.0624 309.934 94.2145 309.874 94.3899L308.749 94.2301C308.837 93.9192 308.984 93.6595 309.188 93.4508C309.393 93.2398 309.642 93.0822 309.938 92.9778C310.233 92.8713 310.559 92.818 310.917 92.818C311.163 92.818 311.409 92.8469 311.653 92.9046C311.897 92.9623 312.12 93.0578 312.322 93.191C312.524 93.322 312.686 93.5007 312.808 93.7272C312.933 93.9536 312.995 94.2367 312.995 94.5764V98H311.836V97.2973H311.796C311.723 97.4394 311.619 97.5726 311.486 97.6969C311.355 97.8191 311.19 97.9179 310.99 97.9933C310.792 98.0666 310.56 98.1032 310.294 98.1032ZM310.607 97.2174C310.849 97.2174 311.059 97.1696 311.236 97.0742C311.414 96.9765 311.551 96.8477 311.646 96.6878C311.744 96.528 311.793 96.3537 311.793 96.165V95.5622C311.755 95.5933 311.69 95.6221 311.599 95.6488C311.511 95.6754 311.411 95.6987 311.3 95.7187C311.189 95.7387 311.079 95.7565 310.97 95.772C310.861 95.7875 310.767 95.8009 310.687 95.812C310.507 95.8364 310.346 95.8764 310.204 95.9319C310.062 95.9874 309.95 96.0651 309.868 96.165C309.786 96.2627 309.744 96.3892 309.744 96.5446C309.744 96.7667 309.825 96.9343 309.988 97.0475C310.15 97.1608 310.356 97.2174 310.607 97.2174ZM314.773 99.9183C314.609 99.9183 314.457 99.905 314.317 99.8783C314.179 99.8539 314.069 99.825 313.987 99.7917L314.267 98.8526C314.442 98.9036 314.599 98.9281 314.737 98.9258C314.874 98.9236 314.995 98.8803 315.1 98.796C315.206 98.7138 315.296 98.5761 315.369 98.383L315.473 98.1066L313.618 92.8846H314.896L316.075 96.7478H316.129L317.311 92.8846H318.593L316.545 98.6194C316.45 98.8903 316.323 99.1223 316.165 99.3155C316.008 99.5109 315.815 99.6596 315.586 99.7618C315.359 99.8661 315.089 99.9183 314.773 99.9183ZM323.47 94.2367L322.371 94.3566C322.34 94.2456 322.286 94.1412 322.208 94.0436C322.133 93.9459 322.031 93.867 321.902 93.8071C321.773 93.7472 321.615 93.7172 321.429 93.7172C321.178 93.7172 320.967 93.7716 320.796 93.8804C320.627 93.9892 320.544 94.1301 320.546 94.3033C320.544 94.4521 320.599 94.5731 320.71 94.6663C320.823 94.7596 321.009 94.8362 321.269 94.8961L322.142 95.0826C322.626 95.187 322.985 95.3524 323.221 95.5788C323.458 95.8053 323.578 96.1017 323.58 96.468C323.578 96.79 323.484 97.0742 323.297 97.3206C323.113 97.5648 322.857 97.7558 322.528 97.8934C322.199 98.0311 321.822 98.0999 321.396 98.0999C320.77 98.0999 320.266 97.9689 319.884 97.7069C319.502 97.4427 319.274 97.0753 319.201 96.6046L320.377 96.4914C320.43 96.7223 320.543 96.8965 320.716 97.0142C320.889 97.1319 321.115 97.1907 321.392 97.1907C321.679 97.1907 321.909 97.1319 322.082 97.0142C322.257 96.8965 322.345 96.7511 322.345 96.5779C322.345 96.4314 322.288 96.3104 322.175 96.2149C322.064 96.1195 321.891 96.0462 321.655 95.9951L320.783 95.812C320.292 95.7098 319.929 95.5378 319.694 95.2958C319.458 95.0515 319.342 94.7429 319.344 94.3699C319.342 94.0547 319.427 93.7816 319.601 93.5507C319.776 93.3175 320.019 93.1377 320.33 93.0111C320.643 92.8824 321.004 92.818 321.412 92.818C322.012 92.818 322.484 92.9457 322.828 93.201C323.174 93.4563 323.388 93.8016 323.47 94.2367Z" fill="#64748B"/>
<path d="M295.677 124V122.215L300.413 117.572C300.866 117.115 301.243 116.709 301.545 116.354C301.847 115.998 302.074 115.654 302.225 115.321C302.376 114.988 302.451 114.633 302.451 114.255C302.451 113.825 302.353 113.456 302.158 113.15C301.963 112.839 301.694 112.599 301.352 112.43C301.01 112.262 300.622 112.177 300.186 112.177C299.738 112.177 299.345 112.271 299.007 112.457C298.67 112.639 298.408 112.899 298.221 113.236C298.039 113.574 297.948 113.976 297.948 114.442H295.597C295.597 113.576 295.795 112.823 296.19 112.184C296.585 111.545 297.129 111.049 297.822 110.699C298.519 110.348 299.318 110.172 300.22 110.172C301.134 110.172 301.938 110.343 302.631 110.685C303.324 111.027 303.861 111.496 304.243 112.091C304.629 112.686 304.822 113.365 304.822 114.129C304.822 114.64 304.725 115.141 304.529 115.634C304.334 116.127 303.99 116.673 303.497 117.273C303.008 117.872 302.322 118.598 301.439 119.451L299.087 121.842V121.935H305.029V124H295.677ZM308.463 124.147C308.059 124.147 307.713 124.004 307.424 123.72C307.136 123.436 306.994 123.09 306.998 122.681C306.994 122.282 307.136 121.94 307.424 121.655C307.713 121.371 308.059 121.229 308.463 121.229C308.854 121.229 309.194 121.371 309.483 121.655C309.776 121.94 309.924 122.282 309.929 122.681C309.924 122.952 309.853 123.198 309.716 123.421C309.582 123.643 309.405 123.82 309.183 123.953C308.965 124.082 308.725 124.147 308.463 124.147ZM316.481 124.186C315.828 124.182 315.191 124.069 314.569 123.847C313.948 123.62 313.388 123.254 312.891 122.748C312.393 122.237 311.998 121.56 311.705 120.716C311.412 119.868 311.268 118.818 311.272 117.566C311.272 116.398 311.396 115.357 311.645 114.442C311.894 113.527 312.251 112.755 312.718 112.124C313.184 111.489 313.745 111.005 314.403 110.672C315.064 110.339 315.804 110.172 316.621 110.172C317.478 110.172 318.237 110.341 318.899 110.679C319.565 111.016 320.102 111.478 320.511 112.064C320.919 112.646 321.172 113.303 321.27 114.036H318.839C318.714 113.512 318.459 113.094 318.073 112.783C317.691 112.468 317.207 112.311 316.621 112.311C315.675 112.311 314.947 112.721 314.436 113.543C313.93 114.364 313.674 115.492 313.67 116.926H313.763C313.981 116.536 314.263 116.2 314.609 115.921C314.955 115.641 315.346 115.425 315.781 115.275C316.221 115.119 316.685 115.041 317.174 115.041C317.973 115.041 318.69 115.232 319.325 115.614C319.964 115.996 320.471 116.522 320.844 117.193C321.217 117.859 321.401 118.623 321.396 119.484C321.401 120.381 321.197 121.187 320.784 121.902C320.371 122.612 319.796 123.172 319.058 123.58C318.321 123.989 317.462 124.191 316.481 124.186ZM316.467 122.188C316.951 122.188 317.384 122.071 317.766 121.835C318.148 121.6 318.45 121.282 318.672 120.883C318.894 120.483 319.003 120.035 318.999 119.537C319.003 119.049 318.896 118.607 318.679 118.212C318.466 117.817 318.17 117.504 317.793 117.273C317.416 117.042 316.985 116.926 316.501 116.926C316.141 116.926 315.806 116.995 315.495 117.133C315.184 117.27 314.913 117.461 314.682 117.706C314.452 117.945 314.269 118.225 314.136 118.545C314.007 118.86 313.941 119.198 313.936 119.557C313.941 120.032 314.052 120.47 314.269 120.869C314.487 121.269 314.787 121.589 315.169 121.829C315.551 122.068 315.983 122.188 316.467 122.188ZM328.015 124.186C327.127 124.186 326.332 124.02 325.63 123.687C324.929 123.349 324.372 122.888 323.959 122.302C323.55 121.715 323.333 121.045 323.306 120.29H325.704C325.748 120.849 325.99 121.307 326.43 121.662C326.869 122.013 327.398 122.188 328.015 122.188C328.499 122.188 328.93 122.077 329.307 121.855C329.685 121.633 329.982 121.325 330.2 120.929C330.417 120.534 330.524 120.084 330.519 119.577C330.524 119.062 330.415 118.605 330.193 118.205C329.971 117.806 329.667 117.493 329.28 117.266C328.894 117.035 328.45 116.92 327.948 116.92C327.54 116.915 327.138 116.991 326.743 117.146C326.348 117.302 326.035 117.506 325.804 117.759L323.572 117.393L324.285 110.359H332.198V112.424H326.33L325.937 116.04H326.017C326.27 115.743 326.627 115.497 327.089 115.301C327.551 115.101 328.057 115.001 328.608 115.001C329.434 115.001 330.171 115.197 330.819 115.588C331.467 115.974 331.978 116.507 332.351 117.186C332.724 117.866 332.911 118.643 332.911 119.517C332.911 120.419 332.702 121.222 332.284 121.929C331.871 122.63 331.296 123.183 330.559 123.587C329.827 123.987 328.979 124.186 328.015 124.186ZM334.9 124V110.359H337.371V116.627H337.538L342.859 110.359H345.877L340.602 116.48L345.923 124H342.953L338.883 118.152L337.371 119.937V124H334.9Z" fill="#1E293B"/>
<path d="M309.046 142.668V141.835L311.993 137.179H312.65V138.405H312.233L310.125 141.742V141.795H314.165V142.668H309.046ZM312.28 144V142.415L312.286 142.035V137.179H313.262V144H312.28ZM315.738 144.063C315.556 144.063 315.4 143.999 315.269 143.87C315.138 143.739 315.072 143.581 315.072 143.397C315.072 143.215 315.138 143.06 315.269 142.931C315.4 142.8 315.556 142.734 315.738 142.734C315.92 142.734 316.077 142.8 316.208 142.931C316.339 143.06 316.404 143.215 316.404 143.397C316.404 143.519 316.373 143.631 316.311 143.734C316.251 143.833 316.171 143.913 316.071 143.973C315.972 144.033 315.861 144.063 315.738 144.063ZM319.859 144.093C319.555 144.089 319.255 144.033 318.96 143.927C318.667 143.82 318.4 143.643 318.16 143.394C317.921 143.145 317.729 142.811 317.584 142.391C317.442 141.972 317.371 141.448 317.371 140.82C317.371 140.225 317.43 139.696 317.548 139.234C317.667 138.772 317.84 138.383 318.064 138.065C318.288 137.746 318.559 137.503 318.876 137.336C319.194 137.169 319.55 137.086 319.945 137.086C320.352 137.086 320.713 137.166 321.028 137.326C321.343 137.486 321.598 137.707 321.794 137.989C321.991 138.271 322.117 138.592 322.17 138.951H321.154C321.086 138.667 320.949 138.435 320.745 138.255C320.54 138.075 320.274 137.985 319.945 137.985C319.446 137.985 319.056 138.203 318.776 138.638C318.499 139.073 318.359 139.678 318.357 140.453H318.407C318.525 140.26 318.669 140.096 318.84 139.96C319.013 139.823 319.206 139.717 319.419 139.644C319.635 139.568 319.861 139.531 320.099 139.531C320.494 139.531 320.851 139.627 321.171 139.82C321.493 140.011 321.749 140.276 321.94 140.613C322.131 140.951 322.227 141.337 322.227 141.772C322.227 142.207 322.128 142.601 321.93 142.954C321.735 143.307 321.46 143.587 321.104 143.794C320.749 143.998 320.334 144.098 319.859 144.093ZM319.856 143.227C320.118 143.227 320.352 143.163 320.558 143.034C320.765 142.905 320.928 142.732 321.048 142.515C321.168 142.297 321.228 142.054 321.228 141.785C321.228 141.523 321.169 141.285 321.051 141.069C320.936 140.854 320.776 140.683 320.572 140.556C320.37 140.43 320.139 140.367 319.879 140.367C319.681 140.367 319.498 140.404 319.329 140.48C319.163 140.555 319.016 140.66 318.89 140.793C318.763 140.926 318.663 141.079 318.59 141.252C318.519 141.423 318.483 141.604 318.483 141.795C318.483 142.051 318.542 142.287 318.66 142.505C318.78 142.722 318.943 142.898 319.149 143.031C319.358 143.162 319.594 143.227 319.856 143.227ZM327 142.721V142.361C327 142.104 327.053 141.869 327.16 141.655C327.269 141.44 327.426 141.268 327.633 141.139C327.841 141.008 328.093 140.943 328.389 140.943C328.691 140.943 328.944 141.007 329.148 141.136C329.352 141.265 329.507 141.437 329.611 141.652C329.717 141.867 329.771 142.104 329.771 142.361V142.721C329.771 142.979 329.717 143.215 329.611 143.431C329.504 143.644 329.348 143.816 329.141 143.947C328.937 144.075 328.686 144.14 328.389 144.14C328.089 144.14 327.836 144.075 327.629 143.947C327.423 143.816 327.266 143.644 327.16 143.431C327.053 143.215 327 142.979 327 142.721ZM327.776 142.361V142.721C327.776 142.912 327.821 143.085 327.912 143.241C328.003 143.396 328.162 143.474 328.389 143.474C328.613 143.474 328.769 143.396 328.858 143.241C328.947 143.085 328.991 142.912 328.991 142.721V142.361C328.991 142.171 328.948 141.997 328.862 141.842C328.777 141.687 328.62 141.609 328.389 141.609C328.167 141.609 328.009 141.687 327.916 141.842C327.823 141.997 327.776 142.171 327.776 142.361ZM323.57 138.818V138.458C323.57 138.201 323.623 137.964 323.73 137.749C323.838 137.534 323.996 137.362 324.202 137.233C324.411 137.104 324.663 137.04 324.958 137.04C325.26 137.04 325.513 137.104 325.718 137.233C325.922 137.362 326.076 137.534 326.181 137.749C326.285 137.964 326.337 138.201 326.337 138.458V138.818C326.337 139.076 326.284 139.312 326.177 139.527C326.073 139.74 325.918 139.913 325.711 140.044C325.507 140.172 325.256 140.237 324.958 140.237C324.656 140.237 324.402 140.172 324.196 140.044C323.992 139.913 323.836 139.74 323.73 139.527C323.623 139.312 323.57 139.076 323.57 138.818ZM324.349 138.458V138.818C324.349 139.009 324.393 139.182 324.482 139.338C324.573 139.493 324.732 139.571 324.958 139.571C325.18 139.571 325.336 139.493 325.425 139.338C325.516 139.182 325.561 139.009 325.561 138.818V138.458C325.561 138.267 325.518 138.094 325.431 137.939C325.345 137.783 325.187 137.706 324.958 137.706C324.736 137.706 324.579 137.783 324.486 137.939C324.395 138.094 324.349 138.267 324.349 138.458ZM323.886 144L328.575 137.179H329.371L324.682 144H323.886Z" fill="#E53E3E"/>
<g clip-path="url(#clip1_6115_29407)">
<path d="M303.452 142.597L299.74 138.884L297.786 140.838L294.855 137.908" stroke="#E53E3E" stroke-width="0.78152" stroke-linecap="round" stroke-linejoin="round"/>
<path d="M301.109 142.597H303.454V140.252" stroke="#E53E3E" stroke-width="0.78152" stroke-linecap="round" stroke-linejoin="round"/>
</g>
<path d="M390.312 91.1795V98H389.076V92.3817H389.036L387.441 93.4008V92.2685L389.136 91.1795H390.312ZM396.282 98.0899C395.88 98.0899 395.52 97.9867 395.203 97.7802C394.885 97.5737 394.634 97.274 394.45 96.881C394.266 96.488 394.173 96.0107 394.173 95.449C394.173 94.8806 394.267 94.401 394.453 94.0103C394.642 93.6173 394.896 93.3209 395.216 93.1211C395.536 92.919 395.892 92.818 396.285 92.818C396.585 92.818 396.831 92.8691 397.024 92.9712C397.217 93.0711 397.371 93.1921 397.484 93.3342C397.597 93.4741 397.685 93.6062 397.747 93.7305H397.797V91.1795H399.006V98H397.82V97.1941H397.747C397.685 97.3184 397.595 97.4505 397.477 97.5904C397.359 97.728 397.204 97.8457 397.011 97.9434C396.818 98.0411 396.575 98.0899 396.282 98.0899ZM396.618 97.1008C396.873 97.1008 397.091 97.032 397.271 96.8943C397.451 96.7545 397.587 96.5602 397.68 96.3115C397.774 96.0629 397.82 95.7731 397.82 95.4423C397.82 95.1115 397.774 94.824 397.68 94.5797C397.589 94.3355 397.454 94.1457 397.274 94.0103C397.096 93.8748 396.878 93.8071 396.618 93.8071C396.349 93.8071 396.125 93.877 395.945 94.0169C395.765 94.1568 395.63 94.3499 395.539 94.5964C395.448 94.8428 395.402 95.1248 395.402 95.4423C395.402 95.762 395.448 96.0473 395.539 96.2982C395.632 96.5469 395.769 96.7434 395.949 96.8877C396.131 97.0298 396.354 97.1008 396.618 97.1008ZM401.762 98.1032C401.438 98.1032 401.146 98.0455 400.887 97.9301C400.629 97.8124 400.425 97.6392 400.274 97.4105C400.125 97.1818 400.051 96.8999 400.051 96.5646C400.051 96.276 400.104 96.0373 400.211 95.8486C400.317 95.6599 400.463 95.5089 400.647 95.3957C400.831 95.2824 401.039 95.197 401.27 95.1392C401.503 95.0793 401.744 95.036 401.992 95.0094C402.292 94.9783 402.535 94.9505 402.722 94.9261C402.908 94.8995 403.044 94.8595 403.128 94.8062C403.215 94.7507 403.258 94.6652 403.258 94.5498V94.5298C403.258 94.2789 403.183 94.0846 403.035 93.947C402.886 93.8093 402.672 93.7405 402.392 93.7405C402.097 93.7405 401.862 93.8049 401.689 93.9337C401.518 94.0624 401.403 94.2145 401.343 94.3899L400.217 94.2301C400.306 93.9192 400.453 93.6595 400.657 93.4508C400.861 93.2398 401.111 93.0822 401.406 92.9778C401.701 92.8713 402.028 92.818 402.385 92.818C402.632 92.818 402.877 92.8469 403.121 92.9046C403.365 92.9623 403.589 93.0578 403.791 93.191C403.993 93.322 404.155 93.5007 404.277 93.7272C404.401 93.9536 404.463 94.2367 404.463 94.5764V98H403.304V97.2973H403.264C403.191 97.4394 403.088 97.5726 402.955 97.6969C402.824 97.8191 402.658 97.9179 402.459 97.9933C402.261 98.0666 402.029 98.1032 401.762 98.1032ZM402.076 97.2174C402.318 97.2174 402.527 97.1696 402.705 97.0742C402.883 96.9765 403.019 96.8477 403.115 96.6878C403.212 96.528 403.261 96.3537 403.261 96.165V95.5622C403.223 95.5933 403.159 95.6221 403.068 95.6488C402.979 95.6754 402.879 95.6987 402.768 95.7187C402.657 95.7387 402.547 95.7565 402.439 95.772C402.33 95.7875 402.235 95.8009 402.155 95.812C401.976 95.8364 401.815 95.8764 401.673 95.9319C401.53 95.9874 401.418 96.0651 401.336 96.165C401.254 96.2627 401.213 96.3892 401.213 96.5446C401.213 96.7667 401.294 96.9343 401.456 97.0475C401.618 97.1608 401.825 97.2174 402.076 97.2174ZM406.242 99.9183C406.077 99.9183 405.925 99.905 405.786 99.8783C405.648 99.8539 405.538 99.825 405.456 99.7917L405.736 98.8526C405.911 98.9036 406.067 98.9281 406.205 98.9258C406.343 98.9236 406.464 98.8803 406.568 98.796C406.675 98.7138 406.765 98.5761 406.838 98.383L406.941 98.1066L405.086 92.8846H406.365L407.544 96.7478H407.597L408.78 92.8846H410.062L408.014 98.6194C407.918 98.8903 407.792 99.1223 407.634 99.3155C407.476 99.5109 407.283 99.6596 407.054 99.7618C406.828 99.8661 406.557 99.9183 406.242 99.9183Z" fill="#64748B"/>
<path d="M393.692 110.359V124H391.221V112.763H391.141L387.951 114.802V112.537L391.341 110.359H393.692ZM397.542 124.147C397.138 124.147 396.791 124.004 396.503 123.72C396.214 123.436 396.072 123.09 396.076 122.681C396.072 122.282 396.214 121.94 396.503 121.655C396.791 121.371 397.138 121.229 397.542 121.229C397.932 121.229 398.272 121.371 398.561 121.655C398.854 121.94 399.003 122.282 399.007 122.681C399.003 122.952 398.932 123.198 398.794 123.421C398.661 123.643 398.483 123.82 398.261 123.953C398.043 124.082 397.804 124.147 397.542 124.147ZM405.532 124.186C404.573 124.186 403.721 124.022 402.975 123.694C402.233 123.365 401.647 122.908 401.216 122.322C400.785 121.735 400.557 121.058 400.53 120.29H403.035C403.057 120.659 403.179 120.98 403.401 121.256C403.623 121.527 403.918 121.738 404.287 121.889C404.655 122.04 405.068 122.115 405.526 122.115C406.014 122.115 406.447 122.031 406.824 121.862C407.202 121.689 407.497 121.449 407.71 121.143C407.924 120.836 408.028 120.483 408.023 120.084C408.028 119.671 407.921 119.306 407.704 118.991C407.486 118.676 407.171 118.429 406.758 118.252C406.349 118.074 405.856 117.985 405.279 117.985H404.074V116.08H405.279C405.754 116.08 406.17 115.998 406.525 115.834C406.884 115.67 407.166 115.439 407.371 115.141C407.575 114.839 407.675 114.491 407.67 114.096C407.675 113.709 407.588 113.374 407.411 113.09C407.237 112.801 406.991 112.577 406.671 112.417C406.356 112.257 405.985 112.177 405.559 112.177C405.142 112.177 404.755 112.253 404.4 112.404C404.045 112.555 403.758 112.77 403.541 113.05C403.323 113.325 403.208 113.654 403.194 114.036H400.817C400.834 113.272 401.054 112.601 401.476 112.024C401.902 111.442 402.471 110.989 403.181 110.665C403.892 110.337 404.689 110.172 405.572 110.172C406.483 110.172 407.273 110.343 407.943 110.685C408.618 111.023 409.14 111.478 409.509 112.051C409.877 112.624 410.062 113.256 410.062 113.949C410.066 114.717 409.84 115.361 409.382 115.881C408.929 116.4 408.334 116.74 407.597 116.9V117.006C408.556 117.139 409.291 117.495 409.802 118.072C410.317 118.645 410.572 119.358 410.568 120.21C410.568 120.974 410.35 121.658 409.915 122.262C409.484 122.861 408.889 123.332 408.13 123.674C407.375 124.016 406.509 124.186 405.532 124.186ZM412.233 121.469V119.504L418.021 110.359H419.659V113.156H418.66L414.764 119.331V119.437H422.843V121.469H412.233ZM418.74 124V120.869L418.767 119.99V110.359H421.098V124H418.74ZM424.729 124V110.359H427.2V116.627H427.367L432.689 110.359H435.706L430.431 116.48L435.753 124H432.782L428.712 118.152L427.2 119.937V124H424.729Z" fill="#1E293B"/>
<path d="M401.513 142.668V141.835L404.46 137.179H405.116V138.405H404.7L402.592 141.742V141.795H406.632V142.668H401.513ZM404.747 144V142.415L404.753 142.035V137.179H405.729V144H404.747ZM408.205 144.063C408.023 144.063 407.867 143.999 407.736 143.87C407.605 143.739 407.539 143.581 407.539 143.397C407.539 143.215 407.605 143.06 407.736 142.931C407.867 142.8 408.023 142.734 408.205 142.734C408.387 142.734 408.544 142.8 408.675 142.931C408.806 143.06 408.871 143.215 408.871 143.397C408.871 143.519 408.84 143.631 408.778 143.734C408.718 143.833 408.638 143.913 408.538 143.973C408.438 144.033 408.327 144.063 408.205 144.063ZM412.326 144.093C412.021 144.089 411.722 144.033 411.426 143.927C411.133 143.82 410.867 143.643 410.627 143.394C410.387 143.145 410.195 142.811 410.051 142.391C409.909 141.972 409.838 141.448 409.838 140.82C409.838 140.225 409.897 139.696 410.014 139.234C410.134 138.772 410.306 138.383 410.531 138.065C410.755 137.746 411.026 137.503 411.343 137.336C411.661 137.169 412.017 137.086 412.412 137.086C412.819 137.086 413.179 137.166 413.495 137.326C413.81 137.486 414.065 137.707 414.261 137.989C414.458 138.271 414.584 138.592 414.637 138.951H413.621C413.552 138.667 413.416 138.435 413.212 138.255C413.007 138.075 412.741 137.985 412.412 137.985C411.913 137.985 411.523 138.203 411.243 138.638C410.966 139.073 410.826 139.678 410.824 140.453H410.874C410.991 140.26 411.136 140.096 411.307 139.96C411.48 139.823 411.673 139.717 411.886 139.644C412.101 139.568 412.328 139.531 412.565 139.531C412.961 139.531 413.318 139.627 413.638 139.82C413.96 140.011 414.216 140.276 414.407 140.613C414.598 140.951 414.694 141.337 414.694 141.772C414.694 142.207 414.595 142.601 414.397 142.954C414.202 143.307 413.926 143.587 413.571 143.794C413.216 143.998 412.801 144.098 412.326 144.093ZM412.322 143.227C412.584 143.227 412.819 143.163 413.025 143.034C413.232 142.905 413.395 142.732 413.515 142.515C413.634 142.297 413.694 142.054 413.694 141.785C413.694 141.523 413.636 141.285 413.518 141.069C413.402 140.854 413.243 140.683 413.038 140.556C412.836 140.43 412.605 140.367 412.346 140.367C412.148 140.367 411.965 140.404 411.796 140.48C411.63 140.555 411.483 140.66 411.357 140.793C411.23 140.926 411.13 141.079 411.057 141.252C410.986 141.423 410.95 141.604 410.95 141.795C410.95 142.051 411.009 142.287 411.127 142.505C411.247 142.722 411.41 142.898 411.616 143.031C411.825 143.162 412.06 143.227 412.322 143.227ZM419.467 142.721V142.361C419.467 142.104 419.52 141.869 419.627 141.655C419.735 141.44 419.893 141.268 420.1 141.139C420.308 141.008 420.56 140.943 420.855 140.943C421.157 140.943 421.411 141.007 421.615 141.136C421.819 141.265 421.973 141.437 422.078 141.652C422.184 141.867 422.238 142.104 422.238 142.361V142.721C422.238 142.979 422.184 143.215 422.078 143.431C421.971 143.644 421.815 143.816 421.608 143.947C421.404 144.075 421.153 144.14 420.855 144.14C420.556 144.14 420.303 144.075 420.096 143.947C419.89 143.816 419.733 143.644 419.627 143.431C419.52 143.215 419.467 142.979 419.467 142.721ZM420.243 142.361V142.721C420.243 142.912 420.288 143.085 420.379 143.241C420.47 143.396 420.629 143.474 420.855 143.474C421.08 143.474 421.236 143.396 421.325 143.241C421.414 143.085 421.458 142.912 421.458 142.721V142.361C421.458 142.171 421.415 141.997 421.328 141.842C421.244 141.687 421.086 141.609 420.855 141.609C420.633 141.609 420.476 141.687 420.383 141.842C420.289 141.997 420.243 142.171 420.243 142.361ZM416.036 138.818V138.458C416.036 138.201 416.09 137.964 416.196 137.749C416.305 137.534 416.463 137.362 416.669 137.233C416.878 137.104 417.13 137.04 417.425 137.04C417.727 137.04 417.98 137.104 418.185 137.233C418.389 137.362 418.543 137.534 418.647 137.749C418.752 137.964 418.804 138.201 418.804 138.458V138.818C418.804 139.076 418.751 139.312 418.644 139.527C418.54 139.74 418.384 139.913 418.178 140.044C417.974 140.172 417.723 140.237 417.425 140.237C417.123 140.237 416.869 140.172 416.663 140.044C416.458 139.913 416.303 139.74 416.196 139.527C416.09 139.312 416.036 139.076 416.036 138.818ZM416.816 138.458V138.818C416.816 139.009 416.86 139.182 416.949 139.338C417.04 139.493 417.199 139.571 417.425 139.571C417.647 139.571 417.803 139.493 417.891 139.338C417.983 139.182 418.028 139.009 418.028 138.818V138.458C418.028 138.267 417.985 138.094 417.898 137.939C417.812 137.783 417.654 137.706 417.425 137.706C417.203 137.706 417.046 137.783 416.952 137.939C416.861 138.094 416.816 138.267 416.816 138.458ZM416.353 144L421.042 137.179H421.838L417.149 144H416.353Z" fill="#38A169"/>
<g clip-path="url(#clip2_6115_29407)">
<path d="M395.919 137.908L392.207 141.62L390.253 139.666L387.322 142.597" stroke="#38A169" stroke-width="0.78152" stroke-linecap="round" stroke-linejoin="round"/>
<path d="M393.574 137.908H395.919V140.252" stroke="#38A169" stroke-width="0.78152" stroke-linecap="round" stroke-linejoin="round"/>
</g>
<path d="M205.031 318.636C204.504 318.633 204.055 318.495 203.682 318.219C203.309 317.944 203.024 317.543 202.826 317.017C202.628 316.491 202.53 315.857 202.53 315.115C202.53 314.376 202.628 313.744 202.826 313.22C203.026 312.696 203.312 312.297 203.685 312.022C204.06 311.746 204.509 311.609 205.031 311.609C205.552 311.609 206 311.747 206.373 312.025C206.746 312.3 207.031 312.7 207.229 313.224C207.428 313.746 207.528 314.376 207.528 315.115C207.528 315.859 207.43 316.494 207.232 317.02C207.034 317.544 206.749 317.945 206.376 318.223C206.003 318.498 205.555 318.636 205.031 318.636ZM205.031 317.746C205.492 317.746 205.853 317.521 206.113 317.07C206.375 316.62 206.506 315.968 206.506 315.115C206.506 314.549 206.446 314.071 206.326 313.68C206.208 313.287 206.039 312.99 205.817 312.787C205.597 312.583 205.335 312.481 205.031 312.481C204.571 312.481 204.21 312.708 203.948 313.16C203.686 313.613 203.554 314.265 203.552 315.115C203.552 315.684 203.611 316.164 203.728 316.557C203.848 316.948 204.018 317.245 204.238 317.447C204.458 317.646 204.722 317.746 205.031 317.746ZM211.297 311.702V318.522H210.265V312.734H210.225L208.593 313.8V312.814L210.295 311.702H211.297ZM215.718 311.702H216.967L219.138 317.004H219.218L221.389 311.702H222.638V318.522H221.659V313.587H221.596L219.584 318.512H218.772L216.76 313.583H216.697V318.522H215.718V311.702ZM225.543 318.636C225.219 318.636 224.926 318.576 224.664 318.456C224.402 318.334 224.194 318.157 224.041 317.926C223.89 317.695 223.815 317.412 223.815 317.077C223.815 316.788 223.87 316.551 223.981 316.364C224.092 316.178 224.242 316.03 224.431 315.921C224.619 315.813 224.83 315.73 225.063 315.675C225.297 315.619 225.534 315.577 225.776 315.548C226.083 315.513 226.331 315.484 226.522 315.462C226.713 315.437 226.852 315.398 226.938 315.345C227.025 315.292 227.068 315.205 227.068 315.085V315.062C227.068 314.771 226.986 314.546 226.822 314.386C226.66 314.226 226.418 314.146 226.096 314.146C225.761 314.146 225.496 314.221 225.303 314.369C225.112 314.516 224.98 314.679 224.907 314.859L223.971 314.646C224.082 314.335 224.244 314.084 224.457 313.893C224.673 313.7 224.92 313.56 225.2 313.474C225.48 313.385 225.774 313.34 226.083 313.34C226.287 313.34 226.503 313.365 226.732 313.414C226.963 313.46 227.178 313.547 227.378 313.673C227.58 313.8 227.745 313.981 227.874 314.216C228.003 314.449 228.067 314.752 228.067 315.125V318.522H227.095V317.823H227.055C226.991 317.952 226.894 318.078 226.765 318.203C226.636 318.327 226.471 318.43 226.269 318.512C226.067 318.594 225.825 318.636 225.543 318.636ZM225.759 317.836C226.035 317.836 226.27 317.782 226.466 317.673C226.663 317.564 226.813 317.422 226.915 317.247C227.019 317.069 227.072 316.879 227.072 316.677V316.018C227.036 316.053 226.967 316.087 226.865 316.118C226.765 316.147 226.651 316.172 226.522 316.194C226.393 316.214 226.268 316.233 226.146 316.251C226.024 316.267 225.922 316.28 225.839 316.291C225.646 316.315 225.47 316.357 225.31 316.414C225.152 316.472 225.026 316.555 224.93 316.664C224.837 316.771 224.79 316.913 224.79 317.09C224.79 317.337 224.881 317.523 225.063 317.65C225.245 317.774 225.478 317.836 225.759 317.836ZM229.394 318.522V313.407H230.356V314.22H230.409C230.503 313.944 230.667 313.728 230.902 313.57C231.14 313.41 231.409 313.33 231.708 313.33C231.77 313.33 231.844 313.333 231.928 313.337C232.015 313.341 232.082 313.347 232.131 313.354V314.306C232.091 314.295 232.02 314.283 231.918 314.269C231.816 314.254 231.714 314.246 231.612 314.246C231.376 314.246 231.167 314.296 230.982 314.396C230.8 314.494 230.656 314.63 230.549 314.806C230.443 314.979 230.389 315.176 230.389 315.398V318.522H229.394ZM234.965 318.626C234.469 318.626 234.043 318.513 233.686 318.289C233.33 318.063 233.057 317.751 232.866 317.353C232.675 316.956 232.58 316.501 232.58 315.988C232.58 315.468 232.678 315.01 232.873 314.613C233.068 314.213 233.344 313.901 233.699 313.677C234.054 313.452 234.473 313.34 234.955 313.34C235.343 313.34 235.689 313.412 235.994 313.557C236.298 313.699 236.543 313.899 236.73 314.156C236.918 314.414 237.03 314.715 237.066 315.059H236.097C236.044 314.819 235.921 314.613 235.731 314.439C235.542 314.266 235.289 314.18 234.971 314.18C234.694 314.18 234.451 314.253 234.242 314.399C234.035 314.544 233.874 314.75 233.759 315.019C233.644 315.285 233.586 315.601 233.586 315.965C233.586 316.338 233.642 316.66 233.756 316.93C233.869 317.201 234.029 317.411 234.235 317.56C234.444 317.709 234.689 317.783 234.971 317.783C235.16 317.783 235.331 317.749 235.484 317.68C235.639 317.609 235.769 317.508 235.874 317.377C235.98 317.246 236.055 317.088 236.097 316.904H237.066C237.03 317.235 236.923 317.53 236.743 317.79C236.563 318.049 236.322 318.254 236.02 318.402C235.721 318.551 235.369 318.626 234.965 318.626ZM239.127 315.485V318.522H238.131V311.702H239.113V314.24H239.177C239.296 313.964 239.48 313.746 239.726 313.583C239.973 313.421 240.294 313.34 240.692 313.34C241.043 313.34 241.349 313.412 241.611 313.557C241.875 313.701 242.08 313.916 242.224 314.203C242.37 314.487 242.444 314.842 242.444 315.269V318.522H241.448V315.388C241.448 315.013 241.351 314.722 241.158 314.516C240.965 314.307 240.696 314.203 240.352 314.203C240.117 314.203 239.906 314.253 239.719 314.353C239.535 314.453 239.39 314.599 239.283 314.792C239.179 314.983 239.127 315.214 239.127 315.485ZM246.241 318.522V317.776L248.549 315.385C248.795 315.125 248.999 314.898 249.158 314.702C249.321 314.505 249.442 314.317 249.521 314.14C249.601 313.962 249.641 313.773 249.641 313.573C249.641 313.347 249.588 313.152 249.481 312.987C249.375 312.821 249.23 312.693 249.045 312.604C248.861 312.513 248.653 312.468 248.422 312.468C248.178 312.468 247.965 312.518 247.783 312.618C247.601 312.718 247.461 312.859 247.363 313.041C247.266 313.223 247.217 313.436 247.217 313.68H246.234C246.234 313.265 246.33 312.902 246.521 312.591C246.712 312.28 246.974 312.039 247.307 311.868C247.64 311.695 248.018 311.609 248.442 311.609C248.871 311.609 249.248 311.694 249.575 311.865C249.903 312.034 250.16 312.265 250.344 312.558C250.528 312.849 250.62 313.177 250.62 313.543C250.62 313.797 250.573 314.044 250.477 314.286C250.384 314.528 250.221 314.798 249.988 315.095C249.755 315.391 249.43 315.749 249.015 316.171L247.66 317.59V317.64H250.73V318.522H246.241ZM254.367 318.636C253.841 318.633 253.391 318.495 253.018 318.219C252.645 317.944 252.36 317.543 252.162 317.017C251.965 316.491 251.866 315.857 251.866 315.115C251.866 314.376 251.965 313.744 252.162 313.22C252.362 312.696 252.649 312.297 253.022 312.022C253.397 311.746 253.845 311.609 254.367 311.609C254.889 311.609 255.336 311.747 255.709 312.025C256.082 312.3 256.368 312.7 256.565 313.224C256.765 313.746 256.865 314.376 256.865 315.115C256.865 315.859 256.766 316.494 256.568 317.02C256.371 317.544 256.086 317.945 255.713 318.223C255.34 318.498 254.891 318.636 254.367 318.636ZM254.367 317.746C254.829 317.746 255.19 317.521 255.449 317.07C255.711 316.62 255.842 315.968 255.842 315.115C255.842 314.549 255.782 314.071 255.663 313.68C255.545 313.287 255.375 312.99 255.153 312.787C254.933 312.583 254.671 312.481 254.367 312.481C253.908 312.481 253.547 312.708 253.285 313.16C253.023 313.613 252.891 314.265 252.888 315.115C252.888 315.684 252.947 316.164 253.065 316.557C253.185 316.948 253.355 317.245 253.574 317.447C253.794 317.646 254.058 317.746 254.367 317.746ZM258.046 318.522V317.776L260.354 315.385C260.601 315.125 260.804 314.898 260.964 314.702C261.126 314.505 261.247 314.317 261.327 314.14C261.407 313.962 261.447 313.773 261.447 313.573C261.447 313.347 261.393 313.152 261.287 312.987C261.18 312.821 261.035 312.693 260.85 312.604C260.666 312.513 260.459 312.468 260.228 312.468C259.983 312.468 259.77 312.518 259.588 312.618C259.406 312.718 259.266 312.859 259.169 313.041C259.071 313.223 259.022 313.436 259.022 313.68H258.04C258.04 313.265 258.135 312.902 258.326 312.591C258.517 312.28 258.779 312.039 259.112 311.868C259.445 311.695 259.824 311.609 260.248 311.609C260.676 311.609 261.054 311.694 261.38 311.865C261.709 312.034 261.965 312.265 262.149 312.558C262.334 312.849 262.426 313.177 262.426 313.543C262.426 313.797 262.378 314.044 262.282 314.286C262.189 314.528 262.026 314.798 261.793 315.095C261.56 315.391 261.236 315.749 260.82 316.171L259.465 317.59V317.64H262.536V318.522H258.046ZM266.385 311.702V318.522H265.353V312.734H265.313L263.681 313.8V312.814L265.383 311.702H266.385Z" fill="#64748B"/>
<path d="M384.781 318.616C384.323 318.616 383.915 318.537 383.555 318.379C383.198 318.221 382.915 318.003 382.706 317.723C382.499 317.441 382.388 317.115 382.373 316.744H383.419C383.432 316.946 383.5 317.121 383.622 317.27C383.746 317.417 383.908 317.53 384.108 317.61C384.308 317.69 384.53 317.73 384.774 317.73C385.043 317.73 385.28 317.683 385.487 317.59C385.695 317.497 385.859 317.367 385.976 317.2C386.094 317.031 386.153 316.837 386.153 316.617C386.153 316.389 386.094 316.188 385.976 316.015C385.861 315.839 385.691 315.702 385.467 315.602C385.245 315.502 384.976 315.452 384.661 315.452H384.085V314.613H384.661C384.914 314.613 385.136 314.567 385.327 314.476C385.52 314.385 385.671 314.258 385.78 314.096C385.889 313.932 385.943 313.74 385.943 313.52C385.943 313.309 385.895 313.126 385.8 312.971C385.706 312.813 385.573 312.69 385.4 312.601C385.229 312.512 385.027 312.468 384.794 312.468C384.572 312.468 384.364 312.509 384.171 312.591C383.98 312.671 383.825 312.786 383.705 312.937C383.585 313.086 383.521 313.265 383.512 313.474H382.516C382.527 313.105 382.636 312.781 382.842 312.501C383.051 312.221 383.326 312.003 383.668 311.845C384.01 311.687 384.39 311.609 384.807 311.609C385.245 311.609 385.622 311.694 385.94 311.865C386.259 312.034 386.506 312.259 386.679 312.541C386.854 312.823 386.941 313.132 386.939 313.467C386.941 313.849 386.834 314.173 386.619 314.439C386.406 314.706 386.122 314.884 385.766 314.976V315.029C386.219 315.098 386.57 315.277 386.819 315.568C387.07 315.859 387.194 316.22 387.192 316.651C387.194 317.026 387.09 317.362 386.879 317.66C386.67 317.957 386.385 318.192 386.023 318.362C385.661 318.531 385.247 318.616 384.781 318.616ZM391.038 311.702V318.522H390.006V312.734H389.966L388.334 313.8V312.814L390.036 311.702H391.038ZM395.459 311.702H396.707L398.879 317.004H398.959L401.13 311.702H402.379V318.522H401.4V313.587H401.337L399.325 318.512H398.512L396.501 313.583H396.438V318.522H395.459V311.702ZM405.284 318.636C404.96 318.636 404.667 318.576 404.405 318.456C404.143 318.334 403.935 318.157 403.782 317.926C403.631 317.695 403.555 317.412 403.555 317.077C403.555 316.788 403.611 316.551 403.722 316.364C403.833 316.178 403.983 316.03 404.172 315.921C404.36 315.813 404.571 315.73 404.804 315.675C405.037 315.619 405.275 315.577 405.517 315.548C405.823 315.513 406.072 315.484 406.263 315.462C406.454 315.437 406.593 315.398 406.679 315.345C406.766 315.292 406.809 315.205 406.809 315.085V315.062C406.809 314.771 406.727 314.546 406.563 314.386C406.401 314.226 406.159 314.146 405.837 314.146C405.501 314.146 405.237 314.221 405.044 314.369C404.853 314.516 404.721 314.679 404.648 314.859L403.712 314.646C403.823 314.335 403.985 314.084 404.198 313.893C404.414 313.7 404.661 313.56 404.941 313.474C405.221 313.385 405.515 313.34 405.823 313.34C406.028 313.34 406.244 313.365 406.473 313.414C406.704 313.46 406.919 313.547 407.119 313.673C407.321 313.8 407.486 313.981 407.615 314.216C407.744 314.449 407.808 314.752 407.808 315.125V318.522H406.836V317.823H406.796C406.731 317.952 406.635 318.078 406.506 318.203C406.377 318.327 406.212 318.43 406.01 318.512C405.808 318.594 405.566 318.636 405.284 318.636ZM405.5 317.836C405.776 317.836 406.011 317.782 406.206 317.673C406.404 317.564 406.554 317.422 406.656 317.247C406.76 317.069 406.812 316.879 406.812 316.677V316.018C406.777 316.053 406.708 316.087 406.606 316.118C406.506 316.147 406.392 316.172 406.263 316.194C406.134 316.214 406.009 316.233 405.887 316.251C405.765 316.267 405.662 316.28 405.58 316.291C405.387 316.315 405.211 316.357 405.051 316.414C404.893 316.472 404.767 316.555 404.671 316.664C404.578 316.771 404.531 316.913 404.531 317.09C404.531 317.337 404.622 317.523 404.804 317.65C404.986 317.774 405.218 317.836 405.5 317.836ZM409.135 318.522V313.407H410.097V314.22H410.15C410.244 313.944 410.408 313.728 410.643 313.57C410.881 313.41 411.149 313.33 411.449 313.33C411.511 313.33 411.585 313.333 411.669 313.337C411.756 313.341 411.823 313.347 411.872 313.354V314.306C411.832 314.295 411.761 314.283 411.659 314.269C411.557 314.254 411.455 314.246 411.353 314.246C411.117 314.246 410.907 314.296 410.723 314.396C410.541 314.494 410.397 314.63 410.29 314.806C410.184 314.979 410.13 315.176 410.13 315.398V318.522H409.135ZM414.705 318.626C414.21 318.626 413.784 318.513 413.427 318.289C413.071 318.063 412.798 317.751 412.607 317.353C412.416 316.956 412.321 316.501 412.321 315.988C412.321 315.468 412.419 315.01 412.614 314.613C412.809 314.213 413.085 313.901 413.44 313.677C413.795 313.452 414.214 313.34 414.695 313.34C415.084 313.34 415.43 313.412 415.734 313.557C416.039 313.699 416.284 313.899 416.47 314.156C416.659 314.414 416.771 314.715 416.807 315.059H415.838C415.784 314.819 415.662 314.613 415.471 314.439C415.283 314.266 415.03 314.18 414.712 314.18C414.435 314.18 414.191 314.253 413.983 314.399C413.776 314.544 413.615 314.75 413.5 315.019C413.384 315.285 413.327 315.601 413.327 315.965C413.327 316.338 413.383 316.66 413.496 316.93C413.61 317.201 413.77 317.411 413.976 317.56C414.185 317.709 414.43 317.783 414.712 317.783C414.901 317.783 415.072 317.749 415.225 317.68C415.38 317.609 415.51 317.508 415.615 317.377C415.721 317.246 415.796 317.088 415.838 316.904H416.807C416.771 317.235 416.664 317.53 416.484 317.79C416.304 318.049 416.063 318.254 415.761 318.402C415.461 318.551 415.109 318.626 414.705 318.626ZM418.867 315.485V318.522H417.872V311.702H418.854V314.24H418.917C419.037 313.964 419.22 313.746 419.467 313.583C419.713 313.421 420.035 313.34 420.433 313.34C420.784 313.34 421.09 313.412 421.352 313.557C421.616 313.701 421.82 313.916 421.965 314.203C422.111 314.487 422.184 314.842 422.184 315.269V318.522H421.189V315.388C421.189 315.013 421.092 314.722 420.899 314.516C420.706 314.307 420.437 314.203 420.093 314.203C419.858 314.203 419.647 314.253 419.46 314.353C419.276 314.453 419.131 314.599 419.024 314.792C418.92 314.983 418.867 315.214 418.867 315.485ZM425.982 318.522V317.776L428.29 315.385C428.536 315.125 428.739 314.898 428.899 314.702C429.061 314.505 429.182 314.317 429.262 314.14C429.342 313.962 429.382 313.773 429.382 313.573C429.382 313.347 429.329 313.152 429.222 312.987C429.116 312.821 428.97 312.693 428.786 312.604C428.602 312.513 428.394 312.468 428.163 312.468C427.919 312.468 427.706 312.518 427.524 312.618C427.342 312.718 427.202 312.859 427.104 313.041C427.007 313.223 426.958 313.436 426.958 313.68H425.975C425.975 313.265 426.071 312.902 426.262 312.591C426.453 312.28 426.715 312.039 427.048 311.868C427.381 311.695 427.759 311.609 428.183 311.609C428.612 311.609 428.989 311.694 429.316 311.865C429.644 312.034 429.901 312.265 430.085 312.558C430.269 312.849 430.361 313.177 430.361 313.543C430.361 313.797 430.314 314.044 430.218 314.286C430.125 314.528 429.962 314.798 429.729 315.095C429.495 315.391 429.171 315.749 428.756 316.171L427.401 317.59V317.64H430.471V318.522H425.982ZM434.108 318.636C433.582 318.633 433.132 318.495 432.759 318.219C432.386 317.944 432.101 317.543 431.903 317.017C431.706 316.491 431.607 315.857 431.607 315.115C431.607 314.376 431.706 313.744 431.903 313.22C432.103 312.696 432.389 312.297 432.762 312.022C433.138 311.746 433.586 311.609 434.108 311.609C434.63 311.609 435.077 311.747 435.45 312.025C435.823 312.3 436.108 312.7 436.306 313.224C436.506 313.746 436.606 314.376 436.606 315.115C436.606 315.859 436.507 316.494 436.309 317.02C436.112 317.544 435.826 317.945 435.453 318.223C435.08 318.498 434.632 318.636 434.108 318.636ZM434.108 317.746C434.57 317.746 434.931 317.521 435.19 317.07C435.452 316.62 435.583 315.968 435.583 315.115C435.583 314.549 435.523 314.071 435.403 313.68C435.286 313.287 435.116 312.99 434.894 312.787C434.674 312.583 434.412 312.481 434.108 312.481C433.648 312.481 433.288 312.708 433.026 313.16C432.764 313.613 432.631 314.265 432.629 315.115C432.629 315.684 432.688 316.164 432.806 316.557C432.926 316.948 433.096 317.245 433.315 317.447C433.535 317.646 433.799 317.746 434.108 317.746ZM437.787 318.522V317.776L440.095 315.385C440.342 315.125 440.545 314.898 440.705 314.702C440.867 314.505 440.988 314.317 441.068 314.14C441.147 313.962 441.187 313.773 441.187 313.573C441.187 313.347 441.134 313.152 441.028 312.987C440.921 312.821 440.776 312.693 440.591 312.604C440.407 312.513 440.199 312.468 439.969 312.468C439.724 312.468 439.511 312.518 439.329 312.618C439.147 312.718 439.007 312.859 438.909 313.041C438.812 313.223 438.763 313.436 438.763 313.68H437.78C437.78 313.265 437.876 312.902 438.067 312.591C438.258 312.28 438.52 312.039 438.853 311.868C439.186 311.695 439.564 311.609 439.988 311.609C440.417 311.609 440.794 311.694 441.121 311.865C441.449 312.034 441.706 312.265 441.89 312.558C442.074 312.849 442.167 313.177 442.167 313.543C442.167 313.797 442.119 314.044 442.023 314.286C441.93 314.528 441.767 314.798 441.534 315.095C441.301 315.391 440.976 315.749 440.561 316.171L439.206 317.59V317.64H442.276V318.522H437.787ZM446.126 311.702V318.522H445.094V312.734H445.054L443.422 313.8V312.814L445.124 311.702H446.126Z" fill="#64748B"/>
<line x1="206.301" y1="300.316" x2="447.009" y2="300.316" stroke="#E2E8F0" stroke-width="0.78152" stroke-linecap="square" stroke-dasharray="1.56 1.56"/>
<line x1="206.301" y1="281.56" x2="447.009" y2="281.56" stroke="#E2E8F0" stroke-width="0.78152" stroke-linecap="square" stroke-dasharray="1.56 1.56"/>
<line x1="206.301" y1="262.803" x2="447.009" y2="262.803" stroke="#E2E8F0" stroke-width="0.78152" stroke-linecap="square" stroke-dasharray="1.56 1.56"/>
<line x1="206.301" y1="244.047" x2="447.009" y2="244.047" stroke="#E2E8F0" stroke-width="0.78152" stroke-linecap="square" stroke-dasharray="1.56 1.56"/>
<line x1="206.301" y1="225.291" x2="447.009" y2="225.291" stroke="#E2E8F0" stroke-width="0.78152" stroke-linecap="square" stroke-dasharray="1.56 1.56"/>
<line x1="206.301" y1="206.534" x2="447.009" y2="206.534" stroke="#E2E8F0" stroke-width="0.78152" stroke-linecap="square" stroke-dasharray="1.56 1.56"/>
<line x1="206.301" y1="187.778" x2="447.009" y2="187.778" stroke="#E2E8F0" stroke-width="0.78152" stroke-linecap="square" stroke-dasharray="1.56 1.56"/>
<line x1="206.301" y1="169.021" x2="447.009" y2="169.021" stroke="#E2E8F0" stroke-width="0.78152" stroke-linecap="square" stroke-dasharray="1.56 1.56"/>
<path d="M209.035 206.143C209.035 204.848 210.085 203.799 211.38 203.799C212.675 203.799 213.724 204.848 213.724 206.143V300.707H209.035V206.143Z" fill="#F2EFFF"/>
<path d="M229.354 205.752C229.354 204.673 230.228 203.799 231.307 203.799C232.386 203.799 233.261 204.673 233.261 205.752V300.707H229.354V205.752Z" fill="#F2EFFF"/>
<path d="M237.949 199.891C237.949 198.596 238.999 197.547 240.294 197.547C241.589 197.547 242.638 198.596 242.638 199.891V300.707H237.949V199.891Z" fill="#F2EFFF"/>
<path d="M248.891 231.152C248.891 229.857 249.94 228.807 251.235 228.807C252.53 228.807 253.58 229.857 253.58 231.152V300.707H248.891V231.152Z" fill="#F2EFFF"/>
<path d="M259.053 217.866C259.053 216.571 260.102 215.521 261.397 215.521C262.692 215.521 263.742 216.571 263.742 217.866V300.707H259.053V217.866Z" fill="#F2EFFF"/>
<path d="M269.211 217.866C269.211 216.571 270.261 215.521 271.555 215.521C272.85 215.521 273.9 216.571 273.9 217.866V300.707H269.211V217.866Z" fill="#F2EFFF"/>
<path d="M279.371 234.278C279.371 232.983 280.421 231.933 281.716 231.933C283.011 231.933 284.06 232.983 284.06 234.278V300.707H279.371V234.278Z" fill="#F2EFFF"/>
<path d="M288.748 215.522C288.748 214.227 289.798 213.177 291.093 213.177C292.387 213.177 293.437 214.227 293.437 215.522V300.707H288.748V215.522Z" fill="#F2EFFF"/>
<path d="M298.129 194.42C298.129 193.125 299.179 192.076 300.473 192.076C301.768 192.076 302.818 193.126 302.818 194.42V300.707H298.129V194.42Z" fill="#F2EFFF"/>
<path d="M309.068 232.715C309.068 231.42 310.118 230.37 311.413 230.37C312.708 230.37 313.757 231.42 313.757 232.715V300.707H309.068V232.715Z" fill="#F2EFFF"/>
<path d="M318.447 173.319C318.447 172.025 319.497 170.975 320.792 170.975C322.087 170.975 323.136 172.025 323.136 173.319V300.707H318.447V173.319Z" fill="#F2EFFF"/>
<path d="M327.824 228.026C327.824 226.731 328.874 225.681 330.169 225.681C331.464 225.681 332.513 226.731 332.513 228.026V300.707H327.824V228.026Z" fill="#F2EFFF"/>
<path d="M337.984 215.522C337.984 214.227 339.034 213.177 340.329 213.177C341.624 213.177 342.673 214.227 342.673 215.522V300.707H337.984V215.522Z" fill="#F2EFFF"/>
<path d="M348.146 252.253C348.146 250.958 349.196 249.908 350.491 249.908C351.786 249.908 352.836 250.958 352.836 252.253V300.707H348.146V252.253Z" fill="#F2EFFF"/>
<path d="M356.742 221.774C356.742 220.479 357.792 219.429 359.087 219.429C360.382 219.429 361.431 220.479 361.431 221.774V300.707H356.742V221.774Z" fill="#F2EFFF"/>
<path d="M366.9 206.143C366.9 204.848 367.95 203.799 369.245 203.799C370.54 203.799 371.59 204.848 371.59 206.143V300.707H366.9V206.143Z" fill="#F2EFFF"/>
<path d="M377.061 180.353C377.061 179.058 378.11 178.009 379.405 178.009C380.7 178.009 381.75 179.058 381.75 180.353V300.707H377.061V180.353Z" fill="#F2EFFF"/>
<path d="M387.223 174.101C387.223 172.806 388.272 171.756 389.567 171.756C390.862 171.756 391.912 172.806 391.912 174.101V300.707H387.223V174.101Z" fill="#F2EFFF"/>
<path d="M397.381 220.992C397.381 219.697 398.431 218.647 399.725 218.647C401.02 218.647 402.07 219.697 402.07 220.992V300.707H397.381V220.992Z" fill="#F2EFFF"/>
<path d="M407.541 213.958C407.541 212.664 408.591 211.614 409.886 211.614C411.18 211.614 412.23 212.664 412.23 213.958V300.707H407.541V213.958Z" fill="#F2EFFF"/>
<path d="M416.918 167.849C416.918 166.554 417.968 165.504 419.263 165.504C420.557 165.504 421.607 166.554 421.607 167.849V300.707H416.918V167.849Z" fill="#F2EFFF"/>
<path d="M427.078 180.353C427.078 179.058 428.128 178.009 429.423 178.009C430.718 178.009 431.767 179.058 431.767 180.353V300.707H427.078V180.353Z" fill="#F2EFFF"/>
<path d="M437.238 173.319C437.238 172.025 438.288 170.975 439.583 170.975C440.878 170.975 441.927 172.025 441.927 173.319V300.707H437.238V173.319Z" fill="#F2EFFF"/>
<path d="M219.977 206.143C219.977 204.848 221.026 203.799 222.321 203.799C223.616 203.799 224.666 204.848 224.666 206.143V300.707H219.977V206.143Z" fill="#754FFE"/>
<g filter="url(#filter1_dd_6115_29407)">
<mask id="path-51-inside-1_6115_29407" fill="white">
<path fill-rule="evenodd" clip-rule="evenodd" d="M211.282 181.916C209.556 181.916 208.156 183.316 208.156 185.042V197.589C208.156 199.316 209.556 200.715 211.282 200.715H220.493L222.389 203.017L224.285 200.715H233.493C235.22 200.715 236.619 199.316 236.619 197.589V185.042C236.619 183.316 235.22 181.916 233.493 181.916H211.282Z"/>
</mask>
<path fill-rule="evenodd" clip-rule="evenodd" d="M211.282 181.916C209.556 181.916 208.156 183.316 208.156 185.042V197.589C208.156 199.316 209.556 200.715 211.282 200.715H220.493L222.389 203.017L224.285 200.715H233.493C235.22 200.715 236.619 199.316 236.619 197.589V185.042C236.619 183.316 235.22 181.916 233.493 181.916H211.282Z" fill="white"/>
<path d="M220.493 200.715L221.096 200.218L220.862 199.934H220.493V200.715ZM222.389 203.017L221.786 203.514L222.389 204.246L222.992 203.514L222.389 203.017ZM224.285 200.715V199.934H223.917L223.682 200.218L224.285 200.715ZM208.938 185.042C208.938 183.747 209.987 182.698 211.282 182.698V181.135C209.124 181.135 207.375 182.884 207.375 185.042H208.938ZM208.938 197.589V185.042H207.375V197.589H208.938ZM211.282 199.934C209.987 199.934 208.938 198.884 208.938 197.589H207.375C207.375 199.747 209.124 201.497 211.282 201.497V199.934ZM220.493 199.934H211.282V201.497H220.493V199.934ZM219.89 201.212L221.786 203.514L222.992 202.52L221.096 200.218L219.89 201.212ZM222.992 203.514L224.889 201.212L223.682 200.218L221.786 202.52L222.992 203.514ZM233.493 199.934H224.285V201.497H233.493V199.934ZM235.838 197.589C235.838 198.884 234.788 199.934 233.493 199.934V201.497C235.651 201.497 237.401 199.747 237.401 197.589H235.838ZM235.838 185.042V197.589H237.401V185.042H235.838ZM233.493 182.698C234.788 182.698 235.838 183.747 235.838 185.042H237.401C237.401 182.884 235.651 181.135 233.493 181.135V182.698ZM211.282 182.698H233.493V181.135H211.282V182.698Z" fill="#CBD5E1" mask="url(#path-51-inside-1_6115_29407)"/>
</g>
<path d="M215.646 187.921V193.605H214.786V188.782H214.753L213.393 189.67V188.848L214.811 187.921H215.646ZM217.184 193.605V192.984L219.107 190.991C219.313 190.774 219.482 190.585 219.615 190.422C219.75 190.257 219.851 190.101 219.918 189.953C219.984 189.805 220.018 189.648 220.018 189.481C220.018 189.292 219.973 189.13 219.884 188.993C219.796 188.854 219.674 188.748 219.521 188.674C219.367 188.598 219.194 188.56 219.002 188.56C218.798 188.56 218.621 188.601 218.469 188.685C218.317 188.768 218.201 188.885 218.119 189.037C218.038 189.189 217.997 189.366 217.997 189.57H217.178C217.178 189.224 217.258 188.921 217.417 188.662C217.576 188.403 217.795 188.203 218.072 188.06C218.35 187.916 218.665 187.844 219.018 187.844C219.376 187.844 219.69 187.915 219.962 188.057C220.236 188.198 220.45 188.39 220.603 188.635C220.757 188.877 220.833 189.151 220.833 189.456C220.833 189.667 220.794 189.873 220.714 190.075C220.636 190.277 220.5 190.502 220.306 190.749C220.112 190.996 219.842 191.294 219.496 191.646L218.366 192.828V192.87H220.925V193.605H217.184ZM223.956 193.7C223.517 193.698 223.143 193.582 222.832 193.353C222.521 193.123 222.283 192.789 222.118 192.351C221.954 191.912 221.871 191.384 221.871 190.766C221.871 190.15 221.954 189.624 222.118 189.187C222.285 188.75 222.524 188.417 222.834 188.188C223.147 187.958 223.521 187.844 223.956 187.844C224.39 187.844 224.763 187.959 225.074 188.191C225.385 188.42 225.623 188.753 225.787 189.19C225.954 189.625 226.037 190.15 226.037 190.766C226.037 191.386 225.955 191.915 225.79 192.354C225.625 192.79 225.388 193.124 225.077 193.355C224.766 193.585 224.392 193.7 223.956 193.7ZM223.956 192.959C224.341 192.959 224.641 192.771 224.858 192.395C225.076 192.02 225.185 191.477 225.185 190.766C225.185 190.294 225.135 189.896 225.035 189.57C224.937 189.242 224.796 188.995 224.611 188.826C224.427 188.656 224.209 188.571 223.956 188.571C223.573 188.571 223.272 188.76 223.054 189.137C222.835 189.514 222.725 190.057 222.723 190.766C222.723 191.24 222.772 191.64 222.871 191.968C222.97 192.293 223.112 192.54 223.295 192.709C223.478 192.875 223.699 192.959 223.956 192.959ZM229 193.7C228.562 193.698 228.187 193.582 227.876 193.353C227.566 193.123 227.328 192.789 227.163 192.351C226.999 191.912 226.916 191.384 226.916 190.766C226.916 190.15 226.999 189.624 227.163 189.187C227.33 188.75 227.568 188.417 227.879 188.188C228.192 187.958 228.566 187.844 229 187.844C229.435 187.844 229.808 187.959 230.119 188.191C230.43 188.42 230.667 188.753 230.832 189.19C230.999 189.625 231.082 190.15 231.082 190.766C231.082 191.386 231 191.915 230.835 192.354C230.67 192.79 230.433 193.124 230.122 193.355C229.811 193.585 229.437 193.7 229 193.7ZM229 192.959C229.385 192.959 229.686 192.771 229.902 192.395C230.121 192.02 230.23 191.477 230.23 190.766C230.23 190.294 230.18 189.896 230.08 189.57C229.982 189.242 229.84 188.995 229.655 188.826C229.472 188.656 229.254 188.571 229 188.571C228.617 188.571 228.317 188.76 228.098 189.137C227.88 189.514 227.77 190.057 227.768 190.766C227.768 191.24 227.817 191.64 227.915 191.968C228.015 192.293 228.157 192.54 228.34 192.709C228.523 192.875 228.743 192.959 229 192.959Z" fill="#754FFE"/>
</g>
<defs>
<filter id="filter0_d_6115_29407" x="175.655" y="62.437" width="298.086" height="284.934" filterUnits="userSpaceOnUse" color-interpolation-filters="sRGB">
<feFlood flood-opacity="0" result="BackgroundImageFix"/>
<feColorMatrix in="SourceAlpha" type="matrix" values="0 0 0 0 0 0 0 0 0 0 0 0 0 0 0 0 0 0 127 0" result="hardAlpha"/>
<feOffset dy="0.78152"/>
<feGaussianBlur stdDeviation="1.17228"/>
<feColorMatrix type="matrix" values="0 0 0 0 0.0117647 0 0 0 0 0 0 0 0 0 0.278431 0 0 0 0.13 0"/>
<feBlend mode="normal" in2="BackgroundImageFix" result="effect1_dropShadow_6115_29407"/>
<feBlend mode="normal" in="SourceGraphic" in2="effect1_dropShadow_6115_29407" result="shape"/>
</filter>
<filter id="filter1_dd_6115_29407" x="184.711" y="170.193" width="75.3541" height="67.9924" filterUnits="userSpaceOnUse" color-interpolation-filters="sRGB">
<feFlood flood-opacity="0" result="BackgroundImageFix"/>
<feColorMatrix in="SourceAlpha" type="matrix" values="0 0 0 0 0 0 0 0 0 0 0 0 0 0 0 0 0 0 127 0" result="hardAlpha"/>
<feOffset dy="11.7228"/>
<feGaussianBlur stdDeviation="11.7228"/>
<feColorMatrix type="matrix" values="0 0 0 0 0.0117647 0 0 0 0 0 0 0 0 0 0.278431 0 0 0 0.12 0"/>
<feBlend mode="normal" in2="BackgroundImageFix" result="effect1_dropShadow_6115_29407"/>
<feColorMatrix in="SourceAlpha" type="matrix" values="0 0 0 0 0 0 0 0 0 0 0 0 0 0 0 0 0 0 127 0" result="hardAlpha"/>
<feOffset dy="1.56304"/>
<feGaussianBlur stdDeviation="1.9538"/>
<feColorMatrix type="matrix" values="0 0 0 0 0.0823529 0 0 0 0 0.0823529 0 0 0 0 0.0823529 0 0 0 0.08 0"/>
<feBlend mode="normal" in2="effect1_dropShadow_6115_29407" result="effect2_dropShadow_6115_29407"/>
<feBlend mode="normal" in="SourceGraphic" in2="effect2_dropShadow_6115_29407" result="shape"/>
</filter>
<clipPath id="clip0_6115_29407">
<rect width="9.37824" height="9.37824" fill="white" transform="translate(202 135.563)"/>
</clipPath>
<clipPath id="clip1_6115_29407">
<rect width="9.37824" height="9.37824" fill="white" transform="translate(294.465 135.563)"/>
</clipPath>
<clipPath id="clip2_6115_29407">
<rect width="9.37824" height="9.37824" fill="white" transform="translate(386.932 135.563)"/>
</clipPath>
</defs>
</svg>
