<svg width="636" height="400" viewBox="0 0 636 400" fill="none" xmlns="http://www.w3.org/2000/svg">
<rect width="636" height="400" fill="#E2E8F0"/>
<g filter="url(#filter0_d_6625_29049)">
<rect x="126" y="83" width="384" height="235" rx="8" fill="white"/>
<rect x="127.358" y="84.3583" width="381.283" height="232.283" rx="6.64167" stroke="white" stroke-width="2.71667"/>
</g>
<mask id="path-3-inside-1_6625_29049" fill="white">
<path d="M126 91C126 86.5817 129.582 83 134 83H502C506.418 83 510 86.5817 510 91V115H126V91Z"/>
</mask>
<path d="M126 91C126 86.5817 129.582 83 134 83H502C506.418 83 510 86.5817 510 91V115H126V91Z" fill="#F1F5F9"/>
<path d="M126 83H510H126ZM510 116H126V114H510V116ZM126 115V83V115ZM510 83V115V83Z" fill="#E2E8F0" mask="url(#path-3-inside-1_6625_29049)"/>
<mask id="path-5-inside-2_6625_29049" fill="white">
<path d="M126 115H510V147H126V115Z"/>
</mask>
<path d="M126 115H510V147H126V115Z" fill="white"/>
<path d="M126 115H510H126ZM510 148H126V146H510V148ZM126 147V115V147ZM510 115V147V115Z" fill="#E2E8F0" mask="url(#path-5-inside-2_6625_29049)"/>
<path d="M492.125 134.75C492.125 135.048 492.006 135.335 491.795 135.545C491.585 135.756 491.298 135.875 491 135.875C490.702 135.875 490.415 135.756 490.205 135.545C489.994 135.335 489.875 135.048 489.875 134.75C489.875 134.452 489.994 134.165 490.205 133.955C490.415 133.744 490.702 133.625 491 133.625C491.298 133.625 491.585 133.744 491.795 133.955C492.006 134.165 492.125 134.452 492.125 134.75ZM492.125 131C492.125 131.298 492.006 131.585 491.795 131.795C491.585 132.006 491.298 132.125 491 132.125C490.702 132.125 490.415 132.006 490.205 131.795C489.994 131.585 489.875 131.298 489.875 131C489.875 130.702 489.994 130.415 490.205 130.205C490.415 129.994 490.702 129.875 491 129.875C491.298 129.875 491.585 129.994 491.795 130.205C492.006 130.415 492.125 130.702 492.125 131ZM492.125 127.25C492.125 127.548 492.006 127.835 491.795 128.045C491.585 128.256 491.298 128.375 491 128.375C490.702 128.375 490.415 128.256 490.205 128.045C489.994 127.835 489.875 127.548 489.875 127.25C489.875 126.952 489.994 126.665 490.205 126.455C490.415 126.244 490.702 126.125 491 126.125C491.298 126.125 491.585 126.244 491.795 126.455C492.006 126.665 492.125 126.952 492.125 127.25Z" fill="#CBD5E1"/>
<mask id="path-8-inside-3_6625_29049" fill="white">
<path d="M126 147H510V179H126V147Z"/>
</mask>
<path d="M126 147H510V179H126V147Z" fill="white"/>
<path d="M126 147H510H126ZM510 180H126V178H510V180ZM126 179V147V179ZM510 147V179V147Z" fill="#E2E8F0" mask="url(#path-8-inside-3_6625_29049)"/>
<path d="M492.125 166.75C492.125 167.048 492.006 167.335 491.795 167.545C491.585 167.756 491.298 167.875 491 167.875C490.702 167.875 490.415 167.756 490.205 167.545C489.994 167.335 489.875 167.048 489.875 166.75C489.875 166.452 489.994 166.165 490.205 165.955C490.415 165.744 490.702 165.625 491 165.625C491.298 165.625 491.585 165.744 491.795 165.955C492.006 166.165 492.125 166.452 492.125 166.75ZM492.125 163C492.125 163.298 492.006 163.585 491.795 163.795C491.585 164.006 491.298 164.125 491 164.125C490.702 164.125 490.415 164.006 490.205 163.795C489.994 163.585 489.875 163.298 489.875 163C489.875 162.702 489.994 162.415 490.205 162.205C490.415 161.994 490.702 161.875 491 161.875C491.298 161.875 491.585 161.994 491.795 162.205C492.006 162.415 492.125 162.702 492.125 163ZM492.125 159.25C492.125 159.548 492.006 159.835 491.795 160.045C491.585 160.256 491.298 160.375 491 160.375C490.702 160.375 490.415 160.256 490.205 160.045C489.994 159.835 489.875 159.548 489.875 159.25C489.875 158.952 489.994 158.665 490.205 158.455C490.415 158.244 490.702 158.125 491 158.125C491.298 158.125 491.585 158.244 491.795 158.455C492.006 158.665 492.125 158.952 492.125 159.25Z" fill="#CBD5E1"/>
<mask id="path-11-inside-4_6625_29049" fill="white">
<path d="M126 179H510V211H126V179Z"/>
</mask>
<path d="M126 179H510V211H126V179Z" fill="white"/>
<path d="M126 179H510H126ZM510 212H126V210H510V212ZM126 211V179V211ZM510 179V211V179Z" fill="#E2E8F0" mask="url(#path-11-inside-4_6625_29049)"/>
<path d="M492.125 198.75C492.125 199.048 492.006 199.335 491.795 199.545C491.585 199.756 491.298 199.875 491 199.875C490.702 199.875 490.415 199.756 490.205 199.545C489.994 199.335 489.875 199.048 489.875 198.75C489.875 198.452 489.994 198.165 490.205 197.955C490.415 197.744 490.702 197.625 491 197.625C491.298 197.625 491.585 197.744 491.795 197.955C492.006 198.165 492.125 198.452 492.125 198.75ZM492.125 195C492.125 195.298 492.006 195.585 491.795 195.795C491.585 196.006 491.298 196.125 491 196.125C490.702 196.125 490.415 196.006 490.205 195.795C489.994 195.585 489.875 195.298 489.875 195C489.875 194.702 489.994 194.415 490.205 194.205C490.415 193.994 490.702 193.875 491 193.875C491.298 193.875 491.585 193.994 491.795 194.205C492.006 194.415 492.125 194.702 492.125 195ZM492.125 191.25C492.125 191.548 492.006 191.835 491.795 192.045C491.585 192.256 491.298 192.375 491 192.375C490.702 192.375 490.415 192.256 490.205 192.045C489.994 191.835 489.875 191.548 489.875 191.25C489.875 190.952 489.994 190.665 490.205 190.455C490.415 190.244 490.702 190.125 491 190.125C491.298 190.125 491.585 190.244 491.795 190.455C492.006 190.665 492.125 190.952 492.125 191.25Z" fill="#CBD5E1"/>
<mask id="path-14-inside-5_6625_29049" fill="white">
<path d="M126 211H510V243H126V211Z"/>
</mask>
<path d="M126 211H510V243H126V211Z" fill="white"/>
<path d="M126 211H510H126ZM510 244H126V242H510V244ZM126 243V211V243ZM510 211V243V211Z" fill="#E2E8F0" mask="url(#path-14-inside-5_6625_29049)"/>
<path d="M492.125 230.75C492.125 231.048 492.006 231.335 491.795 231.545C491.585 231.756 491.298 231.875 491 231.875C490.702 231.875 490.415 231.756 490.205 231.545C489.994 231.335 489.875 231.048 489.875 230.75C489.875 230.452 489.994 230.165 490.205 229.955C490.415 229.744 490.702 229.625 491 229.625C491.298 229.625 491.585 229.744 491.795 229.955C492.006 230.165 492.125 230.452 492.125 230.75ZM492.125 227C492.125 227.298 492.006 227.585 491.795 227.795C491.585 228.006 491.298 228.125 491 228.125C490.702 228.125 490.415 228.006 490.205 227.795C489.994 227.585 489.875 227.298 489.875 227C489.875 226.702 489.994 226.415 490.205 226.205C490.415 225.994 490.702 225.875 491 225.875C491.298 225.875 491.585 225.994 491.795 226.205C492.006 226.415 492.125 226.702 492.125 227ZM492.125 223.25C492.125 223.548 492.006 223.835 491.795 224.045C491.585 224.256 491.298 224.375 491 224.375C490.702 224.375 490.415 224.256 490.205 224.045C489.994 223.835 489.875 223.548 489.875 223.25C489.875 222.952 489.994 222.665 490.205 222.455C490.415 222.244 490.702 222.125 491 222.125C491.298 222.125 491.585 222.244 491.795 222.455C492.006 222.665 492.125 222.952 492.125 223.25Z" fill="#CBD5E1"/>
<mask id="path-17-inside-6_6625_29049" fill="white">
<path d="M126 243H510V275H126V243Z"/>
</mask>
<path d="M126 243H510V275H126V243Z" fill="white"/>
<path d="M126 243H510H126ZM510 276H126V274H510V276ZM126 275V243V275ZM510 243V275V243Z" fill="#E2E8F0" mask="url(#path-17-inside-6_6625_29049)"/>
<path d="M492.125 262.75C492.125 263.048 492.006 263.335 491.795 263.545C491.585 263.756 491.298 263.875 491 263.875C490.702 263.875 490.415 263.756 490.205 263.545C489.994 263.335 489.875 263.048 489.875 262.75C489.875 262.452 489.994 262.165 490.205 261.955C490.415 261.744 490.702 261.625 491 261.625C491.298 261.625 491.585 261.744 491.795 261.955C492.006 262.165 492.125 262.452 492.125 262.75ZM492.125 259C492.125 259.298 492.006 259.585 491.795 259.795C491.585 260.006 491.298 260.125 491 260.125C490.702 260.125 490.415 260.006 490.205 259.795C489.994 259.585 489.875 259.298 489.875 259C489.875 258.702 489.994 258.415 490.205 258.205C490.415 257.994 490.702 257.875 491 257.875C491.298 257.875 491.585 257.994 491.795 258.205C492.006 258.415 492.125 258.702 492.125 259ZM492.125 255.25C492.125 255.548 492.006 255.835 491.795 256.045C491.585 256.256 491.298 256.375 491 256.375C490.702 256.375 490.415 256.256 490.205 256.045C489.994 255.835 489.875 255.548 489.875 255.25C489.875 254.952 489.994 254.665 490.205 254.455C490.415 254.244 490.702 254.125 491 254.125C491.298 254.125 491.585 254.244 491.795 254.455C492.006 254.665 492.125 254.952 492.125 255.25Z" fill="#CBD5E1"/>
<mask id="path-20-inside-7_6625_29049" fill="white">
<path d="M126 275H510V307H126V275Z"/>
</mask>
<path d="M126 275H510V307H126V275Z" fill="white"/>
<path d="M126 275H510H126ZM510 308H126V306H510V308ZM126 307V275V307ZM510 275V307V275Z" fill="#E2E8F0" mask="url(#path-20-inside-7_6625_29049)"/>
<path d="M492.125 294.75C492.125 295.048 492.006 295.335 491.795 295.545C491.585 295.756 491.298 295.875 491 295.875C490.702 295.875 490.415 295.756 490.205 295.545C489.994 295.335 489.875 295.048 489.875 294.75C489.875 294.452 489.994 294.165 490.205 293.955C490.415 293.744 490.702 293.625 491 293.625C491.298 293.625 491.585 293.744 491.795 293.955C492.006 294.165 492.125 294.452 492.125 294.75ZM492.125 291C492.125 291.298 492.006 291.585 491.795 291.795C491.585 292.006 491.298 292.125 491 292.125C490.702 292.125 490.415 292.006 490.205 291.795C489.994 291.585 489.875 291.298 489.875 291C489.875 290.702 489.994 290.415 490.205 290.205C490.415 289.994 490.702 289.875 491 289.875C491.298 289.875 491.585 289.994 491.795 290.205C492.006 290.415 492.125 290.702 492.125 291ZM492.125 287.25C492.125 287.548 492.006 287.835 491.795 288.045C491.585 288.256 491.298 288.375 491 288.375C490.702 288.375 490.415 288.256 490.205 288.045C489.994 287.835 489.875 287.548 489.875 287.25C489.875 286.952 489.994 286.665 490.205 286.455C490.415 286.244 490.702 286.125 491 286.125C491.298 286.125 491.585 286.244 491.795 286.455C492.006 286.665 492.125 286.952 492.125 287.25Z" fill="#CBD5E1"/>
<line x1="141" y1="99" x2="173" y2="99" stroke="#94A3B8" stroke-width="4" stroke-linecap="round"/>
<line x1="251" y1="99" x2="283" y2="99" stroke="#94A3B8" stroke-width="4" stroke-linecap="round"/>
<line x1="325" y1="99" x2="357" y2="99" stroke="#94A3B8" stroke-width="4" stroke-linecap="round"/>
<line x1="405" y1="99" x2="437" y2="99" stroke="#94A3B8" stroke-width="4" stroke-linecap="round"/>
<line x1="141" y1="131" x2="209.444" y2="131" stroke="#E2E8F0" stroke-width="4" stroke-linecap="round"/>
<line x1="141" y1="163" x2="209.444" y2="163" stroke="#E2E8F0" stroke-width="4" stroke-linecap="round"/>
<line x1="141" y1="195" x2="209.444" y2="195" stroke="#E2E8F0" stroke-width="4" stroke-linecap="round"/>
<line x1="141" y1="227" x2="209.444" y2="227" stroke="#E2E8F0" stroke-width="4" stroke-linecap="round"/>
<line x1="141" y1="259" x2="209.444" y2="259" stroke="#E2E8F0" stroke-width="4" stroke-linecap="round"/>
<line x1="141" y1="291" x2="209.444" y2="291" stroke="#E2E8F0" stroke-width="4" stroke-linecap="round"/>
<line x1="248" y1="131" x2="284" y2="131" stroke="#E2E8F0" stroke-width="4" stroke-linecap="round"/>
<line x1="248" y1="163" x2="284" y2="163" stroke="#E2E8F0" stroke-width="4" stroke-linecap="round"/>
<line x1="248" y1="195" x2="284" y2="195" stroke="#E2E8F0" stroke-width="4" stroke-linecap="round"/>
<line x1="248" y1="227" x2="284" y2="227" stroke="#E2E8F0" stroke-width="4" stroke-linecap="round"/>
<line x1="248" y1="259" x2="284" y2="259" stroke="#E2E8F0" stroke-width="4" stroke-linecap="round"/>
<line x1="248" y1="291" x2="284" y2="291" stroke="#E2E8F0" stroke-width="4" stroke-linecap="round"/>
<line x1="323" y1="131" x2="348" y2="131" stroke="#E2E8F0" stroke-width="4" stroke-linecap="round"/>
<line x1="323" y1="163" x2="348" y2="163" stroke="#E2E8F0" stroke-width="4" stroke-linecap="round"/>
<line x1="323" y1="195" x2="348" y2="195" stroke="#E2E8F0" stroke-width="4" stroke-linecap="round"/>
<line x1="323" y1="227" x2="348" y2="227" stroke="#E2E8F0" stroke-width="4" stroke-linecap="round"/>
<line x1="323" y1="259" x2="348" y2="259" stroke="#E2E8F0" stroke-width="4" stroke-linecap="round"/>
<line x1="323" y1="291" x2="348" y2="291" stroke="#E2E8F0" stroke-width="4" stroke-linecap="round"/>
<line x1="405" y1="131" x2="430" y2="131" stroke="#754FFE" stroke-width="4" stroke-linecap="round"/>
<line x1="405" y1="163" x2="430" y2="163" stroke="#754FFE" stroke-width="4" stroke-linecap="round"/>
<line x1="405" y1="195" x2="430" y2="195" stroke="#754FFE" stroke-width="4" stroke-linecap="round"/>
<line x1="405" y1="227" x2="430" y2="227" stroke="#754FFE" stroke-width="4" stroke-linecap="round"/>
<line x1="405" y1="259" x2="430" y2="259" stroke="#754FFE" stroke-width="4" stroke-linecap="round"/>
<line x1="405" y1="291" x2="430" y2="291" stroke="#754FFE" stroke-width="4" stroke-linecap="round"/>
<defs>
<filter id="filter0_d_6625_29049" x="123" y="81" width="390" height="241" filterUnits="userSpaceOnUse" color-interpolation-filters="sRGB">
<feFlood flood-opacity="0" result="BackgroundImageFix"/>
<feColorMatrix in="SourceAlpha" type="matrix" values="0 0 0 0 0 0 0 0 0 0 0 0 0 0 0 0 0 0 127 0" result="hardAlpha"/>
<feOffset dy="1"/>
<feGaussianBlur stdDeviation="1.5"/>
<feColorMatrix type="matrix" values="0 0 0 0 0.0117647 0 0 0 0 0 0 0 0 0 0.278431 0 0 0 0.13 0"/>
<feBlend mode="normal" in2="BackgroundImageFix" result="effect1_dropShadow_6625_29049"/>
<feBlend mode="normal" in="SourceGraphic" in2="effect1_dropShadow_6625_29049" result="shape"/>
</filter>
</defs>
</svg>
