<svg width="636" height="400" viewBox="0 0 636 400" fill="none" xmlns="http://www.w3.org/2000/svg">
<rect width="636" height="400" fill="#E2E8F0"/>
<g filter="url(#filter0_d_6625_29065)">
<rect x="86" y="83" width="464" height="235" rx="8" fill="white"/>
<rect x="87.3583" y="84.3583" width="461.283" height="232.283" rx="6.64167" stroke="white" stroke-width="2.71667"/>
</g>
<path d="M146.688 137.492H143.888C143.837 137.13 143.733 136.808 143.575 136.527C143.418 136.241 143.215 135.999 142.968 135.798C142.721 135.598 142.435 135.445 142.112 135.338C141.792 135.232 141.445 135.178 141.07 135.178C140.392 135.178 139.802 135.347 139.299 135.683C138.796 136.016 138.406 136.501 138.129 137.141C137.852 137.776 137.714 138.547 137.714 139.455C137.714 140.388 137.852 141.172 138.129 141.807C138.411 142.442 138.803 142.921 139.305 143.245C139.808 143.569 140.39 143.731 141.05 143.731C141.421 143.731 141.764 143.682 142.08 143.584C142.399 143.486 142.683 143.343 142.93 143.156C143.177 142.964 143.381 142.732 143.543 142.459C143.71 142.186 143.825 141.875 143.888 141.526L146.688 141.538C146.616 142.139 146.435 142.719 146.145 143.277C145.859 143.831 145.474 144.327 144.988 144.766C144.506 145.201 143.931 145.546 143.262 145.802C142.597 146.053 141.845 146.179 141.006 146.179C139.838 146.179 138.794 145.915 137.874 145.386C136.957 144.858 136.233 144.093 135.7 143.092C135.172 142.09 134.908 140.878 134.908 139.455C134.908 138.027 135.176 136.812 135.713 135.811C136.25 134.81 136.979 134.047 137.899 133.523C138.82 132.994 139.855 132.73 141.006 132.73C141.764 132.73 142.467 132.837 143.115 133.05C143.767 133.263 144.344 133.574 144.847 133.983C145.35 134.388 145.759 134.884 146.075 135.472C146.394 136.06 146.599 136.734 146.688 137.492ZM151.422 146.185C150.795 146.185 150.237 146.077 149.747 145.859C149.257 145.638 148.869 145.312 148.583 144.881C148.302 144.447 148.162 143.906 148.162 143.258C148.162 142.712 148.262 142.254 148.462 141.884C148.662 141.513 148.935 141.214 149.28 140.989C149.625 140.763 150.017 140.592 150.456 140.477C150.9 140.362 151.364 140.281 151.85 140.234C152.421 140.175 152.881 140.119 153.23 140.068C153.58 140.013 153.833 139.932 153.991 139.825C154.149 139.719 154.228 139.561 154.228 139.352V139.314C154.228 138.909 154.1 138.596 153.844 138.374C153.593 138.153 153.235 138.042 152.77 138.042C152.28 138.042 151.89 138.151 151.6 138.368C151.311 138.581 151.119 138.849 151.025 139.173L148.507 138.969C148.635 138.372 148.886 137.857 149.261 137.422C149.636 136.983 150.12 136.646 150.712 136.412C151.309 136.173 151.999 136.054 152.783 136.054C153.328 136.054 153.85 136.118 154.349 136.246C154.852 136.374 155.297 136.572 155.685 136.84C156.077 137.109 156.386 137.454 156.612 137.876C156.838 138.293 156.951 138.794 156.951 139.378V146H154.368V144.638H154.292C154.134 144.945 153.923 145.216 153.659 145.45C153.395 145.68 153.077 145.862 152.706 145.994C152.336 146.121 151.907 146.185 151.422 146.185ZM152.201 144.306C152.602 144.306 152.956 144.227 153.262 144.07C153.569 143.908 153.81 143.69 153.985 143.418C154.159 143.145 154.247 142.836 154.247 142.491V141.449C154.162 141.504 154.044 141.555 153.895 141.602C153.75 141.645 153.586 141.685 153.403 141.724C153.22 141.758 153.037 141.79 152.853 141.82C152.67 141.845 152.504 141.869 152.355 141.89C152.035 141.937 151.756 142.011 151.517 142.114C151.279 142.216 151.093 142.354 150.961 142.529C150.829 142.7 150.763 142.913 150.763 143.168C150.763 143.539 150.897 143.822 151.166 144.018C151.439 144.21 151.784 144.306 152.201 144.306ZM159.063 146V136.182H161.703V137.895H161.805C161.984 137.286 162.285 136.825 162.707 136.514C163.129 136.199 163.614 136.041 164.164 136.041C164.3 136.041 164.447 136.05 164.605 136.067C164.763 136.084 164.901 136.107 165.021 136.137V138.553C164.893 138.515 164.716 138.481 164.49 138.451C164.264 138.421 164.058 138.406 163.87 138.406C163.469 138.406 163.112 138.494 162.796 138.668C162.485 138.839 162.238 139.077 162.055 139.384C161.876 139.691 161.786 140.045 161.786 140.445V146H159.063ZM170.407 146.192C169.415 146.192 168.556 145.981 167.831 145.559C167.111 145.133 166.555 144.54 166.163 143.782C165.771 143.019 165.575 142.135 165.575 141.129C165.575 140.115 165.771 139.229 166.163 138.47C166.555 137.707 167.111 137.115 167.831 136.693C168.556 136.267 169.415 136.054 170.407 136.054C171.4 136.054 172.257 136.267 172.977 136.693C173.702 137.115 174.26 137.707 174.652 138.47C175.044 139.229 175.24 140.115 175.24 141.129C175.24 142.135 175.044 143.019 174.652 143.782C174.26 144.54 173.702 145.133 172.977 145.559C172.257 145.981 171.4 146.192 170.407 146.192ZM170.42 144.082C170.872 144.082 171.249 143.955 171.552 143.699C171.854 143.439 172.082 143.085 172.236 142.638C172.393 142.19 172.472 141.681 172.472 141.11C172.472 140.539 172.393 140.03 172.236 139.582C172.082 139.135 171.854 138.781 171.552 138.521C171.249 138.261 170.872 138.131 170.42 138.131C169.964 138.131 169.581 138.261 169.27 138.521C168.963 138.781 168.731 139.135 168.573 139.582C168.42 140.03 168.343 140.539 168.343 141.11C168.343 141.681 168.42 142.19 168.573 142.638C168.731 143.085 168.963 143.439 169.27 143.699C169.581 143.955 169.964 144.082 170.42 144.082ZM183.307 141.82V136.182H186.03V146H183.415V144.217H183.313C183.091 144.792 182.723 145.254 182.207 145.604C181.696 145.953 181.072 146.128 180.334 146.128C179.678 146.128 179.101 145.979 178.602 145.68C178.104 145.382 177.714 144.958 177.432 144.408C177.155 143.859 177.015 143.2 177.01 142.433V136.182H179.733V141.947C179.738 142.527 179.893 142.985 180.2 143.322C180.507 143.658 180.918 143.827 181.434 143.827C181.762 143.827 182.069 143.752 182.354 143.603C182.64 143.45 182.87 143.224 183.045 142.925C183.224 142.627 183.311 142.259 183.307 141.82ZM196.377 138.982L193.884 139.135C193.841 138.922 193.75 138.73 193.609 138.56C193.468 138.385 193.283 138.246 193.053 138.144C192.827 138.038 192.556 137.984 192.241 137.984C191.819 137.984 191.463 138.074 191.174 138.253C190.884 138.428 190.739 138.662 190.739 138.956C190.739 139.19 190.833 139.388 191.02 139.55C191.208 139.712 191.529 139.842 191.985 139.94L193.762 140.298C194.717 140.494 195.429 140.81 195.897 141.244C196.366 141.679 196.6 142.25 196.6 142.957C196.6 143.601 196.411 144.165 196.032 144.651C195.657 145.137 195.141 145.516 194.485 145.789C193.833 146.058 193.081 146.192 192.228 146.192C190.929 146.192 189.893 145.921 189.122 145.38C188.355 144.835 187.905 144.093 187.773 143.156L190.451 143.015C190.532 143.411 190.728 143.714 191.039 143.923C191.35 144.127 191.749 144.229 192.235 144.229C192.712 144.229 193.096 144.138 193.385 143.955C193.679 143.767 193.828 143.526 193.833 143.232C193.828 142.985 193.724 142.783 193.52 142.625C193.315 142.463 193 142.339 192.574 142.254L190.873 141.915C189.914 141.724 189.201 141.391 188.732 140.918C188.267 140.445 188.035 139.842 188.035 139.109C188.035 138.479 188.206 137.935 188.547 137.479C188.892 137.023 189.375 136.672 189.998 136.425C190.624 136.178 191.357 136.054 192.196 136.054C193.436 136.054 194.412 136.316 195.124 136.84C195.84 137.364 196.257 138.078 196.377 138.982ZM202.79 146.192C201.78 146.192 200.91 145.987 200.182 145.578C199.457 145.165 198.899 144.581 198.507 143.827C198.115 143.068 197.919 142.171 197.919 141.136C197.919 140.126 198.115 139.239 198.507 138.477C198.899 137.714 199.451 137.119 200.162 136.693C200.878 136.267 201.718 136.054 202.681 136.054C203.329 136.054 203.932 136.158 204.49 136.367C205.052 136.572 205.542 136.881 205.96 137.294C206.382 137.707 206.71 138.227 206.944 138.854C207.179 139.476 207.296 140.205 207.296 141.04V141.788H199.006V140.1H204.733C204.733 139.708 204.648 139.361 204.477 139.058C204.307 138.756 204.07 138.519 203.768 138.349C203.469 138.174 203.122 138.087 202.726 138.087C202.312 138.087 201.946 138.183 201.626 138.374C201.311 138.562 201.064 138.815 200.885 139.135C200.706 139.45 200.614 139.802 200.61 140.19V141.794C200.61 142.28 200.699 142.7 200.878 143.053C201.062 143.407 201.319 143.68 201.652 143.871C201.984 144.063 202.378 144.159 202.834 144.159C203.137 144.159 203.414 144.116 203.665 144.031C203.917 143.946 204.132 143.818 204.311 143.648C204.49 143.477 204.626 143.268 204.72 143.021L207.238 143.188C207.111 143.793 206.849 144.321 206.452 144.773C206.06 145.22 205.553 145.57 204.931 145.821C204.313 146.068 203.599 146.192 202.79 146.192ZM211.796 132.909V146H209.073V132.909H211.796ZM223.366 136.182V138.227H217.453V136.182H223.366ZM218.795 133.83H221.518V142.983C221.518 143.234 221.557 143.43 221.633 143.571C221.71 143.707 221.817 143.803 221.953 143.859C222.094 143.914 222.256 143.942 222.439 143.942C222.567 143.942 222.694 143.931 222.822 143.91C222.95 143.884 223.048 143.865 223.116 143.852L223.545 145.879C223.408 145.921 223.216 145.97 222.969 146.026C222.722 146.085 222.422 146.121 222.068 146.134C221.412 146.16 220.836 146.072 220.342 145.872C219.852 145.672 219.471 145.361 219.198 144.939C218.925 144.517 218.791 143.984 218.795 143.341V133.83ZM228.073 140.324V146H225.35V132.909H227.997V137.914H228.112C228.333 137.335 228.691 136.881 229.186 136.553C229.68 136.22 230.3 136.054 231.046 136.054C231.727 136.054 232.322 136.203 232.829 136.501C233.34 136.795 233.737 137.219 234.018 137.773C234.303 138.323 234.444 138.982 234.44 139.749V146H231.717V140.234C231.721 139.629 231.568 139.158 231.257 138.822C230.95 138.485 230.519 138.317 229.965 138.317C229.595 138.317 229.267 138.396 228.981 138.553C228.7 138.711 228.478 138.941 228.316 139.244C228.159 139.542 228.078 139.902 228.073 140.324ZM242.879 141.82V136.182H245.602V146H242.988V144.217H242.885C242.664 144.792 242.295 145.254 241.779 145.604C241.268 145.953 240.644 146.128 239.907 146.128C239.25 146.128 238.673 145.979 238.174 145.68C237.676 145.382 237.286 144.958 237.005 144.408C236.728 143.859 236.587 143.2 236.583 142.433V136.182H239.306V141.947C239.31 142.527 239.466 142.985 239.772 143.322C240.079 143.658 240.49 143.827 241.006 143.827C241.334 143.827 241.641 143.752 241.926 143.603C242.212 143.45 242.442 143.224 242.617 142.925C242.796 142.627 242.883 142.259 242.879 141.82ZM247.78 146V136.182H250.375V137.914H250.49C250.695 137.339 251.036 136.885 251.513 136.553C251.99 136.22 252.561 136.054 253.226 136.054C253.899 136.054 254.472 136.222 254.945 136.559C255.419 136.891 255.734 137.343 255.892 137.914H255.994C256.194 137.352 256.556 136.902 257.08 136.565C257.609 136.224 258.233 136.054 258.953 136.054C259.869 136.054 260.613 136.346 261.184 136.93C261.759 137.509 262.047 138.332 262.047 139.397V146H259.33V139.934C259.33 139.388 259.186 138.979 258.896 138.707C258.606 138.434 258.244 138.298 257.809 138.298C257.315 138.298 256.929 138.455 256.652 138.771C256.375 139.082 256.237 139.493 256.237 140.004V146H253.597V139.876C253.597 139.395 253.458 139.011 253.181 138.726C252.909 138.44 252.548 138.298 252.101 138.298C251.798 138.298 251.526 138.374 251.283 138.528C251.044 138.677 250.855 138.888 250.714 139.161C250.573 139.429 250.503 139.744 250.503 140.107V146H247.78ZM264.249 146V132.909H266.972V137.831H267.055C267.175 137.567 267.347 137.298 267.573 137.026C267.803 136.749 268.101 136.518 268.468 136.335C268.839 136.148 269.299 136.054 269.849 136.054C270.564 136.054 271.225 136.241 271.83 136.616C272.435 136.987 272.919 137.548 273.281 138.298C273.643 139.043 273.824 139.979 273.824 141.104C273.824 142.199 273.648 143.124 273.294 143.878C272.944 144.628 272.467 145.197 271.862 145.585C271.261 145.968 270.588 146.16 269.842 146.16C269.314 146.16 268.864 146.072 268.493 145.898C268.127 145.723 267.827 145.504 267.592 145.239C267.358 144.971 267.179 144.7 267.055 144.428H266.934V146H264.249ZM266.915 141.091C266.915 141.675 266.996 142.184 267.157 142.619C267.319 143.053 267.554 143.392 267.861 143.635C268.167 143.874 268.54 143.993 268.979 143.993C269.422 143.993 269.797 143.871 270.104 143.629C270.411 143.381 270.643 143.04 270.801 142.606C270.963 142.167 271.044 141.662 271.044 141.091C271.044 140.524 270.965 140.026 270.807 139.595C270.65 139.165 270.417 138.828 270.111 138.585C269.804 138.342 269.427 138.221 268.979 138.221C268.536 138.221 268.161 138.338 267.854 138.572C267.552 138.807 267.319 139.139 267.157 139.57C266.996 140 266.915 140.507 266.915 141.091ZM278.364 140.324V146H275.641V136.182H278.237V137.914H278.352C278.569 137.343 278.933 136.891 279.445 136.559C279.956 136.222 280.576 136.054 281.305 136.054C281.987 136.054 282.581 136.203 283.088 136.501C283.595 136.8 283.989 137.226 284.271 137.78C284.552 138.33 284.692 138.986 284.692 139.749V146H281.969V140.234C281.974 139.634 281.82 139.165 281.509 138.828C281.198 138.487 280.77 138.317 280.224 138.317C279.858 138.317 279.534 138.396 279.253 138.553C278.976 138.711 278.759 138.941 278.601 139.244C278.447 139.542 278.369 139.902 278.364 140.324ZM289.638 146.185C289.012 146.185 288.454 146.077 287.964 145.859C287.474 145.638 287.086 145.312 286.8 144.881C286.519 144.447 286.378 143.906 286.378 143.258C286.378 142.712 286.479 142.254 286.679 141.884C286.879 141.513 287.152 141.214 287.497 140.989C287.842 140.763 288.234 140.592 288.673 140.477C289.116 140.362 289.581 140.281 290.067 140.234C290.638 140.175 291.098 140.119 291.447 140.068C291.797 140.013 292.05 139.932 292.208 139.825C292.366 139.719 292.444 139.561 292.444 139.352V139.314C292.444 138.909 292.317 138.596 292.061 138.374C291.809 138.153 291.452 138.042 290.987 138.042C290.497 138.042 290.107 138.151 289.817 138.368C289.528 138.581 289.336 138.849 289.242 139.173L286.724 138.969C286.851 138.372 287.103 137.857 287.478 137.422C287.853 136.983 288.336 136.646 288.929 136.412C289.525 136.173 290.216 136.054 291 136.054C291.545 136.054 292.067 136.118 292.566 136.246C293.069 136.374 293.514 136.572 293.902 136.84C294.294 137.109 294.603 137.454 294.829 137.876C295.055 138.293 295.167 138.794 295.167 139.378V146H292.585V144.638H292.508C292.351 144.945 292.14 145.216 291.876 145.45C291.611 145.68 291.294 145.862 290.923 145.994C290.552 146.121 290.124 146.185 289.638 146.185ZM290.418 144.306C290.819 144.306 291.172 144.227 291.479 144.07C291.786 143.908 292.027 143.69 292.202 143.418C292.376 143.145 292.464 142.836 292.464 142.491V141.449C292.378 141.504 292.261 141.555 292.112 141.602C291.967 141.645 291.803 141.685 291.62 141.724C291.437 141.758 291.253 141.79 291.07 141.82C290.887 141.845 290.721 141.869 290.572 141.89C290.252 141.937 289.973 142.011 289.734 142.114C289.496 142.216 289.31 142.354 289.178 142.529C289.046 142.7 288.98 142.913 288.98 143.168C288.98 143.539 289.114 143.822 289.383 144.018C289.655 144.21 290.001 144.306 290.418 144.306ZM297.28 146V136.182H300.003V146H297.28ZM298.648 134.916C298.243 134.916 297.896 134.782 297.606 134.513C297.32 134.241 297.178 133.915 297.178 133.536C297.178 133.161 297.32 132.839 297.606 132.57C297.896 132.298 298.243 132.161 298.648 132.161C299.053 132.161 299.398 132.298 299.683 132.57C299.973 132.839 300.118 133.161 300.118 133.536C300.118 133.915 299.973 134.241 299.683 134.513C299.398 134.782 299.053 134.916 298.648 134.916ZM304.907 132.909V146H302.184V132.909H304.907ZM319.424 138.982L316.931 139.135C316.888 138.922 316.797 138.73 316.656 138.56C316.515 138.385 316.33 138.246 316.1 138.144C315.874 138.038 315.603 137.984 315.288 137.984C314.866 137.984 314.51 138.074 314.221 138.253C313.931 138.428 313.786 138.662 313.786 138.956C313.786 139.19 313.88 139.388 314.067 139.55C314.255 139.712 314.576 139.842 315.032 139.94L316.809 140.298C317.764 140.494 318.475 140.81 318.944 141.244C319.413 141.679 319.647 142.25 319.647 142.957C319.647 143.601 319.458 144.165 319.078 144.651C318.703 145.137 318.188 145.516 317.532 145.789C316.88 146.058 316.127 146.192 315.275 146.192C313.975 146.192 312.94 145.921 312.169 145.38C311.402 144.835 310.952 144.093 310.82 143.156L313.498 143.015C313.579 143.411 313.775 143.714 314.086 143.923C314.397 144.127 314.796 144.229 315.282 144.229C315.759 144.229 316.142 144.138 316.432 143.955C316.726 143.767 316.875 143.526 316.88 143.232C316.875 142.985 316.771 142.783 316.566 142.625C316.362 142.463 316.047 142.339 315.62 142.254L313.92 141.915C312.961 141.724 312.248 141.391 311.779 140.918C311.314 140.445 311.082 139.842 311.082 139.109C311.082 138.479 311.252 137.935 311.593 137.479C311.939 137.023 312.422 136.672 313.044 136.425C313.671 136.178 314.404 136.054 315.243 136.054C316.483 136.054 317.459 136.316 318.171 136.84C318.887 137.364 319.304 138.078 319.424 138.982ZM324.085 132.909V146H321.362V132.909H324.085ZM326.266 146V136.182H328.989V146H326.266ZM327.634 134.916C327.229 134.916 326.882 134.782 326.592 134.513C326.307 134.241 326.164 133.915 326.164 133.536C326.164 133.161 326.307 132.839 326.592 132.57C326.882 132.298 327.229 132.161 327.634 132.161C328.039 132.161 328.384 132.298 328.67 132.57C328.96 132.839 329.104 133.161 329.104 133.536C329.104 133.915 328.96 134.241 328.67 134.513C328.384 134.782 328.039 134.916 327.634 134.916ZM334.789 146.16C334.043 146.16 333.367 145.968 332.762 145.585C332.161 145.197 331.684 144.628 331.33 143.878C330.981 143.124 330.806 142.199 330.806 141.104C330.806 139.979 330.987 139.043 331.35 138.298C331.712 137.548 332.193 136.987 332.794 136.616C333.399 136.241 334.062 136.054 334.782 136.054C335.332 136.054 335.79 136.148 336.156 136.335C336.527 136.518 336.825 136.749 337.051 137.026C337.281 137.298 337.456 137.567 337.575 137.831H337.659V132.909H340.375V146H337.691V144.428H337.575C337.448 144.7 337.267 144.971 337.032 145.239C336.802 145.504 336.502 145.723 336.131 145.898C335.764 146.072 335.317 146.16 334.789 146.16ZM335.651 143.993C336.09 143.993 336.461 143.874 336.764 143.635C337.07 143.392 337.305 143.053 337.467 142.619C337.633 142.184 337.716 141.675 337.716 141.091C337.716 140.507 337.635 140 337.473 139.57C337.311 139.139 337.077 138.807 336.77 138.572C336.463 138.338 336.09 138.221 335.651 138.221C335.204 138.221 334.827 138.342 334.52 138.585C334.213 138.828 333.981 139.165 333.823 139.595C333.666 140.026 333.587 140.524 333.587 141.091C333.587 141.662 333.666 142.167 333.823 142.606C333.985 143.04 334.218 143.381 334.52 143.629C334.827 143.871 335.204 143.993 335.651 143.993ZM347.088 146.192C346.078 146.192 345.209 145.987 344.48 145.578C343.756 145.165 343.198 144.581 342.806 143.827C342.414 143.068 342.218 142.171 342.218 141.136C342.218 140.126 342.414 139.239 342.806 138.477C343.198 137.714 343.75 137.119 344.461 136.693C345.177 136.267 346.017 136.054 346.98 136.054C347.627 136.054 348.23 136.158 348.789 136.367C349.351 136.572 349.841 136.881 350.259 137.294C350.681 137.707 351.009 138.227 351.243 138.854C351.478 139.476 351.595 140.205 351.595 141.04V141.788H343.304V140.1H349.032C349.032 139.708 348.946 139.361 348.776 139.058C348.605 138.756 348.369 138.519 348.066 138.349C347.768 138.174 347.421 138.087 347.025 138.087C346.611 138.087 346.245 138.183 345.925 138.374C345.61 138.562 345.363 138.815 345.184 139.135C345.005 139.45 344.913 139.802 344.909 140.19V141.794C344.909 142.28 344.998 142.7 345.177 143.053C345.36 143.407 345.618 143.68 345.951 143.871C346.283 144.063 346.677 144.159 347.133 144.159C347.436 144.159 347.713 144.116 347.964 144.031C348.216 143.946 348.431 143.818 348.61 143.648C348.789 143.477 348.925 143.268 349.019 143.021L351.537 143.188C351.409 143.793 351.147 144.321 350.751 144.773C350.359 145.22 349.852 145.57 349.23 145.821C348.612 146.068 347.898 146.192 347.088 146.192ZM353.372 146V136.182H356.012V137.895H356.114C356.293 137.286 356.593 136.825 357.015 136.514C357.437 136.199 357.923 136.041 358.473 136.041C358.609 136.041 358.756 136.05 358.914 136.067C359.071 136.084 359.21 136.107 359.329 136.137V138.553C359.201 138.515 359.025 138.481 358.799 138.451C358.573 138.421 358.366 138.406 358.179 138.406C357.778 138.406 357.42 138.494 357.105 138.668C356.794 138.839 356.547 139.077 356.363 139.384C356.184 139.691 356.095 140.045 356.095 140.445V146H353.372Z" fill="#475569"/>
<path fill-rule="evenodd" clip-rule="evenodd" d="M109.355 214.646C109.401 214.692 109.438 214.748 109.464 214.808C109.489 214.869 109.502 214.934 109.502 215C109.502 215.066 109.489 215.131 109.464 215.192C109.438 215.252 109.401 215.308 109.355 215.354L103.708 221L109.355 226.646C109.449 226.74 109.502 226.867 109.502 227C109.502 227.133 109.449 227.26 109.355 227.354C109.261 227.448 109.134 227.501 109.001 227.501C108.868 227.501 108.741 227.448 108.647 227.354L102.647 221.354C102.6 221.308 102.563 221.252 102.538 221.192C102.513 221.131 102.5 221.066 102.5 221C102.5 220.934 102.513 220.869 102.538 220.808C102.563 220.748 102.6 220.692 102.647 220.646L108.647 214.646C108.693 214.599 108.749 214.563 108.809 214.537C108.87 214.512 108.935 214.499 109.001 214.499C109.067 214.499 109.132 214.512 109.193 214.537C109.253 214.563 109.308 214.599 109.355 214.646Z" fill="#64748B"/>
<path fill-rule="evenodd" clip-rule="evenodd" d="M526.647 214.646C526.693 214.599 526.749 214.563 526.809 214.537C526.87 214.512 526.935 214.499 527.001 214.499C527.067 214.499 527.132 214.512 527.193 214.537C527.253 214.563 527.308 214.599 527.355 214.646L533.355 220.646C533.401 220.692 533.438 220.748 533.464 220.808C533.489 220.869 533.502 220.934 533.502 221C533.502 221.066 533.489 221.131 533.464 221.192C533.438 221.252 533.401 221.308 533.355 221.354L527.355 227.354C527.261 227.448 527.134 227.501 527.001 227.501C526.868 227.501 526.741 227.448 526.647 227.354C526.553 227.26 526.5 227.133 526.5 227C526.5 226.867 526.553 226.74 526.647 226.646L532.294 221L526.647 215.354C526.6 215.308 526.563 215.252 526.538 215.192C526.513 215.131 526.5 215.066 526.5 215C526.5 214.934 526.513 214.869 526.538 214.808C526.563 214.748 526.6 214.692 526.647 214.646Z" fill="#64748B"/>
<rect x="134.25" y="175.25" width="79.5" height="90.9286" rx="5.75" fill="white" stroke="#E2E8F0" stroke-width="0.5"/>
<g clip-path="url(#clip0_6625_29065)">
<path d="M148.501 249.416L149.145 250.72L150.585 250.931L149.543 251.945L149.789 253.379L148.501 252.702L147.214 253.379L147.46 251.945L146.418 250.931L147.858 250.72L148.501 249.416Z" stroke="#F59E0B" stroke-width="0.416667" stroke-linecap="round" stroke-linejoin="round"/>
</g>
<g clip-path="url(#clip1_6625_29065)">
<path d="M153.501 249.416L154.145 250.72L155.585 250.931L154.543 251.945L154.789 253.379L153.501 252.702L152.214 253.379L152.46 251.945L151.418 250.931L152.858 250.72L153.501 249.416Z" stroke="#F59E0B" stroke-width="0.416667" stroke-linecap="round" stroke-linejoin="round"/>
</g>
<g clip-path="url(#clip2_6625_29065)">
<path d="M158.501 249.416L159.145 250.72L160.585 250.931L159.543 251.945L159.789 253.379L158.501 252.702L157.214 253.379L157.46 251.945L156.418 250.931L157.858 250.72L158.501 249.416Z" stroke="#F59E0B" stroke-width="0.416667" stroke-linecap="round" stroke-linejoin="round"/>
</g>
<g clip-path="url(#clip3_6625_29065)">
<path d="M163.501 249.416L164.145 250.72L165.585 250.931L164.543 251.945L164.789 253.379L163.501 252.702L162.214 253.379L162.46 251.945L161.418 250.931L162.858 250.72L163.501 249.416Z" stroke="#F59E0B" stroke-width="0.416667" stroke-linecap="round" stroke-linejoin="round"/>
</g>
<g clip-path="url(#clip4_6625_29065)">
<path d="M168.501 249.416L169.145 250.72L170.585 250.931L169.543 251.945L169.789 253.379L168.501 252.702L167.214 253.379L167.46 251.945L166.418 250.931L167.858 250.72L168.501 249.416Z" stroke="#F59E0B" stroke-width="0.416667" stroke-linecap="round" stroke-linejoin="round"/>
</g>
<path d="M134 181C134 177.686 136.686 175 140 175H208C211.314 175 214 177.686 214 181V215H134V181Z" fill="#E2E8F0"/>
<path d="M165.711 189.567L134 215H214V207.72L200.455 197.742C200.112 197.489 199.647 197.481 199.296 197.722L185.412 207.245C185.011 207.519 184.471 207.466 184.131 207.119L167.052 189.648C166.692 189.28 166.112 189.245 165.711 189.567Z" fill="url(#paint0_linear_6625_29065)"/>
<line x1="147.25" y1="226.75" x2="184.75" y2="226.75" stroke="#CBD5E1" stroke-width="2.5" stroke-linecap="round"/>
<line x1="147" y1="234" x2="201" y2="234" stroke="#E2E8F0" stroke-width="2" stroke-linecap="round"/>
<line x1="147" y1="240" x2="195" y2="240" stroke="#E2E8F0" stroke-width="2" stroke-linecap="round"/>
<circle cx="188" cy="189" r="5" fill="#CBD5E1"/>
<circle cx="200" cy="253" r="4" fill="#E2E8F0"/>
<circle cx="200" cy="252" r="1" fill="#94A3B8"/>
<path d="M202 254.5C202 254.303 201.948 254.108 201.848 253.926C201.747 253.744 201.6 253.579 201.414 253.439C201.228 253.3 201.008 253.19 200.765 253.114C200.523 253.039 200.263 253 200 253C199.737 253 199.477 253.039 199.235 253.114C198.992 253.19 198.772 253.3 198.586 253.439C198.4 253.579 198.253 253.744 198.152 253.926C198.052 254.108 198 254.303 198 254.5L200 254.5H202Z" fill="#94A3B8"/>
<rect x="326.25" y="175.25" width="79.5" height="90.9286" rx="5.75" fill="white" stroke="#E2E8F0" stroke-width="0.5"/>
<g clip-path="url(#clip5_6625_29065)">
<path d="M340.501 249.416L341.145 250.72L342.585 250.931L341.543 251.945L341.789 253.379L340.501 252.702L339.214 253.379L339.46 251.945L338.418 250.931L339.858 250.72L340.501 249.416Z" stroke="#F59E0B" stroke-width="0.416667" stroke-linecap="round" stroke-linejoin="round"/>
</g>
<g clip-path="url(#clip6_6625_29065)">
<path d="M345.501 249.416L346.145 250.72L347.585 250.931L346.543 251.945L346.789 253.379L345.501 252.702L344.214 253.379L344.46 251.945L343.418 250.931L344.858 250.72L345.501 249.416Z" stroke="#F59E0B" stroke-width="0.416667" stroke-linecap="round" stroke-linejoin="round"/>
</g>
<g clip-path="url(#clip7_6625_29065)">
<path d="M350.501 249.416L351.145 250.72L352.585 250.931L351.543 251.945L351.789 253.379L350.501 252.702L349.214 253.379L349.46 251.945L348.418 250.931L349.858 250.72L350.501 249.416Z" stroke="#F59E0B" stroke-width="0.416667" stroke-linecap="round" stroke-linejoin="round"/>
</g>
<g clip-path="url(#clip8_6625_29065)">
<path d="M355.501 249.416L356.145 250.72L357.585 250.931L356.543 251.945L356.789 253.379L355.501 252.702L354.214 253.379L354.46 251.945L353.418 250.931L354.858 250.72L355.501 249.416Z" stroke="#F59E0B" stroke-width="0.416667" stroke-linecap="round" stroke-linejoin="round"/>
</g>
<g clip-path="url(#clip9_6625_29065)">
<path d="M360.501 249.416L361.145 250.72L362.585 250.931L361.543 251.945L361.789 253.379L360.501 252.702L359.214 253.379L359.46 251.945L358.418 250.931L359.858 250.72L360.501 249.416Z" stroke="#F59E0B" stroke-width="0.416667" stroke-linecap="round" stroke-linejoin="round"/>
</g>
<path d="M326 181C326 177.686 328.686 175 332 175H400C403.314 175 406 177.686 406 181V215H326V181Z" fill="#E2E8F0"/>
<path d="M357.711 189.567L326 215H406V207.72L392.455 197.742C392.112 197.489 391.647 197.481 391.296 197.722L377.412 207.245C377.011 207.519 376.471 207.466 376.131 207.119L359.052 189.648C358.692 189.28 358.112 189.245 357.711 189.567Z" fill="url(#paint1_linear_6625_29065)"/>
<line x1="339.25" y1="226.75" x2="376.75" y2="226.75" stroke="#CBD5E1" stroke-width="2.5" stroke-linecap="round"/>
<line x1="339" y1="234" x2="393" y2="234" stroke="#E2E8F0" stroke-width="2" stroke-linecap="round"/>
<line x1="339" y1="240" x2="387" y2="240" stroke="#E2E8F0" stroke-width="2" stroke-linecap="round"/>
<circle cx="380" cy="189" r="5" fill="#CBD5E1"/>
<circle cx="392" cy="253" r="4" fill="#E2E8F0"/>
<circle cx="392" cy="252" r="1" fill="#94A3B8"/>
<path d="M394 254.5C394 254.303 393.948 254.108 393.848 253.926C393.747 253.744 393.6 253.579 393.414 253.439C393.228 253.3 393.008 253.19 392.765 253.114C392.523 253.039 392.263 253 392 253C391.737 253 391.477 253.039 391.235 253.114C390.992 253.19 390.772 253.3 390.586 253.439C390.4 253.579 390.253 253.744 390.152 253.926C390.052 254.108 390 254.303 390 254.5L392 254.5H394Z" fill="#94A3B8"/>
<g filter="url(#filter1_d_6625_29065)">
<rect x="230.25" y="175.25" width="79.5" height="90.9286" rx="5.75" fill="white" stroke="#E2E8F0" stroke-width="0.5"/>
<g clip-path="url(#clip10_6625_29065)">
<path d="M244.501 249.416L245.145 250.72L246.585 250.931L245.543 251.945L245.789 253.379L244.501 252.702L243.214 253.379L243.46 251.945L242.418 250.931L243.858 250.72L244.501 249.416Z" stroke="#F59E0B" stroke-width="0.416667" stroke-linecap="round" stroke-linejoin="round"/>
</g>
<g clip-path="url(#clip11_6625_29065)">
<path d="M249.501 249.416L250.145 250.72L251.585 250.931L250.543 251.945L250.789 253.379L249.501 252.702L248.214 253.379L248.46 251.945L247.418 250.931L248.858 250.72L249.501 249.416Z" stroke="#F59E0B" stroke-width="0.416667" stroke-linecap="round" stroke-linejoin="round"/>
</g>
<g clip-path="url(#clip12_6625_29065)">
<path d="M254.501 249.416L255.145 250.72L256.585 250.931L255.543 251.945L255.789 253.379L254.501 252.702L253.214 253.379L253.46 251.945L252.418 250.931L253.858 250.72L254.501 249.416Z" stroke="#F59E0B" stroke-width="0.416667" stroke-linecap="round" stroke-linejoin="round"/>
</g>
<g clip-path="url(#clip13_6625_29065)">
<path d="M259.501 249.416L260.145 250.72L261.585 250.931L260.543 251.945L260.789 253.379L259.501 252.702L258.214 253.379L258.46 251.945L257.418 250.931L258.858 250.72L259.501 249.416Z" stroke="#F59E0B" stroke-width="0.416667" stroke-linecap="round" stroke-linejoin="round"/>
</g>
<g clip-path="url(#clip14_6625_29065)">
<path d="M264.501 249.416L265.145 250.72L266.585 250.931L265.543 251.945L265.789 253.379L264.501 252.702L263.214 253.379L263.46 251.945L262.418 250.931L263.858 250.72L264.501 249.416Z" stroke="#F59E0B" stroke-width="0.416667" stroke-linecap="round" stroke-linejoin="round"/>
</g>
<path d="M230 181C230 177.686 232.686 175 236 175H304C307.314 175 310 177.686 310 181V215H230V181Z" fill="#E2E8F0"/>
<path d="M261.711 189.567L230 215H310V207.72L296.455 197.742C296.112 197.489 295.647 197.481 295.296 197.722L281.412 207.245C281.011 207.519 280.471 207.466 280.131 207.119L263.052 189.648C262.692 189.28 262.112 189.245 261.711 189.567Z" fill="url(#paint2_linear_6625_29065)"/>
<line x1="243.25" y1="226.75" x2="280.75" y2="226.75" stroke="#754FFE" stroke-width="2.5" stroke-linecap="round"/>
<line x1="243" y1="234" x2="297" y2="234" stroke="#E2E8F0" stroke-width="2" stroke-linecap="round"/>
<line x1="243" y1="240" x2="291" y2="240" stroke="#E2E8F0" stroke-width="2" stroke-linecap="round"/>
<circle cx="284" cy="189" r="5" fill="#CBD5E1"/>
<circle cx="296" cy="253" r="4" fill="#E2E8F0"/>
<circle cx="296" cy="252" r="1" fill="#94A3B8"/>
<path d="M298 254.5C298 254.303 297.948 254.108 297.848 253.926C297.747 253.744 297.6 253.579 297.414 253.439C297.228 253.3 297.008 253.19 296.765 253.114C296.523 253.039 296.263 253 296 253C295.737 253 295.477 253.039 295.235 253.114C294.992 253.19 294.772 253.3 294.586 253.439C294.4 253.579 294.253 253.744 294.152 253.926C294.052 254.108 294 254.303 294 254.5L296 254.5H298Z" fill="#94A3B8"/>
</g>
<rect x="422.25" y="175.25" width="79.5" height="90.9286" rx="5.75" fill="white" stroke="#E2E8F0" stroke-width="0.5"/>
<g clip-path="url(#clip15_6625_29065)">
<path d="M436.501 249.416L437.145 250.72L438.585 250.931L437.543 251.945L437.789 253.379L436.501 252.702L435.214 253.379L435.46 251.945L434.418 250.931L435.858 250.72L436.501 249.416Z" stroke="#F59E0B" stroke-width="0.416667" stroke-linecap="round" stroke-linejoin="round"/>
</g>
<g clip-path="url(#clip16_6625_29065)">
<path d="M441.501 249.416L442.145 250.72L443.585 250.931L442.543 251.945L442.789 253.379L441.501 252.702L440.214 253.379L440.46 251.945L439.418 250.931L440.858 250.72L441.501 249.416Z" stroke="#F59E0B" stroke-width="0.416667" stroke-linecap="round" stroke-linejoin="round"/>
</g>
<g clip-path="url(#clip17_6625_29065)">
<path d="M446.501 249.416L447.145 250.72L448.585 250.931L447.543 251.945L447.789 253.379L446.501 252.702L445.214 253.379L445.46 251.945L444.418 250.931L445.858 250.72L446.501 249.416Z" stroke="#F59E0B" stroke-width="0.416667" stroke-linecap="round" stroke-linejoin="round"/>
</g>
<g clip-path="url(#clip18_6625_29065)">
<path d="M451.501 249.416L452.145 250.72L453.585 250.931L452.543 251.945L452.789 253.379L451.501 252.702L450.214 253.379L450.46 251.945L449.418 250.931L450.858 250.72L451.501 249.416Z" stroke="#F59E0B" stroke-width="0.416667" stroke-linecap="round" stroke-linejoin="round"/>
</g>
<g clip-path="url(#clip19_6625_29065)">
<path d="M456.501 249.416L457.145 250.72L458.585 250.931L457.543 251.945L457.789 253.379L456.501 252.702L455.214 253.379L455.46 251.945L454.418 250.931L455.858 250.72L456.501 249.416Z" stroke="#F59E0B" stroke-width="0.416667" stroke-linecap="round" stroke-linejoin="round"/>
</g>
<path d="M422 181C422 177.686 424.686 175 428 175H496C499.314 175 502 177.686 502 181V215H422V181Z" fill="#E2E8F0"/>
<path d="M453.711 189.567L422 215H502V207.72L488.455 197.742C488.112 197.489 487.647 197.481 487.296 197.722L473.412 207.245C473.011 207.519 472.471 207.466 472.131 207.119L455.052 189.648C454.692 189.28 454.112 189.245 453.711 189.567Z" fill="url(#paint3_linear_6625_29065)"/>
<line x1="435.25" y1="226.75" x2="472.75" y2="226.75" stroke="#CBD5E1" stroke-width="2.5" stroke-linecap="round"/>
<line x1="435" y1="234" x2="489" y2="234" stroke="#E2E8F0" stroke-width="2" stroke-linecap="round"/>
<line x1="435" y1="240" x2="483" y2="240" stroke="#E2E8F0" stroke-width="2" stroke-linecap="round"/>
<circle cx="476" cy="189" r="5" fill="#CBD5E1"/>
<circle cx="488" cy="253" r="4" fill="#E2E8F0"/>
<circle cx="488" cy="252" r="1" fill="#94A3B8"/>
<path d="M490 254.5C490 254.303 489.948 254.108 489.848 253.926C489.747 253.744 489.6 253.579 489.414 253.439C489.228 253.3 489.008 253.19 488.765 253.114C488.523 253.039 488.263 253 488 253C487.737 253 487.477 253.039 487.235 253.114C486.992 253.19 486.772 253.3 486.586 253.439C486.4 253.579 486.253 253.744 486.152 253.926C486.052 254.108 486 254.303 486 254.5L488 254.5H490Z" fill="#94A3B8"/>
<defs>
<filter id="filter0_d_6625_29065" x="83" y="81" width="470" height="241" filterUnits="userSpaceOnUse" color-interpolation-filters="sRGB">
<feFlood flood-opacity="0" result="BackgroundImageFix"/>
<feColorMatrix in="SourceAlpha" type="matrix" values="0 0 0 0 0 0 0 0 0 0 0 0 0 0 0 0 0 0 127 0" result="hardAlpha"/>
<feOffset dy="1"/>
<feGaussianBlur stdDeviation="1.5"/>
<feColorMatrix type="matrix" values="0 0 0 0 0.0117647 0 0 0 0 0 0 0 0 0 0.278431 0 0 0 0.13 0"/>
<feBlend mode="normal" in2="BackgroundImageFix" result="effect1_dropShadow_6625_29065"/>
<feBlend mode="normal" in="SourceGraphic" in2="effect1_dropShadow_6625_29065" result="shape"/>
</filter>
<filter id="filter1_d_6625_29065" x="224" y="172" width="92" height="103.429" filterUnits="userSpaceOnUse" color-interpolation-filters="sRGB">
<feFlood flood-opacity="0" result="BackgroundImageFix"/>
<feColorMatrix in="SourceAlpha" type="matrix" values="0 0 0 0 0 0 0 0 0 0 0 0 0 0 0 0 0 0 127 0" result="hardAlpha"/>
<feOffset dy="3"/>
<feGaussianBlur stdDeviation="3"/>
<feColorMatrix type="matrix" values="0 0 0 0 0.0117647 0 0 0 0 0 0 0 0 0 0.278431 0 0 0 0.1 0"/>
<feBlend mode="normal" in2="BackgroundImageFix" result="effect1_dropShadow_6625_29065"/>
<feBlend mode="normal" in="SourceGraphic" in2="effect1_dropShadow_6625_29065" result="shape"/>
</filter>
<linearGradient id="paint0_linear_6625_29065" x1="174" y1="175.103" x2="174" y2="215" gradientUnits="userSpaceOnUse">
<stop stop-color="#B4BED8"/>
<stop offset="1" stop-color="#C1C6D2" stop-opacity="0"/>
</linearGradient>
<linearGradient id="paint1_linear_6625_29065" x1="366" y1="175.103" x2="366" y2="215" gradientUnits="userSpaceOnUse">
<stop stop-color="#B4BED8"/>
<stop offset="1" stop-color="#C1C6D2" stop-opacity="0"/>
</linearGradient>
<linearGradient id="paint2_linear_6625_29065" x1="270" y1="175.103" x2="270" y2="215" gradientUnits="userSpaceOnUse">
<stop stop-color="#B4BED8"/>
<stop offset="1" stop-color="#C1C6D2" stop-opacity="0"/>
</linearGradient>
<linearGradient id="paint3_linear_6625_29065" x1="462" y1="175.103" x2="462" y2="215" gradientUnits="userSpaceOnUse">
<stop stop-color="#B4BED8"/>
<stop offset="1" stop-color="#C1C6D2" stop-opacity="0"/>
</linearGradient>
<clipPath id="clip0_6625_29065">
<rect width="5" height="5" fill="white" transform="translate(146 249)"/>
</clipPath>
<clipPath id="clip1_6625_29065">
<rect width="5" height="5" fill="white" transform="translate(151 249)"/>
</clipPath>
<clipPath id="clip2_6625_29065">
<rect width="5" height="5" fill="white" transform="translate(156 249)"/>
</clipPath>
<clipPath id="clip3_6625_29065">
<rect width="5" height="5" fill="white" transform="translate(161 249)"/>
</clipPath>
<clipPath id="clip4_6625_29065">
<rect width="5" height="5" fill="white" transform="translate(166 249)"/>
</clipPath>
<clipPath id="clip5_6625_29065">
<rect width="5" height="5" fill="white" transform="translate(338 249)"/>
</clipPath>
<clipPath id="clip6_6625_29065">
<rect width="5" height="5" fill="white" transform="translate(343 249)"/>
</clipPath>
<clipPath id="clip7_6625_29065">
<rect width="5" height="5" fill="white" transform="translate(348 249)"/>
</clipPath>
<clipPath id="clip8_6625_29065">
<rect width="5" height="5" fill="white" transform="translate(353 249)"/>
</clipPath>
<clipPath id="clip9_6625_29065">
<rect width="5" height="5" fill="white" transform="translate(358 249)"/>
</clipPath>
<clipPath id="clip10_6625_29065">
<rect width="5" height="5" fill="white" transform="translate(242 249)"/>
</clipPath>
<clipPath id="clip11_6625_29065">
<rect width="5" height="5" fill="white" transform="translate(247 249)"/>
</clipPath>
<clipPath id="clip12_6625_29065">
<rect width="5" height="5" fill="white" transform="translate(252 249)"/>
</clipPath>
<clipPath id="clip13_6625_29065">
<rect width="5" height="5" fill="white" transform="translate(257 249)"/>
</clipPath>
<clipPath id="clip14_6625_29065">
<rect width="5" height="5" fill="white" transform="translate(262 249)"/>
</clipPath>
<clipPath id="clip15_6625_29065">
<rect width="5" height="5" fill="white" transform="translate(434 249)"/>
</clipPath>
<clipPath id="clip16_6625_29065">
<rect width="5" height="5" fill="white" transform="translate(439 249)"/>
</clipPath>
<clipPath id="clip17_6625_29065">
<rect width="5" height="5" fill="white" transform="translate(444 249)"/>
</clipPath>
<clipPath id="clip18_6625_29065">
<rect width="5" height="5" fill="white" transform="translate(449 249)"/>
</clipPath>
<clipPath id="clip19_6625_29065">
<rect width="5" height="5" fill="white" transform="translate(454 249)"/>
</clipPath>
</defs>
</svg>
