<svg width="636" height="400" viewBox="0 0 636 400" fill="none" xmlns="http://www.w3.org/2000/svg">
<rect width="636" height="400" fill="#E2E8F0"/>
<g filter="url(#filter0_d_6114_29250)">
<rect x="87" y="59" width="462" height="282" rx="12" fill="white"/>
</g>
<path d="M143.239 130.674C143.188 130.158 142.969 129.758 142.581 129.472C142.193 129.187 141.667 129.044 141.002 129.044C140.55 129.044 140.169 129.108 139.858 129.236C139.547 129.359 139.308 129.532 139.142 129.754C138.98 129.975 138.899 130.227 138.899 130.508C138.891 130.742 138.94 130.947 139.046 131.121C139.157 131.296 139.308 131.447 139.5 131.575C139.692 131.699 139.913 131.808 140.165 131.901C140.416 131.991 140.685 132.067 140.97 132.131L142.146 132.413C142.717 132.54 143.241 132.711 143.719 132.924C144.196 133.137 144.609 133.399 144.959 133.71C145.308 134.021 145.579 134.388 145.771 134.81C145.967 135.232 146.067 135.715 146.071 136.261C146.067 137.062 145.862 137.756 145.457 138.344C145.057 138.928 144.477 139.382 143.719 139.706C142.964 140.026 142.055 140.185 140.989 140.185C139.933 140.185 139.012 140.023 138.228 139.7C137.448 139.376 136.839 138.896 136.4 138.261C135.965 137.622 135.737 136.832 135.716 135.89H138.394C138.424 136.329 138.55 136.695 138.771 136.989C138.997 137.279 139.298 137.499 139.673 137.648C140.052 137.793 140.48 137.865 140.957 137.865C141.426 137.865 141.833 137.797 142.178 137.661C142.528 137.524 142.798 137.335 142.99 137.092C143.182 136.849 143.278 136.57 143.278 136.254C143.278 135.96 143.19 135.713 143.016 135.513C142.845 135.312 142.594 135.142 142.261 135.001C141.933 134.861 141.531 134.733 141.053 134.618L139.628 134.26C138.524 133.991 137.653 133.572 137.013 133.001C136.374 132.43 136.057 131.661 136.061 130.693C136.057 129.901 136.268 129.208 136.694 128.616C137.124 128.023 137.714 127.561 138.464 127.229C139.214 126.896 140.067 126.73 141.021 126.73C141.993 126.73 142.841 126.896 143.565 127.229C144.294 127.561 144.861 128.023 145.266 128.616C145.67 129.208 145.879 129.894 145.892 130.674H143.239ZM153.104 130.182V132.227H147.191V130.182H153.104ZM148.534 127.83H151.257V136.983C151.257 137.234 151.295 137.43 151.372 137.571C151.448 137.707 151.555 137.803 151.691 137.859C151.832 137.914 151.994 137.942 152.177 137.942C152.305 137.942 152.433 137.931 152.561 137.91C152.688 137.884 152.786 137.865 152.855 137.852L153.283 139.879C153.146 139.921 152.955 139.97 152.708 140.026C152.46 140.085 152.16 140.121 151.806 140.134C151.15 140.16 150.575 140.072 150.08 139.872C149.59 139.672 149.209 139.361 148.936 138.939C148.664 138.517 148.529 137.984 148.534 137.341V127.83ZM157.677 140.185C157.051 140.185 156.493 140.077 156.003 139.859C155.513 139.638 155.125 139.312 154.839 138.881C154.558 138.447 154.417 137.906 154.417 137.258C154.417 136.712 154.518 136.254 154.718 135.884C154.918 135.513 155.191 135.214 155.536 134.989C155.881 134.763 156.273 134.592 156.712 134.477C157.155 134.362 157.62 134.281 158.106 134.234C158.677 134.175 159.137 134.119 159.486 134.068C159.836 134.013 160.089 133.932 160.247 133.825C160.405 133.719 160.483 133.561 160.483 133.352V133.314C160.483 132.909 160.356 132.596 160.1 132.374C159.849 132.153 159.491 132.042 159.026 132.042C158.536 132.042 158.146 132.151 157.856 132.368C157.567 132.581 157.375 132.849 157.281 133.173L154.763 132.969C154.89 132.372 155.142 131.857 155.517 131.422C155.892 130.983 156.376 130.646 156.968 130.412C157.564 130.173 158.255 130.054 159.039 130.054C159.584 130.054 160.106 130.118 160.605 130.246C161.108 130.374 161.553 130.572 161.941 130.84C162.333 131.109 162.642 131.454 162.868 131.876C163.094 132.293 163.206 132.794 163.206 133.378V140H160.624V138.638H160.547C160.39 138.945 160.179 139.216 159.915 139.45C159.65 139.68 159.333 139.862 158.962 139.994C158.591 140.121 158.163 140.185 157.677 140.185ZM158.457 138.306C158.858 138.306 159.211 138.227 159.518 138.07C159.825 137.908 160.066 137.69 160.241 137.418C160.415 137.145 160.503 136.836 160.503 136.491V135.449C160.417 135.504 160.3 135.555 160.151 135.602C160.006 135.645 159.842 135.685 159.659 135.724C159.476 135.758 159.292 135.79 159.109 135.82C158.926 135.845 158.76 135.869 158.611 135.89C158.291 135.937 158.012 136.011 157.773 136.114C157.535 136.216 157.349 136.354 157.217 136.529C157.085 136.7 157.019 136.913 157.019 137.168C157.019 137.539 157.153 137.822 157.422 138.018C157.694 138.21 158.04 138.306 158.457 138.306ZM170.541 130.182V132.227H164.629V130.182H170.541ZM165.971 127.83H168.694V136.983C168.694 137.234 168.732 137.43 168.809 137.571C168.886 137.707 168.992 137.803 169.129 137.859C169.269 137.914 169.431 137.942 169.615 137.942C169.742 137.942 169.87 137.931 169.998 137.91C170.126 137.884 170.224 137.865 170.292 137.852L170.72 139.879C170.584 139.921 170.392 139.97 170.145 140.026C169.898 140.085 169.597 140.121 169.244 140.134C168.588 140.16 168.012 140.072 167.518 139.872C167.028 139.672 166.646 139.361 166.374 138.939C166.101 138.517 165.967 137.984 165.971 137.341V127.83ZM180.361 132.982L177.868 133.135C177.826 132.922 177.734 132.73 177.593 132.56C177.453 132.385 177.267 132.246 177.037 132.144C176.811 132.038 176.541 131.984 176.225 131.984C175.804 131.984 175.448 132.074 175.158 132.253C174.868 132.428 174.723 132.662 174.723 132.956C174.723 133.19 174.817 133.388 175.005 133.55C175.192 133.712 175.514 133.842 175.97 133.94L177.747 134.298C178.701 134.494 179.413 134.81 179.882 135.244C180.35 135.679 180.585 136.25 180.585 136.957C180.585 137.601 180.395 138.165 180.016 138.651C179.641 139.137 179.125 139.516 178.469 139.789C177.817 140.058 177.065 140.192 176.213 140.192C174.913 140.192 173.877 139.921 173.106 139.38C172.339 138.835 171.89 138.093 171.757 137.156L174.436 137.015C174.517 137.411 174.713 137.714 175.024 137.923C175.335 138.127 175.733 138.229 176.219 138.229C176.696 138.229 177.08 138.138 177.37 137.955C177.664 137.767 177.813 137.526 177.817 137.232C177.813 136.985 177.708 136.783 177.504 136.625C177.299 136.463 176.984 136.339 176.558 136.254L174.858 135.915C173.899 135.724 173.185 135.391 172.716 134.918C172.252 134.445 172.02 133.842 172.02 133.109C172.02 132.479 172.19 131.935 172.531 131.479C172.876 131.023 173.36 130.672 173.982 130.425C174.608 130.178 175.341 130.054 176.181 130.054C177.421 130.054 178.397 130.316 179.108 130.84C179.824 131.364 180.242 132.078 180.361 132.982Z" fill="#475569"/>
<path d="M135.965 235V232.724L140.74 228.544C141.098 228.22 141.403 227.924 141.654 227.656C141.906 227.383 142.097 227.11 142.229 226.837C142.362 226.56 142.428 226.26 142.428 225.936C142.428 225.574 142.349 225.265 142.191 225.009C142.033 224.749 141.816 224.549 141.539 224.408C141.262 224.268 140.945 224.197 140.587 224.197C140.224 224.197 139.907 224.272 139.634 224.421C139.362 224.566 139.148 224.777 138.995 225.054C138.846 225.331 138.771 225.668 138.771 226.064H135.773C135.773 225.173 135.974 224.404 136.374 223.756C136.775 223.109 137.337 222.61 138.062 222.261C138.79 221.907 139.636 221.73 140.599 221.73C141.592 221.73 142.455 221.896 143.188 222.229C143.921 222.561 144.488 223.026 144.888 223.622C145.293 224.214 145.496 224.903 145.496 225.687C145.496 226.185 145.396 226.68 145.195 227.17C144.995 227.66 144.635 228.201 144.115 228.793C143.599 229.386 142.866 230.095 141.916 230.922L140.35 232.366V232.45H145.656V235H135.965ZM152.858 235.32C151.716 235.32 150.731 235.049 149.905 234.508C149.078 233.962 148.441 233.18 147.993 232.162C147.546 231.139 147.324 229.91 147.329 228.474C147.333 227.038 147.557 225.819 148 224.817C148.447 223.812 149.082 223.047 149.905 222.523C150.731 221.994 151.716 221.73 152.858 221.73C154 221.73 154.984 221.994 155.811 222.523C156.642 223.047 157.281 223.812 157.729 224.817C158.176 225.823 158.398 227.042 158.393 228.474C158.393 229.914 158.17 231.146 157.722 232.168C157.275 233.191 156.638 233.973 155.811 234.514C154.988 235.051 154.004 235.32 152.858 235.32ZM152.858 232.731C153.54 232.731 154.091 232.384 154.513 231.689C154.935 230.99 155.144 229.918 155.14 228.474C155.14 227.528 155.044 226.748 154.852 226.134C154.66 225.516 154.394 225.056 154.053 224.754C153.712 224.451 153.314 224.3 152.858 224.3C152.18 224.3 151.633 224.643 151.215 225.329C150.797 226.011 150.586 227.059 150.582 228.474C150.578 229.433 150.67 230.227 150.857 230.858C151.049 231.489 151.317 231.96 151.662 232.271C152.008 232.577 152.406 232.731 152.858 232.731ZM160.231 221.909H164.149L167.473 230.014H167.627L170.95 221.909H174.869V235H171.788V226.959H171.679L168.534 234.917H166.566L163.421 226.914H163.312V235H160.231V221.909Z" fill="#754FFE"/>
<path d="M236.977 235.179C236.022 235.179 235.174 235.006 234.433 234.661C233.691 234.316 233.105 233.841 232.675 233.236C232.249 232.631 232.027 231.936 232.01 231.152H235.078C235.104 231.634 235.3 232.021 235.666 232.315C236.033 232.605 236.469 232.75 236.977 232.75C237.373 232.75 237.724 232.663 238.031 232.488C238.338 232.313 238.579 232.068 238.754 231.753C238.928 231.433 239.013 231.067 239.009 230.653C239.013 230.232 238.926 229.863 238.747 229.548C238.572 229.232 238.33 228.987 238.018 228.812C237.712 228.634 237.358 228.544 236.957 228.544C236.578 228.54 236.218 228.623 235.877 228.793C235.54 228.964 235.285 229.196 235.11 229.49L232.317 228.966L232.886 221.909H241.285V224.46H235.487L235.187 227.547H235.263C235.481 227.185 235.83 226.886 236.312 226.652C236.798 226.413 237.349 226.294 237.967 226.294C238.751 226.294 239.45 226.477 240.064 226.844C240.682 227.206 241.168 227.709 241.521 228.352C241.879 228.996 242.058 229.733 242.058 230.564C242.058 231.463 241.845 232.26 241.419 232.955C240.997 233.649 240.405 234.195 239.642 234.591C238.884 234.983 237.995 235.179 236.977 235.179ZM244.351 235L249.631 224.543V224.46H243.456V221.909H252.904V224.479L247.605 235H244.351ZM254.667 235V221.909H257.831V227.445H258.003L262.331 221.909H266.057L261.417 227.751L266.14 235H262.356L259.096 229.854L257.831 231.452V235H254.667Z" fill="#754FFE"/>
<path d="M327.965 235V232.724L332.74 228.544C333.098 228.22 333.403 227.924 333.654 227.656C333.906 227.383 334.097 227.11 334.229 226.837C334.362 226.56 334.428 226.26 334.428 225.936C334.428 225.574 334.349 225.265 334.191 225.009C334.033 224.749 333.816 224.549 333.539 224.408C333.262 224.268 332.945 224.197 332.587 224.197C332.224 224.197 331.907 224.272 331.634 224.421C331.362 224.566 331.148 224.777 330.995 225.054C330.846 225.331 330.771 225.668 330.771 226.064H327.773C327.773 225.173 327.974 224.404 328.374 223.756C328.775 223.109 329.337 222.61 330.062 222.261C330.79 221.907 331.636 221.73 332.599 221.73C333.592 221.73 334.455 221.896 335.188 222.229C335.921 222.561 336.488 223.026 336.888 223.622C337.293 224.214 337.496 224.903 337.496 225.687C337.496 226.185 337.396 226.68 337.195 227.17C336.995 227.66 336.635 228.201 336.115 228.793C335.599 229.386 334.866 230.095 333.916 230.922L332.35 232.366V232.45H337.656V235H327.965ZM345.497 221.909V235H342.339V224.862H342.263L339.335 226.652V223.916L342.563 221.909H345.497ZM348.417 235V221.909H351.581V227.445H351.753L356.081 221.909H359.807L355.167 227.751L359.89 235H356.106L352.846 229.854L351.581 231.452V235H348.417Z" fill="#754FFE"/>
<path d="M428.945 235.179C427.947 235.179 427.063 235.009 426.292 234.668C425.525 234.322 424.92 233.847 424.477 233.242C424.033 232.637 423.808 231.94 423.799 231.152H426.982C426.995 231.437 427.087 231.691 427.257 231.913C427.428 232.13 427.66 232.3 427.954 232.424C428.248 232.548 428.582 232.609 428.957 232.609C429.332 232.609 429.663 232.543 429.948 232.411C430.238 232.275 430.464 232.089 430.626 231.855C430.788 231.616 430.866 231.344 430.862 231.037C430.866 230.73 430.779 230.457 430.6 230.219C430.421 229.98 430.168 229.795 429.839 229.663C429.516 229.531 429.132 229.464 428.689 229.464H427.417V227.214H428.689C429.077 227.214 429.418 227.151 429.712 227.023C430.01 226.895 430.242 226.716 430.408 226.486C430.575 226.251 430.656 225.983 430.651 225.68C430.656 225.386 430.585 225.129 430.44 224.907C430.3 224.681 430.102 224.506 429.846 224.383C429.594 224.259 429.303 224.197 428.97 224.197C428.621 224.197 428.303 224.259 428.018 224.383C427.737 224.506 427.513 224.681 427.347 224.907C427.18 225.133 427.093 225.395 427.085 225.693H424.061C424.07 224.913 424.287 224.227 424.713 223.635C425.139 223.038 425.719 222.572 426.452 222.235C427.189 221.898 428.028 221.73 428.97 221.73C429.908 221.73 430.732 221.894 431.444 222.222C432.156 222.55 432.71 222.998 433.106 223.565C433.502 224.127 433.7 224.764 433.7 225.476C433.705 226.213 433.464 226.82 432.978 227.298C432.496 227.775 431.876 228.069 431.118 228.18V228.282C432.132 228.401 432.897 228.729 433.413 229.266C433.933 229.803 434.19 230.474 434.186 231.28C434.186 232.038 433.962 232.712 433.515 233.3C433.072 233.884 432.454 234.344 431.661 234.68C430.873 235.013 429.967 235.179 428.945 235.179ZM441.085 235.179C440.066 235.179 439.156 235.017 438.355 234.693C437.558 234.365 436.932 233.922 436.476 233.364C436.024 232.801 435.798 232.166 435.798 231.459C435.798 230.918 435.928 230.421 436.188 229.969C436.448 229.518 436.8 229.143 437.243 228.844C437.691 228.542 438.189 228.348 438.739 228.263V228.161C438.019 228.028 437.428 227.694 436.968 227.157C436.512 226.62 436.284 225.991 436.284 225.271C436.284 224.589 436.491 223.982 436.904 223.45C437.322 222.917 437.891 222.497 438.611 222.19C439.335 221.884 440.16 221.73 441.085 221.73C442.009 221.73 442.832 221.884 443.552 222.19C444.276 222.497 444.845 222.917 445.259 223.45C445.676 223.982 445.885 224.589 445.885 225.271C445.885 225.996 445.653 226.626 445.188 227.163C444.728 227.696 444.142 228.028 443.431 228.161V228.263C443.976 228.348 444.47 228.542 444.914 228.844C445.361 229.143 445.715 229.518 445.975 229.969C446.239 230.421 446.371 230.918 446.371 231.459C446.371 232.166 446.143 232.801 445.687 233.364C445.231 233.922 444.605 234.365 443.808 234.693C443.015 235.017 442.107 235.179 441.085 235.179ZM441.085 232.935C441.472 232.935 441.813 232.863 442.107 232.718C442.401 232.569 442.632 232.362 442.798 232.098C442.968 231.834 443.053 231.536 443.053 231.203C443.053 230.862 442.968 230.56 442.798 230.295C442.627 230.031 442.393 229.825 442.095 229.675C441.801 229.522 441.464 229.445 441.085 229.445C440.71 229.445 440.373 229.522 440.075 229.675C439.776 229.825 439.542 230.031 439.372 230.295C439.201 230.56 439.116 230.862 439.116 231.203C439.116 231.536 439.199 231.834 439.365 232.098C439.536 232.358 439.768 232.562 440.062 232.712C440.36 232.861 440.701 232.935 441.085 232.935ZM441.085 227.214C441.417 227.214 441.711 227.146 441.967 227.01C442.227 226.874 442.429 226.684 442.574 226.441C442.723 226.198 442.798 225.923 442.798 225.616C442.798 225.31 442.723 225.039 442.574 224.805C442.429 224.57 442.229 224.387 441.973 224.255C441.718 224.119 441.421 224.05 441.085 224.05C440.752 224.05 440.456 224.119 440.196 224.255C439.936 224.387 439.734 224.57 439.589 224.805C439.444 225.039 439.372 225.31 439.372 225.616C439.372 225.923 439.444 226.198 439.589 226.441C439.738 226.68 439.943 226.869 440.203 227.01C440.463 227.146 440.757 227.214 441.085 227.214ZM453.549 235.32C452.407 235.32 451.423 235.049 450.596 234.508C449.769 233.962 449.132 233.18 448.685 232.162C448.237 231.139 448.016 229.91 448.02 228.474C448.024 227.038 448.248 225.819 448.691 224.817C449.139 223.812 449.774 223.047 450.596 222.523C451.423 221.994 452.407 221.73 453.549 221.73C454.691 221.73 455.676 221.994 456.502 222.523C457.333 223.047 457.972 223.812 458.42 224.817C458.867 225.823 459.089 227.042 459.085 228.474C459.085 229.914 458.861 231.146 458.414 232.168C457.966 233.191 457.329 233.973 456.502 234.514C455.68 235.051 454.695 235.32 453.549 235.32ZM453.549 232.731C454.231 232.731 454.783 232.384 455.205 231.689C455.627 230.99 455.835 229.918 455.831 228.474C455.831 227.528 455.735 226.748 455.544 226.134C455.352 225.516 455.085 225.056 454.744 224.754C454.404 224.451 454.005 224.3 453.549 224.3C452.872 224.3 452.324 224.643 451.906 225.329C451.489 226.011 451.278 227.059 451.274 228.474C451.269 229.433 451.361 230.227 451.548 230.858C451.74 231.489 452.009 231.96 452.354 232.271C452.699 232.577 453.097 232.731 453.549 232.731ZM460.922 221.909H464.841L468.165 230.014H468.318L471.642 221.909H475.56V235H472.479V226.959H472.371L469.226 234.917H467.257L464.112 226.914H464.003V235H460.922V221.909Z" fill="#754FFE"/>
<path d="M135 156H276" stroke="#CBD5E1" stroke-width="4" stroke-linecap="round"/>
<path d="M135 166H226" stroke="#E2E8F0" stroke-width="4" stroke-linecap="round"/>
<path d="M135 200H215" stroke="#E2E8F0" stroke-linecap="round"/>
<path d="M231 200H311" stroke="#E2E8F0" stroke-linecap="round"/>
<path d="M327 200H407" stroke="#E2E8F0" stroke-linecap="round"/>
<path d="M423 200H503" stroke="#E2E8F0" stroke-linecap="round"/>
<path d="M135 245H168" stroke="#E2E8F0" stroke-width="4" stroke-linecap="round"/>
<path d="M231 245H264" stroke="#E2E8F0" stroke-width="4" stroke-linecap="round"/>
<path d="M327 245H377" stroke="#E2E8F0" stroke-width="4" stroke-linecap="round"/>
<path d="M423 245H488" stroke="#E2E8F0" stroke-width="4" stroke-linecap="round"/>
<defs>
<filter id="filter0_d_6114_29250" x="84" y="57" width="468" height="288" filterUnits="userSpaceOnUse" color-interpolation-filters="sRGB">
<feFlood flood-opacity="0" result="BackgroundImageFix"/>
<feColorMatrix in="SourceAlpha" type="matrix" values="0 0 0 0 0 0 0 0 0 0 0 0 0 0 0 0 0 0 127 0" result="hardAlpha"/>
<feOffset dy="1"/>
<feGaussianBlur stdDeviation="1.5"/>
<feColorMatrix type="matrix" values="0 0 0 0 0.0117647 0 0 0 0 0 0 0 0 0 0.278431 0 0 0 0.13 0"/>
<feBlend mode="normal" in2="BackgroundImageFix" result="effect1_dropShadow_6114_29250"/>
<feBlend mode="normal" in="SourceGraphic" in2="effect1_dropShadow_6114_29250" result="shape"/>
</filter>
</defs>
</svg>
