<svg width="56" height="56" viewBox="0 0 56 56" fill="none" xmlns="http://www.w3.org/2000/svg">
<rect width="56" height="56" fill="white"/>
<path d="M56 28C56 12.536 43.464 0 28 0C12.536 0 0 12.536 0 28C0 43.464 12.536 56 28 56C43.464 56 56 43.464 56 28Z" fill="white"/>
<path d="M26.1464 14.3532L13.6697 19.517C12.9753 19.8037 12.9809 20.7893 13.6809 21.0665L26.2081 26.0354C27.3113 26.4722 28.5377 26.4722 29.6353 26.0354L42.1681 21.0665C42.8681 20.7893 42.8736 19.8037 42.1792 19.517L29.7025 14.3532C28.5657 13.8823 27.2832 13.8823 26.1464 14.3532Z" fill="#FCB400"/>
<path d="M29.0361 28.7489V41.163C29.0361 41.7533 29.6298 42.1576 30.1786 41.9397L44.1449 36.5201C44.4641 36.3935 44.6714 36.0855 44.6714 35.7428V23.3293C44.6714 22.7385 44.0777 22.3341 43.5289 22.552L29.5626 27.9717C29.2434 28.0982 29.0361 28.4062 29.0361 28.7489Z" fill="#18BFFF"/>
<path d="M25.777 29.3897L21.633 31.3906L21.2074 31.5939L12.4602 35.7855C11.9058 36.0526 11.2002 35.6488 11.2002 35.0328V23.3815C11.2002 23.1586 11.3122 22.966 11.469 22.8209C11.5306 22.7571 11.6034 22.7044 11.6818 22.6624C11.889 22.537 12.1858 22.5034 12.4378 22.6037L25.7042 27.8598C26.3818 28.1269 26.4322 29.0722 25.777 29.3897Z" fill="#F82B60"/>
<path d="M25.308 29.8448L21.164 31.8457L11 23.276C11.0616 23.2122 11.1344 23.1595 11.2128 23.1175C11.42 22.9921 11.7168 22.9585 11.9744 23.0587L25.2352 28.3149C25.9128 28.582 25.9632 29.5273 25.308 29.8448Z" fill="black" fill-opacity="0.25"/>
</svg>
