<svg width="56" height="56" viewBox="0 0 56 56" fill="none" xmlns="http://www.w3.org/2000/svg">
<path d="M56 28C56 12.536 43.464 0 28 0C12.536 0 0 12.536 0 28C0 43.464 12.536 56 28 56C43.464 56 56 43.464 56 28Z" fill="#412A4C"/>
<path d="M29.2537 25.6923C29.3355 25.6054 29.434 25.5357 29.5427 25.487C29.6513 25.4383 29.7689 25.4117 29.8882 25.4085C30.0074 25.4055 30.1262 25.4259 30.2376 25.4689C30.3485 25.5119 30.4504 25.5764 30.5367 25.6589C30.6229 25.7413 30.6918 25.84 30.7399 25.9492C30.7875 26.0584 30.8133 26.176 30.8155 26.2953C30.8178 26.4145 30.7965 26.5331 30.7528 26.644C30.7091 26.7549 30.6436 26.8561 30.5607 26.9418C30.3944 27.1131 30.1676 27.2117 29.9285 27.2162C29.6899 27.2206 29.4592 27.1306 29.2867 26.9657C29.1143 26.8008 29.014 26.5744 29.0079 26.3358C29.0017 26.0973 29.0902 25.8659 29.2537 25.6923ZM34.4337 33.6464C34.4096 32.9497 34.2035 32.2137 33.6771 31.7276C33.0897 31.1852 32.2396 30.9362 31.4489 30.9362H27.9259C27.5782 30.9362 27.2702 30.6766 27.2702 30.3561C27.2702 30.0915 27.4494 29.8612 27.7053 29.795C27.7042 29.7946 27.7658 29.7793 27.8302 29.7583C28.4731 30.0546 29.1742 30.2043 29.882 30.1964C30.9684 30.1964 32.0565 29.8788 32.8539 29.138C33.6307 28.4162 33.993 27.4073 33.993 26.3744C33.993 25.3414 33.6307 24.3335 32.8539 23.6122C32.6271 23.4021 32.3751 23.2218 32.1024 23.0757C32.8511 23.2482 33.6234 23.0345 34.1543 22.1231L32.6574 21.0534L31.4091 22.7821C30.9152 22.6272 30.4 22.5498 29.882 22.5528C28.7962 22.5528 27.707 22.8703 26.9095 23.6112C26.1334 24.333 25.7716 25.3419 25.7716 26.3739C25.7716 27.4058 26.1334 28.4157 26.9095 29.1375C26.9778 29.1997 27.0467 29.259 27.119 29.3158L26.9728 29.3927C26.6071 29.6023 26.2751 29.8659 25.9878 30.1748C25.4961 30.6957 25.0039 31.4757 25.0039 32.514C25.0039 32.514 24.9355 34.7288 27.4931 34.7288H29.3461C29.7723 34.7288 30.2074 34.9984 30.2074 35.4222C30.2074 35.5707 30.1642 35.7157 30.0836 35.8397H33.6273C34.161 35.2352 34.4488 34.4524 34.4337 33.646V33.6464ZM38.2456 25.6913C38.3733 25.5692 38.5335 25.4872 38.7071 25.4555C38.8807 25.4238 39.0599 25.4439 39.2217 25.5131C39.3841 25.5823 39.5224 25.6977 39.6199 25.8449C39.7173 25.9921 39.7688 26.1646 39.7688 26.341C39.7688 26.5174 39.7173 26.69 39.6199 26.8371C39.5224 26.9844 39.3841 27.0997 39.2217 27.1689C39.0599 27.2382 38.8807 27.2582 38.7071 27.2265C38.5335 27.1948 38.3733 27.1128 38.2456 26.9908C38.0849 26.8125 37.9959 26.581 37.9959 26.341C37.9959 26.101 38.0849 25.8695 38.2456 25.6913ZM44.5227 33.646C44.4991 32.9492 44.2925 32.2132 43.7667 31.7271C43.1787 31.1847 42.3286 30.9357 41.539 30.9357L37.4493 30.9063C37.1911 30.9063 36.9946 30.7456 36.9946 30.5075C36.9946 30.3115 37.0926 30.0195 37.3395 29.971C37.829 30.1228 38.338 30.1983 38.8499 30.1959C39.9368 30.1959 41.0255 29.8783 41.8223 29.1375C42.5985 28.4157 42.9608 27.4068 42.9608 26.3739C42.9608 25.3409 42.5985 24.333 41.8223 23.6117C41.5955 23.4017 41.343 23.2216 41.0708 23.0757C41.819 23.2482 42.5912 23.0345 43.1221 22.1231L41.6263 21.0534L40.3775 22.7821C39.8831 22.6272 39.3679 22.5498 38.8499 22.5528C37.764 22.5528 36.6748 22.8703 35.8774 23.6112C35.1023 24.333 34.7395 25.3419 34.7395 26.3739C34.7395 27.4058 35.1018 28.4157 35.8774 29.1375C36.1053 29.3481 36.3595 29.5285 36.6339 29.6745C36.4346 29.8254 36.2492 29.993 36.0779 30.1743C35.5851 30.6957 35.0934 31.4757 35.0934 32.514C35.0934 32.514 35.0251 34.7288 37.5826 34.7288H39.4356C39.8623 34.7288 40.2958 34.9984 40.2958 35.4222C40.2958 35.5707 40.2538 35.7152 40.1731 35.8397H43.7163C44.2505 35.2354 44.5383 34.4524 44.5227 33.646ZM48.8111 32.5092V29.2036C48.0473 29.3001 47.7824 28.7641 47.7824 28.2329V20.1602H43.9963V28.8366C43.9963 29.9136 44.1581 30.8123 44.5484 31.3782C45.1482 32.2387 45.9613 32.8017 47.5769 32.809C47.8748 32.7953 48.3727 32.737 48.8111 32.5101V32.5092ZM20.9472 28.4892C20.7512 28.7055 20.4863 28.8465 20.1974 28.8876C19.9084 28.9289 19.6139 28.8677 19.3658 28.7147C19.1171 28.5617 18.9301 28.3266 18.8366 28.0501C18.7431 27.7736 18.7492 27.4731 18.8545 27.2008C18.9592 26.9285 19.1563 26.7014 19.4111 26.5591C19.6659 26.4167 19.9622 26.3679 20.2489 26.4212C20.5362 26.4745 20.7955 26.6266 20.9819 26.851C21.1684 27.0754 21.2709 27.3579 21.2709 27.6498C21.2782 27.9613 21.1623 28.2632 20.9472 28.4892ZM23.7685 23.9959C22.7907 23.0036 21.4557 22.5793 20.1246 22.5793C18.7929 22.5793 17.4573 23.0036 16.4801 23.9959C15.5281 24.9617 15.0835 26.3121 15.0835 27.6934C15.0835 29.0752 15.5281 30.4261 16.4801 31.392C17.4567 32.3837 18.7918 32.8085 20.1246 32.8085C21.4568 32.8085 22.7907 32.3837 23.7685 31.3924C24.7199 30.4261 25.1646 29.0757 25.1646 27.6934C25.1646 26.3116 24.7199 24.9617 23.7685 23.9959ZM13.6722 29.2173C13.0428 29.2173 12.7852 29.0252 12.5528 28.7312C12.4011 28.5392 12.326 28.2569 12.326 27.8909V26.1793H14.4395V23.1119H12.326V20.1602H9.62626V21.2641C9.62626 22.4862 8.68938 23.477 7.53522 23.477C7.44954 23.4768 7.36442 23.4714 7.2793 23.4608V26.1793H8.69722V28.9121C8.69722 29.9881 8.89209 30.8162 9.28241 31.3812C9.88497 32.2446 10.5525 32.8085 12.1838 32.8085C13.1296 32.8085 13.9203 32.5929 14.4395 32.3048V29.0904C14.1936 29.1782 13.9338 29.2212 13.6722 29.2173Z" fill="#FFDE91"/>
</svg>
