<svg width="120" height="35" viewBox="0 0 120 35" fill="none" xmlns="http://www.w3.org/2000/svg">
<g clip-path="url(#clip0)">
<path d="M0.0136719 6.49829H4.19773V15.7941H13.0222V6.49829H17.2116V29.3166H13.0222V19.8256H4.19773V29.3166H0.0136719V6.49829ZM30.4667 21.8843C30.4667 23.7945 28.9105 25.3488 27.0008 25.3488C25.0904 25.3488 23.5351 23.7945 23.5351 21.8843V12.0602H19.5671V21.8843C19.5671 25.9828 22.902 29.3166 27.0008 29.3166C31.0986 29.3166 34.4333 25.9828 34.4333 21.8843V12.0602H30.4667V21.8843ZM45.5103 12.1753C43.542 12.1753 42.1681 12.7465 40.8413 14.0489V6.49829H36.8605V20.4916C36.8605 25.7295 40.6475 29.3166 44.9021 29.3166C49.632 29.3166 53.7763 25.6655 53.7763 20.7462C53.7763 15.8892 49.9548 12.1753 45.5103 12.1753ZM45.6092 25.6338C42.9118 25.6338 40.8491 23.381 40.8491 20.7462C40.8491 18.1109 42.9118 15.8574 45.6092 15.8574C47.8948 15.8574 49.9587 18.1109 49.9587 20.7462C49.9587 23.381 47.8948 25.6338 45.6092 25.6338ZM60.4623 13.1782C60.4623 11.1771 61.7956 10.5427 63.2553 10.5427C64.4305 10.5427 65.9855 11.4314 67.0004 12.5109L69.6027 9.46384C68.3021 7.71821 65.668 6.51165 63.5094 6.51165C59.192 6.51165 56.0811 9.01946 56.0811 13.1782C56.0811 20.8915 65.5726 18.4465 65.5726 22.7646C65.5726 24.0963 64.2716 25.272 62.7805 25.272C60.4306 25.272 59.6684 24.1291 58.5896 22.9226L55.7005 25.9059C57.5427 28.1599 59.8273 29.3032 62.5576 29.3032C66.6521 29.3032 69.9535 26.7638 69.9535 22.7953C69.9535 14.2252 60.4623 16.8919 60.4623 13.1782ZM80.4334 11.9517C76.1792 11.9517 72.3917 15.5367 72.3917 20.7757V34.8052H76.3723V27.2187C77.6994 28.5202 79.0726 29.0923 81.0416 29.0923C85.4858 29.0923 89.3077 25.3788 89.3077 20.5219C89.3077 15.6019 85.1623 11.9517 80.4334 11.9517ZM81.1407 25.4107C78.4435 25.4107 76.3805 23.1549 76.3805 20.5219C76.3805 17.8866 78.4435 15.6331 81.1407 15.6331C83.4259 15.6331 85.49 17.8866 85.49 20.5219C85.49 23.1549 83.4259 25.4107 81.1407 25.4107ZM118.61 25.6338C116.262 25.6338 115.595 24.6185 115.595 23.0625V16.1747H119.245V12.6834H115.595V8.08032L111.565 9.88923V23.9196C111.565 27.507 114.04 29.3166 117.435 29.3166C117.943 29.3166 118.642 29.2838 119.023 29.1898L120.007 25.5715C119.563 25.6022 119.055 25.6338 118.61 25.6338Z" fill="#45535E"/>
<path d="M108.113 16.3776C107.35 15.0647 106.276 14.0121 104.934 13.2197C103.931 12.6358 102.891 12.2653 101.72 12.1062V7.93429C102.891 7.43671 103.619 6.33538 103.619 5.05054C103.619 3.29929 102.214 1.88015 100.464 1.88015C98.7132 1.88015 97.2842 3.29929 97.2842 5.05054C97.2842 6.33538 97.9695 7.43671 99.1414 7.93429V12.108C98.2039 12.2435 97.2317 12.5358 96.3439 12.9848C94.5305 11.6076 88.5845 7.0896 85.1061 4.45077C85.1886 4.15335 85.2521 3.84679 85.2521 3.52335C85.2521 1.58366 83.6813 0.0114746 81.7409 0.0114746C79.8005 0.0114746 78.2305 1.58366 78.2305 3.52335C78.2305 5.4628 79.8022 7.03546 81.7426 7.03546C82.4045 7.03546 83.0166 6.84186 83.5449 6.52358L84.279 7.08046L94.3655 14.348C93.8323 14.8376 93.3357 15.3944 92.9384 16.0193C92.1334 17.2931 91.6414 18.6947 91.6414 20.2235V20.5425C91.6414 21.6157 91.8453 22.6289 92.1927 23.5807C92.4985 24.4118 92.9457 25.1674 93.4995 25.8506L90.1519 29.2064C89.6668 29.0258 89.1399 28.9888 88.6343 29.0997C88.1286 29.2105 87.6656 29.4647 87.3005 29.8317C87.0478 30.0832 86.8475 30.3824 86.7111 30.7119C86.5748 31.0414 86.5053 31.3947 86.5065 31.7512C86.5067 32.4762 86.7891 33.1575 87.3019 33.6701C87.5533 33.923 87.8524 34.1236 88.1818 34.2601C88.5112 34.3967 88.8644 34.4665 89.221 34.4655C89.5777 34.4664 89.931 34.3966 90.2606 34.2601C90.5901 34.1235 90.8893 33.923 91.1408 33.6701C91.3934 33.4186 91.5937 33.1195 91.73 32.7901C91.8664 32.4608 91.9362 32.1077 91.9353 31.7512C91.9353 31.4707 91.892 31.1969 91.8104 30.9368L95.2705 27.4762C95.7448 27.8039 96.2572 28.0798 96.808 28.3176C97.8943 28.7873 99.0934 29.0735 100.406 29.0735H100.646C102.097 29.0735 103.465 28.7327 104.752 28.0357C106.107 27.2991 107.169 26.2917 107.97 25.0057C108.776 23.7162 109.22 22.2914 109.22 20.7239V20.6456C109.22 19.1037 108.863 17.681 108.113 16.3776ZM103.885 23.6369C102.946 24.6806 101.866 25.3235 100.646 25.3235H100.445C99.748 25.3235 99.0662 25.1308 98.3987 24.7805C97.6463 24.3947 97.0744 23.8444 96.6064 23.1476C96.1227 22.4637 95.8602 21.7169 95.8602 20.9252V20.6848C95.8602 19.9064 96.0095 19.1683 96.3859 18.4713C96.7883 17.7094 97.3318 17.1169 98.0546 16.6458C98.7643 16.178 99.5223 15.9485 100.366 15.9485H100.445C101.21 15.9485 101.935 16.0994 102.619 16.4494C103.316 16.8225 103.885 17.3323 104.326 18.0028C104.755 18.6736 105.01 19.3971 105.092 20.1853C105.105 20.3491 105.112 20.5169 105.112 20.6773C105.112 21.7469 104.703 22.7376 103.885 23.6369Z" fill="#F8761F"/>
</g>
<defs>
<clipPath id="clip0">
<rect width="120" height="34.944" fill="white"/>
</clipPath>
</defs>
</svg>
