<svg width="400" height="400" viewBox="0 0 400 400" fill="none" xmlns="http://www.w3.org/2000/svg">
<path d="M400 305.92H0V306.12H400V305.92Z" fill="#EBEBEB"/>
<path d="M189.6 270.24H35.1284C33.9182 270.238 32.7584 269.756 31.9035 268.899C31.0485 268.043 30.5684 266.882 30.5684 265.672V48.528C30.5789 47.3248 31.0637 46.1744 31.9175 45.3266C32.7713 44.4788 33.9251 44.0021 35.1284 44H189.6C190.812 44 191.974 44.4813 192.83 45.3379C193.687 46.1946 194.168 47.3565 194.168 48.568V265.672C194.168 266.884 193.687 268.045 192.83 268.902C191.974 269.759 190.812 270.24 189.6 270.24ZM35.1284 44.16C33.9713 44.1621 32.8623 44.6233 32.0449 45.4422C31.2275 46.2611 30.7684 47.3709 30.7684 48.528V265.672C30.7684 266.829 31.2275 267.939 32.0449 268.758C32.8623 269.577 33.9713 270.038 35.1284 270.04H189.6C190.758 270.038 191.868 269.577 192.687 268.758C193.505 267.94 193.966 266.83 193.968 265.672V48.528C193.966 47.3702 193.505 46.2604 192.687 45.4417C191.868 44.623 190.758 44.1621 189.6 44.16H35.1284Z" fill="#EBEBEB" fill-opacity="0.4"/>
<path d="M362.648 270.24H208.168C206.957 270.238 205.796 269.756 204.94 268.9C204.084 268.044 203.602 266.883 203.6 265.672V48.528C203.612 47.3241 204.099 46.1737 204.954 45.3261C205.809 44.4785 206.964 44.002 208.168 44H362.648C363.849 44.0042 365.001 44.4818 365.853 45.3294C366.705 46.177 367.189 47.3262 367.2 48.528V265.672C367.2 266.881 366.721 268.04 365.867 268.896C365.014 269.753 363.856 270.236 362.648 270.24ZM208.168 44.16C207.01 44.1621 205.9 44.623 205.081 45.4417C204.263 46.2604 203.802 47.3702 203.8 48.528V265.672C203.802 266.83 204.263 267.94 205.081 268.758C205.9 269.577 207.01 270.038 208.168 270.04H362.648C363.805 270.038 364.915 269.577 365.734 268.758C366.553 267.94 367.013 266.83 367.016 265.672V48.528C367.013 47.3702 366.553 46.2604 365.734 45.4417C364.915 44.623 363.805 44.1621 362.648 44.16H208.168Z" fill="#EBEBEB" fill-opacity="0.4"/>
<path d="M160.353 313.536H139.553V313.736H160.353V313.536Z" fill="#EBEBEB"/>
<path d="M85.2487 311.368H41.9688V311.568H85.2487V311.368Z" fill="#EBEBEB"/>
<path d="M138.751 320.968H117.695V321.168H138.751V320.968Z" fill="#EBEBEB"/>
<path d="M237.648 319.624H206.584V319.824H237.648V319.624Z" fill="#EBEBEB"/>
<path d="M253.32 319.624H244.768V319.824H253.32V319.624Z" fill="#EBEBEB"/>
<path d="M359.927 316.248H316.279V316.448H359.927V316.248Z" fill="#EBEBEB"/>
<path d="M133.512 198.44H304.848V192.264H133.512V198.44Z" fill="#F0F0F0"/>
<path d="M243.544 173.384H345.168V65.3518H243.544V173.384Z" fill="#F5F5F5" fill-opacity="0.5"/>
<path d="M252.057 73.8641V164.872H336.657V73.8641H252.057Z" fill="white" fill-opacity="0.6"/>
<path d="M303.721 129.216L319.889 121.72V117.008L303.721 109.496V115.144L313.545 119.376L303.721 123.608V129.216Z" fill="#E6E6E6" fill-opacity="0.4"/>
<path d="M293.177 107.32H290.225L295.457 131.408H298.401L293.177 107.32Z" fill="#E6E6E6" fill-opacity="0.4"/>
<path d="M284.985 123.608L275.201 119.376L285.025 115.144V109.496L268.801 117.008V121.72L284.969 129.216L284.985 123.608Z" fill="#E6E6E6" fill-opacity="0.4"/>
<path d="M93.7761 305.92H99.4081V122.576H93.7761V305.92Z" fill="#F0F0F0"/>
<path d="M92.5996 304.64L92.4476 303.84C93.0268 303.654 93.5619 303.352 94.02 302.951C94.4781 302.551 94.8496 302.061 95.1116 301.512C96.5756 298.92 97.4636 293.392 93.3916 281.808C87.1196 263.952 90.8636 249.552 98.3276 220.848C99.6236 215.848 101.096 210.184 102.624 204.048C108.36 181.112 103.056 166.888 98.7916 155.456C95.4876 146.584 92.8716 139.576 96.2156 131.456L96.9596 131.76C93.7596 139.584 96.2956 146.464 99.5436 155.176C103.848 166.704 109.2 181.064 103.4 204.232C101.872 210.36 100.4 216.024 99.1036 221.032C91.6796 249.6 87.9516 263.936 94.1516 281.6C98.3356 293.512 97.3516 299.272 95.7516 302C95.434 302.632 94.9905 303.192 94.4485 303.646C93.9064 304.1 93.2772 304.438 92.5996 304.64Z" fill="#F0F0F0"/>
<path d="M86.3926 305.92H106.785L101.113 302.576H92.0646L86.3926 305.92Z" fill="#F0F0F0"/>
<path d="M56.248 145.928H136.928L128.048 78.1362H65.1281L56.248 145.928Z" fill="#F5F5F5" fill-opacity="0.8"/>
<path d="M175.904 157.104H218.976L213.304 192.264H181.576L175.904 157.104Z" fill="#F0F0F0"/>
<path d="M193.208 168.544C204.952 164.296 213.944 157.912 203.88 144.992C193.816 132.072 178.224 132.136 167.712 137.856C154.32 145.136 157.008 166.216 157.008 166.216C157.008 166.216 181.464 172.8 193.208 168.544Z" fill="#E0E0E0"/>
<path d="M204.623 156.8C195.639 150.68 189.271 143.6 199.695 136.128C210.119 128.656 222.975 132.488 230.703 139.424C240.551 148.272 234.863 163.8 234.863 163.8C234.863 163.8 213.599 162.888 204.623 156.8Z" fill="#E6E6E6"/>
<path d="M188.8 141.272C199.312 140.64 208.128 137.896 203.152 126.512C198.176 115.128 185.552 111.936 175.704 113.888C163.12 116.376 160.152 132.12 160.152 132.12C160.152 132.12 178.296 141.912 188.8 141.272Z" fill="#F0F0F0"/>
<path d="M202 134.56C193.256 131.744 186.4 127.528 193.064 118.976C199.728 110.424 211.064 110.472 218.984 114.248C229.08 119.048 228.184 133.016 228.184 133.016C228.184 133.016 210.744 137.368 202 134.56Z" fill="#EBEBEB"/>
<path d="M185.6 120C194.328 122.88 202.352 123.504 201.992 112.672C201.632 101.84 192.464 95.1998 183.84 93.5518C172.84 91.5038 165.352 103.304 165.352 103.304C165.352 103.304 176.888 117.096 185.6 120Z" fill="#F5F5F5"/>
<path d="M207.752 115.32C201.504 115.752 196.104 114.808 198.152 107.712C200.2 100.616 207.4 97.792 213.352 98.184C220.952 98.688 223.904 107.784 223.904 107.784C223.904 107.784 213.992 114.896 207.752 115.32Z" fill="#FAFAFA"/>
<path d="M200.001 342.048C285.667 342.048 355.113 337.994 355.113 332.992C355.113 327.991 285.667 323.936 200.001 323.936C114.335 323.936 44.8887 327.991 44.8887 332.992C44.8887 337.994 114.335 342.048 200.001 342.048Z" fill="#F5F5F5" fill-opacity="0.5"/>
<path d="M335.407 200.872H63.6074V210.624H335.407V200.872Z" fill="#754FFE"/>
<path opacity="0.3" d="M136.351 200.872H63.6074V210.624H136.351V200.872Z" fill="white"/>
<path d="M137.512 210.625H131.184L134.496 332.849H137.512H140.528L143.848 210.625H137.512Z" fill="#754FFE"/>
<path opacity="0.3" d="M134.495 332.848H137.511V213.248L131.287 214.384L134.495 332.848Z" fill="white"/>
<path d="M77.535 210.625H71.207L74.519 332.849H77.535H80.551L83.863 210.625H77.535Z" fill="#754FFE"/>
<path opacity="0.3" d="M74.5187 332.848H77.5347V213.248L71.3027 214.384L74.5187 332.848Z" fill="white"/>
<path d="M321.48 210.625H315.152L318.464 332.849H321.48H324.496L327.816 210.625H321.48Z" fill="#754FFE"/>
<path opacity="0.3" d="M318.464 332.848H321.48V213.248L315.256 214.384L318.464 332.848Z" fill="white"/>
<path d="M261.504 210.625H255.176L258.488 332.849H261.504H264.52L267.832 210.625H261.504Z" fill="#754FFE"/>
<path opacity="0.3" d="M258.487 332.848H261.503V213.248L255.279 214.384L258.487 332.848Z" fill="white"/>
<path d="M192.623 148.664H127.999C127.474 148.643 126.952 148.747 126.476 148.967C125.999 149.186 125.581 149.515 125.255 149.927C124.93 150.339 124.707 150.822 124.604 151.336C124.501 151.851 124.521 152.383 124.663 152.888L133.271 193.968C133.548 195.13 134.196 196.17 135.117 196.931C136.038 197.692 137.181 198.132 138.375 198.184H203.047C203.57 198.205 204.091 198.101 204.567 197.882C205.043 197.663 205.461 197.335 205.786 196.924C206.111 196.513 206.334 196.031 206.438 195.517C206.542 195.004 206.523 194.473 206.383 193.968L197.767 152.888C197.489 151.718 196.836 150.672 195.907 149.909C194.978 149.146 193.824 148.709 192.623 148.664Z" fill="#263238"/>
<path d="M138.936 195.84C138.13 195.786 137.362 195.478 136.741 194.961C136.12 194.444 135.679 193.743 135.48 192.96L126.872 151.88C126.798 151.609 126.787 151.324 126.838 151.047C126.889 150.77 127.002 150.508 127.168 150.28C127.34 150.086 127.554 149.932 127.794 149.831C128.033 149.73 128.292 149.684 128.552 149.696H193.224C194.03 149.751 194.798 150.059 195.419 150.576C196.04 151.093 196.481 151.793 196.68 152.576L205.288 193.656C205.362 193.928 205.373 194.213 205.322 194.49C205.271 194.767 205.158 195.029 204.992 195.256C204.821 195.453 204.607 195.607 204.368 195.708C204.128 195.809 203.868 195.855 203.608 195.84H138.936Z" fill="white"/>
<path opacity="0.4" d="M187.728 192.552L179.568 153.6C179.522 153.37 179.528 153.132 179.584 152.904C179.641 152.676 179.747 152.463 179.895 152.28C180.043 152.097 180.23 151.95 180.441 151.848C180.653 151.745 180.885 151.691 181.12 151.688H191.616C191.98 151.691 192.332 151.818 192.614 152.048C192.896 152.278 193.091 152.597 193.168 152.952L201.328 191.872C201.374 192.103 201.368 192.341 201.312 192.569C201.255 192.797 201.149 193.01 201.001 193.193C200.853 193.375 200.666 193.523 200.454 193.625C200.243 193.728 200.011 193.782 199.776 193.784H189.28C188.92 193.783 188.572 193.661 188.29 193.438C188.009 193.214 187.811 192.902 187.728 192.552Z" fill="#754FFE"/>
<path d="M132.256 155.096L131.904 153.408H144.864L145.216 155.096H132.256Z" fill="#754FFE"/>
<path d="M138.239 159.288L137.887 157.6H160.599L160.959 159.288H138.239Z" fill="#EBEBEB"/>
<path d="M139.44 163.472L139.08 161.784H164.544L164.896 163.472H139.44Z" fill="#EBEBEB"/>
<path d="M140.631 167.664L140.279 165.976H160.775L161.135 167.664H140.631Z" fill="#EBEBEB"/>
<path d="M136.2 174.456L135.84 172.768H144.04L144.392 174.456H136.2Z" fill="#754FFE"/>
<path d="M142.176 178.64L141.824 176.952H151.808L152.168 178.64H142.176Z" fill="#EBEBEB"/>
<path d="M154.559 178.64L154.199 176.952H164.191L164.543 178.64H154.559Z" fill="#EBEBEB"/>
<path d="M143.375 182.832L143.023 181.144H176.783L177.135 182.832H143.375Z" fill="#EBEBEB"/>
<path d="M144.567 187.016L144.215 185.328H169.959L170.311 187.016H144.567Z" fill="#EBEBEB"/>
<path d="M222.815 197.936H137.727C135.407 197.936 133.903 199.256 134.391 200.872H227.919C227.439 199.256 225.135 197.936 222.815 197.936Z" fill="#263238"/>
<path opacity="0.1" d="M109.767 138.28L101.599 99.3522C101.555 99.1222 101.561 98.8852 101.619 98.658C101.676 98.4307 101.782 98.2188 101.93 98.0372C102.078 97.8556 102.264 97.7087 102.475 97.607C102.686 97.5052 102.917 97.451 103.151 97.4482H169.231C169.594 97.4506 169.945 97.5763 170.227 97.8045C170.509 98.0327 170.705 98.35 170.783 98.7042L178.951 137.6C178.997 137.831 178.992 138.069 178.935 138.297C178.879 138.525 178.773 138.738 178.624 138.921C178.476 139.103 178.29 139.251 178.078 139.353C177.866 139.455 177.635 139.51 177.399 139.512H111.319C110.96 139.511 110.611 139.389 110.33 139.165C110.048 138.942 109.85 138.63 109.767 138.28Z" fill="#754FFE"/>
<path d="M133.256 98.7284H119.384L119.072 97.2324H132.944L133.256 98.7284Z" fill="#754FFE"/>
<path opacity="0.4" d="M130.999 101.112H125.431L125.119 99.6162H130.687L130.999 101.112Z" fill="#754FFE"/>
<path opacity="0.4" d="M140.263 101.112H131.687L131.375 99.6162H139.951L140.263 101.112Z" fill="#754FFE"/>
<path opacity="0.4" d="M143.999 103.488H125.927L125.615 101.992H143.695L143.999 103.488Z" fill="#754FFE"/>
<path opacity="0.4" d="M141.703 105.872H126.423L126.111 104.376H141.391L141.703 105.872Z" fill="#754FFE"/>
<path opacity="0.4" d="M151.839 131.16H142.111L142.423 132.648H152.151L151.839 131.16Z" fill="#754FFE"/>
<path d="M139.712 127.896H125.464L125.152 126.4H139.4L139.712 127.896Z" fill="#754FFE"/>
<path opacity="0.4" d="M145.439 133.536H132.191L132.503 135.032H145.751L145.439 133.536Z" fill="#754FFE"/>
<path opacity="0.4" d="M141.423 131.16H131.695L132.007 132.648H141.735L141.423 131.16Z" fill="#754FFE"/>
<path opacity="0.4" d="M150.655 128.776H131.199L131.511 130.272H150.967L150.655 128.776Z" fill="#754FFE"/>
<path d="M132.768 87.6242H117.072L116.76 86.1362H132.456L132.768 87.6242Z" fill="#754FFE"/>
<path opacity="0.4" d="M140.519 93.2725H123.207L123.519 94.7685H140.823L140.519 93.2725Z" fill="#754FFE"/>
<path opacity="0.4" d="M137.055 90.896H122.711L123.023 92.384H137.367L137.055 90.896Z" fill="#754FFE"/>
<path opacity="0.4" d="M138.007 88.5122H122.215L122.527 90.0082H138.319L138.007 88.5122Z" fill="#754FFE"/>
<path d="M132.591 109.744H121.679L121.367 108.248H132.279L132.591 109.744Z" fill="#754FFE"/>
<path opacity="0.4" d="M149.728 115.384H128.408L128.72 116.88H150.032L149.728 115.384Z" fill="#754FFE"/>
<path opacity="0.4" d="M136.744 113.008H127.912L128.224 114.504H137.056L136.744 113.008Z" fill="#754FFE"/>
<path opacity="0.4" d="M146.328 113.008H137.496L137.808 114.504H146.64L146.328 113.008Z" fill="#754FFE"/>
<path opacity="0.4" d="M146.872 110.624H127.416L127.728 112.12H147.176L146.872 110.624Z" fill="#754FFE"/>
<path opacity="0.4" d="M146.832 122.528H129.896L130.208 124.016H147.144L146.832 122.528Z" fill="#754FFE"/>
<path opacity="0.4" d="M134.326 120.144H129.398L129.71 121.64H134.63L134.326 120.144Z" fill="#754FFE"/>
<path opacity="0.4" d="M142.032 120.144H135L135.312 121.64H142.344L142.032 120.144Z" fill="#754FFE"/>
<path opacity="0.4" d="M148.36 117.768H128.904L129.216 119.256H148.672L148.36 117.768Z" fill="#754FFE"/>
<path opacity="0.4" d="M163.678 117.368H156.71L156.398 115.872H163.374L163.678 117.368Z" fill="#754FFE"/>
<path opacity="0.4" d="M175.28 117.368H164.544L164.232 115.872H174.968L175.28 117.368Z" fill="#754FFE"/>
<path opacity="0.4" d="M179.84 119.752H157.208L156.896 118.256H179.528L179.84 119.752Z" fill="#754FFE"/>
<path opacity="0.4" d="M176.831 122.128H157.703L157.391 120.632H176.519L176.831 122.128Z" fill="#754FFE"/>
<path opacity="0.4" d="M185.399 107.904H163.727L164.039 109.392H185.711L185.399 107.904Z" fill="#754FFE"/>
<path opacity="0.4" d="M181.192 105.52H163.232L163.544 107.016H181.496L181.192 105.52Z" fill="#754FFE"/>
<path d="M177.944 103.144H158.168L158.48 104.632H178.256L177.944 103.144Z" fill="#754FFE"/>
<path opacity="0.4" d="M186.376 131.648H159.688L159.999 133.144H186.688L186.376 131.648Z" fill="#754FFE"/>
<path opacity="0.4" d="M170.247 129.272H159.191L159.503 130.76H170.559L170.247 129.272Z" fill="#754FFE"/>
<path opacity="0.4" d="M182.247 129.272H171.191L171.503 130.76H182.559L182.247 129.272Z" fill="#754FFE"/>
<path opacity="0.4" d="M183.047 126.888H158.695L159.007 128.384H183.359L183.047 126.888Z" fill="#754FFE"/>
<path opacity="0.4" d="M182.376 138.784H161.176L161.488 140.28H182.688L182.376 138.784Z" fill="#754FFE"/>
<path opacity="0.4" d="M166.848 136.408H160.68L160.992 137.904H167.16L166.848 136.408Z" fill="#754FFE"/>
<path opacity="0.4" d="M176.495 136.408H167.695L168.007 137.904H176.807L176.495 136.408Z" fill="#754FFE"/>
<path opacity="0.4" d="M184.544 134.024H160.184L160.496 135.52H184.848L184.544 134.024Z" fill="#754FFE"/>
<path opacity="0.4" d="M119.68 140.632H103.088L103.4 142.128H119.992L119.68 140.632Z" fill="#754FFE"/>
<path opacity="0.4" d="M114.776 138.256H102.592L102.904 139.744H115.08L114.776 138.256Z" fill="#754FFE"/>
<path opacity="0.4" d="M127.807 138.256H115.631L115.943 139.744H128.127L127.807 138.256Z" fill="#754FFE"/>
<path opacity="0.4" d="M126.456 135.872H102.096L102.408 137.368H126.76L126.456 135.872Z" fill="#754FFE"/>
<path d="M312.76 185.328H302.488L303.688 200.872H311.56L312.76 185.328Z" fill="#754FFE"/>
<path opacity="0.4" d="M312.76 185.328H302.488L303.688 200.872H311.56L312.76 185.328Z" fill="white"/>
<path d="M88.9033 174.536H103.671L98.6313 200.872H83.8633L88.9033 174.536Z" fill="#263238"/>
<path d="M107.711 167.48H86.8555L92.6955 200.872H113.551L107.711 167.48Z" fill="#754FFE"/>
<path d="M85.623 167.48H86.855L92.6951 200.872H91.4631L85.623 167.48Z" fill="#754FFE"/>
<path opacity="0.3" d="M85.623 167.48H86.855L92.6951 200.872H91.4631L85.623 167.48Z" fill="black"/>
<path d="M95.6955 197.296L91.1035 171.048H104.72L109.304 197.296H95.6955Z" fill="white" fill-opacity="0.7"/>
<path opacity="0.6" d="M108.656 197.296L104.072 171.048H104.72L109.304 197.296H108.656Z" fill="#754FFE"/>
<path d="M211.017 124.8C211.313 125.44 211.217 126.12 210.793 126.312C210.369 126.504 209.793 126.144 209.497 125.512C209.201 124.88 209.305 124.192 209.721 124C210.137 123.808 210.721 124.128 211.017 124.8Z" fill="#263238"/>
<path d="M211.272 126.064C211.272 126.064 211.528 130.432 210.744 132.96C212.344 133.496 214.072 132.16 214.072 132.16L211.272 126.064Z" fill="#FF5652"/>
<path d="M211.096 119.512C211.028 119.568 210.944 119.602 210.856 119.608C210.336 119.622 209.826 119.759 209.368 120.008C208.911 120.257 208.519 120.61 208.224 121.04C208.198 121.089 208.162 121.133 208.119 121.168C208.075 121.203 208.025 121.229 207.972 121.244C207.918 121.259 207.862 121.264 207.806 121.257C207.751 121.25 207.698 121.232 207.649 121.204C207.601 121.176 207.559 121.139 207.525 121.094C207.492 121.05 207.467 120.999 207.454 120.945C207.44 120.891 207.438 120.834 207.446 120.779C207.455 120.724 207.475 120.671 207.504 120.624C207.867 120.074 208.356 119.619 208.931 119.297C209.506 118.976 210.15 118.797 210.808 118.776C210.896 118.771 210.983 118.794 211.056 118.841C211.13 118.889 211.187 118.958 211.219 119.04C211.251 119.121 211.256 119.211 211.234 119.296C211.212 119.381 211.164 119.456 211.096 119.512Z" fill="#263238"/>
<path d="M234.578 123.808C237.05 132.368 239.81 139.008 243.178 142.8C243.178 142.8 243.242 149.528 231.778 152.728C219.17 156.248 224.002 148.152 224.002 148.152C230.402 144.592 229.794 139.216 224.978 137.168L234.578 123.808Z" fill="#FF8B7B"/>
<path d="M245.848 141.16C245.624 138.032 245.328 134.464 243.4 134.368C241.272 134.272 228.952 139.776 226.32 143.656C223.688 147.536 228.832 151.336 228.832 151.336L245.848 141.16Z" fill="#263238"/>
<path d="M220.632 189.6L209.992 189.248L210.184 198.16C210.184 198.16 219.464 197.2 219.872 194.76L220.632 189.6Z" fill="#FF8B7B"/>
<path d="M204.368 193.624L203.248 198.184L210.184 198.168L209.992 189.256L204.368 193.624Z" fill="#FF8B7B"/>
<path d="M263.336 152.568L263.112 154.856C263.04 155.592 262.944 156.312 262.848 157.04C262.664 158.488 262.432 159.936 262.184 161.376C261.704 164.264 261.08 167.136 260.36 170.024C259.629 172.967 258.742 175.87 257.704 178.72C257.152 180.184 256.576 181.648 255.888 183.136C255.195 184.697 254.393 186.207 253.488 187.656C253.272 188.032 253 188.456 252.736 188.808C252.472 189.16 252.216 189.608 251.936 189.976C251.656 190.344 251.36 190.776 250.992 191.152L250.472 191.744C250.286 191.962 250.089 192.171 249.88 192.368C248.277 193.938 246.397 195.199 244.336 196.088C241.174 197.444 237.819 198.295 234.392 198.608C232.832 198.792 231.288 198.864 229.776 198.904C228.264 198.944 226.752 198.904 225.264 198.824C223.776 198.744 222.304 198.616 220.84 198.44C219.376 198.264 217.952 198.032 216.4 197.72L216.656 189.36C221.765 188.467 226.814 187.264 231.776 185.76C232.88 185.401 233.964 184.984 235.024 184.512C235.927 184.131 236.79 183.662 237.6 183.112C238.072 182.828 238.471 182.439 238.768 181.976L239 181.608C239.108 181.451 239.207 181.288 239.296 181.12C239.41 180.936 239.515 180.747 239.608 180.552C239.712 180.344 239.824 180.152 239.928 179.92C240.868 177.868 241.641 175.744 242.24 173.568C242.896 171.216 243.512 168.768 244.008 166.232C244.504 163.696 244.984 161.136 245.424 158.552L246.032 154.664L246.584 150.88L263.336 152.568Z" fill="#754FFE"/>
<path opacity="0.2" d="M263.336 152.568L263.112 154.856C263.04 155.592 262.944 156.312 262.848 157.04C262.664 158.488 262.432 159.936 262.184 161.376C261.704 164.264 261.08 167.136 260.36 170.024C259.629 172.967 258.742 175.87 257.704 178.72C257.152 180.184 256.576 181.648 255.888 183.136C255.195 184.697 254.393 186.207 253.488 187.656C253.272 188.032 253 188.456 252.736 188.808C252.472 189.16 252.216 189.608 251.936 189.976C251.656 190.344 251.36 190.776 250.992 191.152L250.472 191.744C250.286 191.962 250.089 192.171 249.88 192.368C248.277 193.938 246.397 195.199 244.336 196.088C241.174 197.444 237.819 198.295 234.392 198.608C232.832 198.792 231.288 198.864 229.776 198.904C228.264 198.944 226.752 198.904 225.264 198.824C223.776 198.744 222.304 198.616 220.84 198.44C219.376 198.264 217.952 198.032 216.4 197.72L216.656 189.36C221.765 188.467 226.814 187.264 231.776 185.76C232.88 185.401 233.964 184.984 235.024 184.512C235.927 184.131 236.79 183.662 237.6 183.112C238.072 182.828 238.471 182.439 238.768 181.976L239 181.608C239.108 181.451 239.207 181.288 239.296 181.12C239.41 180.936 239.515 180.747 239.608 180.552C239.712 180.344 239.824 180.152 239.928 179.92C240.868 177.868 241.641 175.744 242.24 173.568C242.896 171.216 243.512 168.768 244.008 166.232C244.504 163.696 244.984 161.136 245.424 158.552L246.032 154.664L246.584 150.88L263.336 152.568Z" fill="black"/>
<path d="M216.096 163.2C220.063 180.303 222.295 197.762 222.76 215.312H269.6C269.856 209.528 268.88 176.912 264.168 153.352C263.75 151.218 262.909 149.189 261.696 147.385C260.482 145.58 258.92 144.036 257.102 142.844C255.283 141.651 253.245 140.834 251.106 140.441C248.968 140.047 246.772 140.085 244.648 140.552L244.424 140.608C238.576 141.936 230.184 144.08 225.224 145.96L225.024 146.04C221.707 147.33 218.972 149.782 217.329 152.939C215.687 156.097 215.248 159.744 216.096 163.2Z" fill="#754FFE"/>
<path opacity="0.2" d="M219.145 178.16C219.513 180.408 219.889 182.792 220.233 185.288C224.065 181.288 225.281 169.032 225.281 169.032L219.145 178.16Z" fill="black"/>
<path d="M180.232 190.184L169.6 189.192L169.248 198.096C171.005 198.581 172.862 198.576 174.616 198.081C176.37 197.586 177.956 196.62 179.2 195.288L180.232 190.184Z" fill="#FF8B7B"/>
<path d="M164.545 191.816L161.137 197.936L169.281 198.096L169.633 189.192L164.545 191.816Z" fill="#FF8B7B"/>
<path d="M233.672 159.096C232.936 160.496 232.28 161.736 231.544 163.016C230.808 164.296 230.104 165.544 229.344 166.784C227.84 169.28 226.28 171.728 224.632 174.152C221.324 179.116 217.658 183.833 213.664 188.264C211.526 190.65 209.201 192.862 206.712 194.88C206.4 195.144 206.032 195.4 205.688 195.68C205.344 195.96 205.04 196.184 204.528 196.48C204.016 196.776 203.584 197.072 203.12 197.328C202.656 197.584 202.176 197.816 201.704 198.024C199.94 198.79 198.093 199.351 196.2 199.696C192.89 200.254 189.516 200.33 186.184 199.92C184.624 199.741 183.075 199.474 181.544 199.12C180.782 198.944 180.03 198.744 179.288 198.52C178.488 198.296 177.84 198.048 176.984 197.72L178.304 189.464C183.328 188.784 188.76 187.912 192.504 186.216C193.336 185.875 194.118 185.426 194.832 184.88C195.12 184.682 195.388 184.457 195.632 184.208C195.688 184.136 195.936 183.92 196.12 183.744C196.304 183.568 196.52 183.4 196.72 183.192C198.433 181.495 200.036 179.692 201.52 177.792C204.741 173.637 207.75 169.322 210.536 164.864C211.976 162.6 213.376 160.296 214.776 157.984L216.84 154.512L218.832 151.096L233.672 159.096Z" fill="#754FFE"/>
<path d="M220.816 326.08H212.064L207.656 305.8H216.416L220.816 326.08Z" fill="#FF8B7B"/>
<path d="M211.577 324.208H221.417C221.588 324.214 221.753 324.275 221.887 324.382C222.02 324.488 222.117 324.635 222.161 324.8L223.889 332.592C223.93 332.781 223.928 332.978 223.882 333.166C223.837 333.354 223.749 333.529 223.626 333.679C223.503 333.828 223.347 333.948 223.171 334.028C222.995 334.109 222.803 334.149 222.609 334.144C219.177 334.088 217.505 333.888 213.177 333.888C210.513 333.888 207.097 334.16 203.425 334.16C199.753 334.16 199.265 330.528 200.769 330.2C207.521 328.72 207.969 326.688 210.153 324.744C210.545 324.395 211.052 324.204 211.577 324.208Z" fill="#263238"/>
<g opacity="0.2">
<path opacity="0.2" d="M216.424 305.808H207.656L210.104 317.04L218.696 316.264L216.424 305.808Z" fill="black"/>
</g>
<path d="M231.769 113.52C234.969 121.616 237.193 126.2 235.081 132.08C231.881 140.92 220.529 141.816 215.009 134.824C210.049 128.528 205.713 116.344 211.977 109.648C213.349 108.163 215.078 107.055 216.999 106.427C218.92 105.799 220.97 105.673 222.953 106.061C224.937 106.449 226.788 107.338 228.331 108.644C229.874 109.949 231.058 111.628 231.769 113.52Z" fill="#FF8B7B"/>
<path d="M216.393 125.648C215.081 127.408 214.073 128.744 214.073 128.744C214.073 128.744 211.377 122.048 212.409 118.976C211.097 116.376 208.449 120.208 207.449 115.144C206.449 110.08 210.777 104.64 212.409 103.512C212.577 104.102 212.653 104.715 212.633 105.328C217.043 101.749 222.648 99.9793 228.313 100.376C227.839 101.08 227.538 101.886 227.433 102.728C227.433 102.728 236.929 104.328 239.089 109.704C238.325 109.339 237.519 109.071 236.689 108.904C238.43 111.4 239.119 114.48 238.609 117.48C237.92 121.855 237.562 126.275 237.537 130.704C237.625 132.976 231.393 137.32 227.593 132.68C223.793 128.04 216.393 125.648 216.393 125.648Z" fill="#263238"/>
<path d="M220.353 123.904C220.848 125.79 220.708 127.786 219.953 129.584C218.937 131.984 216.849 131.408 215.817 129.312C214.881 127.432 214.281 123.944 215.937 122.272C217.593 120.6 219.729 121.64 220.353 123.904Z" fill="#FF8B7B"/>
<path d="M236.801 215.28C236.801 215.28 196.129 230.032 194.937 249.544C192.729 285.488 207.425 313.944 207.425 313.944L220.897 312.504C220.897 312.504 218.497 300.936 216.713 268.376C214.465 227.456 283.913 269.336 269.609 215.28H236.801Z" fill="#754FFE"/>
<path opacity="0.5" d="M236.801 215.28C236.801 215.28 196.129 230.032 194.937 249.544C192.729 285.488 207.425 313.944 207.425 313.944L220.897 312.504C220.897 312.504 218.497 300.936 216.713 268.376C214.465 227.456 283.913 269.336 269.609 215.28H236.801Z" fill="white"/>
<path d="M203.697 308.984C203.633 308.984 205.841 314.968 205.841 314.968L222.641 313.32L221.801 307.88L203.697 308.984Z" fill="#754FFE"/>
<path d="M182.984 327.08H174.224L171.664 306.792H180.424L182.984 327.08Z" fill="#FF8B7B"/>
<path d="M174.161 324.2H183.761C183.934 324.198 184.103 324.256 184.238 324.364C184.374 324.472 184.468 324.623 184.505 324.792L186.249 332.576C186.3 332.767 186.306 332.967 186.266 333.16C186.226 333.353 186.142 333.535 186.02 333.69C185.899 333.845 185.742 333.97 185.564 334.054C185.386 334.139 185.19 334.18 184.993 334.176C181.545 334.12 176.553 333.928 172.193 333.936C167.121 333.936 166.153 334.216 160.193 334.224C156.593 334.224 155.593 330.6 157.097 330.224C163.945 328.72 166.137 328.552 172.049 324.896C172.673 324.469 173.405 324.228 174.161 324.2Z" fill="#263238"/>
<path opacity="0.2" d="M171.672 306.8L173.064 317.848L181.752 317.256L180.432 306.8H171.672Z" fill="black"/>
<path d="M222.762 215.28C222.762 215.28 156.122 221.192 156.842 254.664C157.586 289.48 170.594 312.96 170.594 312.96H183.602C183.602 312.96 181.138 294.896 181.578 260.624C181.706 250.36 202.458 246.968 222.714 245.768C240.218 244.728 256.602 234.752 263.402 218.568L264.802 215.28H222.762Z" fill="#754FFE"/>
<path opacity="0.5" d="M222.762 215.28C222.762 215.28 156.122 221.192 156.842 254.664C157.586 289.48 170.594 312.96 170.594 312.96H183.602C183.602 312.96 181.138 294.896 181.578 260.624C181.706 250.36 202.458 246.968 222.714 245.768C240.218 244.728 256.602 234.752 263.402 218.568L264.802 215.28H222.762Z" fill="white"/>
<path d="M167.544 309.464C167.488 309.464 169.776 315.48 169.776 315.48L185.488 314.352L184.568 308.912L167.544 309.464Z" fill="#754FFE"/>
<path d="M240.257 177.664L231.801 210.248C229.639 218.596 228.547 227.185 228.553 235.808V250.952C228.553 254.776 231.369 257.88 234.849 257.88H278.193C281.673 257.88 284.489 254.776 284.489 250.952V235.808C284.486 227.184 285.58 218.595 287.745 210.248L295.209 181.448C296.361 177.024 293.337 172.648 289.153 172.648H246.305C244.882 172.693 243.516 173.21 242.42 174.119C241.325 175.027 240.564 176.274 240.257 177.664Z" fill="#263238"/>
<path d="M186.346 242.104L187.762 250.184C188.514 254.432 192.25 257.88 196.114 257.88H244.298C248.162 257.88 250.698 254.432 249.946 250.184L248.53 242.104C247.674 237.264 243.426 233.344 239.026 233.344H192.802C188.37 233.344 185.498 237.264 186.346 242.104Z" fill="#263238"/>
<path d="M248.936 265.992H223.696L221.232 257.88H251.4L248.936 265.992Z" fill="#754FFE"/>
<path d="M240.825 265.992H231.809V326.32H240.825V265.992Z" fill="#754FFE"/>
<path opacity="0.7" d="M240.825 326.32H231.809V267.44L240.825 268.36V326.32Z" fill="white"/>
<path opacity="0.7" d="M238.625 326.32H236.473V267.912L238.625 268.136V326.32Z" fill="white"/>
<path d="M257.049 335.648H215.577C215.335 335.646 215.1 335.568 214.905 335.425C214.711 335.281 214.566 335.08 214.491 334.85C214.417 334.62 214.417 334.373 214.491 334.142C214.565 333.912 214.71 333.711 214.905 333.568L221.481 328.768C224.642 326.453 228.458 325.203 232.377 325.2H240.257C244.173 325.204 247.986 326.454 251.145 328.768L257.729 333.568C257.924 333.712 258.069 333.913 258.143 334.144C258.217 334.375 258.217 334.624 258.141 334.854C258.066 335.085 257.92 335.285 257.724 335.428C257.528 335.571 257.292 335.648 257.049 335.648Z" fill="#754FFE"/>
</svg>
