<svg width="75" height="120" viewBox="0 0 75 120" fill="none" xmlns="http://www.w3.org/2000/svg">
<g clip-path="url(#clip0_6050_30055)">
<path fill-rule="evenodd" clip-rule="evenodd" d="M4.45691 72.1323C2.25587 72.9609 0.809833 72.9955 0.361947 72.9091C0.106012 72.9091 -0.149923 73.1034 0.106012 75.4986C0.31566 77.4606 2.11383 78.0326 2.89806 78.2821C3.07121 78.3371 3.19493 78.3765 3.24122 78.4116C3.44596 78.567 3.49715 78.8648 3.49715 78.9942C3.49715 78.9942 3.24122 81.3894 3.49715 86.4387C3.75309 91.488 7.97601 93.6027 9.63959 94.1422C12.7321 94.7895 20.1841 95.6958 25.2516 94.1422C30.9649 92.3905 31.9936 88.1111 32.7507 84.9613L32.7508 84.9611C32.833 84.6187 32.9121 84.2897 32.9937 83.9788C33.5566 81.832 34.8156 81.557 35.5 81.5232C36.1844 81.557 37.4434 81.832 38.0063 83.9788C38.0879 84.2897 38.167 84.6187 38.2492 84.9611L38.2493 84.9613C39.0064 88.1111 40.0351 92.3905 45.7484 94.1422C50.8159 95.6958 58.2679 94.7895 61.3604 94.1422C63.024 93.6027 67.2469 91.488 67.5029 86.4387C67.7588 81.3894 67.5029 78.9942 67.5029 78.9942C67.5029 78.8648 67.554 78.567 67.7588 78.4116C67.8051 78.3765 67.9288 78.3371 68.1019 78.2821C68.8862 78.0326 70.6843 77.4606 70.894 75.4986C71.1499 73.1034 70.894 72.9091 70.6381 72.9091C70.1902 72.9955 68.7441 72.9609 66.5431 72.1323C64.8155 71.6792 60.1575 70.8247 55.3459 71.0318C50.5344 71.239 45.7484 72.1108 43.9568 72.5208C43.0611 72.7365 40.9112 73.5824 39.478 75.2396C39.1421 75.628 38.2879 76.2754 36.0868 76.2754H34.9132C32.7121 76.2754 31.858 75.628 31.522 75.2396C30.0888 73.5824 27.9389 72.7365 27.0432 72.5208C25.2516 72.1108 20.4656 71.239 15.6541 71.0318C10.8425 70.8247 6.18447 71.6792 4.45691 72.1323ZM6.76031 80.0947C6.76031 77.5921 8.76557 75.5633 11.2392 75.5633H23.7328C27.0729 75.5633 29.7732 78.3167 29.7471 81.6959L29.73 83.9141C29.6948 88.4649 26.0385 92.1354 21.5403 92.1354H14.3104C10.1406 92.1354 6.76031 88.7154 6.76031 84.4967V80.0947ZM64.2397 80.0947C64.2397 77.5921 62.2344 75.5633 59.7608 75.5633H47.2672C43.9271 75.5633 41.2268 78.3167 41.2529 81.6959L41.27 83.9141C41.3052 88.4649 44.9615 92.1354 49.4597 92.1354H56.6896C60.8594 92.1354 64.2397 88.7154 64.2397 84.4967V80.0947Z" fill="#19CB98"/>
<path fill-rule="evenodd" clip-rule="evenodd" d="M9.67941 69.2315L5.17897 70C3.85028 62.8911 1.1543 45.4968 1 32.7905C3.87171 33.9433 11.261 36.4282 17.8445 37.1455C13.2798 34.6478 4.93467 26.527 8.07211 14.0256C12.8511 16.566 23.2964 21.7237 26.8454 22.0311C24.6166 18.5941 22.6921 9.37603 32.8245 0C33.0817 2.28423 36.1548 8.46661 46.3901 14.9222C56.6254 21.3779 69.7281 28.3288 75 30.9973L65.099 69.8719L60.0843 69.2315L59.6342 59.1125C59.5485 56.6575 58.387 52.0677 54.4266 53.3486C53.5146 53.6436 52.3612 54.1696 51.0012 54.7899C44.979 57.5366 34.9074 62.1301 23.8236 56.6789C12.6959 51.2061 11.987 56.6156 11.1972 62.643C10.8963 64.9386 10.5838 67.3238 9.67941 69.2315ZM68 32.6685L65.739 45.9167L58.1809 39.3563C49.8475 44.5579 30.1447 52.3115 18 41.713C23.5125 43.8361 37.4444 46.2479 49.0724 38.9105C42.4617 38.0188 28.2067 34.401 24.0724 27.0635C29.9294 29.5476 43.2972 33.9169 49.9121 31.522C47.6512 29.8873 42.6641 24.6941 40.8036 17C44.0121 21.0127 53.9432 29.7641 68 32.6685Z" fill="#754FFE"/>
<path d="M25.7961 80.8425C25.7961 81.8602 25.3232 82.6851 24.7398 82.6851C24.1565 82.6851 23.6836 81.8602 23.6836 80.8425C23.6836 79.8249 24.1565 79 24.7398 79C25.3232 79 25.7961 79.8249 25.7961 80.8425Z" fill="#754FFE"/>
<path d="M45.3364 80.8425C45.3364 81.8602 45.8093 82.6851 46.3926 82.6851C46.976 82.6851 47.4489 81.8602 47.4489 80.8425C47.4489 79.8249 46.976 79 46.3926 79C45.8093 79 45.3364 79.8249 45.3364 80.8425Z" fill="#754FFE"/>
<path d="M37.8549 92.8191C36.0945 94.4569 33.7179 93.638 33.1018 92.8191C33.2778 93.8427 33.8588 96 35.4783 96C37.0979 96 37.7669 93.638 37.8549 92.8191Z" fill="#754FFE"/>
<path fill-rule="evenodd" clip-rule="evenodd" d="M31.8993 100.279C31.9725 99.8929 32.3012 99.6486 32.6335 99.7337L38.8527 101.326C39.185 101.411 39.3951 101.793 39.3219 102.18C39.2488 102.566 38.92 102.811 38.5877 102.726L32.3686 101.133C32.0363 101.048 31.8262 100.666 31.8993 100.279Z" fill="#754FFE"/>
<path d="M35.4782 117.284C23.2259 117.448 14.2362 104.318 11.2729 97.7326C10.8328 96.7546 10.4808 96.6065 10.2167 96.8113C9.79418 97.1389 10.0993 97.8008 10.2166 98.142C11.6954 102.155 13.7081 105.546 14.5296 106.741C11.6426 112.309 10.6861 117.864 10.5687 119.945C15.357 114.459 20.1921 114.725 22.0112 115.544C36.2703 124.142 44.1922 118.103 48.6811 115.544C52.2723 113.497 57.8645 117.489 60.2116 119.741C59.93 114.664 57.5711 109.095 56.4268 106.945C58.2752 104.079 59.7716 100.599 60.5637 98.8586C61.1975 97.4664 61.0038 96.9136 60.8278 96.8113C60.4053 96.5656 59.8889 97.3231 59.6835 97.7326C58.3632 100.292 50.7936 117.079 35.4782 117.284Z" fill="#754FFE"/>
</g>
<defs>
<clipPath id="clip0_6050_30055">
<rect width="75" height="120" fill="white"/>
</clipPath>
</defs>
</svg>
