<svg width="84" height="115" viewBox="0 0 84 115" fill="none" xmlns="http://www.w3.org/2000/svg">
<path fill-rule="evenodd" clip-rule="evenodd" d="M8.00282 67.4818C6.95968 68.0504 5.95379 68.0202 5.58124 67.9341C4.53759 67.9341 5.14276 72.204 5.52484 74.8999C5.5443 75.0372 5.56318 75.1705 5.58124 75.2989C5.87928 77.4179 6.57471 78.0768 6.88517 78.1414H8.43747C8.63616 78.1414 8.64444 78.3137 8.62374 78.3998C8.62374 85.5837 10.9211 87.8965 13.7153 89.77C15.578 90.373 19.614 91.5143 27.7481 90.7391C34.7644 89.77 37.053 83.8911 37.4344 81.1132C37.6828 78.9813 38.1795 77.0432 39.9802 76.8493C41.7808 77.0432 42.3172 78.9813 42.5656 81.1132C42.947 83.8911 45.2356 89.77 52.2519 90.7391C60.386 91.5143 64.422 90.373 66.2847 89.77C69.0789 87.8965 71.3763 85.5837 71.3763 78.3998C71.3556 78.3137 71.3638 78.1414 71.5625 78.1414H73.1148C73.4253 78.0768 74.1207 77.4179 74.4188 75.2989C74.4366 75.1721 74.4552 75.0406 74.4744 74.9052L74.4752 74.8999C74.8572 72.204 75.4624 67.9341 74.4188 67.9341C74.0462 68.0202 73.0403 68.0504 71.9972 67.4818C70.6932 66.7712 59.3304 64.5723 48.5885 67.4173C47.4502 67.7188 45.2976 68.6835 44.5525 69.8722C43.8074 71.0609 41.1806 71.4873 39.9802 71.5519C38.7797 71.4873 36.1926 71.0609 35.4475 69.8722C34.7024 68.6835 32.5498 67.7188 31.4115 67.4173C20.6696 64.5723 9.30675 66.7712 8.00282 67.4818ZM11.9146 75.3635C11.9146 72.7946 13.9162 70.712 16.3852 70.712H28.0362C31.6593 70.712 34.5734 73.8128 34.4921 77.5815L34.4525 79.4185C34.3508 84.1392 30.6567 87.9182 26.1185 87.9442L19.5316 87.982C15.3317 88.0061 11.9146 84.4704 11.9146 80.1005V75.3635ZM68.0854 75.3635C68.0854 72.7946 66.0838 70.712 63.6148 70.712H51.9638C48.3407 70.712 45.4266 73.8128 45.5079 77.5815L45.5475 79.4185C45.6492 84.1392 49.3433 87.9182 53.8815 87.9442L60.4684 87.982C64.6683 88.0061 68.0854 84.4704 68.0854 80.1005V75.3635Z" fill="#6AD2FF"/>
<path d="M0.527187 36.7391L6.19917 65C7.12731 64.6917 12.043 64.058 14.3849 63.7796C14.3849 63.7796 14.3591 61.5959 14.256 56.4575C14.1528 51.3192 16.6408 48.6215 19.3478 47.4654C18.4197 49.6749 19.7346 54.3808 20.508 56.4575C23.5503 50.1887 32.9047 45.1103 37.2017 43.3547C33.4891 48.0306 33.8071 56.222 34.4302 59.7332C48.0945 49.251 61.1787 46.2879 66.0128 46.1166L65.5616 63.6512C67.9335 63.3943 72.05 63.9723 73.8117 64.2935L79.0325 37.5099C77.8981 38.0751 75.8099 38.6409 68.9777 39.8864C59.6318 41.4279 51.6609 44.6607 49.5769 46.1166C52.6707 42.7125 65.1104 39.0514 71.1691 38.0237C76.0161 37.2016 81.224 35.7757 82.1263 35.0049C83.6733 34.0415 85.4264 29.0445 82.1263 24.7283C75.2297 15.9931 60.8564 13.9377 51.7684 11.6255C44.4979 9.77569 38.5552 6.44433 36.4927 5.00988C41.1334 9.8913 51.2312 13.5096 55.7001 14.7085C36.6732 12.4476 29.1234 3.9608 27.7269 0C21.2815 4.26482 24.1819 13.4667 26.4378 17.5346C23.1893 14.7599 22.5061 8.97069 22.5706 6.42292C19.1674 12.0751 21.926 19.0975 23.7307 21.9022C20.3275 21.3883 18.0588 17.4918 17.3498 15.6077C16.8771 15.8218 14.836 17.0721 10.4531 20.3607C6.07025 23.6492 4.58781 28.2395 4.39445 30.1235C3.15693 24.3686 12.086 16.9351 16.7052 13.9377C14.7716 14.6871 9.60236 17.3291 4.39445 21.9022C-0.81347 26.4753 -0.310693 33.2708 0.527187 36.7391Z" fill="#754FFE"/>
<path d="M29.9641 76.7976C29.9641 77.7904 29.4263 78.5952 28.7629 78.5952C28.0995 78.5952 27.5617 77.7904 27.5617 76.7976C27.5617 75.8048 28.0995 75 28.7629 75C29.4263 75 29.9641 75.8048 29.9641 76.7976Z" fill="#754FFE"/>
<path d="M52.1865 76.7976C52.1865 77.7904 52.7243 78.5952 53.3877 78.5952C54.0511 78.5952 54.5889 77.7904 54.5889 76.7976C54.5889 75.8048 54.0511 75 53.3877 75C52.7243 75 52.1865 75.8048 52.1865 76.7976Z" fill="#754FFE"/>
<path d="M43.678 88.4821C41.676 90.0799 38.9732 89.281 38.2725 88.4821C38.4727 89.4807 39.2335 90.8789 41.0753 90.8789C42.9172 90.8789 43.5779 89.281 43.678 88.4821Z" fill="#754FFE"/>
<path fill-rule="evenodd" clip-rule="evenodd" d="M36.9052 95.7604C36.9884 95.3834 37.3623 95.145 37.7402 95.228L44.813 96.7815C45.1909 96.8645 45.4298 97.2375 45.3466 97.6146C45.2634 97.9916 44.8896 98.23 44.5116 98.147L37.4389 96.5934C37.061 96.5104 36.822 96.1375 36.9052 95.7604Z" fill="#754FFE"/>
<path d="M40.9752 112.35C27.0413 112.51 16.8176 99.7004 13.4476 93.2757C12.9471 92.3215 12.5467 92.1771 12.2464 92.3769C11.7659 92.6965 12.1129 93.3423 12.2464 93.6751C13.9281 97.5899 16.217 100.899 17.1513 102.064C13.868 107.497 12.7802 112.916 12.6468 114.947C18.0922 109.594 23.5911 109.854 25.6598 110.653C41.876 119.041 50.8852 113.149 55.9903 110.653C60.0744 108.655 66.4341 112.55 69.1034 114.747C68.7831 109.794 66.1004 104.361 64.7991 102.264C66.9012 99.4674 68.6029 96.072 69.5038 94.3742C70.2246 93.016 70.0043 92.4767 69.8041 92.3769C69.3237 92.1372 68.7364 92.8762 68.5028 93.2757C67.0013 95.7723 58.3927 112.151 40.9752 112.35Z" fill="#754FFE"/>
</svg>
