<svg width="320" height="320" viewBox="0 0 320 320" fill="none" xmlns="http://www.w3.org/2000/svg">
<path d="M320 244.736H0V244.896H320V244.736Z" fill="#E8E7ED"/>
<path d="M287.935 255.034H266.738V255.194H287.935V255.034Z" fill="#E8E7ED"/>
<path d="M211.982 256.774H206.42V256.934H211.982V256.774Z" fill="#E8E7ED"/>
<path d="M266.1 249.095H253.818V249.255H266.1V249.095Z" fill="#E8E7ED"/>
<path d="M61.2158 250.17H33.5742V250.33H61.2158V250.17Z" fill="#E8E7ED"/>
<path d="M70.9692 250.17H66.918V250.33H70.9692V250.17Z" fill="#E8E7ED"/>
<path d="M144.096 252.87H84.1406V253.03H144.096V252.87Z" fill="#E8E7ED"/>
<path d="M151.681 216.192H28.1031C27.135 216.191 26.2071 215.805 25.5232 215.12C24.8392 214.434 24.4551 213.506 24.4551 212.538V38.8226C24.4635 37.8601 24.8514 36.9397 25.5344 36.2615C26.2174 35.5832 27.1405 35.2018 28.1031 35.2002H151.681C152.65 35.2002 153.579 35.5852 154.265 36.2705C154.95 36.9559 155.335 37.8854 155.335 38.8546V212.538C155.335 213.507 154.95 214.437 154.265 215.122C153.579 215.807 152.65 216.192 151.681 216.192ZM28.1031 35.3282C27.1774 35.3299 26.2902 35.6988 25.6363 36.3539C24.9824 37.0091 24.6151 37.8969 24.6151 38.8226V212.538C24.6151 213.463 24.9824 214.351 25.6363 215.006C26.2902 215.662 27.1774 216.031 28.1031 216.032H151.681C152.607 216.031 153.495 215.662 154.15 215.007C154.805 214.352 155.173 213.464 155.175 212.538V38.8226C155.173 37.8963 154.805 37.0085 154.15 36.3535C153.495 35.6986 152.607 35.3299 151.681 35.3282H28.1031Z" fill="#E8E7ED"/>
<path d="M290.119 216.192H166.535C165.567 216.191 164.638 215.805 163.953 215.12C163.268 214.435 162.883 213.507 162.881 212.538V38.8226C162.891 37.8595 163.28 36.9391 163.964 36.2611C164.648 35.583 165.572 35.2018 166.535 35.2002H290.119C291.081 35.2035 292.002 35.5856 292.684 36.2637C293.365 36.9418 293.752 37.8612 293.761 38.8226V212.538C293.761 213.505 293.378 214.432 292.695 215.117C292.012 215.802 291.086 216.189 290.119 216.192ZM166.535 35.3282C165.609 35.3299 164.721 35.6986 164.066 36.3535C163.411 37.0085 163.043 37.8963 163.041 38.8226V212.538C163.043 213.464 163.411 214.352 164.066 215.007C164.721 215.662 165.609 216.031 166.535 216.032H290.119C291.046 216.031 291.933 215.662 292.588 215.007C293.243 214.352 293.612 213.464 293.614 212.538V38.8226C293.612 37.8963 293.243 37.0085 292.588 36.3535C291.933 35.6986 291.046 35.3299 290.119 35.3282H166.535Z" fill="#E8E7ED"/>
<path d="M171.38 244.736H193.844V161.069H171.38V244.736Z" fill="#E8E7ED"/>
<path d="M175.116 244.736H171.379V237.203H179.04L175.116 244.736Z" fill="#ECEBF1"/>
<path d="M262.809 244.736H285.273V161.069H262.809V244.736Z" fill="#E8E7ED"/>
<path d="M171.38 241.844H266.074V161.069H171.38V241.844Z" fill="#ECEBF1"/>
<path d="M174.284 186.797H263.174V164.646H174.284V186.797Z" fill="#E8E7ED"/>
<path d="M214.528 171.52H222.924C226.572 171.52 230.06 168.788 232.569 163.962H204.883C207.392 168.8 210.88 171.52 214.528 171.52Z" fill="#ECEBF1"/>
<path d="M262.335 244.736H266.073V237.203H258.412L262.335 244.736Z" fill="#ECEBF1"/>
<path d="M174.284 212.531H263.174V190.381H174.284V212.531Z" fill="#E8E7ED"/>
<path d="M214.528 197.261H222.924C226.572 197.261 230.06 194.528 232.569 189.702H204.883C207.392 194.56 210.88 197.261 214.528 197.261Z" fill="#ECEBF1"/>
<path d="M174.284 238.266H263.174V216.115H174.284V238.266Z" fill="#E8E7ED"/>
<path d="M214.528 222.995H222.924C226.572 222.995 230.06 220.262 232.569 215.437H204.883C207.392 220.262 210.88 222.995 214.528 222.995Z" fill="#ECEBF1"/>
<path d="M49.9136 142.093H135.699V55.2896L49.9136 55.2896L49.9136 142.093Z" fill="#E8E7ED"/>
<path d="M43.9559 142.093H134.119V55.2896L43.9559 55.2896L43.9559 142.093Z" fill="#ECEBF1"/>
<path d="M126.572 134.541V62.8418L51.5195 62.8418V134.541H126.572Z" fill="white"/>
<path d="M88.5248 72.3198L74.752 86.1182C71.4238 89.4547 69.5547 93.9751 69.5547 98.6878C69.5547 103.4 71.4238 107.921 74.752 111.257L88.5248 125.037C88.592 125.104 88.6718 125.157 88.7596 125.194C88.8475 125.23 88.9416 125.249 89.0368 125.249C89.1319 125.249 89.2261 125.23 89.3139 125.194C89.4018 125.157 89.4816 125.104 89.5488 125.037L103.328 111.257C106.656 107.921 108.525 103.4 108.525 98.6878C108.525 93.9751 106.656 89.4547 103.328 86.1182L89.5552 72.3198C89.4176 72.1849 89.2326 72.1094 89.04 72.1094C88.8473 72.1094 88.6624 72.1849 88.5248 72.3198ZM75.776 110.208C72.7202 107.144 71.0041 102.993 71.0041 98.6654C71.0041 94.3379 72.7202 90.1871 75.776 87.123V110.208ZM102.304 110.208V87.1486C105.36 90.2127 107.076 94.3635 107.076 98.691C107.076 103.018 105.36 107.169 102.304 110.233V110.208Z" fill="#ECEBF1"/>
<path d="M260.383 131.2H212.453L209.721 159.501H257.65L260.383 131.2Z" fill="#E8E7ED"/>
<path d="M257.651 159.501L257.459 161.069H209.523L209.722 159.501H257.651Z" fill="#E8E7ED"/>
<path d="M258.913 131.2H210.983L208.244 159.501H256.174L258.913 131.2Z" fill="#ECEBF1"/>
<path d="M255.206 157.658L257.209 133.12C257.214 133.039 257.203 132.957 257.175 132.88C257.148 132.803 257.105 132.732 257.049 132.672C256.993 132.612 256.926 132.565 256.851 132.532C256.776 132.499 256.695 132.481 256.614 132.48H212.55C212.399 132.48 212.253 132.536 212.141 132.638C212.03 132.74 211.961 132.88 211.948 133.031L209.919 157.562C209.914 157.644 209.926 157.727 209.953 157.804C209.981 157.882 210.025 157.953 210.081 158.013C210.138 158.073 210.206 158.12 210.281 158.153C210.357 158.186 210.438 158.202 210.521 158.202H254.585C254.739 158.209 254.889 158.157 255.005 158.055C255.121 157.954 255.193 157.811 255.206 157.658Z" fill="white"/>
<path d="M243.686 159.501L243.494 161.069H190.713L190.905 159.501H243.686Z" fill="#ECEBF1"/>
<path d="M179.259 116.07L269.262 116.07V56.2367L179.259 56.2367V116.07Z" fill="#E8E7ED"/>
<path d="M177.26 116.07L267.264 116.07V56.2367L177.26 56.2367V116.07Z" fill="#F5F5F5"/>
<path d="M263.674 112.039V60.2754L180.851 60.2754V112.039H263.674Z" fill="white"/>
<path d="M182.355 112.032V60.2686H180.845V112.032H182.355Z" fill="#E8E7ED"/>
<path d="M178.746 105.172L265.779 105.172V99.7575L178.746 99.7575V105.172Z" fill="#F5F5F5"/>
<path d="M173.344 49.5684H273.184C273.329 49.57 273.468 49.6285 273.571 49.7314C273.674 49.8343 273.733 49.9733 273.734 50.1188C273.734 50.2647 273.676 50.4047 273.573 50.5079C273.47 50.6112 273.33 50.6692 273.184 50.6692H173.344C173.271 50.67 173.199 50.6564 173.131 50.6291C173.064 50.6018 173.002 50.5614 172.951 50.5102C172.899 50.459 172.858 50.3981 172.83 50.3309C172.802 50.2637 172.787 50.1916 172.787 50.1188C172.789 49.9722 172.848 49.8322 172.952 49.7292C173.057 49.6261 173.197 49.5683 173.344 49.5684Z" fill="#E8E7ED"/>
<path d="M171.412 50.1187C171.412 50.3919 171.493 50.6589 171.645 50.8861C171.796 51.1133 172.012 51.2905 172.264 51.3953C172.516 51.5001 172.794 51.5279 173.062 51.475C173.33 51.4222 173.576 51.2912 173.77 51.0985C173.963 50.9058 174.095 50.6601 174.15 50.3923C174.204 50.1246 174.177 49.8469 174.073 49.5941C173.97 49.3414 173.794 49.1251 173.567 48.9724C173.341 48.8198 173.074 48.7376 172.801 48.7363C172.619 48.7355 172.438 48.7706 172.27 48.8397C172.101 48.9088 171.948 49.0105 171.819 49.139C171.69 49.2674 171.588 49.4201 171.518 49.5882C171.448 49.7564 171.412 49.9367 171.412 50.1187Z" fill="#E8E7ED"/>
<path d="M268.512 53.2166C268.708 53.2167 268.897 53.1395 269.037 53.0019C269.177 52.8642 269.257 52.677 269.261 52.4806V50.8806C269.261 50.682 269.182 50.4916 269.041 50.3512C268.901 50.2107 268.711 50.1318 268.512 50.1318C268.414 50.1318 268.317 50.1512 268.226 50.189C268.136 50.2267 268.054 50.2819 267.985 50.3515C267.916 50.4212 267.861 50.5038 267.824 50.5946C267.787 50.6854 267.769 50.7826 267.77 50.8806V52.4806C267.773 52.6759 267.852 52.8621 267.991 52.9996C268.13 53.1371 268.317 53.215 268.512 53.2166Z" fill="#E8E7ED"/>
<path d="M181.676 53.2166C181.868 53.2086 182.049 53.1281 182.183 52.9914C182.317 52.8547 182.395 52.6722 182.399 52.4806V50.8806C182.399 50.682 182.321 50.4916 182.18 50.3512C182.04 50.2107 181.849 50.1318 181.651 50.1318C181.553 50.1318 181.456 50.1512 181.365 50.189C181.275 50.2267 181.192 50.2819 181.123 50.3515C181.054 50.4212 181 50.5038 180.963 50.5946C180.926 50.6854 180.907 50.7826 180.908 50.8806V52.4806C180.91 52.5795 180.931 52.6771 180.971 52.7677C181.01 52.8584 181.067 52.9403 181.139 53.0087C181.21 53.0771 181.294 53.1307 181.387 53.1664C181.479 53.2021 181.577 53.2192 181.676 53.2166Z" fill="#E8E7ED"/>
<path opacity="0.4" d="M173.523 108.25L265.779 108.25V50.1188L173.523 50.1188V108.25Z" fill="#ECEBF1"/>
<path d="M258.246 50.1187C258.246 50.3921 258.327 50.6594 258.479 50.8867C258.631 51.1141 258.847 51.2913 259.099 51.3959C259.352 51.5005 259.63 51.5279 259.898 51.4746C260.166 51.4212 260.413 51.2896 260.606 51.0962C260.799 50.9029 260.931 50.6566 260.984 50.3884C261.038 50.1203 261.01 49.8423 260.906 49.5897C260.801 49.3371 260.624 49.1212 260.397 48.9693C260.169 48.8174 259.902 48.7363 259.629 48.7363C259.262 48.7363 258.91 48.882 258.651 49.1412C258.392 49.4005 258.246 49.7521 258.246 50.1187Z" fill="#E8E7ED"/>
<path d="M127.68 240.589H135.078V176.416H127.68L127.68 240.589Z" fill="#ECEBF1"/>
<path d="M47.4235 244.653H132.236V240.589H47.4235V244.653Z" fill="#ECEBF1"/>
<path d="M127.68 176.416H44.582V240.589H127.68V176.416Z" fill="#F5F5F5"/>
<path d="M117.306 184.313H54.9572C52.4405 184.313 50.4004 186.354 50.4004 188.87V200.8C50.4004 203.317 52.4405 205.357 54.9572 205.357H117.306C119.823 205.357 121.863 203.317 121.863 200.8V188.87C121.863 186.354 119.823 184.313 117.306 184.313Z" fill="#ECEBF1"/>
<path d="M117.306 211.642H54.9572C52.4405 211.642 50.4004 213.682 50.4004 216.198V228.128C50.4004 230.645 52.4405 232.685 54.9572 232.685H117.306C119.823 232.685 121.863 230.645 121.863 228.128V216.198C121.863 213.682 119.823 211.642 117.306 211.642Z" fill="#ECEBF1"/>
<path d="M70.6495 196.282H101.613C101.995 196.282 102.362 196.13 102.633 195.861C102.904 195.591 103.057 195.224 103.059 194.842C103.057 194.459 102.905 194.092 102.634 193.821C102.363 193.55 101.996 193.397 101.613 193.396H70.6495C70.2664 193.397 69.8995 193.55 69.6286 193.821C69.3577 194.092 69.2048 194.459 69.2031 194.842C69.2048 195.224 69.358 195.591 69.629 195.861C69.9001 196.13 70.267 196.282 70.6495 196.282Z" fill="#F5F5F5"/>
<path d="M70.6495 223.61H101.613C101.995 223.61 102.362 223.459 102.633 223.189C102.904 222.919 103.057 222.553 103.059 222.17C103.057 221.787 102.905 221.42 102.634 221.149C102.363 220.878 101.996 220.725 101.613 220.724H70.6495C70.2664 220.725 69.8995 220.878 69.6286 221.149C69.3577 221.42 69.2048 221.787 69.2031 222.17C69.2048 222.553 69.358 222.919 69.629 223.189C69.9001 223.459 70.267 223.61 70.6495 223.61Z" fill="#F5F5F5"/>
<path d="M160 273.638C228.533 273.638 284.089 270.394 284.089 266.393C284.089 262.392 228.533 259.148 160 259.148C91.467 259.148 35.9102 262.392 35.9102 266.393C35.9102 270.394 91.467 273.638 160 273.638Z" fill="#F5F5F5"/>
<path d="M187.424 64.9277H69.1523L78.3427 225.997H196.608L187.424 64.9277Z" fill="#18113C"/>
<path d="M189.721 64.9277H71.4492L80.6396 225.997H198.912L189.721 64.9277Z" fill="#754FFE"/>
<path opacity="0.5" d="M181.574 70.3418H76.8574L84.3646 216.14H191.801L181.574 70.3418Z" fill="black"/>
<path d="M76.8574 70.3418C84.6398 118.943 79.3022 167.545 87.0974 216.14H194.521C186.739 167.545 192.077 118.943 184.281 70.3418H76.8574Z" fill="white"/>
<g opacity="0.3">
<path opacity="0.3" d="M98.8223 114.028C101.195 114.047 103.469 114.976 105.177 116.623C106.885 118.27 107.895 120.509 108 122.879C108.048 124.02 107.863 125.157 107.457 126.224C107.051 127.29 106.432 128.263 105.638 129.083C104.844 129.902 103.892 130.552 102.839 130.992C101.786 131.431 100.655 131.652 99.5135 131.641C97.1558 131.621 94.896 130.695 93.2027 129.054C91.5095 127.414 90.5127 125.184 90.4191 122.828C90.3698 121.691 90.5501 120.556 90.9492 119.491C91.3484 118.425 91.9582 117.451 92.7423 116.627C93.5288 115.809 94.4735 115.161 95.5188 114.721C96.5641 114.281 97.6881 114.058 98.8223 114.067V114.028ZM98.7583 112.217C97.3788 112.208 96.012 112.481 94.7416 113.019C93.4711 113.556 92.3237 114.348 91.3694 115.344C90.4151 116.34 89.674 117.52 89.1915 118.813C88.709 120.105 88.4952 121.482 88.5631 122.86C88.6748 125.705 89.8772 128.397 91.9208 130.379C93.9645 132.36 96.6925 133.479 99.5391 133.503C100.925 133.515 102.299 133.245 103.577 132.71C104.855 132.175 106.012 131.386 106.976 130.391C107.941 129.396 108.694 128.215 109.189 126.921C109.683 125.626 109.91 124.245 109.856 122.86C109.718 120.003 108.491 117.308 106.427 115.328C104.363 113.348 101.618 112.235 98.7583 112.217Z" fill="#754FFE"/>
</g>
<path d="M158.22 193.868H124.3C124.046 193.864 123.795 193.914 123.562 194.015C123.329 194.115 123.12 194.264 122.949 194.452C122.778 194.64 122.65 194.862 122.571 195.103C122.493 195.345 122.467 195.6 122.495 195.852C122.557 196.392 122.812 196.891 123.214 197.257C123.615 197.623 124.135 197.831 124.678 197.843H158.598C158.852 197.847 159.104 197.798 159.337 197.696C159.57 197.595 159.778 197.445 159.948 197.256C160.118 197.068 160.245 196.845 160.322 196.602C160.398 196.36 160.421 196.104 160.39 195.852C160.33 195.315 160.076 194.818 159.678 194.453C159.279 194.088 158.761 193.881 158.22 193.868Z" fill="#ECEBF1"/>
<path d="M176.365 185.517H123.617C123.361 185.512 123.108 185.561 122.873 185.661C122.638 185.761 122.427 185.91 122.254 186.097C122.08 186.285 121.948 186.507 121.867 186.748C121.785 186.99 121.755 187.247 121.78 187.501C121.826 188.039 122.07 188.54 122.465 188.908C122.86 189.276 123.378 189.484 123.917 189.491H176.641C176.896 189.499 177.151 189.452 177.387 189.354C177.623 189.256 177.836 189.109 178.011 188.922C178.187 188.736 178.32 188.515 178.404 188.273C178.488 188.032 178.519 187.775 178.497 187.52C178.455 186.981 178.214 186.476 177.819 186.105C177.425 185.735 176.906 185.525 176.365 185.517Z" fill="#ECEBF1"/>
<g opacity="0.3">
<path opacity="0.3" d="M99.904 148.48C102.259 148.497 104.516 149.423 106.204 151.066C107.892 152.708 108.879 154.939 108.96 157.293C109.003 158.432 108.816 159.569 108.41 160.634C108.005 161.7 107.388 162.673 106.598 163.495C105.808 164.313 104.859 164.963 103.809 165.403C102.759 165.843 101.631 166.065 100.493 166.055C98.1322 166.038 95.8685 165.114 94.1715 163.473C92.4745 161.832 91.4745 159.601 91.3792 157.242C91.3403 156.101 91.5325 154.964 91.9442 153.899C92.3558 152.834 92.9784 151.863 93.7746 151.045C94.5708 150.226 95.5242 149.577 96.5775 149.137C97.6308 148.696 98.7623 148.473 99.904 148.48ZM99.904 146.624C98.5173 146.616 97.1431 146.887 95.8639 147.423C94.5848 147.958 93.4269 148.747 92.4599 149.741C91.4929 150.735 90.7365 151.914 90.2363 153.207C89.7361 154.5 89.5022 155.881 89.5488 157.267C89.6624 160.12 90.8713 162.818 92.924 164.802C94.9767 166.785 97.7151 167.901 100.57 167.917C101.952 167.922 103.322 167.648 104.595 167.11C105.869 166.572 107.02 165.781 107.98 164.786C108.94 163.791 109.688 162.612 110.18 161.319C110.672 160.027 110.897 158.649 110.842 157.267C110.746 154.424 109.554 151.728 107.515 149.745C105.476 147.761 102.749 146.642 99.904 146.624Z" fill="#754FFE"/>
</g>
<path d="M139.391 120.634H121.247C120.714 120.629 120.203 120.42 119.82 120.05C119.436 119.679 119.21 119.176 119.187 118.643C119.178 118.386 119.221 118.129 119.314 117.889C119.407 117.648 119.547 117.429 119.726 117.244C119.905 117.059 120.12 116.912 120.357 116.811C120.594 116.711 120.849 116.659 121.107 116.659H139.244C139.778 116.663 140.289 116.871 140.675 117.24C141.06 117.609 141.29 118.111 141.318 118.643C141.327 118.902 141.284 119.16 141.192 119.401C141.099 119.643 140.959 119.863 140.779 120.049C140.599 120.235 140.383 120.382 140.145 120.483C139.906 120.583 139.65 120.635 139.391 120.634Z" fill="#ECEBF1"/>
<path d="M160.333 120.634H148.045C147.511 120.629 146.999 120.42 146.615 120.05C146.23 119.68 146.002 119.176 145.978 118.643C145.969 118.386 146.012 118.129 146.105 117.889C146.198 117.648 146.338 117.429 146.517 117.244C146.696 117.059 146.911 116.912 147.148 116.811C147.385 116.711 147.64 116.659 147.898 116.659H160.192C160.725 116.663 161.236 116.871 161.62 117.24C162.004 117.609 162.233 118.111 162.259 118.643C162.269 118.902 162.226 119.16 162.133 119.401C162.041 119.643 161.9 119.863 161.72 120.049C161.54 120.235 161.325 120.382 161.086 120.483C160.848 120.583 160.592 120.635 160.333 120.634Z" fill="#ECEBF1"/>
<path d="M170.24 128.985H121.536C121.003 128.982 120.492 128.774 120.109 128.403C119.726 128.032 119.501 127.527 119.482 126.995C119.473 126.737 119.516 126.481 119.609 126.24C119.702 126 119.842 125.781 120.021 125.596C120.2 125.41 120.414 125.263 120.652 125.163C120.889 125.062 121.144 125.011 121.402 125.011H170.099C170.63 125.014 171.14 125.222 171.522 125.591C171.903 125.961 172.127 126.464 172.147 126.995C172.157 127.252 172.114 127.508 172.023 127.748C171.931 127.988 171.793 128.208 171.615 128.394C171.437 128.579 171.224 128.727 170.987 128.829C170.751 128.93 170.497 128.984 170.24 128.985Z" fill="#ECEBF1"/>
<g opacity="0.3">
<path opacity="0.3" d="M101.293 182.887C103.681 182.933 105.967 183.859 107.715 185.486C109.462 187.113 110.548 189.328 110.765 191.706C110.88 192.82 110.762 193.946 110.42 195.012C110.077 196.079 109.517 197.062 108.775 197.901C108.026 198.725 107.11 199.38 106.088 199.822C105.066 200.263 103.962 200.481 102.848 200.461C100.44 200.422 98.1294 199.505 96.3499 197.882C94.5703 196.259 93.4447 194.043 93.1845 191.648C93.0747 190.526 93.2039 189.393 93.5635 188.324C93.9231 187.255 94.505 186.274 95.2709 185.447C96.0415 184.625 96.9752 183.972 98.0121 183.532C99.0491 183.091 100.167 182.871 101.293 182.887ZM101.204 181.037C99.8331 181.01 98.4723 181.273 97.2105 181.809C95.9487 182.345 94.8144 183.142 93.8819 184.147C92.9495 185.151 92.24 186.342 91.8 187.64C91.3599 188.939 91.1992 190.315 91.3285 191.68C91.8213 197.555 97.1525 202.323 103.028 202.323C108.903 202.323 113.114 197.555 112.628 191.68C112.374 188.81 111.067 186.135 108.959 184.17C106.851 182.205 104.091 181.089 101.21 181.037H101.204Z" fill="#754FFE"/>
</g>
<path d="M178.561 159.443H122.362C122.105 159.443 121.85 159.495 121.613 159.595C121.375 159.696 121.161 159.843 120.982 160.028C120.803 160.213 120.662 160.433 120.57 160.673C120.477 160.913 120.434 161.17 120.442 161.427C120.465 161.958 120.691 162.46 121.074 162.83C121.456 163.199 121.965 163.407 122.497 163.411H178.721C178.979 163.412 179.234 163.36 179.471 163.259C179.708 163.159 179.923 163.012 180.102 162.827C180.281 162.642 180.421 162.422 180.514 162.182C180.606 161.942 180.649 161.685 180.641 161.427C180.621 160.891 180.392 160.383 180.004 160.013C179.615 159.642 179.098 159.438 178.561 159.443Z" fill="#ECEBF1"/>
<path d="M165.242 151.085H122.119C121.86 151.085 121.605 151.137 121.367 151.238C121.13 151.338 120.915 151.486 120.735 151.672C120.556 151.858 120.416 152.078 120.324 152.319C120.232 152.56 120.189 152.817 120.199 153.075C120.217 153.606 120.439 154.108 120.82 154.478C121.201 154.848 121.709 155.056 122.24 155.059H165.37C165.627 155.059 165.882 155.008 166.12 154.907C166.357 154.807 166.571 154.66 166.751 154.475C166.93 154.289 167.07 154.07 167.162 153.83C167.255 153.589 167.298 153.333 167.29 153.075C167.275 152.542 167.052 152.036 166.67 151.664C166.287 151.293 165.775 151.085 165.242 151.085Z" fill="#ECEBF1"/>
<path d="M99.7961 129.101L99.0409 127.859C97.3833 125.152 93.9209 122.739 92.7305 122.029L93.6265 120.442C95.9773 121.865 98.0716 123.673 99.8217 125.792C102.542 122.138 106.516 118.381 111.898 114.323L113.057 115.821C107.297 120.154 103.214 124.141 100.596 127.936C100.334 128.326 100.065 128.717 99.7961 129.101Z" fill="#754FFE"/>
<path d="M100.756 163.533C100.507 163.117 100.251 162.701 99.9949 162.291C98.3309 159.584 94.8749 157.171 93.6973 156.455L94.6061 154.867C96.9448 156.294 99.028 158.103 100.769 160.218C103.496 156.57 107.502 152.807 112.968 148.749L114.1 150.247C108.264 154.579 104.155 158.567 101.55 162.362L100.756 163.533Z" fill="#754FFE"/>
<path d="M102.951 198.041L102.106 196.8C100.263 194.092 96.6917 191.68 95.4629 190.969L96.2949 189.382C98.7133 190.815 100.892 192.618 102.752 194.726C105.261 191.078 109.076 187.315 114.375 183.264L115.572 184.761C109.914 189.094 106.029 193.081 103.668 196.876L102.951 198.041Z" fill="#754FFE"/>
<path d="M143.425 82.5596C142.299 85.0172 141.145 87.4726 139.963 89.926C142.399 91.1378 144.482 92.9569 146.011 95.2078C147.54 97.4588 148.464 100.066 148.692 102.777H157.198C156.635 94.0796 151.041 86.5084 143.425 82.5596Z" fill="#754FFE"/>
<path d="M111.021 102.79H119.527C119.318 100.384 119.757 97.9664 120.796 95.7868C121.836 93.6072 123.44 91.7452 125.441 90.3933C123.785 87.9357 122.104 85.4781 120.397 83.0205C114.189 87.0397 110.477 94.4061 111.021 102.79Z" fill="#18113C"/>
<path d="M131.916 79.7051C127.836 79.6647 123.832 80.817 120.396 83.0203C122.103 85.4779 123.784 87.9355 125.44 90.3931C127.657 88.9441 130.253 88.1826 132.902 88.2043C135.353 88.2185 137.765 88.8129 139.942 89.9387C141.12 87.4811 142.274 85.0257 143.405 82.5723C139.859 80.7137 135.92 79.7306 131.916 79.7051Z" fill="#754FFE"/>
<path opacity="0.5" d="M131.916 79.7051C127.836 79.6647 123.832 80.817 120.396 83.0203C122.103 85.4779 123.784 87.9355 125.44 90.3931C127.657 88.9441 130.253 88.1826 132.902 88.2043C135.353 88.2185 137.765 88.8129 139.942 89.9387C141.12 87.4811 142.274 85.0257 143.405 82.5723C139.859 80.7137 135.92 79.7306 131.916 79.7051Z" fill="#18113C"/>
<path d="M142.311 96.9658C142.311 96.9658 133.722 100.479 132.813 101.119C132.596 101.284 132.414 101.49 132.278 101.726C132.142 101.961 132.054 102.222 132.02 102.492C131.986 102.762 132.006 103.037 132.08 103.299C132.153 103.561 132.279 103.806 132.448 104.019C132.769 104.474 133.254 104.787 133.801 104.891C134.348 104.994 134.914 104.881 135.379 104.575C136.32 103.897 142.323 96.9658 142.311 96.9658ZM133.287 103.366C133.203 103.261 133.141 103.141 133.105 103.011C133.069 102.882 133.059 102.747 133.076 102.614C133.092 102.481 133.135 102.353 133.202 102.237C133.269 102.121 133.359 102.02 133.466 101.939C133.696 101.79 133.975 101.736 134.244 101.787C134.513 101.839 134.752 101.991 134.912 102.214C134.996 102.319 135.057 102.439 135.094 102.568C135.13 102.697 135.14 102.832 135.123 102.965C135.107 103.098 135.064 103.226 134.997 103.343C134.929 103.459 134.84 103.56 134.733 103.641C134.506 103.792 134.229 103.85 133.96 103.804C133.691 103.757 133.45 103.61 133.287 103.391V103.366Z" fill="#18113C"/>
<path d="M152.493 92.9026C152.535 93.2878 152.494 93.6775 152.373 94.0458C152.253 94.4141 152.055 94.7524 151.794 95.0382C151.532 95.3241 151.212 95.5509 150.856 95.7035C150.5 95.8561 150.115 95.9311 149.728 95.9234C148.907 95.9072 148.12 95.591 147.517 95.0344C146.913 94.4779 146.534 93.7195 146.451 92.9026C146.407 92.5194 146.446 92.1313 146.564 91.7643C146.682 91.3972 146.878 91.0597 147.137 90.7743C147.397 90.4888 147.714 90.2621 148.068 90.1093C148.422 89.9565 148.805 89.8811 149.19 89.8881C150.014 89.9021 150.803 90.216 151.411 90.7711C152.019 91.3261 152.404 92.0841 152.493 92.9026Z" fill="white"/>
<path d="M148.748 92.2106C148.755 92.2714 148.748 92.3328 148.729 92.3909C148.71 92.449 148.679 92.5024 148.638 92.5477C148.597 92.593 148.547 92.6291 148.491 92.6537C148.435 92.6783 148.374 92.6909 148.313 92.6906C148.182 92.6896 148.055 92.64 147.958 92.5514C147.862 92.4627 147.801 92.3413 147.788 92.2106C147.781 92.1496 147.787 92.0877 147.805 92.0292C147.824 91.9706 147.855 91.9168 147.896 91.8712C147.938 91.8257 147.988 91.7896 148.045 91.7653C148.101 91.7411 148.162 91.7292 148.223 91.7306C148.355 91.7315 148.481 91.7811 148.578 91.8698C148.675 91.9584 148.736 92.0798 148.748 92.2106Z" fill="#18113C"/>
<path d="M151.04 92.2108C151.046 92.2721 151.039 92.3341 151.02 92.3926C151.001 92.4512 150.969 92.5049 150.927 92.5503C150.885 92.5957 150.835 92.6317 150.778 92.6559C150.721 92.6801 150.66 92.692 150.598 92.6908C150.468 92.687 150.343 92.6365 150.247 92.5484C150.15 92.4603 150.089 92.3404 150.073 92.2108C150.066 92.1492 150.072 92.0868 150.091 92.0278C150.11 91.9688 150.142 91.9146 150.184 91.8689C150.226 91.8233 150.277 91.7873 150.334 91.7635C150.391 91.7396 150.453 91.7285 150.515 91.7308C150.646 91.7317 150.773 91.7813 150.87 91.87C150.967 91.9586 151.027 92.08 151.04 92.2108Z" fill="#18113C"/>
<path d="M149.613 94.7194C148.98 94.7144 148.371 94.475 147.904 94.0474C147.86 94.0031 147.836 93.9433 147.836 93.881C147.836 93.8187 147.86 93.7589 147.904 93.7146C147.926 93.6921 147.952 93.6743 147.98 93.6621C148.009 93.6499 148.04 93.6436 148.071 93.6436C148.102 93.6436 148.133 93.6499 148.161 93.6621C148.19 93.6743 148.216 93.6921 148.237 93.7146C148.616 94.0637 149.111 94.2598 149.626 94.265C149.865 94.2703 150.103 94.2252 150.323 94.1326C150.544 94.04 150.742 93.9019 150.906 93.7274C150.949 93.6816 151.009 93.6548 151.072 93.653C151.103 93.6521 151.134 93.6574 151.163 93.6685C151.192 93.6796 151.219 93.6964 151.242 93.7178C151.265 93.7392 151.283 93.7649 151.296 93.7934C151.308 93.8219 151.315 93.8526 151.316 93.8838C151.317 93.915 151.312 93.9461 151.301 93.9752C151.29 94.0044 151.273 94.0311 151.251 94.0538C151.041 94.2739 150.786 94.447 150.503 94.5617C150.221 94.6764 149.918 94.7301 149.613 94.7194Z" fill="#18113C"/>
<path d="M135.436 83.904C135.489 84.2848 135.459 84.6726 135.347 85.0405C135.235 85.4084 135.045 85.7477 134.79 86.035C134.534 86.3222 134.219 86.5505 133.867 86.7041C133.514 86.8578 133.133 86.933 132.748 86.9248C131.92 86.9055 131.127 86.5901 130.512 86.0359C129.896 85.4817 129.5 84.7253 129.395 83.904C129.337 83.5249 129.364 83.1378 129.472 82.7701C129.581 82.4024 129.769 82.063 130.023 81.7756C130.276 81.4883 130.59 81.26 130.941 81.1069C131.293 80.9539 131.674 80.8796 132.057 80.8895C132.886 80.9091 133.682 81.223 134.301 81.7753C134.92 82.3276 135.322 83.0821 135.436 83.904Z" fill="white"/>
<path d="M131.674 83.1999C131.682 83.26 131.677 83.3212 131.66 83.3793C131.642 83.4374 131.613 83.491 131.573 83.5366C131.533 83.5821 131.483 83.6185 131.428 83.6432C131.372 83.6679 131.312 83.6805 131.252 83.6799C131.12 83.6766 130.993 83.6265 130.895 83.5386C130.796 83.4507 130.732 83.3306 130.714 83.1999C130.705 83.1396 130.709 83.078 130.726 83.0194C130.743 82.9608 130.772 82.9067 130.813 82.8609C130.853 82.8151 130.903 82.7787 130.959 82.7544C131.015 82.73 131.075 82.7182 131.136 82.7199C131.269 82.7219 131.396 82.7715 131.495 82.8597C131.593 82.9478 131.657 83.0686 131.674 83.1999Z" fill="#18113C"/>
<path d="M133.959 83.1999C133.967 83.2605 133.962 83.3222 133.944 83.3808C133.926 83.4394 133.896 83.4933 133.855 83.539C133.814 83.5846 133.764 83.6209 133.708 83.6452C133.652 83.6695 133.591 83.6814 133.53 83.6799C133.398 83.6753 133.272 83.6248 133.174 83.5371C133.076 83.4494 133.012 83.3301 132.992 83.1999C132.984 83.1392 132.989 83.0775 133.007 83.0189C133.025 82.9603 133.055 82.9064 133.096 82.8607C133.136 82.8151 133.187 82.7788 133.243 82.7545C133.299 82.7302 133.36 82.7184 133.421 82.7199C133.553 82.7231 133.68 82.7732 133.778 82.8611C133.876 82.9491 133.94 83.0691 133.959 83.1999Z" fill="#18113C"/>
<path d="M134.023 85.1197H131.028C130.971 85.1103 130.919 85.0811 130.882 85.0371C130.845 84.9931 130.824 84.9373 130.824 84.8797C130.824 84.822 130.845 84.7662 130.882 84.7222C130.919 84.6782 130.971 84.649 131.028 84.6396H134.023C134.08 84.649 134.132 84.6782 134.169 84.7222C134.207 84.7662 134.227 84.822 134.227 84.8797C134.227 84.9373 134.207 84.9931 134.169 85.0371C134.132 85.0811 134.08 85.1103 134.023 85.1197Z" fill="#18113C"/>
<path d="M120.237 92.9026C120.279 93.2878 120.238 93.6775 120.118 94.0458C119.997 94.4141 119.799 94.7524 119.538 95.0382C119.276 95.3241 118.956 95.5509 118.6 95.7035C118.244 95.8561 117.86 95.9311 117.472 95.9234C116.651 95.9072 115.864 95.591 115.261 95.0344C114.657 94.4779 114.278 93.7195 114.195 92.9026C114.151 92.5194 114.19 92.1313 114.308 91.7643C114.427 91.3972 114.622 91.0597 114.881 90.7743C115.141 90.4888 115.458 90.2621 115.812 90.1093C116.166 89.9565 116.549 89.8811 116.934 89.8881C117.757 89.9034 118.546 90.2178 119.154 90.7726C119.762 91.3274 120.147 92.0846 120.237 92.9026Z" fill="white"/>
<path d="M116.481 92.2106C116.487 92.2714 116.48 92.3328 116.461 92.3909C116.442 92.449 116.411 92.5024 116.37 92.5477C116.329 92.593 116.279 92.6291 116.223 92.6537C116.167 92.6783 116.107 92.6909 116.045 92.6906C115.914 92.6896 115.788 92.64 115.691 92.5514C115.594 92.4627 115.533 92.3413 115.521 92.2106C115.513 92.1496 115.519 92.0877 115.538 92.0292C115.556 91.9706 115.587 91.9168 115.629 91.8712C115.67 91.8257 115.721 91.7896 115.777 91.7653C115.833 91.7411 115.894 91.7292 115.956 91.7306C116.087 91.7315 116.214 91.7811 116.31 91.8698C116.407 91.9584 116.468 92.0798 116.481 92.2106Z" fill="#18113C"/>
<path d="M118.772 92.2106C118.779 92.2716 118.773 92.3334 118.755 92.392C118.736 92.4505 118.705 92.5044 118.664 92.5499C118.622 92.5954 118.572 92.6315 118.515 92.6558C118.459 92.6801 118.398 92.6919 118.336 92.6906C118.206 92.6869 118.081 92.6363 117.985 92.5482C117.888 92.4601 117.827 92.3402 117.812 92.2106C117.804 92.1496 117.81 92.0877 117.829 92.0292C117.847 91.9706 117.878 91.9168 117.92 91.8712C117.961 91.8257 118.012 91.7896 118.068 91.7653C118.124 91.7411 118.185 91.7292 118.247 91.7306C118.379 91.7301 118.506 91.7792 118.603 91.8681C118.7 91.957 118.76 92.0793 118.772 92.2106Z" fill="#18113C"/>
<path d="M115.84 94.7199C115.81 94.7204 115.781 94.7149 115.753 94.7039C115.726 94.693 115.701 94.6766 115.68 94.6559C115.636 94.6116 115.611 94.5518 115.611 94.4895C115.611 94.4272 115.636 94.3675 115.68 94.3231C115.887 94.1024 116.138 93.927 116.417 93.8081C116.696 93.6891 116.996 93.6292 117.299 93.6319C117.933 93.6387 118.542 93.8804 119.008 94.3103C119.03 94.3318 119.048 94.3577 119.06 94.3863C119.072 94.4149 119.079 94.4456 119.079 94.4767C119.079 94.5078 119.072 94.5386 119.06 94.5672C119.048 94.5958 119.03 94.6216 119.008 94.6431C118.962 94.6859 118.901 94.7096 118.838 94.7096C118.775 94.7096 118.715 94.6859 118.668 94.6431C118.29 94.2898 117.791 94.0932 117.273 94.0927C117.035 94.0874 116.798 94.1318 116.577 94.2233C116.357 94.3148 116.158 94.4512 115.993 94.6239C115.956 94.674 115.901 94.7083 115.84 94.7199Z" fill="#18113C"/>
<path d="M164.314 70.7583C162.317 66.5535 157.658 63.7695 152.634 63.7695H142.394C141.691 63.8005 140.992 63.6452 140.368 63.3193C139.745 62.9933 139.218 62.5084 138.842 61.9135C137.415 59.2383 134.01 57.3311 130.144 57.3311C126.279 57.3311 123.104 59.2511 121.978 61.9135C121.511 63.0399 120.173 63.7695 118.637 63.7695H108.397C103.373 63.7695 99.0277 66.5535 97.5173 70.7583C97.4613 70.905 97.4394 71.0626 97.4533 71.2191C97.4697 71.5473 97.6118 71.8567 97.8501 72.0831C98.0883 72.3094 98.4046 72.4355 98.7333 72.4351H163.296C163.494 72.4355 163.688 72.385 163.86 72.2884C164.032 72.1918 164.176 72.0525 164.278 71.8838C164.381 71.7151 164.438 71.5229 164.444 71.3257C164.45 71.1285 164.406 70.9331 164.314 70.7583ZM130.56 64.9279C129.797 64.9121 129.066 64.6111 128.513 64.084C127.96 63.557 127.624 62.842 127.572 62.0799C127.546 61.7128 127.597 61.3443 127.721 60.9978C127.844 60.6513 128.039 60.3342 128.291 60.0666C128.544 59.799 128.849 59.5867 129.188 59.443C129.527 59.2993 129.892 59.2274 130.26 59.2319C131.028 59.2398 131.766 59.5375 132.325 60.0655C132.883 60.5934 133.223 61.3128 133.274 62.0799C133.3 62.4491 133.249 62.8197 133.123 63.168C132.998 63.5163 132.801 63.8346 132.546 64.1027C132.29 64.3707 131.982 64.5825 131.64 64.7246C131.298 64.8666 130.931 64.9359 130.56 64.9279Z" fill="#18113C"/>
<path d="M230.669 261.83C230.168 261.892 229.662 261.766 229.248 261.478C229.194 261.41 229.16 261.328 229.152 261.242C229.144 261.155 229.162 261.068 229.203 260.992C229.234 260.926 229.279 260.868 229.336 260.822C229.392 260.777 229.459 260.745 229.53 260.729C230.285 260.518 232.032 261.452 232.09 261.497C232.111 261.507 232.13 261.523 232.141 261.544C232.153 261.565 232.157 261.589 232.154 261.612C232.153 261.634 232.145 261.654 232.131 261.67C232.117 261.687 232.098 261.698 232.077 261.702C231.612 261.785 231.141 261.828 230.669 261.83ZM229.824 260.921C229.754 260.911 229.683 260.911 229.613 260.921C229.569 260.929 229.528 260.947 229.492 260.974C229.457 261.001 229.428 261.035 229.408 261.075C229.344 261.216 229.408 261.286 229.408 261.324C229.664 261.625 230.854 261.632 231.712 261.51C231.123 261.202 230.484 261.003 229.824 260.921Z" fill="#754FFE"/>
<path d="M232.077 261.703H232.032C231.437 261.447 230.195 260.423 230.221 259.898C230.221 259.77 230.298 259.616 230.605 259.584C230.835 259.565 231.064 259.633 231.245 259.776C231.724 260.278 232.048 260.907 232.18 261.588C232.187 261.603 232.192 261.621 232.192 261.639C232.192 261.656 232.187 261.674 232.18 261.69C232.165 261.7 232.148 261.707 232.13 261.709C232.112 261.711 232.094 261.709 232.077 261.703ZM230.714 259.783H230.65C230.452 259.783 230.445 259.879 230.445 259.904C230.445 260.224 231.284 261.024 231.904 261.37C231.783 260.823 231.51 260.322 231.117 259.924C231.001 259.836 230.859 259.791 230.714 259.796V259.783Z" fill="#754FFE"/>
<path d="M237.235 261.594H232.531L230.848 250.701H235.552L237.235 261.594Z" fill="#FFAA46"/>
<path d="M232.499 261.05H237.619C237.715 261.052 237.809 261.084 237.887 261.142C237.964 261.199 238.023 261.278 238.054 261.37L239.449 265.549C239.479 265.643 239.486 265.742 239.472 265.839C239.457 265.936 239.42 266.028 239.363 266.109C239.307 266.189 239.233 266.255 239.147 266.303C239.061 266.35 238.965 266.377 238.867 266.381C237.011 266.381 234.323 266.247 231.993 266.247C229.273 266.247 229.516 266.394 226.323 266.394C224.403 266.394 223.641 264.442 224.403 264.263C227.993 263.463 228.409 263.373 231.366 261.415C231.697 261.18 232.093 261.052 232.499 261.05Z" fill="#18113C"/>
<path opacity="0.2" d="M230.848 250.707L231.718 256.32H236.422L235.552 250.707H230.848Z" fill="black"/>
<path d="M236.698 144.288L233.498 147.52L238.4 149.255C238.4 149.255 240.32 146.618 238.97 144.813L236.698 144.288Z" fill="#FFAA46"/>
<path d="M232.422 152.038L237.318 152.755L238.412 149.254L233.51 147.52L232.422 152.038Z" fill="#FFAA46"/>
<path d="M238.835 104.493C239.251 105.389 239.584 106.151 239.917 106.983C240.25 107.815 240.557 108.615 240.877 109.434C241.485 111.079 242.029 112.756 242.534 114.452C243.049 116.167 243.476 117.908 243.814 119.668L244.058 121.012L244.256 122.381C244.326 122.836 244.371 123.309 244.41 123.776C244.448 124.244 244.512 124.666 244.512 125.255V126.087V126.823L244.474 127.546L244.403 128.231C244.32 129.152 244.198 130.016 244.083 130.893C243.827 132.621 243.533 134.311 243.206 136.013C242.528 139.36 241.786 142.631 240.89 145.927L235.059 144.775C235.43 141.524 235.814 138.221 236.122 134.97C236.269 133.344 236.429 131.725 236.518 130.138C236.557 129.357 236.602 128.564 236.602 127.815V127.252V126.733V126.215L236.557 125.792C236.528 125.455 236.481 125.12 236.416 124.788C236.358 124.429 236.307 124.071 236.224 123.706L235.987 122.612L235.712 121.511C235.315 120.039 234.867 118.56 234.355 117.082C233.843 115.604 233.274 114.132 232.672 112.672C232.378 111.936 232.07 111.207 231.75 110.49C231.43 109.773 231.11 109.024 230.797 108.404L238.835 104.493Z" fill="#18113C"/>
<path d="M216.736 141.997C216.736 141.997 217.517 177.991 219.629 192.327C221.831 207.239 229.869 255.232 229.869 255.232H237.831C237.831 255.232 234.976 209.555 234.068 194.88C233.076 178.88 233.293 141.997 233.293 141.997H216.736Z" fill="#754FFE"/>
<path d="M227.954 252.058C227.916 252.058 228.774 255.366 228.774 255.366H238.463L238.393 252.416L227.954 252.058Z" fill="#18113C"/>
<path d="M214.943 83.6479C214.967 83.2492 214.776 82.913 214.515 82.8969C214.254 82.8809 214.022 83.191 213.998 83.5897C213.973 83.9884 214.165 84.3245 214.426 84.3406C214.687 84.3567 214.918 84.0465 214.943 83.6479Z" fill="#18113C"/>
<path d="M214.745 84.3389C214.226 85.559 213.546 86.7041 212.723 87.7437C212.991 87.9389 213.3 88.0723 213.627 88.1343C213.953 88.1962 214.289 88.1852 214.611 88.1021L214.745 84.3389Z" fill="#ED847E"/>
<path d="M216.435 81.4079C216.386 81.408 216.337 81.3947 216.294 81.3695C216.065 81.1893 215.796 81.0672 215.51 81.0138C215.223 80.9603 214.928 80.9769 214.65 81.0623C214.621 81.0736 214.59 81.079 214.56 81.0784C214.529 81.0777 214.499 81.0709 214.471 81.0584C214.443 81.0458 214.418 81.0279 214.397 81.0054C214.376 80.983 214.359 80.9567 214.349 80.9279C214.339 80.8985 214.334 80.8673 214.336 80.8363C214.338 80.8053 214.346 80.7749 214.36 80.747C214.374 80.7191 214.393 80.6941 214.416 80.6735C214.439 80.6529 214.467 80.6372 214.496 80.6271C214.847 80.513 215.22 80.486 215.583 80.5484C215.947 80.6109 216.29 80.7609 216.582 80.9855C216.631 81.0234 216.662 81.0787 216.671 81.1396C216.679 81.2005 216.664 81.2623 216.627 81.3119C216.605 81.3415 216.576 81.3656 216.542 81.3822C216.509 81.3989 216.472 81.4076 216.435 81.4079Z" fill="#18113C"/>
<path d="M227.393 88.0127C226.599 91.4559 225.703 97.7599 228.033 100.051C228.033 100.051 226.97 103.539 220.577 103.539C213.537 103.539 217.345 100.051 217.345 100.051C221.185 99.1359 221.217 96.2943 220.641 93.6191L227.393 88.0127Z" fill="#FFAA46"/>
<path d="M230.51 101.664C231.201 100.263 231.963 98.6498 230.51 98.1506C228.923 97.5938 220.148 97.0306 217.07 98.0674C216.247 98.277 215.542 98.8048 215.109 99.5345C214.675 100.264 214.55 101.136 214.759 101.959L230.51 101.664Z" fill="#754FFE"/>
<path d="M237.241 101.402C241.292 103.271 243.353 117.44 243.353 117.44L235.193 120C233.735 116.251 232.552 112.401 231.653 108.48C230.399 102.567 233.093 99.4946 237.241 101.402Z" fill="#18113C"/>
<path d="M187.092 123.449L183.329 120.211L179.943 125.139C179.943 125.139 182.983 127.577 186.343 126.579L187.092 123.449Z" fill="#FFAA46"/>
<path d="M178.368 118.644L177.85 123.514L179.942 125.14L183.328 120.212L178.368 118.644Z" fill="#FFAA46"/>
<path d="M228.256 82.7712C227.782 87.6608 227.75 90.5408 225.19 93.0496C224.365 93.8664 223.334 94.4435 222.207 94.7193C221.08 94.9951 219.898 94.9592 218.79 94.6153C217.681 94.2714 216.687 93.6326 215.914 92.7672C215.141 91.9018 214.617 90.8425 214.4 89.7024C213.504 85.312 214.4 78.0544 219.283 76.1088C220.322 75.6606 221.461 75.4935 222.586 75.6243C223.71 75.7551 224.78 76.1792 225.689 76.854C226.598 77.5288 227.314 78.4307 227.764 79.4693C228.214 80.5078 228.384 81.6465 228.256 82.7712Z" fill="#FFAA46"/>
<path d="M218.24 84.3392C217.811 80.96 217.881 79.68 219.686 78.9312C217.811 78.56 216.185 78.5088 215.411 77.4144C214.636 76.32 214.451 73.5232 218.214 72.2432C217.868 72.8832 218.963 74.2144 222.425 73.0112C225.888 71.808 230.931 71.68 231.385 75.2C233.216 74.56 236.281 80.2112 232.665 84.3392C229.651 87.7952 227.641 90.1824 227.046 92.0192C227.018 92.1052 226.972 92.1844 226.912 92.2514C226.851 92.3185 226.777 92.3719 226.694 92.4082C226.611 92.4445 226.521 92.4628 226.431 92.4619C226.341 92.4611 226.251 92.441 226.169 92.4032C224.921 91.8208 222.688 92.32 221.689 92.5888C221.549 92.6252 221.4 92.6128 221.267 92.5535C221.135 92.4941 221.026 92.3915 220.96 92.2624C220.313 90.9312 218.566 87.1296 218.24 84.3392Z" fill="#18113C"/>
<path d="M230.707 75.6291C230.707 75.6291 232.192 73.5363 235.04 75.0915C233.575 75.0233 232.11 75.2051 230.707 75.6291Z" fill="#18113C"/>
<path d="M230.951 76.0766C230.951 76.0766 233.018 74.7966 231.406 72.3838C231.504 73.6328 231.35 74.8888 230.951 76.0766Z" fill="#18113C"/>
<path d="M220.634 84.4797C220.41 85.6897 219.809 86.7982 218.919 87.6477C217.735 88.7677 216.711 87.9741 216.679 86.5341C216.647 85.2541 217.223 83.0909 218.599 82.5149C219.975 81.9389 220.877 83.0333 220.634 84.4797Z" fill="#FFAA46"/>
<path opacity="0.3" d="M217.395 161.997C217.855 172.736 218.579 185.203 219.628 192.327C220.031 195.04 220.62 198.842 221.324 203.251C224.153 187.815 225.843 167.923 217.395 161.997Z" fill="black"/>
<path d="M213.87 261.83C213.268 261.83 212.686 261.747 212.5 261.478C212.452 261.406 212.426 261.322 212.426 261.235C212.426 261.148 212.452 261.064 212.5 260.992C212.586 260.863 212.716 260.77 212.865 260.729C213.652 260.518 215.265 261.452 215.335 261.497C215.355 261.508 215.37 261.526 215.379 261.547C215.387 261.568 215.387 261.591 215.38 261.612C215.376 261.635 215.365 261.655 215.349 261.671C215.333 261.687 215.313 261.698 215.29 261.702C214.821 261.784 214.346 261.827 213.87 261.83ZM213.159 260.921C213.087 260.911 213.014 260.911 212.942 260.921C212.896 260.93 212.852 260.948 212.814 260.975C212.775 261.001 212.742 261.035 212.718 261.075C212.634 261.216 212.66 261.286 212.686 261.324C212.897 261.625 214.081 261.632 214.964 261.51C214.407 261.197 213.794 260.997 213.159 260.921Z" fill="#754FFE"/>
<path d="M215.296 261.702H215.251C214.694 261.446 213.6 260.422 213.709 259.897C213.709 259.769 213.824 259.616 214.131 259.584C214.245 259.569 214.361 259.579 214.471 259.612C214.582 259.645 214.684 259.701 214.771 259.776C215.354 260.268 215.411 261.536 215.411 261.587C215.411 261.607 215.406 261.626 215.397 261.644C215.388 261.661 215.375 261.677 215.36 261.689C215.34 261.699 215.318 261.704 215.296 261.702ZM214.214 259.782H214.15C213.946 259.782 213.933 259.878 213.926 259.904C213.862 260.224 214.598 261.024 215.168 261.369C215.133 260.84 214.934 260.334 214.598 259.923C214.489 259.836 214.353 259.791 214.214 259.795V259.782Z" fill="#754FFE"/>
<path d="M220.467 261.594H215.769L215.68 250.701H220.384L220.467 261.594Z" fill="#FFAA46"/>
<path d="M215.814 261.05H220.934C221.026 261.049 221.115 261.08 221.185 261.139C221.256 261.197 221.303 261.279 221.318 261.37L222.105 265.549C222.123 265.652 222.118 265.758 222.09 265.858C222.063 265.959 222.013 266.053 221.946 266.132C221.878 266.211 221.793 266.275 221.698 266.318C221.603 266.361 221.499 266.383 221.395 266.381C219.545 266.381 216.87 266.247 214.547 266.247C211.82 266.247 209.465 266.394 206.272 266.394C204.352 266.394 203.878 264.442 204.691 264.263C208.396 263.463 211.404 263.373 214.649 261.415C214.997 261.19 215.4 261.064 215.814 261.05Z" fill="#18113C"/>
<path opacity="0.2" d="M215.686 250.707L215.724 256.32H220.428L220.39 250.707H215.686Z" fill="black"/>
<path d="M208.345 141.997C208.345 141.997 206.425 177.152 206.463 191.488C206.463 206.4 214.015 255.232 214.015 255.232H221.977C221.977 255.232 219.903 207.271 220.799 192.64C221.753 176.64 226.374 142.01 226.374 142.01L208.345 141.997Z" fill="#754FFE"/>
<path d="M212.595 252.058C212.556 252.058 212.921 255.366 212.921 255.366H222.611L222.982 252.416L212.595 252.058Z" fill="#18113C"/>
<path d="M210.061 101.357C210.061 101.357 202.048 121.6 205.536 156.589H234.797C235.104 152.749 232.045 119.302 236.409 101.114C233.641 100.578 230.84 100.223 228.025 100.051C224.466 99.8462 220.897 99.8462 217.337 100.051C214.882 100.298 212.449 100.735 210.061 101.357Z" fill="#18113C"/>
<path opacity="0.2" d="M205.92 119.68C205.485 122.88 205.127 126.534 204.896 130.56C210.58 125.337 212.525 112.326 212.525 112.326L205.92 119.68Z" fill="black"/>
<path d="M213.076 110.995C211.924 113.991 210.759 116.877 209.479 119.776C208.199 122.675 206.874 125.536 205.383 128.403L204.801 129.472L204.506 130.01C204.385 130.227 204.397 130.24 204.065 130.797C203.491 131.699 202.695 132.44 201.754 132.947C200.976 133.356 200.126 133.613 199.252 133.703C198.049 133.813 196.837 133.715 195.668 133.415C194.743 133.186 193.836 132.89 192.954 132.531C191.371 131.876 189.837 131.106 188.365 130.227C187.642 129.811 186.951 129.363 186.266 128.947C185.581 128.531 184.961 128 184.225 127.488L187.681 122.189C190.161 123.556 192.764 124.685 195.457 125.562C196.028 125.738 196.612 125.871 197.204 125.959C197.541 126.03 197.89 126.03 198.228 125.959C198.266 125.959 198.145 125.92 197.933 126.029C197.676 126.16 197.456 126.354 197.293 126.592C197.159 126.816 197.332 126.483 197.389 126.355L197.62 125.85L198.081 124.845C199.297 122.131 200.423 119.322 201.517 116.525C202.612 113.728 203.674 110.81 204.653 107.987L213.076 110.995Z" fill="#18113C"/>
<path d="M216.257 103.481C217.754 107.667 207.156 124.518 207.156 124.518L200.871 118.291C200.871 118.291 202.478 112.998 204.596 106.623C206.682 100.358 214.83 99.4811 216.257 103.481Z" fill="#18113C"/>
</svg>
