<svg width="33" height="32" viewBox="0 0 33 32" fill="none" xmlns="http://www.w3.org/2000/svg">
<path d="M12.5438 11.3181L14.6789 13.4372C15.4107 14.1659 16.5944 14.1659 17.3262 13.4372L19.0794 11.6967L19.4486 11.3053L29.7102 1.04367C30.0952 0.658656 29.8216 0 29.2775 0H25.6724C24.5142 0 23.4005 0.461377 22.5827 1.27913L16.0025 7.85933L13.8293 5.68608C13.0274 4.88424 11.9392 4.4324 10.8065 4.4324H5.68359L12.5565 11.3053L12.5438 11.3181Z" fill="#29BAF9"/>
<path d="M19.4558 20.6793L17.3239 18.5602C16.5889 17.8315 15.4052 17.8315 14.6734 18.5602L12.9202 20.3007L12.5511 20.692L2.28938 30.9505C1.90437 31.3355 2.17801 31.9942 2.72212 31.9942H6.36859C7.50454 31.9942 8.59275 31.5424 9.39459 30.7405L16.0002 24.1349L18.1449 26.2795C18.9658 27.1004 20.0795 27.5618 21.2409 27.5618H26.3192L19.4463 20.6889L19.4558 20.6793Z" fill="#29BAF9"/>
<path d="M7.85933 15.9985L5.70199 18.1558C4.8906 18.9672 4.4324 20.0713 4.4324 21.22V26.3174L11.3053 19.4445L11.3181 19.4572L13.4436 17.3158C14.1722 16.5808 14.1722 15.3939 13.4372 14.6621L1.0373 2.28124C0.655474 1.89941 0 2.16987 0 2.7108V6.335C0 7.49958 0.451831 8.59097 1.27595 9.41509L7.85933 15.9985Z" fill="#754FFE"/>
<path d="M30.7419 22.5948L24.1776 15.9986L26.3572 13.8095C27.1463 13.0172 27.5886 11.9417 27.5886 10.8249V5.67334L20.7443 12.5495L20.7316 12.5367L18.6379 14.6559C17.9156 15.3845 17.9124 16.5587 18.6283 17.2937L20.7347 19.4574L20.7475 19.4447L30.9869 29.7318C31.3623 30.1072 32.0019 29.8432 32.0019 29.3118V25.643C31.9987 24.4912 31.5533 23.4093 30.7419 22.5948Z" fill="#754FFE"/>
</svg>
