<svg width="42" height="42" viewBox="0 0 42 42" fill="none" xmlns="http://www.w3.org/2000/svg">
<rect width="42" height="42" rx="21" fill="#F2EFFF"/>
<path d="M22.8263 12.5992C23.0899 13.5479 22.9521 14.3216 22.453 14.8844C25.9834 15.5986 28.6862 18.5727 28.9649 22.2194L28.9886 22.2179C29.3338 22.2179 29.6136 22.4978 29.6136 22.8429V24.0929C29.6136 24.4381 29.3338 24.7179 28.9886 24.7179C28.9142 24.7179 28.8427 24.7049 28.7765 24.681C27.9405 28.2822 24.6895 30.9679 20.8068 30.9679C16.9242 30.9679 13.6732 28.2822 12.8349 24.6795C12.7709 24.7049 12.6995 24.7179 12.625 24.7179C12.2798 24.7179 12 24.4381 12 24.0929V22.8429C12 22.4978 12.2798 22.2179 12.625 22.2179L12.6488 22.219C12.9572 18.1862 16.2301 14.9761 20.3084 14.7328L20.481 14.6988C21.6826 14.4449 22.0379 13.911 21.7836 12.9741C21.1906 11.6435 19.1831 11.9647 19.1813 12.9879C19.1808 13.2947 18.9316 13.543 18.6248 13.5425C18.318 13.5419 18.0697 13.2928 18.0702 12.9859C18.0742 10.72 21.7345 10.1344 22.8263 12.5992ZM20.8068 15.829C16.9 15.829 13.7361 18.971 13.7361 22.8429C13.7361 26.7149 16.9 29.8568 20.8068 29.8568C24.7136 29.8568 27.8775 26.7149 27.8775 22.8429C27.8775 18.971 24.7136 15.829 20.8068 15.829ZM23.7714 25.5703C23.986 25.7897 23.9821 26.1414 23.7627 26.3559C21.7874 28.288 19.7423 28.288 17.9068 26.3397C17.6964 26.1164 17.7069 25.7648 17.9302 25.5544C18.1535 25.344 18.5051 25.3545 18.7155 25.5778C20.1175 27.0659 21.4478 27.0659 22.9858 25.5616C23.2052 25.3471 23.5569 25.351 23.7714 25.5703ZM25.4909 21.6259C25.6765 21.8703 25.6288 22.2188 25.3845 22.4043C25.1401 22.5899 24.7916 22.5422 24.606 22.2979C24.0811 21.6067 23.7742 21.6067 23.2493 22.2979C23.0637 22.5422 22.7152 22.5899 22.4708 22.4043C22.2265 22.2188 22.1788 21.8703 22.3644 21.6259C23.3339 20.3492 24.5214 20.3492 25.4909 21.6259ZM19.2409 21.6259C19.4265 21.8703 19.3788 22.2188 19.1345 22.4043C18.8901 22.5899 18.5416 22.5422 18.356 22.2979C17.8311 21.6067 17.5242 21.6067 16.9993 22.2979C16.8137 22.5422 16.4652 22.5899 16.2208 22.4043C15.9765 22.2188 15.9288 21.8703 16.1144 21.6259C17.0839 20.3492 18.2714 20.3492 19.2409 21.6259Z" fill="#754FFE"/>
</svg>
