<svg width="42" height="42" viewBox="0 0 42 42" fill="none" xmlns="http://www.w3.org/2000/svg">
<rect width="42" height="42" rx="21" fill="#F2EFFF"/>
<path d="M27.2115 20.2631V25.0631C27.2115 26.4584 26.0804 27.5894 24.6851 27.5894H17.1062C15.7109 27.5894 14.5799 26.4584 14.5799 25.0631V20.2631L20.8957 22.1683L27.2115 20.2631ZM26.1588 21.6801L21.1997 23.1761C21.0014 23.2359 20.7899 23.2359 20.5917 23.1761L15.6325 21.6801V25.0631C15.6325 25.877 16.2923 26.5368 17.1062 26.5368H24.6851C25.499 26.5368 26.1588 25.877 26.1588 25.0631V21.6801ZM20.9234 14.4762L21.0169 14.4942L30.6641 17.2731C31.1378 17.4096 31.1694 18.0451 30.7589 18.2481L30.6641 18.2846L29.0006 18.7636L29.0009 20.8999C29.0009 20.9544 28.9922 21.0068 28.9762 21.0558C29.1392 21.1358 29.2509 21.3048 29.2509 21.4999V21.9999C29.2509 22.2761 29.0271 22.4999 28.7509 22.4999H28.2509C27.9748 22.4999 27.7509 22.2761 27.7509 21.9999V21.4999C27.7509 21.3044 27.8631 21.1352 28.0267 21.0529C28.0095 21.0061 28.0009 20.954 28.0009 20.8999L28.0006 19.0516L21.0169 21.0636C20.9528 21.0821 20.886 21.0881 20.8202 21.0817L20.7226 21.0627L10.8523 18.1567C10.3764 18.0166 10.3522 17.3756 10.7684 17.1786L10.8644 17.1435L20.7347 14.4917C20.7964 14.4751 20.8603 14.4699 20.9234 14.4762ZM28.5009 21.5668C28.425 21.6107 28.3617 21.674 28.3178 21.7499C28.3617 21.8259 28.425 21.8891 28.5009 21.9331C28.5768 21.8891 28.6401 21.8259 28.684 21.7499C28.6401 21.674 28.5768 21.6107 28.5009 21.5668ZM20.8663 15.5462L12.9431 17.675L20.8728 20.0097L28.0006 17.9556L28.0009 17.8999C28.0009 17.7986 28.0311 17.7042 28.083 17.6254L20.8663 15.5462Z" fill="#754FFE"/>
</svg>
