<svg width="42" height="42" viewBox="0 0 42 42" fill="none" xmlns="http://www.w3.org/2000/svg">
<rect width="42" height="42" rx="21" fill="#F2EFFF"/>
<path d="M25.4375 13C26.0933 13 26.625 13.5317 26.625 14.1875V15.875C26.625 15.5989 26.8489 15.375 27.125 15.375C27.4011 15.375 27.625 15.5989 27.625 15.875V17.25C27.625 17.5261 27.4011 17.75 27.125 17.75C26.8489 17.75 26.625 17.5261 26.625 17.25V17.55C26.625 17.6184 26.6192 17.6855 26.6081 17.7508L29 17.75C30.3117 17.75 31.375 18.8133 31.375 20.125V25.5625C31.375 26.2183 30.8433 26.75 30.1875 26.75L30.1638 26.7501C30.1793 26.8268 30.1875 26.9062 30.1875 26.9875V28.175C30.1875 28.8308 29.6558 29.3625 29 29.3625H27.625C26.9692 29.3625 26.4375 28.8308 26.4375 28.175V26.9875C26.4375 26.9062 26.4457 26.8268 26.4612 26.7501H14.9138C14.9293 26.8268 14.9375 26.9062 14.9375 26.9875V28.175C14.9375 28.8308 14.4058 29.3625 13.75 29.3625H12.375C11.7192 29.3625 11.1875 28.8308 11.1875 28.175V26.9875C11.1875 26.9062 11.1957 26.8268 11.2112 26.7501L11.1875 26.75C10.5317 26.75 10 26.2183 10 25.5625V20.125C10 18.8133 11.0633 17.75 12.375 17.75L14.7669 17.7508C14.7558 17.6855 14.75 17.6184 14.75 17.55L14.7523 17.4633C14.6723 17.6328 14.4998 17.75 14.3 17.75C14.0239 17.75 13.8 17.5261 13.8 17.25V15.875C13.8 15.5989 14.0239 15.375 14.3 15.375C14.4998 15.375 14.6723 15.4922 14.7523 15.6617L14.75 14.1875C14.75 13.5317 15.2817 13 15.9375 13H25.4375ZM13.75 26.8H12.375C12.2714 26.8 12.1875 26.8839 12.1875 26.9875V28.175C12.1875 28.2786 12.2714 28.3625 12.375 28.3625H13.75C13.8536 28.3625 13.9375 28.2786 13.9375 28.175V26.9875C13.9375 26.8839 13.8536 26.8 13.75 26.8ZM29 26.8H27.625C27.5214 26.8 27.4375 26.8839 27.4375 26.9875V28.175C27.4375 28.2786 27.5214 28.3625 27.625 28.3625H29C29.1036 28.3625 29.1875 28.2786 29.1875 28.175V26.9875C29.1875 26.8839 29.1036 26.8 29 26.8ZM28.5436 24.1841L28.5 24.1875H12.875L12.8314 24.1841C12.6909 24.2427 12.5367 24.275 12.375 24.275H11.1875C11.1236 24.275 11.0608 24.27 10.9997 24.2602L11 25.5625C11 25.6661 11.0839 25.75 11.1875 25.75H30.1875C30.2911 25.75 30.375 25.6661 30.375 25.5625L30.3763 24.2601C30.3148 24.2699 30.2518 24.275 30.1875 24.275H29C28.8383 24.275 28.6841 24.2427 28.5436 24.1841ZM30.1875 21.7125H29C28.8964 21.7125 28.8125 21.7964 28.8125 21.9V23.0875C28.8125 23.1911 28.8964 23.275 29 23.275H30.1875C30.2911 23.275 30.375 23.1911 30.375 23.0875V21.9C30.375 21.7964 30.2911 21.7125 30.1875 21.7125ZM12.375 21.7125H11.1875C11.0839 21.7125 11 21.7964 11 21.9V23.0875C11 23.1911 11.0839 23.275 11.1875 23.275H12.375C12.4786 23.275 12.5625 23.1911 12.5625 23.0875V21.9C12.5625 21.7964 12.4786 21.7125 12.375 21.7125ZM29 18.75H12.375C11.6156 18.75 11 19.3656 11 20.125L10.9997 20.7273C11.0608 20.7175 11.1236 20.7125 11.1875 20.7125H12.375C13.0308 20.7125 13.5625 21.2442 13.5625 21.9V23.0875L13.557 23.187L27.8167 23.1881C27.8139 23.1549 27.8125 23.1214 27.8125 23.0875V21.9C27.8125 21.2442 28.3442 20.7125 29 20.7125H30.1875C30.2518 20.7125 30.3148 20.7176 30.3763 20.7274L30.375 20.125C30.375 19.3656 29.7594 18.75 29 18.75ZM26.125 19.625C26.4011 19.625 26.625 19.8489 26.625 20.125C26.625 20.4011 26.4011 20.625 26.125 20.625H15.25C14.9739 20.625 14.75 20.4011 14.75 20.125C14.75 19.8489 14.9739 19.625 15.25 19.625H26.125ZM25.4375 14H15.9375C15.8339 14 15.75 14.0839 15.75 14.1875V17.55C15.75 17.6536 15.8339 17.7375 15.9375 17.7375H25.4375C25.5411 17.7375 25.625 17.6536 25.625 17.55V14.1875C25.625 14.0839 25.5411 14 25.4375 14Z" fill="#754FFE"/>
</svg>
