<svg width="42" height="42" viewBox="0 0 42 42" fill="none" xmlns="http://www.w3.org/2000/svg">
<rect width="42" height="42" rx="21" fill="#F2EFFF"/>
<path d="M20.7576 17.8485C23.6894 17.8485 26.1349 19.9302 26.6968 22.6962L35.9091 22.697C36.2438 22.697 36.5152 22.9683 36.5152 23.303C36.5152 23.6377 36.2438 23.9091 35.9091 23.9091H26.8182C26.8182 27.2563 24.1048 29.9697 20.7576 29.9697C17.4104 29.9697 14.697 27.2563 14.697 23.9091H5.60606C5.27134 23.9091 5 23.6377 5 23.303C5 22.9683 5.27134 22.697 5.60606 22.697L14.8184 22.6962C15.3802 19.9302 17.8258 17.8485 20.7576 17.8485ZM20.7576 18.8485C17.9627 18.8485 15.697 21.1142 15.697 23.9091C15.697 26.704 17.9627 28.9697 20.7576 28.9697C23.5525 28.9697 25.8182 26.704 25.8182 23.9091C25.8182 21.1142 23.5525 18.8485 20.7576 18.8485ZM33.4848 23.9091C34.489 23.9091 35.303 24.7231 35.303 25.7273C35.303 26.7314 34.489 27.5455 33.4848 27.5455C32.4807 27.5455 31.6667 26.7314 31.6667 25.7273C31.6667 24.7231 32.4807 23.9091 33.4848 23.9091ZM8.0303 23.9091C9.03446 23.9091 9.84848 24.7231 9.84848 25.7273C9.84848 26.7314 9.03446 27.5455 8.0303 27.5455C7.02615 27.5455 6.21212 26.7314 6.21212 25.7273C6.21212 24.7231 7.02615 23.9091 8.0303 23.9091ZM33.4848 24.9091C33.033 24.9091 32.6667 25.2754 32.6667 25.7273C32.6667 26.1791 33.033 26.5455 33.4848 26.5455C33.9367 26.5455 34.303 26.1791 34.303 25.7273C34.303 25.2754 33.9367 24.9091 33.4848 24.9091ZM8.0303 24.9091C7.57843 24.9091 7.21212 25.2754 7.21212 25.7273C7.21212 26.1791 7.57843 26.5455 8.0303 26.5455C8.48217 26.5455 8.84848 26.1791 8.84848 25.7273C8.84848 25.2754 8.48217 24.9091 8.0303 24.9091ZM20.7576 19.7727C23.042 19.7727 24.8939 21.6246 24.8939 23.9091C24.8939 24.1852 24.6701 24.4091 24.3939 24.4091C24.1178 24.4091 23.8939 24.1852 23.8939 23.9091C23.8939 22.1769 22.4897 20.7727 20.7576 20.7727C19.0254 20.7727 17.6212 22.1769 17.6212 23.9091C17.6212 24.1852 17.3974 24.4091 17.1212 24.4091C16.8451 24.4091 16.6212 24.1852 16.6212 23.9091C16.6212 21.6246 18.4731 19.7727 20.7576 19.7727ZM20.7 13C20.9761 13 21.2 13.2239 21.2 13.5V17.3485C21.2 17.6246 20.9761 17.8485 20.7 17.8485C20.4239 17.8485 20.2 17.6246 20.2 17.3485V13.5C20.2 13.2239 20.4239 13 20.7 13Z" fill="#754FFE"/>
</svg>
