<svg width="90" height="32" viewBox="0 0 90 32" fill="none" xmlns="http://www.w3.org/2000/svg">
<path d="M21.5199 8.10421C20.667 7.1321 19.1253 6.71533 17.153 6.71533H11.4289C11.2337 6.71523 11.0448 6.78481 10.8963 6.91155C10.7478 7.0383 10.6494 7.21389 10.6188 7.40671L8.23645 22.5238C8.2254 22.5939 8.22969 22.6657 8.24902 22.7339C8.26834 22.8023 8.30225 22.8656 8.3484 22.9195C8.39455 22.9735 8.45185 23.0168 8.51634 23.0465C8.58084 23.0761 8.651 23.0915 8.722 23.0914H12.2558L13.1434 17.462L13.1158 17.6383C13.1458 17.4459 13.2436 17.2705 13.3914 17.1437C13.5393 17.0169 13.7276 16.9471 13.9224 16.9469H15.6016C18.9006 16.9469 21.4838 15.607 22.2383 11.7307C22.2607 11.6161 22.2801 11.5045 22.2969 11.3955C22.521 9.9628 22.2954 8.98767 21.5204 8.10472" fill="#003087"/>
<path d="M64.7819 15.2977C64.5658 16.7161 63.4827 16.7161 62.4352 16.7161H61.839L62.2574 14.0677C62.2828 13.9078 62.4204 13.7901 62.5824 13.7901H62.856C63.5693 13.7901 64.2428 13.7901 64.5903 14.1961C64.7976 14.4392 64.8603 14.7999 64.7819 15.2977ZM64.3259 11.5967H60.3743C60.2434 11.5968 60.1168 11.6435 60.0173 11.7285C59.9178 11.8135 59.8518 11.9311 59.8312 12.0603L58.2344 22.1926C58.2271 22.2396 58.23 22.2876 58.2429 22.3333C58.2559 22.3791 58.2786 22.4215 58.3094 22.4577C58.3403 22.4938 58.3786 22.5229 58.4218 22.5428C58.465 22.5627 58.512 22.5731 58.5595 22.5732H60.5872C60.7763 22.5732 60.9373 22.4357 60.9668 22.2491L61.4202 19.3757C61.462 19.1092 61.6923 18.912 61.9624 18.912H63.2126C65.8161 18.912 67.3181 17.6531 67.7104 15.156C67.8872 14.0647 67.7176 13.2067 67.2065 12.606C66.6446 11.9457 65.6485 11.5962 64.3264 11.5962" fill="#009CDE"/>
<path d="M36.5984 15.2971C36.3824 16.7156 35.2992 16.7156 34.2512 16.7156H33.6551L34.0733 14.0672C34.0988 13.9072 34.2364 13.7896 34.3984 13.7896H34.672C35.3853 13.7896 36.0589 13.7896 36.4063 14.1956C36.6142 14.4386 36.6769 14.7994 36.5984 15.2971ZM36.1424 11.5962H32.1908C31.9207 11.5962 31.6905 11.7928 31.6482 12.0598L30.0509 22.1921C30.0435 22.239 30.0463 22.2871 30.0593 22.3329C30.0721 22.3787 30.0949 22.4211 30.1257 22.4573C30.1566 22.4934 30.195 22.5225 30.2382 22.5424C30.2814 22.5624 30.3284 22.5726 30.376 22.5727H32.2631C32.5331 22.5727 32.7629 22.376 32.8052 22.109L33.2368 19.3756C33.2785 19.1086 33.5089 18.912 33.7789 18.912H35.0291C37.6327 18.912 39.1347 17.6525 39.5269 15.1555C39.7037 14.0642 39.5341 13.2062 39.0231 12.6055C38.4611 11.9452 37.4651 11.5957 36.1429 11.5957L36.1424 11.5962ZM45.3168 18.9349C45.1334 20.016 44.2759 20.742 43.181 20.742C42.6323 20.742 42.1926 20.5653 41.9103 20.231C41.6301 19.8999 41.5252 19.4276 41.6138 18.9023C41.784 17.8303 42.6563 17.0814 43.7343 17.0814C44.2719 17.0814 44.7075 17.2597 44.9958 17.597C45.2857 17.9368 45.3999 18.4116 45.3168 18.9349ZM47.9539 15.2513H46.0617C45.983 15.2512 45.9069 15.2792 45.8471 15.3303C45.7873 15.3814 45.7477 15.4522 45.7356 15.53L45.6531 16.0588L45.5206 15.8672C45.111 15.2727 44.1975 15.0734 43.2855 15.0734C41.195 15.0734 39.4093 16.658 39.0618 18.8794C38.8809 19.9885 39.1377 21.0478 39.7664 21.787C40.3437 22.4662 41.1675 22.749 42.1493 22.749C43.8347 22.749 44.7691 21.6668 44.7691 21.6668L44.6845 22.1926C44.6771 22.2396 44.6799 22.2877 44.6929 22.3335C44.7058 22.3794 44.7285 22.4218 44.7595 22.458C44.7905 22.4942 44.8289 22.5232 44.8721 22.5431C44.9154 22.563 44.9625 22.5732 45.0101 22.5732H46.7138C46.9839 22.5732 47.2141 22.377 47.2565 22.1096L48.2795 15.6324C48.2869 15.5853 48.2839 15.5372 48.2709 15.4914C48.2579 15.4456 48.2351 15.4031 48.2041 15.367C48.1731 15.3308 48.1347 15.3018 48.0914 15.2819C48.0481 15.262 48.0011 15.2517 47.9534 15.2518" fill="#003087"/>
<path d="M73.5033 18.9351C73.3193 20.0163 72.462 20.7423 71.3672 20.7423C70.8186 20.7423 70.3788 20.5655 70.0966 20.2313C69.8164 19.9001 69.7114 19.4278 69.8 18.9025C69.9702 17.8305 70.842 17.0816 71.9206 17.0816C72.458 17.0816 72.894 17.2599 73.182 17.5972C73.472 17.9371 73.586 18.4119 73.5033 18.9351ZM76.14 15.2515H74.248C74.1693 15.2514 74.0933 15.2795 74.0333 15.3306C73.9733 15.3817 73.934 15.4525 73.922 15.5302L73.8393 16.0591L73.7066 15.8675C73.2973 15.2729 72.384 15.0737 71.4717 15.0737C69.3818 15.0737 67.596 16.6582 67.248 18.8796C67.0671 19.9887 67.3244 21.048 67.9532 21.7873C68.5304 22.4664 69.3542 22.7492 70.336 22.7492C72.022 22.7492 72.9566 21.667 72.9566 21.667L72.872 22.1928C72.864 22.2398 72.8666 22.2879 72.88 22.3337C72.8926 22.3795 72.9153 22.422 72.946 22.4582C72.9766 22.4944 73.0153 22.5235 73.0586 22.5433C73.102 22.5633 73.1486 22.5735 73.1966 22.5734H74.8993C75.1693 22.5734 75.4 22.3773 75.4426 22.1098L76.466 15.6326C76.4733 15.5855 76.47 15.5375 76.4573 15.4917C76.444 15.4458 76.4213 15.4034 76.3906 15.3672C76.3593 15.331 76.3206 15.302 76.278 15.2821C76.2346 15.2623 76.1873 15.252 76.14 15.252" fill="#009CDE"/>
<path d="M58.0319 15.252H56.1295C55.9476 15.252 55.7779 15.3421 55.676 15.493L53.0522 19.3569L51.94 15.6438C51.906 15.5305 51.8365 15.4312 51.7417 15.3605C51.6469 15.2899 51.5319 15.2517 51.4136 15.2515H49.5443C49.4919 15.2515 49.4402 15.264 49.3936 15.288C49.347 15.312 49.3068 15.3467 49.2763 15.3894C49.2458 15.4321 49.226 15.4813 49.2184 15.5332C49.2107 15.5851 49.2156 15.638 49.2325 15.6876L51.3265 21.8351L49.3568 24.6144C49.322 24.6637 49.3014 24.7217 49.2973 24.7819C49.2932 24.8421 49.3057 24.9023 49.3334 24.956C49.3612 25.0096 49.4032 25.0545 49.4547 25.0859C49.5063 25.1174 49.5655 25.134 49.6258 25.1341H51.5262C51.7056 25.1341 51.8742 25.0459 51.9772 24.8982L58.302 15.7691C58.3363 15.7198 58.3564 15.6619 58.3602 15.6019C58.364 15.5419 58.3514 15.4821 58.3235 15.4288C58.2957 15.3755 58.2538 15.3308 58.2024 15.2997C58.151 15.2685 58.092 15.252 58.0319 15.252Z" fill="#003087"/>
<path d="M78.3687 11.8753L76.746 22.1931C76.7387 22.2401 76.742 22.2881 76.7547 22.3339C76.7674 22.3797 76.7907 22.4221 76.8214 22.4583C76.852 22.4945 76.8907 22.5235 76.934 22.5434C76.9774 22.5633 77.024 22.5736 77.072 22.5737H78.7027C78.9727 22.5737 79.2027 22.377 79.2454 22.11L80.8447 11.9773C80.852 11.9302 80.8494 11.8821 80.836 11.8363C80.8234 11.7905 80.8007 11.748 80.7694 11.7118C80.7387 11.6757 80.7 11.6466 80.6567 11.6267C80.6134 11.6069 80.5667 11.5966 80.5187 11.5967H78.694C78.6154 11.5965 78.5394 11.6244 78.4794 11.6754C78.42 11.7265 78.3807 11.7972 78.3687 11.8748" fill="#009CDE"/>
<path d="M21.5199 8.10421C20.667 7.1321 19.1253 6.71533 17.153 6.71533H11.4289C11.2337 6.71523 11.0448 6.78481 10.8963 6.91155C10.7478 7.0383 10.6494 7.21389 10.6188 7.40671L8.23645 22.5238C8.2254 22.5939 8.22969 22.6657 8.24902 22.7339C8.26834 22.8023 8.30225 22.8656 8.3484 22.9195C8.39455 22.9735 8.45185 23.0168 8.51634 23.0465C8.58084 23.0761 8.651 23.0915 8.722 23.0914H12.2558L13.1434 17.462L13.1158 17.6383C13.1458 17.4459 13.2436 17.2705 13.3914 17.1437C13.5393 17.0169 13.7276 16.9471 13.9224 16.9469H15.6016C18.9006 16.9469 21.4838 15.607 22.2383 11.7307C22.2607 11.6161 22.2801 11.5045 22.2969 11.3955C22.521 9.9628 22.2954 8.98767 21.5204 8.10472" fill="#003087"/>
<path d="M14.0972 11.4139C14.124 11.2453 14.21 11.0919 14.3396 10.9811C14.4694 10.8703 14.6343 10.8093 14.8049 10.8091H19.2925C19.8239 10.8091 20.3196 10.8437 20.7726 10.9161C21.0202 10.9559 21.2652 11.0107 21.5062 11.0801C21.78 11.1571 22.0448 11.2626 22.2965 11.395C22.5217 9.96181 22.2954 8.98715 21.5205 8.1037C20.6671 7.1321 19.1259 6.71533 17.1536 6.71533H11.429C11.2339 6.71547 11.0453 6.78516 10.897 6.91189C10.7487 7.03861 10.6505 7.21406 10.6199 7.40671L8.23653 22.5223C8.22541 22.5924 8.22962 22.6641 8.24888 22.7325C8.26814 22.8008 8.30199 22.8641 8.3481 22.9181C8.3942 22.9721 8.45146 23.0155 8.51594 23.0453C8.58041 23.075 8.65056 23.0904 8.72156 23.0904H12.2559L13.1434 17.4605L14.0972 11.4139Z" fill="#003087"/>
<path d="M22.2987 11.395C22.2813 11.5072 22.2617 11.6189 22.2401 11.7303C21.4856 15.606 18.9025 16.9465 15.6035 16.9465H13.9237C13.7289 16.9466 13.5407 17.0164 13.3929 17.1432C13.2451 17.27 13.1475 17.4454 13.1177 17.6378L12.2577 23.0904L12.0131 24.6372C12.0034 24.6986 12.0071 24.7614 12.024 24.8213C12.0409 24.8811 12.0705 24.9366 12.1109 24.9838C12.1513 25.0311 12.2015 25.069 12.2579 25.0951C12.3144 25.1211 12.3759 25.1346 12.438 25.1345H15.417C15.7696 25.1345 16.0692 24.8777 16.1247 24.5298L16.1537 24.3779L16.7152 20.8196L16.7509 20.623C16.7775 20.4544 16.8635 20.3008 16.9934 20.1899C17.1232 20.079 17.2883 20.0182 17.4591 20.0182H17.9049C20.7906 20.0182 23.0502 18.8464 23.7105 15.4552C23.9857 14.0388 23.843 12.8552 23.1144 12.0243C22.8831 11.7666 22.6067 11.5534 22.2987 11.395Z" fill="#009CDE"/>
<path d="M21.508 11.0807C21.3929 11.0465 21.2741 11.0159 21.1519 10.9889C21.0296 10.9619 20.9033 10.938 20.7738 10.9176C20.3204 10.8437 19.8251 10.8091 19.2933 10.8091H14.8061C14.6353 10.8089 14.4701 10.8698 14.3403 10.9808C14.2105 11.0918 14.1247 11.2456 14.0985 11.4144L13.1447 17.4621L13.1172 17.6378C13.147 17.4454 13.2446 17.2699 13.3924 17.1431C13.5402 17.0163 13.7285 16.9466 13.9232 16.9464H15.603C18.9019 16.9464 21.4851 15.6065 22.2396 11.7303C22.2621 11.6156 22.2809 11.5045 22.2982 11.395C22.0989 11.2907 21.8914 11.2031 21.6777 11.1331C21.6221 11.1148 21.5656 11.0975 21.508 11.0801" fill="#012169"/>
</svg>
