<svg width="111" height="88" viewBox="0 0 111 88" fill="none" xmlns="http://www.w3.org/2000/svg">
<path d="M55.0648 87.4092C85.4762 87.4092 110.13 85.9699 110.13 84.1944C110.13 82.4188 85.4762 80.9795 55.0648 80.9795C24.6533 80.9795 0 82.4188 0 84.1944C0 85.9699 24.6533 87.4092 55.0648 87.4092Z" fill="#D4BDA2"/>
<path d="M16.0939 6.18308C16.0939 6.18308 14.6739 6.70848 14.2252 8.65388C13.7765 10.5993 14.9693 14.7968 15.1596 16.782C15.3498 18.7671 13.1716 22.7914 18.8317 23.1578C24.4918 23.5241 25.3097 8.0802 22.6884 7.001C20.0671 5.9218 16.0939 6.18308 16.0939 6.18308Z" fill="#263238"/>
<path d="M22.4219 7.22488C24.0009 6.4808 24.6768 11.6212 24.1259 15.3302" stroke="#263238" stroke-width="0.5" stroke-linecap="round" stroke-linejoin="round"/>
<path d="M35.8477 5.14913L36.5207 3.29746C36.5207 3.29746 36.2367 2.9595 37.5318 2.34038C38.8268 1.72126 39.6163 1.38614 40.1474 1.5537C40.6785 1.72126 41.4084 2.9169 41.3516 3.33154C41.2948 3.74618 37.7561 4.3227 37.7561 4.3227L37.2506 5.74269L35.8477 5.14913Z" fill="#E4897B"/>
<path d="M24.8984 14.6174C24.8984 14.6174 31.0783 12.7628 32.0893 11.8143C33.1004 10.8657 35.9602 3.7998 35.9602 3.7998L38.0363 4.6518C38.0363 4.6518 35.9091 12.8594 34.1114 14.7594C32.3137 16.6593 25.404 20.0276 25.404 20.0276L24.8984 14.6174Z" fill="#754FFE"/>
<path opacity="0.6" d="M24.8984 14.6174C24.8984 14.6174 31.0783 12.7628 32.0893 11.8143C33.1004 10.8657 35.9602 3.7998 35.9602 3.7998L38.0363 4.6518C38.0363 4.6518 35.9091 12.8594 34.1114 14.7594C32.3137 16.6593 25.404 20.0276 25.404 20.0276L24.8984 14.6174Z" fill="white"/>
<path d="M13.7188 77.6118L15.0905 78.4184C15.7339 77.5527 16.4301 76.7276 17.175 75.9476C17.5726 75.5273 17.9901 75.0615 18.4246 74.5617C19.2937 73.5648 20.2337 72.426 21.2192 71.202L22.1024 70.0972C25.5275 65.7747 29.2479 60.6968 30.6395 57.2632C31.0711 56.1954 31.2813 55.2752 31.1876 54.6107C30.9036 52.5602 30.1084 49.4731 29.1996 46.4911C27.8137 41.9329 26.2545 37.6133 26.2545 37.6133L22.4234 44.1027C22.4234 44.1027 23.5991 46.9058 24.6698 49.8906C25.7234 52.8215 26.6748 55.9313 26.3227 56.7407C26.2886 56.8202 26.246 56.9139 26.1977 57.0247C25.5615 58.3424 23.8007 61.3273 21.8014 64.6245L21.1908 65.627C20.1173 67.3878 19.0011 69.1969 17.9674 70.8583C17.5641 71.5115 17.1722 72.142 16.8001 72.7384C15.0337 75.5585 13.7188 77.6118 13.7188 77.6118Z" fill="#E4897B"/>
<path opacity="0.2" d="M22.184 70.0945C20.3721 72.3665 18.6312 74.4397 17.3361 75.9449C17.1515 75.019 16.9641 73.9228 16.8164 72.7272C18.3131 70.3245 20.1449 67.3596 21.8091 64.6133C21.7738 66.4478 21.8993 68.2819 22.184 70.0945Z" fill="#18113C"/>
<path d="M15.3439 51.3159C15.8182 54.5507 16.4799 57.4816 16.9343 59.2282C17.1984 60.2761 17.3773 60.8953 17.3773 60.8953C17.3837 64.217 17.5791 67.5357 17.9624 70.8352C18.1072 72.136 18.2634 73.3912 18.4253 74.5471C19.0217 78.8469 19.6493 81.9311 19.6493 81.9311L21.2823 81.7181L21.2199 71.1846L21.1858 65.6011L21.1403 58.0041L21.1233 56.6807L21.0438 50.9041L20.9273 42.3841L15.2473 39.8281C14.4862 43.0799 14.7702 47.4194 15.3439 51.3159Z" fill="#E4897B"/>
<path opacity="0.2" d="M30.5439 51.3703C29.0927 52.3728 27.1359 52.9749 25.7926 53.2986C25.483 52.2393 25.0826 51.0493 24.6566 49.8906C23.5859 46.9058 22.4102 44.1027 22.4102 44.1027L26.2413 37.6133C26.2413 37.6133 27.8005 41.9329 29.1864 46.4911C29.7033 48.1497 30.1747 49.8423 30.5439 51.3703Z" fill="#18113C"/>
<path opacity="0.2" d="M21.0918 54.4943C19.3267 54.4563 17.5646 54.3293 15.8122 54.1138C15.6475 53.2249 15.4856 52.2848 15.3436 51.3164C14.7756 47.4199 14.4916 43.0804 15.2471 39.8428L20.9271 42.3988L21.0435 50.9188L21.0918 54.4943Z" fill="#18113C"/>
<path d="M30.819 50.8051C27.2662 52.8925 16.815 53.7786 16.815 53.7786L15.111 48.9733L15.3041 53.7388H14.7958C14.7958 53.7388 10.9788 40.8168 16.051 32.348L25.139 31.6465L26.133 36.3268C26.133 36.3268 28.6834 43.0235 30.819 50.8051Z" fill="#263238"/>
<path d="M24.1529 84.0391C23.8852 83.8794 23.5908 83.7697 23.2839 83.7153C23.2839 83.7153 22.2785 82.9684 21.4833 80.3982L20.2877 80.2619C20.0845 80.2434 19.8806 80.288 19.7037 80.3896C19.5268 80.4913 19.3856 80.645 19.2994 80.8299C19.2739 80.8808 19.2566 80.9355 19.2482 80.9918C19.2298 81.2812 19.2298 81.5714 19.2482 81.8608C19.3209 82.8306 19.4518 83.7951 19.6402 84.7491L19.8503 84.7207L19.6742 82.8974C19.6174 82.2783 20.1911 82.9315 20.4212 83.5762C20.6512 84.2209 21.0346 84.8826 22.3864 84.7122C23.9626 84.5219 24.6073 84.3685 24.1529 84.0391Z" fill="#2E353A"/>
<path d="M21.1553 79.4893C21.1553 79.4893 21.5813 80.6508 22.1493 81.9288C22.4101 82.5915 22.7957 83.198 23.2853 83.7152C23.2853 83.7152 22.297 84.0361 21.7659 83.417C21.2348 82.7979 20.3203 80.5628 19.3008 80.8212C19.3551 80.6394 19.4314 80.4648 19.528 80.3015C19.6813 80.0487 21.1553 79.4893 21.1553 79.4893Z" fill="#E4897B"/>
<path d="M14.1477 83.0303C14.0906 82.7224 13.9769 82.4277 13.8125 82.1612C13.8125 82.1612 13.7075 80.9145 15.1047 78.6169L14.4146 77.6314C14.2954 77.4668 14.1285 77.3429 13.9365 77.2763C13.7444 77.2098 13.5366 77.2039 13.3411 77.2594C13.2862 77.275 13.2337 77.2979 13.1849 77.3275C12.9557 77.5033 12.7375 77.693 12.5317 77.8955C11.8535 78.593 11.2181 79.3309 10.6289 80.1051L10.7908 80.2414L12.0404 78.9009C12.4664 78.4493 12.3556 79.3127 12.0262 79.9091C11.6967 80.5055 11.4582 81.2354 12.4692 82.1442C13.6592 83.2063 14.2016 83.5869 14.1477 83.0303Z" fill="#2E353A"/>
<path d="M15.5691 77.7652C15.5691 77.7652 14.9812 78.8558 14.399 80.1281C14.0764 80.7625 13.8779 81.4527 13.814 82.1615C13.814 82.1615 12.9222 81.6361 13.033 80.8267C13.1437 80.0173 14.2116 77.8561 13.3425 77.2597C13.5151 77.1813 13.6962 77.1232 13.8821 77.0864C14.169 77.0268 15.5691 77.7652 15.5691 77.7652Z" fill="#E4897B"/>
<path d="M15.9574 31.4073L15.9062 32.779L25.2981 32.4127L25.3606 30.791L15.9574 31.4073Z" fill="#263238"/>
<path opacity="0.2" d="M15.9574 31.4073L15.9062 32.779L25.2981 32.4127L25.3606 30.791L15.9574 31.4073Z" fill="white"/>
<path d="M19.1298 30.9478L18.6641 30.9541L18.6959 33.3253L19.1616 33.319L19.1298 30.9478Z" fill="#263238"/>
<path d="M23.1784 30.9524L21.125 31.0586L21.2055 32.6157L23.2589 32.5095L23.1784 30.9524Z" fill="white"/>
<path d="M24.872 30.5339L24.4062 30.54L24.4377 32.9112L24.9034 32.905L24.872 30.5339Z" fill="#263238"/>
<path d="M13.408 31.9873L15.5551 33.2142C16.0558 33.4045 16.4733 33.7656 16.7337 34.2337C17.2591 35.0857 16.5036 38.3347 16.0947 38.3347C15.6857 38.3347 13.3768 37.8292 13.408 37.3805C13.4393 36.9317 14.3339 34.7961 14.3339 34.7961L12.2578 33.5039L13.408 31.9873Z" fill="#E4897B"/>
<path d="M15.9054 31.4047C15.9054 31.4047 15.3374 23.0778 13.4062 18.318C13.4062 18.318 17.3822 16.1823 24.8969 14.626C24.8969 14.626 27.0496 19.8658 25.3598 30.8907L15.9054 31.4047Z" fill="#754FFE"/>
<path opacity="0.6" d="M22.1498 23.4245C22.2972 23.4245 22.4167 23.305 22.4167 23.1576C22.4167 23.0101 22.2972 22.8906 22.1498 22.8906C22.0023 22.8906 21.8828 23.0101 21.8828 23.1576C21.8828 23.305 22.0023 23.4245 22.1498 23.4245Z" fill="white"/>
<path opacity="0.6" d="M22.6866 26.3892C22.6798 26.4557 22.6485 26.5172 22.599 26.5619C22.5494 26.6066 22.485 26.6314 22.4182 26.6314C22.3515 26.6314 22.2871 26.6066 22.2375 26.5619C22.1879 26.5172 22.1567 26.4557 22.1499 26.3892C22.146 26.3517 22.15 26.3137 22.1618 26.2778C22.1735 26.2419 22.1926 26.2089 22.2179 26.1809C22.2432 26.1528 22.2741 26.1304 22.3086 26.1151C22.3431 26.0997 22.3805 26.0918 22.4182 26.0918C22.456 26.0918 22.4933 26.0997 22.5278 26.1151C22.5623 26.1304 22.5932 26.1528 22.6185 26.1809C22.6438 26.2089 22.663 26.2419 22.6747 26.2778C22.6864 26.3137 22.6905 26.3517 22.6866 26.3892Z" fill="white"/>
<path opacity="0.6" d="M22.6866 29.4596C22.6798 29.526 22.6485 29.5875 22.599 29.6322C22.5494 29.6769 22.485 29.7017 22.4182 29.7017C22.3515 29.7017 22.2871 29.6769 22.2375 29.6322C22.1879 29.5875 22.1567 29.526 22.1499 29.4596C22.146 29.422 22.15 29.384 22.1618 29.3481C22.1735 29.3122 22.1926 29.2792 22.2179 29.2512C22.2432 29.2231 22.2741 29.2007 22.3086 29.1854C22.3431 29.17 22.3805 29.1621 22.4182 29.1621C22.456 29.1621 22.4933 29.17 22.5278 29.1854C22.5623 29.2007 22.5932 29.2231 22.6185 29.2512C22.6438 29.2792 22.663 29.3122 22.6747 29.3481C22.6864 29.384 22.6905 29.422 22.6866 29.4596Z" fill="white"/>
<path d="M13.407 18.3184C11.6405 19.2896 5.23628 26.6509 5.73896 28.8406C6.24164 31.0302 13.407 34.4581 13.407 34.4581L14.6367 32.3366C14.6367 32.3366 9.945 28.8406 9.72064 28.2782C9.49628 27.7159 14.8838 23.4786 14.8838 23.4786C14.952 22.3542 14.9187 21.226 14.7844 20.1076C14.7272 19.7164 14.5705 19.3464 14.3293 19.0331C14.0881 18.7198 13.7705 18.4737 13.407 18.3184Z" fill="#754FFE"/>
<path opacity="0.6" d="M13.407 18.3184C11.6405 19.2896 5.23628 26.6509 5.73896 28.8406C6.24164 31.0302 13.407 34.4581 13.407 34.4581L14.6367 32.3366C14.6367 32.3366 9.945 28.8406 9.72064 28.2782C9.49628 27.7159 14.8838 23.4786 14.8838 23.4786C14.952 22.3542 14.9187 21.226 14.7844 20.1076C14.7272 19.7164 14.5705 19.3464 14.3293 19.0331C14.0881 18.7198 13.7705 18.4737 13.407 18.3184Z" fill="white"/>
<path d="M16.7225 19.7951C16.7225 19.7951 14.9248 16.8585 18.8582 15.8446C22.7916 14.8307 23.99 17.1936 23.99 17.1936L22.0304 16.8557L21.7834 21.5388C20.8775 19.9178 19.4034 18.6896 17.6455 18.0911L16.7225 19.7951Z" fill="#754FFE"/>
<path opacity="0.6" d="M16.7225 19.7951C16.7225 19.7951 14.9248 16.8585 18.8582 15.8446C22.7916 14.8307 23.99 17.1936 23.99 17.1936L22.0304 16.8557L21.7834 21.5388C20.8775 19.9178 19.4034 18.6896 17.6455 18.0911L16.7225 19.7951Z" fill="white"/>
<path d="M21.1913 19.2357C19.8729 18.6198 18.6093 17.893 17.4141 17.0631C18.3371 16.1941 18.1695 14.9104 17.9338 14.1095C17.8605 13.8556 17.7655 13.6086 17.6498 13.3711L20.3677 13.8795C20.305 14.2551 20.2699 14.6347 20.2626 15.0155C20.2525 15.3015 20.2782 15.5878 20.3393 15.8675C20.5239 16.6797 20.9868 16.6911 20.9868 16.6911C21.4696 17.58 21.1913 19.2357 21.1913 19.2357Z" fill="#E4897B"/>
<path opacity="0.2" d="M20.2669 15.0234C20.2568 15.3094 20.2826 15.5957 20.3436 15.8754C19.2644 15.7334 18.4465 14.87 17.9324 14.1202C17.8592 13.8664 17.7642 13.6193 17.6484 13.3818L20.3663 13.8902C20.3057 14.265 20.2725 14.6437 20.2669 15.0234Z" fill="#18113C"/>
<path d="M19.7281 6.22852C22.6562 6.22852 22.9004 7.64851 23.068 10.0824C23.2781 13.1269 22.5994 15.2909 19.6429 14.6264C15.63 13.7403 15.8004 6.22852 19.7281 6.22852Z" fill="#E4897B"/>
<path d="M21.5508 9.94629C21.7394 10.3004 21.9701 10.6303 22.2381 10.9289C22.1682 11.0262 22.0731 11.1025 21.9629 11.1496C21.8528 11.1967 21.7319 11.2127 21.6133 11.1959L21.5508 9.94629Z" fill="#DE5753"/>
<path d="M20.0937 9.74984C20.0937 9.94296 19.9943 10.102 19.8665 10.1048C19.7387 10.1077 19.6279 9.95432 19.6251 9.75836C19.6222 9.5624 19.7216 9.4062 19.8494 9.40336C19.9772 9.40052 20.088 9.55388 20.0937 9.74984Z" fill="#263238"/>
<path d="M19.8008 9.41152L20.2183 9.23828C20.2183 9.23828 20.0166 9.59895 19.8008 9.41152Z" fill="#263238"/>
<path d="M22.5077 9.65893C22.5077 9.85204 22.4083 10.0111 22.2805 10.0139C22.1527 10.0168 22.042 9.86057 22.0391 9.66745C22.0363 9.47433 22.1357 9.31245 22.2663 9.30961C22.397 9.30677 22.502 9.46297 22.5077 9.65893Z" fill="#263238"/>
<path d="M22.2148 9.32069L22.6323 9.14746C22.6323 9.14746 22.4307 9.50529 22.2148 9.32069Z" fill="#263238"/>
<path d="M20.075 8.11681C19.8879 8.09361 19.6979 8.11355 19.5197 8.17508C19.3415 8.23661 19.1798 8.33811 19.0469 8.4718" stroke="#263238" stroke-width="0.707962" stroke-linecap="round" stroke-linejoin="round"/>
<path d="M21.793 8.01448C21.9547 7.97406 22.1236 7.97069 22.2868 8.00462C22.4501 8.03855 22.6036 8.10891 22.7358 8.21044" stroke="#263238" stroke-width="0.707962" stroke-linecap="round" stroke-linejoin="round"/>
<path d="M17.1854 10.352C17.1854 10.352 18.2958 8.40943 18.1311 6.90991C18.1311 6.90991 19.801 5.18886 22.0475 6.89002C22.0475 6.89002 22.9847 8.50599 23.0443 9.76411C23.0443 9.76411 23.5101 5.54102 19.446 5.43594C15.382 5.33086 15.3848 11.2807 17.4807 13.0585C17.4807 13.0585 16.4981 11.5647 17.1854 10.352Z" fill="#263238"/>
<path d="M17.5743 10.8551C17.5635 10.7193 17.5261 10.587 17.4642 10.4657C17.4023 10.3444 17.317 10.2365 17.2134 10.1481C17.1097 10.0598 16.9897 9.99269 16.8601 9.95075C16.7305 9.90882 16.5939 9.89283 16.4582 9.9037C15.7254 9.98322 15.3733 11.4856 17.1966 11.8519C17.4522 11.9002 17.5998 11.6475 17.5743 10.8551Z" fill="#E4897B"/>
<path d="M21.2829 12.4762C21.2829 12.4762 20.2918 12.7005 19.8828 11.8145" stroke="#263238" stroke-width="0.707962" stroke-linecap="round" stroke-linejoin="round"/>
<path d="M18.1446 6.90996C18.1446 6.90996 20.8483 5.71148 22.6375 7.29336C22.6375 7.29336 23.339 5.20879 20.9335 4.49879C18.528 3.78879 16.1055 6.18292 16.1055 6.18292L18.1446 6.90996Z" fill="#263238"/>
<path d="M18.1422 6.91007C18.1422 6.91007 16.566 8.46638 16.7932 11.5677C17.0204 14.6689 16.7222 16.6257 16.1059 18.5654C15.4896 20.5051 17.1027 21.0845 17.1027 21.0845C17.1027 21.0845 15.2653 21.5389 14.8876 19.5708C14.6376 18.2814 15.2283 15.4869 14.933 12.1584C14.6376 8.8299 15.8077 6.47555 18.1422 6.91007Z" fill="#263238"/>
<path d="M62.0073 0C61.4906 0 60.9854 0.153239 60.5557 0.440337C60.1261 0.727435 59.7912 1.1355 59.5934 1.61292C59.3957 2.09035 59.3439 2.61569 59.4447 3.12253C59.5456 3.62936 59.7944 4.09492 60.1598 4.46032C60.5252 4.82573 60.9908 5.07457 61.4976 5.17539C62.0044 5.2762 62.5298 5.22446 63.0072 5.02671C63.4846 4.82895 63.8927 4.49406 64.1798 4.06439C64.4669 3.63472 64.6201 3.12956 64.6201 2.6128C64.6201 1.91984 64.3448 1.25526 63.8548 0.765271C63.3649 0.275276 62.7003 0 62.0073 0ZM62.0073 2.36004C61.8574 2.36004 61.7107 2.31556 61.586 2.23224C61.4613 2.14892 61.3642 2.0305 61.3068 1.89194C61.2494 1.75338 61.2344 1.60092 61.2636 1.45383C61.2929 1.30673 61.3651 1.17162 61.4711 1.06557C61.5772 0.959528 61.7123 0.887307 61.8594 0.858048C62.0065 0.82879 62.1589 0.843807 62.2975 0.901199C62.4361 0.958592 62.5545 1.05578 62.6378 1.18048C62.7211 1.30518 62.7656 1.45178 62.7656 1.60176C62.7656 1.70134 62.746 1.79994 62.7079 1.89194C62.6698 1.98394 62.6139 2.06753 62.5435 2.13794C62.4731 2.20836 62.3895 2.26421 62.2975 2.30232C62.2055 2.34042 62.1069 2.36004 62.0073 2.36004Z" fill="#754FFE"/>
<path opacity="0.6" d="M62.0073 0C61.4906 0 60.9854 0.153239 60.5557 0.440337C60.1261 0.727435 59.7912 1.1355 59.5934 1.61292C59.3957 2.09035 59.3439 2.61569 59.4447 3.12253C59.5456 3.62936 59.7944 4.09492 60.1598 4.46032C60.5252 4.82573 60.9908 5.07457 61.4976 5.17539C62.0044 5.2762 62.5298 5.22446 63.0072 5.02671C63.4846 4.82895 63.8927 4.49406 64.1798 4.06439C64.4669 3.63472 64.6201 3.12956 64.6201 2.6128C64.6201 1.91984 64.3448 1.25526 63.8548 0.765271C63.3649 0.275276 62.7003 0 62.0073 0ZM62.0073 2.36004C61.8574 2.36004 61.7107 2.31556 61.586 2.23224C61.4613 2.14892 61.3642 2.0305 61.3068 1.89194C61.2494 1.75338 61.2344 1.60092 61.2636 1.45383C61.2929 1.30673 61.3651 1.17162 61.4711 1.06557C61.5772 0.959528 61.7123 0.887307 61.8594 0.858048C62.0065 0.82879 62.1589 0.843807 62.2975 0.901199C62.4361 0.958592 62.5545 1.05578 62.6378 1.18048C62.7211 1.30518 62.7656 1.45178 62.7656 1.60176C62.7656 1.70134 62.746 1.79994 62.7079 1.89194C62.6698 1.98394 62.6139 2.06753 62.5435 2.13794C62.4731 2.20836 62.3895 2.26421 62.2975 2.30232C62.2055 2.34042 62.1069 2.36004 62.0073 2.36004Z" fill="white"/>
<path d="M87.8585 3.43066H36.1506C34.9758 3.43066 34.0234 4.38303 34.0234 5.55783V82.6127C34.0234 83.7875 34.9758 84.7398 36.1506 84.7398H87.8585C89.0333 84.7398 89.9856 83.7875 89.9856 82.6127V5.55783C89.9856 4.38303 89.0333 3.43066 87.8585 3.43066Z" fill="#754FFE"/>
<path opacity="0.8" d="M87.0223 8.15625H36.9844V80.8716H87.0223V8.15625Z" fill="white"/>
<path d="M75.313 2.7373H48.6966C48.3938 2.7373 48.1484 2.98271 48.1484 3.28543V6.6991C48.1484 7.00182 48.3938 7.24723 48.6966 7.24723H75.313C75.6158 7.24723 75.8612 7.00182 75.8612 6.6991V3.28543C75.8612 2.98271 75.6158 2.7373 75.313 2.7373Z" fill="#754FFE"/>
<path opacity="0.4" d="M75.313 2.7373H48.6966C48.3938 2.7373 48.1484 2.98271 48.1484 3.28543V6.6991C48.1484 7.00182 48.3938 7.24723 48.6966 7.24723H75.313C75.6158 7.24723 75.8612 7.00182 75.8612 6.6991V3.28543C75.8612 2.98271 75.6158 2.7373 75.313 2.7373Z" fill="white"/>
<path d="M72.2488 11.4367H64.2287C64.0654 11.4395 63.9044 11.3977 63.7633 11.3155C63.6221 11.2334 63.5061 11.1143 63.4278 10.9709C63.2903 10.7138 63.0856 10.4989 62.8355 10.349C62.5854 10.1991 62.2994 10.12 62.0078 10.12C61.7163 10.12 61.4302 10.1991 61.1801 10.349C60.93 10.4989 60.7253 10.7138 60.5878 10.9709C60.5093 11.1141 60.3932 11.2331 60.2521 11.3151C60.111 11.3972 59.9502 11.4392 59.7869 11.4367H51.7582C51.5323 11.4367 51.3156 11.3469 51.1558 11.1871C50.996 11.0274 50.9062 10.8106 50.9062 10.5847V5.79927C50.9062 5.5733 50.996 5.35659 51.1558 5.19681C51.3156 5.03703 51.5323 4.94727 51.7582 4.94727H72.2488C72.4748 4.94727 72.6915 5.03703 72.8513 5.19681C73.0111 5.35659 73.1008 5.5733 73.1008 5.79927V10.5705C73.1027 10.6836 73.0821 10.7959 73.0401 10.9009C72.9981 11.0059 72.9357 11.1015 72.8564 11.1821C72.7771 11.2628 72.6825 11.3268 72.5782 11.3705C72.4739 11.4142 72.3619 11.4367 72.2488 11.4367ZM62.005 9.54807C62.4003 9.54728 62.7884 9.65453 63.1273 9.85825C63.4661 10.062 63.7429 10.3544 63.9276 10.704C63.9585 10.7558 64.0028 10.7984 64.0557 10.8274C64.1086 10.8563 64.1684 10.8706 64.2287 10.8687H72.2488C72.3242 10.8687 72.3964 10.8388 72.4497 10.7855C72.5029 10.7322 72.5328 10.66 72.5328 10.5847V5.79927C72.5328 5.72395 72.5029 5.65171 72.4497 5.59845C72.3964 5.54519 72.3242 5.51527 72.2488 5.51527H51.7582C51.6829 5.51527 51.6107 5.54519 51.5574 5.59845C51.5042 5.65171 51.4742 5.72395 51.4742 5.79927V10.5705C51.4742 10.6458 51.5042 10.718 51.5574 10.7713C51.6107 10.8246 51.6829 10.8545 51.7582 10.8545H59.7841C59.844 10.8562 59.9032 10.8418 59.9557 10.8128C60.0081 10.7839 60.0518 10.7414 60.0823 10.6898C60.2692 10.343 60.5468 10.0537 60.8855 9.85257C61.2241 9.65147 61.6111 9.54622 62.005 9.54807Z" fill="#263238"/>
<g opacity="0.2">
<path opacity="0.2" d="M72.2488 11.4367H64.2287C64.0654 11.4395 63.9044 11.3977 63.7633 11.3155C63.6221 11.2334 63.5061 11.1143 63.4278 10.9709C63.2903 10.7138 63.0856 10.4989 62.8355 10.349C62.5854 10.1991 62.2994 10.12 62.0078 10.12C61.7163 10.12 61.4302 10.1991 61.1801 10.349C60.93 10.4989 60.7253 10.7138 60.5878 10.9709C60.5093 11.1141 60.3932 11.2331 60.2521 11.3151C60.111 11.3972 59.9502 11.4392 59.7869 11.4367H51.7582C51.5323 11.4367 51.3156 11.3469 51.1558 11.1871C50.996 11.0274 50.9062 10.8106 50.9062 10.5847V5.79927C50.9062 5.5733 50.996 5.35659 51.1558 5.19681C51.3156 5.03703 51.5323 4.94727 51.7582 4.94727H72.2488C72.4748 4.94727 72.6915 5.03703 72.8513 5.19681C73.0111 5.35659 73.1008 5.5733 73.1008 5.79927V10.5705C73.1027 10.6836 73.0821 10.7959 73.0401 10.9009C72.9981 11.0059 72.9357 11.1015 72.8564 11.1821C72.7771 11.2628 72.6825 11.3268 72.5782 11.3705C72.4739 11.4142 72.3619 11.4367 72.2488 11.4367ZM62.005 9.54807C62.4003 9.54728 62.7884 9.65453 63.1273 9.85825C63.4661 10.062 63.7429 10.3544 63.9276 10.704C63.9585 10.7558 64.0028 10.7984 64.0557 10.8274C64.1086 10.8563 64.1684 10.8706 64.2287 10.8687H72.2488C72.3242 10.8687 72.3964 10.8388 72.4497 10.7855C72.5029 10.7322 72.5328 10.66 72.5328 10.5847V5.79927C72.5328 5.72395 72.5029 5.65171 72.4497 5.59845C72.3964 5.54519 72.3242 5.51527 72.2488 5.51527H51.7582C51.6829 5.51527 51.6107 5.54519 51.5574 5.59845C51.5042 5.65171 51.4742 5.72395 51.4742 5.79927V10.5705C51.4742 10.6458 51.5042 10.718 51.5574 10.7713C51.6107 10.8246 51.6829 10.8545 51.7582 10.8545H59.7841C59.844 10.8562 59.9032 10.8418 59.9557 10.8128C60.0081 10.7839 60.0518 10.7414 60.0823 10.6898C60.2692 10.343 60.5468 10.0537 60.8855 9.85257C61.2241 9.65147 61.6111 9.54622 62.005 9.54807Z" fill="white"/>
</g>
<path d="M71.0339 4.11523H52.9857C52.8037 4.11523 52.6562 4.26273 52.6562 4.44467V5.72267C52.6562 5.90462 52.8037 6.05211 52.9857 6.05211H71.0339C71.2158 6.05211 71.3633 5.90462 71.3633 5.72267V4.44467C71.3633 4.26273 71.2158 4.11523 71.0339 4.11523Z" fill="#754FFE"/>
<path opacity="0.6" d="M71.0261 4.11523H52.9779C52.7959 4.11523 52.6484 4.26273 52.6484 4.44467V5.72267C52.6484 5.90462 52.7959 6.05211 52.9779 6.05211H71.0261C71.208 6.05211 71.3555 5.90462 71.3555 5.72267V4.44467C71.3555 4.26273 71.208 4.11523 71.0261 4.11523Z" fill="white"/>
<path opacity="0.3" d="M66.6528 47.8711H61.5977V52.9263H66.6528V47.8711Z" fill="#18113C"/>
<path opacity="0.3" d="M66.0621 54.9599H62.1884C62.0317 54.9599 61.8815 54.8976 61.7707 54.7868C61.6599 54.6761 61.5977 54.5258 61.5977 54.3691C61.5984 54.213 61.661 54.0634 61.7717 53.9533C61.8824 53.8431 62.0322 53.7812 62.1884 53.7813H66.0621C66.2183 53.7812 66.3681 53.8431 66.4788 53.9533C66.5895 54.0634 66.6521 54.213 66.6528 54.3691C66.6528 54.5258 66.5906 54.6761 66.4798 54.7868C66.369 54.8976 66.2188 54.9599 66.0621 54.9599Z" fill="#18113C"/>
<path opacity="0.3" d="M82.3302 47.8711H69.3287C69.0307 47.8711 68.7891 48.1127 68.7891 48.4107V48.4135C68.7891 48.7115 69.0307 48.9531 69.3287 48.9531H82.3302C82.6282 48.9531 82.8698 48.7115 82.8698 48.4135V48.4107C82.8698 48.1127 82.6282 47.8711 82.3302 47.8711Z" fill="#18113C"/>
<path opacity="0.3" d="M79.4902 50.7109H69.3287C69.0307 50.7109 68.7891 50.9525 68.7891 51.2505V51.2534C68.7891 51.5514 69.0307 51.793 69.3287 51.793H79.4902C79.7882 51.793 80.0298 51.5514 80.0298 51.2534V51.2505C80.0298 50.9525 79.7882 50.7109 79.4902 50.7109Z" fill="#18113C"/>
<path opacity="0.3" d="M82.3302 53.5508H69.3287C69.0307 53.5508 68.7891 53.7924 68.7891 54.0904V54.0932C68.7891 54.3912 69.0307 54.6328 69.3287 54.6328H82.3302C82.6282 54.6328 82.8698 54.3912 82.8698 54.0932V54.0904C82.8698 53.7924 82.6282 53.5508 82.3302 53.5508Z" fill="#18113C"/>
<path opacity="0.3" d="M74.9462 56.3906H69.3287C69.0307 56.3906 68.7891 56.6322 68.7891 56.9302V56.9331C68.7891 57.2311 69.0307 57.4727 69.3287 57.4727H74.9462C75.2442 57.4727 75.4858 57.2311 75.4858 56.9331V56.9302C75.4858 56.6322 75.2442 56.3906 74.9462 56.3906Z" fill="#18113C"/>
<path opacity="0.3" d="M76.9457 15.6451H46.9212C46.6616 15.6444 46.4128 15.5409 46.2292 15.3573C46.0456 15.1738 45.9422 14.925 45.9414 14.6653C45.9414 14.4055 46.0446 14.1563 46.2284 13.9725C46.4121 13.7888 46.6613 13.6855 46.9212 13.6855H76.9457C77.2055 13.6855 77.4548 13.7888 77.6385 13.9725C77.8223 14.1563 77.9255 14.4055 77.9255 14.6653C77.9247 14.925 77.8213 15.1738 77.6377 15.3573C77.4541 15.5409 77.2053 15.6444 76.9457 15.6451Z" fill="#18113C"/>
<path opacity="0.3" d="M81.9548 21.4453H62.1373C61.9939 21.4446 61.8566 21.3871 61.7555 21.2854C61.6544 21.1838 61.5977 21.0463 61.5977 20.9029C61.5977 20.7598 61.6545 20.6225 61.7557 20.5213C61.8569 20.4201 61.9941 20.3633 62.1373 20.3633H81.9548C82.0979 20.3633 82.2351 20.4201 82.3363 20.5213C82.4375 20.6225 82.4944 20.7598 82.4944 20.9029C82.4944 21.0463 82.4376 21.1838 82.3365 21.2854C82.2354 21.3871 82.0981 21.4446 81.9548 21.4453Z" fill="#18113C"/>
<path opacity="0.3" d="M79.1148 24.2852H62.1373C61.9939 24.2844 61.8566 24.2269 61.7555 24.1253C61.6544 24.0236 61.5977 23.8861 61.5977 23.7427C61.5977 23.5996 61.6545 23.4624 61.7557 23.3612C61.8569 23.26 61.9941 23.2031 62.1373 23.2031H79.1148C79.2579 23.2031 79.3951 23.26 79.4963 23.3612C79.5975 23.4624 79.6544 23.5996 79.6544 23.7427C79.6544 23.8861 79.5976 24.0236 79.4965 24.1253C79.3954 24.2269 79.2581 24.2844 79.1148 24.2852Z" fill="#18113C"/>
<path opacity="0.3" d="M81.9548 27.125H62.1373C61.9939 27.1243 61.8566 27.0668 61.7555 26.9651C61.6544 26.8635 61.5977 26.7259 61.5977 26.5826C61.5977 26.4395 61.6545 26.3022 61.7557 26.201C61.8569 26.0998 61.9941 26.043 62.1373 26.043H81.9548C82.0979 26.043 82.2351 26.0998 82.3363 26.201C82.4375 26.3022 82.4944 26.4395 82.4944 26.5826C82.4944 26.7259 82.4376 26.8635 82.3365 26.9651C82.2354 27.0668 82.0981 27.1243 81.9548 27.125Z" fill="#18113C"/>
<path opacity="0.3" d="M76.2748 29.9649H62.1373C61.9939 29.9641 61.8566 29.9066 61.7555 29.805C61.6544 29.7033 61.5977 29.5658 61.5977 29.4224C61.5977 29.2793 61.6545 29.1421 61.7557 29.0409C61.8569 28.9397 61.9941 28.8828 62.1373 28.8828H76.2748C76.4179 28.8828 76.5551 28.9397 76.6563 29.0409C76.7575 29.1421 76.8144 29.2793 76.8144 29.4224C76.8144 29.5658 76.7576 29.7033 76.6565 29.805C76.5554 29.9066 76.4181 29.9641 76.2748 29.9649Z" fill="#18113C"/>
<path opacity="0.3" d="M63.016 33.3506L63.3284 33.9811L64.0271 34.0833L63.5215 34.5746L63.6408 35.2704L63.016 34.941L62.394 35.2704L62.5133 34.5746L62.0078 34.0833L62.7036 33.9811L63.016 33.3506Z" fill="#18113C"/>
<path opacity="0.3" d="M66.5423 33.3506L66.8547 33.9811L67.5505 34.0833L67.045 34.5746L67.1642 35.2704L66.5423 34.941L65.9175 35.2704L66.0368 34.5746L65.5312 34.0833L66.2299 33.9811L66.5423 33.3506Z" fill="#18113C"/>
<path opacity="0.3" d="M70.0668 33.3506L70.3792 33.9811L71.0778 34.0833L70.5723 34.5746L70.6916 35.2704L70.0668 34.941L69.442 35.2704L69.5613 34.5746L69.0586 34.0833L69.7544 33.9811L70.0668 33.3506Z" fill="#18113C"/>
<path opacity="0.3" d="M73.5931 33.3506L73.9026 33.9811L74.6013 34.0833L74.0958 34.5746L74.215 35.2704L73.5931 34.941L72.9683 35.2704L73.0876 34.5746L72.582 34.0833L73.2807 33.9811L73.5931 33.3506Z" fill="#18113C"/>
<path opacity="0.3" d="M77.1176 33.3506L77.43 33.9811L78.1258 34.0833L77.6231 34.5746L77.7424 35.2704L77.1176 34.941L76.4928 35.2704L76.6121 34.5746L76.1094 34.0833L76.8052 33.9811L77.1176 33.3506Z" fill="#18113C"/>
<path opacity="0.3" d="M63.016 36.9688L63.3284 37.5992L64.0271 37.7015L63.5215 38.1928L63.6408 38.8886L63.016 38.5592L62.394 38.8886L62.5133 38.1928L62.0078 37.7015L62.7036 37.5992L63.016 36.9688Z" fill="#18113C"/>
<path opacity="0.3" d="M66.5423 36.9688L66.8547 37.5992L67.5505 37.7015L67.045 38.1928L67.1642 38.8886L66.5423 38.5592L65.9175 38.8886L66.0368 38.1928L65.5312 37.7015L66.2299 37.5992L66.5423 36.9688Z" fill="#18113C"/>
<path opacity="0.3" d="M70.0668 36.9688L70.3792 37.5992L71.0778 37.7015L70.5723 38.1928L70.6916 38.8886L70.0668 38.5592L69.442 38.8886L69.5613 38.1928L69.0586 37.7015L69.7544 37.5992L70.0668 36.9688Z" fill="#18113C"/>
<path opacity="0.1" d="M73.5931 36.9688L73.9026 37.5992L74.6013 37.7015L74.0958 38.1928L74.215 38.8886L73.5931 38.5592L72.9683 38.8886L73.0876 38.1928L72.582 37.7015L73.2807 37.5992L73.5931 36.9688Z" fill="#18113C"/>
<path opacity="0.1" d="M77.1176 36.9688L77.43 37.5992L78.1258 37.7015L77.6231 38.1928L77.7424 38.8886L77.1176 38.5592L76.4928 38.8886L76.6121 38.1928L76.1094 37.7015L76.8052 37.5992L77.1176 36.9688Z" fill="#18113C"/>
<path opacity="0.3" d="M63.016 40.5869L63.3284 41.2174L64.0271 41.3196L63.5215 41.811L63.6408 42.5068L63.016 42.1773L62.394 42.5068L62.5133 41.811L62.0078 41.3196L62.7036 41.2174L63.016 40.5869Z" fill="#18113C"/>
<path opacity="0.3" d="M66.5423 40.5869L66.8547 41.2174L67.5505 41.3196L67.045 41.811L67.1642 42.5068L66.5423 42.1773L65.9175 42.5068L66.0368 41.811L65.5312 41.3196L66.2299 41.2174L66.5423 40.5869Z" fill="#18113C"/>
<path opacity="0.3" d="M70.0668 40.5869L70.3792 41.2174L71.0778 41.3196L70.5723 41.811L70.6916 42.5068L70.0668 42.1773L69.442 42.5068L69.5613 41.811L69.0586 41.3196L69.7544 41.2174L70.0668 40.5869Z" fill="#18113C"/>
<path opacity="0.3" d="M73.5931 40.5869L73.9026 41.2174L74.6013 41.3196L74.0958 41.811L74.215 42.5068L73.5931 42.1773L72.9683 42.5068L73.0876 41.811L72.582 41.3196L73.2807 41.2174L73.5931 40.5869Z" fill="#18113C"/>
<path opacity="0.1" d="M77.1176 40.5869L77.43 41.2174L78.1258 41.3196L77.6231 41.811L77.7424 42.5068L77.1176 42.1773L76.4928 42.5068L76.6121 41.811L76.1094 41.3196L76.8052 41.2174L77.1176 40.5869Z" fill="#18113C"/>
<path opacity="0.3" d="M66.6528 62.0713H61.5977V67.1265H66.6528V62.0713Z" fill="#18113C"/>
<path opacity="0.3" d="M66.0621 69.16H62.1884C62.0317 69.16 61.8815 69.0978 61.7707 68.987C61.6599 68.8763 61.5977 68.726 61.5977 68.5693C61.5984 68.4132 61.661 68.2636 61.7717 68.1535C61.8824 68.0433 62.0322 67.9814 62.1884 67.9814H66.0621C66.2183 67.9814 66.3681 68.0433 66.4788 68.1535C66.5895 68.2636 66.6521 68.4132 66.6528 68.5693C66.6528 68.726 66.5906 68.8763 66.4798 68.987C66.369 69.0978 66.2188 69.16 66.0621 69.16Z" fill="#18113C"/>
<path opacity="0.3" d="M82.3302 62.0713H69.3287C69.0307 62.0713 68.7891 62.3129 68.7891 62.6109V62.6137C68.7891 62.9117 69.0307 63.1533 69.3287 63.1533H82.3302C82.6282 63.1533 82.8698 62.9117 82.8698 62.6137V62.6109C82.8698 62.3129 82.6282 62.0713 82.3302 62.0713Z" fill="#18113C"/>
<path opacity="0.3" d="M79.4902 64.9111H69.3287C69.0307 64.9111 68.7891 65.1527 68.7891 65.4507V65.4536C68.7891 65.7516 69.0307 65.9932 69.3287 65.9932H79.4902C79.7882 65.9932 80.0298 65.7516 80.0298 65.4536V65.4507C80.0298 65.1527 79.7882 64.9111 79.4902 64.9111Z" fill="#18113C"/>
<path opacity="0.3" d="M82.3302 67.751H69.3287C69.0307 67.751 68.7891 67.9926 68.7891 68.2906V68.2934C68.7891 68.5914 69.0307 68.833 69.3287 68.833H82.3302C82.6282 68.833 82.8698 68.5914 82.8698 68.2934V68.2906C82.8698 67.9926 82.6282 67.751 82.3302 67.751Z" fill="#18113C"/>
<path opacity="0.3" d="M74.9462 70.5908H69.3287C69.0307 70.5908 68.7891 70.8324 68.7891 71.1304V71.1333C68.7891 71.4313 69.0307 71.6729 69.3287 71.6729H74.9462C75.2442 71.6729 75.4858 71.4313 75.4858 71.1333V71.1304C75.4858 70.8324 75.2442 70.5908 74.9462 70.5908Z" fill="#18113C"/>
<path d="M58.3717 20.3633H40.1445V44.5658H58.3717V20.3633Z" fill="white"/>
<path d="M57.5192 21.2148H40.9961V43.7133H57.5192V21.2148Z" fill="#754FFE"/>
<path opacity="0.4" d="M57.5192 21.2148H40.9961V43.7133H57.5192V21.2148Z" fill="white"/>
<path d="M57.5176 38.6865V43.7133H56.2339C55.8788 43.3749 55.4873 43.0768 55.0667 42.8243C54.864 42.7022 54.6463 42.6067 54.4192 42.5403C52.4908 42.0178 55.2712 36.8604 55.2712 36.8604C55.913 37.0648 56.7111 37.7919 57.5176 38.6865Z" fill="#754FFE"/>
<path opacity="0.6" d="M57.5176 38.6865V43.7133H56.2339C55.8788 43.3749 55.4873 43.0768 55.0667 42.8243C54.864 42.7022 54.6463 42.6067 54.4192 42.5403C52.4908 42.0178 55.2712 36.8604 55.2712 36.8604C55.913 37.0648 56.7111 37.7919 57.5176 38.6865Z" fill="white"/>
<path opacity="0.2" d="M57.5173 43.6962V43.7133H56.2337C55.8785 43.3749 55.487 43.0768 55.0664 42.8243L55.447 40.4473C55.8182 40.7552 56.1476 41.1104 56.4268 41.5037C56.9123 42.1673 57.2811 42.9087 57.5173 43.6962Z" fill="#18113C"/>
<path d="M53.9788 36.6527C53.939 36.8572 53.8993 37.0645 53.8538 37.269C53.8084 37.4735 53.7459 37.7546 53.6863 37.996C53.0672 40.4867 52.0448 42.6678 50.5793 43.713H45.5696C44.1126 42.9717 43.8343 41.725 43.8826 40.4186C43.9138 39.5353 44.0956 38.635 44.1666 37.8626C44.1891 37.5961 44.1891 37.3282 44.1666 37.0617C44.1297 36.6584 44.053 36.1728 43.9593 35.6417C43.5248 33.168 42.6756 29.5982 43.1073 27.7664C43.6213 25.5398 45.2458 24.9264 45.2458 24.9264C45.2458 24.9264 45.7968 24.8894 46.6431 24.8951C47.2679 24.8951 48.0631 24.9264 48.8952 25.0059H48.9548C49.8882 25.0899 50.8126 25.2533 51.7182 25.4944L51.9255 25.554C52.1044 25.608 52.2833 25.6648 52.4566 25.7272C52.5702 25.767 52.6809 25.8096 52.7917 25.855C52.9353 25.916 53.0649 26.0059 53.1722 26.1192C54.4588 27.4398 54.7768 32.282 53.9788 36.6527Z" fill="#263238"/>
<path d="M52.4844 26.131C54.2878 25.279 55.066 31.1606 54.4213 35.4064" stroke="#263238" stroke-width="0.5" stroke-linecap="round" stroke-linejoin="round"/>
<path d="M56.5639 43.7134H43.6022C43.5482 43.4692 43.4942 43.2249 43.4374 42.9835C43.1174 41.5701 42.693 40.1823 42.168 38.8315C42.699 38.5158 43.2535 38.2415 43.8265 38.0107C43.9344 37.9624 44.0452 37.917 44.1645 37.8716C44.6132 37.6926 45.1358 37.508 45.7208 37.332L45.9082 37.278C46.3484 37.1502 46.8227 37.0309 47.3282 36.9258C48.3833 36.7044 49.4547 36.5695 50.5318 36.5226C51.3516 36.4839 52.173 36.4972 52.9912 36.5623C53.3121 36.585 53.6387 36.6163 53.971 36.6589C54.3885 36.71 54.823 36.7753 55.2518 36.8577C55.3001 36.9344 56.0896 38.1896 56.4162 41.5067C56.4958 42.1599 56.544 42.8927 56.5639 43.7134Z" fill="#754FFE"/>
<path d="M45.7963 39.8621C45.7963 39.8621 44.3138 36.2098 48.943 35.798C53.5722 35.3862 54.4952 38.2717 54.4952 38.2717L52.3453 37.5276L51.2093 42.7674C50.4795 40.7692 49.0345 39.1126 47.1538 38.1183L45.7963 39.8621Z" fill="#754FFE"/>
<path opacity="0.6" d="M45.7963 39.8621C45.7963 39.8621 44.3138 36.2098 48.943 35.798C53.5722 35.3862 54.4952 38.2717 54.4952 38.2717L52.3453 37.5276L51.2093 42.7674C50.4795 40.7692 49.0345 39.1126 47.1538 38.1183L45.7963 39.8621Z" fill="white"/>
<path d="M51.0165 40.4477C49.8243 39.2112 48.4706 38.1413 46.9922 37.2669C48.0998 36.3297 47.9862 34.8529 47.7647 33.9243C47.6943 33.6327 47.5993 33.3477 47.4807 33.0723L50.5564 33.8163C50.4615 34.2447 50.3979 34.6794 50.3661 35.1171C50.3395 35.4392 50.3519 35.7635 50.403 36.0827C50.5649 37.0227 51.0931 37.0625 51.0931 37.0625C51.5958 38.1189 51.0165 40.4477 51.0165 40.4477Z" fill="#E4897B"/>
<path opacity="0.2" d="M50.3773 35.1134C50.3507 35.4356 50.3631 35.7598 50.4142 36.079C49.1901 35.8518 48.3069 34.8152 47.7645 33.9291C47.6941 33.6376 47.5991 33.3526 47.4805 33.0771L50.5562 33.8212C50.4655 34.2471 50.4057 34.6789 50.3773 35.1134Z" fill="#18113C"/>
<path d="M49.4039 24.9922C52.7523 24.9922 53.0334 26.611 53.2266 29.3999C53.4651 32.8874 52.687 35.3639 49.3045 34.6084C44.7122 33.5889 44.9082 24.9922 49.4039 24.9922Z" fill="#E4897B"/>
<path d="M51.4766 29.2461C51.6915 29.6547 51.9547 30.0361 52.2604 30.3821C52.1818 30.4943 52.0734 30.5825 51.9475 30.6366C51.8216 30.6908 51.6831 30.7089 51.5476 30.6888L51.4766 29.2461Z" fill="#DE5753"/>
<path d="M49.8187 29.0305C49.8187 29.2549 49.708 29.4367 49.5574 29.4395C49.4069 29.4423 49.2734 29.2663 49.2734 29.0419C49.2734 28.8175 49.3842 28.6386 49.5319 28.6358C49.6796 28.6329 49.813 28.7977 49.8187 29.0305Z" fill="#263238"/>
<path d="M49.4805 28.6352L49.9604 28.4336C49.9604 28.4336 49.7275 28.8454 49.4805 28.6352Z" fill="#263238"/>
<path d="M52.5843 28.9143C52.5843 29.1387 52.4736 29.3204 52.3231 29.3233C52.1725 29.3261 52.0391 29.15 52.0391 28.9257C52.0391 28.7013 52.1498 28.5224 52.2975 28.5196C52.4452 28.5167 52.5787 28.6928 52.5843 28.9143Z" fill="#263238"/>
<path d="M52.2461 28.5308L52.7232 28.332C52.7232 28.332 52.5074 28.7467 52.2461 28.5308Z" fill="#263238"/>
<path d="M49.7969 27.1505C49.7969 27.1505 49.0357 27.0511 48.6211 27.5566" stroke="#263238" stroke-width="0.707962" stroke-linecap="round" stroke-linejoin="round"/>
<path d="M51.7656 27.042C51.9503 26.9955 52.1432 26.9915 52.3296 27.0304C52.5161 27.0692 52.6913 27.1499 52.842 27.2664" stroke="#263238" stroke-width="0.707962" stroke-linecap="round" stroke-linejoin="round"/>
<path d="M46.4921 29.7088C46.4921 29.7088 47.7616 27.4879 47.5742 25.7697C47.5742 25.7697 49.4827 23.8016 52.0529 25.747C52.0529 25.747 53.1292 27.5987 53.1889 29.0357C53.1889 29.0357 53.7228 24.2077 49.0709 24.0856C44.4189 23.9635 44.4303 30.7738 46.8273 32.8073C46.8273 32.8073 45.7055 31.0976 46.4921 29.7088Z" fill="#263238"/>
<path d="M46.9302 30.2805C46.9041 29.9677 46.7555 29.6778 46.5166 29.4741C46.2778 29.2703 45.9681 29.1692 45.6551 29.1928C44.8031 29.2837 44.4112 31.0047 46.5071 31.4222C46.7968 31.4818 46.9672 31.1893 46.9302 30.2805Z" fill="#E4897B"/>
<path d="M51.1788 32.1548C51.1788 32.1548 50.0428 32.4104 49.5742 31.3965" stroke="#263238" stroke-width="0.707962" stroke-linecap="round" stroke-linejoin="round"/>
<path d="M47.5738 25.7702C47.5738 25.7702 50.6666 24.3985 52.7142 26.2104C52.7142 26.2104 53.5179 23.8248 50.7745 23.0097C48.0311 22.1946 45.2422 24.9381 45.2422 24.9381L47.5738 25.7702Z" fill="#263238"/>
<path d="M47.574 25.77C47.574 25.77 45.7677 27.5507 46.029 31.0978C46.2903 34.645 45.9466 36.8886 45.2423 39.1095C44.538 41.3304 46.3783 41.9921 46.3783 41.9921C46.3783 41.9921 44.2767 42.509 43.845 40.2597C43.561 38.7829 44.2369 35.585 43.8961 31.7766C43.5553 27.9682 44.9157 25.273 47.574 25.77Z" fill="#263238"/>
<path opacity="0.2" d="M44.2015 43.7135H43.6022C43.5483 43.4693 43.4943 43.225 43.4375 42.9836L43.8891 42.5889C44.0166 42.9568 44.121 43.3325 44.2015 43.7135Z" fill="#18113C"/>
<path d="M43.8929 43.7132H40.9961V39.7372C41.3543 39.3979 41.7464 39.0962 42.1662 38.8369C42.5829 39.013 42.947 39.2938 43.2231 39.6521C43.4993 40.0103 43.6782 40.4339 43.7424 40.8817C43.826 41.4462 43.8744 42.0153 43.8872 42.5857C43.9014 42.9918 43.8986 43.3809 43.8929 43.7132Z" fill="#754FFE"/>
<path opacity="0.6" d="M43.8929 43.7132H40.9961V39.7372C41.3543 39.3979 41.7464 39.0962 42.1662 38.8369C42.5829 39.013 42.947 39.2938 43.2231 39.6521C43.4993 40.0103 43.6782 40.4339 43.7424 40.8817C43.826 41.4462 43.8744 42.0153 43.8872 42.5857C43.9014 42.9918 43.8986 43.3809 43.8929 43.7132Z" fill="white"/>
<path opacity="0.3" d="M58.3717 47.3857H40.1445V71.5541H58.3717V47.3857Z" fill="#18113C"/>
<path opacity="0.3" d="M55.3062 51.1309H42.8755C42.7322 51.1301 42.5949 51.0726 42.4938 50.971C42.3927 50.8693 42.3359 50.7318 42.3359 50.5884C42.3359 50.4453 42.3928 50.3081 42.494 50.2069C42.5952 50.1057 42.7324 50.0488 42.8755 50.0488H55.3062C55.3773 50.0485 55.4478 50.0621 55.5136 50.0891C55.5794 50.116 55.6392 50.1557 55.6896 50.2059C55.74 50.256 55.78 50.3156 55.8073 50.3813C55.8346 50.4469 55.8487 50.5173 55.8487 50.5884C55.8487 50.6597 55.8346 50.7302 55.8074 50.796C55.7801 50.8618 55.7402 50.9216 55.6898 50.972C55.6394 51.0224 55.5796 51.0623 55.5138 51.0896C55.448 51.1168 55.3775 51.1309 55.3062 51.1309Z" fill="white"/>
<path opacity="0.3" d="M55.3091 53.0713H42.8755C42.5775 53.0713 42.3359 53.3129 42.3359 53.6109V53.6137C42.3359 53.9117 42.5775 54.1533 42.8755 54.1533H55.3091C55.6071 54.1533 55.8487 53.9117 55.8487 53.6137V53.6109C55.8487 53.3129 55.6071 53.0713 55.3091 53.0713Z" fill="white"/>
<path opacity="0.3" d="M49.6262 57.1777H42.8755C42.7322 57.177 42.5949 57.1195 42.4938 57.0179C42.3927 56.9162 42.3359 56.7787 42.3359 56.6353C42.3359 56.4922 42.3928 56.355 42.494 56.2538C42.5952 56.1526 42.7324 56.0957 42.8755 56.0957H49.6262C49.6973 56.0953 49.7678 56.109 49.8336 56.136C49.8994 56.1629 49.9592 56.2026 50.0096 56.2527C50.06 56.3029 50.1 56.3625 50.1273 56.4282C50.1546 56.4938 50.1687 56.5642 50.1687 56.6353C50.1687 56.7792 50.1115 56.9171 50.0098 57.0189C49.9081 57.1206 49.7701 57.1777 49.6262 57.1777Z" fill="white"/>
<path opacity="0.3" d="M55.3062 60.1992H42.8755C42.7324 60.1992 42.5952 60.1424 42.494 60.0412C42.3928 59.94 42.3359 59.8027 42.3359 59.6596C42.3359 59.5163 42.3927 59.3787 42.4938 59.2771C42.5949 59.1754 42.7322 59.1179 42.8755 59.1172H55.3062C55.4501 59.1172 55.5881 59.1743 55.6898 59.2761C55.7915 59.3778 55.8487 59.5158 55.8487 59.6596C55.8487 59.7307 55.8346 59.8011 55.8073 59.8668C55.78 59.9324 55.74 59.992 55.6896 60.0422C55.6392 60.0923 55.5794 60.132 55.5136 60.159C55.4478 60.1859 55.3773 60.1996 55.3062 60.1992Z" fill="white"/>
<path opacity="0.3" d="M55.3062 63.2208H42.8755C42.7324 63.2208 42.5952 63.1639 42.494 63.0628C42.3928 62.9616 42.3359 62.8243 42.3359 62.6812C42.3359 62.5381 42.3928 62.4008 42.494 62.2996C42.5952 62.1985 42.7324 62.1416 42.8755 62.1416H55.3062C55.3773 62.1412 55.4478 62.1549 55.5136 62.1819C55.5794 62.2088 55.6392 62.2485 55.6896 62.2986C55.74 62.3488 55.78 62.4084 55.8073 62.4741C55.8346 62.5397 55.8487 62.6101 55.8487 62.6812C55.8487 62.7523 55.8346 62.8227 55.8073 62.8884C55.78 62.954 55.74 63.0136 55.6896 63.0638C55.6392 63.1139 55.5794 63.1536 55.5136 63.1805C55.4478 63.2075 55.3773 63.2212 55.3062 63.2208Z" fill="white"/>
<path opacity="0.3" d="M46.7862 66.2344H42.8755C42.7324 66.2344 42.5952 66.1776 42.494 66.0764C42.3928 65.9752 42.3359 65.8379 42.3359 65.6948C42.3356 65.6237 42.3492 65.5532 42.3762 65.4874C42.4031 65.4216 42.4428 65.3618 42.493 65.3114C42.5431 65.261 42.6027 65.221 42.6684 65.1937C42.734 65.1664 42.8044 65.1524 42.8755 65.1524H46.7862C46.8576 65.152 46.9283 65.1658 46.9943 65.1929C47.0602 65.22 47.1202 65.2599 47.1706 65.3104C47.2211 65.3608 47.261 65.4208 47.2881 65.4868C47.3153 65.5528 47.329 65.6235 47.3287 65.6948C47.3287 65.7659 47.3146 65.8363 47.2873 65.902C47.26 65.9676 47.22 66.0272 47.1696 66.0774C47.1192 66.1275 47.0594 66.1672 46.9936 66.1942C46.9278 66.2211 46.8573 66.2348 46.7862 66.2344Z" fill="white"/>
<path opacity="0.3" d="M52.4662 69.2677H42.8755C42.7324 69.2677 42.5952 69.2109 42.494 69.1097C42.3928 69.0085 42.3359 68.8712 42.3359 68.7281C42.3359 68.585 42.3928 68.4477 42.494 68.3465C42.5952 68.2453 42.7324 68.1885 42.8755 68.1885H52.4662C52.5373 68.1881 52.6078 68.2018 52.6736 68.2287C52.7394 68.2557 52.7992 68.2954 52.8496 68.3455C52.9 68.3957 52.94 68.4553 52.9673 68.5209C52.9946 68.5866 53.0087 68.657 53.0087 68.7281C53.0087 68.7992 52.9946 68.8696 52.9673 68.9353C52.94 69.0009 52.9 69.0605 52.8496 69.1107C52.7992 69.1608 52.7394 69.2005 52.6736 69.2274C52.6078 69.2544 52.5373 69.2681 52.4662 69.2677Z" fill="white"/>
<path d="M98.9491 67.0552C98.708 66.9589 98.4473 66.9218 98.1889 66.947C97.9304 66.9722 97.6818 67.0589 97.4638 67.2C96.0864 67.9867 95.5099 71.2186 95.2685 73.732C95.3565 70.1678 95.9416 65.2376 98.2789 62.5538L98.0659 62.3692C96.1091 64.6128 95.348 68.2934 95.0839 71.5225C95.047 70.148 94.9618 68.6598 94.78 67.2426C94.8425 64.201 95.1066 61.4405 95.8024 60.5005L95.5724 60.3301C94.9589 61.1594 94.6636 63.2666 94.5443 65.7261C94.195 63.8829 93.6383 62.3181 92.7665 61.5144L92.5762 61.7217C93.6156 62.6788 94.1893 64.8627 94.4903 67.2767C94.4903 67.6175 94.4903 67.964 94.4761 68.3105C94.2063 66.8905 93.8428 65.7232 93.3629 65.2546C91.7441 63.6813 89.8413 65.2319 89.8242 65.2546L90.006 65.4705C90.0741 65.4137 91.7299 64.0704 93.1641 65.4705C93.7945 66.0811 94.212 68.0776 94.4847 70.1849C94.5216 72.7096 94.6465 75.0839 94.7317 76.4641C94.7317 76.6828 94.7119 76.8078 94.7119 76.8191H94.7545C94.7857 77.2962 94.8084 77.603 94.8141 77.6711L95.064 77.6512C95.064 77.8245 95.0896 77.9352 95.0924 77.9778L95.3764 77.9523C95.3764 77.9296 95.3338 77.5092 95.3026 76.8163H95.3906C95.3906 76.7368 95.4843 68.6655 97.62 67.4443C97.8004 67.3249 98.0069 67.2509 98.222 67.2287C98.4371 67.2064 98.6545 67.2365 98.8554 67.3165C100.105 67.8334 100.772 70.2246 100.778 70.2502L101.062 70.1735C101.008 70.0713 100.329 67.626 98.9491 67.0552Z" fill="#263238"/>
<path d="M91.5639 67.3132C90.3228 67.4012 89.3629 69.0797 89.3203 69.1507L89.5702 69.2899C89.5702 69.2728 90.4961 67.6739 91.5838 67.5859C92.041 67.5575 92.4756 67.8045 92.8788 68.3271C94.5545 70.5167 94.2165 76.7363 94.2137 76.7988L94.4977 76.8158C94.4977 76.5546 94.8441 70.4258 93.1032 68.1567C92.6403 67.5603 92.1206 67.2734 91.5639 67.3132Z" fill="#263238"/>
<g opacity="0.2">
<path opacity="0.2" d="M98.9491 67.0552C98.708 66.9589 98.4473 66.9218 98.1889 66.947C97.9304 66.9722 97.6818 67.0589 97.4638 67.2C96.0864 67.9867 95.5099 71.2186 95.2685 73.732C95.3565 70.1678 95.9416 65.2376 98.2789 62.5538L98.0659 62.3692C96.1091 64.6128 95.348 68.2934 95.0839 71.5225C95.047 70.148 94.9618 68.6598 94.78 67.2426C94.8425 64.201 95.1066 61.4405 95.8024 60.5005L95.5724 60.3301C94.9589 61.1594 94.6636 63.2666 94.5443 65.7261C94.195 63.8829 93.6383 62.3181 92.7665 61.5144L92.5762 61.7217C93.6156 62.6788 94.1893 64.8627 94.4903 67.2767C94.4903 67.6175 94.4903 67.964 94.4761 68.3105C94.2063 66.8905 93.8428 65.7232 93.3629 65.2546C91.7441 63.6813 89.8413 65.2319 89.8242 65.2546L90.006 65.4705C90.0741 65.4137 91.7299 64.0704 93.1641 65.4705C93.7945 66.0811 94.212 68.0776 94.4847 70.1849C94.5216 72.7096 94.6465 75.0839 94.7317 76.4641C94.7317 76.6828 94.7119 76.8078 94.7119 76.8191H94.7545C94.7857 77.2962 94.8084 77.603 94.8141 77.6711L95.064 77.6512C95.064 77.8245 95.0896 77.9352 95.0924 77.9778L95.3764 77.9523C95.3764 77.9296 95.3338 77.5092 95.3026 76.8163H95.3906C95.3906 76.7368 95.4843 68.6655 97.62 67.4443C97.8004 67.3249 98.0069 67.2509 98.222 67.2287C98.4371 67.2064 98.6545 67.2365 98.8554 67.3165C100.105 67.8334 100.772 70.2246 100.778 70.2502L101.062 70.1735C101.008 70.0713 100.329 67.626 98.9491 67.0552Z" fill="white"/>
<path opacity="0.2" d="M91.5639 67.3132C90.3228 67.4012 89.3629 69.0797 89.3203 69.1507L89.5702 69.2899C89.5702 69.2728 90.4961 67.6739 91.5838 67.5859C92.041 67.5575 92.4756 67.8045 92.8788 68.3271C94.5545 70.5167 94.2165 76.7363 94.2137 76.7988L94.4977 76.8158C94.4977 76.5546 94.8441 70.4258 93.1032 68.1567C92.6403 67.5603 92.1206 67.2734 91.5639 67.3132Z" fill="white"/>
</g>
<path d="M99.4436 68.52C99.4436 68.52 98.3332 68.929 98.6626 69.8974C98.9921 70.8658 102.508 72.4534 102.508 72.4534C102.508 72.4534 103.982 71.1044 102.63 68.9091C101.278 66.7138 99.4749 67.827 99.4436 68.52Z" fill="#263238"/>
<path d="M94.6105 66.6767C94.6105 66.6767 95.7948 66.6256 95.8629 67.648C95.9311 68.6704 93.3069 71.4905 93.3069 71.4905C93.3069 71.4905 91.4269 70.8118 91.8301 68.2643C92.2334 65.7168 94.318 66.0491 94.6105 66.6767Z" fill="#263238"/>
<path d="M93.6088 61.7925C93.6088 61.7925 94.3983 61.7073 94.3358 61.2245C94.2734 60.7417 91.2658 59.5063 89.5078 61.5085C89.5078 61.5085 90.6438 63.4567 92.2853 63.4823C93.9269 63.5078 93.6088 61.7925 93.6088 61.7925Z" fill="#263238"/>
<path d="M95.0776 60.6251C95.0776 60.6251 94.3647 60.9716 94.1631 60.5286C93.9614 60.0855 95.8671 57.4472 98.4231 58.2083C98.4231 58.2083 98.4912 60.4632 97.1138 61.3522C95.7364 62.2411 95.0776 60.6251 95.0776 60.6251Z" fill="#263238"/>
<path d="M91.3412 68.1314C91.3412 68.1314 91.8865 67.6912 91.2986 67.4754C90.7107 67.2596 87.8253 67.322 87.7969 70.1791C87.7969 70.1791 91.1566 70.7471 91.5712 69.6508C91.9859 68.5546 91.3412 68.1314 91.3412 68.1314Z" fill="#263238"/>
<path d="M98.1933 61.7213C98.1933 61.7213 97.648 61.2811 98.2359 61.0652C98.8238 60.8494 101.709 60.9119 101.738 63.7689C101.738 63.7689 98.3779 64.3369 97.9633 63.2407C97.5486 62.1445 98.1933 61.7213 98.1933 61.7213Z" fill="#263238"/>
<path d="M96.4156 64.0222C96.4156 64.0222 96.3673 63.4883 96.799 63.6984C97.2306 63.9086 98.7358 65.5302 97.1767 67.0695C97.1767 67.0695 95.0779 65.516 95.4556 64.7066C95.8334 63.8972 96.4156 64.0222 96.4156 64.0222Z" fill="#263238"/>
<path d="M90.8474 64.7858C90.8474 64.7858 91.1711 64.357 90.6968 64.3058C90.2226 64.2547 88.0812 64.8227 88.5782 66.9556C88.5782 66.9556 91.1825 66.7596 91.2932 65.8735C91.404 64.9874 90.8474 64.7858 90.8474 64.7858Z" fill="#263238"/>
<path d="M99.6513 84.7399H90.7167L89.7539 74.959H100.617L99.6513 84.7399Z" fill="#754FFE"/>
<path opacity="0.2" d="M99.6513 84.7399H90.7167L89.7539 74.959H100.617L99.6513 84.7399Z" fill="white"/>
<path d="M101.095 73.8799H89.2773V76.0383H101.095V73.8799Z" fill="#754FFE"/>
<path opacity="0.5" d="M101.095 73.8799H89.2773V76.0383H101.095V73.8799Z" fill="white"/>
</svg>
