<svg width="90" height="32" viewBox="0 0 90 32" fill="none" xmlns="http://www.w3.org/2000/svg">
<g clip-path="url(#clip0_5153_20400)">
<path d="M38.53 11.6618C37.0855 11.6618 35.4427 12.327 34.4389 13.6589L34.4395 13.6564L34.4389 13.657L34.4395 11.8709H30.9942V24.336H34.4389V17.2432C34.4389 15.9667 35.4351 14.6096 37.2798 14.6096C38.7052 14.6096 40.1804 15.5949 40.1804 17.2432V24.336H43.6258V16.609C43.6258 13.7419 41.5611 11.6618 38.53 11.6618V11.6618ZM68.1127 11.8715L64.9981 20.3623L61.8834 11.8715H57.9477L63.11 24.3326H66.8854L72.0477 11.8715H68.1127ZM20.7086 15.6266C21.2953 14.8439 22.2299 14.3844 23.3586 14.3844C24.6002 14.3844 25.5421 15.0888 26.029 16.1286L20.0098 18.6096C19.8454 17.3363 20.1733 16.3405 20.7086 15.6266V15.6266ZM27.3276 20.5036C25.8776 21.5698 25.0491 21.8241 23.7268 21.8241C22.5368 21.8241 21.6051 21.4571 20.9483 20.8134L29.7564 17.1832C29.564 15.8304 29.0472 14.6218 28.252 13.7029C27.0947 12.3677 25.3817 11.6612 23.2961 11.6612C19.5078 11.6612 16.6512 14.4377 16.6512 18.105C16.6512 21.8673 19.5146 24.5479 23.6759 24.5479C26.0073 24.5479 28.3912 23.4501 29.5063 22.1676L27.3276 20.5036ZM16.3228 21.1931H8.49236V8.14307H5V24.336H16.3228V21.1931ZM78.2342 14.5944C76.3102 14.5944 74.913 16.043 74.913 18.1037C74.913 20.0712 76.393 21.613 78.2805 21.613C80.2052 21.613 81.6015 20.1245 81.6015 18.1037C81.6015 16.1361 80.1222 14.5944 78.2342 14.5944V14.5944ZM78.2342 24.5461C74.4663 24.5461 71.5139 21.7573 71.5139 18.1037C71.5139 14.491 74.4867 11.6612 78.2805 11.6612C82.0484 11.6612 85 14.4499 85 18.1037C85 21.7156 82.0279 24.546 78.2342 24.546V24.5461ZM51.7084 14.5944C49.7843 14.5944 48.388 16.043 48.388 18.1037C48.388 20.0712 49.8672 21.613 51.7552 21.613C53.6793 21.613 55.0756 20.1245 55.0756 18.1037C55.0756 16.1361 53.5964 14.5944 51.7084 14.5944ZM51.7084 24.5461C47.9404 24.5461 44.9888 21.7573 44.9888 18.1037C44.9888 14.491 47.9608 11.6612 51.7552 11.6612C55.5225 11.6612 58.4747 14.4499 58.4747 18.1037C58.4747 21.7156 55.5021 24.546 51.7084 24.546" fill="#E60012"/>
</g>
<defs>
<clipPath id="clip0_5153_20400">
<rect width="80" height="16.6906" fill="white" transform="translate(5 8)"/>
</clipPath>
</defs>
</svg>
